<svg width="386" height="15"  viewBox="0 0 386 15" fill="none" xmlns="http://www.w3.org/2000/svg">
<line x1="0%" x2="0%" y1="6" y2="15" stroke="white" stroke-width="1" class="tick large"></line><line x1="2%" x2="2%" y1="10" y2="15" stroke="white" stroke-width="1" class="tick small"></line><line x1="4%" x2="4%" y1="10" y2="15" stroke="white" stroke-width="1" class="tick small"></line><line x1="6%" x2="6%" y1="10" y2="15" stroke="white" stroke-width="1" class="tick small"></line><line x1="8%" x2="8%" y1="10" y2="15" stroke="white" stroke-width="1" class="tick small"></line><line x1="10%" x2="10%" y1="6" y2="15" stroke="white" stroke-width="1" class="tick large"></line><line x1="12%" x2="12%" y1="10" y2="15" stroke="white" stroke-width="1" class="tick small"></line><line x1="14.000000000000002%" x2="14.000000000000002%" y1="10" y2="15" stroke="white" stroke-width="1" class="tick small"></line><line x1="16%" x2="16%" y1="10" y2="15" stroke="white" stroke-width="1" class="tick small"></line><line x1="18%" x2="18%" y1="10" y2="15" stroke="white" stroke-width="1" class="tick small"></line><line x1="20%" x2="20%" y1="6" y2="15" stroke="white" stroke-width="1" class="tick large"></line><line x1="22%" x2="22%" y1="10" y2="15" stroke="white" stroke-width="1" class="tick small"></line><line x1="24%" x2="24%" y1="10" y2="15" stroke="white" stroke-width="1" class="tick small"></line><line x1="26%" x2="26%" y1="10" y2="15" stroke="white" stroke-width="1" class="tick small"></line><line x1="28.000000000000004%" x2="28.000000000000004%" y1="10" y2="15" stroke="white" stroke-width="1" class="tick small"></line><line x1="30%" x2="30%" y1="6" y2="15" stroke="white" stroke-width="1" class="tick large"></line><line x1="32%" x2="32%" y1="10" y2="15" stroke="white" stroke-width="1" class="tick small"></line><line x1="34%" x2="34%" y1="10" y2="15" stroke="white" stroke-width="1" class="tick small"></line><line x1="36%" x2="36%" y1="10" y2="15" stroke="white" stroke-width="1" class="tick small"></line><line x1="38%" x2="38%" y1="10" y2="15" stroke="white" stroke-width="1" class="tick small"></line><line x1="40%" x2="40%" y1="6" y2="15" stroke="white" stroke-width="1" class="tick large"></line><line x1="42%" x2="42%" y1="10" y2="15" stroke="white" stroke-width="1" class="tick small"></line><line x1="44%" x2="44%" y1="10" y2="15" stroke="white" stroke-width="1" class="tick small"></line><line x1="46%" x2="46%" y1="10" y2="15" stroke="white" stroke-width="1" class="tick small"></line><line x1="48%" x2="48%" y1="10" y2="15" stroke="white" stroke-width="1" class="tick small"></line><line x1="50%" x2="50%" y1="6" y2="15" stroke="white" stroke-width="1" class="tick large"></line><line x1="52%" x2="52%" y1="10" y2="15" stroke="white" stroke-width="1" class="tick small"></line><line x1="54%" x2="54%" y1="10" y2="15" stroke="white" stroke-width="1" class="tick small"></line><line x1="56.00000000000001%" x2="56.00000000000001%" y1="10" y2="15" stroke="white" stroke-width="1" class="tick small"></line><line x1="57.99999999999999%" x2="57.99999999999999%" y1="10" y2="15" stroke="white" stroke-width="1" class="tick small"></line><line x1="60%" x2="60%" y1="6" y2="15" stroke="white" stroke-width="1" class="tick large"></line><line x1="62%" x2="62%" y1="10" y2="15" stroke="white" stroke-width="1" class="tick small"></line><line x1="64%" x2="64%" y1="10" y2="15" stroke="white" stroke-width="1" class="tick small"></line><line x1="66%" x2="66%" y1="10" y2="15" stroke="white" stroke-width="1" class="tick small"></line><line x1="68%" x2="68%" y1="10" y2="15" stroke="white" stroke-width="1" class="tick small"></line><line x1="70%" x2="70%" y1="6" y2="15" stroke="white" stroke-width="1" class="tick large"></line><line x1="72%" x2="72%" y1="10" y2="15" stroke="white" stroke-width="1" class="tick small"></line><line x1="74%" x2="74%" y1="10" y2="15" stroke="white" stroke-width="1" class="tick small"></line><line x1="76%" x2="76%" y1="10" y2="15" stroke="white" stroke-width="1" class="tick small"></line><line x1="78%" x2="78%" y1="10" y2="15" stroke="white" stroke-width="1" class="tick small"></line><line x1="80%" x2="80%" y1="6" y2="15" stroke="white" stroke-width="1" class="tick large"></line><line x1="82%" x2="82%" y1="10" y2="15" stroke="white" stroke-width="1" class="tick small"></line><line x1="84%" x2="84%" y1="10" y2="15" stroke="white" stroke-width="1" class="tick small"></line><line x1="86%" x2="86%" y1="10" y2="15" stroke="white" stroke-width="1" class="tick small"></line><line x1="88%" x2="88%" y1="10" y2="15" stroke="white" stroke-width="1" class="tick small"></line><line x1="90%" x2="90%" y1="6" y2="15" stroke="white" stroke-width="1" class="tick large"></line><line x1="92%" x2="92%" y1="10" y2="15" stroke="white" stroke-width="1" class="tick small"></line><line x1="94%" x2="94%" y1="10" y2="15" stroke="white" stroke-width="1" class="tick small"></line><line x1="96%" x2="96%" y1="10" y2="15" stroke="white" stroke-width="1" class="tick small"></line><line x1="98%" x2="98%" y1="10" y2="15" stroke="white" stroke-width="1" class="tick small"></line><line x1="100%" x2="100%" y1="6" y2="15" stroke="white" stroke-width="1" class="tick large"></line>
</svg>
