<svg width="338" height="242" viewBox="0 0 338 242" fill="none" xmlns="http://www.w3.org/2000/svg">
<mask id="path-1-outside-1_2000_108816" maskUnits="userSpaceOnUse" x="0" y="0" width="338" height="242" fill="black">
<rect fill="white" width="338" height="242"/>
<path d="M318.196 5C326.372 5 333 11.6281 333 19.8037V204.196C333 212.372 326.372 219 318.196 219H179.777L169 233L158.223 219H19.8037C11.6281 219 5 212.372 5 204.196V19.8037C5 11.6281 11.6281 5 19.8037 5H318.196Z"/>
</mask>
<path d="M318.196 5C326.372 5 333 11.6281 333 19.8037V204.196C333 212.372 326.372 219 318.196 219H179.777L169 233L158.223 219H19.8037C11.6281 219 5 212.372 5 204.196V19.8037C5 11.6281 11.6281 5 19.8037 5H318.196Z" fill="white"/>
<path d="M318.196 5C326.372 5 333 11.6281 333 19.8037V204.196C333 212.372 326.372 219 318.196 219H179.777L169 233L158.223 219H19.8037C11.6281 219 5 212.372 5 204.196V19.8037C5 11.6281 11.6281 5 19.8037 5H318.196Z" fill="url(#paint0_linear_2000_108816)" fill-opacity="0.2"/>
<path d="M179.777 219V214H177.316L175.815 215.95L179.777 219ZM169 233L165.038 236.05L169 241.197L172.962 236.05L169 233ZM158.223 219L162.185 215.95L160.684 214H158.223V219ZM318.196 5V10C323.61 10 328 14.3895 328 19.8037H333H338C338 8.86669 329.133 0 318.196 0V5ZM333 19.8037H328V204.196H333H338V19.8037H333ZM333 204.196H328C328 209.61 323.61 214 318.196 214V219V224C329.133 224 338 215.133 338 204.196H333ZM318.196 219V214H179.777V219V224H318.196V219ZM179.777 219L175.815 215.95L165.038 229.95L169 233L172.962 236.05L183.739 222.05L179.777 219ZM169 233L172.962 229.95L162.185 215.95L158.223 219L154.261 222.05L165.038 236.05L169 233ZM158.223 219V214H19.8037V219V224H158.223V219ZM19.8037 219V214C14.3895 214 10 209.61 10 204.196H5H0C0 215.133 8.86669 224 19.8037 224V219ZM5 204.196H10V19.8037H5H0V204.196H5ZM5 19.8037H10C10 14.3895 14.3895 10 19.8037 10V5V0C8.86669 0 0 8.86669 0 19.8037H5ZM19.8037 5V10H318.196V5V0H19.8037V5Z" fill="url(#paint1_linear_2000_108816)" mask="url(#path-1-outside-1_2000_108816)"/>
<defs>
<linearGradient id="paint0_linear_2000_108816" x1="169" y1="126.673" x2="169" y2="248.346" gradientUnits="userSpaceOnUse">
<stop stop-color="#1F9B76" stop-opacity="0"/>
<stop offset="1" stop-color="#1F9B76"/>
</linearGradient>
<linearGradient id="paint1_linear_2000_108816" x1="169" y1="5" x2="169" y2="233" gradientUnits="userSpaceOnUse">
<stop stop-color="#188F6B"/>
<stop offset="1" stop-color="#57D2AD" stop-opacity="0.7"/>
</linearGradient>
</defs>
</svg>
