<svg width="142" height="107" viewBox="0 0 142 107" fill="none" xmlns="http://www.w3.org/2000/svg">
<mask id="path-1-outside-1_2000_108855" maskUnits="userSpaceOnUse" x="-0.113281" y="-0.113281" width="142" height="107" fill="black">
<rect fill="white" x="-0.113281" y="-0.113281" width="142" height="107"/>
<path d="M133.798 0.886719C137.713 0.886719 140.887 4.06066 140.887 7.97559V88.7979C140.887 92.7128 137.713 95.8867 133.798 95.8867H75.8721L70.3867 104.887L64.9014 95.8867H7.97559C4.06066 95.8867 0.886719 92.7128 0.886719 88.7979V7.97559C0.886719 4.06066 4.06066 0.886719 7.97559 0.886719H133.798Z"/>
</mask>
<path d="M133.798 0.886719C137.713 0.886719 140.887 4.06066 140.887 7.97559V88.7979C140.887 92.7128 137.713 95.8867 133.798 95.8867H75.8721L70.3867 104.887L64.9014 95.8867H7.97559C4.06066 95.8867 0.886719 92.7128 0.886719 88.7979V7.97559C0.886719 4.06066 4.06066 0.886719 7.97559 0.886719H133.798Z" fill="white"/>
<path d="M133.798 0.886719C137.713 0.886719 140.887 4.06066 140.887 7.97559V88.7979C140.887 92.7128 137.713 95.8867 133.798 95.8867H75.8721L70.3867 104.887L64.9014 95.8867H7.97559C4.06066 95.8867 0.886719 92.7128 0.886719 88.7979V7.97559C0.886719 4.06066 4.06066 0.886719 7.97559 0.886719H133.798Z" fill="url(#paint0_linear_2000_108855)" fill-opacity="0.2"/>
<path d="M75.8721 95.8867V95.0006H75.3744L75.1154 95.4256L75.8721 95.8867ZM70.3867 104.887L69.6301 105.348L70.3867 106.589L71.1433 105.348L70.3867 104.887ZM64.9014 95.8867L65.658 95.4256L65.399 95.0006H64.9014V95.8867ZM133.798 0.886719V1.77279C137.223 1.77279 140.001 4.55002 140.001 7.97559H140.887H141.773C141.773 3.57129 138.202 0.000642776 133.798 0.000642776V0.886719ZM140.887 7.97559H140.001V88.7979H140.887H141.773V7.97559H140.887ZM140.887 88.7979H140.001C140.001 92.2234 137.223 95.0006 133.798 95.0006V95.8867V96.7728C138.202 96.7728 141.773 93.2021 141.773 88.7979H140.887ZM133.798 95.8867V95.0006H75.8721V95.8867V96.7728H133.798V95.8867ZM75.8721 95.8867L75.1154 95.4256L69.6301 104.426L70.3867 104.887L71.1433 105.348L76.6287 96.3479L75.8721 95.8867ZM70.3867 104.887L71.1433 104.426L65.658 95.4256L64.9014 95.8867L64.1447 96.3479L69.6301 105.348L70.3867 104.887ZM64.9014 95.8867V95.0006H7.97559V95.8867V96.7728H64.9014V95.8867ZM7.97559 95.8867V95.0006C4.55002 95.0006 1.77279 92.2234 1.77279 88.7979H0.886719H0.000642776C0.000642776 93.2021 3.57129 96.7728 7.97559 96.7728V95.8867ZM0.886719 88.7979H1.77279V7.97559H0.886719H0.000642776V88.7979H0.886719ZM0.886719 7.97559H1.77279C1.77279 4.55002 4.55002 1.77279 7.97559 1.77279V0.886719V0.000642776C3.57129 0.000642776 0.000642776 3.57129 0.000642776 7.97559H0.886719ZM7.97559 0.886719V1.77279H133.798V0.886719V0.000642776H7.97559V0.886719Z" fill="white" fill-opacity="0.2" mask="url(#path-1-outside-1_2000_108855)"/>
<defs>
<linearGradient id="paint0_linear_2000_108855" x1="70.8871" y1="53.2875" x2="70.8871" y2="112.334" gradientUnits="userSpaceOnUse">
<stop stop-color="#4A4A4A" stop-opacity="0"/>
<stop offset="1" stop-color="#4A4A4A"/>
</linearGradient>
</defs>
</svg>
