<svg width="63" height="63" viewBox="0 0 63 63" fill="none" xmlns="http://www.w3.org/2000/svg">
<g filter="url(#filter0_d_2000_114952)">
<circle cx="25" cy="25" r="25" transform="matrix(1 0 -0.0174524 0.999848 6.85742 3.20703)" fill="url(#paint0_linear_2000_114952)"/>
<circle cx="25" cy="25" r="25" transform="matrix(1 0 -0.0174524 0.999848 6.85742 3.20703)" fill="url(#paint1_linear_2000_114952)"/>
<circle cx="25" cy="25" r="23.6997" transform="matrix(1 0 -0.0174524 0.999848 6.85742 3.20703)" stroke="white" stroke-opacity="0.3" stroke-width="2.60069"/>
</g>
<path d="M41.5908 27.2823C42.0728 27.5633 42.0606 28.2661 41.5688 28.5471L26.1119 37.3808C25.62 37.6619 25.0175 37.3105 25.0273 36.7484L25.3357 19.081C25.3455 18.5189 25.9603 18.1675 26.4423 18.4486L41.5908 27.2823Z" fill="white"/>
<defs>
<filter id="filter0_d_2000_114952" x="0.00153017" y="-0.00118804" width="62.8407" height="62.8251" filterUnits="userSpaceOnUse" color-interpolation-filters="sRGB">
<feFlood flood-opacity="0" result="BackgroundImageFix"/>
<feColorMatrix in="SourceAlpha" type="matrix" values="0 0 0 0 0 0 0 0 0 0 0 0 0 0 0 0 0 0 127 0" result="hardAlpha"/>
<feOffset dy="3.20822"/>
<feGaussianBlur stdDeviation="3.20822"/>
<feComposite in2="hardAlpha" operator="out"/>
<feColorMatrix type="matrix" values="0 0 0 0 0 0 0 0 0 0 0 0 0 0 0 0 0 0 0.2 0"/>
<feBlend mode="normal" in2="BackgroundImageFix" result="effect1_dropShadow_2000_114952"/>
<feBlend mode="normal" in="SourceGraphic" in2="effect1_dropShadow_2000_114952" result="shape"/>
</filter>
<linearGradient id="paint0_linear_2000_114952" x1="25" y1="0" x2="25" y2="50" gradientUnits="userSpaceOnUse">
<stop stop-color="#9B3800"/>
<stop offset="1" stop-color="#AB3D00"/>
</linearGradient>
<linearGradient id="paint1_linear_2000_114952" x1="25" y1="0" x2="25" y2="50" gradientUnits="userSpaceOnUse">
<stop stop-color="#FF4D00"/>
<stop offset="1" stop-color="#D94B0D"/>
</linearGradient>
</defs>
</svg>
