<svg width="1610" height="732" viewBox="0 0 1610 732" fill="none" xmlns="http://www.w3.org/2000/svg">
<mask id="mask0_14_397" style="mask-type:alpha" maskUnits="userSpaceOnUse" x="25" y="0" width="1585" height="730">
<rect width="1584" height="730" transform="matrix(-1 0 0 1 1609.35 0)" fill="url(#paint0_linear_14_397)"/>
</mask>
<g mask="url(#mask0_14_397)">
<g style="mix-blend-mode:multiply" opacity="0.2" filter="url(#filter0_f_14_397)">
<path d="M352.858 106.774C352.858 83.6781 736.826 71 736.826 71H723.973C723.973 71 330.949 84.4519 330.949 107.94C330.949 156.604 1209.68 122.945 1205.11 191.15C1205.11 253.001 121.34 184.203 121.34 303.321C121.34 392.864 1393.35 333.757 1393.35 498.819C1393.35 593.455 -50.8243 581.056 -298.664 578.231C-320.836 577.201 -333.418 576.569 -334.563 576.511C-334.922 576.493 -334.649 576.808 -334.649 577.167C-334.649 577.51 -334.914 577.781 -334.571 577.786C-333.472 577.802 -320.87 577.978 -298.664 578.231C-45.2113 590.005 1461.35 653.777 1461.35 506.091C1461.35 311.639 164.09 374.692 164.09 298.323C164.09 188 1246.98 276.913 1246.98 188C1246.98 117.783 352.858 129.871 352.858 106.774Z" fill="url(#paint1_linear_14_397)"/>
</g>
<g filter="url(#filter1_iin_14_397)">
<path d="M350.836 104.706C350.836 81.1939 733.748 72.9985 733.748 72.9985L733.734 70C733.734 70 330.58 81.9844 330.58 105.895C330.58 155.329 1214.5 123.065 1214.5 185.03C1214.5 246.994 117.771 173.59 117.771 294.228C117.771 408.603 1396.24 328.112 1396.24 496.29C1396.24 601.889 -349.649 573.741 -349.649 573.741L-338.498 577.159C-338.498 577.159 1464.35 665.697 1464.35 501.531C1464.35 303.579 164.313 369.848 164.313 292.634C164.313 191.663 1262.93 281.874 1262.93 181.829C1262.93 110.339 350.836 128.218 350.836 104.706Z" fill="url(#paint2_linear_14_397)"/>
</g>
<g filter="url(#filter2_i_14_397)">
<path d="M342.354 106.078C342.354 79.7224 746.177 71 746.177 71H745.265C745.265 71 338.189 77.3265 338.189 106.078C338.189 142.816 1233.19 117.004 1233.19 185.164C1233.19 260.759 132.851 180.087 132.851 290.558C132.851 398.029 1418.02 312.02 1418.02 500.038C1418.02 623.271 -396.649 571.904 -396.649 571.904L-394.969 573.202C-394.969 573.202 1436.35 648.05 1436.35 499.038C1433.53 305.019 144.291 387.036 144.291 290.558C144.291 183.164 1240.57 268.517 1240.57 185.164C1240.57 117.221 342.354 137.505 342.354 106.078Z" fill="#CCBDA1"/>
</g>
<mask id="mask1_14_397" style="mask-type:alpha" maskUnits="userSpaceOnUse" x="-158" y="5" width="1663" height="640">
<path d="M1084.35 516.9L-66.6494 551.427L-77.1494 645L1439.85 595.461L1504.35 136.102L694.851 5L219.351 53.5379L-157.649 278.213L1084.35 516.9Z" fill="#D9D9D9"/>
</mask>
<g mask="url(#mask1_14_397)">
<g filter="url(#filter3_i_14_397)">
<path d="M342.354 106.112C342.354 79.7307 746.177 71 746.177 71H745.265C745.265 71 338.189 77.3325 338.189 106.112C338.189 142.885 1233.19 117.048 1233.19 185.273C1233.19 260.939 132.851 180.191 132.851 290.767C132.851 398.34 1418.02 312.25 1418.02 500.447C1418.02 623.797 -396.649 572.381 -396.649 572.381L-394.969 572.68C-394.969 572.68 1436.35 648.6 1436.35 499.446C1433.53 305.242 144.291 387.337 144.291 290.767C144.291 183.271 1240.57 268.705 1240.57 185.273C1240.57 117.265 342.354 137.568 342.354 106.112Z" fill="#FFC176"/>
<path d="M342.354 106.112C342.354 79.7307 746.177 71 746.177 71H745.265C745.265 71 338.189 77.3325 338.189 106.112C338.189 142.885 1233.19 117.048 1233.19 185.273C1233.19 260.939 132.851 180.191 132.851 290.767C132.851 398.34 1418.02 312.25 1418.02 500.447C1418.02 623.797 -396.649 572.381 -396.649 572.381L-394.969 572.68C-394.969 572.68 1436.35 648.6 1436.35 499.446C1433.53 305.242 144.291 387.337 144.291 290.767C144.291 183.271 1240.57 268.705 1240.57 185.273C1240.57 117.265 342.354 137.568 342.354 106.112Z" fill="url(#paint3_linear_14_397)" fill-opacity="0.4"/>
</g>
</g>
</g>
<g filter="url(#filter4_dd_14_397)">
<path d="M41.3506 583.043C41.3506 585.084 35.0826 588 27.3506 588C19.6186 588 13.3506 584.793 13.3506 583.043C13.3506 581.294 13.3506 580 13.3506 580H41.3506C41.3506 580 41.3506 581.002 41.3506 583.043Z" fill="url(#paint4_linear_14_397)"/>
</g>
<ellipse cx="27.3506" cy="580.5" rx="14" ry="5.5" fill="#C19D72"/>
<ellipse cx="27.3506" cy="580.5" rx="14" ry="5.5" fill="url(#paint5_linear_14_397)" fill-opacity="0.4"/>
<g filter="url(#filter5_i_14_397)">
<ellipse cx="27.8506" cy="580.5" rx="12.5" ry="4.5" fill="#C9A479"/>
<ellipse cx="27.8506" cy="580.5" rx="12.5" ry="4.5" fill="url(#paint6_linear_14_397)" fill-opacity="0.8" style="mix-blend-mode:color-dodge"/>
</g>
<g style="mix-blend-mode:multiply" opacity="0.4" filter="url(#filter6_f_14_397)">
<ellipse cx="2" cy="0.5" rx="2" ry="0.5" transform="matrix(1 0 0 -1 17.3506 581)" fill="#E4CAAA"/>
</g>
<g style="mix-blend-mode:multiply" filter="url(#filter7_f_14_397)">
<ellipse cx="2" cy="0.5" rx="2" ry="0.5" transform="matrix(1 0 0 -1 25.3506 581)" fill="#E4CAAA"/>
</g>
<g style="mix-blend-mode:multiply" filter="url(#filter8_f_14_397)">
<ellipse cx="1" cy="5e-05" rx="1" ry="5e-05" transform="matrix(1 0 0 -1 26.3506 581)" fill="#E4CAAA"/>
</g>
<g opacity="0.4">
<g style="mix-blend-mode:multiply" opacity="0.5" filter="url(#filter9_f_14_397)">
<ellipse cx="967.351" cy="222" rx="94" ry="5" fill="#8A7D64"/>
</g>
<g style="mix-blend-mode:multiply" opacity="0.5" filter="url(#filter10_f_14_397)">
<ellipse cx="967.351" cy="222.5" rx="69" ry="1.5" fill="#8A7D64"/>
</g>
</g>
<g filter="url(#filter11_d_14_397)">
<path d="M976.351 220.282C976.351 221.813 971.873 224 966.351 224C960.828 224 956.351 221.595 956.351 220.282C956.351 218.97 956.351 218 956.351 218H976.351C976.351 218 976.351 218.752 976.351 220.282Z" fill="url(#paint7_linear_14_397)"/>
</g>
<ellipse cx="966.351" cy="218" rx="10" ry="4" fill="#E9B298"/>
<ellipse cx="966.351" cy="218" rx="10" ry="4" fill="url(#paint8_linear_14_397)" fill-opacity="0.4"/>
<path d="M966.351 215.173C969.001 215.173 971.347 215.605 972.986 216.261C973.809 216.59 974.396 216.952 974.759 217.295C975.119 217.635 975.178 217.874 975.178 218C975.178 218.126 975.119 218.365 974.759 218.705C974.396 219.048 973.809 219.41 972.986 219.739C971.347 220.395 969.001 220.827 966.351 220.827C963.7 220.827 961.354 220.395 959.715 219.739C958.892 219.41 958.305 219.048 957.942 218.705C957.582 218.365 957.523 218.126 957.523 218C957.523 217.874 957.582 217.635 957.942 217.295C958.305 216.952 958.892 216.59 959.715 216.261C961.354 215.605 963.7 215.173 966.351 215.173Z" stroke="url(#paint9_linear_14_397)" stroke-opacity="0.95" stroke-width="2.34563"/>
<g filter="url(#filter12_i_14_397)">
<ellipse cx="966.351" cy="218.5" rx="9" ry="3.5" fill="#FFECDB"/>
<ellipse cx="966.351" cy="218.5" rx="9" ry="3.5" fill="url(#paint10_linear_14_397)" fill-opacity="0.8" style="mix-blend-mode:color-dodge"/>
</g>
<g opacity="0.3">
<g style="mix-blend-mode:multiply" opacity="0.5" filter="url(#filter13_f_14_397)">
<ellipse cx="267.351" cy="246" rx="94" ry="5" fill="#8A7D64"/>
</g>
<g style="mix-blend-mode:multiply" opacity="0.5" filter="url(#filter14_f_14_397)">
<ellipse cx="267.351" cy="246.5" rx="69" ry="1.5" fill="#8A7D64"/>
</g>
</g>
<g filter="url(#filter15_d_14_397)">
<path d="M276.351 243.282C276.351 244.813 271.873 247 266.351 247C260.828 247 256.351 244.595 256.351 243.282C256.351 241.97 256.351 241 256.351 241H276.351C276.351 241 276.351 241.752 276.351 243.282Z" fill="url(#paint11_linear_14_397)"/>
</g>
<ellipse cx="266.351" cy="241" rx="10" ry="4" fill="#E9B298"/>
<ellipse cx="266.351" cy="241" rx="10" ry="4" fill="url(#paint12_linear_14_397)" fill-opacity="0.4"/>
<path d="M266.351 237.533C269.062 237.533 271.491 237.974 273.224 238.667C274.091 239.014 274.758 239.413 275.198 239.83C275.638 240.246 275.817 240.642 275.817 241C275.817 241.358 275.638 241.754 275.198 242.17C274.758 242.587 274.091 242.986 273.224 243.333C271.491 244.026 269.062 244.467 266.351 244.467C263.64 244.467 261.21 244.026 259.478 243.333C258.61 242.986 257.944 242.587 257.503 242.17C257.063 241.754 256.884 241.358 256.884 241C256.884 240.642 257.063 240.246 257.503 239.83C257.944 239.413 258.61 239.014 259.478 238.667C261.21 237.974 263.64 237.533 266.351 237.533Z" stroke="url(#paint13_linear_14_397)" stroke-opacity="0.95" stroke-width="1.0662"/>
<g filter="url(#filter16_i_14_397)">
<ellipse cx="266.351" cy="241.5" rx="9" ry="3.5" fill="#FFECDB"/>
<ellipse cx="266.351" cy="241.5" rx="9" ry="3.5" fill="url(#paint14_linear_14_397)" fill-opacity="0.8" style="mix-blend-mode:color-dodge"/>
</g>
<g opacity="0.4">
<g style="mix-blend-mode:multiply" opacity="0.5" filter="url(#filter17_f_14_397)">
<ellipse cx="242.351" cy="588" rx="94" ry="5" fill="#8A7D64"/>
</g>
<g style="mix-blend-mode:multiply" opacity="0.5" filter="url(#filter18_f_14_397)">
<ellipse cx="242.351" cy="588.5" rx="69" ry="1.5" fill="#8A7D64"/>
</g>
</g>
<g filter="url(#filter19_d_14_397)">
<path d="M255.351 586.043C255.351 588.084 249.083 591 241.351 591C233.619 591 227.351 587.793 227.351 586.043C227.351 584.294 227.351 583 227.351 583H255.351C255.351 583 255.351 584.002 255.351 586.043Z" fill="url(#paint15_linear_14_397)"/>
</g>
<ellipse cx="241.351" cy="583.5" rx="14" ry="5.5" fill="#E9B298"/>
<ellipse cx="241.351" cy="583.5" rx="14" ry="5.5" fill="url(#paint16_linear_14_397)" fill-opacity="0.4"/>
<path d="M241.351 578.746C245.147 578.746 248.551 579.352 250.978 580.306C252.193 580.783 253.126 581.334 253.742 581.906C254.358 582.478 254.604 583.017 254.604 583.5C254.604 583.983 254.358 584.522 253.742 585.094C253.126 585.666 252.193 586.217 250.978 586.694C248.551 587.648 245.147 588.254 241.351 588.254C237.554 588.254 234.15 587.648 231.724 586.694C230.508 586.217 229.576 585.666 228.959 585.094C228.343 584.522 228.097 583.983 228.097 583.5C228.097 583.017 228.343 582.478 228.959 581.906C229.576 581.334 230.508 580.783 231.724 580.306C234.15 579.352 237.554 578.746 241.351 578.746Z" stroke="url(#paint17_linear_14_397)" stroke-opacity="0.95" stroke-width="1.49268"/>
<g filter="url(#filter20_i_14_397)">
<ellipse cx="241.851" cy="583.5" rx="12.5" ry="4.5" fill="#D6B99F"/>
<ellipse cx="241.851" cy="583.5" rx="12.5" ry="4.5" fill="url(#paint18_linear_14_397)" fill-opacity="0.8" style="mix-blend-mode:color-dodge"/>
</g>
<g style="mix-blend-mode:multiply" opacity="0.5" filter="url(#filter21_f_14_397)">
<ellipse cx="327.351" cy="728.5" rx="5" ry="1.5" fill="#BA9A85"/>
</g>
<g style="mix-blend-mode:multiply" opacity="0.3" filter="url(#filter22_f_14_397)">
<ellipse cx="327.851" cy="728.5" rx="2.5" ry="0.5" fill="#BA9A85"/>
</g>
<g opacity="0.3">
<g style="mix-blend-mode:multiply" opacity="0.5" filter="url(#filter23_f_14_397)">
<ellipse cx="1358.35" cy="434" rx="94" ry="5" fill="#8A7D64"/>
</g>
<g style="mix-blend-mode:multiply" opacity="0.5" filter="url(#filter24_f_14_397)">
<ellipse cx="1358.35" cy="434.5" rx="69" ry="1.5" fill="#8A7D64"/>
</g>
</g>
<g filter="url(#filter25_d_14_397)">
<path d="M1371.35 433.043C1371.35 435.084 1365.08 438 1357.35 438C1349.62 438 1343.35 434.793 1343.35 433.043C1343.35 431.294 1343.35 430 1343.35 430H1371.35C1371.35 430 1371.35 431.002 1371.35 433.043Z" fill="url(#paint19_linear_14_397)"/>
</g>
<ellipse cx="1357.35" cy="430.5" rx="14" ry="5.5" fill="#E9B298"/>
<ellipse cx="1357.35" cy="430.5" rx="14" ry="5.5" fill="url(#paint20_linear_14_397)" fill-opacity="0.4"/>
<path d="M1357.35 425.746C1361.15 425.746 1364.55 426.352 1366.98 427.306C1368.19 427.783 1369.13 428.334 1369.74 428.906C1370.36 429.478 1370.6 430.017 1370.6 430.5C1370.6 430.983 1370.36 431.522 1369.74 432.094C1369.13 432.666 1368.19 433.217 1366.98 433.694C1364.55 434.648 1361.15 435.254 1357.35 435.254C1353.55 435.254 1350.15 434.648 1347.72 433.694C1346.51 433.217 1345.58 432.666 1344.96 432.094C1344.34 431.522 1344.1 430.983 1344.1 430.5C1344.1 430.017 1344.34 429.478 1344.96 428.906C1345.58 428.334 1346.51 427.783 1347.72 427.306C1350.15 426.352 1353.55 425.746 1357.35 425.746Z" stroke="url(#paint21_linear_14_397)" stroke-opacity="0.95" stroke-width="1.49268"/>
<g filter="url(#filter26_i_14_397)">
<ellipse cx="1357.85" cy="430.5" rx="12.5" ry="4.5" fill="#FFECDB"/>
<ellipse cx="1357.85" cy="430.5" rx="12.5" ry="4.5" fill="url(#paint22_linear_14_397)" fill-opacity="0.8" style="mix-blend-mode:color-dodge"/>
</g>
<g opacity="0.5">
<g style="mix-blend-mode:multiply" opacity="0.5" filter="url(#filter27_f_14_397)">
<ellipse cx="635.351" cy="356" rx="94" ry="5" fill="#8A7D64"/>
</g>
<g style="mix-blend-mode:multiply" opacity="0.5" filter="url(#filter28_f_14_397)">
<ellipse cx="635.351" cy="356.5" rx="69" ry="1.5" fill="#8A7D64"/>
</g>
</g>
<g filter="url(#filter29_d_14_397)">
<path d="M646.351 353.663C646.351 355.449 640.978 358 634.351 358C627.723 358 622.351 355.194 622.351 353.663C622.351 352.132 622.351 351 622.351 351H646.351C646.351 351 646.351 351.877 646.351 353.663Z" fill="url(#paint23_linear_14_397)"/>
</g>
<ellipse cx="634.351" cy="351.5" rx="12" ry="4.5" fill="#E9B298"/>
<ellipse cx="634.351" cy="351.5" rx="12" ry="4.5" fill="url(#paint24_linear_14_397)" fill-opacity="0.4"/>
<path d="M634.351 347.64C637.608 347.64 640.528 348.136 642.611 348.917C643.655 349.308 644.456 349.76 644.983 350.228C645.512 350.696 645.711 351.127 645.711 351.5C645.711 351.873 645.512 352.304 644.983 352.772C644.456 353.24 643.655 353.692 642.611 354.083C640.528 354.864 637.608 355.36 634.351 355.36C631.093 355.36 628.173 354.864 626.09 354.083C625.046 353.692 624.246 353.24 623.718 352.772C623.189 352.304 622.99 351.873 622.99 351.5C622.99 351.127 623.189 350.696 623.718 350.228C624.246 349.76 625.046 349.308 626.09 348.917C628.173 348.136 631.093 347.64 634.351 347.64Z" stroke="url(#paint25_linear_14_397)" stroke-opacity="0.95" stroke-width="1.27944"/>
<g filter="url(#filter30_i_14_397)">
<ellipse cx="633.851" cy="352" rx="10.5" ry="4" fill="#FFECDB"/>
<ellipse cx="633.851" cy="352" rx="10.5" ry="4" fill="url(#paint26_linear_14_397)" fill-opacity="0.8" style="mix-blend-mode:color-dodge"/>
</g>
<defs>
<filter id="filter0_f_14_397" x="-338.749" y="67" width="1804.1" height="539" filterUnits="userSpaceOnUse" color-interpolation-filters="sRGB">
<feFlood flood-opacity="0" result="BackgroundImageFix"/>
<feBlend mode="normal" in="SourceGraphic" in2="BackgroundImageFix" result="shape"/>
<feGaussianBlur stdDeviation="2" result="effect1_foregroundBlur_14_397"/>
</filter>
<filter id="filter1_iin_14_397" x="-349.649" y="70" width="1814" height="531" filterUnits="userSpaceOnUse" color-interpolation-filters="sRGB">
<feFlood flood-opacity="0" result="BackgroundImageFix"/>
<feBlend mode="normal" in="SourceGraphic" in2="BackgroundImageFix" result="shape"/>
<feColorMatrix in="SourceAlpha" type="matrix" values="0 0 0 0 0 0 0 0 0 0 0 0 0 0 0 0 0 0 127 0" result="hardAlpha"/>
<feOffset dy="-2"/>
<feComposite in2="hardAlpha" operator="arithmetic" k2="-1" k3="1"/>
<feColorMatrix type="matrix" values="0 0 0 0 0.758013 0 0 0 0 0.700919 0 0 0 0 0.586731 0 0 0 0.5 0"/>
<feBlend mode="normal" in2="shape" result="effect1_innerShadow_14_397"/>
<feColorMatrix in="SourceAlpha" type="matrix" values="0 0 0 0 0 0 0 0 0 0 0 0 0 0 0 0 0 0 127 0" result="hardAlpha"/>
<feOffset dy="2"/>
<feComposite in2="hardAlpha" operator="arithmetic" k2="-1" k3="1"/>
<feColorMatrix type="matrix" values="0 0 0 0 0.895833 0 0 0 0 0.883702 0 0 0 0 0.839844 0 0 0 0.15 0"/>
<feBlend mode="normal" in2="effect1_innerShadow_14_397" result="effect2_innerShadow_14_397"/>
<feTurbulence type="fractalNoise" baseFrequency="1 1" stitchTiles="stitch" numOctaves="3" result="noise" seed="8423" />
<feColorMatrix in="noise" type="luminanceToAlpha" result="alphaNoise" />
<feComponentTransfer in="alphaNoise" result="coloredNoise1">
<feFuncA type="discrete" tableValues="1 1 1 1 1 1 1 1 1 1 1 1 1 1 1 1 1 1 1 1 1 1 1 1 1 1 1 1 1 1 1 1 1 1 1 1 1 1 1 1 1 1 1 1 1 1 1 1 1 1 1 0 0 0 0 0 0 0 0 0 0 0 0 0 0 0 0 0 0 0 0 0 0 0 0 0 0 0 0 0 0 0 0 0 0 0 0 0 0 0 0 0 0 0 0 0 0 0 0 0 "/>
</feComponentTransfer>
<feComposite operator="in" in2="effect2_innerShadow_14_397" in="coloredNoise1" result="noise1Clipped" />
<feFlood flood-color="rgba(213, 197, 167, 0.1)" result="color1Flood" />
<feComposite operator="in" in2="noise1Clipped" in="color1Flood" result="color1" />
<feMerge result="effect3_noise_14_397">
<feMergeNode in="effect2_innerShadow_14_397" />
<feMergeNode in="color1" />
</feMerge>
</filter>
<filter id="filter2_i_14_397" x="-396.649" y="71" width="1834" height="522" filterUnits="userSpaceOnUse" color-interpolation-filters="sRGB">
<feFlood flood-opacity="0" result="BackgroundImageFix"/>
<feBlend mode="normal" in="SourceGraphic" in2="BackgroundImageFix" result="shape"/>
<feColorMatrix in="SourceAlpha" type="matrix" values="0 0 0 0 0 0 0 0 0 0 0 0 0 0 0 0 0 0 127 0" result="hardAlpha"/>
<feOffset dx="1" dy="1"/>
<feGaussianBlur stdDeviation="0.5"/>
<feComposite in2="hardAlpha" operator="arithmetic" k2="-1" k3="1"/>
<feColorMatrix type="matrix" values="0 0 0 0 0 0 0 0 0 0 0 0 0 0 0 0 0 0 0.25 0"/>
<feBlend mode="normal" in2="shape" result="effect1_innerShadow_14_397"/>
</filter>
<filter id="filter3_i_14_397" x="-396.649" y="71" width="1834" height="522" filterUnits="userSpaceOnUse" color-interpolation-filters="sRGB">
<feFlood flood-opacity="0" result="BackgroundImageFix"/>
<feBlend mode="normal" in="SourceGraphic" in2="BackgroundImageFix" result="shape"/>
<feColorMatrix in="SourceAlpha" type="matrix" values="0 0 0 0 0 0 0 0 0 0 0 0 0 0 0 0 0 0 127 0" result="hardAlpha"/>
<feOffset dx="1" dy="2"/>
<feGaussianBlur stdDeviation="0.5"/>
<feComposite in2="hardAlpha" operator="arithmetic" k2="-1" k3="1"/>
<feColorMatrix type="matrix" values="0 0 0 0 0.786859 0 0 0 0 0.601696 0 0 0 0 0.467828 0 0 0 0.2 0"/>
<feBlend mode="multiply" in2="shape" result="effect1_innerShadow_14_397"/>
</filter>
<filter id="filter4_dd_14_397" x="2.67029e-05" y="570.358" width="54.7011" height="34.7011" filterUnits="userSpaceOnUse" color-interpolation-filters="sRGB">
<feFlood flood-opacity="0" result="BackgroundImageFix"/>
<feColorMatrix in="SourceAlpha" type="matrix" values="0 0 0 0 0 0 0 0 0 0 0 0 0 0 0 0 0 0 127 0" result="hardAlpha"/>
<feOffset dy="3.70849"/>
<feGaussianBlur stdDeviation="6.67528"/>
<feComposite in2="hardAlpha" operator="out"/>
<feColorMatrix type="matrix" values="0 0 0 0 0.472756 0 0 0 0 0.254801 0 0 0 0 0.153797 0 0 0 0.25 0"/>
<feBlend mode="multiply" in2="BackgroundImageFix" result="effect1_dropShadow_14_397"/>
<feColorMatrix in="SourceAlpha" type="matrix" values="0 0 0 0 0 0 0 0 0 0 0 0 0 0 0 0 0 0 127 0" result="hardAlpha"/>
<feOffset dy="1.4834"/>
<feGaussianBlur stdDeviation="0.741698"/>
<feComposite in2="hardAlpha" operator="out"/>
<feColorMatrix type="matrix" values="0 0 0 0 0.472756 0 0 0 0 0.254801 0 0 0 0 0.153797 0 0 0 0.2 0"/>
<feBlend mode="multiply" in2="effect1_dropShadow_14_397" result="effect2_dropShadow_14_397"/>
<feBlend mode="normal" in="SourceGraphic" in2="effect2_dropShadow_14_397" result="shape"/>
</filter>
<filter id="filter5_i_14_397" x="15.3506" y="576" width="25" height="9" filterUnits="userSpaceOnUse" color-interpolation-filters="sRGB">
<feFlood flood-opacity="0" result="BackgroundImageFix"/>
<feBlend mode="normal" in="SourceGraphic" in2="BackgroundImageFix" result="shape"/>
<feColorMatrix in="SourceAlpha" type="matrix" values="0 0 0 0 0 0 0 0 0 0 0 0 0 0 0 0 0 0 127 0" result="hardAlpha"/>
<feOffset dx="0.528863" dy="0.528863"/>
<feComposite in2="hardAlpha" operator="arithmetic" k2="-1" k3="1"/>
<feColorMatrix type="matrix" values="0 0 0 0 0.790064 0 0 0 0 0.646514 0 0 0 0 0.47733 0 0 0 1 0"/>
<feBlend mode="normal" in2="shape" result="effect1_innerShadow_14_397"/>
</filter>
<filter id="filter6_f_14_397" x="12.1747" y="574.824" width="14.3518" height="11.3518" filterUnits="userSpaceOnUse" color-interpolation-filters="sRGB">
<feFlood flood-opacity="0" result="BackgroundImageFix"/>
<feBlend mode="normal" in="SourceGraphic" in2="BackgroundImageFix" result="shape"/>
<feGaussianBlur stdDeviation="2.58795" result="effect1_foregroundBlur_14_397"/>
</filter>
<filter id="filter7_f_14_397" x="20.1747" y="574.824" width="14.3518" height="11.3518" filterUnits="userSpaceOnUse" color-interpolation-filters="sRGB">
<feFlood flood-opacity="0" result="BackgroundImageFix"/>
<feBlend mode="normal" in="SourceGraphic" in2="BackgroundImageFix" result="shape"/>
<feGaussianBlur stdDeviation="2.58795" result="effect1_foregroundBlur_14_397"/>
</filter>
<filter id="filter8_f_14_397" x="22.6227" y="577.272" width="9.45577" height="7.45587" filterUnits="userSpaceOnUse" color-interpolation-filters="sRGB">
<feFlood flood-opacity="0" result="BackgroundImageFix"/>
<feBlend mode="normal" in="SourceGraphic" in2="BackgroundImageFix" result="shape"/>
<feGaussianBlur stdDeviation="1.86394" result="effect1_foregroundBlur_14_397"/>
</filter>
<filter id="filter9_f_14_397" x="869.351" y="213" width="196" height="18" filterUnits="userSpaceOnUse" color-interpolation-filters="sRGB">
<feFlood flood-opacity="0" result="BackgroundImageFix"/>
<feBlend mode="normal" in="SourceGraphic" in2="BackgroundImageFix" result="shape"/>
<feGaussianBlur stdDeviation="2" result="effect1_foregroundBlur_14_397"/>
</filter>
<filter id="filter10_f_14_397" x="896.351" y="219" width="142" height="7" filterUnits="userSpaceOnUse" color-interpolation-filters="sRGB">
<feFlood flood-opacity="0" result="BackgroundImageFix"/>
<feBlend mode="normal" in="SourceGraphic" in2="BackgroundImageFix" result="shape"/>
<feGaussianBlur stdDeviation="1" result="effect1_foregroundBlur_14_397"/>
</filter>
<filter id="filter11_d_14_397" x="952.239" y="215.533" width="28.224" height="14.224" filterUnits="userSpaceOnUse" color-interpolation-filters="sRGB">
<feFlood flood-opacity="0" result="BackgroundImageFix"/>
<feColorMatrix in="SourceAlpha" type="matrix" values="0 0 0 0 0 0 0 0 0 0 0 0 0 0 0 0 0 0 127 0" result="hardAlpha"/>
<feOffset dy="1.6448"/>
<feGaussianBlur stdDeviation="2.056"/>
<feComposite in2="hardAlpha" operator="out"/>
<feColorMatrix type="matrix" values="0 0 0 0 0.386218 0 0 0 0 0.330307 0 0 0 0 0.218485 0 0 0 0.8 0"/>
<feBlend mode="multiply" in2="BackgroundImageFix" result="effect1_dropShadow_14_397"/>
<feBlend mode="normal" in="SourceGraphic" in2="effect1_dropShadow_14_397" result="shape"/>
</filter>
<filter id="filter12_i_14_397" x="957.351" y="215" width="18" height="7" filterUnits="userSpaceOnUse" color-interpolation-filters="sRGB">
<feFlood flood-opacity="0" result="BackgroundImageFix"/>
<feBlend mode="normal" in="SourceGraphic" in2="BackgroundImageFix" result="shape"/>
<feColorMatrix in="SourceAlpha" type="matrix" values="0 0 0 0 0 0 0 0 0 0 0 0 0 0 0 0 0 0 127 0" result="hardAlpha"/>
<feOffset dx="0.586408" dy="0.586408"/>
<feComposite in2="hardAlpha" operator="arithmetic" k2="-1" k3="1"/>
<feColorMatrix type="matrix" values="0 0 0 0 0.754808 0 0 0 0 0.612374 0 0 0 0 0.564896 0 0 0 1 0"/>
<feBlend mode="normal" in2="shape" result="effect1_innerShadow_14_397"/>
</filter>
<filter id="filter13_f_14_397" x="169.351" y="237" width="196" height="18" filterUnits="userSpaceOnUse" color-interpolation-filters="sRGB">
<feFlood flood-opacity="0" result="BackgroundImageFix"/>
<feBlend mode="normal" in="SourceGraphic" in2="BackgroundImageFix" result="shape"/>
<feGaussianBlur stdDeviation="2" result="effect1_foregroundBlur_14_397"/>
</filter>
<filter id="filter14_f_14_397" x="196.351" y="243" width="142" height="7" filterUnits="userSpaceOnUse" color-interpolation-filters="sRGB">
<feFlood flood-opacity="0" result="BackgroundImageFix"/>
<feBlend mode="normal" in="SourceGraphic" in2="BackgroundImageFix" result="shape"/>
<feGaussianBlur stdDeviation="1" result="effect1_foregroundBlur_14_397"/>
</filter>
<filter id="filter15_d_14_397" x="254.481" y="239.879" width="23.7382" height="9.73819" filterUnits="userSpaceOnUse" color-interpolation-filters="sRGB">
<feFlood flood-opacity="0" result="BackgroundImageFix"/>
<feColorMatrix in="SourceAlpha" type="matrix" values="0 0 0 0 0 0 0 0 0 0 0 0 0 0 0 0 0 0 127 0" result="hardAlpha"/>
<feOffset dy="0.747638"/>
<feGaussianBlur stdDeviation="0.934548"/>
<feComposite in2="hardAlpha" operator="out"/>
<feColorMatrix type="matrix" values="0 0 0 0 0.386218 0 0 0 0 0.330307 0 0 0 0 0.218485 0 0 0 0.8 0"/>
<feBlend mode="multiply" in2="BackgroundImageFix" result="effect1_dropShadow_14_397"/>
<feBlend mode="normal" in="SourceGraphic" in2="effect1_dropShadow_14_397" result="shape"/>
</filter>
<filter id="filter16_i_14_397" x="257.351" y="238" width="18" height="7" filterUnits="userSpaceOnUse" color-interpolation-filters="sRGB">
<feFlood flood-opacity="0" result="BackgroundImageFix"/>
<feBlend mode="normal" in="SourceGraphic" in2="BackgroundImageFix" result="shape"/>
<feColorMatrix in="SourceAlpha" type="matrix" values="0 0 0 0 0 0 0 0 0 0 0 0 0 0 0 0 0 0 127 0" result="hardAlpha"/>
<feOffset dx="0.266549" dy="0.266549"/>
<feComposite in2="hardAlpha" operator="arithmetic" k2="-1" k3="1"/>
<feColorMatrix type="matrix" values="0 0 0 0 0.754808 0 0 0 0 0.612374 0 0 0 0 0.564896 0 0 0 1 0"/>
<feBlend mode="normal" in2="shape" result="effect1_innerShadow_14_397"/>
</filter>
<filter id="filter17_f_14_397" x="144.351" y="579" width="196" height="18" filterUnits="userSpaceOnUse" color-interpolation-filters="sRGB">
<feFlood flood-opacity="0" result="BackgroundImageFix"/>
<feBlend mode="normal" in="SourceGraphic" in2="BackgroundImageFix" result="shape"/>
<feGaussianBlur stdDeviation="2" result="effect1_foregroundBlur_14_397"/>
</filter>
<filter id="filter18_f_14_397" x="171.351" y="585" width="142" height="7" filterUnits="userSpaceOnUse" color-interpolation-filters="sRGB">
<feFlood flood-opacity="0" result="BackgroundImageFix"/>
<feBlend mode="normal" in="SourceGraphic" in2="BackgroundImageFix" result="shape"/>
<feGaussianBlur stdDeviation="1" result="effect1_foregroundBlur_14_397"/>
</filter>
<filter id="filter19_d_14_397" x="224.734" y="581.43" width="33.2335" height="13.2335" filterUnits="userSpaceOnUse" color-interpolation-filters="sRGB">
<feFlood flood-opacity="0" result="BackgroundImageFix"/>
<feColorMatrix in="SourceAlpha" type="matrix" values="0 0 0 0 0 0 0 0 0 0 0 0 0 0 0 0 0 0 127 0" result="hardAlpha"/>
<feOffset dy="1.04669"/>
<feGaussianBlur stdDeviation="1.30837"/>
<feComposite in2="hardAlpha" operator="out"/>
<feColorMatrix type="matrix" values="0 0 0 0 0.386218 0 0 0 0 0.330307 0 0 0 0 0.218485 0 0 0 0.8 0"/>
<feBlend mode="multiply" in2="BackgroundImageFix" result="effect1_dropShadow_14_397"/>
<feBlend mode="normal" in="SourceGraphic" in2="effect1_dropShadow_14_397" result="shape"/>
</filter>
<filter id="filter20_i_14_397" x="229.351" y="579" width="25" height="9" filterUnits="userSpaceOnUse" color-interpolation-filters="sRGB">
<feFlood flood-opacity="0" result="BackgroundImageFix"/>
<feBlend mode="normal" in="SourceGraphic" in2="BackgroundImageFix" result="shape"/>
<feColorMatrix in="SourceAlpha" type="matrix" values="0 0 0 0 0 0 0 0 0 0 0 0 0 0 0 0 0 0 127 0" result="hardAlpha"/>
<feOffset dx="0.373169" dy="0.373169"/>
<feComposite in2="hardAlpha" operator="arithmetic" k2="-1" k3="1"/>
<feColorMatrix type="matrix" values="0 0 0 0 0.754808 0 0 0 0 0.612374 0 0 0 0 0.564896 0 0 0 1 0"/>
<feBlend mode="normal" in2="shape" result="effect1_innerShadow_14_397"/>
</filter>
<filter id="filter21_f_14_397" x="320.419" y="725.069" width="13.8628" height="6.86277" filterUnits="userSpaceOnUse" color-interpolation-filters="sRGB">
<feFlood flood-opacity="0" result="BackgroundImageFix"/>
<feBlend mode="normal" in="SourceGraphic" in2="BackgroundImageFix" result="shape"/>
<feGaussianBlur stdDeviation="0.965692" result="effect1_foregroundBlur_14_397"/>
</filter>
<filter id="filter22_f_14_397" x="324.677" y="727.326" width="6.34748" height="2.34748" filterUnits="userSpaceOnUse" color-interpolation-filters="sRGB">
<feFlood flood-opacity="0" result="BackgroundImageFix"/>
<feBlend mode="normal" in="SourceGraphic" in2="BackgroundImageFix" result="shape"/>
<feGaussianBlur stdDeviation="0.336869" result="effect1_foregroundBlur_14_397"/>
</filter>
<filter id="filter23_f_14_397" x="1260.35" y="425" width="196" height="18" filterUnits="userSpaceOnUse" color-interpolation-filters="sRGB">
<feFlood flood-opacity="0" result="BackgroundImageFix"/>
<feBlend mode="normal" in="SourceGraphic" in2="BackgroundImageFix" result="shape"/>
<feGaussianBlur stdDeviation="2" result="effect1_foregroundBlur_14_397"/>
</filter>
<filter id="filter24_f_14_397" x="1287.35" y="431" width="142" height="7" filterUnits="userSpaceOnUse" color-interpolation-filters="sRGB">
<feFlood flood-opacity="0" result="BackgroundImageFix"/>
<feBlend mode="normal" in="SourceGraphic" in2="BackgroundImageFix" result="shape"/>
<feGaussianBlur stdDeviation="1" result="effect1_foregroundBlur_14_397"/>
</filter>
<filter id="filter25_d_14_397" x="1340.73" y="428.43" width="33.2335" height="13.2335" filterUnits="userSpaceOnUse" color-interpolation-filters="sRGB">
<feFlood flood-opacity="0" result="BackgroundImageFix"/>
<feColorMatrix in="SourceAlpha" type="matrix" values="0 0 0 0 0 0 0 0 0 0 0 0 0 0 0 0 0 0 127 0" result="hardAlpha"/>
<feOffset dy="1.04669"/>
<feGaussianBlur stdDeviation="1.30837"/>
<feComposite in2="hardAlpha" operator="out"/>
<feColorMatrix type="matrix" values="0 0 0 0 0.386218 0 0 0 0 0.330307 0 0 0 0 0.218485 0 0 0 0.8 0"/>
<feBlend mode="multiply" in2="BackgroundImageFix" result="effect1_dropShadow_14_397"/>
<feBlend mode="normal" in="SourceGraphic" in2="effect1_dropShadow_14_397" result="shape"/>
</filter>
<filter id="filter26_i_14_397" x="1345.35" y="426" width="25" height="9" filterUnits="userSpaceOnUse" color-interpolation-filters="sRGB">
<feFlood flood-opacity="0" result="BackgroundImageFix"/>
<feBlend mode="normal" in="SourceGraphic" in2="BackgroundImageFix" result="shape"/>
<feColorMatrix in="SourceAlpha" type="matrix" values="0 0 0 0 0 0 0 0 0 0 0 0 0 0 0 0 0 0 127 0" result="hardAlpha"/>
<feOffset dx="0.373169" dy="0.373169"/>
<feComposite in2="hardAlpha" operator="arithmetic" k2="-1" k3="1"/>
<feColorMatrix type="matrix" values="0 0 0 0 0.754808 0 0 0 0 0.612374 0 0 0 0 0.564896 0 0 0 1 0"/>
<feBlend mode="normal" in2="shape" result="effect1_innerShadow_14_397"/>
</filter>
<filter id="filter27_f_14_397" x="537.351" y="347" width="196" height="18" filterUnits="userSpaceOnUse" color-interpolation-filters="sRGB">
<feFlood flood-opacity="0" result="BackgroundImageFix"/>
<feBlend mode="normal" in="SourceGraphic" in2="BackgroundImageFix" result="shape"/>
<feGaussianBlur stdDeviation="2" result="effect1_foregroundBlur_14_397"/>
</filter>
<filter id="filter28_f_14_397" x="564.351" y="353" width="142" height="7" filterUnits="userSpaceOnUse" color-interpolation-filters="sRGB">
<feFlood flood-opacity="0" result="BackgroundImageFix"/>
<feBlend mode="normal" in="SourceGraphic" in2="BackgroundImageFix" result="shape"/>
<feGaussianBlur stdDeviation="1" result="effect1_foregroundBlur_14_397"/>
</filter>
<filter id="filter29_d_14_397" x="620.108" y="349.654" width="28.4858" height="11.4858" filterUnits="userSpaceOnUse" color-interpolation-filters="sRGB">
<feFlood flood-opacity="0" result="BackgroundImageFix"/>
<feColorMatrix in="SourceAlpha" type="matrix" values="0 0 0 0 0 0 0 0 0 0 0 0 0 0 0 0 0 0 127 0" result="hardAlpha"/>
<feOffset dy="0.897166"/>
<feGaussianBlur stdDeviation="1.12146"/>
<feComposite in2="hardAlpha" operator="out"/>
<feColorMatrix type="matrix" values="0 0 0 0 0.386218 0 0 0 0 0.330307 0 0 0 0 0.218485 0 0 0 0.8 0"/>
<feBlend mode="multiply" in2="BackgroundImageFix" result="effect1_dropShadow_14_397"/>
<feBlend mode="normal" in="SourceGraphic" in2="effect1_dropShadow_14_397" result="shape"/>
</filter>
<filter id="filter30_i_14_397" x="623.351" y="348" width="21" height="8" filterUnits="userSpaceOnUse" color-interpolation-filters="sRGB">
<feFlood flood-opacity="0" result="BackgroundImageFix"/>
<feBlend mode="normal" in="SourceGraphic" in2="BackgroundImageFix" result="shape"/>
<feColorMatrix in="SourceAlpha" type="matrix" values="0 0 0 0 0 0 0 0 0 0 0 0 0 0 0 0 0 0 127 0" result="hardAlpha"/>
<feOffset dx="0.319859" dy="0.319859"/>
<feComposite in2="hardAlpha" operator="arithmetic" k2="-1" k3="1"/>
<feColorMatrix type="matrix" values="0 0 0 0 0.754808 0 0 0 0 0.612374 0 0 0 0 0.564896 0 0 0 1 0"/>
<feBlend mode="normal" in2="shape" result="effect1_innerShadow_14_397"/>
</filter>
<linearGradient id="paint0_linear_14_397" x1="1577.1" y1="685.047" x2="782.331" y2="11.4077" gradientUnits="userSpaceOnUse">
<stop stop-color="#D9D9D9" stop-opacity="0"/>
<stop offset="0.0652711" stop-color="#737373"/>
</linearGradient>
<linearGradient id="paint1_linear_14_397" x1="560.851" y1="603.774" x2="560.851" y2="71" gradientUnits="userSpaceOnUse">
<stop offset="0.647646" stop-color="#6F5D3A"/>
<stop offset="0.85" stop-color="#D5B26F" stop-opacity="0"/>
</linearGradient>
<linearGradient id="paint2_linear_14_397" x1="641.221" y1="47.9779" x2="641.221" y2="746.594" gradientUnits="userSpaceOnUse">
<stop stop-color="#EFE7D7"/>
<stop offset="1" stop-color="#EFD7A6"/>
</linearGradient>
<linearGradient id="paint3_linear_14_397" x1="32.3402" y1="333.027" x2="1436.35" y2="333.027" gradientUnits="userSpaceOnUse">
<stop stop-color="white" stop-opacity="0"/>
<stop offset="0.55" stop-color="#FF5C00"/>
<stop offset="1" stop-color="white" stop-opacity="0"/>
</linearGradient>
<linearGradient id="paint4_linear_14_397" x1="14.8206" y1="583.937" x2="40.4756" y2="583.918" gradientUnits="userSpaceOnUse">
<stop stop-color="#AC8B61"/>
<stop offset="0.5" stop-color="#EECFA8"/>
<stop offset="1" stop-color="#AC8B61"/>
</linearGradient>
<linearGradient id="paint5_linear_14_397" x1="27.3506" y1="586" x2="27.3506" y2="575" gradientUnits="userSpaceOnUse">
<stop stop-color="white" stop-opacity="0"/>
<stop offset="1" stop-color="white"/>
</linearGradient>
<linearGradient id="paint6_linear_14_397" x1="27.8506" y1="585" x2="27.8506" y2="576" gradientUnits="userSpaceOnUse">
<stop stop-color="white" stop-opacity="0"/>
<stop offset="1" stop-color="white"/>
</linearGradient>
<linearGradient id="paint7_linear_14_397" x1="957.401" y1="220.953" x2="975.726" y2="220.94" gradientUnits="userSpaceOnUse">
<stop stop-color="#7A6152"/>
<stop offset="0.5" stop-color="#BC8B6B"/>
<stop offset="1" stop-color="#7A6252"/>
</linearGradient>
<linearGradient id="paint8_linear_14_397" x1="966.351" y1="222" x2="966.351" y2="214" gradientUnits="userSpaceOnUse">
<stop stop-color="white" stop-opacity="0"/>
<stop offset="1" stop-color="white"/>
</linearGradient>
<linearGradient id="paint9_linear_14_397" x1="966.351" y1="214" x2="966.351" y2="222" gradientUnits="userSpaceOnUse">
<stop stop-color="#E39B60"/>
<stop offset="0.471154" stop-color="#FFFAF4"/>
<stop offset="1" stop-color="#F7C195"/>
</linearGradient>
<linearGradient id="paint10_linear_14_397" x1="966.351" y1="222" x2="966.351" y2="215" gradientUnits="userSpaceOnUse">
<stop stop-color="white" stop-opacity="0"/>
<stop offset="1" stop-color="white"/>
</linearGradient>
<linearGradient id="paint11_linear_14_397" x1="257.401" y1="243.953" x2="275.726" y2="243.94" gradientUnits="userSpaceOnUse">
<stop stop-color="#7A6152"/>
<stop offset="0.5" stop-color="#BC8B6B"/>
<stop offset="1" stop-color="#7A6252"/>
</linearGradient>
<linearGradient id="paint12_linear_14_397" x1="266.351" y1="245" x2="266.351" y2="237" gradientUnits="userSpaceOnUse">
<stop stop-color="white" stop-opacity="0"/>
<stop offset="1" stop-color="white"/>
</linearGradient>
<linearGradient id="paint13_linear_14_397" x1="266.351" y1="237" x2="266.351" y2="245" gradientUnits="userSpaceOnUse">
<stop stop-color="#E39B60"/>
<stop offset="0.471154" stop-color="#FFFAF4"/>
<stop offset="1" stop-color="#F7C195"/>
</linearGradient>
<linearGradient id="paint14_linear_14_397" x1="266.351" y1="245" x2="266.351" y2="238" gradientUnits="userSpaceOnUse">
<stop stop-color="white" stop-opacity="0"/>
<stop offset="1" stop-color="white"/>
</linearGradient>
<linearGradient id="paint15_linear_14_397" x1="228.821" y1="586.937" x2="254.476" y2="586.918" gradientUnits="userSpaceOnUse">
<stop stop-color="#7A6152"/>
<stop offset="0.5" stop-color="#BC8B6B"/>
<stop offset="1" stop-color="#7A6252"/>
</linearGradient>
<linearGradient id="paint16_linear_14_397" x1="241.351" y1="589" x2="241.351" y2="578" gradientUnits="userSpaceOnUse">
<stop stop-color="white" stop-opacity="0"/>
<stop offset="1" stop-color="white"/>
</linearGradient>
<linearGradient id="paint17_linear_14_397" x1="241.351" y1="578" x2="241.351" y2="589" gradientUnits="userSpaceOnUse">
<stop stop-color="#E39B60"/>
<stop offset="0.471154" stop-color="#FFFAF4"/>
<stop offset="1" stop-color="#F7C195"/>
</linearGradient>
<linearGradient id="paint18_linear_14_397" x1="241.851" y1="588" x2="241.851" y2="579" gradientUnits="userSpaceOnUse">
<stop stop-color="white" stop-opacity="0"/>
<stop offset="1" stop-color="white"/>
</linearGradient>
<linearGradient id="paint19_linear_14_397" x1="1344.82" y1="433.937" x2="1370.48" y2="433.918" gradientUnits="userSpaceOnUse">
<stop stop-color="#7A6152"/>
<stop offset="0.5" stop-color="#BC8B6B"/>
<stop offset="1" stop-color="#7A6252"/>
</linearGradient>
<linearGradient id="paint20_linear_14_397" x1="1357.35" y1="436" x2="1357.35" y2="425" gradientUnits="userSpaceOnUse">
<stop stop-color="white" stop-opacity="0"/>
<stop offset="1" stop-color="white"/>
</linearGradient>
<linearGradient id="paint21_linear_14_397" x1="1357.35" y1="425" x2="1357.35" y2="436" gradientUnits="userSpaceOnUse">
<stop stop-color="#E39B60"/>
<stop offset="0.471154" stop-color="#FFFAF4"/>
<stop offset="1" stop-color="#F7C195"/>
</linearGradient>
<linearGradient id="paint22_linear_14_397" x1="1357.85" y1="435" x2="1357.85" y2="426" gradientUnits="userSpaceOnUse">
<stop stop-color="white" stop-opacity="0"/>
<stop offset="1" stop-color="white"/>
</linearGradient>
<linearGradient id="paint23_linear_14_397" x1="623.611" y1="354.445" x2="645.601" y2="354.429" gradientUnits="userSpaceOnUse">
<stop stop-color="#7A6152"/>
<stop offset="0.5" stop-color="#BC8B6B"/>
<stop offset="1" stop-color="#7A6252"/>
</linearGradient>
<linearGradient id="paint24_linear_14_397" x1="634.351" y1="356" x2="634.351" y2="347" gradientUnits="userSpaceOnUse">
<stop stop-color="white" stop-opacity="0"/>
<stop offset="1" stop-color="white"/>
</linearGradient>
<linearGradient id="paint25_linear_14_397" x1="634.351" y1="347" x2="634.351" y2="356" gradientUnits="userSpaceOnUse">
<stop stop-color="#E39B60"/>
<stop offset="0.471154" stop-color="#FFFAF4"/>
<stop offset="1" stop-color="#F7C195"/>
</linearGradient>
<linearGradient id="paint26_linear_14_397" x1="633.851" y1="356" x2="633.851" y2="348" gradientUnits="userSpaceOnUse">
<stop stop-color="white" stop-opacity="0"/>
<stop offset="1" stop-color="white"/>
</linearGradient>
</defs>
</svg>
