<svg width="60" height="80" viewBox="0 0 60 80" fill="none" xmlns="http://www.w3.org/2000/svg">
<mask id="path-1-inside-1_2000_115061" fill="white">
<path d="M52.1621 -7.71066e-07C54.1554 0.00020541 55.7713 1.61606 55.7715 3.60937L55.7715 29.0859C55.7714 31.0793 54.1555 32.6951 52.1621 32.6953L37.8818 32.6953C35.613 37.7111 32.7053 40.3003 26.7715 43C29.0214 39.1197 29.8954 36.4509 28.2441 32.6953L12.3809 32.6953C10.3875 32.6951 8.77159 31.0793 8.77148 29.0859L8.77148 3.60938C8.77169 1.61606 10.3875 0.000205633 12.3809 -6.41392e-08L52.1621 -7.71066e-07Z"/>
</mask>
<path d="M52.1621 -7.71066e-07C54.1554 0.00020541 55.7713 1.61606 55.7715 3.60937L55.7715 29.0859C55.7714 31.0793 54.1555 32.6951 52.1621 32.6953L37.8818 32.6953C35.613 37.7111 32.7053 40.3003 26.7715 43C29.0214 39.1197 29.8954 36.4509 28.2441 32.6953L12.3809 32.6953C10.3875 32.6951 8.77159 31.0793 8.77148 29.0859L8.77148 3.60938C8.77169 1.61606 10.3875 0.000205633 12.3809 -6.41392e-08L52.1621 -7.71066e-07Z" fill="url(#paint0_linear_2000_115061)"/>
<path d="M52.1621 -7.71066e-07L52.1622 -1L52.1621 -1L52.1621 -7.71066e-07ZM55.7715 3.60937L56.7715 3.60937L56.7715 3.60927L55.7715 3.60937ZM55.7715 29.0859L56.7715 29.086L56.7715 29.0859L55.7715 29.0859ZM52.1621 32.6953L52.1621 33.6953L52.1622 33.6953L52.1621 32.6953ZM37.8818 32.6953L37.8818 31.6953L37.2366 31.6953L36.9707 32.2832L37.8818 32.6953ZM26.7715 43L25.9064 42.4984L24.336 45.2067L27.1856 43.9102L26.7715 43ZM28.2441 32.6953L29.1596 32.2928L28.8969 31.6953L28.2441 31.6953L28.2441 32.6953ZM12.3809 32.6953L12.3808 33.6953L12.3809 33.6953L12.3809 32.6953ZM8.77148 29.0859L7.77148 29.0859L7.77148 29.086L8.77148 29.0859ZM8.77148 3.60938L7.77148 3.60927L7.77148 3.60938L8.77148 3.60938ZM12.3809 -6.41392e-08L12.3809 -1L12.3808 -1L12.3809 -6.41392e-08ZM52.1621 -7.71066e-07L52.162 0.999999C53.6031 1.00015 54.7713 2.16837 54.7715 3.60948L55.7715 3.60937L56.7715 3.60927C56.7712 1.06376 54.7077 -0.999737 52.1622 -1L52.1621 -7.71066e-07ZM55.7715 3.60937L54.7715 3.60937L54.7715 29.0859L55.7715 29.0859L56.7715 29.0859L56.7715 3.60937L55.7715 3.60937ZM55.7715 29.0859L54.7715 29.0859C54.7714 30.527 53.6032 31.6952 52.162 31.6953L52.1621 32.6953L52.1622 33.6953C54.7077 33.695 56.7714 31.6317 56.7715 29.086L55.7715 29.0859ZM52.1621 32.6953L52.1621 31.6953L37.8818 31.6953L37.8818 32.6953L37.8818 33.6953L52.1621 33.6953L52.1621 32.6953ZM37.8818 32.6953L36.9707 32.2832C35.8792 34.6962 34.6571 36.4781 33.024 37.9802C31.3807 39.4917 29.2759 40.7619 26.3574 42.0898L26.7715 43L27.1856 43.9102C30.2009 42.5383 32.5168 41.1641 34.378 39.4522C36.2495 37.7308 37.6156 35.7102 38.793 33.1074L37.8818 32.6953ZM26.7715 43L27.6366 43.5016C28.7729 41.5418 29.629 39.7797 29.9548 37.9789C30.2881 36.1363 30.0545 34.3284 29.1596 32.2928L28.2441 32.6953L27.3287 33.0978C28.085 34.8179 28.2401 36.2221 27.9867 37.6229C27.7258 39.0655 27.02 40.5779 25.9064 42.4984L26.7715 43ZM28.2441 32.6953L28.2441 31.6953L12.3809 31.6953L12.3809 32.6953L12.3809 33.6953L28.2441 33.6953L28.2441 32.6953ZM12.3809 32.6953L12.381 31.6953C10.9397 31.6952 9.77156 30.527 9.77148 29.0859L8.77148 29.0859L7.77148 29.086C7.77162 31.6317 9.83523 33.695 12.3808 33.6953L12.3809 32.6953ZM8.77148 29.0859L9.77148 29.0859L9.77148 3.60937L8.77148 3.60938L7.77148 3.60938L7.77148 29.0859L8.77148 29.0859ZM8.77148 3.60938L9.77148 3.60948C9.77163 2.16837 10.9399 1.00015 12.381 1L12.3809 -6.41392e-08L12.3808 -1C9.83524 -0.999737 7.77175 1.06376 7.77148 3.60927L8.77148 3.60938ZM12.3809 -6.41392e-08L12.3809 1L52.1621 0.999999L52.1621 -7.71066e-07L52.1621 -1L12.3809 -1L12.3809 -6.41392e-08Z" fill="white" mask="url(#path-1-inside-1_2000_115061)"/>
<path class="emoji-text" d="M17.163 17.2L18.643 17.2L18.643 19.09L17.163 19.09L17.163 17.2ZM17.153 13.86L18.323 13.86L18.323 14.07C18.323 14.59 18.233 15.08 18.053 15.54C17.873 15.9933 17.5897 16.39 17.203 16.73C16.823 17.0633 16.3264 17.31 15.713 17.47L15.053 16.34C15.5597 16.2133 15.9664 16.0333 16.273 15.8C16.5797 15.56 16.803 15.29 16.943 14.99C17.083 14.6833 17.153 14.3767 17.153 14.07L17.153 13.86ZM17.463 13.86L18.643 13.86L18.643 14.07C18.643 14.3633 18.713 14.6567 18.853 14.95C18.993 15.2367 19.2164 15.4967 19.523 15.73C19.8364 15.9633 20.243 16.1433 20.743 16.27L20.093 17.39C19.493 17.2367 18.9964 16.9967 18.603 16.67C18.2164 16.3367 17.9297 15.9467 17.743 15.5C17.5564 15.0467 17.463 14.57 17.463 14.07L17.463 13.86ZM15.353 13.16L20.453 13.16L20.453 14.31L15.353 14.31L15.353 13.16ZM17.163 12.18L18.643 12.18L18.643 13.67L17.163 13.67L17.163 12.18ZM21.213 12.08L22.683 12.08L22.683 21.44L21.213 21.44L21.213 12.08ZM15.063 19.76L14.893 18.57C15.4264 18.57 16.023 18.5667 16.683 18.56C17.343 18.5467 18.0197 18.52 18.713 18.48C19.4064 18.4333 20.0764 18.36 20.723 18.26L20.833 19.33C20.1664 19.4633 19.4897 19.56 18.803 19.62C18.1164 19.68 17.453 19.7167 16.813 19.73C16.1797 19.7433 15.5964 19.7533 15.063 19.76ZM24.5123 12.84L30.3923 12.84L30.3923 14.02L24.5123 14.02L24.5123 12.84ZM23.6623 19.16L32.0923 19.16L32.0923 20.35L23.6623 20.35L23.6623 19.16ZM26.5623 15.99L28.0323 15.99L28.0323 19.74L26.5623 19.74L26.5623 15.99ZM29.8623 12.84L31.3423 12.84L31.3423 13.73C31.3423 14.1167 31.3356 14.53 31.3223 14.97C31.3156 15.41 31.2856 15.8967 31.2323 16.43C31.1789 16.9633 31.0889 17.5667 30.9623 18.24L29.4923 18.08C29.6789 17.14 29.7856 16.32 29.8123 15.62C29.8456 14.92 29.8623 14.29 29.8623 13.73L29.8623 12.84ZM36.1615 15.47L37.6315 15.47L37.6315 16.65L36.1615 16.65L36.1615 15.47ZM39.0815 12.09L40.4815 12.09L40.4815 21.41L39.0815 21.41L39.0815 12.09ZM37.1715 12.22L38.5415 12.22L38.5415 21.01L37.1715 21.01L37.1715 12.22ZM34.5415 12.71C34.9615 12.71 35.3215 12.85 35.6215 13.13C35.9282 13.4033 36.1648 13.7967 36.3315 14.31C36.4982 14.8167 36.5815 15.4267 36.5815 16.14C36.5815 16.8533 36.4982 17.4667 36.3315 17.98C36.1648 18.4933 35.9282 18.8867 35.6215 19.16C35.3148 19.4333 34.9548 19.57 34.5415 19.57C34.1348 19.57 33.7782 19.4333 33.4715 19.16C33.1648 18.8867 32.9282 18.4933 32.7615 17.98C32.6015 17.4667 32.5215 16.8533 32.5215 16.14C32.5215 15.4267 32.6015 14.8167 32.7615 14.31C32.9282 13.7967 33.1648 13.4033 33.4715 13.13C33.7782 12.85 34.1348 12.71 34.5415 12.71ZM34.5515 14.1C34.3982 14.1 34.2682 14.1733 34.1615 14.32C34.0615 14.4667 33.9848 14.69 33.9315 14.99C33.8782 15.2833 33.8515 15.6667 33.8515 16.14C33.8515 16.6067 33.8782 16.99 33.9315 17.29C33.9848 17.59 34.0615 17.8133 34.1615 17.96C34.2682 18.1 34.3982 18.17 34.5515 18.17C34.6982 18.17 34.8248 18.1 34.9315 17.96C35.0382 17.8133 35.1182 17.59 35.1715 17.29C35.2248 16.99 35.2515 16.6067 35.2515 16.14C35.2515 15.6667 35.2248 15.2833 35.1715 14.99C35.1182 14.69 35.0382 14.4667 34.9315 14.32C34.8248 14.1733 34.6982 14.1 34.5515 14.1ZM43.0507 16.81L44.5207 16.81L44.5207 19.38L43.0507 19.38L43.0507 16.81ZM46.4207 16.81L47.8907 16.81L47.8907 19.38L46.4207 19.38L46.4207 16.81ZM41.2607 19.18L49.6907 19.18L49.6907 20.37L41.2607 20.37L41.2607 19.18ZM45.4707 12.51C46.144 12.51 46.744 12.6167 47.2707 12.83C47.7974 13.0367 48.214 13.33 48.5207 13.71C48.8274 14.0833 48.9807 14.53 48.9807 15.05C48.9807 15.5567 48.8274 16 48.5207 16.38C48.214 16.76 47.7974 17.0533 47.2707 17.26C46.744 17.4667 46.144 17.57 45.4707 17.57C44.7974 17.57 44.194 17.4667 43.6607 17.26C43.134 17.0533 42.7174 16.76 42.4107 16.38C42.1107 16 41.9607 15.5567 41.9607 15.05C41.9607 14.53 42.1107 14.0833 42.4107 13.71C42.7174 13.33 43.134 13.0367 43.6607 12.83C44.194 12.6167 44.7974 12.51 45.4707 12.51ZM45.4707 13.66C45.0507 13.66 44.6874 13.7133 44.3807 13.82C44.074 13.9267 43.834 14.0833 43.6607 14.29C43.494 14.4967 43.4107 14.75 43.4107 15.05C43.4107 15.3433 43.494 15.5933 43.6607 15.8C43.834 16.0067 44.074 16.1667 44.3807 16.28C44.6874 16.3867 45.0507 16.44 45.4707 16.44C45.884 16.44 46.244 16.3867 46.5507 16.28C46.8574 16.1667 47.094 16.0067 47.2607 15.8C47.434 15.5933 47.5207 15.3433 47.5207 15.05C47.5207 14.75 47.434 14.4967 47.2607 14.29C47.094 14.0833 46.8574 13.9267 46.5507 13.82C46.244 13.7133 45.884 13.66 45.4707 13.66Z" fill="#188F6B"/>
<path d="M10.5774 42.8891C10.4736 38.7747 9.42766 34.76 7.46763 31.0426C6.96658 30.0927 5.3475 30.8412 5.85026 31.7928C7.66846 35.2384 8.66697 38.9858 8.76342 42.8036C8.78891 43.8473 10.6059 43.9427 10.5792 42.8891L10.5774 42.8891Z" fill="black"/>
<path d="M2.59375 46.4043C5.28815 42.9839 10.0554 41.285 14.4736 41.8369C18.8919 42.3889 22.8708 45.0335 25.2852 48.5977C27.1775 51.3909 27.6236 54.3295 29.3389 57.2266L31.1904 63.3086C31.5184 63.405 31.8595 63.4639 32.2129 63.4756L45.5527 71.0293C50.0945 72.6497 54.6369 74.2693 59.1787 75.8896C59.5362 76.0176 59.9632 76.2442 59.9248 76.6094C59.8861 76.9742 59.4188 77.1226 59.04 77.1846C56.4663 77.6083 53.893 78.0312 51.3193 78.4541C48.2216 78.9634 45.1004 79.4741 41.9629 79.4062C39.3908 79.3511 36.8437 78.906 34.2715 78.8379C31.3595 78.7616 28.3721 79.1608 25.5771 78.3984C22.5352 77.568 19.9685 75.3144 18.8477 72.4893C17.9044 70.1117 17.9056 67.3395 16.5967 65.1846C11.5063 61.4118 5.36917 62.6934 2.15527 58.3564C-0.41227 54.8926 -0.102184 49.8247 2.59375 46.4043Z" fill="#EECEB5"/>
<path d="M17.1201 44.7243C18.1982 40.3295 18.5862 35.7455 18.2888 31.2156C18.221 30.1813 17.0814 30.5646 17.1494 31.5956C17.4279 35.8278 17.0404 40.1377 16.0334 44.2389C15.7868 45.2452 16.8735 45.7306 17.1201 44.7243Z" fill="black"/>
<path d="M59.3219 64.7337C57.8557 63.0377 55.6787 61.976 53.4238 61.8565C52.2518 63.1451 51.9127 65.3488 52.7379 68.8313C55.3722 68.489 57.8425 66.9503 59.3211 64.7337L59.3219 64.7337Z" fill="#FF4000"/>
<path d="M59.3219 64.7337C57.8557 63.0377 55.6787 61.976 53.4238 61.8565C52.2518 63.1451 51.9127 65.3488 52.7379 68.8313C55.3722 68.489 57.8425 66.9503 59.3211 64.7337L59.3219 64.7337Z" fill="white" fill-opacity="0.2"/>
<path d="M54.5079 61.4163C54.4397 60.9985 53.992 60.7454 53.5781 60.5838C52.2722 60.0751 50.8202 59.8992 49.414 60.0792C46.5481 61.5731 45.4454 64.8245 46.4767 70.2046C48.8425 71.4443 52.0235 71.1449 54.1042 69.487C54.4965 69.1746 54.8668 68.7923 54.9689 68.319C55.0997 67.7137 54.7674 67.1219 54.5286 66.5496C53.9414 65.1438 53.8875 63.5426 54.38 62.0976C54.4555 61.8753 54.5445 61.6457 54.5079 61.4163Z" fill="#FF4800"/>
<path d="M54.5079 61.4163C54.4397 60.9985 53.992 60.7454 53.5781 60.5838C52.2722 60.0751 50.8202 59.8992 49.414 60.0792C46.5481 61.5731 45.4454 64.8245 46.4767 70.2046C48.8425 71.4443 52.0235 71.1449 54.1042 69.487C54.4965 69.1746 54.8668 68.7923 54.9689 68.319C55.0997 67.7137 54.7674 67.1219 54.5286 66.5496C53.9414 65.1438 53.8875 63.5426 54.38 62.0976C54.4555 61.8753 54.5445 61.6457 54.5079 61.4163Z" fill="white" fill-opacity="0.2"/>
<path d="M53.6871 62.1345C53.3683 63.1553 53.2711 64.2147 53.4086 65.2694C53.4753 65.7804 53.6055 66.276 53.7833 66.758C53.9861 67.3079 54.2886 67.8257 54.1987 68.4328C54.1153 68.9911 54.9955 69.0291 55.0778 68.4743C55.2314 67.4448 54.5422 66.5018 54.3446 65.5214C54.1362 64.4862 54.2047 63.4202 54.5213 62.4072C54.69 61.8669 53.8568 61.5943 53.688 62.1345L53.6871 62.1345Z" fill="black"/>
<path d="M50.2746 59.1022C50.0486 57.9114 46.0847 55.2486 41.6366 56.2289C38.5175 59.5377 37.8647 66.1359 41.5437 72.5431C44.6629 74.0874 49.5454 71.5621 49.3575 69.9471C49.2816 69.295 46.9482 65.3581 49.7797 60.569C50.0514 60.11 50.373 59.616 50.2746 59.1013L50.2746 59.1022Z" fill="#FF5900"/>
<path d="M50.2746 59.1022C50.0486 57.9114 46.0847 55.2486 41.6366 56.2289C38.5175 59.5377 37.8647 66.1359 41.5437 72.5431C44.6629 74.0874 49.5454 71.5621 49.3575 69.9471C49.2816 69.295 46.9482 65.3581 49.7797 60.569C50.0514 60.11 50.373 59.616 50.2746 59.1013L50.2746 59.1022Z" fill="white" fill-opacity="0.2"/>
<path d="M48.6432 62.3004C48.8952 61.6752 49.2836 61.0979 49.4436 60.4345C49.57 59.909 48.8528 59.6477 48.7254 60.1758C48.5666 60.8341 48.1761 61.4198 47.9251 62.0417C47.6885 62.6263 47.5007 63.2351 47.3669 63.8558C47.1437 64.8964 47.0717 65.9518 47.1451 67.0098C47.2001 67.8059 47.3406 68.5874 47.5455 69.3475C47.6499 69.7335 47.8295 70.1341 47.8742 70.5376C47.9336 71.0736 48.6791 70.8832 48.6196 70.348C48.5773 69.9675 48.4092 69.5903 48.3096 69.2264C48.114 68.5124 47.9714 67.7798 47.9064 67.034C47.8189 66.0218 47.8881 64.9738 48.1146 63.979C48.2456 63.4038 48.4237 62.8419 48.6425 62.2996L48.6432 62.3004Z" fill="black"/>
<path d="M22.838 63.4552C22.0789 75.8342 38.2438 77.7816 41.0653 72.8647C41.7881 71.6044 41.0201 70.0437 40.5509 68.6836C39.1761 64.694 39.6961 60.0402 41.9221 56.4111C35.9131 49.6543 23.3516 55.0611 22.8371 63.4552L22.838 63.4552Z" fill="#FF7024"/>
<path d="M22.838 63.4552C22.0789 75.8342 38.2438 77.7816 41.0653 72.8647C41.7881 71.6044 41.0201 70.0437 40.5509 68.6836C39.1761 64.694 39.6961 60.0402 41.9221 56.4111C35.9131 49.6543 23.3516 55.0611 22.8371 63.4552L22.838 63.4552Z" fill="white" fill-opacity="0.2"/>
<path d="M42.2696 56.1131C40.7551 58.4978 39.9705 61.2899 40.033 64.0793C40.0641 65.471 40.2883 66.8578 40.7374 68.1767C41.1417 69.3624 42.1383 70.9587 41.443 72.2094C41.169 72.702 41.9133 73.1809 42.1884 72.6857C42.8948 71.4145 42.4169 70.082 41.9321 68.834C41.4148 67.4997 41.0484 66.1341 40.9517 64.7009C40.7612 61.8766 41.4758 59.0113 43.0141 56.5893C43.3188 56.1095 42.5734 55.6332 42.2687 56.1131L42.2696 56.1131Z" fill="black"/>
<path d="M32.015 73.7901C34.2716 72.8564 36.6573 72.2794 39.0895 72.0543C39.6832 71.9994 39.4869 71.1122 38.8959 71.1672C36.3804 71.3993 33.927 72.0186 31.5939 72.9843C31.0407 73.2132 31.4627 74.0191 32.015 73.7901Z" fill="black"/>
<path d="M39.1013 67.3693C39.6614 67.2395 39.4853 66.2885 38.9234 66.4192C34.9821 67.3315 30.9132 67.3556 27.0053 66.4661C26.4545 66.3404 26.1579 67.2681 26.713 67.394C30.7809 68.3194 34.9955 68.3198 39.1013 67.3693Z" fill="black"/>
<path d="M36.9249 63.1374C37.5119 63.0959 37.5733 62.2103 36.9788 62.2523C33.5916 62.4924 30.2124 62.0228 27.0534 60.8633C26.4971 60.6595 26.2018 61.502 26.7554 61.7049C29.9825 62.8889 33.465 63.3829 36.9249 63.1374Z" fill="black"/>
<path d="M38.9253 59.1401C39.5039 59.1363 39.5586 58.2979 38.9765 58.3015C36.5609 58.317 34.2031 57.8289 32.025 56.8708C31.5013 56.6408 31.2185 57.4407 31.736 57.6678C33.9784 58.6542 36.4392 59.1556 38.9253 59.1401Z" fill="black"/>
<path d="M46.0134 60.9495C46.5617 60.9288 46.6071 60.2842 46.0527 60.3052C45.0516 60.3426 44.0583 60.2092 43.1492 59.8723C42.6532 59.6887 42.1792 60.2226 42.6794 60.4078C43.729 60.7965 44.8483 60.9927 46.0134 60.9495Z" fill="black"/>
<path d="M43.9909 70.833L46.1145 70.6852C46.6878 70.645 46.4911 69.8918 45.9214 69.9314C45.2135 69.9807 44.5057 70.03 43.7978 70.0793C43.2245 70.1194 43.4212 70.8726 43.9909 70.833Z" fill="black"/>
<path d="M46.1081 65.889C46.6747 65.8294 46.4777 65.1541 45.912 65.2137C44.9162 65.3181 43.9391 65.1877 43.0222 64.8625C42.4982 64.6769 42.2263 65.3314 42.745 65.5155C43.8095 65.8931 44.9587 66.0095 46.1081 65.889Z" fill="black"/>
<path d="M52.1669 62.784C52.6393 62.6688 52.4961 61.7835 52.0228 61.8996C51.6577 61.9889 51.302 61.9721 50.9498 61.849C50.4941 61.69 50.2424 62.5559 50.6989 62.7149C51.1786 62.8822 51.6687 62.9053 52.1669 62.784Z" fill="black"/>
<path d="M50.0683 67.8274C50.7395 67.7433 51.4097 67.6592 52.0809 67.5745C52.728 67.4932 52.4942 66.855 51.8439 66.9368C51.1727 67.0209 50.5026 67.105 49.8314 67.1898C49.1842 67.2711 49.418 67.9092 50.0683 67.8274Z" fill="black"/>
<path d="M12.3215 53.6993C12.1199 55.4757 10.7065 57.9122 7.41849 57.9036C4.00131 57.8946 2.59082 55.2381 2.47389 53.4523C2.44672 52.9761 2.66925 52.5261 3.0558 52.2465C3.44234 51.9669 3.9586 51.9003 4.40667 52.0715C4.41528 52.0715 5.38893 52.4312 7.22233 52.436C9.13319 52.441 10.4835 52.0535 10.5007 52.045C10.6383 52.0028 10.7759 51.9862 10.9136 51.9866L10.9223 51.9866C11.7055 51.9886 12.3443 52.6195 12.3464 53.3932C12.3554 53.5038 12.3384 53.6058 12.3215 53.6993Z" fill="black"/>
<path d="M12.3215 53.6993C12.1199 55.4757 10.7065 57.9122 7.41849 57.9036C4.00131 57.8946 2.59082 55.2381 2.47389 53.4523C2.44672 52.9761 2.66925 52.5261 3.0558 52.2465C3.44234 51.9669 3.9586 51.9003 4.40667 52.0715C4.41528 52.0715 5.38893 52.4312 7.22233 52.436C9.13319 52.441 10.4835 52.0535 10.5007 52.045C10.6383 52.0028 10.7759 51.9862 10.9136 51.9866L10.9223 51.9866C11.7055 51.9886 12.3443 52.6195 12.3464 53.3932C12.3554 53.5038 12.3384 53.6058 12.3215 53.6993Z" fill="url(#paint1_linear_2000_115061)" fill-opacity="0.4"/>
<path d="M5.37015 49.0097C4.87591 47.8996 3.87122 47.219 2.75309 47.219C1.62687 47.219 0.62218 47.9077 0.13604 49.0097C0.10363 49.0745 0.0874248 49.1393 0.0793225 49.2122C-0.0746219 49.5363 -0.00169935 49.9333 0.27378 50.1845C0.427725 50.3222 0.630282 50.3952 0.824738 50.3952C1.0516 50.3952 1.27847 50.2979 1.44862 50.1197C1.78082 49.747 2.25885 49.5363 2.7612 49.5363C3.26354 49.5363 3.74158 49.747 4.07377 50.1197C4.37356 50.46 4.90022 50.4924 5.24051 50.1926C5.5241 49.9414 5.58891 49.5444 5.43497 49.2203C5.41876 49.1393 5.40256 49.0745 5.37015 49.0097ZM15.2288 49.2041C15.2207 49.1393 15.2045 49.0664 15.1721 49.0016C14.6778 47.8915 13.6731 47.2109 12.555 47.2109C11.4369 47.2109 10.4241 47.8996 9.93794 49.0016C9.90553 49.0664 9.88933 49.1312 9.88122 49.2041C9.72728 49.5282 9.7921 49.9252 10.0757 50.1764C10.2296 50.3141 10.4322 50.3871 10.6266 50.3871C10.8535 50.3871 11.0804 50.2898 11.2505 50.1116C11.5827 49.7389 12.0608 49.5282 12.5631 49.5282C13.0654 49.5282 13.5435 49.7389 13.8757 50.1116C14.1755 50.4519 14.7021 50.4843 15.0424 50.1845C15.3179 49.9252 15.3827 49.5282 15.2288 49.2041Z" fill="black"/>
<defs>
<linearGradient id="paint0_linear_2000_115061" x1="32.2715" y1="-4.17599e-07" x2="32.2715" y2="43" gradientUnits="userSpaceOnUse">
<stop stop-color="#CEFFF0"/>
<stop offset="1" stop-color="white"/>
</linearGradient>
<linearGradient id="paint1_linear_2000_115061" x1="7.3056" y1="55.8471" x2="7.4565" y2="57.8842" gradientUnits="userSpaceOnUse">
<stop stop-color="#FF0000" stop-opacity="0"/>
<stop offset="1" stop-color="#FF0000"/>
</linearGradient>
</defs>
</svg>
