<svg width="313" height="324" viewBox="0 0 313 324" fill="none" xmlns="http://www.w3.org/2000/svg">
<g filter="url(#filter0_n_2000_114766)">
<mask id="mask0_2000_114766" style="mask-type:alpha" maskUnits="userSpaceOnUse" x="0" y="0" width="313" height="324">
<path d="M0 0H313V324H0V0Z" fill="url(#paint0_linear_2000_114766)"/>
</mask>
<g mask="url(#mask0_2000_114766)">
<g filter="url(#filter1_d_2000_114766)">
<path d="M88.4397 176.61C87.1033 177.989 86.6013 179.408 86.5771 180.917C86.5513 182.528 87.074 184.421 88.1404 186.58C90.2992 190.952 94.1973 195.49 97.7902 199.615C99.3783 201.438 101.1 203.359 102.925 205.319C104.579 206.909 107.902 209.362 111.54 210.611C115.172 211.859 118.493 211.745 121.11 209.303C123.746 206.842 123.843 203.922 123.079 201.167C122.692 199.776 122.101 198.531 121.592 197.621C121.341 197.172 121.118 196.818 120.963 196.584C120.927 196.53 120.894 196.483 120.866 196.443L98.8697 175.12L98.7028 175.271C96.4657 173.103 91.8868 173.054 88.4397 176.61ZM113.119 158C110.882 155.831 106.303 155.784 102.856 159.34C99.4106 162.894 99.5991 167.468 101.833 169.637L125.244 192.33C126.238 193.293 128.449 194.002 131.34 193.804C134.167 193.61 136.725 192.599 138.101 191.264C139.233 190.166 139.858 188.55 139.876 186.852C139.894 185.134 139.29 183.654 138.389 182.781C136.213 180.671 133.516 177.986 131.371 175.835C130.297 174.758 129.357 173.812 128.687 173.135C128.351 172.796 128.083 172.525 127.899 172.338C127.806 172.245 127.735 172.172 127.687 172.123C127.663 172.099 127.644 172.08 127.632 172.068L113.119 158ZM132.079 168.023C132.144 168.085 132.205 168.151 132.263 168.218C132.438 168.395 132.67 168.63 132.949 168.912C133.616 169.585 134.551 170.527 135.619 171.598C137.635 173.619 140.119 176.091 142.187 178.104C142.478 178.228 142.903 178.402 143.429 178.597C144.511 178.999 145.978 179.473 147.565 179.793C151.04 180.495 153.78 180.207 155.189 178.753C156.747 177.146 156.974 174.791 156.458 172.205C156.211 170.97 155.824 169.852 155.491 169.034C155.342 168.67 155.206 168.374 155.107 168.164L145.209 158.174L126.114 139.664C123.877 137.496 119.298 137.448 115.851 141.004C112.404 144.56 112.595 149.135 114.831 151.303L132.079 168.023ZM149.407 153.887L149.428 153.909L159.339 163.91C159.541 164.001 159.816 164.12 160.152 164.249C160.955 164.558 162.056 164.912 163.275 165.117C165.788 165.54 168.202 165.259 169.936 163.504C170.954 162.474 171.46 161.013 171.488 159.165C171.516 157.3 171.044 155.288 170.384 153.597C169.893 152.338 169.368 151.434 169.031 151C168.044 149.73 167.02 148.57 166.238 147.723C165.848 147.301 165.523 146.961 165.298 146.73C165.185 146.614 165.098 146.525 165.041 146.467C165.014 146.441 164.994 146.421 164.98 146.407L141.572 123.717C139.335 121.548 134.757 121.5 131.31 125.056C127.97 128.501 128.044 132.903 130.086 135.146L130.29 135.356L149.407 153.887ZM162.084 135.244C163.786 133.018 165.781 130.238 168.113 127.126C171.349 122.807 175.119 118.023 179.231 113.932C183.311 109.874 187.946 106.273 192.963 104.603C198.164 102.872 203.666 103.263 208.973 106.993C212.302 109.333 214.348 112.137 215.157 115.305C215.953 118.424 215.453 121.519 214.417 124.308C212.394 129.755 207.972 134.912 204.844 138.498C202.231 141.493 200.933 144.225 200.378 146.794C199.818 149.386 199.967 152.021 200.555 154.895C201.154 157.824 202.156 160.795 203.231 164.195C204.284 167.522 205.372 171.164 205.956 175.098C207.135 183.039 205.795 188.901 204.009 192.982C203.242 194.734 202.408 196.124 201.701 197.175L241.874 230.906C243.168 231.941 243.378 233.829 242.343 235.123C241.308 236.417 239.421 236.626 238.127 235.592L194.144 198.813L194.783 196.84C194.937 196.366 195.181 195.994 195.266 195.865C195.387 195.679 195.525 195.489 195.639 195.333C195.894 194.988 196.151 194.651 196.468 194.198C197.078 193.327 197.83 192.137 198.512 190.577C199.863 187.489 201.028 182.764 200.021 175.979C199.512 172.55 198.552 169.296 197.511 166.005C196.493 162.787 195.356 159.419 194.677 156.097C193.987 152.721 193.721 149.195 194.513 145.527C195.311 141.836 197.136 138.207 200.322 134.554C203.575 130.824 207.215 126.468 208.793 122.219C209.558 120.159 209.743 118.359 209.343 116.789C208.954 115.268 207.921 113.588 205.522 111.902C201.893 109.352 198.397 109.117 194.858 110.295C191.136 111.535 187.289 114.379 183.463 118.186C179.669 121.959 176.11 126.458 172.914 130.723C170.565 133.858 168.335 136.976 166.42 139.447L169.175 142.117L169.187 142.129C169.193 142.135 169.201 142.143 169.21 142.153C169.231 142.173 169.259 142.202 169.295 142.238C169.367 142.31 169.47 142.413 169.598 142.545C169.855 142.809 170.217 143.187 170.647 143.653C171.502 144.579 172.644 145.873 173.767 147.318C174.567 148.347 175.348 149.811 175.975 151.418C176.832 153.617 177.53 156.413 177.486 159.256C177.443 162.116 176.635 165.261 174.204 167.721C170.502 171.468 165.709 171.6 162.344 171.045C163.001 174.348 163.105 179.208 159.498 182.93C155.737 186.809 150.044 186.415 146.379 185.675C146.188 185.637 146 185.595 145.814 185.554C145.857 186.008 145.88 186.463 145.875 186.914C145.843 189.968 144.725 193.197 142.279 195.57C139.57 198.198 135.482 199.534 131.75 199.79C130.832 199.853 129.876 199.854 128.916 199.778C129.97 203.763 129.98 209.231 125.203 213.69C122.123 216.565 118.601 217.493 115.231 217.378C120.088 221.644 125.153 225.458 130.06 228.089C142.979 235.019 157.484 237.212 171.498 232.407L172.165 232.173L173.805 231.584L200.87 254.399C202.129 255.475 202.278 257.369 201.201 258.628C200.125 259.888 198.231 260.036 196.971 258.959L172.528 238.386C156.956 243.421 141.066 240.802 127.224 233.377C114.723 226.672 101.788 213.339 93.2659 203.555C89.7943 199.57 85.3276 194.437 82.7597 189.237C81.4629 186.61 80.5315 183.74 80.5783 180.821C80.6268 177.799 81.7247 174.917 84.1315 172.434C86.9111 169.567 90.6805 167.875 94.3842 167.758C93.6132 163.418 95.2123 158.605 98.548 155.164C101.039 152.594 104.325 150.973 107.645 150.579C106.336 145.957 107.908 140.578 111.543 136.828C114.543 133.732 118.698 132.008 122.678 132.155C122.406 128.182 124.001 123.976 127.002 120.88C132.092 115.629 140.501 114.322 145.748 119.409L162.084 135.244Z" fill="#ED0000"/>
</g>
<g filter="url(#filter2_d_2000_114766)">
<path d="M149.396 182.094C150.449 181.76 151.573 182.343 151.907 183.396C152.241 184.449 151.657 185.573 150.605 185.907C150.698 185.877 150.448 185.945 149.969 186.637C149.535 187.264 149.061 188.187 148.603 189.389C147.689 191.784 146.924 195.043 146.589 198.647C145.91 205.95 147.042 214.049 151.51 219.188C152.235 220.021 152.146 221.284 151.313 222.009C150.479 222.734 149.216 222.646 148.491 221.813C142.96 215.452 141.888 205.999 142.607 198.277C142.97 194.368 143.804 190.746 144.866 187.963C145.396 186.576 146.004 185.336 146.681 184.36C147.312 183.449 148.201 182.473 149.396 182.094Z" fill="#ED0000"/>
</g>
<path d="M285 161C285 88.6507 226.349 30 154 30C81.6507 30 23 88.6507 23 161C23 233.349 81.6507 292 154 292V302C76.1279 302 13 238.872 13 161C13 83.1279 76.1279 20 154 20C231.872 20 295 83.1279 295 161C295 238.872 231.872 302 154 302V292C226.349 292 285 233.349 285 161Z" fill="#ED0000"/>
<path d="M82.6514 246.088C83.6821 244.791 85.569 244.575 86.8662 245.606C105.3 260.253 128.624 269 154 269C166.993 269 179.443 266.707 190.973 262.506C192.529 261.939 194.251 262.742 194.818 264.298C195.385 265.855 194.584 267.577 193.027 268.144C180.849 272.581 167.703 275 154 275C127.221 275 102.59 265.763 83.1338 250.303C81.8366 249.272 81.6208 247.385 82.6514 246.088ZM249.442 211.593C250.22 210.13 252.036 209.574 253.499 210.351C254.962 211.128 255.517 212.944 254.74 214.408C252.665 218.314 250.37 222.086 247.87 225.705C246.929 227.068 245.061 227.41 243.697 226.469C242.334 225.528 241.991 223.659 242.933 222.295C245.301 218.866 247.477 215.294 249.442 211.593ZM40 161C40 147.682 42.285 134.89 46.4873 123C47.0395 121.438 48.7534 120.62 50.3154 121.172C51.8776 121.724 52.6967 123.438 52.1445 125C48.1661 136.257 46 148.372 46 161C46 176.215 49.1448 190.688 54.8164 203.81C55.4737 205.331 54.7736 207.097 53.2529 207.754C51.7321 208.412 49.966 207.712 49.3086 206.191C43.3181 192.331 40 177.049 40 161ZM262 161C262 148.372 259.834 136.257 255.855 125C255.303 123.438 256.122 121.724 257.685 121.172C259.247 120.62 260.961 121.438 261.513 123C265.715 134.89 268 147.682 268 161C268 162.657 266.657 164 265 164C263.343 164 262 162.657 262 161Z" fill="#ED0000"/>
<path d="M66.757 204.088C67.522 202.731 69.4762 202.731 70.2413 204.088L75.1915 212.87C75.4769 213.376 75.9685 213.734 76.5382 213.849L86.42 215.843C87.947 216.151 88.5506 218.009 87.4962 219.156L80.6739 226.578C80.2807 227.006 80.0926 227.584 80.1593 228.161L81.3165 238.175C81.4898 239.674 80.0115 240.8 78.631 240.279L78.4982 240.224L69.3312 236.028C68.8027 235.787 68.1956 235.787 67.6671 236.028L58.5001 240.224L58.3673 240.279C56.9867 240.8 55.5085 239.674 55.6818 238.175L56.839 228.161C56.8974 227.656 56.7605 227.15 56.462 226.745L56.3243 226.578L49.5021 219.156C48.4477 218.009 49.0513 216.151 50.5782 215.843L60.4601 213.849C60.9586 213.748 61.3975 213.462 61.6905 213.053L61.8068 212.87L66.757 204.088ZM64.42 214.343C63.7066 215.609 62.4781 216.502 61.0538 216.789L52.9103 218.432L58.5333 224.548C59.5164 225.618 59.9851 227.062 59.8185 228.505L58.8644 236.757L66.4181 233.3C67.6568 232.733 69.0697 232.697 70.3302 233.193L70.5802 233.3L78.1329 236.757L77.1798 228.505C77.0131 227.062 77.4819 225.618 78.465 224.548L84.087 218.432L75.9445 216.789C74.5201 216.502 73.2917 215.609 72.5782 214.343L68.4991 207.107L64.42 214.343Z" fill="#ED0000"/>
<path d="M231.893 164.316C232.062 162.767 233.859 161.997 235.096 162.943L246.691 171.809C247.153 172.162 247.745 172.297 248.314 172.179L262.603 169.197C264.128 168.879 265.415 170.349 264.898 171.819L260.05 185.587C259.857 186.135 259.912 186.74 260.2 187.244L267.451 199.912C268.225 201.264 267.223 202.943 265.666 202.904L251.074 202.548C250.493 202.533 249.934 202.773 249.544 203.203L239.737 214.013L239.636 214.117C238.572 215.139 236.77 214.688 236.339 213.241L232.169 199.254C232.024 198.767 231.699 198.356 231.265 198.101L231.073 198.002L217.761 192.014C216.341 191.375 216.164 189.429 217.446 188.544L229.46 180.256C229.879 179.968 230.169 179.532 230.278 179.04L230.313 178.827L231.893 164.316ZM233.296 179.151C233.138 180.595 232.36 181.9 231.164 182.725L220.609 190.006L232.304 195.265C233.629 195.86 234.629 197.004 235.044 198.396L238.707 210.683L247.323 201.188L247.51 200.991C248.474 200.039 249.786 199.516 251.147 199.549L263.965 199.862L257.596 188.734C256.874 187.473 256.737 185.96 257.219 184.589L261.478 172.496L248.927 175.115C247.505 175.412 246.023 175.075 244.869 174.192L234.683 166.404L233.296 179.151Z" fill="#ED0000"/>
<path d="M143.51 88.7183C143.679 87.1698 145.475 86.4002 146.712 87.3461L151.672 91.1379C152.134 91.4907 152.726 91.6256 153.295 91.507L159.405 90.2321C160.93 89.914 162.217 91.3842 161.7 92.8536L159.627 98.7417C159.434 99.2899 159.488 99.895 159.777 100.399L162.878 105.817C163.627 107.127 162.712 108.743 161.238 108.808L161.093 108.81L154.853 108.657C154.272 108.643 153.714 108.882 153.323 109.313L149.129 113.936L149.028 114.04C147.964 115.061 146.163 114.61 145.731 113.164L143.948 107.181C143.803 106.694 143.478 106.283 143.044 106.028L142.852 105.929L137.158 103.368C135.738 102.729 135.561 100.783 136.844 99.8984L141.981 96.3543C142.4 96.0656 142.691 95.6295 142.799 95.1382L142.834 94.9245L143.51 88.7183ZM145.817 95.2486C145.659 96.6932 144.881 97.9982 143.685 98.8233L140.007 101.36L144.082 103.193C145.407 103.789 146.407 104.932 146.822 106.325L148.099 110.606L151.101 107.297L151.289 107.101C152.188 106.212 153.391 105.697 154.655 105.659L154.927 105.658L159.392 105.767L157.174 101.89C156.452 100.629 156.314 99.1159 156.797 97.7454L158.28 93.5306L153.907 94.4436C152.485 94.7404 151.003 94.4037 149.849 93.5211L146.3 90.8068L145.817 95.2486Z" fill="#ED0000"/>
<path d="M229.227 108.838L232.285 112.188C233.956 114.018 233.427 115.867 232.155 117.028C230.852 118.217 228.997 118.49 227.354 116.691L205.546 92.8103C203.904 91.0115 204.343 89.1882 205.646 87.9987C206.917 86.8375 208.807 86.4773 210.478 88.3071L213.536 91.6566L218.095 87.4933C215.61 83.9617 216.125 80.477 219.071 77.7864L219.629 77.2766C222.948 74.2462 226.92 74.4859 230.602 78.5177L242.979 92.0709L243.971 91.1646C244.375 90.7964 244.727 90.2475 244.075 89.5342L229.319 73.3759C227.988 71.9182 228.377 69.9142 229.648 68.753C230.858 67.6485 232.92 67.415 234.251 68.8727L250.706 86.8919C254.557 91.1098 253.739 94.0753 250.824 96.7375L244.187 102.798L227.392 84.4071C226.741 83.6937 226.088 83.6641 225.499 84.2022C224.847 84.797 224.88 85.3931 225.531 86.1064L240.91 102.947C242.468 104.653 241.76 106.494 240.612 107.542C239.465 108.589 237.601 109.04 236.072 107.365L233.693 104.76L229.227 108.838ZM228.198 98.7433L223.497 93.595L219.031 97.6733L223.732 102.822L228.198 98.7433Z" fill="#ED0000"/>
<path d="M201.461 59.6557L202.696 60.0689C205.125 60.882 205.216 62.9939 204.683 64.587C204.136 66.22 202.766 67.7989 200.376 66.9991L199.142 66.5859L195.343 77.937L187.576 75.3378L195.747 50.9228C196.574 48.4534 198.819 47.6991 200.93 48.4056C203.041 49.112 204.34 51.0527 203.514 53.5221L201.461 59.6557ZM184.262 69.8883L164.707 63.3435C162.476 62.597 161.934 60.9096 162.494 59.2368C163.04 57.6038 164.489 56.4501 166.759 57.2099L172.256 59.0494L173.082 56.58L172.843 56.5C167.865 54.8338 166.276 50.7146 167.662 46.5724L167.702 46.4529C169.088 42.3108 172.837 39.9777 177.815 41.6439L186.338 44.4965C191.277 46.1493 192.786 50.2419 191.4 54.3841L191.36 54.5035C189.974 58.6457 186.305 61.0054 181.366 59.3525L180.61 59.0993L179.783 61.5687L186.315 63.7547C188.585 64.5145 189.048 66.3081 188.502 67.941C187.942 69.6138 186.493 70.6348 184.262 69.8883ZM175.19 48.9589L175.15 49.0784C174.723 50.3529 175.28 51.3364 176.714 51.8163L181.055 53.2692C182.449 53.7357 183.446 53.2721 183.872 51.9976L183.912 51.8781C184.325 50.6434 183.835 49.5936 182.441 49.127L178.1 47.6741C176.666 47.1942 175.603 47.7242 175.19 48.9589ZM171.057 73.2194L192.365 80.3507C194.675 81.1238 195.111 82.8642 194.578 84.4574C194.031 86.0903 192.596 87.2043 190.325 86.4445L165.871 78.2601C161.41 76.7672 160.735 74.814 162.161 70.5523L162.974 68.1228C163.761 65.7729 166.046 65.1647 168.276 65.9111C170.507 66.6576 171.833 68.5186 171.059 70.8287L170.566 72.3023C170.38 72.8599 170.499 73.0327 171.057 73.2194Z" fill="#ED0000"/>
<path d="M139.172 46.1237L140.44 45.8261C142.934 45.2405 144.121 46.9894 144.505 48.625C144.899 50.3014 144.563 52.3646 142.11 52.9406L140.843 53.2382L142.523 60.3936L134.345 62.3136L130.313 45.1406C129.689 42.4829 131.284 40.6415 133.451 40.1327C135.618 39.6239 137.867 40.5629 138.491 43.2206L139.172 46.1237ZM126.444 48.508L127.011 50.9204C129.065 59.6705 121.881 66.1891 110.74 67.985C108.831 68.3039 107.011 67.3507 106.624 65.1548C106.296 63.2043 107.487 61.8461 109.469 61.4671C116.773 60.0541 119.887 56.7777 118.994 52.9751L118.85 52.3618C118.716 51.7894 118.372 51.6112 117.84 51.736L108.272 53.9824C105.901 54.5392 104.545 53.175 104.171 51.5803C103.796 49.9857 104.353 48.1294 106.765 47.563L119.481 44.5774C123.693 43.5886 125.619 44.9916 126.444 48.508ZM118.205 67.4403L134.479 63.6195C140.408 62.2276 144.252 64.8195 145.356 69.5217C146.46 74.2238 144.171 78.2557 138.242 79.6477L121.969 83.4685C115.958 84.8797 112.176 82.1867 111.092 77.5664C110.007 72.946 112.195 68.8515 118.205 67.4403ZM122.729 77.3363L134.832 74.4947C136.754 74.0435 137.363 72.7789 137.056 71.4704C136.748 70.162 135.631 69.2596 133.709 69.7108L121.606 72.5524C119.684 73.0036 119.085 74.3092 119.392 75.6176C119.699 76.926 120.807 77.7875 122.729 77.3363Z" fill="#ED0000"/>
<path d="M67.4202 104.052C65.8451 105.565 63.8254 105.801 62.3117 104.523C60.7981 103.245 60.5324 101.255 61.8405 99.474C65.1405 94.9921 65.7096 88.7261 62.0308 83.7933C60.6069 81.7727 61.0539 79.7239 62.6589 78.1214C64.4125 76.3706 66.8182 76.2239 68.747 78.2746C69.4295 79.0176 70.0228 79.7902 70.5271 80.5925C75.5797 75.6071 83.6293 73.9799 91.2272 80.2225L85.1938 86.2466C81.0085 83.3626 76.1672 83.9231 72.8085 87.5734C73.5166 93.5731 71.492 100.105 67.4202 104.052ZM67.8047 106.101L90.6309 83.3107C92.4142 81.5301 94.3442 82.0365 95.5609 83.2551C96.8072 84.5034 97.2512 86.4341 95.4976 88.185L87.1162 96.5535L93.4964 102.944L87.4332 108.997L81.053 102.607L72.6715 110.976C70.9179 112.727 68.9879 112.28 67.7415 111.031C66.5248 109.813 66.0214 107.882 67.8047 106.101Z" fill="#ED0000"/>
</g>
</g>
<defs>
<filter id="filter0_n_2000_114766" x="0" y="0" width="313" height="324" filterUnits="userSpaceOnUse" color-interpolation-filters="sRGB">
<feFlood flood-opacity="0" result="BackgroundImageFix"/>
<feBlend mode="normal" in="SourceGraphic" in2="BackgroundImageFix" result="shape"/>
<feTurbulence type="fractalNoise" baseFrequency="0.5 0.5" stitchTiles="stitch" numOctaves="3" result="noise" seed="2943" />
<feColorMatrix in="noise" type="luminanceToAlpha" result="alphaNoise" />
<feComponentTransfer in="alphaNoise" result="coloredNoise1">
<feFuncA type="discrete" tableValues="1 1 1 1 1 1 1 1 1 1 1 1 1 1 1 1 1 1 1 1 1 1 1 1 1 1 1 1 1 1 1 1 1 1 1 1 1 1 1 1 1 1 1 1 1 1 1 1 1 1 1 0 0 0 0 0 0 0 0 0 0 0 0 0 0 0 0 0 0 0 0 0 0 0 0 0 0 0 0 0 0 0 0 0 0 0 0 0 0 0 0 0 0 0 0 0 0 0 0 0 "/>
</feComponentTransfer>
<feComposite operator="in" in2="shape" in="coloredNoise1" result="noise1Clipped" />
<feFlood flood-color="rgba(255, 251, 229, 0.4)" result="color1Flood" />
<feComposite operator="in" in2="noise1Clipped" in="color1Flood" result="color1" />
<feMerge result="effect1_noise_2000_114766">
<feMergeNode in="shape" />
<feMergeNode in="color1" />
</feMerge>
</filter>
<filter id="filter1_d_2000_114766" x="34.5762" y="89.6133" width="254.424" height="248.066" filterUnits="userSpaceOnUse" color-interpolation-filters="sRGB">
<feFlood flood-opacity="0" result="BackgroundImageFix"/>
<feColorMatrix in="SourceAlpha" type="matrix" values="0 0 0 0 0 0 0 0 0 0 0 0 0 0 0 0 0 0 127 0" result="hardAlpha"/>
<feOffset dy="32"/>
<feGaussianBlur stdDeviation="23"/>
<feComposite in2="hardAlpha" operator="out"/>
<feColorMatrix type="matrix" values="0 0 0 0 0 0 0 0 0 0 0 0 0 0 0 0 0 0 0.1 0"/>
<feBlend mode="normal" in2="BackgroundImageFix" result="effect1_dropShadow_2000_114766"/>
<feBlend mode="normal" in="SourceGraphic" in2="effect1_dropShadow_2000_114766" result="shape"/>
</filter>
<filter id="filter2_d_2000_114766" x="96.4082" y="168" width="101.594" height="132.5" filterUnits="userSpaceOnUse" color-interpolation-filters="sRGB">
<feFlood flood-opacity="0" result="BackgroundImageFix"/>
<feColorMatrix in="SourceAlpha" type="matrix" values="0 0 0 0 0 0 0 0 0 0 0 0 0 0 0 0 0 0 127 0" result="hardAlpha"/>
<feOffset dy="32"/>
<feGaussianBlur stdDeviation="23"/>
<feComposite in2="hardAlpha" operator="out"/>
<feColorMatrix type="matrix" values="0 0 0 0 0 0 0 0 0 0 0 0 0 0 0 0 0 0 0.1 0"/>
<feBlend mode="normal" in2="BackgroundImageFix" result="effect1_dropShadow_2000_114766"/>
<feBlend mode="normal" in="SourceGraphic" in2="effect1_dropShadow_2000_114766" result="shape"/>
</filter>
<linearGradient id="paint0_linear_2000_114766" x1="40.5" y1="72.6811" x2="310.464" y2="139.063" gradientUnits="userSpaceOnUse">
<stop/>
<stop offset="0.1" stop-opacity="0.8"/>
<stop offset="0.3" stop-opacity="0.6"/>
<stop offset="0.4" stop-opacity="0.9"/>
<stop offset="0.6" stop-opacity="0.6"/>
<stop offset="0.8" stop-opacity="0.4"/>
<stop offset="0.9" stop-opacity="0.5"/>
<stop offset="1"/>
</linearGradient>
</defs>
</svg>
