<svg width="56" height="88" viewBox="0 0 56 88" fill="none" xmlns="http://www.w3.org/2000/svg">
<g style="mix-blend-mode:multiply" opacity="0.4" filter="url(#filter0_f_2000_114903)">
<ellipse cx="30.9199" cy="80.4688" rx="21" ry="3.5" fill="#9A8B70"/>
</g>
<g style="mix-blend-mode:multiply" opacity="0.3" filter="url(#filter1_f_2000_114903)">
<ellipse cx="31.9199" cy="79.4688" rx="17" ry="2.5" fill="#9A8B70"/>
</g>
<path d="M54.2846 65.1325C52.7165 63.3726 50.3941 62.2665 47.9925 62.1348C46.7496 63.4638 46.3973 65.7425 47.2899 69.3484C50.0937 69.0036 52.7181 67.4205 54.2837 65.1324L54.2846 65.1325Z" fill="#FF4000"/>
<path d="M54.2846 65.1325C52.7165 63.3726 50.3941 62.2665 47.9925 62.1348C46.7496 63.4638 46.3973 65.7425 47.2899 69.3484C50.0937 69.0036 52.7181 67.4205 54.2837 65.1324L54.2846 65.1325Z" fill="white" fill-opacity="0.2"/>
<path d="M48.635 62.0428C48.5695 61.6297 48.14 61.3792 47.743 61.2193C46.4904 60.7157 45.0979 60.541 43.7493 60.7183C41.0012 62.1937 39.9443 65.4074 40.9346 70.7268C43.2038 71.9536 46.2544 71.6592 48.2496 70.0213C48.6258 69.7127 48.9808 69.335 49.0786 68.867C49.2039 68.2687 48.8851 67.6835 48.656 67.1176C48.0925 65.7275 48.0404 64.1445 48.5124 62.7163C48.5848 62.4966 48.6701 62.2696 48.635 62.0428Z" fill="#FF4800"/>
<path d="M48.635 62.0428C48.5695 61.6297 48.14 61.3792 47.743 61.2193C46.4904 60.7157 45.0979 60.541 43.7493 60.7183C41.0012 62.1937 39.9443 65.4074 40.9346 70.7268C43.2038 71.9536 46.2544 71.6592 48.2496 70.0213C48.6258 69.7127 48.9808 69.335 49.0786 68.867C49.2039 68.2687 48.8851 67.6835 48.656 67.1176C48.0925 65.7275 48.0404 64.1445 48.5124 62.7163C48.5848 62.4966 48.6701 62.2696 48.635 62.0428Z" fill="white" fill-opacity="0.2"/>
<path d="M48.0714 62.5711C47.7496 63.5862 47.6541 64.6403 47.7984 65.6905C47.8683 66.1993 48.003 66.693 48.1863 67.1734C48.3952 67.7214 48.706 68.2377 48.6163 68.8417C48.5332 69.3971 49.4319 69.4378 49.5139 68.8858C49.667 67.8616 48.96 66.9208 48.7547 65.9444C48.5382 64.9133 48.6044 63.8526 48.9239 62.8452C49.0942 62.3081 48.2425 62.034 48.0723 62.5712L48.0714 62.5711Z" fill="black"/>
<path d="M6.97093 52.3517C6.9249 50.158 6.41314 48.0183 5.4492 46.0379C5.20279 45.5318 4.40162 45.9323 4.64888 46.4393C5.54306 48.2749 6.03174 50.2721 6.0745 52.3076C6.08576 52.8641 6.98367 52.9135 6.97182 52.3517L6.97093 52.3517Z" fill="black"/>
<path d="M6.35056 64.7806C8.18677 67.0232 8.0716 70.174 9.13369 72.8352C10.267 75.6752 12.8528 77.9441 15.9139 78.7845C18.7266 79.5561 21.7305 79.1605 24.6593 79.2432C27.2464 79.317 29.8083 79.7695 32.3953 79.8302C35.551 79.9048 38.689 79.3982 41.8036 78.893C44.391 78.4736 46.9776 78.0541 49.565 77.6338C49.9461 77.5723 50.4166 77.4246 50.4545 77.0578C50.4923 76.691 50.062 76.4625 49.7021 76.3333C45.1309 74.6964 40.5596 73.0603 35.9884 71.4234L22.5557 63.8092C20.5704 63.7396 18.9571 62.2261 17.9788 60.5807C17.0005 58.9344 16.4409 57.0751 15.3621 55.4875C13.9857 53.4618 11.7214 51.9564 9.20989 51.6379C6.69841 51.3195 3.99108 52.2778 2.46406 54.2159C0.936138 56.1541 0.766201 59.0303 2.22951 60.9993C3.33487 62.487 5.17293 63.345 6.34962 64.7814L6.35056 64.7806Z" fill="#EECEB5"/>
<path d="M44.3507 60.3597C44.1338 59.1599 40.3165 56.4776 36.0304 57.4661C33.0233 60.8004 32.3903 67.4485 35.9306 73.9035C38.9348 75.459 43.6403 72.9138 43.4603 71.2866C43.3876 70.6296 41.1421 66.6634 43.873 61.8377C44.1351 61.3751 44.4451 60.8773 44.3508 60.3588L44.3507 60.3597Z" fill="#FF5900"/>
<path d="M44.3507 60.3597C44.1338 59.1599 40.3165 56.4776 36.0304 57.4661C33.0233 60.8004 32.3903 67.4485 35.9306 73.9035C38.9348 75.459 43.6403 72.9138 43.4603 71.2866C43.3876 70.6296 41.1421 66.6634 43.873 61.8377C44.1351 61.3751 44.4451 60.8773 44.3508 60.3588L44.3507 60.3597Z" fill="white" fill-opacity="0.2"/>
<path d="M43.8292 62.8796C44.1202 62.2357 44.5729 61.6425 44.7545 60.9582C44.8981 60.4162 44.0472 60.1394 43.9026 60.684C43.7222 61.3631 43.2671 61.9649 42.9773 62.6054C42.7041 63.2074 42.4889 63.835 42.3377 64.4754C42.0854 65.549 42.0123 66.6394 42.1108 67.7338C42.1848 68.5572 42.3596 69.3664 42.6104 70.154C42.7381 70.5541 42.955 70.9699 43.0124 71.3874C43.0887 71.942 43.9679 71.7522 43.8915 71.1985C43.8373 70.8047 43.6343 70.4131 43.5124 70.0361C43.2732 69.2962 43.0964 68.5375 43.0112 67.7659C42.8964 66.7187 42.9664 65.6361 43.2231 64.6098C43.3715 64.0165 43.5758 63.4372 43.8284 62.8787L43.8292 62.8796Z" fill="black"/>
<path d="M17.515 64.226C16.7981 76.3201 33.4852 78.298 36.3697 73.5059C37.1086 72.2775 36.3079 70.7487 35.8166 69.4174C34.3769 65.5121 34.8885 60.9665 37.1656 57.4301C30.9301 50.7991 17.9999 56.0249 17.5141 64.2259L17.515 64.226Z" fill="#FF7024"/>
<path d="M17.515 64.226C16.7981 76.3201 33.4852 78.298 36.3697 73.5059C37.1086 72.2775 36.3079 70.7487 35.8166 69.4174C34.3769 65.5121 34.8885 60.9665 37.1656 57.4301C30.9301 50.7991 17.9999 56.0249 17.5141 64.2259L17.515 64.226Z" fill="white" fill-opacity="0.2"/>
<path d="M36.7727 57.1873C35.2583 59.5687 34.4772 62.359 34.5464 65.1485C34.5807 66.5402 34.8089 67.9275 35.2626 69.2473C35.671 70.4339 36.6748 72.0323 35.9799 73.2815C35.706 73.7736 36.4541 74.254 36.7291 73.7594C37.4351 72.4898 36.9524 71.1563 36.463 69.9072C35.9409 68.5718 35.5701 67.2054 35.4698 65.7721C35.2721 62.9474 35.9827 60.0837 37.5209 57.6651C37.8256 57.1859 37.0764 56.7081 36.7718 57.1872L36.7727 57.1873Z" fill="black"/>
<path d="M11.1151 53.5721C11.8833 51.2308 12.1122 48.7791 11.8094 46.3474C11.7403 45.7922 10.8609 45.9828 10.9302 46.5363C11.2135 48.8081 10.9806 51.113 10.2631 53.2979C10.0875 53.834 10.9395 54.1083 11.1151 53.5721Z" fill="black"/>
<path d="M9.90992 57.7594C10.4584 56.9128 9.97866 55.7807 9.14961 55.4743C7.83654 54.9883 6.61977 56.0184 6.86057 57.2966C7.1029 58.5792 9.11893 58.9802 9.90992 57.7594Z" fill="black"/>
<path d="M8.40648 56.7485C8.56486 56.5043 8.42589 56.1785 8.18744 56.0893C7.80904 55.9488 7.45773 56.2463 7.52761 56.6149C7.59745 56.9844 8.17879 57.0999 8.40648 56.7485Z" fill="white"/>
<path d="M4.62046 57.0135C5.11448 56.2506 4.68204 55.2315 3.93489 54.9544C2.75208 54.5166 1.65559 55.4444 1.87332 56.596C2.09174 57.7511 3.90774 58.1126 4.62046 57.0135Z" fill="black"/>
<path d="M3.27488 56.0912C3.41741 55.8716 3.29272 55.5778 3.07713 55.4976C2.73567 55.3711 2.42029 55.6389 2.48248 55.9706C2.54545 56.304 3.06902 56.408 3.27398 56.0912L3.27488 56.0912Z" fill="white"/>
<path d="M3.50232 60.0189C3.21329 59.5394 3.92112 59.0075 4.213 59.4926C4.54187 60.039 5.22319 60.1658 5.64566 59.6433C6.00081 59.2041 6.71098 59.7406 6.35383 60.1814C5.60982 61.102 4.13121 61.0638 3.5022 60.0197L3.50232 60.0189Z" fill="black"/>
<path d="M26.7302 73.8574C28.9043 72.9694 31.2039 72.4229 33.5491 72.2132C34.1216 72.162 33.9301 71.3129 33.3602 71.3641C30.9347 71.5803 28.5699 72.1672 26.3221 73.0855C25.7891 73.3033 26.1981 74.0751 26.7302 73.8574Z" fill="black"/>
<path d="M33.4215 68.0326C33.9873 67.9212 33.8002 67.0721 33.2325 67.1842C29.2505 67.9668 25.131 67.9567 21.1662 67.1335C20.6074 67.0172 20.3156 67.8418 20.8789 67.9584C25.0061 68.8148 29.2732 68.8479 33.4215 68.0326Z" fill="black"/>
<path d="M31.4464 63.5909C32.0145 63.551 32.0728 62.6824 31.4975 62.7228C28.22 62.9539 24.9492 62.4889 21.8907 61.3474C21.3521 61.1468 21.0673 61.9728 21.6033 62.1725C24.7278 63.3381 28.0985 63.8272 31.4464 63.5909Z" fill="black"/>
<path d="M33.5756 59.8477C34.1506 59.8438 34.2054 58.9756 33.6268 58.9794C31.2261 58.9954 28.8832 58.49 26.7189 57.4978C26.1985 57.2597 25.9171 58.088 26.4314 58.3232C28.6595 59.3445 31.1049 59.8637 33.5756 59.8477Z" fill="black"/>
<path d="M41.3396 61.6517C41.9093 61.617 41.9669 60.7479 41.3908 60.7832C40.3506 60.8462 39.3212 60.6789 38.3826 60.2364C37.8705 59.9952 37.3696 60.7205 37.8861 60.9637C38.9698 61.4742 40.129 61.7246 41.3396 61.6517Z" fill="black"/>
<path d="M38.8561 71.7032L40.9792 71.5279C41.5525 71.4803 41.36 70.6319 40.7904 70.6788C40.0827 70.7373 39.375 70.7957 38.6673 70.8542C38.094 70.9018 38.2865 71.7502 38.8561 71.7032Z" fill="black"/>
<path d="M40.8961 66.3907C41.4676 66.31 41.2778 65.461 40.7072 65.5418C39.7028 65.6832 38.7203 65.5286 37.8008 65.1281C37.2754 64.8993 36.9931 65.7268 37.5132 65.9535C38.5807 66.4189 39.7368 66.5541 40.8961 66.3907Z" fill="black"/>
<path d="M46.884 63.9776C47.4515 63.8739 47.2637 63.024 46.6951 63.1285C46.2565 63.2089 45.8274 63.1878 45.4008 63.0649C44.8487 62.9062 44.5601 63.7319 45.1131 63.8906C45.6943 64.0577 46.2855 64.0867 46.884 63.9776Z" fill="black"/>
<path d="M45.2597 68.8477C45.844 68.7212 46.4274 68.5947 47.0118 68.4674C47.5752 68.3452 47.3891 67.4951 46.823 67.6181C46.2387 67.7445 45.6552 67.871 45.0709 67.9983C44.5075 68.1206 44.6936 68.9706 45.2597 68.8477Z" fill="black"/>
<mask id="path-27-inside-1_2000_114903" fill="white">
<path d="M44.1641 -7.71059e-07C46.1574 0.000205326 47.7732 1.61606 47.7734 3.60937L47.7734 39.0859C47.7733 41.0793 46.1574 42.6951 44.1641 42.6953L29.8838 42.6953C27.615 47.7111 24.7072 50.3003 18.7734 53C21.0234 49.1197 21.8973 46.4509 20.2461 42.6953L4.38281 42.6953C2.38944 42.6951 0.773541 41.0793 0.773438 39.0859L0.773438 3.60938C0.773643 1.61606 2.3895 0.000205718 4.38281 -6.41392e-08L44.1641 -7.71059e-07Z"/>
</mask>
<path d="M44.1641 -7.71059e-07C46.1574 0.000205326 47.7732 1.61606 47.7734 3.60937L47.7734 39.0859C47.7733 41.0793 46.1574 42.6951 44.1641 42.6953L29.8838 42.6953C27.615 47.7111 24.7072 50.3003 18.7734 53C21.0234 49.1197 21.8973 46.4509 20.2461 42.6953L4.38281 42.6953C2.38944 42.6951 0.773541 41.0793 0.773438 39.0859L0.773438 3.60938C0.773643 1.61606 2.3895 0.000205718 4.38281 -6.41392e-08L44.1641 -7.71059e-07Z" fill="url(#paint0_linear_2000_114903)"/>
<path d="M44.1641 -7.71059e-07L44.1642 -1L44.1641 -1L44.1641 -7.71059e-07ZM47.7734 3.60937L48.7734 3.60937L48.7734 3.60927L47.7734 3.60937ZM47.7734 39.0859L48.7734 39.086L48.7734 39.0859L47.7734 39.0859ZM44.1641 42.6953L44.1641 43.6953L44.1642 43.6953L44.1641 42.6953ZM29.8838 42.6953L29.8838 41.6953L29.2386 41.6953L28.9727 42.2832L29.8838 42.6953ZM18.7734 53L17.9083 52.4984L16.3379 55.2067L19.1876 53.9102L18.7734 53ZM20.2461 42.6953L21.1615 42.2928L20.8988 41.6953L20.2461 41.6953L20.2461 42.6953ZM4.38281 42.6953L4.38271 43.6953L4.38281 43.6953L4.38281 42.6953ZM0.773438 39.0859L-0.226562 39.0859L-0.226562 39.086L0.773438 39.0859ZM0.773438 3.60938L-0.226562 3.60927L-0.226562 3.60938L0.773438 3.60938ZM4.38281 -6.41392e-08L4.38281 -1L4.38271 -1L4.38281 -6.41392e-08ZM44.1641 -7.71059e-07L44.164 0.999999C45.6051 1.00015 46.7733 2.16837 46.7734 3.60948L47.7734 3.60937L48.7734 3.60927C48.7732 1.06376 46.7097 -0.999738 44.1642 -1L44.1641 -7.71059e-07ZM47.7734 3.60937L46.7734 3.60937L46.7734 39.0859L47.7734 39.0859L48.7734 39.0859L48.7734 3.60937L47.7734 3.60937ZM47.7734 39.0859L46.7734 39.0859C46.7734 40.527 45.6052 41.6952 44.164 41.6953L44.1641 42.6953L44.1642 43.6953C46.7097 43.695 48.7733 41.6317 48.7734 39.086L47.7734 39.0859ZM44.1641 42.6953L44.1641 41.6953L29.8838 41.6953L29.8838 42.6953L29.8838 43.6953L44.1641 43.6953L44.1641 42.6953ZM29.8838 42.6953L28.9727 42.2832C27.8812 44.6962 26.659 46.4781 25.026 47.9802C23.3827 49.4917 21.2778 50.7619 18.3593 52.0898L18.7734 53L19.1876 53.9102C22.2028 52.5383 24.5188 51.1641 26.38 49.4522C28.2514 47.7308 29.6176 45.7102 30.7949 43.1074L29.8838 42.6953ZM18.7734 53L19.6385 53.5016C20.7749 51.5418 21.631 49.7797 21.9567 47.9789C22.29 46.1363 22.0565 44.3284 21.1615 42.2928L20.2461 42.6953L19.3307 43.0978C20.0869 44.8179 20.242 46.2221 19.9887 47.6229C19.7277 49.0655 19.0219 50.5779 17.9083 52.4984L18.7734 53ZM20.2461 42.6953L20.2461 41.6953L4.38281 41.6953L4.38281 42.6953L4.38281 43.6953L20.2461 43.6953L20.2461 42.6953ZM4.38281 42.6953L4.38292 41.6953C2.94169 41.6952 1.77351 40.527 1.77344 39.0859L0.773438 39.0859L-0.226562 39.086C-0.22643 41.6317 1.83718 43.695 4.38271 43.6953L4.38281 42.6953ZM0.773438 39.0859L1.77344 39.0859L1.77344 3.60937L0.773438 3.60938L-0.226562 3.60938L-0.226562 39.0859L0.773438 39.0859ZM0.773438 3.60938L1.77344 3.60948C1.77359 2.16837 2.94181 1.00015 4.38292 1L4.38281 -6.41392e-08L4.38271 -1C1.83719 -0.999737 -0.2263 1.06376 -0.226562 3.60927L0.773438 3.60938ZM4.38281 -6.41392e-08L4.38281 1L44.1641 0.999999L44.1641 -7.71059e-07L44.1641 -1L4.38281 -1L4.38281 -6.41392e-08Z" fill="white" mask="url(#path-27-inside-1_2000_114903)"/>
<g clip-path="url(#clip0_2000_114903)">
<path d="M23.8033 5.26562C18.8035 5.26562 14.7512 9.31797 14.7512 14.3178C14.7512 14.4531 14.7553 14.5885 14.7594 14.7238C14.2344 14.7936 13.8242 15.2406 13.8242 15.7861C13.8242 16.3809 14.3041 16.8607 14.8988 16.8607H15.1121C16.2113 20.6219 19.6812 23.3699 23.7951 23.3699C28.7908 23.3699 32.8432 19.3176 32.8432 14.3219C32.8514 9.31797 28.799 5.26562 23.8033 5.26562Z" fill="#FFD469"/>
<path d="M30.4069 16.6508C30.1813 16.6303 29.9598 16.6139 29.7342 16.6016C29.6727 16.618 29.5045 16.659 29.2502 16.7082C28.9262 16.7533 28.4586 16.8682 27.9008 16.9215C27.343 16.9707 26.6909 17.0691 25.9936 17.102C25.2963 17.1512 24.554 17.1594 23.8075 17.1717C23.0651 17.1594 22.3186 17.1512 21.6213 17.102C20.9241 17.065 20.2719 16.9707 19.7141 16.9215C19.1563 16.8682 18.6928 16.7574 18.3647 16.7123C18.1063 16.6631 17.9381 16.6221 17.8807 16.6098C17.651 16.6262 17.4254 16.6385 17.1957 16.659C17.167 16.659 17.1424 16.6713 17.1178 16.6877C17.044 16.741 17.0235 16.8518 17.0768 16.9297L17.1957 17.1143C17.4706 17.5285 17.7454 17.8895 18.0202 18.1889C18.295 18.5006 18.5698 18.7631 18.8446 19.0092C19.3942 19.4932 19.9438 19.8541 20.4975 20.1535C20.6493 20.2314 20.7969 20.293 20.9487 20.3586C21.7854 19.7721 22.7575 20.5637 23.7993 20.5637C24.8411 20.5637 25.8172 19.7762 26.654 20.3668C26.8016 20.3012 26.9534 20.2437 27.101 20.1658C27.6506 19.8623 28.2002 19.5055 28.754 19.0174C29.0288 18.7672 29.3036 18.5047 29.5784 18.193C29.8532 17.8895 30.128 17.5326 30.4028 17.1143L30.5217 16.9297C30.5381 16.9051 30.5463 16.8764 30.5504 16.8436C30.5627 16.7451 30.4971 16.659 30.4069 16.6508Z" fill="#2B3B47"/>
<path d="M19.7162 16.9145C20.274 16.9637 20.9262 17.0621 21.6234 17.0949C22.3207 17.1441 23.0631 17.1523 23.8096 17.1646C24.552 17.1523 25.2984 17.1441 25.9957 17.0949C26.693 17.0621 27.3451 16.9637 27.9029 16.9145C28.4607 16.8652 28.9242 16.7504 29.2523 16.7012C29.5107 16.652 29.6789 16.6109 29.7363 16.5945C29.4082 16.574 29.0842 16.5535 28.7602 16.533L27.1072 16.4674C26.008 16.4305 24.9047 16.4346 23.8055 16.4141C22.7021 16.4346 21.6029 16.4305 20.5037 16.4674L18.8508 16.5289C18.5268 16.5535 18.2068 16.5699 17.8828 16.5904C17.9443 16.6068 18.1125 16.6479 18.3668 16.693C18.6949 16.7504 19.1584 16.8611 19.7162 16.9145Z" fill="white"/>
<path d="M26.6504 20.3533C26.6545 20.3533 26.6545 20.3492 26.6586 20.3492C25.8219 19.7627 24.8416 19.9513 23.808 20.0785H23.7998C22.7662 19.9513 21.7859 19.7627 20.9492 20.3492C20.9533 20.3492 20.9533 20.3533 20.9574 20.3533C20.9533 20.3533 20.9533 20.3574 20.9492 20.3574C21.8844 20.7758 22.8195 20.9726 23.7547 20.9767C23.7711 20.9767 23.7834 20.9808 23.7998 20.9808H23.808C23.8244 20.9808 23.8367 20.9767 23.8531 20.9767C24.7883 20.9726 25.7234 20.7758 26.6586 20.3574C26.6545 20.3533 26.6545 20.3533 26.6504 20.3533Z" fill="#FF473E"/>
<path d="M32.8408 14.7186C32.8449 14.5832 32.849 14.4479 32.849 14.3125C32.849 11.8967 31.9016 9.69824 30.3553 8.07812C31.2289 9.49316 31.7334 11.1625 31.7334 12.9508C31.7334 18.0859 27.5703 22.249 22.4352 22.249C20.6469 22.249 18.9816 21.7445 17.5625 20.8709C19.1867 22.4172 21.3811 23.3646 23.7969 23.3646C27.9107 23.3646 31.3848 20.6166 32.4799 16.8555H32.6932C33.2879 16.8555 33.7678 16.3756 33.7678 15.7809C33.776 15.2354 33.3699 14.7883 32.8408 14.7186Z" fill="#FFB636"/>
<path d="M27.1348 9.59375C27.061 9.59375 26.9872 9.56914 26.9298 9.51582C26.8026 9.40098 26.7903 9.2041 26.9051 9.07695C27.262 8.675 27.7747 8.44531 28.312 8.44531C28.8493 8.44531 29.362 8.675 29.7188 9.07695C29.8337 9.2041 29.8214 9.40508 29.6901 9.51582C29.563 9.63066 29.3661 9.61836 29.2512 9.48711C29.0133 9.22051 28.6729 9.06465 28.312 9.06465C27.951 9.06465 27.6106 9.21641 27.3727 9.48711C27.3071 9.56094 27.221 9.59375 27.1348 9.59375Z" fill="#F2A74E"/>
<path d="M28.309 10.6562C28.8586 10.6562 29.3016 11.0992 29.3016 11.6488V13.876C29.3016 14.4256 28.8586 14.8686 28.309 14.8686C27.7594 14.8686 27.3164 14.4256 27.3164 13.876V11.6488C27.3164 11.1033 27.7635 10.6562 28.309 10.6562Z" fill="#2B3B47"/>
<path d="M18.129 9.59375C18.0551 9.59375 17.9813 9.56914 17.9239 9.51582C17.7967 9.40098 17.7844 9.2041 17.8993 9.07695C18.2561 8.675 18.7688 8.44531 19.3061 8.44531C19.8434 8.44531 20.3561 8.675 20.713 9.07695C20.8278 9.2041 20.8155 9.40508 20.6842 9.51582C20.5571 9.63066 20.3561 9.61836 20.2454 9.48711C20.0075 9.22051 19.6671 9.06465 19.3061 9.06465C18.9452 9.06465 18.6048 9.21641 18.3669 9.48711C18.3012 9.56094 18.2151 9.59375 18.129 9.59375Z" fill="#F2A74E"/>
<path d="M19.3012 10.6562C19.8508 10.6562 20.2938 11.0992 20.2938 11.6488V13.876C20.2938 14.4256 19.8508 14.8686 19.3012 14.8686C18.7516 14.8686 18.3086 14.4256 18.3086 13.876V11.6488C18.3086 11.1033 18.7516 10.6562 19.3012 10.6562Z" fill="#2B3B47"/>
</g>
<path d="M15.7146 29.38L17.1846 29.38L17.1846 30.64L15.7146 30.64L15.7146 29.38ZM15.4446 27.28L16.7246 27.28L16.7246 27.5C16.7246 27.7467 16.6779 27.9833 16.5846 28.21C16.4913 28.4367 16.3479 28.6467 16.1546 28.84C15.9679 29.0267 15.7279 29.1933 15.4346 29.34C15.1413 29.4867 14.7946 29.6067 14.3946 29.7C13.9946 29.7933 13.5413 29.8567 13.0346 29.89L12.5846 28.79C13.0113 28.77 13.3846 28.73 13.7046 28.67C14.0246 28.6033 14.2946 28.5267 14.5146 28.44C14.7413 28.3533 14.9213 28.26 15.0546 28.16C15.1946 28.0533 15.2946 27.9433 15.3546 27.83C15.4146 27.7167 15.4446 27.6067 15.4446 27.5L15.4446 27.28ZM16.2146 27.28L17.4846 27.28L17.4846 27.5C17.4846 27.6067 17.5146 27.7167 17.5746 27.83C17.6413 27.9433 17.7413 28.0533 17.8746 28.16C18.0079 28.26 18.1846 28.3533 18.4046 28.44C18.6313 28.5267 18.9046 28.6033 19.2246 28.67C19.5446 28.73 19.9213 28.77 20.3546 28.79L19.9046 29.89C19.3979 29.8633 18.9446 29.8033 18.5446 29.71C18.1446 29.61 17.7979 29.4867 17.5046 29.34C17.2113 29.1933 16.9679 29.0267 16.7746 28.84C16.5879 28.6533 16.4479 28.4467 16.3546 28.22C16.2613 27.9933 16.2146 27.7533 16.2146 27.5L16.2146 27.28ZM13.0146 26.81L19.9246 26.81L19.9246 27.92L13.0146 27.92L13.0146 26.81ZM13.0046 32.17L19.9046 32.17L19.9046 33.26L13.0046 33.26L13.0046 32.17ZM12.2546 30.15L20.6946 30.15L20.6946 31.31L12.2546 31.31L12.2546 30.15ZM16.4446 33.48C17.3513 33.48 18.0546 33.5867 18.5546 33.8C19.0546 34.0067 19.3046 34.31 19.3046 34.71C19.3046 35.11 19.0546 35.4133 18.5546 35.62C18.0546 35.8333 17.3513 35.94 16.4446 35.94C15.5446 35.94 14.8413 35.8333 14.3346 35.62C13.8346 35.4133 13.5846 35.11 13.5846 34.71C13.5846 34.31 13.8346 34.0067 14.3346 33.8C14.8413 33.5867 15.5446 33.48 16.4446 33.48ZM16.4446 34.44C15.9913 34.44 15.6546 34.46 15.4346 34.5C15.2213 34.5333 15.1146 34.6033 15.1146 34.71C15.1146 34.8167 15.2213 34.89 15.4346 34.93C15.6546 34.9633 15.9913 34.98 16.4446 34.98C16.8979 34.98 17.2346 34.9633 17.4546 34.93C17.6746 34.89 17.7846 34.8167 17.7846 34.71C17.7846 34.6033 17.6746 34.5333 17.4546 34.5C17.2346 34.46 16.8979 34.44 16.4446 34.44ZM15.7146 31.57L17.1846 31.57L17.1846 32.81L15.7146 32.81L15.7146 31.57ZM23.5538 27.22C24.0338 27.22 24.4572 27.3567 24.8238 27.63C25.1972 27.9033 25.4905 28.29 25.7038 28.79C25.9238 29.29 26.0338 29.8833 26.0338 30.57C26.0338 31.2567 25.9238 31.8533 25.7038 32.36C25.4905 32.86 25.1972 33.2467 24.8238 33.52C24.4572 33.7933 24.0338 33.93 23.5538 33.93C23.0738 33.93 22.6472 33.7933 22.2738 33.52C21.9072 33.2467 21.6138 32.86 21.3938 32.36C21.1805 31.8533 21.0738 31.2567 21.0738 30.57C21.0738 29.8833 21.1805 29.29 21.3938 28.79C21.6138 28.29 21.9072 27.9033 22.2738 27.63C22.6472 27.3567 23.0738 27.22 23.5538 27.22ZM23.5538 28.56C23.3472 28.56 23.1638 28.6333 23.0038 28.78C22.8438 28.9267 22.7172 29.15 22.6238 29.45C22.5372 29.7433 22.4938 30.1133 22.4938 30.56C22.4938 31.0133 22.5372 31.39 22.6238 31.69C22.7172 31.99 22.8438 32.2167 23.0038 32.37C23.1638 32.5167 23.3505 32.59 23.5638 32.59C23.7705 32.59 23.9538 32.5167 24.1138 32.37C24.2738 32.2167 24.3972 31.99 24.4838 31.69C24.5772 31.39 24.6238 31.0133 24.6238 30.56C24.6238 30.1133 24.5772 29.7433 24.4838 29.45C24.3972 29.15 24.2738 28.9267 24.1138 28.78C23.9538 28.6333 23.7672 28.56 23.5538 28.56ZM26.9138 26.6L28.3938 26.6L28.3938 35.92L26.9138 35.92L26.9138 26.6ZM28.0738 30.05L29.6938 30.05L29.6938 31.26L28.0738 31.26L28.0738 30.05ZM31.653 31.31L33.123 31.31L33.123 33.88L31.653 33.88L31.653 31.31ZM35.023 31.31L36.493 31.31L36.493 33.88L35.023 33.88L35.023 31.31ZM29.863 33.68L38.293 33.68L38.293 34.87L29.863 34.87L29.863 33.68ZM34.073 27.01C34.7464 27.01 35.3464 27.1167 35.873 27.33C36.3997 27.5367 36.8164 27.83 37.123 28.21C37.4297 28.5833 37.583 29.03 37.583 29.55C37.583 30.0567 37.4297 30.5 37.123 30.88C36.8164 31.26 36.3997 31.5533 35.873 31.76C35.3464 31.9667 34.7464 32.07 34.073 32.07C33.3997 32.07 32.7964 31.9667 32.263 31.76C31.7364 31.5533 31.3197 31.26 31.013 30.88C30.713 30.5 30.563 30.0567 30.563 29.55C30.563 29.03 30.713 28.5833 31.013 28.21C31.3197 27.83 31.7364 27.5367 32.263 27.33C32.7964 27.1167 33.3997 27.01 34.073 27.01ZM34.073 28.16C33.653 28.16 33.2897 28.2133 32.983 28.32C32.6764 28.4267 32.4364 28.5833 32.263 28.79C32.0964 28.9967 32.013 29.25 32.013 29.55C32.013 29.8433 32.0964 30.0933 32.263 30.3C32.4364 30.5067 32.6764 30.6667 32.983 30.78C33.2897 30.8867 33.653 30.94 34.073 30.94C34.4864 30.94 34.8464 30.8867 35.153 30.78C35.4597 30.6667 35.6964 30.5067 35.863 30.3C36.0364 30.0933 36.123 29.8433 36.123 29.55C36.123 29.25 36.0364 28.9967 35.863 28.79C35.6964 28.5833 35.4597 28.4267 35.153 28.32C34.8464 28.2133 34.4864 28.16 34.073 28.16Z" fill="#FF9500"/>
<defs>
<filter id="filter0_f_2000_114903" x="5.91992" y="72.9688" width="50" height="15" filterUnits="userSpaceOnUse" color-interpolation-filters="sRGB">
<feFlood flood-opacity="0" result="BackgroundImageFix"/>
<feBlend mode="normal" in="SourceGraphic" in2="BackgroundImageFix" result="shape"/>
<feGaussianBlur stdDeviation="2" result="effect1_foregroundBlur_2000_114903"/>
</filter>
<filter id="filter1_f_2000_114903" x="13.9199" y="75.9688" width="36" height="7" filterUnits="userSpaceOnUse" color-interpolation-filters="sRGB">
<feFlood flood-opacity="0" result="BackgroundImageFix"/>
<feBlend mode="normal" in="SourceGraphic" in2="BackgroundImageFix" result="shape"/>
<feGaussianBlur stdDeviation="0.5" result="effect1_foregroundBlur_2000_114903"/>
</filter>
<linearGradient id="paint0_linear_2000_114903" x1="24.2734" y1="-4.17599e-07" x2="24.2734" y2="53" gradientUnits="userSpaceOnUse">
<stop stop-color="#FFEEC3"/>
<stop offset="1" stop-color="white"/>
</linearGradient>
<clipPath id="clip0_2000_114903">
<rect width="21" height="21" fill="white" transform="translate(13.3086 3.82031)"/>
</clipPath>
</defs>
</svg>
