<svg width="60" height="80" viewBox="0 0 60 80" fill="none" xmlns="http://www.w3.org/2000/svg">
<mask id="path-1-inside-1_2000_114995" fill="white">
<path d="M52.7461 -7.71059e-07C54.7394 0.00020541 56.3553 1.61606 56.3555 3.60937L56.3555 29.0859C56.3554 31.0793 54.7395 32.6951 52.7461 32.6953L38.4658 32.6953C36.197 37.7111 33.2893 40.3003 27.3555 43C29.6054 39.1197 30.4793 36.4509 28.8281 32.6953L12.9648 32.6953C10.9715 32.6951 9.35557 31.0793 9.35547 29.0859L9.35547 3.60938C9.35567 1.61606 10.9715 0.000205633 12.9648 -6.41392e-08L52.7461 -7.71059e-07Z"/>
</mask>
<path d="M52.7461 -7.71059e-07C54.7394 0.00020541 56.3553 1.61606 56.3555 3.60937L56.3555 29.0859C56.3554 31.0793 54.7395 32.6951 52.7461 32.6953L38.4658 32.6953C36.197 37.7111 33.2893 40.3003 27.3555 43C29.6054 39.1197 30.4793 36.4509 28.8281 32.6953L12.9648 32.6953C10.9715 32.6951 9.35557 31.0793 9.35547 29.0859L9.35547 3.60938C9.35567 1.61606 10.9715 0.000205633 12.9648 -6.41392e-08L52.7461 -7.71059e-07Z" fill="url(#paint0_linear_2000_114995)"/>
<path d="M52.7461 -7.71059e-07L52.7462 -1L52.7461 -1L52.7461 -7.71059e-07ZM56.3555 3.60937L57.3555 3.60937L57.3555 3.60927L56.3555 3.60937ZM56.3555 29.0859L57.3555 29.086L57.3555 29.0859L56.3555 29.0859ZM52.7461 32.6953L52.7461 33.6953L52.7462 33.6953L52.7461 32.6953ZM38.4658 32.6953L38.4658 31.6953L37.8206 31.6953L37.5547 32.2832L38.4658 32.6953ZM27.3555 43L26.4904 42.4984L24.92 45.2067L27.7696 43.9102L27.3555 43ZM28.8281 32.6953L29.7436 32.2928L29.4808 31.6953L28.8281 31.6953L28.8281 32.6953ZM12.9648 32.6953L12.9647 33.6953L12.9648 33.6953L12.9648 32.6953ZM9.35547 29.0859L8.35547 29.0859L8.35547 29.086L9.35547 29.0859ZM9.35547 3.60938L8.35547 3.60927L8.35547 3.60938L9.35547 3.60938ZM12.9648 -6.41392e-08L12.9648 -1L12.9647 -1L12.9648 -6.41392e-08ZM52.7461 -7.71059e-07L52.746 0.999999C54.1871 1.00015 55.3553 2.16837 55.3555 3.60948L56.3555 3.60937L57.3555 3.60927C57.3552 1.06376 55.2917 -0.999737 52.7462 -1L52.7461 -7.71059e-07ZM56.3555 3.60937L55.3555 3.60937L55.3555 29.0859L56.3555 29.0859L57.3555 29.0859L57.3555 3.60937L56.3555 3.60937ZM56.3555 29.0859L55.3555 29.0859C55.3554 30.527 54.1872 31.6952 52.746 31.6953L52.7461 32.6953L52.7462 33.6953C55.2917 33.695 57.3553 31.6317 57.3555 29.086L56.3555 29.0859ZM52.7461 32.6953L52.7461 31.6953L38.4658 31.6953L38.4658 32.6953L38.4658 33.6953L52.7461 33.6953L52.7461 32.6953ZM38.4658 32.6953L37.5547 32.2832C36.4632 34.6962 35.2411 36.4781 33.608 37.9802C31.9647 39.4917 29.8599 40.7619 26.9413 42.0898L27.3555 43L27.7696 43.9102C30.7849 42.5383 33.1008 41.1641 34.962 39.4522C36.8335 37.7308 38.1996 35.7102 39.3769 33.1074L38.4658 32.6953ZM27.3555 43L28.2206 43.5016C29.3569 41.5418 30.213 39.7797 30.5388 37.9789C30.872 36.1363 30.6385 34.3284 29.7436 32.2928L28.8281 32.6953L27.9127 33.0978C28.669 34.8179 28.8241 36.2221 28.5707 37.6229C28.3098 39.0655 27.604 40.5779 26.4904 42.4984L27.3555 43ZM28.8281 32.6953L28.8281 31.6953L12.9648 31.6953L12.9648 32.6953L12.9648 33.6953L28.8281 33.6953L28.8281 32.6953ZM12.9648 32.6953L12.9649 31.6953C11.5237 31.6952 10.3555 30.527 10.3555 29.0859L9.35547 29.0859L8.35547 29.086C8.3556 31.6317 10.4192 33.695 12.9647 33.6953L12.9648 32.6953ZM9.35547 29.0859L10.3555 29.0859L10.3555 3.60937L9.35547 3.60938L8.35547 3.60938L8.35547 29.0859L9.35547 29.0859ZM9.35547 3.60938L10.3555 3.60948C10.3556 2.16837 11.5238 1.00015 12.9649 1L12.9648 -6.41392e-08L12.9647 -1C10.4192 -0.999737 8.35573 1.06376 8.35547 3.60927L9.35547 3.60938ZM12.9648 -6.41392e-08L12.9648 1L52.7461 0.999999L52.7461 -7.71059e-07L52.7461 -1L12.9648 -1L12.9648 -6.41392e-08Z" fill="white" mask="url(#path-1-inside-1_2000_114995)"/>
<path class="emoji-text" d="M16.527 14.36L22.957 14.36L22.957 15.52L16.527 15.52L16.527 14.36ZM16.527 12.35L17.997 12.35L17.997 14.98L16.527 14.98L16.527 12.35ZM15.447 16.09L23.887 16.09L23.887 17.25L15.447 17.25L15.447 16.09ZM18.877 18.24L20.127 18.24L20.127 18.44C20.127 18.8067 20.0504 19.1567 19.897 19.49C19.7504 19.8167 19.527 20.11 19.227 20.37C18.9337 20.63 18.5604 20.8467 18.107 21.02C17.6537 21.1933 17.1237 21.3133 16.517 21.38L15.997 20.27C16.5304 20.2167 16.9804 20.13 17.347 20.01C17.7137 19.8833 18.007 19.7333 18.227 19.56C18.4537 19.3867 18.617 19.2033 18.717 19.01C18.8237 18.8167 18.877 18.6267 18.877 18.44L18.877 18.24ZM19.167 18.24L20.417 18.24L20.417 18.44C20.417 18.6267 20.467 18.8167 20.567 19.01C20.6737 19.2033 20.837 19.3867 21.057 19.56C21.2837 19.7333 21.5804 19.8833 21.947 20.01C22.3137 20.13 22.7637 20.2167 23.297 20.27L22.767 21.38C22.1604 21.3133 21.6304 21.1933 21.177 21.02C20.7237 20.8467 20.347 20.63 20.047 20.37C19.7537 20.11 19.5337 19.8167 19.387 19.49C19.2404 19.1567 19.167 18.8067 19.167 18.44L19.167 18.24ZM16.367 17.83L22.927 17.83L22.927 18.98L16.367 18.98L16.367 17.83ZM26.3963 17.64L27.5063 17.64L27.5063 17.94C27.5063 18.4333 27.4363 18.9033 27.2963 19.35C27.1563 19.7967 26.9329 20.1867 26.6263 20.52C26.3263 20.8533 25.9263 21.11 25.4263 21.29L24.7063 20.23C25.1196 20.0833 25.4496 19.8933 25.6963 19.66C25.9429 19.42 26.1196 19.1533 26.2263 18.86C26.3396 18.56 26.3963 18.2533 26.3963 17.94L26.3963 17.64ZM26.7763 17.64L27.8263 17.64L27.8263 17.94C27.8263 18.2467 27.8763 18.55 27.9763 18.85C28.0763 19.15 28.2429 19.43 28.4763 19.69C28.7096 19.9433 29.0196 20.1533 29.4063 20.32L28.8063 21.39C28.2996 21.1967 27.8963 20.92 27.5963 20.56C27.3029 20.2 27.0929 19.7933 26.9663 19.34C26.8396 18.8867 26.7763 18.42 26.7763 17.94L26.7763 17.64ZM29.7763 17.64L30.8263 17.64L30.8263 17.94C30.8263 18.3933 30.7629 18.85 30.6363 19.31C30.5096 19.7633 30.2963 20.1733 29.9963 20.54C29.7029 20.9067 29.3063 21.19 28.8063 21.39L28.2063 20.32C28.5929 20.14 28.8996 19.92 29.1263 19.66C29.3596 19.3933 29.5263 19.11 29.6263 18.81C29.7263 18.51 29.7763 18.22 29.7763 17.94L29.7763 17.64ZM30.1363 17.64L31.2363 17.64L31.2363 17.94C31.2363 18.2733 31.2896 18.59 31.3963 18.89C31.5029 19.19 31.6796 19.4567 31.9263 19.69C32.1796 19.9167 32.5163 20.0967 32.9363 20.23L32.1963 21.29C31.6963 21.1167 31.2929 20.8667 30.9863 20.54C30.6863 20.2133 30.4696 19.8267 30.3363 19.38C30.2029 18.9333 30.1363 18.4533 30.1363 17.94L30.1363 17.64ZM28.7663 14.2L30.8963 14.2L30.8963 15.39L28.7663 15.39L28.7663 14.2ZM26.8163 12.55C27.2829 12.55 27.7029 12.6467 28.0763 12.84C28.4563 13.0333 28.7529 13.3 28.9663 13.64C29.1863 13.98 29.2963 14.3667 29.2963 14.8C29.2963 15.24 29.1863 15.63 28.9663 15.97C28.7529 16.3033 28.4563 16.5667 28.0763 16.76C27.7029 16.9533 27.2829 17.05 26.8163 17.05C26.3496 17.05 25.9296 16.9533 25.5563 16.76C25.1829 16.5667 24.8863 16.3033 24.6663 15.97C24.4529 15.63 24.3463 15.24 24.3463 14.8C24.3463 14.3667 24.4529 13.98 24.6663 13.64C24.8863 13.3 25.1829 13.0333 25.5563 12.84C25.9296 12.6467 26.3496 12.55 26.8163 12.55ZM26.8163 13.77C26.6096 13.77 26.4263 13.81 26.2663 13.89C26.1063 13.9633 25.9796 14.08 25.8863 14.24C25.7929 14.3933 25.7463 14.58 25.7463 14.8C25.7463 15.02 25.7929 15.21 25.8863 15.37C25.9796 15.5233 26.1063 15.64 26.2663 15.72C26.4263 15.8 26.6096 15.84 26.8163 15.84C27.0229 15.84 27.2063 15.8 27.3663 15.72C27.5263 15.64 27.6529 15.5233 27.7463 15.37C27.8396 15.21 27.8863 15.02 27.8863 14.8C27.8863 14.58 27.8396 14.3933 27.7463 14.24C27.6529 14.08 27.5263 13.9633 27.3663 13.89C27.2063 13.81 27.0229 13.77 26.8163 13.77ZM30.5963 12.1L32.0763 12.1L32.0763 17.28L30.5963 17.28L30.5963 12.1ZM35.6055 12.72C36.0721 12.72 36.4888 12.8567 36.8555 13.13C37.2221 13.4033 37.5088 13.79 37.7155 14.29C37.9288 14.79 38.0355 15.38 38.0355 16.06C38.0355 16.7533 37.9288 17.3533 37.7155 17.86C37.5088 18.36 37.2221 18.7467 36.8555 19.02C36.4888 19.2933 36.0721 19.43 35.6055 19.43C35.1388 19.43 34.7221 19.2933 34.3555 19.02C33.9888 18.7467 33.6988 18.36 33.4855 17.86C33.2788 17.3533 33.1755 16.7533 33.1755 16.06C33.1755 15.38 33.2788 14.79 33.4855 14.29C33.6988 13.79 33.9888 13.4033 34.3555 13.13C34.7221 12.8567 35.1388 12.72 35.6055 12.72ZM35.6055 14.06C35.3988 14.06 35.2188 14.1333 35.0655 14.28C34.9121 14.4267 34.7921 14.65 34.7055 14.95C34.6255 15.2433 34.5855 15.6133 34.5855 16.06C34.5855 16.5133 34.6255 16.89 34.7055 17.19C34.7921 17.49 34.9121 17.7167 35.0655 17.87C35.2188 18.0167 35.3988 18.09 35.6055 18.09C35.8188 18.09 35.9988 18.0167 36.1455 17.87C36.2988 17.7167 36.4188 17.49 36.5055 17.19C36.5921 16.89 36.6355 16.5133 36.6355 16.06C36.6355 15.6133 36.5921 15.2433 36.5055 14.95C36.4188 14.65 36.2988 14.4267 36.1455 14.28C35.9988 14.1333 35.8188 14.06 35.6055 14.06ZM39.4355 12.08L40.8955 12.08L40.8955 21.44L39.4355 21.44L39.4355 12.08ZM37.6155 15.39L40.0455 15.39L40.0455 16.57L37.6155 16.57L37.6155 15.39ZM43.6347 16.81L45.1047 16.81L45.1047 19.38L43.6347 19.38L43.6347 16.81ZM47.0047 16.81L48.4747 16.81L48.4747 19.38L47.0047 19.38L47.0047 16.81ZM41.8447 19.18L50.2747 19.18L50.2747 20.37L41.8447 20.37L41.8447 19.18ZM46.0547 12.51C46.728 12.51 47.328 12.6167 47.8547 12.83C48.3814 13.0367 48.798 13.33 49.1047 13.71C49.4114 14.0833 49.5647 14.53 49.5647 15.05C49.5647 15.5567 49.4114 16 49.1047 16.38C48.798 16.76 48.3814 17.0533 47.8547 17.26C47.328 17.4667 46.728 17.57 46.0547 17.57C45.3814 17.57 44.778 17.4667 44.2447 17.26C43.718 17.0533 43.3014 16.76 42.9947 16.38C42.6947 16 42.5447 15.5567 42.5447 15.05C42.5447 14.53 42.6947 14.0833 42.9947 13.71C43.3014 13.33 43.718 13.0367 44.2447 12.83C44.778 12.6167 45.3814 12.51 46.0547 12.51ZM46.0547 13.66C45.6347 13.66 45.2714 13.7133 44.9647 13.82C44.658 13.9267 44.418 14.0833 44.2447 14.29C44.078 14.4967 43.9947 14.75 43.9947 15.05C43.9947 15.3433 44.078 15.5933 44.2447 15.8C44.418 16.0067 44.658 16.1667 44.9647 16.28C45.2714 16.3867 45.6347 16.44 46.0547 16.44C46.468 16.44 46.828 16.3867 47.1347 16.28C47.4414 16.1667 47.678 16.0067 47.8447 15.8C48.018 15.5933 48.1047 15.3433 48.1047 15.05C48.1047 14.75 48.018 14.4967 47.8447 14.29C47.678 14.0833 47.4414 13.9267 47.1347 13.82C46.828 13.7133 46.468 13.66 46.0547 13.66Z" fill="#E20B00"/>
<path d="M10.1868 42.8891C10.0829 38.7747 9.03703 34.76 7.077 31.0426C6.57596 30.0927 4.95687 30.8412 5.45963 31.7928C7.27783 35.2384 8.27634 38.9858 8.37279 42.8036C8.39828 43.8473 10.2153 43.9427 10.1886 42.8891L10.1868 42.8891Z" fill="black"/>
<path d="M10.1868 42.8891C10.0829 38.7747 9.03703 34.76 7.077 31.0426C6.57596 30.0927 4.95687 30.8412 5.45963 31.7928C7.27783 35.2384 8.27634 38.9858 8.37279 42.8036C8.39828 43.8473 10.2153 43.9427 10.1886 42.8891L10.1868 42.8891Z" fill="url(#paint1_linear_2000_114995)" fill-opacity="0.6"/>
<path d="M2.20312 46.4043C4.89752 42.9839 9.66476 41.285 14.083 41.8369C18.5012 42.3889 22.4801 45.0335 24.8945 48.5977C26.7869 51.3909 27.233 54.3295 28.9482 57.2266L30.7998 63.3086C31.1278 63.405 31.4689 63.4639 31.8223 63.4756L45.1621 71.0293C49.7039 72.6497 54.2463 74.2693 58.7881 75.8896C59.1456 76.0176 59.5726 76.2442 59.5342 76.6094C59.4955 76.9742 59.0282 77.1226 58.6494 77.1846C56.0757 77.6083 53.5024 78.0312 50.9287 78.4541C47.8309 78.9634 44.7098 79.4741 41.5723 79.4062C39.0002 79.3511 36.4531 78.906 33.8809 78.8379C30.9689 78.7616 27.9815 79.1608 25.1865 78.3984C22.1446 77.568 19.5779 75.3144 18.457 72.4893C17.5138 70.1117 17.515 67.3395 16.2061 65.1846C11.1157 61.4118 4.97855 62.6934 1.76465 58.3564C-0.802895 54.8926 -0.492809 49.8247 2.20312 46.4043Z" fill="#EECEB5"/>
<path d="M2.20312 46.4043C4.89752 42.9839 9.66476 41.285 14.083 41.8369C18.5012 42.3889 22.4801 45.0335 24.8945 48.5977C26.7869 51.3909 27.233 54.3295 28.9482 57.2266L30.7998 63.3086C31.1278 63.405 31.4689 63.4639 31.8223 63.4756L45.1621 71.0293C49.7039 72.6497 54.2463 74.2693 58.7881 75.8896C59.1456 76.0176 59.5726 76.2442 59.5342 76.6094C59.4955 76.9742 59.0282 77.1226 58.6494 77.1846C56.0757 77.6083 53.5024 78.0312 50.9287 78.4541C47.8309 78.9634 44.7098 79.4741 41.5723 79.4062C39.0002 79.3511 36.4531 78.906 33.8809 78.8379C30.9689 78.7616 27.9815 79.1608 25.1865 78.3984C22.1446 77.568 19.5779 75.3144 18.457 72.4893C17.5138 70.1117 17.515 67.3395 16.2061 65.1846C11.1157 61.4118 4.97855 62.6934 1.76465 58.3564C-0.802895 54.8926 -0.492809 49.8247 2.20312 46.4043Z" fill="url(#paint2_linear_2000_114995)" fill-opacity="0.4"/>
<path d="M12.3078 56.1652C12.1201 54.5107 10.8038 52.2416 7.74165 52.2496C4.55921 52.258 3.24561 54.732 3.13672 56.3951C3.11142 56.8386 3.31866 57.2578 3.67865 57.5181C4.03865 57.7785 4.51944 57.8406 4.93673 57.6811C4.94475 57.6811 5.85151 57.3461 7.55897 57.3416C9.33856 57.337 10.5961 57.6979 10.6121 57.7058C10.7402 57.745 10.8685 57.7605 10.9967 57.7602L11.0047 57.7602C11.7342 57.7583 12.3291 57.1707 12.3311 56.4502C12.3394 56.3472 12.3236 56.2522 12.3078 56.1652Z" fill="#291000"/>
<path d="M12.3078 56.1652C12.1201 54.5107 10.8038 52.2416 7.74165 52.2496C4.55921 52.258 3.24561 54.732 3.13672 56.3951C3.11142 56.8386 3.31866 57.2578 3.67865 57.5181C4.03865 57.7785 4.51944 57.8406 4.93673 57.6811C4.94475 57.6811 5.85151 57.3461 7.55897 57.3416C9.33856 57.337 10.5961 57.6979 10.6121 57.7058C10.7402 57.745 10.8685 57.7605 10.9967 57.7602L11.0047 57.7602C11.7342 57.7583 12.3291 57.1707 12.3311 56.4502C12.3394 56.3472 12.3236 56.2522 12.3078 56.1652Z" fill="url(#paint3_linear_2000_114995)" fill-opacity="0.4"/>
<path d="M16.7295 44.7243C17.8076 40.3295 18.1956 35.7455 17.8982 31.2156C17.8303 30.1813 16.6908 30.5646 16.7588 31.5956C17.0373 35.8278 16.6498 40.1377 15.6428 44.2389C15.3962 45.2452 16.4829 45.7306 16.7295 44.7243Z" fill="black"/>
<path d="M16.7295 44.7243C17.8076 40.3295 18.1956 35.7455 17.8982 31.2156C17.8303 30.1813 16.6908 30.5646 16.7588 31.5956C17.0373 35.8278 16.6498 40.1377 15.6428 44.2389C15.3962 45.2452 16.4829 45.7306 16.7295 44.7243Z" fill="url(#paint4_linear_2000_114995)" fill-opacity="0.6"/>
<path d="M5.73495 47.4408L5.73054 49.3685C5.72759 50.6622 4.736 51.707 3.50864 51.7097C2.28129 51.7123 1.29446 50.6718 1.29742 49.3781L1.30469 46.1953L5.73495 47.4408ZM14.1827 46.1674L14.1755 49.3502C14.1725 50.6439 13.1809 51.6887 11.9536 51.6914C10.7262 51.694 9.73939 50.6535 9.74234 49.3598L9.74675 47.4321L14.1827 46.1674Z" fill="#291000"/>
<path d="M4.192 47.6559C4.19036 48.3722 3.7772 48.9538 3.26917 48.9549C2.76115 48.956 2.35064 48.3762 2.35228 47.6599C2.35391 46.9435 2.76529 47.1417 3.27332 47.1406C3.78134 47.1395 4.19363 46.9395 4.192 47.6559Z" fill="white"/>
<path d="M12.8385 47.6715C12.8368 48.3878 12.4237 48.9694 11.9157 48.9705C11.4076 48.9716 10.9971 48.3918 10.9988 47.6755C11.0004 46.9591 11.4118 47.1573 11.9198 47.1562C12.4278 47.1551 12.8401 46.9551 12.8385 47.6715Z" fill="white"/>
<path d="M5.67845 48.2852C5.60789 48.2854 5.54617 48.2747 5.47565 48.2532L0.936694 46.6294C0.557723 46.4896 0.338316 46.0032 0.454049 45.5378C0.569781 45.0723 0.967333 44.801 1.3463 44.9408L5.88526 46.5646C6.26423 46.7044 6.48364 47.1908 6.36791 47.6562C6.27883 48.0351 5.98718 48.2846 5.67845 48.2852ZM9.63897 48.2766C9.33907 48.2773 9.05735 48.0399 8.95234 47.6723C8.82991 47.2073 9.03393 46.7092 9.41356 46.5569L11.8062 45.5943L14.1988 44.6316C14.5784 44.4794 14.9836 44.7273 15.106 45.1922C15.2285 45.6572 15.0245 46.1553 14.6448 46.3076L9.85959 48.2329C9.78895 48.2655 9.71836 48.2765 9.63897 48.2766Z" fill="#6B3A2D"/>
<path d="M58.9313 64.7337C57.465 63.0377 55.2881 61.976 53.0332 61.8565C51.8612 63.1451 51.5221 65.3488 52.3473 68.8313C54.9816 68.489 57.4519 66.9503 58.9305 64.7337L58.9313 64.7337Z" fill="#FF4000"/>
<path d="M58.9313 64.7337C57.465 63.0377 55.2881 61.976 53.0332 61.8565C51.8612 63.1451 51.5221 65.3488 52.3473 68.8313C54.9816 68.489 57.4519 66.9503 58.9305 64.7337L58.9313 64.7337Z" fill="white" fill-opacity="0.2"/>
<path d="M54.1173 61.4163C54.0491 60.9985 53.6014 60.7454 53.1875 60.5838C51.8815 60.0751 50.4296 59.8992 49.0234 60.0792C46.1575 61.5731 45.0547 64.8245 46.0861 70.2046C48.4519 71.4443 51.6328 71.1449 53.7136 69.487C54.1059 69.1746 54.4762 68.7923 54.5783 68.319C54.7091 67.7137 54.3768 67.1219 54.138 66.5496C53.5508 65.1438 53.4969 63.5426 53.9894 62.0976C54.0649 61.8753 54.1539 61.6457 54.1173 61.4163Z" fill="#FF4800"/>
<path d="M54.1173 61.4163C54.0491 60.9985 53.6014 60.7454 53.1875 60.5838C51.8815 60.0751 50.4296 59.8992 49.0234 60.0792C46.1575 61.5731 45.0547 64.8245 46.0861 70.2046C48.4519 71.4443 51.6328 71.1449 53.7136 69.487C54.1059 69.1746 54.4762 68.7923 54.5783 68.319C54.7091 67.7137 54.3768 67.1219 54.138 66.5496C53.5508 65.1438 53.4969 63.5426 53.9894 62.0976C54.0649 61.8753 54.1539 61.6457 54.1173 61.4163Z" fill="white" fill-opacity="0.2"/>
<path d="M53.2965 62.1345C52.9777 63.1553 52.8804 64.2147 53.018 65.2694C53.0847 65.7804 53.2149 66.276 53.3927 66.758C53.5954 67.3079 53.898 67.8257 53.8081 68.4328C53.7246 68.9911 54.6048 69.0291 54.6872 68.4743C54.8408 67.4448 54.1516 66.5018 53.9539 65.5214C53.7455 64.4862 53.8141 63.4202 54.1307 62.4072C54.2994 61.8669 53.4661 61.5943 53.2974 62.1345L53.2965 62.1345Z" fill="black"/>
<path d="M49.884 59.1022C49.658 57.9114 45.6941 55.2486 41.2459 56.2289C38.1268 59.5377 37.4741 66.1359 41.153 72.5431C44.2723 74.0874 49.1547 71.5621 48.9668 69.9471C48.891 69.295 46.5576 65.3581 49.3891 60.569C49.6608 60.11 49.9823 59.616 49.884 59.1013L49.884 59.1022Z" fill="#FF5900"/>
<path d="M49.884 59.1022C49.658 57.9114 45.6941 55.2486 41.2459 56.2289C38.1268 59.5377 37.4741 66.1359 41.153 72.5431C44.2723 74.0874 49.1547 71.5621 48.9668 69.9471C48.891 69.295 46.5576 65.3581 49.3891 60.569C49.6608 60.11 49.9823 59.616 49.884 59.1013L49.884 59.1022Z" fill="white" fill-opacity="0.2"/>
<path d="M48.2526 62.3004C48.5046 61.6752 48.893 61.0979 49.053 60.4345C49.1794 59.909 48.4622 59.6477 48.3348 60.1758C48.176 60.8341 47.7855 61.4198 47.5344 62.0417C47.2979 62.6263 47.11 63.2351 46.9763 63.8558C46.753 64.8964 46.6811 65.9518 46.7545 67.0098C46.8095 67.8059 46.9499 68.5874 47.1549 69.3475C47.2592 69.7335 47.4389 70.1341 47.4836 70.5376C47.543 71.0736 48.2885 70.8832 48.229 70.348C48.1867 69.9675 48.0186 69.5903 47.919 69.2264C47.7234 68.5124 47.5808 67.7798 47.5158 67.034C47.4283 66.0218 47.4974 64.9738 47.724 63.979C47.855 63.4038 48.0331 62.8419 48.2519 62.2996L48.2526 62.3004Z" fill="black"/>
<path d="M22.4474 63.4552C21.6882 75.8342 37.8531 77.7816 40.6747 72.8647C41.3975 71.6044 40.6295 70.0437 40.1603 68.6836C38.7854 64.694 39.3054 60.0402 41.5315 56.4111C35.5224 49.6543 22.961 55.0611 22.4465 63.4552L22.4474 63.4552Z" fill="#FF7024"/>
<path d="M22.4474 63.4552C21.6882 75.8342 37.8531 77.7816 40.6747 72.8647C41.3975 71.6044 40.6295 70.0437 40.1603 68.6836C38.7854 64.694 39.3054 60.0402 41.5315 56.4111C35.5224 49.6543 22.961 55.0611 22.4465 63.4552L22.4474 63.4552Z" fill="white" fill-opacity="0.2"/>
<path d="M41.879 56.1131C40.3645 58.4978 39.5798 61.2899 39.6424 64.0793C39.6734 65.471 39.8977 66.8578 40.3468 68.1767C40.7511 69.3624 41.7477 70.9587 41.0524 72.2094C40.7784 72.702 41.5227 73.1809 41.7978 72.6857C42.5042 71.4145 42.0263 70.082 41.5415 68.834C41.0242 67.4997 40.6578 66.1341 40.5611 64.7009C40.3705 61.8766 41.0852 59.0113 42.6235 56.5893C42.9281 56.1095 42.1828 55.6332 41.8781 56.1131L41.879 56.1131Z" fill="black"/>
<path d="M31.6244 73.7901C33.881 72.8564 36.2667 72.2794 38.6989 72.0543C39.2926 71.9994 39.0963 71.1122 38.5053 71.1672C35.9898 71.3993 33.5364 72.0186 31.2033 72.9843C30.6501 73.2132 31.0721 74.0191 31.6244 73.7901Z" fill="black"/>
<path d="M38.7107 67.3693C39.2708 67.2395 39.0947 66.2885 38.5327 66.4192C34.5915 67.3315 30.5225 67.3556 26.6146 66.4661C26.0639 66.3404 25.7672 67.2681 26.3224 67.394C30.3903 68.3194 34.6049 68.3198 38.7107 67.3693Z" fill="black"/>
<path d="M36.5343 63.1374C37.1213 63.0959 37.1827 62.2103 36.5882 62.2523C33.201 62.4924 29.8218 62.0228 26.6628 60.8633C26.1065 60.6595 25.8111 61.502 26.3648 61.7049C29.5919 62.8889 33.0744 63.3829 36.5343 63.1374Z" fill="black"/>
<path d="M38.5347 59.1401C39.1133 59.1363 39.168 58.2979 38.5858 58.3015C36.1703 58.317 33.8125 57.8289 31.6343 56.8708C31.1107 56.6408 30.8278 57.4407 31.3453 57.6678C33.5878 58.6542 36.0486 59.1556 38.5347 59.1401Z" fill="black"/>
<path d="M45.6228 60.9495C46.1711 60.9288 46.2165 60.2842 45.6621 60.3052C44.6609 60.3426 43.6676 60.2092 42.7586 59.8723C42.2626 59.6887 41.7885 60.2226 42.2888 60.4078C43.3384 60.7965 44.4577 60.9927 45.6228 60.9495Z" fill="black"/>
<path d="M43.6003 70.833L45.7238 70.6852C46.2972 70.645 46.1004 69.8918 45.5307 69.9314C44.8229 69.9807 44.115 70.03 43.4072 70.0793C42.8339 70.1194 43.0306 70.8726 43.6003 70.833Z" fill="black"/>
<path d="M45.7175 65.889C46.2841 65.8294 46.0871 65.1541 45.5214 65.2137C44.5255 65.3181 43.5485 65.1877 42.6316 64.8625C42.1076 64.6769 41.8357 65.3314 42.3544 65.5155C43.4189 65.8931 44.5681 66.0095 45.7175 65.889Z" fill="black"/>
<path d="M51.7762 62.784C52.2487 62.6688 52.1054 61.7835 51.6322 61.8996C51.2671 61.9889 50.9114 61.9721 50.5592 61.849C50.1035 61.69 49.8518 62.5559 50.3082 62.7149C50.788 62.8822 51.2781 62.9053 51.7762 62.784Z" fill="black"/>
<path d="M49.6777 67.8274C50.3489 67.7433 51.019 67.6592 51.6902 67.5745C52.3374 67.4932 52.1036 66.855 51.4533 66.9368C50.7821 67.0209 50.1119 67.105 49.4407 67.1898C48.7936 67.2711 49.0274 67.9092 49.6777 67.8274Z" fill="black"/>
<defs>
<linearGradient id="paint0_linear_2000_114995" x1="32.8555" y1="-4.17599e-07" x2="32.8555" y2="43" gradientUnits="userSpaceOnUse">
<stop stop-color="#FFE1E1"/>
<stop offset="1" stop-color="white"/>
</linearGradient>
<linearGradient id="paint1_linear_2000_114995" x1="7.83791" y1="35.1456" x2="9.25747" y2="31.1074" gradientUnits="userSpaceOnUse">
<stop stop-color="#FF0000" stop-opacity="0"/>
<stop offset="1" stop-color="#FF0000"/>
</linearGradient>
<linearGradient id="paint2_linear_2000_114995" x1="17.1281" y1="54.5825" x2="18.8962" y2="44.3978" gradientUnits="userSpaceOnUse">
<stop stop-color="#FF0000" stop-opacity="0"/>
<stop offset="1" stop-color="#FF0000"/>
</linearGradient>
<linearGradient id="paint3_linear_2000_114995" x1="7.63652" y1="54.1649" x2="7.77705" y2="52.2677" gradientUnits="userSpaceOnUse">
<stop stop-color="#FF0000" stop-opacity="0"/>
<stop offset="1" stop-color="#FF0000"/>
</linearGradient>
<linearGradient id="paint4_linear_2000_114995" x1="17.0428" y1="35.6982" x2="19.7341" y2="33.3374" gradientUnits="userSpaceOnUse">
<stop stop-color="#FF0000" stop-opacity="0"/>
<stop offset="1" stop-color="#FF0000"/>
</linearGradient>
</defs>
</svg>
