<svg width="56" height="88" viewBox="0 0 56 88" fill="none" xmlns="http://www.w3.org/2000/svg">
<g style="mix-blend-mode:multiply" opacity="0.4" filter="url(#filter0_f_2000_114863)">
<ellipse cx="21" cy="3.5" rx="21" ry="3.5" transform="matrix(0.999998 -0.00216825 -0.00228443 0.999997 9.64844 76.8672)" fill="#9A8B70"/>
</g>
<g style="mix-blend-mode:multiply" opacity="0.3" filter="url(#filter1_f_2000_114863)">
<ellipse cx="17" cy="2.5" rx="17" ry="2.5" transform="matrix(0.999998 -0.00216825 -0.00228443 0.999997 14.6484 76.8672)" fill="#9A8B70"/>
</g>
<path d="M53.4801 65.7884C52.0139 64.0924 49.8369 63.0307 47.582 62.9112C46.4101 64.1998 46.0709 66.4035 46.8961 69.886C49.5304 69.5437 52.0007 68.005 53.4793 65.7883L53.4801 65.7884Z" fill="#FF4000"/>
<path d="M53.4801 65.7884C52.0139 64.0924 49.8369 63.0307 47.582 62.9112C46.4101 64.1998 46.0709 66.4035 46.8961 69.886C49.5304 69.5437 52.0007 68.005 53.4793 65.7883L53.4801 65.7884Z" fill="white" fill-opacity="0.2"/>
<path d="M48.6661 62.471C48.5979 62.0531 48.1502 61.8 47.7363 61.6385C46.4304 61.1298 44.9784 60.9538 43.5722 61.1339C40.7063 62.6277 39.6036 65.8792 40.6349 71.2593C43.0007 72.499 46.1817 72.1996 48.2624 70.5417C48.6547 70.2293 49.025 69.847 49.1271 69.3736C49.2579 68.7684 48.9256 68.1766 48.6868 67.6042C48.0996 66.1985 48.0457 64.5973 48.5382 63.1523C48.6137 62.93 48.7027 62.7004 48.6661 62.471Z" fill="#FF4800"/>
<path d="M48.6661 62.471C48.5979 62.0531 48.1502 61.8 47.7363 61.6385C46.4304 61.1298 44.9784 60.9538 43.5722 61.1339C40.7063 62.6277 39.6036 65.8792 40.6349 71.2593C43.0007 72.499 46.1817 72.1996 48.2624 70.5417C48.6547 70.2293 49.025 69.847 49.1271 69.3736C49.2579 68.7684 48.9256 68.1766 48.6868 67.6042C48.0996 66.1985 48.0457 64.5973 48.5382 63.1523C48.6137 62.93 48.7027 62.7004 48.6661 62.471Z" fill="white" fill-opacity="0.2"/>
<path d="M47.8453 63.1892C47.5265 64.21 47.4293 65.2694 47.5668 66.3241C47.6335 66.8351 47.7637 67.3307 47.9415 67.8127C48.1443 68.3626 48.4468 68.8804 48.3569 69.4875C48.2735 70.0458 49.1537 70.0838 49.236 69.529C49.3896 68.4995 48.7004 67.5565 48.5028 66.5761C48.2944 65.5409 48.3629 64.4749 48.6795 63.4619C48.8482 62.9216 48.015 62.649 47.8462 63.1892L47.8453 63.1892Z" fill="black"/>
<path d="M7.23968 52.5695C7.18324 50.3331 6.61472 48.1509 5.54933 46.1303C5.27698 45.6139 4.39691 46.0208 4.67019 46.5381C5.65849 48.4109 6.20124 50.4479 6.25367 52.523C6.26752 53.0904 7.25518 53.1423 7.24067 52.5696L7.23968 52.5695Z" fill="black"/>
<path d="M7.23968 52.5695C7.18324 50.3331 6.61472 48.1509 5.54933 46.1303C5.27698 45.6139 4.39691 46.0208 4.67019 46.5381C5.65849 48.4109 6.20124 50.4479 6.25367 52.523C6.26752 53.0904 7.25518 53.1423 7.24067 52.5696L7.23968 52.5695Z" fill="url(#paint0_linear_2000_114863)" fill-opacity="0.6"/>
<path d="M6.34166 65.3361C8.16269 67.5651 8.04146 70.7022 9.09186 73.3496C10.2127 76.1747 12.779 78.4284 15.821 79.2588C18.6161 80.0212 21.6037 79.6212 24.5158 79.6976C27.088 79.7657 29.6345 80.211 32.2066 80.2661C35.3443 80.334 38.4656 79.8232 41.5635 79.3139C44.1372 78.891 46.7099 78.4681 49.2836 78.0443C49.6626 77.9823 50.1308 77.8343 50.1692 77.469C50.2076 77.1038 49.7802 76.8772 49.4226 76.7493C44.8808 75.1289 40.339 73.5094 35.7972 71.8891L22.4569 64.3359C20.4831 64.2707 18.8821 62.7671 17.9128 61.131C16.9436 59.494 16.3912 57.644 15.3219 56.0657C13.9576 54.0517 11.7093 52.5575 9.21275 52.2456C6.71619 51.9338 4.02219 52.8933 2.4997 54.826C0.976322 56.7587 0.801227 59.6226 2.25204 61.5799C3.34797 63.0589 5.17377 63.9093 6.34073 65.337L6.34166 65.3361Z" fill="#EECEB5"/>
<path d="M6.34166 65.3361C8.16269 67.5651 8.04146 70.7022 9.09186 73.3496C10.2127 76.1747 12.779 78.4284 15.821 79.2588C18.6161 80.0212 21.6037 79.6212 24.5158 79.6976C27.088 79.7657 29.6345 80.211 32.2066 80.2661C35.3443 80.334 38.4656 79.8232 41.5635 79.3139C44.1372 78.891 46.7099 78.4681 49.2836 78.0443C49.6626 77.9823 50.1308 77.8343 50.1692 77.469C50.2076 77.1038 49.7802 76.8772 49.4226 76.7493C44.8808 75.1289 40.339 73.5094 35.7972 71.8891L22.4569 64.3359C20.4831 64.2707 18.8821 62.7671 17.9128 61.131C16.9436 59.494 16.3912 57.644 15.3219 56.0657C13.9576 54.0517 11.7093 52.5575 9.21275 52.2456C6.71619 51.9338 4.02219 52.8933 2.4997 54.826C0.976322 56.7587 0.801227 59.6226 2.25204 61.5799C3.34797 63.0589 5.17377 63.9093 6.34073 65.337L6.34166 65.3361Z" fill="url(#paint1_linear_2000_114863)" fill-opacity="0.4"/>
<path d="M8.69458 60.5514C8.59254 59.6521 7.87707 58.4187 6.21259 58.4231C4.48275 58.4277 3.76873 59.7724 3.70953 60.6764C3.69578 60.9175 3.80843 61.1453 4.00411 61.2869C4.19979 61.4284 4.46113 61.4621 4.68795 61.3754C4.6923 61.3754 5.18519 61.1934 6.11329 61.1909C7.0806 61.1884 7.76414 61.3846 7.77284 61.3889C7.8425 61.4102 7.91219 61.4186 7.98191 61.4184L7.98626 61.4184C8.38278 61.4174 8.70611 61.098 8.70722 60.7064C8.71173 60.6504 8.70316 60.5988 8.69458 60.5514Z" fill="#291000"/>
<path d="M8.69458 60.5514C8.59254 59.6521 7.87707 58.4187 6.21259 58.4231C4.48275 58.4277 3.76873 59.7724 3.70953 60.6764C3.69578 60.9175 3.80843 61.1453 4.00411 61.2869C4.19979 61.4284 4.46113 61.4621 4.68795 61.3754C4.6923 61.3754 5.18519 61.1934 6.11329 61.1909C7.0806 61.1884 7.76414 61.3846 7.77284 61.3889C7.8425 61.4102 7.91219 61.4186 7.98191 61.4184L7.98626 61.4184C8.38278 61.4174 8.70611 61.098 8.70722 60.7064C8.71173 60.6504 8.70316 60.5988 8.69458 60.5514Z" fill="url(#paint2_linear_2000_114863)" fill-opacity="0.4"/>
<path d="M44.4328 60.1569C44.2068 58.9661 40.2429 56.3032 35.7948 57.2836C32.6757 60.5924 32.0229 67.1906 35.7019 73.5978C38.8211 75.1421 43.7036 72.6168 43.5157 71.0018C43.4398 70.3497 41.1064 66.4128 43.9379 61.6237C44.2097 61.1646 44.5312 60.6706 44.4328 60.156L44.4328 60.1569Z" fill="#FF5900"/>
<path d="M44.4328 60.1569C44.2068 58.9661 40.2429 56.3032 35.7948 57.2836C32.6757 60.5924 32.0229 67.1906 35.7019 73.5978C38.8211 75.1421 43.7036 72.6168 43.5157 71.0018C43.4398 70.3497 41.1064 66.4128 43.9379 61.6237C44.2097 61.1646 44.5312 60.6706 44.4328 60.156L44.4328 60.1569Z" fill="white" fill-opacity="0.2"/>
<path d="M42.8034 63.3551C43.0554 62.7299 43.4438 62.1525 43.6037 61.4892C43.7302 60.9636 43.0129 60.7024 42.8856 61.2305C42.7267 61.8888 42.3363 62.4745 42.0852 63.0964C41.8486 63.6809 41.6608 64.2898 41.5271 64.9104C41.3038 65.9511 41.2319 67.0065 41.3052 68.0645C41.3603 68.8606 41.5007 69.6421 41.7056 70.4021C41.81 70.7882 41.9896 71.1888 42.0343 71.5923C42.0938 72.1283 42.8393 71.9379 42.7798 71.4027C42.7375 71.0222 42.5694 70.645 42.4697 70.2811C42.2742 69.5671 42.1315 68.8345 42.0666 68.0887C41.979 67.0765 42.0482 66.0285 42.2748 65.0337C42.4057 64.4585 42.5839 63.8965 42.8027 63.3543L42.8034 63.3551Z" fill="black"/>
<path d="M16.9962 64.5099C16.2371 76.8889 32.402 78.8363 35.2235 73.9194C35.9463 72.6591 35.1783 71.0984 34.7091 69.7383C33.3343 65.7487 33.8543 61.0949 36.0803 57.4658C30.0713 50.709 17.5098 56.1157 16.9953 64.5099L16.9962 64.5099Z" fill="#FF7024"/>
<path d="M16.9962 64.5099C16.2371 76.8889 32.402 78.8363 35.2235 73.9194C35.9463 72.6591 35.1783 71.0984 34.7091 69.7383C33.3343 65.7487 33.8543 61.0949 36.0803 57.4658C30.0713 50.709 17.5098 56.1157 16.9953 64.5099L16.9962 64.5099Z" fill="white" fill-opacity="0.2"/>
<path d="M36.4278 57.1678C34.9133 59.5525 34.1287 62.3446 34.1912 65.134C34.2223 66.5257 34.4465 67.9125 34.8956 69.2313C35.2999 70.4171 36.2965 72.0134 35.6012 73.2641C35.3272 73.7567 36.0715 74.2355 36.3466 73.7404C37.053 72.4692 36.5751 71.1367 36.0903 69.8887C35.573 68.5543 35.2066 67.1887 35.1099 65.7556C34.9194 62.9313 35.634 60.066 37.1723 57.644C37.477 57.1642 36.7316 56.6879 36.4269 57.1677L36.4278 57.1678Z" fill="black"/>
<path d="M10.7956 53.5671C11.3817 51.1783 11.5925 48.6866 11.4309 46.2243C11.394 45.6621 10.7746 45.8704 10.8116 46.4309C10.9629 48.7313 10.7523 51.074 10.2049 53.3032C10.0709 53.8502 10.6616 54.1141 10.7956 53.5671Z" fill="black"/>
<path d="M10.7956 53.5671C11.3817 51.1783 11.5925 48.6866 11.4309 46.2243C11.394 45.6621 10.7746 45.8704 10.8116 46.4309C10.9629 48.7313 10.7523 51.074 10.2049 53.3032C10.0709 53.8502 10.6616 54.1141 10.7956 53.5671Z" fill="url(#paint3_linear_2000_114863)" fill-opacity="0.6"/>
<path d="M26.1732 74.8448C28.4298 73.9111 30.8155 73.3341 33.2477 73.109C33.8414 73.0541 33.6451 72.1669 33.0541 72.2219C30.5387 72.454 28.0852 73.0733 25.7521 74.039C25.1989 74.2679 25.6209 75.0738 26.1732 74.8448Z" fill="black"/>
<path d="M33.2595 68.424C33.8196 68.2942 33.6435 67.3432 33.0816 67.4739C29.1403 68.3862 25.0714 68.4103 21.1635 67.5208C20.6127 67.3951 20.3161 68.3228 20.8712 68.4487C24.9391 69.3741 29.1537 69.3744 33.2595 68.424Z" fill="black"/>
<path d="M31.0831 64.1921C31.6701 64.1506 31.7315 63.265 31.137 63.307C27.7498 63.5471 24.3706 63.0775 21.2116 61.918C20.6553 61.7142 20.36 62.5567 20.9136 62.7595C24.1407 63.9436 27.6232 64.4376 31.0831 64.1921Z" fill="black"/>
<path d="M33.0835 60.1948C33.6621 60.191 33.7168 59.3526 33.1347 59.3562C30.7191 59.3717 28.3613 58.8836 26.1832 57.9254C25.6595 57.6955 25.3767 58.4954 25.8942 58.7225C28.1366 59.7089 30.5975 60.2103 33.0835 60.1948Z" fill="black"/>
<path d="M40.1716 62.0042C40.7199 61.9835 40.7653 61.3389 40.2109 61.3599C39.2098 61.3973 38.2165 61.2639 37.3074 60.927C36.8114 60.7434 36.3374 61.2773 36.8376 61.4625C37.8872 61.8512 39.0065 62.0474 40.1716 62.0042Z" fill="black"/>
<path d="M38.1491 71.8877L40.2727 71.7398C40.846 71.6997 40.6493 70.9465 40.0796 70.9861C39.3717 71.0354 38.6639 71.0847 37.956 71.1339C37.3827 71.1741 37.5794 71.9273 38.1491 71.8877Z" fill="black"/>
<path d="M40.2663 66.9437C40.8329 66.884 40.6359 66.2088 40.0702 66.2684C39.0744 66.3727 38.0973 66.2424 37.1804 65.9172C36.6564 65.7315 36.3845 66.3861 36.9032 66.5701C37.9677 66.9478 39.1169 67.0642 40.2663 66.9437Z" fill="black"/>
<path d="M46.3251 63.8387C46.7975 63.7235 46.6543 62.8382 46.181 62.9542C45.8159 63.0436 45.4602 63.0268 45.108 62.9037C44.6523 62.7447 44.4006 63.6106 44.8571 63.7696C45.3368 63.9369 45.8269 63.96 46.3251 63.8387Z" fill="black"/>
<path d="M44.2265 68.8821C44.8977 68.798 45.5679 68.7139 46.2391 68.6291C46.8862 68.5478 46.6524 67.9097 46.0021 67.9915C45.3309 68.0756 44.6608 68.1597 43.9896 68.2444C43.3424 68.3258 43.5763 68.9639 44.2265 68.8821Z" fill="black"/>
<path d="M5.05655 55.5442L5.05415 56.592C5.05255 57.2952 4.51356 57.8631 3.84642 57.8646C3.17928 57.866 2.64288 57.3004 2.64449 56.5972L2.64844 54.8672L5.05655 55.5442ZM9.64842 54.852L9.64447 56.582C9.64286 57.2852 9.10387 57.8532 8.43673 57.8546C7.76959 57.8561 7.2332 57.2905 7.2348 56.5873L7.2372 55.5394L9.64842 54.852Z" fill="#291000"/>
<path d="M4.21807 55.66C4.21718 56.0494 3.99261 56.3655 3.71646 56.3661C3.44032 56.3667 3.21719 56.0515 3.21808 55.6622C3.21897 55.2728 3.44258 55.3805 3.71872 55.3799C3.99486 55.3793 4.21896 55.2706 4.21807 55.66Z" fill="white"/>
<path d="M8.91729 55.6678C8.9164 56.0572 8.69182 56.3733 8.41568 56.3739C8.13954 56.3745 7.91641 56.0593 7.91729 55.67C7.91818 55.2806 8.14179 55.3883 8.41794 55.3877C8.69408 55.3871 8.91818 55.2784 8.91729 55.6678Z" fill="white"/>
<path d="M5.02311 56.0016C4.98475 56.0017 4.9512 55.9959 4.91287 55.9842L2.44568 55.1016C2.23969 55.0256 2.12043 54.7612 2.18333 54.5082C2.24624 54.2552 2.46233 54.1077 2.66833 54.1837L5.13552 55.0663C5.34151 55.1423 5.46077 55.4067 5.39786 55.6597C5.34945 55.8656 5.19092 56.0012 5.02311 56.0016ZM7.17588 55.9969C7.01287 55.9973 6.85973 55.8682 6.80266 55.6684C6.73611 55.4157 6.847 55.145 7.05336 55.0622L8.35388 54.5389L9.65441 54.0157C9.86077 53.9329 10.081 54.0677 10.1476 54.3204C10.2141 54.5731 10.1032 54.8439 9.89685 54.9266L7.2958 55.9732C7.2574 55.9909 7.21903 55.9968 7.17588 55.9969Z" fill="#6B3A2D"/>
<mask id="path-27-inside-1_2000_114863" fill="white">
<path d="M43.3906 -7.71066e-07C45.3839 0.000205326 46.9998 1.61606 47 3.60937L47 39.0859C46.9999 41.0793 45.384 42.6951 43.3906 42.6953L29.1104 42.6953C26.8415 47.7111 23.9338 50.3003 18 53C20.2499 49.1197 21.1239 46.4509 19.4727 42.6953L3.60938 42.6953C1.616 42.6951 0.000103711 41.0793 6.09112e-07 39.0859L5.62479e-08 3.60938C0.0002059 1.61606 1.61606 0.000205718 3.60938 -6.41392e-08L43.3906 -7.71066e-07Z"/>
</mask>
<path d="M43.3906 -7.71066e-07C45.3839 0.000205326 46.9998 1.61606 47 3.60937L47 39.0859C46.9999 41.0793 45.384 42.6951 43.3906 42.6953L29.1104 42.6953C26.8415 47.7111 23.9338 50.3003 18 53C20.2499 49.1197 21.1239 46.4509 19.4727 42.6953L3.60938 42.6953C1.616 42.6951 0.000103711 41.0793 6.09112e-07 39.0859L5.62479e-08 3.60938C0.0002059 1.61606 1.61606 0.000205718 3.60938 -6.41392e-08L43.3906 -7.71066e-07Z" fill="url(#paint4_linear_2000_114863)"/>
<path d="M43.3906 -7.71066e-07L43.3907 -1L43.3906 -1L43.3906 -7.71066e-07ZM47 3.60937L48 3.60937L48 3.60927L47 3.60937ZM47 39.0859L48 39.086L48 39.0859L47 39.0859ZM43.3906 42.6953L43.3906 43.6953L43.3907 43.6953L43.3906 42.6953ZM29.1104 42.6953L29.1104 41.6953L28.4651 41.6953L28.1992 42.2832L29.1104 42.6953ZM18 53L17.1349 52.4984L15.5645 55.2067L18.4141 53.9102L18 53ZM19.4727 42.6953L20.3881 42.2928L20.1254 41.6953L19.4727 41.6953L19.4727 42.6953ZM3.60938 42.6953L3.60927 43.6953L3.60938 43.6953L3.60938 42.6953ZM6.09112e-07 39.0859L-0.999999 39.0859L-0.999999 39.086L6.09112e-07 39.0859ZM5.62479e-08 3.60938L-1 3.60927L-1 3.60938L5.62479e-08 3.60938ZM3.60938 -6.41392e-08L3.60937 -1L3.60927 -1L3.60938 -6.41392e-08ZM43.3906 -7.71066e-07L43.3905 0.999999C44.8316 1.00015 45.9999 2.16837 46 3.60948L47 3.60937L48 3.60927C47.9997 1.06376 45.9362 -0.999738 43.3907 -1L43.3906 -7.71066e-07ZM47 3.60937L46 3.60937L46 39.0859L47 39.0859L48 39.0859L48 3.60937L47 3.60937ZM47 39.0859L46 39.0859C45.9999 40.527 44.8317 41.6952 43.3905 41.6953L43.3906 42.6953L43.3907 43.6953C45.9363 43.695 47.9999 41.6317 48 39.086L47 39.0859ZM43.3906 42.6953L43.3906 41.6953L29.1104 41.6953L29.1104 42.6953L29.1104 43.6953L43.3906 43.6953L43.3906 42.6953ZM29.1104 42.6953L28.1992 42.2832C27.1077 44.6962 25.8856 46.4781 24.2526 47.9802C22.6092 49.4917 20.5044 50.7619 17.5859 52.0898L18 53L18.4141 53.9102C21.4294 52.5383 23.7453 51.1641 25.6065 49.4522C27.478 47.7308 28.8441 45.7102 30.0215 43.1074L29.1104 42.6953ZM18 53L18.8651 53.5016C20.0015 51.5418 20.8576 49.7797 21.1833 47.9789C21.5166 46.1363 21.283 44.3284 20.3881 42.2928L19.4727 42.6953L18.5572 43.0978C19.3135 44.8179 19.4686 46.2221 19.2152 47.6229C18.9543 49.0655 18.2485 50.5779 17.1349 52.4984L18 53ZM19.4727 42.6953L19.4727 41.6953L3.60938 41.6953L3.60938 42.6953L3.60938 43.6953L19.4727 43.6953L19.4727 42.6953ZM3.60938 42.6953L3.60948 41.6953C2.16826 41.6952 1.00008 40.527 1 39.0859L6.09112e-07 39.0859L-0.999999 39.086C-0.999868 41.6317 1.06375 43.695 3.60927 43.6953L3.60938 42.6953ZM6.09112e-07 39.0859L1 39.0859L1 3.60937L5.62479e-08 3.60938L-1 3.60938L-0.999999 39.0859L6.09112e-07 39.0859ZM5.62479e-08 3.60938L1 3.60948C1.00015 2.16837 2.16837 1.00015 3.60948 1L3.60938 -6.41392e-08L3.60927 -1C1.06376 -0.999737 -0.999737 1.06376 -1 3.60927L5.62479e-08 3.60938ZM3.60938 -6.41392e-08L3.60938 1L43.3906 0.999999L43.3906 -7.71066e-07L43.3906 -1L3.60937 -1L3.60938 -6.41392e-08Z" fill="white" mask="url(#path-27-inside-1_2000_114863)"/>
<g clip-path="url(#clip0_2000_114863)">
<path d="M23.9649 5C18.9763 5 14.9297 9.02991 14.9297 13.998C14.9297 14.1122 14.9338 14.2264 14.9379 14.3406C14.4096 14.4099 14 14.8504 14 15.397C14 15.9884 14.4792 16.4657 15.0731 16.4657L15.2738 16.4657C16.3509 20.2386 19.8323 23 23.9649 23C28.9575 23 33 18.9701 33 14.002C33 9.02991 28.9534 5 23.9649 5Z" fill="#FF473E"/>
<path d="M19.9821 12.4968L19.9821 14.0752C19.9821 14.5873 19.5398 15 18.9911 15C18.4423 15 18 14.5873 18 14.0752L18 12L19.9821 12.4968ZM29 12L29 14.0752C29 14.5873 28.5577 15 28.0089 15C27.4602 15 27.0179 14.5873 27.0179 14.0752L27.0179 12.4968L29 12Z" fill="#2B3B47"/>
<path d="M19.4274 12C19.3949 12 19.3664 11.9971 19.3338 11.9912L17.2379 11.5472C17.0629 11.509 16.9611 11.3766 17.014 11.2502C17.0669 11.1238 17.2501 11.0503 17.4251 11.0885L19.521 11.5325C19.696 11.5707 19.7978 11.703 19.7449 11.8295C19.7042 11.9324 19.5699 12 19.4274 12ZM26.4641 12C26.3257 12 26.1955 11.9353 26.1467 11.8353C26.0897 11.7089 26.1833 11.5736 26.3583 11.5325L28.5641 11.012C28.7391 10.9709 28.9264 11.0385 28.9833 11.1649C29.0403 11.2914 28.9467 11.4266 28.7717 11.4678L26.5659 11.9882C26.5333 11.9971 26.5007 12 26.4641 12Z" fill="#D32A2A"/>
<path d="M25.9858 18.1349C25.8812 17.2353 25.1622 16 23.4978 16C21.7679 16 21.0577 17.3429 21.001 18.2468C20.9879 18.4878 21.1012 18.7159 21.2973 18.858C21.4934 19 21.7548 19.0344 21.9814 18.9483C21.9858 18.9483 22.4781 18.7676 23.4062 18.7676C24.3736 18.7676 25.0577 18.9656 25.0664 18.9699C25.1361 18.9914 25.2058 19 25.2755 19L25.2799 19C25.6764 19 25.9988 18.6815 25.9988 18.2898C26.0032 18.2339 25.9945 18.1822 25.9858 18.1349Z" fill="#2B3B47"/>
<path d="M33.0846 14.516C33.0886 14.3831 33.0967 14.2503 33.0967 14.1175C33.0967 11.747 32.161 9.59377 30.6339 8C31.4967 9.38852 31.9949 11.0266 31.9949 12.7813C31.9949 17.8202 27.8835 21.9013 22.8122 21.9013C21.0461 21.9013 19.4015 21.4062 18 20.549C19.6041 22.0663 21.7711 23 24.157 23C28.2197 23 31.6506 20.3035 32.7322 16.6128L32.9387 16.6128C33.5261 16.6128 34 16.1419 34 15.5584C34 15.0231 33.599 14.5884 33.0846 14.516Z" fill="#D32A2A"/>
</g>
<path d="M7.67156 28.86L14.1016 28.86L14.1016 30.02L7.67156 30.02L7.67156 28.86ZM7.67156 26.85L9.14156 26.85L9.14156 29.48L7.67156 29.48L7.67156 26.85ZM6.59156 30.59L15.0316 30.59L15.0316 31.75L6.59156 31.75L6.59156 30.59ZM10.0216 32.74L11.2716 32.74L11.2716 32.94C11.2716 33.3067 11.1949 33.6567 11.0416 33.99C10.8949 34.3167 10.6716 34.61 10.3716 34.87C10.0782 35.13 9.7049 35.3467 9.25156 35.52C8.79823 35.6933 8.26823 35.8133 7.66156 35.88L7.14156 34.77C7.6749 34.7167 8.1249 34.63 8.49156 34.51C8.85823 34.3833 9.15156 34.2333 9.37156 34.06C9.59823 33.8867 9.76156 33.7033 9.86156 33.51C9.96823 33.3167 10.0216 33.1267 10.0216 32.94L10.0216 32.74ZM10.3116 32.74L11.5616 32.74L11.5616 32.94C11.5616 33.1267 11.6116 33.3167 11.7116 33.51C11.8182 33.7033 11.9816 33.8867 12.2016 34.06C12.4282 34.2333 12.7249 34.3833 13.0916 34.51C13.4582 34.63 13.9082 34.7167 14.4416 34.77L13.9116 35.88C13.3049 35.8133 12.7749 35.6933 12.3216 35.52C11.8682 35.3467 11.4916 35.13 11.1916 34.87C10.8982 34.61 10.6782 34.3167 10.5316 33.99C10.3849 33.6567 10.3116 33.3067 10.3116 32.94L10.3116 32.74ZM7.51156 32.33L14.0716 32.33L14.0716 33.48L7.51156 33.48L7.51156 32.33ZM17.5408 32.14L18.6508 32.14L18.6508 32.44C18.6508 32.9333 18.5808 33.4033 18.4408 33.85C18.3008 34.2967 18.0774 34.6867 17.7708 35.02C17.4708 35.3533 17.0708 35.61 16.5708 35.79L15.8508 34.73C16.2641 34.5833 16.5941 34.3933 16.8408 34.16C17.0874 33.92 17.2641 33.6533 17.3708 33.36C17.4841 33.06 17.5408 32.7533 17.5408 32.44L17.5408 32.14ZM17.9208 32.14L18.9708 32.14L18.9708 32.44C18.9708 32.7467 19.0208 33.05 19.1208 33.35C19.2208 33.65 19.3874 33.93 19.6208 34.19C19.8541 34.4433 20.1641 34.6533 20.5508 34.82L19.9508 35.89C19.4441 35.6967 19.0408 35.42 18.7408 35.06C18.4474 34.7 18.2374 34.2933 18.1108 33.84C17.9841 33.3867 17.9208 32.92 17.9208 32.44L17.9208 32.14ZM20.9208 32.14L21.9708 32.14L21.9708 32.44C21.9708 32.8933 21.9074 33.35 21.7808 33.81C21.6541 34.2633 21.4408 34.6733 21.1408 35.04C20.8474 35.4067 20.4508 35.69 19.9508 35.89L19.3508 34.82C19.7374 34.64 20.0441 34.42 20.2708 34.16C20.5041 33.8933 20.6708 33.61 20.7708 33.31C20.8708 33.01 20.9208 32.72 20.9208 32.44L20.9208 32.14ZM21.2808 32.14L22.3808 32.14L22.3808 32.44C22.3808 32.7733 22.4341 33.09 22.5408 33.39C22.6474 33.69 22.8241 33.9567 23.0708 34.19C23.3241 34.4167 23.6608 34.5967 24.0808 34.73L23.3408 35.79C22.8408 35.6167 22.4374 35.3667 22.1308 35.04C21.8308 34.7133 21.6141 34.3267 21.4808 33.88C21.3474 33.4333 21.2808 32.9533 21.2808 32.44L21.2808 32.14ZM19.9108 28.7L22.0408 28.7L22.0408 29.89L19.9108 29.89L19.9108 28.7ZM17.9608 27.05C18.4274 27.05 18.8474 27.1467 19.2208 27.34C19.6008 27.5333 19.8974 27.8 20.1108 28.14C20.3308 28.48 20.4408 28.8667 20.4408 29.3C20.4408 29.74 20.3308 30.13 20.1108 30.47C19.8974 30.8033 19.6008 31.0667 19.2208 31.26C18.8474 31.4533 18.4274 31.55 17.9608 31.55C17.4941 31.55 17.0741 31.4533 16.7008 31.26C16.3274 31.0667 16.0308 30.8033 15.8108 30.47C15.5974 30.13 15.4908 29.74 15.4908 29.3C15.4908 28.8667 15.5974 28.48 15.8108 28.14C16.0308 27.8 16.3274 27.5333 16.7008 27.34C17.0741 27.1467 17.4941 27.05 17.9608 27.05ZM17.9608 28.27C17.7541 28.27 17.5708 28.31 17.4108 28.39C17.2508 28.4633 17.1241 28.58 17.0308 28.74C16.9374 28.8933 16.8908 29.08 16.8908 29.3C16.8908 29.52 16.9374 29.71 17.0308 29.87C17.1241 30.0233 17.2508 30.14 17.4108 30.22C17.5708 30.3 17.7541 30.34 17.9608 30.34C18.1674 30.34 18.3508 30.3 18.5108 30.22C18.6708 30.14 18.7974 30.0233 18.8908 29.87C18.9841 29.71 19.0308 29.52 19.0308 29.3C19.0308 29.08 18.9841 28.8933 18.8908 28.74C18.7974 28.58 18.6708 28.4633 18.5108 28.39C18.3508 28.31 18.1674 28.27 17.9608 28.27ZM21.7408 26.6L23.2208 26.6L23.2208 31.78L21.7408 31.78L21.7408 26.6ZM26.75 27.22C27.2167 27.22 27.6333 27.3567 28 27.63C28.3667 27.9033 28.6533 28.29 28.86 28.79C29.0733 29.29 29.18 29.88 29.18 30.56C29.18 31.2533 29.0733 31.8533 28.86 32.36C28.6533 32.86 28.3667 33.2467 28 33.52C27.6333 33.7933 27.2167 33.93 26.75 33.93C26.2833 33.93 25.8667 33.7933 25.5 33.52C25.1333 33.2467 24.8433 32.86 24.63 32.36C24.4233 31.8533 24.32 31.2533 24.32 30.56C24.32 29.88 24.4233 29.29 24.63 28.79C24.8433 28.29 25.1333 27.9033 25.5 27.63C25.8667 27.3567 26.2833 27.22 26.75 27.22ZM26.75 28.56C26.5433 28.56 26.3633 28.6333 26.21 28.78C26.0567 28.9267 25.9367 29.15 25.85 29.45C25.77 29.7433 25.73 30.1133 25.73 30.56C25.73 31.0133 25.77 31.39 25.85 31.69C25.9367 31.99 26.0567 32.2167 26.21 32.37C26.3633 32.5167 26.5433 32.59 26.75 32.59C26.9633 32.59 27.1433 32.5167 27.29 32.37C27.4433 32.2167 27.5633 31.99 27.65 31.69C27.7367 31.39 27.78 31.0133 27.78 30.56C27.78 30.1133 27.7367 29.7433 27.65 29.45C27.5633 29.15 27.4433 28.9267 27.29 28.78C27.1433 28.6333 26.9633 28.56 26.75 28.56ZM30.58 26.58L32.04 26.58L32.04 35.94L30.58 35.94L30.58 26.58ZM28.76 29.89L31.19 29.89L31.19 31.07L28.76 31.07L28.76 29.89ZM34.7792 31.31L36.2492 31.31L36.2492 33.88L34.7792 33.88L34.7792 31.31ZM38.1492 31.31L39.6192 31.31L39.6192 33.88L38.1492 33.88L38.1492 31.31ZM32.9892 33.68L41.4192 33.68L41.4192 34.87L32.9892 34.87L32.9892 33.68ZM37.1992 27.01C37.8726 27.01 38.4726 27.1167 38.9992 27.33C39.5259 27.5367 39.9426 27.83 40.2492 28.21C40.5559 28.5833 40.7092 29.03 40.7092 29.55C40.7092 30.0567 40.5559 30.5 40.2492 30.88C39.9426 31.26 39.5259 31.5533 38.9992 31.76C38.4726 31.9667 37.8726 32.07 37.1992 32.07C36.5259 32.07 35.9226 31.9667 35.3892 31.76C34.8626 31.5533 34.4459 31.26 34.1392 30.88C33.8392 30.5 33.6892 30.0567 33.6892 29.55C33.6892 29.03 33.8392 28.5833 34.1392 28.21C34.4459 27.83 34.8626 27.5367 35.3892 27.33C35.9226 27.1167 36.5259 27.01 37.1992 27.01ZM37.1992 28.16C36.7792 28.16 36.4159 28.2133 36.1092 28.32C35.8026 28.4267 35.5626 28.5833 35.3892 28.79C35.2226 28.9967 35.1392 29.25 35.1392 29.55C35.1392 29.8433 35.2226 30.0933 35.3892 30.3C35.5626 30.5067 35.8026 30.6667 36.1092 30.78C36.4159 30.8867 36.7792 30.94 37.1992 30.94C37.6126 30.94 37.9726 30.8867 38.2792 30.78C38.5859 30.6667 38.8226 30.5067 38.9892 30.3C39.1626 30.0933 39.2492 29.8433 39.2492 29.55C39.2492 29.25 39.1626 28.9967 38.9892 28.79C38.8226 28.5833 38.5859 28.4267 38.2792 28.32C37.9726 28.2133 37.6126 28.16 37.1992 28.16Z" fill="#E20B00"/>
<defs>
<filter id="filter0_f_2000_114863" x="5.64062" y="72.8203" width="50" height="15" filterUnits="userSpaceOnUse" color-interpolation-filters="sRGB">
<feFlood flood-opacity="0" result="BackgroundImageFix"/>
<feBlend mode="normal" in="SourceGraphic" in2="BackgroundImageFix" result="shape"/>
<feGaussianBlur stdDeviation="2" result="effect1_foregroundBlur_2000_114863"/>
</filter>
<filter id="filter1_f_2000_114863" x="13.6426" y="75.8281" width="36" height="7.00391" filterUnits="userSpaceOnUse" color-interpolation-filters="sRGB">
<feFlood flood-opacity="0" result="BackgroundImageFix"/>
<feBlend mode="normal" in="SourceGraphic" in2="BackgroundImageFix" result="shape"/>
<feGaussianBlur stdDeviation="0.5" result="effect1_foregroundBlur_2000_114863"/>
</filter>
<linearGradient id="paint0_linear_2000_114863" x1="5.96293" y1="48.3605" x2="6.73454" y2="46.1655" gradientUnits="userSpaceOnUse">
<stop stop-color="#FF0000" stop-opacity="0"/>
<stop offset="1" stop-color="#FF0000"/>
</linearGradient>
<linearGradient id="paint1_linear_2000_114863" x1="25.4832" y1="62.3668" x2="26.5615" y2="53.1135" gradientUnits="userSpaceOnUse">
<stop stop-color="#FF0000" stop-opacity="0"/>
<stop offset="1" stop-color="#FF0000"/>
</linearGradient>
<linearGradient id="paint2_linear_2000_114863" x1="6.15544" y1="59.4642" x2="6.23183" y2="58.4329" gradientUnits="userSpaceOnUse">
<stop stop-color="#FF0000" stop-opacity="0"/>
<stop offset="1" stop-color="#FF0000"/>
</linearGradient>
<linearGradient id="paint3_linear_2000_114863" x1="10.9659" y1="48.6609" x2="12.4288" y2="47.3776" gradientUnits="userSpaceOnUse">
<stop stop-color="#FF0000" stop-opacity="0"/>
<stop offset="1" stop-color="#FF0000"/>
</linearGradient>
<linearGradient id="paint4_linear_2000_114863" x1="23.5" y1="-4.17599e-07" x2="23.5" y2="53" gradientUnits="userSpaceOnUse">
<stop stop-color="#FFE1E1"/>
<stop offset="1" stop-color="white"/>
</linearGradient>
<clipPath id="clip0_2000_114863">
<rect width="21" height="21" fill="white" transform="translate(13 4)"/>
</clipPath>
</defs>
</svg>
