<svg width="60" height="88" viewBox="0 0 60 88" fill="none" xmlns="http://www.w3.org/2000/svg">
<g style="mix-blend-mode:multiply" opacity="0.4" filter="url(#filter0_f_2000_114958)">
<ellipse cx="34.5078" cy="80.4609" rx="21" ry="3.5" fill="#9A8B70"/>
</g>
<g style="mix-blend-mode:multiply" opacity="0.3" filter="url(#filter1_f_2000_114958)">
<ellipse cx="35.5078" cy="79.4609" rx="17" ry="2.5" fill="#9A8B70"/>
</g>
<path d="M57.8725 65.1246C56.3044 63.3648 53.982 62.2586 51.5804 62.127C50.3375 63.456 49.9852 65.7347 50.8778 69.3406C53.6816 68.9958 56.306 67.4127 57.8716 65.1246L57.8725 65.1246Z" fill="#FF4000"/>
<path d="M57.8725 65.1246C56.3044 63.3648 53.982 62.2586 51.5804 62.127C50.3375 63.456 49.9852 65.7347 50.8778 69.3406C53.6816 68.9958 56.306 67.4127 57.8716 65.1246L57.8725 65.1246Z" fill="white" fill-opacity="0.2"/>
<path d="M52.2229 62.035C52.1574 61.6219 51.7279 61.3714 51.3309 61.2115C50.0783 60.7079 48.6858 60.5332 47.3372 60.7105C44.5891 62.1858 43.5322 65.3996 44.5225 70.719C46.7917 71.9458 49.8423 71.6514 51.8375 70.0135C52.2137 69.7049 52.5687 69.3272 52.6665 68.8592C52.7918 68.2609 52.473 67.6757 52.2439 67.1098C51.6804 65.7197 51.6283 64.1367 52.1003 62.7085C52.1727 62.4887 52.258 62.2618 52.2229 62.035Z" fill="#FF4800"/>
<path d="M52.2229 62.035C52.1574 61.6219 51.7279 61.3714 51.3309 61.2115C50.0783 60.7079 48.6858 60.5332 47.3372 60.7105C44.5891 62.1858 43.5322 65.3996 44.5225 70.719C46.7917 71.9458 49.8423 71.6514 51.8375 70.0135C52.2137 69.7049 52.5687 69.3272 52.6665 68.8592C52.7918 68.2609 52.473 67.6757 52.2439 67.1098C51.6804 65.7197 51.6283 64.1367 52.1003 62.7085C52.1727 62.4887 52.258 62.2618 52.2229 62.035Z" fill="white" fill-opacity="0.2"/>
<path d="M51.6592 62.5633C51.3375 63.5784 51.242 64.6325 51.3863 65.6827C51.4562 66.1915 51.5909 66.6852 51.7742 67.1656C51.9831 67.7136 52.2938 68.2299 52.2042 68.8339C52.1211 69.3893 53.0198 69.43 53.1018 68.878C53.2549 67.8538 52.5479 66.913 52.3426 65.9366C52.1261 64.9055 52.1922 63.8447 52.5118 62.8374C52.6821 62.3003 51.8304 62.0262 51.6601 62.5633L51.6592 62.5633Z" fill="black"/>
<path d="M10.5588 52.3439C10.5128 50.1502 10.001 48.0105 9.03709 46.0301C8.79068 45.524 7.98951 45.9245 8.23677 46.4315C9.13095 48.2671 9.61963 50.2643 9.66239 52.2998C9.67365 52.8563 10.5716 52.9057 10.5597 52.3439L10.5588 52.3439Z" fill="black"/>
<path d="M9.93845 64.7727C11.7747 67.0154 11.6595 70.1662 12.7216 72.8274C13.8549 75.6674 16.4407 77.9363 19.5018 78.7767C22.3145 79.5482 25.3184 79.1527 28.2472 79.2354C30.8343 79.3092 33.3962 79.7617 35.9832 79.8223C39.1389 79.897 42.2769 79.3904 45.3915 78.8852C47.9789 78.4658 50.5654 78.0463 53.1529 77.6259C53.5339 77.5645 54.0045 77.4167 54.0424 77.05C54.0802 76.6832 53.6498 76.4547 53.29 76.3255C48.7187 74.6885 44.1475 73.0525 39.5762 71.4156L26.1436 63.8013C24.1583 63.7318 22.545 62.2182 21.5667 60.5728C20.5884 58.9266 20.0288 57.0673 18.95 55.4797C17.5736 53.454 15.3093 51.9486 12.7978 51.6301C10.2863 51.3117 7.57897 52.2699 6.05195 54.2081C4.52403 56.1462 4.35409 59.0225 5.8174 60.9914C6.92276 62.4792 8.76082 63.3372 9.93751 64.7736L9.93845 64.7727Z" fill="#EECEB5"/>
<path d="M9.93845 64.7727C11.7747 67.0154 11.6595 70.1662 12.7216 72.8274C13.8549 75.6674 16.4407 77.9363 19.5018 78.7767C22.3145 79.5482 25.3184 79.1527 28.2472 79.2354C30.8343 79.3092 33.3962 79.7617 35.9832 79.8223C39.1389 79.897 42.2769 79.3904 45.3915 78.8852C47.9789 78.4658 50.5654 78.0463 53.1529 77.6259C53.5339 77.5645 54.0045 77.4167 54.0424 77.05C54.0802 76.6832 53.6498 76.4547 53.29 76.3255C48.7187 74.6885 44.1475 73.0525 39.5762 71.4156L26.1436 63.8013C24.1583 63.7318 22.545 62.2182 21.5667 60.5728C20.5884 58.9266 20.0288 57.0673 18.95 55.4797C17.5736 53.454 15.3093 51.9486 12.7978 51.6301C10.2863 51.3117 7.57897 52.2699 6.05195 54.2081C4.52403 56.1462 4.35409 59.0225 5.8174 60.9914C6.92276 62.4792 8.76082 63.3372 9.93751 64.7736L9.93845 64.7727Z" fill="url(#paint0_linear_2000_114958)" fill-opacity="0.4"/>
<path d="M10.8586 58.8157C10.7566 59.715 10.0411 60.9484 8.37665 60.9441C6.64681 60.9395 5.93279 59.5948 5.8736 58.6907C5.85985 58.4497 5.97249 58.2219 6.16817 58.0803C6.36385 57.9388 6.62519 57.9051 6.85201 57.9917C6.85637 57.9918 7.34925 58.1738 8.27735 58.1763C9.24467 58.1788 9.9282 57.9826 9.93691 57.9783C10.0066 57.957 10.0763 57.9486 10.146 57.9487L10.1503 57.9488C10.5468 57.9498 10.8702 58.2692 10.8713 58.6608C10.8758 58.7168 10.8672 58.7684 10.8586 58.8157Z" fill="black"/>
<path d="M10.8586 58.8157C10.7566 59.715 10.0411 60.9484 8.37665 60.9441C6.64681 60.9395 5.93279 59.5948 5.8736 58.6907C5.85985 58.4497 5.97249 58.2219 6.16817 58.0803C6.36385 57.9388 6.62519 57.9051 6.85201 57.9917C6.85637 57.9918 7.34925 58.1738 8.27735 58.1763C9.24467 58.1788 9.9282 57.9826 9.93691 57.9783C10.0066 57.957 10.0763 57.9486 10.146 57.9487L10.1503 57.9488C10.5468 57.9498 10.8702 58.2692 10.8713 58.6608C10.8758 58.7168 10.8672 58.7684 10.8586 58.8157Z" fill="url(#paint1_linear_2000_114958)" fill-opacity="0.4"/>
<path d="M47.9386 60.3519C47.7217 59.1521 43.9044 56.4698 39.6183 57.4582C36.6112 60.7925 35.9782 67.4407 39.5185 73.8957C42.5227 75.4512 47.2282 72.9059 47.0482 71.2788C46.9755 70.6218 44.7299 66.6556 47.4609 61.8299C47.723 61.3673 48.033 60.8695 47.9386 60.351L47.9386 60.3519Z" fill="#FF5900"/>
<path d="M47.9386 60.3519C47.7217 59.1521 43.9044 56.4698 39.6183 57.4582C36.6112 60.7925 35.9782 67.4407 39.5185 73.8957C42.5227 75.4512 47.2282 72.9059 47.0482 71.2788C46.9755 70.6218 44.7299 66.6556 47.4609 61.8299C47.723 61.3673 48.033 60.8695 47.9386 60.351L47.9386 60.3519Z" fill="white" fill-opacity="0.2"/>
<path d="M47.4171 62.8796C47.708 62.2357 48.1608 61.6425 48.3424 60.9582C48.486 60.4162 47.6351 60.1394 47.4905 60.684C47.3101 61.3631 46.855 61.9649 46.5652 62.6054C46.292 63.2074 46.0768 63.835 45.9256 64.4754C45.6733 65.549 45.6002 66.6394 45.6987 67.7338C45.7727 68.5572 45.9475 69.3664 46.1983 70.154C46.326 70.5541 46.5429 70.9699 46.6002 71.3874C46.6766 71.942 47.5558 71.7522 47.4794 71.1985C47.4252 70.8047 47.2222 70.4131 47.1003 70.0361C46.8611 69.2962 46.6843 68.5375 46.5991 67.7659C46.4842 66.7187 46.5543 65.6361 46.811 64.6098C46.9594 64.0165 47.1637 63.4372 47.4163 62.8787L47.4171 62.8796Z" fill="black"/>
<path d="M21.1029 64.2182C20.386 76.3123 37.073 78.2901 39.9576 73.4981C40.6965 72.2697 39.8958 70.7409 39.4045 69.4096C37.9648 65.5043 38.4764 60.9587 40.7535 57.4223C34.518 50.7913 21.5878 56.0171 21.102 64.2181L21.1029 64.2182Z" fill="#FF7024"/>
<path d="M21.1029 64.2182C20.386 76.3123 37.073 78.2901 39.9576 73.4981C40.6965 72.2697 39.8958 70.7409 39.4045 69.4096C37.9648 65.5043 38.4764 60.9587 40.7535 57.4223C34.518 50.7913 21.5878 56.0171 21.102 64.2181L21.1029 64.2182Z" fill="white" fill-opacity="0.2"/>
<path d="M40.3606 57.1873C38.8462 59.5687 38.0651 62.359 38.1343 65.1485C38.1686 66.5402 38.3968 67.9275 38.8505 69.2473C39.2589 70.4339 40.2627 72.0323 39.5678 73.2815C39.2939 73.7736 40.042 74.254 40.3169 73.7594C41.0229 72.4898 40.5403 71.1563 40.0509 69.9072C39.5288 68.5718 39.158 67.2054 39.0576 65.7721C38.86 62.9474 39.5706 60.0837 41.1088 57.6651C41.4134 57.1859 40.6643 56.7081 40.3597 57.1872L40.3606 57.1873Z" fill="black"/>
<path d="M14.703 53.5643C15.4712 51.223 15.7001 48.7713 15.3973 46.3396C15.3282 45.7844 14.4488 45.975 14.518 46.5285C14.8014 48.8003 14.5685 51.1052 13.851 53.2901C13.6754 53.8262 14.5274 54.1005 14.703 53.5643Z" fill="black"/>
<path d="M30.318 73.8496C32.4922 72.9615 34.7917 72.4151 37.137 72.2054C37.7095 72.1542 37.518 71.305 36.9481 71.3563C34.5226 71.5725 32.1578 72.1594 29.91 73.0777C29.377 73.2955 29.786 74.0673 30.318 73.8496Z" fill="black"/>
<path d="M37.0094 68.0247C37.5752 67.9134 37.3881 67.0643 36.8204 67.1764C32.8384 67.959 28.7189 67.9489 24.7541 67.1257C24.1953 67.0094 23.9035 67.834 24.4668 67.9506C28.594 68.807 32.8611 68.8401 37.0094 68.0247Z" fill="black"/>
<path d="M35.0324 63.5909C35.6004 63.551 35.6587 62.6824 35.0835 62.7228C31.8059 62.9539 28.5352 62.4889 25.4766 61.3474C24.938 61.1468 24.6533 61.9728 25.1893 62.1725C28.3137 63.3381 31.6845 63.8272 35.0324 63.5909Z" fill="black"/>
<path d="M37.1635 59.8399C37.7385 59.836 37.7933 58.9678 37.2147 58.9716C34.814 58.9876 32.4711 58.4821 30.3068 57.49C29.7864 57.2519 29.505 58.0802 30.0192 58.3153C32.2474 59.3367 34.6928 59.8559 37.1635 59.8399Z" fill="black"/>
<path d="M44.9275 61.6439C45.4972 61.6092 45.5548 60.7401 44.9787 60.7754C43.9385 60.8384 42.9091 60.671 41.9705 60.2286C41.4584 59.9874 40.9575 60.7127 41.474 60.9559C42.5577 61.4664 43.7169 61.7168 44.9275 61.6439Z" fill="black"/>
<path d="M42.442 71.6954L44.5652 71.5201C45.1384 71.4725 44.9459 70.6241 44.3763 70.671C43.6686 70.7295 42.9609 70.7879 42.2532 70.8464C41.68 70.894 41.8724 71.7424 42.442 71.6954Z" fill="black"/>
<path d="M44.484 66.3829C45.0555 66.3021 44.8657 65.4532 44.2951 65.534C43.2907 65.6754 42.3082 65.5208 41.3887 65.1202C40.8633 64.8915 40.581 65.719 41.1011 65.9457C42.1686 66.4111 43.3246 66.5463 44.484 66.3829Z" fill="black"/>
<path d="M50.4719 63.9698C51.0394 63.8661 50.8515 63.0162 50.283 63.1207C49.8444 63.201 49.4153 63.18 48.9887 63.0571C48.4366 62.8984 48.148 63.7241 48.701 63.8828C49.2822 64.0498 49.8734 64.0789 50.4719 63.9698Z" fill="black"/>
<path d="M48.8476 68.8398C49.4319 68.7134 50.0153 68.5869 50.5997 68.4596C51.1631 68.3374 50.977 67.4873 50.4109 67.6103C49.8265 67.7367 49.2431 67.8632 48.6588 67.9905C48.0954 68.1128 48.2815 68.9628 48.8476 68.8398Z" fill="black"/>
<mask id="path-23-inside-1_2000_114958" fill="white">
<path d="M43.3906 -7.71059e-07C45.3839 0.000205326 46.9998 1.61606 47 3.60937L47 39.0859C46.9999 41.0793 45.384 42.6951 43.3906 42.6953L29.1104 42.6953C26.8415 47.7111 23.9338 50.3003 18 53C20.2499 49.1197 21.1239 46.4509 19.4727 42.6953L3.60938 42.6953C1.616 42.6951 0.000103711 41.0793 6.09109e-07 39.0859L5.62479e-08 3.60938C0.0002059 1.61606 1.61606 0.000205718 3.60938 -6.41392e-08L43.3906 -7.71059e-07Z"/>
</mask>
<path d="M43.3906 -7.71059e-07C45.3839 0.000205326 46.9998 1.61606 47 3.60937L47 39.0859C46.9999 41.0793 45.384 42.6951 43.3906 42.6953L29.1104 42.6953C26.8415 47.7111 23.9338 50.3003 18 53C20.2499 49.1197 21.1239 46.4509 19.4727 42.6953L3.60938 42.6953C1.616 42.6951 0.000103711 41.0793 6.09109e-07 39.0859L5.62479e-08 3.60938C0.0002059 1.61606 1.61606 0.000205718 3.60938 -6.41392e-08L43.3906 -7.71059e-07Z" fill="url(#paint2_linear_2000_114958)"/>
<path d="M43.3906 -7.71059e-07L43.3907 -1L43.3906 -1L43.3906 -7.71059e-07ZM47 3.60937L48 3.60937L48 3.60927L47 3.60937ZM47 39.0859L48 39.086L48 39.0859L47 39.0859ZM43.3906 42.6953L43.3906 43.6953L43.3907 43.6953L43.3906 42.6953ZM29.1104 42.6953L29.1104 41.6953L28.4651 41.6953L28.1992 42.2832L29.1104 42.6953ZM18 53L17.1349 52.4984L15.5645 55.2067L18.4141 53.9102L18 53ZM19.4727 42.6953L20.3881 42.2928L20.1254 41.6953L19.4727 41.6953L19.4727 42.6953ZM3.60938 42.6953L3.60927 43.6953L3.60938 43.6953L3.60938 42.6953ZM6.09109e-07 39.0859L-0.999999 39.0859L-0.999999 39.086L6.09109e-07 39.0859ZM5.62479e-08 3.60938L-1 3.60927L-1 3.60938L5.62479e-08 3.60938ZM3.60938 -6.41392e-08L3.60937 -1L3.60927 -1L3.60938 -6.41392e-08ZM43.3906 -7.71059e-07L43.3905 0.999999C44.8316 1.00015 45.9999 2.16837 46 3.60948L47 3.60937L48 3.60927C47.9997 1.06376 45.9362 -0.999738 43.3907 -1L43.3906 -7.71059e-07ZM47 3.60937L46 3.60937L46 39.0859L47 39.0859L48 39.0859L48 3.60937L47 3.60937ZM47 39.0859L46 39.0859C45.9999 40.527 44.8317 41.6952 43.3905 41.6953L43.3906 42.6953L43.3907 43.6953C45.9363 43.695 47.9999 41.6317 48 39.086L47 39.0859ZM43.3906 42.6953L43.3906 41.6953L29.1104 41.6953L29.1104 42.6953L29.1104 43.6953L43.3906 43.6953L43.3906 42.6953ZM29.1104 42.6953L28.1992 42.2832C27.1077 44.6962 25.8856 46.4781 24.2526 47.9802C22.6092 49.4917 20.5044 50.7619 17.5859 52.0898L18 53L18.4141 53.9102C21.4294 52.5383 23.7453 51.1641 25.6065 49.4522C27.478 47.7308 28.8441 45.7102 30.0215 43.1074L29.1104 42.6953ZM18 53L18.8651 53.5016C20.0015 51.5418 20.8576 49.7797 21.1833 47.9789C21.5166 46.1363 21.283 44.3284 20.3881 42.2928L19.4727 42.6953L18.5572 43.0978C19.3135 44.8179 19.4686 46.2221 19.2152 47.6229C18.9543 49.0655 18.2485 50.5779 17.1349 52.4984L18 53ZM19.4727 42.6953L19.4727 41.6953L3.60938 41.6953L3.60938 42.6953L3.60938 43.6953L19.4727 43.6953L19.4727 42.6953ZM3.60938 42.6953L3.60948 41.6953C2.16826 41.6952 1.00008 40.527 1 39.0859L6.09109e-07 39.0859L-0.999999 39.086C-0.999868 41.6317 1.06375 43.695 3.60927 43.6953L3.60938 42.6953ZM6.09109e-07 39.0859L1 39.0859L1 3.60937L5.62479e-08 3.60938L-1 3.60938L-0.999999 39.0859L6.09109e-07 39.0859ZM5.62479e-08 3.60938L1 3.60948C1.00015 2.16837 2.16837 1.00015 3.60948 1L3.60938 -6.41392e-08L3.60927 -1C1.06376 -0.999737 -0.999737 1.06376 -1 3.60927L5.62479e-08 3.60938ZM3.60938 -6.41392e-08L3.60938 1L43.3906 0.999999L43.3906 -7.71059e-07L43.3906 -1L3.60937 -1L3.60938 -6.41392e-08Z" fill="white" mask="url(#path-23-inside-1_2000_114958)"/>
<g clip-path="url(#clip0_2000_114958)">
<path d="M23.4576 5.26562C18.4578 5.26562 14.4055 9.31797 14.4055 14.3178C14.4055 14.4531 14.4096 14.5885 14.4137 14.7238C13.8887 14.7936 13.4785 15.2406 13.4785 15.7861C13.4785 16.3809 13.9584 16.8607 14.5531 16.8607H14.7664C15.8656 20.6219 19.3355 23.3699 23.4494 23.3699C28.4451 23.3699 32.4975 19.3176 32.4975 14.3219C32.5057 9.31797 28.4533 5.26562 23.4576 5.26562Z" fill="#6AF0C7"/>
<path d="M32.4932 14.7186C32.4973 14.5832 32.5014 14.4479 32.5014 14.3125C32.5014 11.8967 31.5539 9.69824 30.0076 8.07812C30.8813 9.49316 31.3857 11.1625 31.3857 12.9508C31.3857 18.0859 27.2227 22.249 22.0875 22.249C20.2992 22.249 18.634 21.7445 17.2148 20.8709C18.8391 22.4172 21.0334 23.3646 23.4492 23.3646C27.5631 23.3646 31.0371 20.6166 32.1322 16.8555H32.3455C32.9402 16.8555 33.4201 16.3756 33.4201 15.7809C33.4283 15.2354 33.0223 14.7883 32.4932 14.7186Z" fill="#249E67"/>
<path d="M20.0809 10.0004C19.3016 9.47543 18.2434 9.60668 17.62 10.308C17.5051 10.4352 17.5174 10.6321 17.6446 10.7469C17.702 10.8002 17.7799 10.8248 17.8497 10.8248C17.9358 10.8248 18.0219 10.7879 18.0835 10.7182C18.4936 10.2588 19.2155 10.1645 19.7282 10.5131C19.8717 10.6116 20.0645 10.5705 20.163 10.427C20.2614 10.2834 20.2245 10.0989 20.0809 10.0004ZM29.3956 10.3121C28.7721 9.61078 27.7139 9.47953 26.9346 10.0045C26.8661 10.0512 26.8186 10.1229 26.8025 10.2043C26.7864 10.2856 26.8029 10.37 26.8485 10.4393C26.9428 10.5829 27.1397 10.6198 27.2833 10.5254C27.796 10.1809 28.5178 10.2711 28.928 10.7305C28.9895 10.8002 29.0756 10.8371 29.1618 10.8371C29.2356 10.8371 29.3094 10.8125 29.371 10.7592C29.4981 10.6362 29.5104 10.4393 29.3956 10.3121Z" fill="#2FB98F"/>
<path d="M20.3513 12.8871C20.1011 12.3252 19.5925 11.9807 19.0265 11.9807C18.4564 11.9807 17.9478 12.3293 17.7017 12.8871C17.6853 12.9199 17.6771 12.9527 17.673 12.9896C17.595 13.1537 17.632 13.3547 17.7714 13.4818C17.8493 13.5516 17.9519 13.5885 18.0503 13.5885C18.1652 13.5885 18.28 13.5393 18.3661 13.449C18.5343 13.2604 18.7763 13.1537 19.0306 13.1537C19.2849 13.1537 19.5269 13.2604 19.695 13.449C19.8468 13.6213 20.1134 13.6377 20.2857 13.4859C20.4292 13.3588 20.462 13.1578 20.3841 12.9938C20.3759 12.9527 20.3677 12.9199 20.3513 12.8871ZM29.3419 12.9855C29.3378 12.9527 29.3296 12.9158 29.3132 12.883C29.063 12.3211 28.5544 11.9766 27.9884 11.9766C27.4224 11.9766 26.9097 12.3252 26.6636 12.883C26.6472 12.9158 26.639 12.9486 26.6349 12.9855C26.557 13.1496 26.5898 13.3506 26.7333 13.4777C26.8112 13.5475 26.9138 13.5844 27.0122 13.5844C27.1271 13.5844 27.2419 13.5352 27.328 13.4449C27.4962 13.2563 27.7382 13.1496 27.9925 13.1496C28.2468 13.1496 28.4888 13.2563 28.657 13.4449C28.8087 13.6172 29.0753 13.6336 29.2476 13.4818C29.387 13.3506 29.4198 13.1496 29.3419 12.9855ZM29.1204 16.6605C29.1081 16.6605 29.0958 16.6605 29.0876 16.6564C29.0876 16.6605 28.7349 16.6646 28.1525 16.6646C27.0902 16.6687 25.265 17.1363 23.4398 17.1322C21.6761 17.1322 19.9165 16.6605 18.8419 16.6564H17.796C17.7714 16.6564 17.7509 16.6646 17.7263 16.6811C17.6607 16.7262 17.6484 16.8205 17.6894 16.8902L17.7919 17.0461C18.0298 17.4029 18.2636 17.7105 18.5015 17.9689C18.7394 18.2355 18.9732 18.4611 19.2111 18.6744C19.6704 19.0805 20.1339 19.384 20.5974 19.6383C20.8558 19.4824 23.3987 20.1059 23.4111 20.1223C23.4234 20.1018 26.0566 19.4701 26.3273 19.6424C26.7866 19.3881 27.246 19.0846 27.7095 18.6785C27.9474 18.4652 28.1812 18.2396 28.415 17.9689C28.6528 17.7105 28.8866 17.4029 29.1245 17.042L29.2271 16.882C29.2394 16.8615 29.2476 16.8369 29.2517 16.8082C29.2517 16.7385 29.1943 16.6646 29.1204 16.6605Z" fill="#2B3B47"/>
<path d="M26.3248 19.6541C26.05 19.4818 20.8492 19.49 20.5949 19.6459C20.6031 19.65 20.6154 19.6582 20.6236 19.6623C20.7508 19.7279 20.882 19.7812 21.0092 19.8387C21.0133 19.8387 21.0133 19.8387 21.0174 19.8428C21.0133 19.8428 21.0133 19.8428 21.0092 19.8469C21.8131 20.2037 22.6129 20.3719 23.4168 20.3801C23.4291 20.3801 23.4414 20.3842 23.4537 20.3842H23.4619C23.4742 20.3842 23.4865 20.3842 23.4988 20.3801C24.2986 20.376 25.1026 20.2078 25.9065 19.8469C26.0336 19.7895 26.1608 19.7402 26.2879 19.6746C26.3002 19.6705 26.3125 19.6623 26.3248 19.6541ZM25.8983 19.8428C25.9024 19.8428 25.9024 19.8428 25.9065 19.8469C25.9024 19.8469 25.9024 19.8469 25.8983 19.8428ZM28.5069 16.6682C26.6365 16.6764 20.7713 16.6641 18.6057 16.6641V16.6969C18.6016 16.8076 18.659 16.8814 18.659 16.8814C18.6959 16.9307 18.741 16.9758 18.7902 17.0127C18.9912 17.1645 21.2676 17.6115 23.5317 17.6115C25.7957 17.6115 28.2361 17.1727 28.4535 16.8814C28.4535 16.8814 28.5069 16.8076 28.5069 16.6969V16.6682Z" fill="white"/>
</g>
<path d="M8.89156 31.7L10.3716 31.7L10.3716 33.59L8.89156 33.59L8.89156 31.7ZM8.88156 28.36L10.0516 28.36L10.0516 28.57C10.0516 29.09 9.96156 29.58 9.78156 30.04C9.60156 30.4933 9.31823 30.89 8.93156 31.23C8.55156 31.5633 8.0549 31.81 7.44156 31.97L6.78156 30.84C7.28823 30.7133 7.6949 30.5333 8.00156 30.3C8.30823 30.06 8.53156 29.79 8.67156 29.49C8.81156 29.1833 8.88156 28.8767 8.88156 28.57L8.88156 28.36ZM9.19156 28.36L10.3716 28.36L10.3716 28.57C10.3716 28.8633 10.4416 29.1567 10.5816 29.45C10.7216 29.7367 10.9449 29.9967 11.2516 30.23C11.5649 30.4633 11.9716 30.6433 12.4716 30.77L11.8216 31.89C11.2216 31.7367 10.7249 31.4967 10.3316 31.17C9.9449 30.8367 9.65823 30.4467 9.47156 30C9.2849 29.5467 9.19156 29.07 9.19156 28.57L9.19156 28.36ZM7.08156 27.66L12.1816 27.66L12.1816 28.81L7.08156 28.81L7.08156 27.66ZM8.89156 26.68L10.3716 26.68L10.3716 28.17L8.89156 28.17L8.89156 26.68ZM12.9416 26.58L14.4116 26.58L14.4116 35.94L12.9416 35.94L12.9416 26.58ZM6.79156 34.26L6.62156 33.07C7.1549 33.07 7.75156 33.0667 8.41156 33.06C9.07156 33.0467 9.74823 33.02 10.4416 32.98C11.1349 32.9333 11.8049 32.86 12.4516 32.76L12.5616 33.83C11.8949 33.9633 11.2182 34.06 10.5316 34.12C9.8449 34.18 9.18156 34.2167 8.54156 34.23C7.90823 34.2433 7.3249 34.2533 6.79156 34.26ZM16.2408 27.34L22.1208 27.34L22.1208 28.52L16.2408 28.52L16.2408 27.34ZM15.3908 33.66L23.8208 33.66L23.8208 34.85L15.3908 34.85L15.3908 33.66ZM18.2908 30.49L19.7608 30.49L19.7608 34.24L18.2908 34.24L18.2908 30.49ZM21.5908 27.34L23.0708 27.34L23.0708 28.23C23.0708 28.6167 23.0641 29.03 23.0508 29.47C23.0441 29.91 23.0141 30.3967 22.9608 30.93C22.9074 31.4633 22.8174 32.0667 22.6908 32.74L21.2208 32.58C21.4074 31.64 21.5141 30.82 21.5408 30.12C21.5741 29.42 21.5908 28.79 21.5908 28.23L21.5908 27.34ZM27.89 29.97L29.36 29.97L29.36 31.15L27.89 31.15L27.89 29.97ZM30.81 26.59L32.21 26.59L32.21 35.91L30.81 35.91L30.81 26.59ZM28.9 26.72L30.27 26.72L30.27 35.51L28.9 35.51L28.9 26.72ZM26.27 27.21C26.69 27.21 27.05 27.35 27.35 27.63C27.6567 27.9033 27.8933 28.2967 28.06 28.81C28.2267 29.3167 28.31 29.9267 28.31 30.64C28.31 31.3533 28.2267 31.9667 28.06 32.48C27.8933 32.9933 27.6567 33.3867 27.35 33.66C27.0433 33.9333 26.6833 34.07 26.27 34.07C25.8633 34.07 25.5067 33.9333 25.2 33.66C24.8933 33.3867 24.6567 32.9933 24.49 32.48C24.33 31.9667 24.25 31.3533 24.25 30.64C24.25 29.9267 24.33 29.3167 24.49 28.81C24.6567 28.2967 24.8933 27.9033 25.2 27.63C25.5067 27.35 25.8633 27.21 26.27 27.21ZM26.28 28.6C26.1267 28.6 25.9967 28.6733 25.89 28.82C25.79 28.9667 25.7133 29.19 25.66 29.49C25.6067 29.7833 25.58 30.1667 25.58 30.64C25.58 31.1067 25.6067 31.49 25.66 31.79C25.7133 32.09 25.79 32.3133 25.89 32.46C25.9967 32.6 26.1267 32.67 26.28 32.67C26.4267 32.67 26.5533 32.6 26.66 32.46C26.7667 32.3133 26.8467 32.09 26.9 31.79C26.9533 31.49 26.98 31.1067 26.98 30.64C26.98 30.1667 26.9533 29.7833 26.9 29.49C26.8467 29.19 26.7667 28.9667 26.66 28.82C26.5533 28.6733 26.4267 28.6 26.28 28.6ZM34.7792 31.31L36.2492 31.31L36.2492 33.88L34.7792 33.88L34.7792 31.31ZM38.1492 31.31L39.6192 31.31L39.6192 33.88L38.1492 33.88L38.1492 31.31ZM32.9892 33.68L41.4192 33.68L41.4192 34.87L32.9892 34.87L32.9892 33.68ZM37.1992 27.01C37.8726 27.01 38.4726 27.1167 38.9992 27.33C39.5259 27.5367 39.9426 27.83 40.2492 28.21C40.5559 28.5833 40.7092 29.03 40.7092 29.55C40.7092 30.0567 40.5559 30.5 40.2492 30.88C39.9426 31.26 39.5259 31.5533 38.9992 31.76C38.4726 31.9667 37.8726 32.07 37.1992 32.07C36.5259 32.07 35.9226 31.9667 35.3892 31.76C34.8626 31.5533 34.4459 31.26 34.1392 30.88C33.8392 30.5 33.6892 30.0567 33.6892 29.55C33.6892 29.03 33.8392 28.5833 34.1392 28.21C34.4459 27.83 34.8626 27.5367 35.3892 27.33C35.9226 27.1167 36.5259 27.01 37.1992 27.01ZM37.1992 28.16C36.7792 28.16 36.4159 28.2133 36.1092 28.32C35.8026 28.4267 35.5626 28.5833 35.3892 28.79C35.2226 28.9967 35.1392 29.25 35.1392 29.55C35.1392 29.8433 35.2226 30.0933 35.3892 30.3C35.5626 30.5067 35.8026 30.6667 36.1092 30.78C36.4159 30.8867 36.7792 30.94 37.1992 30.94C37.6126 30.94 37.9726 30.8867 38.2792 30.78C38.5859 30.6667 38.8226 30.5067 38.9892 30.3C39.1626 30.0933 39.2492 29.8433 39.2492 29.55C39.2492 29.25 39.1626 28.9967 38.9892 28.79C38.8226 28.5833 38.5859 28.4267 38.2792 28.32C37.9726 28.2133 37.6126 28.16 37.1992 28.16Z" fill="#188F6B"/>
<path d="M7.34152 56.4418C7.09133 55.8799 6.58273 55.5354 6.01672 55.5354C5.4466 55.5354 4.93801 55.884 4.69191 56.4418C4.67551 56.4746 4.6673 56.5074 4.6632 56.5443C4.58527 56.7084 4.62219 56.9094 4.76164 57.0365C4.83957 57.1062 4.94211 57.1432 5.04055 57.1432C5.15539 57.1432 5.27023 57.0939 5.35637 57.0037C5.52453 56.815 5.76652 56.7084 6.02082 56.7084C6.27511 56.7084 6.51711 56.815 6.68527 57.0037C6.83703 57.176 7.10363 57.1924 7.2759 57.0406C7.41945 56.9135 7.45226 56.7125 7.37433 56.5484C7.36613 56.5074 7.35793 56.4746 7.34152 56.4418ZM12.3321 56.5402C12.328 56.5074 12.3198 56.4705 12.3034 56.4377C12.0532 55.8758 11.5446 55.5312 10.9786 55.5312C10.4126 55.5312 9.89992 55.8799 9.65383 56.4377C9.63742 56.4705 9.62922 56.5033 9.62512 56.5402C9.54719 56.7043 9.58 56.9053 9.72355 57.0324C9.80148 57.1021 9.90402 57.1391 10.0025 57.1391C10.1173 57.1391 10.2321 57.0898 10.3183 56.9996C10.4864 56.8109 10.7284 56.7043 10.9827 56.7043C11.237 56.7043 11.479 56.8109 11.6472 56.9996C11.7989 57.1719 12.0655 57.1883 12.2378 57.0365C12.3773 56.9053 12.4101 56.7043 12.3321 56.5402Z" fill="black"/>
<defs>
<filter id="filter0_f_2000_114958" x="9.50781" y="72.9609" width="50" height="15" filterUnits="userSpaceOnUse" color-interpolation-filters="sRGB">
<feFlood flood-opacity="0" result="BackgroundImageFix"/>
<feBlend mode="normal" in="SourceGraphic" in2="BackgroundImageFix" result="shape"/>
<feGaussianBlur stdDeviation="2" result="effect1_foregroundBlur_2000_114958"/>
</filter>
<filter id="filter1_f_2000_114958" x="17.5078" y="75.9609" width="36" height="7" filterUnits="userSpaceOnUse" color-interpolation-filters="sRGB">
<feFlood flood-opacity="0" result="BackgroundImageFix"/>
<feBlend mode="normal" in="SourceGraphic" in2="BackgroundImageFix" result="shape"/>
<feGaussianBlur stdDeviation="0.5" result="effect1_foregroundBlur_2000_114958"/>
</filter>
<linearGradient id="paint0_linear_2000_114958" x1="8.93667" y1="78.0456" x2="12.8862" y2="53.2139" gradientUnits="userSpaceOnUse">
<stop stop-color="white" stop-opacity="0"/>
<stop offset="1" stop-color="white"/>
</linearGradient>
<linearGradient id="paint1_linear_2000_114958" x1="8.31951" y1="59.903" x2="8.39589" y2="60.9342" gradientUnits="userSpaceOnUse">
<stop stop-color="#FF0000" stop-opacity="0"/>
<stop offset="1" stop-color="#FF0000"/>
</linearGradient>
<linearGradient id="paint2_linear_2000_114958" x1="23.5" y1="-4.17599e-07" x2="23.5" y2="53" gradientUnits="userSpaceOnUse">
<stop stop-color="#CEFFF0"/>
<stop offset="1" stop-color="white"/>
</linearGradient>
<clipPath id="clip0_2000_114958">
<rect width="21" height="21" fill="white" transform="translate(12.9609 3.82031)"/>
</clipPath>
</defs>
</svg>
