<svg width="60" height="80" viewBox="0 0 60 80" fill="none" xmlns="http://www.w3.org/2000/svg">
<mask id="path-1-inside-1_2000_115028" fill="white">
<path d="M52.6211 -7.71066e-07C54.6144 0.000205242 56.2303 1.61606 56.2305 3.60937L56.2305 29.0859C56.2304 31.0793 54.6145 32.6951 52.6211 32.6953L38.3408 32.6953C36.072 37.7111 33.1643 40.3003 27.2305 43C29.4804 39.1197 30.3543 36.4509 28.7031 32.6953L12.8398 32.6953C10.8465 32.6951 9.23057 31.0793 9.23047 29.0859L9.23047 3.60938C9.23067 1.61606 10.8465 0.000205802 12.8398 -6.41392e-08L52.6211 -7.71066e-07Z"/>
</mask>
<path d="M52.6211 -7.71066e-07C54.6144 0.000205242 56.2303 1.61606 56.2305 3.60937L56.2305 29.0859C56.2304 31.0793 54.6145 32.6951 52.6211 32.6953L38.3408 32.6953C36.072 37.7111 33.1643 40.3003 27.2305 43C29.4804 39.1197 30.3543 36.4509 28.7031 32.6953L12.8398 32.6953C10.8465 32.6951 9.23057 31.0793 9.23047 29.0859L9.23047 3.60938C9.23067 1.61606 10.8465 0.000205802 12.8398 -6.41392e-08L52.6211 -7.71066e-07Z" fill="url(#paint0_linear_2000_115028)"/>
<path d="M52.6211 -7.71066e-07L52.6212 -1L52.6211 -1L52.6211 -7.71066e-07ZM56.2305 3.60937L57.2305 3.60937L57.2305 3.60927L56.2305 3.60937ZM56.2305 29.0859L57.2305 29.086L57.2305 29.0859L56.2305 29.0859ZM52.6211 32.6953L52.6211 33.6953L52.6212 33.6953L52.6211 32.6953ZM38.3408 32.6953L38.3408 31.6953L37.6956 31.6953L37.4297 32.2832L38.3408 32.6953ZM27.2305 43L26.3654 42.4984L24.795 45.2067L27.6446 43.9102L27.2305 43ZM28.7031 32.6953L29.6186 32.2928L29.3558 31.6953L28.7031 31.6953L28.7031 32.6953ZM12.8398 32.6953L12.8397 33.6953L12.8398 33.6953L12.8398 32.6953ZM9.23047 29.0859L8.23047 29.0859L8.23047 29.086L9.23047 29.0859ZM9.23047 3.60938L8.23047 3.60927L8.23047 3.60938L9.23047 3.60938ZM12.8398 -6.41392e-08L12.8398 -1L12.8397 -1L12.8398 -6.41392e-08ZM52.6211 -7.71066e-07L52.621 0.999999C54.0621 1.00015 55.2303 2.16837 55.2305 3.60948L56.2305 3.60937L57.2305 3.60927C57.2302 1.06376 55.1667 -0.999738 52.6212 -1L52.6211 -7.71066e-07ZM56.2305 3.60937L55.2305 3.60937L55.2305 29.0859L56.2305 29.0859L57.2305 29.0859L57.2305 3.60937L56.2305 3.60937ZM56.2305 29.0859L55.2305 29.0859C55.2304 30.527 54.0622 31.6952 52.621 31.6953L52.6211 32.6953L52.6212 33.6953C55.1667 33.695 57.2303 31.6317 57.2305 29.086L56.2305 29.0859ZM52.6211 32.6953L52.6211 31.6953L38.3408 31.6953L38.3408 32.6953L38.3408 33.6953L52.6211 33.6953L52.6211 32.6953ZM38.3408 32.6953L37.4297 32.2832C36.3382 34.6962 35.1161 36.4781 33.483 37.9802C31.8397 39.4917 29.7349 40.7619 26.8163 42.0898L27.2305 43L27.6446 43.9102C30.6599 42.5383 32.9758 41.1641 34.837 39.4522C36.7085 37.7308 38.0746 35.7102 39.2519 33.1074L38.3408 32.6953ZM27.2305 43L28.0956 43.5016C29.2319 41.5418 30.088 39.7797 30.4138 37.9789C30.747 36.1363 30.5135 34.3284 29.6186 32.2928L28.7031 32.6953L27.7877 33.0978C28.544 34.8179 28.6991 36.2221 28.4457 37.6229C28.1848 39.0655 27.479 40.5779 26.3654 42.4984L27.2305 43ZM28.7031 32.6953L28.7031 31.6953L12.8398 31.6953L12.8398 32.6953L12.8398 33.6953L28.7031 33.6953L28.7031 32.6953ZM12.8398 32.6953L12.8399 31.6953C11.3987 31.6952 10.2305 30.527 10.2305 29.0859L9.23047 29.0859L8.23047 29.086C8.2306 31.6317 10.2942 33.695 12.8397 33.6953L12.8398 32.6953ZM9.23047 29.0859L10.2305 29.0859L10.2305 3.60937L9.23047 3.60938L8.23047 3.60938L8.23047 29.0859L9.23047 29.0859ZM9.23047 3.60938L10.2305 3.60948C10.2306 2.16837 11.3988 1.00015 12.8399 1L12.8398 -6.41392e-08L12.8397 -1C10.2942 -0.999737 8.23073 1.06376 8.23047 3.60927L9.23047 3.60938ZM12.8398 -6.41392e-08L12.8398 1L52.6211 0.999999L52.6211 -7.71066e-07L52.6211 -1L12.8398 -1L12.8398 -6.41392e-08Z" fill="white" mask="url(#path-1-inside-1_2000_115028)"/>
<path class="emoji-text" d="M23.1716 14.88L24.6416 14.88L24.6416 16.14L23.1716 16.14L23.1716 14.88ZM22.9016 12.78L24.1816 12.78L24.1816 13C24.1816 13.2467 24.135 13.4833 24.0416 13.71C23.9483 13.9367 23.805 14.1467 23.6116 14.34C23.425 14.5267 23.185 14.6933 22.8916 14.84C22.5983 14.9867 22.2516 15.1067 21.8516 15.2C21.4516 15.2933 20.9983 15.3567 20.4916 15.39L20.0416 14.29C20.4683 14.27 20.8416 14.23 21.1616 14.17C21.4816 14.1033 21.7516 14.0267 21.9716 13.94C22.1983 13.8533 22.3783 13.76 22.5116 13.66C22.6516 13.5533 22.7516 13.4433 22.8116 13.33C22.8716 13.2167 22.9016 13.1067 22.9016 13L22.9016 12.78ZM23.6716 12.78L24.9416 12.78L24.9416 13C24.9416 13.1067 24.9716 13.2167 25.0316 13.33C25.0983 13.4433 25.1983 13.5533 25.3316 13.66C25.465 13.76 25.6416 13.8533 25.8616 13.94C26.0883 14.0267 26.3616 14.1033 26.6816 14.17C27.0016 14.23 27.3783 14.27 27.8116 14.29L27.3616 15.39C26.855 15.3633 26.4016 15.3033 26.0016 15.21C25.6016 15.11 25.255 14.9867 24.9616 14.84C24.6683 14.6933 24.425 14.5267 24.2316 14.34C24.045 14.1533 23.905 13.9467 23.8116 13.72C23.7183 13.4933 23.6716 13.2533 23.6716 13L23.6716 12.78ZM20.4716 12.31L27.3816 12.31L27.3816 13.42L20.4716 13.42L20.4716 12.31ZM20.4616 17.67L27.3616 17.67L27.3616 18.76L20.4616 18.76L20.4616 17.67ZM19.7116 15.65L28.1516 15.65L28.1516 16.81L19.7116 16.81L19.7116 15.65ZM23.9016 18.98C24.8083 18.98 25.5116 19.0867 26.0116 19.3C26.5116 19.5067 26.7616 19.81 26.7616 20.21C26.7616 20.61 26.5116 20.9133 26.0116 21.12C25.5116 21.3333 24.8083 21.44 23.9016 21.44C23.0016 21.44 22.2983 21.3333 21.7916 21.12C21.2916 20.9133 21.0416 20.61 21.0416 20.21C21.0416 19.81 21.2916 19.5067 21.7916 19.3C22.2983 19.0867 23.0016 18.98 23.9016 18.98ZM23.9016 19.94C23.4483 19.94 23.1116 19.96 22.8916 20C22.6783 20.0333 22.5716 20.1033 22.5716 20.21C22.5716 20.3167 22.6783 20.39 22.8916 20.43C23.1116 20.4633 23.4483 20.48 23.9016 20.48C24.355 20.48 24.6916 20.4633 24.9116 20.43C25.1316 20.39 25.2416 20.3167 25.2416 20.21C25.2416 20.1033 25.1316 20.0333 24.9116 20C24.6916 19.96 24.355 19.94 23.9016 19.94ZM23.1716 17.07L24.6416 17.07L24.6416 18.31L23.1716 18.31L23.1716 17.07ZM31.0109 12.72C31.4909 12.72 31.9142 12.8567 32.2809 13.13C32.6542 13.4033 32.9475 13.79 33.1609 14.29C33.3809 14.79 33.4909 15.3833 33.4909 16.07C33.4909 16.7567 33.3809 17.3533 33.1609 17.86C32.9475 18.36 32.6542 18.7467 32.2809 19.02C31.9142 19.2933 31.4909 19.43 31.0109 19.43C30.5309 19.43 30.1042 19.2933 29.7309 19.02C29.3642 18.7467 29.0709 18.36 28.8509 17.86C28.6375 17.3533 28.5309 16.7567 28.5309 16.07C28.5309 15.3833 28.6375 14.79 28.8509 14.29C29.0709 13.79 29.3642 13.4033 29.7309 13.13C30.1042 12.8567 30.5309 12.72 31.0109 12.72ZM31.0109 14.06C30.8042 14.06 30.6209 14.1333 30.4609 14.28C30.3009 14.4267 30.1742 14.65 30.0809 14.95C29.9942 15.2433 29.9509 15.6133 29.9509 16.06C29.9509 16.5133 29.9942 16.89 30.0809 17.19C30.1742 17.49 30.3009 17.7167 30.4609 17.87C30.6209 18.0167 30.8075 18.09 31.0209 18.09C31.2275 18.09 31.4109 18.0167 31.5709 17.87C31.7309 17.7167 31.8542 17.49 31.9409 17.19C32.0342 16.89 32.0809 16.5133 32.0809 16.06C32.0809 15.6133 32.0342 15.2433 31.9409 14.95C31.8542 14.65 31.7309 14.4267 31.5709 14.28C31.4109 14.1333 31.2242 14.06 31.0109 14.06ZM34.3709 12.1L35.8509 12.1L35.8509 21.42L34.3709 21.42L34.3709 12.1ZM35.5309 15.55L37.1509 15.55L37.1509 16.76L35.5309 16.76L35.5309 15.55ZM39.1101 16.81L40.5801 16.81L40.5801 19.38L39.1101 19.38L39.1101 16.81ZM42.4801 16.81L43.9501 16.81L43.9501 19.38L42.4801 19.38L42.4801 16.81ZM37.3201 19.18L45.7501 19.18L45.7501 20.37L37.3201 20.37L37.3201 19.18ZM41.5301 12.51C42.2034 12.51 42.8034 12.6167 43.3301 12.83C43.8567 13.0367 44.2734 13.33 44.5801 13.71C44.8867 14.0833 45.0401 14.53 45.0401 15.05C45.0401 15.5567 44.8867 16 44.5801 16.38C44.2734 16.76 43.8567 17.0533 43.3301 17.26C42.8034 17.4667 42.2034 17.57 41.5301 17.57C40.8567 17.57 40.2534 17.4667 39.7201 17.26C39.1934 17.0533 38.7767 16.76 38.4701 16.38C38.1701 16 38.0201 15.5567 38.0201 15.05C38.0201 14.53 38.1701 14.0833 38.4701 13.71C38.7767 13.33 39.1934 13.0367 39.7201 12.83C40.2534 12.6167 40.8567 12.51 41.5301 12.51ZM41.5301 13.66C41.1101 13.66 40.7467 13.7133 40.4401 13.82C40.1334 13.9267 39.8934 14.0833 39.7201 14.29C39.5534 14.4967 39.4701 14.75 39.4701 15.05C39.4701 15.3433 39.5534 15.5933 39.7201 15.8C39.8934 16.0067 40.1334 16.1667 40.4401 16.28C40.7467 16.3867 41.1101 16.44 41.5301 16.44C41.9434 16.44 42.3034 16.3867 42.6101 16.28C42.9167 16.1667 43.1534 16.0067 43.3201 15.8C43.4934 15.5933 43.5801 15.3433 43.5801 15.05C43.5801 14.75 43.4934 14.4967 43.3201 14.29C43.1534 14.0833 42.9167 13.9267 42.6101 13.82C42.3034 13.7133 41.9434 13.66 41.5301 13.66Z" fill="#FF9500"/>
<path d="M10.1868 42.8891C10.0829 38.7747 9.03703 34.76 7.077 31.0426C6.57596 30.0927 4.95687 30.8412 5.45963 31.7928C7.27783 35.2384 8.27634 38.9858 8.37279 42.8036C8.39828 43.8473 10.2153 43.9427 10.1886 42.8891L10.1868 42.8891Z" fill="black"/>
<path d="M2.20312 46.4043C4.89752 42.9839 9.66476 41.285 14.083 41.8369C18.5012 42.3889 22.4801 45.0335 24.8945 48.5977C26.7869 51.3909 27.233 54.3295 28.9482 57.2266L30.7998 63.3086C31.1278 63.405 31.4689 63.4639 31.8223 63.4756L45.1621 71.0293C49.7039 72.6497 54.2463 74.2693 58.7881 75.8896C59.1456 76.0176 59.5726 76.2442 59.5342 76.6094C59.4955 76.9742 59.0282 77.1226 58.6494 77.1846C56.0757 77.6083 53.5024 78.0312 50.9287 78.4541C47.8309 78.9634 44.7098 79.4741 41.5723 79.4062C39.0002 79.3511 36.4531 78.906 33.8809 78.8379C30.9689 78.7616 27.9815 79.1608 25.1865 78.3984C22.1446 77.568 19.5779 75.3144 18.457 72.4893C17.5138 70.1117 17.515 67.3395 16.2061 65.1846C11.1157 61.4118 4.97855 62.6934 1.76465 58.3564C-0.802895 54.8926 -0.492809 49.8247 2.20312 46.4043Z" fill="#EECEB5"/>
<path d="M14.1422 51.0748C14.9938 49.7603 14.2489 48.0025 12.9616 47.5268C10.9228 46.7721 9.03353 48.3715 9.40743 50.3562C9.78371 52.3478 12.914 52.9703 14.1422 51.0748Z" fill="black"/>
<path d="M11.8054 49.5082C12.0513 49.1291 11.8356 48.6232 11.4653 48.4847C10.8778 48.2665 10.3323 48.7284 10.4408 49.3007C10.5492 49.8744 11.4519 50.0539 11.8054 49.5082Z" fill="white"/>
<path d="M5.93169 49.9196C6.69877 48.735 6.02731 47.1526 4.86721 46.7224C3.03064 46.0426 1.3281 47.4833 1.66617 49.2713C2.00532 51.0648 4.82504 51.6262 5.93169 49.9196Z" fill="black"/>
<path d="M3.83988 48.4834C4.06119 48.1423 3.86759 47.6862 3.53284 47.5616C3.00265 47.3652 2.51296 47.7811 2.60951 48.296C2.70729 48.8137 3.52024 48.9752 3.83848 48.4833L3.83988 48.4834Z" fill="white"/>
<path d="M4.19378 54.5805C3.745 53.836 4.84406 53.0101 5.29727 53.7634C5.80791 54.6117 6.86581 54.8087 7.52179 53.9974C8.07322 53.3153 9.17591 54.1485 8.62136 54.8329C7.46613 56.2623 5.17028 56.2029 4.1936 54.5819L4.19378 54.5805Z" fill="black"/>
<path d="M16.7295 44.7243C17.8076 40.3295 18.1956 35.7455 17.8982 31.2156C17.8303 30.1813 16.6908 30.5646 16.7588 31.5956C17.0373 35.8278 16.6498 40.1377 15.6428 44.2389C15.3962 45.2452 16.4829 45.7306 16.7295 44.7243Z" fill="black"/>
<path d="M58.9313 64.7337C57.465 63.0377 55.2881 61.976 53.0332 61.8565C51.8612 63.1451 51.5221 65.3488 52.3473 68.8313C54.9816 68.489 57.4519 66.9503 58.9305 64.7337L58.9313 64.7337Z" fill="#FF4000"/>
<path d="M58.9313 64.7337C57.465 63.0377 55.2881 61.976 53.0332 61.8565C51.8612 63.1451 51.5221 65.3488 52.3473 68.8313C54.9816 68.489 57.4519 66.9503 58.9305 64.7337L58.9313 64.7337Z" fill="white" fill-opacity="0.2"/>
<path d="M54.1173 61.4163C54.0491 60.9985 53.6014 60.7454 53.1875 60.5838C51.8815 60.0751 50.4296 59.8992 49.0234 60.0792C46.1575 61.5731 45.0547 64.8245 46.0861 70.2046C48.4519 71.4443 51.6328 71.1449 53.7136 69.487C54.1059 69.1746 54.4762 68.7923 54.5783 68.319C54.7091 67.7137 54.3768 67.1219 54.138 66.5496C53.5508 65.1438 53.4969 63.5426 53.9894 62.0976C54.0649 61.8753 54.1539 61.6457 54.1173 61.4163Z" fill="#FF4800"/>
<path d="M54.1173 61.4163C54.0491 60.9985 53.6014 60.7454 53.1875 60.5838C51.8815 60.0751 50.4296 59.8992 49.0234 60.0792C46.1575 61.5731 45.0547 64.8245 46.0861 70.2046C48.4519 71.4443 51.6328 71.1449 53.7136 69.487C54.1059 69.1746 54.4762 68.7923 54.5783 68.319C54.7091 67.7137 54.3768 67.1219 54.138 66.5496C53.5508 65.1438 53.4969 63.5426 53.9894 62.0976C54.0649 61.8753 54.1539 61.6457 54.1173 61.4163Z" fill="white" fill-opacity="0.2"/>
<path d="M53.2965 62.1345C52.9777 63.1553 52.8804 64.2147 53.018 65.2694C53.0847 65.7804 53.2149 66.276 53.3927 66.758C53.5954 67.3079 53.898 67.8257 53.8081 68.4328C53.7246 68.9911 54.6048 69.0291 54.6872 68.4743C54.8408 67.4448 54.1516 66.5018 53.9539 65.5214C53.7455 64.4862 53.8141 63.4202 54.1307 62.4072C54.2994 61.8669 53.4661 61.5943 53.2974 62.1345L53.2965 62.1345Z" fill="black"/>
<path d="M49.884 59.1022C49.658 57.9114 45.6941 55.2486 41.2459 56.2289C38.1268 59.5377 37.4741 66.1359 41.153 72.5431C44.2723 74.0874 49.1547 71.5621 48.9668 69.9471C48.891 69.295 46.5576 65.3581 49.3891 60.569C49.6608 60.11 49.9823 59.616 49.884 59.1013L49.884 59.1022Z" fill="#FF5900"/>
<path d="M49.884 59.1022C49.658 57.9114 45.6941 55.2486 41.2459 56.2289C38.1268 59.5377 37.4741 66.1359 41.153 72.5431C44.2723 74.0874 49.1547 71.5621 48.9668 69.9471C48.891 69.295 46.5576 65.3581 49.3891 60.569C49.6608 60.11 49.9823 59.616 49.884 59.1013L49.884 59.1022Z" fill="white" fill-opacity="0.2"/>
<path d="M48.2526 62.3004C48.5046 61.6752 48.893 61.0979 49.053 60.4345C49.1794 59.909 48.4622 59.6477 48.3348 60.1758C48.176 60.8341 47.7855 61.4198 47.5344 62.0417C47.2979 62.6263 47.11 63.2351 46.9763 63.8558C46.753 64.8964 46.6811 65.9518 46.7545 67.0098C46.8095 67.8059 46.9499 68.5874 47.1549 69.3475C47.2592 69.7335 47.4389 70.1341 47.4836 70.5376C47.543 71.0736 48.2885 70.8832 48.229 70.348C48.1867 69.9675 48.0186 69.5903 47.919 69.2264C47.7234 68.5124 47.5808 67.7798 47.5158 67.034C47.4283 66.0218 47.4974 64.9738 47.724 63.979C47.855 63.4038 48.0331 62.8419 48.2519 62.2996L48.2526 62.3004Z" fill="black"/>
<path d="M22.4474 63.4552C21.6882 75.8342 37.8531 77.7816 40.6747 72.8647C41.3975 71.6044 40.6295 70.0437 40.1603 68.6836C38.7854 64.694 39.3054 60.0402 41.5315 56.4111C35.5224 49.6543 22.961 55.0611 22.4465 63.4552L22.4474 63.4552Z" fill="#FF7024"/>
<path d="M22.4474 63.4552C21.6882 75.8342 37.8531 77.7816 40.6747 72.8647C41.3975 71.6044 40.6295 70.0437 40.1603 68.6836C38.7854 64.694 39.3054 60.0402 41.5315 56.4111C35.5224 49.6543 22.961 55.0611 22.4465 63.4552L22.4474 63.4552Z" fill="white" fill-opacity="0.2"/>
<path d="M41.879 56.1131C40.3645 58.4978 39.5798 61.2899 39.6424 64.0793C39.6734 65.471 39.8977 66.8578 40.3468 68.1767C40.7511 69.3624 41.7477 70.9587 41.0524 72.2094C40.7784 72.702 41.5227 73.1809 41.7978 72.6857C42.5042 71.4145 42.0263 70.082 41.5415 68.834C41.0242 67.4997 40.6578 66.1341 40.5611 64.7009C40.3705 61.8766 41.0852 59.0113 42.6235 56.5893C42.9281 56.1095 42.1828 55.6332 41.8781 56.1131L41.879 56.1131Z" fill="black"/>
<path d="M31.6244 73.7901C33.881 72.8564 36.2667 72.2794 38.6989 72.0543C39.2926 71.9994 39.0963 71.1122 38.5053 71.1672C35.9898 71.3993 33.5364 72.0186 31.2033 72.9843C30.6501 73.2132 31.0721 74.0191 31.6244 73.7901Z" fill="black"/>
<path d="M38.7107 67.3693C39.2708 67.2395 39.0947 66.2885 38.5327 66.4192C34.5915 67.3315 30.5225 67.3556 26.6146 66.4661C26.0639 66.3404 25.7672 67.2681 26.3224 67.394C30.3903 68.3194 34.6049 68.3198 38.7107 67.3693Z" fill="black"/>
<path d="M36.5343 63.1374C37.1213 63.0959 37.1827 62.2103 36.5882 62.2523C33.201 62.4924 29.8218 62.0228 26.6628 60.8633C26.1065 60.6595 25.8111 61.502 26.3648 61.7049C29.5919 62.8889 33.0744 63.3829 36.5343 63.1374Z" fill="black"/>
<path d="M38.5347 59.1401C39.1133 59.1363 39.168 58.2979 38.5858 58.3015C36.1703 58.317 33.8125 57.8289 31.6343 56.8708C31.1107 56.6408 30.8278 57.4407 31.3453 57.6678C33.5878 58.6542 36.0486 59.1556 38.5347 59.1401Z" fill="black"/>
<path d="M45.6228 60.9495C46.1711 60.9288 46.2165 60.2842 45.6621 60.3052C44.6609 60.3426 43.6676 60.2092 42.7586 59.8723C42.2626 59.6887 41.7885 60.2226 42.2888 60.4078C43.3384 60.7965 44.4577 60.9927 45.6228 60.9495Z" fill="black"/>
<path d="M43.6003 70.833L45.7238 70.6852C46.2972 70.645 46.1004 69.8918 45.5307 69.9314C44.8229 69.9807 44.115 70.03 43.4072 70.0793C42.8339 70.1194 43.0306 70.8726 43.6003 70.833Z" fill="black"/>
<path d="M45.7175 65.889C46.2841 65.8294 46.0871 65.1541 45.5214 65.2137C44.5255 65.3181 43.5485 65.1877 42.6316 64.8625C42.1076 64.6769 41.8357 65.3314 42.3544 65.5155C43.4189 65.8931 44.5681 66.0095 45.7175 65.889Z" fill="black"/>
<path d="M51.7762 62.784C52.2487 62.6688 52.1054 61.7835 51.6322 61.8996C51.2671 61.9889 50.9114 61.9721 50.5592 61.849C50.1035 61.69 49.8518 62.5559 50.3082 62.7149C50.788 62.8822 51.2781 62.9053 51.7762 62.784Z" fill="black"/>
<path d="M49.6777 67.8274C50.3489 67.7433 51.019 67.6592 51.6902 67.5745C52.3374 67.4932 52.1036 66.855 51.4533 66.9368C50.7821 67.0209 50.1119 67.105 49.4407 67.1898C48.7936 67.2711 49.0274 67.9092 49.6777 67.8274Z" fill="black"/>
<defs>
<linearGradient id="paint0_linear_2000_115028" x1="32.7305" y1="-7.00724e-07" x2="32.7305" y2="43" gradientUnits="userSpaceOnUse">
<stop stop-color="#FFEEC3"/>
<stop offset="1" stop-color="white"/>
</linearGradient>
</defs>
</svg>
