<svg width="46" height="25" viewBox="0 0 46 25" fill="none" xmlns="http://www.w3.org/2000/svg">
<g filter="url(#filter0_d_21_328)">
<g filter="url(#filter1_d_21_328)">
<path d="M38.5366 9.42369C38.5366 11.7198 31.3732 15 22.5366 15C13.7001 15 6.53662 11.3918 6.53662 9.42369C6.53662 7.45558 6.53662 6 6.53662 6H38.5366C38.5366 6 38.5366 7.12756 38.5366 9.42369Z" fill="url(#paint0_linear_21_328)"/>
</g>
<ellipse cx="22.5366" cy="6" rx="16" ry="6" fill="#98E9D0"/>
<ellipse cx="22.5366" cy="6" rx="16" ry="6" fill="url(#paint1_linear_21_328)" fill-opacity="0.4"/>
<path d="M22.5366 1.21094C26.8481 1.21094 30.6977 1.86877 33.4253 2.8916C34.7934 3.40467 35.8168 3.98681 36.4761 4.57129C37.1364 5.15689 37.3257 5.6425 37.3257 6C37.3257 6.3575 37.1364 6.84311 36.4761 7.42871C35.8168 8.01319 34.7934 8.59533 33.4253 9.1084C30.6977 10.1312 26.8481 10.7891 22.5366 10.7891C18.2251 10.7891 14.3755 10.1312 11.6479 9.1084C10.2798 8.59533 9.25641 8.01319 8.59717 7.42871C7.93681 6.84311 7.74756 6.3575 7.74756 6C7.74756 5.6425 7.93681 5.15689 8.59717 4.57129C9.25641 3.98681 10.2798 3.40467 11.6479 2.8916C14.3755 1.86877 18.2251 1.21094 22.5366 1.21094Z" stroke="url(#paint2_linear_21_328)" stroke-opacity="0.95" stroke-width="2.42281"/>
<g filter="url(#filter2_i_21_328)">
<ellipse cx="22.5366" cy="6.5" rx="14" ry="5.5" fill="#DBFFF4"/>
<ellipse cx="22.5366" cy="6.5" rx="14" ry="5.5" fill="url(#paint3_linear_21_328)" fill-opacity="0.8" style="mix-blend-mode:color-dodge"/>
</g>
</g>
<defs>
<filter id="filter0_d_21_328" x="2.53662" y="0" width="40" height="23" filterUnits="userSpaceOnUse" color-interpolation-filters="sRGB">
<feFlood flood-opacity="0" result="BackgroundImageFix"/>
<feColorMatrix in="SourceAlpha" type="matrix" values="0 0 0 0 0 0 0 0 0 0 0 0 0 0 0 0 0 0 127 0" result="hardAlpha"/>
<feOffset dy="4"/>
<feGaussianBlur stdDeviation="2"/>
<feComposite in2="hardAlpha" operator="out"/>
<feColorMatrix type="matrix" values="0 0 0 0 0 0 0 0 0 0 0 0 0 0 0 0 0 0 0.25 0"/>
<feBlend mode="normal" in2="BackgroundImageFix" result="effect1_dropShadow_21_328"/>
<feBlend mode="normal" in="SourceGraphic" in2="effect1_dropShadow_21_328" result="shape"/>
</filter>
<filter id="filter1_d_21_328" x="5.72205e-06" y="2.73169" width="45.0732" height="22.0732" filterUnits="userSpaceOnUse" color-interpolation-filters="sRGB">
<feFlood flood-opacity="0" result="BackgroundImageFix"/>
<feColorMatrix in="SourceAlpha" type="matrix" values="0 0 0 0 0 0 0 0 0 0 0 0 0 0 0 0 0 0 127 0" result="hardAlpha"/>
<feOffset dy="3.26831"/>
<feGaussianBlur stdDeviation="3.26831"/>
<feComposite in2="hardAlpha" operator="out"/>
<feColorMatrix type="matrix" values="0 0 0 0 0.386218 0 0 0 0 0.330307 0 0 0 0 0.218485 0 0 0 1 0"/>
<feBlend mode="multiply" in2="BackgroundImageFix" result="effect1_dropShadow_21_328"/>
<feBlend mode="normal" in="SourceGraphic" in2="effect1_dropShadow_21_328" result="shape"/>
</filter>
<filter id="filter2_i_21_328" x="8.53662" y="1" width="28" height="11" filterUnits="userSpaceOnUse" color-interpolation-filters="sRGB">
<feFlood flood-opacity="0" result="BackgroundImageFix"/>
<feBlend mode="normal" in="SourceGraphic" in2="BackgroundImageFix" result="shape"/>
<feColorMatrix in="SourceAlpha" type="matrix" values="0 0 0 0 0 0 0 0 0 0 0 0 0 0 0 0 0 0 127 0" result="hardAlpha"/>
<feOffset dx="0.605703" dy="0.605703"/>
<feComposite in2="hardAlpha" operator="arithmetic" k2="-1" k3="1"/>
<feColorMatrix type="matrix" values="0 0 0 0 0.611478 0 0 0 0 0.793269 0 0 0 0 0.737942 0 0 0 1 0"/>
<feBlend mode="normal" in2="shape" result="effect1_innerShadow_21_328"/>
</filter>
<linearGradient id="paint0_linear_21_328" x1="8.21662" y1="10.4291" x2="37.5366" y2="10.407" gradientUnits="userSpaceOnUse">
<stop stop-color="#527A6D"/>
<stop offset="0.5" stop-color="#6BBCA3"/>
<stop offset="1" stop-color="#527A6D"/>
</linearGradient>
<linearGradient id="paint1_linear_21_328" x1="22.5366" y1="12" x2="22.5366" y2="0" gradientUnits="userSpaceOnUse">
<stop stop-color="white" stop-opacity="0"/>
<stop offset="1" stop-color="white"/>
</linearGradient>
<linearGradient id="paint2_linear_21_328" x1="22.5366" y1="0" x2="22.5366" y2="12" gradientUnits="userSpaceOnUse">
<stop stop-color="#60E3BB"/>
<stop offset="0.471154" stop-color="#F4FFFC"/>
<stop offset="1" stop-color="#95F7D9"/>
</linearGradient>
<linearGradient id="paint3_linear_21_328" x1="22.5366" y1="12" x2="22.5366" y2="1" gradientUnits="userSpaceOnUse">
<stop stop-color="white" stop-opacity="0"/>
<stop offset="1" stop-color="white"/>
</linearGradient>
</defs>
</svg>