<svg width="49" height="40" viewBox="0 0 49 40" fill="none" xmlns="http://www.w3.org/2000/svg">
<g filter="url(#filter0_dd_2000_114794)">
<g filter="url(#filter1_dd_2000_114794)">
<path d="M35 20C35 23.3137 31.5 26 24.5 26C17.5 26 14 23.3137 14 20C14 16.6863 18.701 14 24.5 14C30.299 14 35 16.6863 35 20Z" fill="#17BE8B"/>
<path d="M35 20C35 23.3137 31.5 26 24.5 26C17.5 26 14 23.3137 14 20C14 16.6863 18.701 14 24.5 14C30.299 14 35 16.6863 35 20Z" fill="url(#paint0_linear_2000_114794)" fill-opacity="0.35"/>
</g>
<ellipse cx="24.5" cy="19.4487" rx="10.5" ry="5.44872" fill="#09AC94"/>
<ellipse cx="24.5" cy="19.4487" rx="10.5" ry="5.44872" fill="url(#paint1_linear_2000_114794)" fill-opacity="0.2" style="mix-blend-mode:plus-lighter"/>
<path d="M24.5 14.5C27.3361 14.5 29.8789 15.0979 31.6943 16.04C33.5343 16.9949 34.4997 18.2255 34.5 19.4482C34.5 20.6712 33.5346 21.9024 31.6943 22.8574C29.8789 23.7995 27.3361 24.3975 24.5 24.3975C21.6639 24.3975 19.1211 23.7995 17.3057 22.8574C15.4654 21.9024 14.5 20.6712 14.5 19.4482C14.5003 18.2255 15.4657 16.9949 17.3057 16.04C19.1211 15.0979 21.6639 14.5 24.5 14.5Z" stroke="url(#paint2_linear_2000_114794)" stroke-opacity="0.7"/>
</g>
<defs>
<filter id="filter0_dd_2000_114794" x="-9" y="-5.125" width="67" height="53" filterUnits="userSpaceOnUse" color-interpolation-filters="sRGB">
<feFlood flood-opacity="0" result="BackgroundImageFix"/>
<feColorMatrix in="SourceAlpha" type="matrix" values="0 0 0 0 0 0 0 0 0 0 0 0 0 0 0 0 0 0 127 0" result="hardAlpha"/>
<feOffset/>
<feGaussianBlur stdDeviation="7"/>
<feComposite in2="hardAlpha" operator="out"/>
<feColorMatrix type="matrix" values="0 0 0 0 0.0942469 0 0 0 0 0.560096 0 0 0 0 0.418316 0 0 0 0.2 0"/>
<feBlend mode="plus-lighter" in2="BackgroundImageFix" result="effect1_dropShadow_2000_114794"/>
<feColorMatrix in="SourceAlpha" type="matrix" values="0 0 0 0 0 0 0 0 0 0 0 0 0 0 0 0 0 0 127 0" result="hardAlpha"/>
<feOffset/>
<feGaussianBlur stdDeviation="7"/>
<feComposite in2="hardAlpha" operator="out"/>
<feColorMatrix type="matrix" values="0 0 0 0 0.0942469 0 0 0 0 0.560096 0 0 0 0 0.418316 0 0 0 0.4 0"/>
<feBlend mode="plus-lighter" in2="effect1_dropShadow_2000_114794" result="effect2_dropShadow_2000_114794"/>
<feBlend mode="normal" in="SourceGraphic" in2="effect2_dropShadow_2000_114794" result="shape"/>
</filter>
<filter id="filter1_dd_2000_114794" x="10" y="11" width="29" height="20" filterUnits="userSpaceOnUse" color-interpolation-filters="sRGB">
<feFlood flood-opacity="0" result="BackgroundImageFix"/>
<feColorMatrix in="SourceAlpha" type="matrix" values="0 0 0 0 0 0 0 0 0 0 0 0 0 0 0 0 0 0 127 0" result="hardAlpha"/>
<feOffset dy="1"/>
<feGaussianBlur stdDeviation="2"/>
<feComposite in2="hardAlpha" operator="out"/>
<feColorMatrix type="matrix" values="0 0 0 0 0 0 0 0 0 0 0 0 0 0 0 0 0 0 0.2 0"/>
<feBlend mode="multiply" in2="BackgroundImageFix" result="effect1_dropShadow_2000_114794"/>
<feColorMatrix in="SourceAlpha" type="matrix" values="0 0 0 0 0 0 0 0 0 0 0 0 0 0 0 0 0 0 127 0" result="hardAlpha"/>
<feOffset dy="1"/>
<feGaussianBlur stdDeviation="0.5"/>
<feComposite in2="hardAlpha" operator="out"/>
<feColorMatrix type="matrix" values="0 0 0 0 0 0 0 0 0 0 0 0 0 0 0 0 0 0 0.1 0"/>
<feBlend mode="multiply" in2="effect1_dropShadow_2000_114794" result="effect2_dropShadow_2000_114794"/>
<feBlend mode="normal" in="SourceGraphic" in2="effect2_dropShadow_2000_114794" result="shape"/>
</filter>
<linearGradient id="paint0_linear_2000_114794" x1="35" y1="20.3158" x2="14" y2="20.3158" gradientUnits="userSpaceOnUse">
<stop/>
<stop offset="0.5" stop-opacity="0"/>
<stop offset="1"/>
</linearGradient>
<linearGradient id="paint1_linear_2000_114794" x1="32" y1="23.6154" x2="23.1523" y2="11.2407" gradientUnits="userSpaceOnUse">
<stop stop-color="white" stop-opacity="0"/>
<stop offset="1" stop-color="white"/>
</linearGradient>
<linearGradient id="paint2_linear_2000_114794" x1="24.5" y1="14" x2="24.5" y2="24.8974" gradientUnits="userSpaceOnUse">
<stop stop-color="white" stop-opacity="0.25"/>
<stop offset="0.25" stop-color="white" stop-opacity="0"/>
<stop offset="0.5" stop-color="white"/>
<stop offset="0.75" stop-color="white" stop-opacity="0.25"/>
<stop offset="1" stop-color="white" stop-opacity="0.5"/>
</linearGradient>
</defs>
</svg>
