<svg width="66" height="79" viewBox="0 0 66 79" fill="none" xmlns="http://www.w3.org/2000/svg">
<path d="M33.2141 12.9497C33.5381 12.3885 34.2557 12.1963 34.8169 12.5203L49.9607 21.2635C50.5219 21.5875 50.7142 22.3052 50.3902 22.8664L19.3708 76.5935C18.8595 77.4791 17.5389 77.3323 17.2345 76.3561L14.3384 67.0676C14.1564 66.484 13.557 66.1379 12.9606 66.2721L3.4685 68.4083C2.47083 68.6328 1.68341 67.5625 2.19473 66.6769L33.2141 12.9497Z" fill="#FE862B"/>
<path d="M33.2141 12.9497C33.5381 12.3885 34.2557 12.1963 34.8169 12.5203L49.9607 21.2635C50.5219 21.5875 50.7142 22.3052 50.3902 22.8664L19.3708 76.5935C18.8595 77.4791 17.5389 77.3323 17.2345 76.3561L14.3384 67.0676C14.1564 66.484 13.557 66.1379 12.9606 66.2721L3.4685 68.4083C2.47083 68.6328 1.68341 67.5625 2.19473 66.6769L33.2141 12.9497Z" fill="url(#paint0_linear_2467_38220)" fill-opacity="0.2"/>
<path d="M32.4968 12.9497C32.1728 12.3885 31.4552 12.1963 30.894 12.5203L15.7502 21.2635C15.189 21.5875 14.9968 22.3052 15.3208 22.8664L46.3401 76.5935C46.8515 77.4791 48.1721 77.3323 48.4765 76.3561L51.3725 67.0676C51.5545 66.484 52.154 66.1379 52.7503 66.2721L62.2424 68.4083C63.2401 68.6328 64.0275 67.5625 63.5162 66.6769L32.4968 12.9497Z" fill="#FE862B"/>
<path d="M32.4968 12.9497C32.1728 12.3885 31.4552 12.1963 30.894 12.5203L15.7502 21.2635C15.189 21.5875 14.9968 22.3052 15.3208 22.8664L46.3401 76.5935C46.8515 77.4791 48.1721 77.3323 48.4765 76.3561L51.3725 67.0676C51.5545 66.484 52.154 66.1379 52.7503 66.2721L62.2424 68.4083C63.2401 68.6328 64.0275 67.5625 63.5162 66.6769L32.4968 12.9497Z" fill="url(#paint1_linear_2467_38220)" fill-opacity="0.2"/>
<g filter="url(#filter0_d_2467_38220)">
<circle cx="32.9151" cy="29.3956" r="29.3956" fill="#FFD900"/>
<circle cx="32.9151" cy="29.3956" r="29.3956" fill="url(#paint2_linear_2467_38220)" fill-opacity="0.6"/>
</g>
<g filter="url(#filter1_i_2467_38220)">
<circle cx="32.9105" cy="29.3949" r="25.2387" fill="#FFA90A"/>
<circle cx="32.9105" cy="29.3949" r="25.2387" fill="url(#paint3_linear_2467_38220)" fill-opacity="0.1" style="mix-blend-mode:multiply"/>
</g>
<circle cx="32.9105" cy="29.3949" r="24.9453" stroke="#A66C00" style="mix-blend-mode:soft-light" stroke-width="0.586678"/>
<g filter="url(#filter2_di_2467_38220)">
<path d="M31.0294 8.37884C32.1953 7.07641 34.2345 7.07641 35.4005 8.37884L38.9175 12.3075C39.5117 12.9713 40.3754 13.329 41.265 13.2799L46.5299 12.9888C48.2753 12.8923 49.7172 14.3342 49.6207 16.0796L49.3297 21.3445C49.2805 22.2341 49.6382 23.0978 50.302 23.692L54.2307 27.209C55.5331 28.375 55.5331 30.4142 54.2307 31.5802L50.302 35.0972C49.6382 35.6914 49.2805 36.5551 49.3297 37.4447L49.6207 42.7096C49.7172 44.455 48.2753 45.8969 46.5299 45.8004L41.265 45.5093C40.3754 45.4602 39.5117 45.8179 38.9175 46.4817L35.4005 50.4104C34.2345 51.7128 32.1953 51.7128 31.0294 50.4104L27.5123 46.4817C26.9181 45.8179 26.0544 45.4602 25.1649 45.5093L19.8999 45.8004C18.1545 45.8969 16.7126 44.455 16.8091 42.7096L17.1002 37.4447C17.1494 36.5551 16.7916 35.6914 16.1278 35.0972L12.1992 31.5802C10.8967 30.4142 10.8967 28.375 12.1992 27.209L16.1278 23.692C16.7916 23.0978 17.1494 22.2341 17.1002 21.3445L16.8091 16.0796C16.7126 14.3342 18.1545 12.8923 19.8999 12.9888L25.1649 13.2799C26.0544 13.329 26.9181 12.9713 27.5123 12.3075L31.0294 8.37884Z" fill="#FFD900"/>
<path d="M31.0294 8.37884C32.1953 7.07641 34.2345 7.07641 35.4005 8.37884L38.9175 12.3075C39.5117 12.9713 40.3754 13.329 41.265 13.2799L46.5299 12.9888C48.2753 12.8923 49.7172 14.3342 49.6207 16.0796L49.3297 21.3445C49.2805 22.2341 49.6382 23.0978 50.302 23.692L54.2307 27.209C55.5331 28.375 55.5331 30.4142 54.2307 31.5802L50.302 35.0972C49.6382 35.6914 49.2805 36.5551 49.3297 37.4447L49.6207 42.7096C49.7172 44.455 48.2753 45.8969 46.5299 45.8004L41.265 45.5093C40.3754 45.4602 39.5117 45.8179 38.9175 46.4817L35.4005 50.4104C34.2345 51.7128 32.1953 51.7128 31.0294 50.4104L27.5123 46.4817C26.9181 45.8179 26.0544 45.4602 25.1649 45.5093L19.8999 45.8004C18.1545 45.8969 16.7126 44.455 16.8091 42.7096L17.1002 37.4447C17.1494 36.5551 16.7916 35.6914 16.1278 35.0972L12.1992 31.5802C10.8967 30.4142 10.8967 28.375 12.1992 27.209L16.1278 23.692C16.7916 23.0978 17.1494 22.2341 17.1002 21.3445L16.8091 16.0796C16.7126 14.3342 18.1545 12.8923 19.8999 12.9888L25.1649 13.2799C26.0544 13.329 26.9181 12.9713 27.5123 12.3075L31.0294 8.37884Z" fill="url(#paint4_linear_2467_38220)" fill-opacity="0.5" style="mix-blend-mode:hard-light"/>
<path d="M31.1387 8.47656C32.2463 7.23937 34.1833 7.23942 35.291 8.47656L38.8086 12.4053C39.4325 13.1021 40.3395 13.4784 41.2734 13.4268L46.5381 13.1348C48.1961 13.0432 49.5661 14.4133 49.4746 16.0713L49.1836 21.3369C49.1321 22.2708 49.5072 23.1779 50.2041 23.8018L54.1328 27.3184C55.3701 28.426 55.3701 30.363 54.1328 31.4707L50.2041 34.9883C49.5073 35.6122 49.132 36.5192 49.1836 37.4531L49.4746 42.7178C49.5662 44.3758 48.1961 45.7459 46.5381 45.6543L41.2734 45.3633C40.3395 45.3116 39.4325 45.687 38.8086 46.3838L35.291 50.3125C34.1833 51.5497 32.2463 51.5498 31.1387 50.3125L27.6221 46.3838C26.9982 45.6869 26.0911 45.3118 25.1572 45.3633L19.8916 45.6543C18.2336 45.7458 16.8635 44.3758 16.9551 42.7178L17.2471 37.4531C17.2987 36.5192 16.9225 35.6122 16.2256 34.9883L12.2969 31.4707C11.0597 30.363 11.0597 28.426 12.2969 27.3184L16.2256 23.8018C16.9224 23.1779 17.2985 22.2708 17.2471 21.3369L16.9551 16.0713C16.8636 14.4133 18.2337 13.0433 19.8916 13.1348L25.1572 13.4268C26.0911 13.4782 26.9982 13.1021 27.6221 12.4053L31.1387 8.47656Z" stroke="#2C1D00" style="mix-blend-mode:soft-light" stroke-width="0.293339"/>
</g>
<g filter="url(#filter3_i_2467_38220)">
<path d="M31.9892 17.2756C32.5694 16.4012 33.8533 16.4012 34.4335 17.2756L37.7489 22.2725C37.9438 22.5662 38.2379 22.7799 38.5775 22.8745L44.3543 24.4835C45.3652 24.765 45.762 25.9862 45.1096 26.8081L41.3818 31.5054C41.1627 31.7815 41.0503 32.1273 41.0653 32.4795L41.3202 38.4707C41.3648 39.5192 40.3261 40.2739 39.3427 39.9075L33.7235 37.8136C33.3931 37.6906 33.0296 37.6906 32.6992 37.8136L27.08 39.9075C26.0966 40.2739 25.0579 39.5192 25.1025 38.4707L25.3574 32.4795C25.3724 32.1273 25.26 31.7815 25.0409 31.5054L21.3131 26.8081C20.6607 25.9862 21.0575 24.765 22.0684 24.4835L27.8452 22.8745C28.1848 22.7799 28.4789 22.5662 28.6738 22.2725L31.9892 17.2756Z" fill="#FFB01F"/>
<path d="M31.9892 17.2756C32.5694 16.4012 33.8533 16.4012 34.4335 17.2756L37.7489 22.2725C37.9438 22.5662 38.2379 22.7799 38.5775 22.8745L44.3543 24.4835C45.3652 24.765 45.762 25.9862 45.1096 26.8081L41.3818 31.5054C41.1627 31.7815 41.0503 32.1273 41.0653 32.4795L41.3202 38.4707C41.3648 39.5192 40.3261 40.2739 39.3427 39.9075L33.7235 37.8136C33.3931 37.6906 33.0296 37.6906 32.6992 37.8136L27.08 39.9075C26.0966 40.2739 25.0579 39.5192 25.1025 38.4707L25.3574 32.4795C25.3724 32.1273 25.26 31.7815 25.0409 31.5054L21.3131 26.8081C20.6607 25.9862 21.0575 24.765 22.0684 24.4835L27.8452 22.8745C28.1848 22.7799 28.4789 22.5662 28.6738 22.2725L31.9892 17.2756Z" fill="url(#paint5_linear_2467_38220)" fill-opacity="0.2" style="mix-blend-mode:plus-lighter"/>
</g>
<path d="M32.1113 17.3564C32.6335 16.5696 33.7894 16.5696 34.3115 17.3564L37.627 22.3535C37.8413 22.6765 38.1646 22.9116 38.5381 23.0156L44.3145 24.625C45.2241 24.8784 45.5819 25.977 44.9951 26.7168L41.2666 31.4141C41.0257 31.7177 40.9026 32.0981 40.9189 32.4854L41.1738 38.4766C41.214 39.4201 40.2785 40.1003 39.3936 39.7705L33.7744 37.6758C33.4113 37.5406 33.0115 37.5406 32.6484 37.6758L27.0283 39.7705C26.1435 40.0998 25.2089 39.42 25.249 38.4766L25.5039 32.4854C25.5203 32.0981 25.3962 31.7177 25.1553 31.4141L21.4277 26.7168C20.841 25.9771 21.198 24.8786 22.1074 24.625L27.8848 23.0156C28.2582 22.9116 28.5816 22.6765 28.7959 22.3535L32.1113 17.3564Z" stroke="#A66C00" style="mix-blend-mode:soft-light" stroke-width="0.293339"/>
<defs>
<filter id="filter0_d_2467_38220" x="-0.00053525" y="0" width="65.8311" height="65.8331" filterUnits="userSpaceOnUse" color-interpolation-filters="sRGB">
<feFlood flood-opacity="0" result="BackgroundImageFix"/>
<feColorMatrix in="SourceAlpha" type="matrix" values="0 0 0 0 0 0 0 0 0 0 0 0 0 0 0 0 0 0 127 0" result="hardAlpha"/>
<feOffset dy="3.52007"/>
<feGaussianBlur stdDeviation="1.76003"/>
<feComposite in2="hardAlpha" operator="out"/>
<feColorMatrix type="matrix" values="0 0 0 0 0 0 0 0 0 0 0 0 0 0 0 0 0 0 0.15 0"/>
<feBlend mode="multiply" in2="BackgroundImageFix" result="effect1_dropShadow_2467_38220"/>
<feBlend mode="normal" in="SourceGraphic" in2="effect1_dropShadow_2467_38220" result="shape"/>
</filter>
<filter id="filter1_i_2467_38220" x="7.67188" y="4.15625" width="51.6499" height="51.6499" filterUnits="userSpaceOnUse" color-interpolation-filters="sRGB">
<feFlood flood-opacity="0" result="BackgroundImageFix"/>
<feBlend mode="normal" in="SourceGraphic" in2="BackgroundImageFix" result="shape"/>
<feColorMatrix in="SourceAlpha" type="matrix" values="0 0 0 0 0 0 0 0 0 0 0 0 0 0 0 0 0 0 127 0" result="hardAlpha"/>
<feOffset dx="1.17336" dy="1.17336"/>
<feGaussianBlur stdDeviation="0.586678"/>
<feComposite in2="hardAlpha" operator="arithmetic" k2="-1" k3="1"/>
<feColorMatrix type="matrix" values="0 0 0 0 0.879808 0 0 0 0 0.756672 0 0 0 0 0.510401 0 0 0 0.5 0"/>
<feBlend mode="multiply" in2="shape" result="effect1_innerShadow_2467_38220"/>
</filter>
<filter id="filter2_di_2467_38220" x="10.0493" y="6.81567" width="46.3311" height="46.3311" filterUnits="userSpaceOnUse" color-interpolation-filters="sRGB">
<feFlood flood-opacity="0" result="BackgroundImageFix"/>
<feColorMatrix in="SourceAlpha" type="matrix" values="0 0 0 0 0 0 0 0 0 0 0 0 0 0 0 0 0 0 127 0" result="hardAlpha"/>
<feOffset dy="0.586678"/>
<feGaussianBlur stdDeviation="0.586678"/>
<feComposite in2="hardAlpha" operator="out"/>
<feColorMatrix type="matrix" values="0 0 0 0 0.748397 0 0 0 0 0.592848 0 0 0 0 0 0 0 0 0.5 0"/>
<feBlend mode="multiply" in2="BackgroundImageFix" result="effect1_dropShadow_2467_38220"/>
<feBlend mode="normal" in="SourceGraphic" in2="effect1_dropShadow_2467_38220" result="shape"/>
<feColorMatrix in="SourceAlpha" type="matrix" values="0 0 0 0 0 0 0 0 0 0 0 0 0 0 0 0 0 0 127 0" result="hardAlpha"/>
<feOffset dx="1.17336" dy="1.17336"/>
<feGaussianBlur stdDeviation="0.586678"/>
<feComposite in2="hardAlpha" operator="arithmetic" k2="-1" k3="1"/>
<feColorMatrix type="matrix" values="0 0 0 0 1 0 0 0 0 1 0 0 0 0 1 0 0 0 0.15 0"/>
<feBlend mode="normal" in2="shape" result="effect2_innerShadow_2467_38220"/>
</filter>
<filter id="filter3_i_2467_38220" x="20.9941" y="16.6211" width="24.7269" height="23.9656" filterUnits="userSpaceOnUse" color-interpolation-filters="sRGB">
<feFlood flood-opacity="0" result="BackgroundImageFix"/>
<feBlend mode="normal" in="SourceGraphic" in2="BackgroundImageFix" result="shape"/>
<feColorMatrix in="SourceAlpha" type="matrix" values="0 0 0 0 0 0 0 0 0 0 0 0 0 0 0 0 0 0 127 0" result="hardAlpha"/>
<feOffset dx="0.293339" dy="0.586678"/>
<feGaussianBlur stdDeviation="0.293339"/>
<feComposite in2="hardAlpha" operator="arithmetic" k2="-1" k3="1"/>
<feColorMatrix type="matrix" values="0 0 0 0 0.908654 0 0 0 0 0.719796 0 0 0 0 0 0 0 0 0.5 0"/>
<feBlend mode="multiply" in2="shape" result="effect1_innerShadow_2467_38220"/>
</filter>
<linearGradient id="paint0_linear_2467_38220" x1="18.0444" y1="64.6018" x2="13.3065" y2="47.9639" gradientUnits="userSpaceOnUse">
<stop stop-color="white" stop-opacity="0"/>
<stop offset="1" stop-color="white"/>
</linearGradient>
<linearGradient id="paint1_linear_2467_38220" x1="47.6665" y1="64.6018" x2="52.4045" y2="47.9639" gradientUnits="userSpaceOnUse">
<stop stop-color="white" stop-opacity="0"/>
<stop offset="1" stop-color="white"/>
</linearGradient>
<linearGradient id="paint2_linear_2467_38220" x1="53.4649" y1="50.898" x2="16.176" y2="6.80454" gradientUnits="userSpaceOnUse">
<stop stop-color="#FFF583" stop-opacity="0"/>
<stop offset="1" stop-color="#FFF583"/>
</linearGradient>
<linearGradient id="paint3_linear_2467_38220" x1="50.6066" y1="47.6712" x2="16.3749" y2="9.81319" gradientUnits="userSpaceOnUse">
<stop stop-color="#E39E20" stop-opacity="0"/>
<stop offset="1" stop-color="#E39E20"/>
</linearGradient>
<linearGradient id="paint4_linear_2467_38220" x1="33.2149" y1="5.9375" x2="33.2149" y2="52.8517" gradientUnits="userSpaceOnUse">
<stop stop-color="#FF6600" stop-opacity="0"/>
<stop offset="1" stop-color="#E15A00"/>
</linearGradient>
<linearGradient id="paint5_linear_2467_38220" x1="33.2113" y1="43.3446" x2="33.2113" y2="15.4336" gradientUnits="userSpaceOnUse">
<stop stop-color="white" stop-opacity="0"/>
<stop offset="1" stop-color="white"/>
</linearGradient>
</defs>
</svg>
