<svg width="52" height="62" viewBox="0 0 52 62" fill="none" xmlns="http://www.w3.org/2000/svg">
<path d="M25.9632 10.1225C26.2165 9.68378 26.7775 9.53346 27.2162 9.78676L39.0548 16.6217C39.4935 16.875 39.6438 17.436 39.3905 17.8747L15.1414 59.8755C14.7416 60.5678 13.7093 60.4531 13.4713 59.6899L11.2073 52.4287C11.0651 51.9725 10.5964 51.7019 10.1302 51.8068L2.70987 53.4767C1.92995 53.6523 1.31439 52.8156 1.71411 52.1232L25.9632 10.1225Z" fill="#FE862B"/>
<path d="M25.9632 10.1225C26.2165 9.68378 26.7775 9.53346 27.2162 9.78676L39.0548 16.6217C39.4935 16.875 39.6438 17.436 39.3905 17.8747L15.1414 59.8755C14.7416 60.5678 13.7093 60.4531 13.4713 59.6899L11.2073 52.4287C11.0651 51.9725 10.5964 51.7019 10.1302 51.8068L2.70987 53.4767C1.92995 53.6523 1.31439 52.8156 1.71411 52.1232L25.9632 10.1225Z" fill="url(#paint0_linear_3959_62091)" fill-opacity="0.2"/>
<path d="M25.4039 10.1225C25.1506 9.68378 24.5897 9.53346 24.1509 9.78676L12.3124 16.6217C11.8737 16.875 11.7234 17.436 11.9767 17.8747L36.2258 59.8755C36.6256 60.5678 37.6579 60.4531 37.8959 59.6899L40.1599 52.4287C40.3021 51.9725 40.7708 51.7019 41.2369 51.8068L48.6573 53.4767C49.4372 53.6523 50.0528 52.8156 49.6531 52.1232L25.4039 10.1225Z" fill="#FE862B"/>
<path d="M25.4039 10.1225C25.1506 9.68378 24.5897 9.53346 24.1509 9.78676L12.3124 16.6217C11.8737 16.875 11.7234 17.436 11.9767 17.8747L36.2258 59.8755C36.6256 60.5678 37.6579 60.4531 37.8959 59.6899L40.1599 52.4287C40.3021 51.9725 40.7708 51.7019 41.2369 51.8068L48.6573 53.4767C49.4372 53.6523 50.0528 52.8156 49.6531 52.1232L25.4039 10.1225Z" fill="url(#paint1_linear_3959_62091)" fill-opacity="0.2"/>
<g filter="url(#filter0_d_3959_62091)">
<circle cx="25.7298" cy="22.9798" r="22.9798" fill="#FFD900"/>
<circle cx="25.7298" cy="22.9798" r="22.9798" fill="url(#paint2_linear_3959_62091)" fill-opacity="0.6"/>
</g>
<g filter="url(#filter1_i_3959_62091)">
<circle cx="25.7262" cy="22.9801" r="19.7301" fill="#FFA90A"/>
<circle cx="25.7262" cy="22.9801" r="19.7301" fill="url(#paint3_linear_3959_62091)" fill-opacity="0.1" style="mix-blend-mode:multiply"/>
</g>
<circle cx="25.7262" cy="22.9801" r="19.5008" stroke="#A66C00" style="mix-blend-mode:soft-light" stroke-width="0.45863"/>
<g filter="url(#filter2_di_3959_62091)">
<path d="M24.2539 6.54912C25.1653 5.53096 26.7594 5.53096 27.6709 6.54912L30.4203 9.62032C30.8849 10.1392 31.5601 10.4189 32.2555 10.3805L36.3713 10.1529C37.7357 10.0775 38.8629 11.2047 38.7875 12.5692L38.56 16.6849C38.5215 17.3803 38.8012 18.0555 39.3201 18.5201L42.3913 21.2695C43.4095 22.181 43.4095 23.7751 42.3913 24.6866L39.3201 27.436C38.8012 27.9005 38.5215 28.5757 38.56 29.2711L38.7875 33.3869C38.8629 34.7514 37.7357 35.8785 36.3713 35.8031L32.2555 35.5756C31.5601 35.5371 30.8849 35.8168 30.4203 36.3357L27.6709 39.4069C26.7594 40.4251 25.1653 40.4251 24.2539 39.4069L21.5044 36.3357C21.0399 35.8168 20.3647 35.5371 19.6693 35.5756L15.5535 35.8031C14.1891 35.8785 13.0619 34.7514 13.1373 33.3869L13.3648 29.2711C13.4033 28.5757 13.1236 27.9005 12.6047 27.436L9.5335 24.6866C8.51533 23.7751 8.51533 22.181 9.5335 21.2695L12.6047 18.5201C13.1236 18.0555 13.4033 17.3803 13.3648 16.6849L13.1373 12.5692C13.0619 11.2047 14.1891 10.0775 15.5535 10.1529L19.6693 10.3805C20.3647 10.4189 21.0399 10.1392 21.5044 9.62032L24.2539 6.54912Z" fill="#FFD900"/>
<path d="M24.2539 6.54912C25.1653 5.53096 26.7594 5.53096 27.6709 6.54912L30.4203 9.62032C30.8849 10.1392 31.5601 10.4189 32.2555 10.3805L36.3713 10.1529C37.7357 10.0775 38.8629 11.2047 38.7875 12.5692L38.56 16.6849C38.5215 17.3803 38.8012 18.0555 39.3201 18.5201L42.3913 21.2695C43.4095 22.181 43.4095 23.7751 42.3913 24.6866L39.3201 27.436C38.8012 27.9005 38.5215 28.5757 38.56 29.2711L38.7875 33.3869C38.8629 34.7514 37.7357 35.8785 36.3713 35.8031L32.2555 35.5756C31.5601 35.5371 30.8849 35.8168 30.4203 36.3357L27.6709 39.4069C26.7594 40.4251 25.1653 40.4251 24.2539 39.4069L21.5044 36.3357C21.0399 35.8168 20.3647 35.5371 19.6693 35.5756L15.5535 35.8031C14.1891 35.8785 13.0619 34.7514 13.1373 33.3869L13.3648 29.2711C13.4033 28.5757 13.1236 27.9005 12.6047 27.436L9.5335 24.6866C8.51533 23.7751 8.51533 22.181 9.5335 21.2695L12.6047 18.5201C13.1236 18.0555 13.4033 17.3803 13.3648 16.6849L13.1373 12.5692C13.0619 11.2047 14.1891 10.0775 15.5535 10.1529L19.6693 10.3805C20.3647 10.4189 21.0399 10.1392 21.5044 9.62032L24.2539 6.54912Z" fill="url(#paint4_linear_3959_62091)" fill-opacity="0.5" style="mix-blend-mode:hard-light"/>
<path d="M24.3389 6.62598C25.2048 5.65872 26.72 5.65872 27.5859 6.62598L30.335 9.69727C30.8227 10.2419 31.5317 10.5355 32.2617 10.4951L36.3779 10.2676C37.6739 10.1961 38.7443 11.2665 38.6729 12.5625L38.4453 16.6787C38.405 17.4087 38.6985 18.1177 39.2432 18.6055L42.3145 21.3545C43.2817 22.2204 43.2817 23.7356 42.3145 24.6016L39.2432 27.3506C38.6985 27.8383 38.405 28.5473 38.4453 29.2773L38.6729 33.3936C38.7443 34.6895 37.6739 35.7599 36.3779 35.6885L32.2617 35.4609C31.5317 35.4206 30.8227 35.7141 30.335 36.2588L27.5859 39.3301C26.72 40.2973 25.2048 40.2973 24.3389 39.3301L21.5898 36.2588C21.1021 35.7141 20.3931 35.4206 19.6631 35.4609L15.5469 35.6885C14.2509 35.7599 13.1805 34.6896 13.252 33.3936L13.4795 29.2773C13.5198 28.5473 13.2263 27.8383 12.6816 27.3506L9.61035 24.6016C8.64309 23.7356 8.64309 22.2204 9.61035 21.3545L12.6816 18.6055C13.2263 18.1177 13.5198 17.4087 13.4795 16.6787L13.252 12.5625C13.1805 11.2665 14.2509 10.1961 15.5469 10.2676L19.6631 10.4951C20.3931 10.5354 21.1021 10.2419 21.5898 9.69727L24.3389 6.62598Z" stroke="#2C1D00" style="mix-blend-mode:soft-light" stroke-width="0.229315"/>
</g>
<g filter="url(#filter3_i_3959_62091)">
<path d="M25.0089 13.5064C25.4624 12.8228 26.4661 12.8228 26.9197 13.5064L29.5114 17.4126C29.6638 17.6423 29.8937 17.8093 30.1592 17.8833L34.6752 19.1411C35.4654 19.3612 35.7756 20.3158 35.2656 20.9584L32.3515 24.6304C32.1802 24.8462 32.0923 25.1166 32.1041 25.3919L32.3033 30.0755C32.3382 30.8951 31.5261 31.4851 30.7574 31.1986L26.3646 29.5618C26.1064 29.4656 25.8222 29.4656 25.5639 29.5618L21.1711 31.1986C20.4024 31.4851 19.5904 30.8951 19.6252 30.0755L19.8245 25.3919C19.8362 25.1166 19.7484 24.8462 19.5771 24.6304L16.6629 20.9584C16.1529 20.3158 16.4631 19.3612 17.2534 19.1411L21.7693 17.8833C22.0348 17.8093 22.2648 17.6423 22.4171 17.4126L25.0089 13.5064Z" fill="#FFB01F"/>
<path d="M25.0089 13.5064C25.4624 12.8228 26.4661 12.8228 26.9197 13.5064L29.5114 17.4126C29.6638 17.6423 29.8937 17.8093 30.1592 17.8833L34.6752 19.1411C35.4654 19.3612 35.7756 20.3158 35.2656 20.9584L32.3515 24.6304C32.1802 24.8462 32.0923 25.1166 32.1041 25.3919L32.3033 30.0755C32.3382 30.8951 31.5261 31.4851 30.7574 31.1986L26.3646 29.5618C26.1064 29.4656 25.8222 29.4656 25.5639 29.5618L21.1711 31.1986C20.4024 31.4851 19.5904 30.8951 19.6252 30.0755L19.8245 25.3919C19.8362 25.1166 19.7484 24.8462 19.5771 24.6304L16.6629 20.9584C16.1529 20.3158 16.4631 19.3612 17.2534 19.1411L21.7693 17.8833C22.0348 17.8093 22.2648 17.6423 22.4171 17.4126L25.0089 13.5064Z" fill="url(#paint5_linear_3959_62091)" fill-opacity="0.2" style="mix-blend-mode:plus-lighter"/>
</g>
<path d="M25.1045 13.5693C25.5127 12.9546 26.416 12.9545 26.8242 13.5693L29.416 17.4756C29.5836 17.7282 29.8369 17.9128 30.1289 17.9941L34.6445 19.252C35.3555 19.4501 35.6345 20.3085 35.1758 20.8867L32.2617 24.5596C32.0735 24.7969 31.9764 25.0938 31.9893 25.3965L32.1885 30.0801C32.2199 30.8176 31.4896 31.3484 30.7979 31.0908L26.4043 29.4541C26.1204 29.3484 25.8073 29.3483 25.5234 29.4541L21.1309 31.0908C20.439 31.3485 19.7089 30.8177 19.7402 30.0801L19.9395 25.3965C19.9523 25.0939 19.8552 24.7969 19.667 24.5596L16.7529 20.8867C16.2941 20.3084 16.573 19.4501 17.2842 19.252L21.7998 17.9941C22.0918 17.9128 22.3451 17.7282 22.5127 17.4756L25.1045 13.5693Z" stroke="#A66C00" style="mix-blend-mode:soft-light" stroke-width="0.229315"/>
<path d="M16.8714 21.8955H18.8851V23.6716H16.8714V21.8955ZM17.872 17.6429C18.439 17.6429 18.9435 17.7471 19.3854 17.9556C19.8357 18.1557 20.1859 18.4392 20.4361 18.8061C20.6946 19.173 20.8238 19.5899 20.8238 20.0569C20.8238 20.5322 20.6946 20.9533 20.4361 21.3202C20.1859 21.6871 19.8357 21.9747 19.3854 22.1832C18.9435 22.3833 18.439 22.4834 17.872 22.4834C17.305 22.4834 16.7963 22.3833 16.346 22.1832C15.9041 21.9747 15.5539 21.6871 15.2954 21.3202C15.0452 20.9533 14.9201 20.5322 14.9201 20.0569C14.9201 19.5899 15.0452 19.173 15.2954 18.8061C15.5539 18.4392 15.9041 18.1557 16.346 17.9556C16.7963 17.7471 17.305 17.6429 17.872 17.6429ZM17.872 19.1438C17.6635 19.1438 17.4759 19.1772 17.3091 19.2439C17.1507 19.3106 17.0256 19.4148 16.9339 19.5566C16.8422 19.69 16.7963 19.8567 16.7963 20.0569C16.7963 20.2653 16.8422 20.4404 16.9339 20.5822C17.0256 20.7156 17.1507 20.8157 17.3091 20.8824C17.4759 20.9491 17.6635 20.9825 17.872 20.9825C18.0888 20.9825 18.2764 20.9491 18.4348 20.8824C18.5933 20.8157 18.7184 20.7156 18.8101 20.5822C18.9018 20.4404 18.9477 20.2653 18.9477 20.0569C18.9477 19.8567 18.9018 19.69 18.8101 19.5566C18.7184 19.4148 18.5933 19.3106 18.4348 19.2439C18.2764 19.1772 18.0888 19.1438 17.872 19.1438ZM21.812 17.2176H23.8257V26.1482H21.812V17.2176ZM23.1628 20.7448H25.1766V22.3833H23.1628V20.7448ZM15.7832 27.1738H24.2135V28.7749H15.7832V27.1738ZM15.7832 25.3852H17.8095V27.8618H15.7832V25.3852ZM14.5699 24.7473L14.3448 23.1713C14.9952 23.1713 15.7123 23.1672 16.4961 23.1588C17.28 23.1421 18.0805 23.113 18.8976 23.0713C19.7148 23.0212 20.4986 22.9462 21.2491 22.8461L21.3867 24.272C20.6112 24.4138 19.8191 24.5222 19.0102 24.5972C18.2014 24.6639 17.4175 24.7056 16.6587 24.7223C15.8999 24.739 15.2036 24.7473 14.5699 24.7473ZM25.5383 22.8086H36.1575V24.3846H25.5383V22.8086ZM29.8285 20.9574H31.8423V23.2589H29.8285V20.9574ZM26.7016 24.985H34.9317V28.95H32.918V26.561H26.7016V24.985ZM26.8016 20.3946H35.0318V21.9831H26.8016V20.3946ZM26.8016 17.6804H34.9317V19.2564H28.8029V21.2576H26.8016V17.6804Z" fill="#9F6400"/>
<defs>
<filter id="filter0_d_3959_62091" x="-0.00178218" y="0" width="51.4645" height="51.4645" filterUnits="userSpaceOnUse" color-interpolation-filters="sRGB">
<feFlood flood-opacity="0" result="BackgroundImageFix"/>
<feColorMatrix in="SourceAlpha" type="matrix" values="0 0 0 0 0 0 0 0 0 0 0 0 0 0 0 0 0 0 127 0" result="hardAlpha"/>
<feOffset dy="2.75178"/>
<feGaussianBlur stdDeviation="1.37589"/>
<feComposite in2="hardAlpha" operator="out"/>
<feColorMatrix type="matrix" values="0 0 0 0 0 0 0 0 0 0 0 0 0 0 0 0 0 0 0.15 0"/>
<feBlend mode="multiply" in2="BackgroundImageFix" result="effect1_dropShadow_3959_62091"/>
<feBlend mode="normal" in="SourceGraphic" in2="effect1_dropShadow_3959_62091" result="shape"/>
</filter>
<filter id="filter1_i_3959_62091" x="5.99609" y="3.25" width="40.3782" height="40.3782" filterUnits="userSpaceOnUse" color-interpolation-filters="sRGB">
<feFlood flood-opacity="0" result="BackgroundImageFix"/>
<feBlend mode="normal" in="SourceGraphic" in2="BackgroundImageFix" result="shape"/>
<feColorMatrix in="SourceAlpha" type="matrix" values="0 0 0 0 0 0 0 0 0 0 0 0 0 0 0 0 0 0 127 0" result="hardAlpha"/>
<feOffset dx="0.917261" dy="0.917261"/>
<feGaussianBlur stdDeviation="0.45863"/>
<feComposite in2="hardAlpha" operator="arithmetic" k2="-1" k3="1"/>
<feColorMatrix type="matrix" values="0 0 0 0 0.879808 0 0 0 0 0.756672 0 0 0 0 0.510401 0 0 0 0.5 0"/>
<feBlend mode="multiply" in2="shape" result="effect1_innerShadow_3959_62091"/>
</filter>
<filter id="filter2_di_3959_62091" x="7.85227" y="5.32653" width="36.2212" height="36.2212" filterUnits="userSpaceOnUse" color-interpolation-filters="sRGB">
<feFlood flood-opacity="0" result="BackgroundImageFix"/>
<feColorMatrix in="SourceAlpha" type="matrix" values="0 0 0 0 0 0 0 0 0 0 0 0 0 0 0 0 0 0 127 0" result="hardAlpha"/>
<feOffset dy="0.45863"/>
<feGaussianBlur stdDeviation="0.45863"/>
<feComposite in2="hardAlpha" operator="out"/>
<feColorMatrix type="matrix" values="0 0 0 0 0.748397 0 0 0 0 0.592848 0 0 0 0 0 0 0 0 0.5 0"/>
<feBlend mode="multiply" in2="BackgroundImageFix" result="effect1_dropShadow_3959_62091"/>
<feBlend mode="normal" in="SourceGraphic" in2="effect1_dropShadow_3959_62091" result="shape"/>
<feColorMatrix in="SourceAlpha" type="matrix" values="0 0 0 0 0 0 0 0 0 0 0 0 0 0 0 0 0 0 127 0" result="hardAlpha"/>
<feOffset dx="0.917261" dy="0.917261"/>
<feGaussianBlur stdDeviation="0.45863"/>
<feComposite in2="hardAlpha" operator="arithmetic" k2="-1" k3="1"/>
<feColorMatrix type="matrix" values="0 0 0 0 1 0 0 0 0 1 0 0 0 0 1 0 0 0 0.15 0"/>
<feBlend mode="normal" in2="shape" result="effect2_innerShadow_3959_62091"/>
</filter>
<filter id="filter3_i_3959_62091" x="16.4141" y="12.9922" width="19.3309" height="18.7399" filterUnits="userSpaceOnUse" color-interpolation-filters="sRGB">
<feFlood flood-opacity="0" result="BackgroundImageFix"/>
<feBlend mode="normal" in="SourceGraphic" in2="BackgroundImageFix" result="shape"/>
<feColorMatrix in="SourceAlpha" type="matrix" values="0 0 0 0 0 0 0 0 0 0 0 0 0 0 0 0 0 0 127 0" result="hardAlpha"/>
<feOffset dx="0.229315" dy="0.45863"/>
<feGaussianBlur stdDeviation="0.229315"/>
<feComposite in2="hardAlpha" operator="arithmetic" k2="-1" k3="1"/>
<feColorMatrix type="matrix" values="0 0 0 0 0.908654 0 0 0 0 0.719796 0 0 0 0 0 0 0 0 0.5 0"/>
<feBlend mode="multiply" in2="shape" result="effect1_innerShadow_3959_62091"/>
</filter>
<linearGradient id="paint0_linear_3959_62091" x1="14.1044" y1="50.5011" x2="10.4006" y2="37.4945" gradientUnits="userSpaceOnUse">
<stop stop-color="white" stop-opacity="0"/>
<stop offset="1" stop-color="white"/>
</linearGradient>
<linearGradient id="paint1_linear_3959_62091" x1="37.2627" y1="50.5011" x2="40.9666" y2="37.4945" gradientUnits="userSpaceOnUse">
<stop stop-color="white" stop-opacity="0"/>
<stop offset="1" stop-color="white"/>
</linearGradient>
<linearGradient id="paint2_linear_3959_62091" x1="41.7943" y1="39.789" x2="12.6441" y2="5.31939" gradientUnits="userSpaceOnUse">
<stop stop-color="#FFF583" stop-opacity="0"/>
<stop offset="1" stop-color="#FFF583"/>
</linearGradient>
<linearGradient id="paint3_linear_3959_62091" x1="39.5599" y1="37.2674" x2="12.7996" y2="7.67226" gradientUnits="userSpaceOnUse">
<stop stop-color="#E39E20" stop-opacity="0"/>
<stop offset="1" stop-color="#E39E20"/>
</linearGradient>
<linearGradient id="paint4_linear_3959_62091" x1="25.9624" y1="4.64062" x2="25.9624" y2="41.3154" gradientUnits="userSpaceOnUse">
<stop stop-color="#FF6600" stop-opacity="0"/>
<stop offset="1" stop-color="#E15A00"/>
</linearGradient>
<linearGradient id="paint5_linear_3959_62091" x1="25.9643" y1="33.8856" x2="25.9643" y2="12.0664" gradientUnits="userSpaceOnUse">
<stop stop-color="white" stop-opacity="0"/>
<stop offset="1" stop-color="white"/>
</linearGradient>
</defs>
</svg>
