<svg width="52" height="62" viewBox="0 0 52 62" fill="none" xmlns="http://www.w3.org/2000/svg">
<path d="M25.9652 10.1225C26.2185 9.68378 26.7795 9.53346 27.2182 9.78676L39.0567 16.6217C39.4954 16.875 39.6457 17.436 39.3924 17.8747L15.1433 59.8755C14.7436 60.5678 13.7112 60.4531 13.4733 59.6899L11.2093 52.4287C11.067 51.9725 10.5984 51.7019 10.1322 51.8068L2.71182 53.4767C1.9319 53.6523 1.31635 52.8156 1.71606 52.1232L25.9652 10.1225Z" fill="#FE862B"/>
<path d="M25.9652 10.1225C26.2185 9.68378 26.7795 9.53346 27.2182 9.78676L39.0567 16.6217C39.4954 16.875 39.6457 17.436 39.3924 17.8747L15.1433 59.8755C14.7436 60.5678 13.7112 60.4531 13.4733 59.6899L11.2093 52.4287C11.067 51.9725 10.5984 51.7019 10.1322 51.8068L2.71182 53.4767C1.9319 53.6523 1.31635 52.8156 1.71606 52.1232L25.9652 10.1225Z" fill="url(#paint0_linear_2846_6328)" fill-opacity="0.2"/>
<path d="M25.4039 10.1225C25.1506 9.68378 24.5897 9.53346 24.1509 9.78676L12.3124 16.6217C11.8737 16.875 11.7234 17.436 11.9767 17.8747L36.2258 59.8755C36.6256 60.5678 37.6579 60.4531 37.8959 59.6899L40.1599 52.4287C40.3021 51.9725 40.7708 51.7019 41.2369 51.8068L48.6573 53.4767C49.4372 53.6523 50.0528 52.8156 49.6531 52.1232L25.4039 10.1225Z" fill="#FE862B"/>
<path d="M25.4039 10.1225C25.1506 9.68378 24.5897 9.53346 24.1509 9.78676L12.3124 16.6217C11.8737 16.875 11.7234 17.436 11.9767 17.8747L36.2258 59.8755C36.6256 60.5678 37.6579 60.4531 37.8959 59.6899L40.1599 52.4287C40.3021 51.9725 40.7708 51.7019 41.2369 51.8068L48.6573 53.4767C49.4372 53.6523 50.0528 52.8156 49.6531 52.1232L25.4039 10.1225Z" fill="url(#paint1_linear_2846_6328)" fill-opacity="0.2"/>
<g filter="url(#filter0_d_2846_6328)">
<circle cx="25.7317" cy="22.9798" r="22.9798" fill="#FFD900"/>
<circle cx="25.7317" cy="22.9798" r="22.9798" fill="url(#paint2_linear_2846_6328)" fill-opacity="0.6"/>
</g>
<g filter="url(#filter1_i_2846_6328)">
<circle cx="25.7281" cy="22.9801" r="19.7301" fill="#FFA90A"/>
<circle cx="25.7281" cy="22.9801" r="19.7301" fill="url(#paint3_linear_2846_6328)" fill-opacity="0.1" style="mix-blend-mode:multiply"/>
</g>
<circle cx="25.7281" cy="22.9801" r="19.5008" stroke="#A66C00" style="mix-blend-mode:soft-light" stroke-width="0.45863"/>
<g filter="url(#filter2_di_2846_6328)">
<path d="M24.2578 6.54912C25.1693 5.53096 26.7633 5.53096 27.6748 6.54912L30.4242 9.62032C30.8888 10.1392 31.564 10.4189 32.2594 10.3805L36.3752 10.1529C37.7396 10.0775 38.8668 11.2047 38.7914 12.5692L38.5639 16.6849C38.5254 17.3803 38.8051 18.0555 39.324 18.5201L42.3952 21.2695C43.4134 22.181 43.4134 23.7751 42.3952 24.6866L39.324 27.436C38.8051 27.9005 38.5254 28.5757 38.5639 29.2711L38.7914 33.3869C38.8668 34.7514 37.7396 35.8785 36.3752 35.8031L32.2594 35.5756C31.564 35.5371 30.8888 35.8168 30.4242 36.3357L27.6748 39.4069C26.7633 40.4251 25.1693 40.4251 24.2578 39.4069L21.5083 36.3357C21.0438 35.8168 20.3686 35.5371 19.6732 35.5756L15.5574 35.8031C14.193 35.8785 13.0658 34.7514 13.1412 33.3869L13.3687 29.2711C13.4072 28.5757 13.1275 27.9005 12.6086 27.436L9.53741 24.6866C8.51924 23.7751 8.51924 22.181 9.53741 21.2695L12.6086 18.5201C13.1275 18.0555 13.4072 17.3803 13.3687 16.6849L13.1412 12.5692C13.0658 11.2047 14.193 10.0775 15.5574 10.1529L19.6732 10.3805C20.3686 10.4189 21.0438 10.1392 21.5083 9.62032L24.2578 6.54912Z" fill="#FFD900"/>
<path d="M24.2578 6.54912C25.1693 5.53096 26.7633 5.53096 27.6748 6.54912L30.4242 9.62032C30.8888 10.1392 31.564 10.4189 32.2594 10.3805L36.3752 10.1529C37.7396 10.0775 38.8668 11.2047 38.7914 12.5692L38.5639 16.6849C38.5254 17.3803 38.8051 18.0555 39.324 18.5201L42.3952 21.2695C43.4134 22.181 43.4134 23.7751 42.3952 24.6866L39.324 27.436C38.8051 27.9005 38.5254 28.5757 38.5639 29.2711L38.7914 33.3869C38.8668 34.7514 37.7396 35.8785 36.3752 35.8031L32.2594 35.5756C31.564 35.5371 30.8888 35.8168 30.4242 36.3357L27.6748 39.4069C26.7633 40.4251 25.1693 40.4251 24.2578 39.4069L21.5083 36.3357C21.0438 35.8168 20.3686 35.5371 19.6732 35.5756L15.5574 35.8031C14.193 35.8785 13.0658 34.7514 13.1412 33.3869L13.3687 29.2711C13.4072 28.5757 13.1275 27.9005 12.6086 27.436L9.53741 24.6866C8.51924 23.7751 8.51924 22.181 9.53741 21.2695L12.6086 18.5201C13.1275 18.0555 13.4072 17.3803 13.3687 16.6849L13.1412 12.5692C13.0658 11.2047 14.193 10.0775 15.5574 10.1529L19.6732 10.3805C20.3686 10.4189 21.0438 10.1392 21.5083 9.62032L24.2578 6.54912Z" fill="url(#paint4_linear_2846_6328)" fill-opacity="0.5" style="mix-blend-mode:hard-light"/>
<path d="M24.3428 6.62598C25.2087 5.65872 26.7239 5.65872 27.5898 6.62598L30.3389 9.69727C30.8266 10.2419 31.5356 10.5355 32.2656 10.4951L36.3818 10.2676C37.6778 10.1961 38.7482 11.2665 38.6768 12.5625L38.4492 16.6787C38.4089 17.4087 38.7024 18.1177 39.2471 18.6055L42.3184 21.3545C43.2856 22.2204 43.2856 23.7356 42.3184 24.6016L39.2471 27.3506C38.7024 27.8383 38.4089 28.5473 38.4492 29.2773L38.6768 33.3936C38.7482 34.6895 37.6778 35.7599 36.3818 35.6885L32.2656 35.4609C31.5356 35.4206 30.8266 35.7141 30.3389 36.2588L27.5898 39.3301C26.7239 40.2973 25.2087 40.2973 24.3428 39.3301L21.5938 36.2588C21.106 35.7141 20.397 35.4206 19.667 35.4609L15.5508 35.6885C14.2548 35.7599 13.1844 34.6896 13.2559 33.3936L13.4834 29.2773C13.5237 28.5473 13.2302 27.8383 12.6855 27.3506L9.61426 24.6016C8.647 23.7356 8.647 22.2204 9.61426 21.3545L12.6855 18.6055C13.2302 18.1177 13.5237 17.4087 13.4834 16.6787L13.2559 12.5625C13.1844 11.2665 14.2548 10.1961 15.5508 10.2676L19.667 10.4951C20.397 10.5354 21.106 10.2419 21.5938 9.69727L24.3428 6.62598Z" stroke="#2C1D00" style="mix-blend-mode:soft-light" stroke-width="0.229315"/>
</g>
<g filter="url(#filter3_i_2846_6328)">
<path d="M25.0089 13.5064C25.4624 12.8228 26.4661 12.8228 26.9197 13.5064L29.5114 17.4126C29.6638 17.6423 29.8937 17.8093 30.1592 17.8833L34.6752 19.1411C35.4654 19.3612 35.7756 20.3158 35.2656 20.9584L32.3515 24.6304C32.1802 24.8462 32.0923 25.1166 32.1041 25.3919L32.3033 30.0755C32.3382 30.8951 31.5261 31.4851 30.7574 31.1986L26.3646 29.5618C26.1064 29.4656 25.8222 29.4656 25.5639 29.5618L21.1711 31.1986C20.4024 31.4851 19.5904 30.8951 19.6252 30.0755L19.8245 25.3919C19.8362 25.1166 19.7484 24.8462 19.5771 24.6304L16.6629 20.9584C16.1529 20.3158 16.4631 19.3612 17.2534 19.1411L21.7693 17.8833C22.0348 17.8093 22.2648 17.6423 22.4171 17.4126L25.0089 13.5064Z" fill="#FFB01F"/>
<path d="M25.0089 13.5064C25.4624 12.8228 26.4661 12.8228 26.9197 13.5064L29.5114 17.4126C29.6638 17.6423 29.8937 17.8093 30.1592 17.8833L34.6752 19.1411C35.4654 19.3612 35.7756 20.3158 35.2656 20.9584L32.3515 24.6304C32.1802 24.8462 32.0923 25.1166 32.1041 25.3919L32.3033 30.0755C32.3382 30.8951 31.5261 31.4851 30.7574 31.1986L26.3646 29.5618C26.1064 29.4656 25.8222 29.4656 25.5639 29.5618L21.1711 31.1986C20.4024 31.4851 19.5904 30.8951 19.6252 30.0755L19.8245 25.3919C19.8362 25.1166 19.7484 24.8462 19.5771 24.6304L16.6629 20.9584C16.1529 20.3158 16.4631 19.3612 17.2534 19.1411L21.7693 17.8833C22.0348 17.8093 22.2648 17.6423 22.4171 17.4126L25.0089 13.5064Z" fill="url(#paint5_linear_2846_6328)" fill-opacity="0.2" style="mix-blend-mode:plus-lighter"/>
</g>
<path d="M25.1045 13.5693C25.5127 12.9546 26.416 12.9545 26.8242 13.5693L29.416 17.4756C29.5836 17.7282 29.8369 17.9128 30.1289 17.9941L34.6445 19.252C35.3555 19.4501 35.6345 20.3085 35.1758 20.8867L32.2617 24.5596C32.0735 24.7969 31.9764 25.0938 31.9893 25.3965L32.1885 30.0801C32.2199 30.8176 31.4896 31.3484 30.7979 31.0908L26.4043 29.4541C26.1204 29.3484 25.8073 29.3483 25.5234 29.4541L21.1309 31.0908C20.439 31.3485 19.7089 30.8177 19.7402 30.0801L19.9395 25.3965C19.9523 25.0939 19.8552 24.7969 19.667 24.5596L16.7529 20.8867C16.2941 20.3084 16.573 19.4501 17.2842 19.252L21.7998 17.9941C22.0918 17.9128 22.3451 17.7282 22.5127 17.4756L25.1045 13.5693Z" stroke="#A66C00" style="mix-blend-mode:soft-light" stroke-width="0.229315"/>
<path d="M16.8733 21.8955H18.8871V23.6716H16.8733V21.8955ZM17.8739 17.6429C18.441 17.6429 18.9455 17.7471 19.3874 17.9556C19.8377 18.1557 20.1879 18.4392 20.4381 18.8061C20.6966 19.173 20.8258 19.5899 20.8258 20.0569C20.8258 20.5322 20.6966 20.9533 20.4381 21.3202C20.1879 21.6871 19.8377 21.9747 19.3874 22.1832C18.9455 22.3833 18.441 22.4834 17.8739 22.4834C17.3069 22.4834 16.7983 22.3833 16.348 22.1832C15.906 21.9747 15.5558 21.6871 15.2973 21.3202C15.0472 20.9533 14.9221 20.5322 14.9221 20.0569C14.9221 19.5899 15.0472 19.173 15.2973 18.8061C15.5558 18.4392 15.906 18.1557 16.348 17.9556C16.7983 17.7471 17.3069 17.6429 17.8739 17.6429ZM17.8739 19.1438C17.6655 19.1438 17.4779 19.1772 17.3111 19.2439C17.1527 19.3106 17.0276 19.4148 16.9359 19.5566C16.8441 19.69 16.7983 19.8567 16.7983 20.0569C16.7983 20.2653 16.8441 20.4404 16.9359 20.5822C17.0276 20.7156 17.1527 20.8157 17.3111 20.8824C17.4779 20.9491 17.6655 20.9825 17.8739 20.9825C18.0907 20.9825 18.2784 20.9491 18.4368 20.8824C18.5952 20.8157 18.7203 20.7156 18.812 20.5822C18.9038 20.4404 18.9496 20.2653 18.9496 20.0569C18.9496 19.8567 18.9038 19.69 18.812 19.5566C18.7203 19.4148 18.5952 19.3106 18.4368 19.2439C18.2784 19.1772 18.0907 19.1438 17.8739 19.1438ZM21.8139 17.2176H23.8277V26.1482H21.8139V17.2176ZM23.1648 20.7448H25.1785V22.3833H23.1648V20.7448ZM15.7851 27.1738H24.2154V28.7749H15.7851V27.1738ZM15.7851 25.3852H17.8114V27.8618H15.7851V25.3852ZM14.5719 24.7473L14.3467 23.1713C14.9971 23.1713 15.7143 23.1672 16.4981 23.1588C17.2819 23.1421 18.0824 23.113 18.8996 23.0713C19.7168 23.0212 20.5006 22.9462 21.2511 22.8461L21.3887 24.272C20.6132 24.4138 19.821 24.5222 19.0122 24.5972C18.2033 24.6639 17.4195 24.7056 16.6607 24.7223C15.9019 24.739 15.2056 24.7473 14.5719 24.7473ZM25.5403 22.8086H36.1595V24.3846H25.5403V22.8086ZM29.8305 20.9574H31.8443V23.2589H29.8305V20.9574ZM26.7035 24.985H34.9337V28.95H32.9199V26.561H26.7035V24.985ZM26.8036 20.3946H35.0338V21.9831H26.8036V20.3946ZM26.8036 17.6804H34.9337V19.2564H28.8048V21.2576H26.8036V17.6804Z" fill="#9F6400"/>
<defs>
<filter id="filter0_d_2846_6328" x="0.000170946" y="0" width="51.4625" height="51.4645" filterUnits="userSpaceOnUse" color-interpolation-filters="sRGB">
<feFlood flood-opacity="0" result="BackgroundImageFix"/>
<feColorMatrix in="SourceAlpha" type="matrix" values="0 0 0 0 0 0 0 0 0 0 0 0 0 0 0 0 0 0 127 0" result="hardAlpha"/>
<feOffset dy="2.75178"/>
<feGaussianBlur stdDeviation="1.37589"/>
<feComposite in2="hardAlpha" operator="out"/>
<feColorMatrix type="matrix" values="0 0 0 0 0 0 0 0 0 0 0 0 0 0 0 0 0 0 0.15 0"/>
<feBlend mode="multiply" in2="BackgroundImageFix" result="effect1_dropShadow_2846_6328"/>
<feBlend mode="normal" in="SourceGraphic" in2="effect1_dropShadow_2846_6328" result="shape"/>
</filter>
<filter id="filter1_i_2846_6328" x="5.99805" y="3.25" width="40.3782" height="40.3782" filterUnits="userSpaceOnUse" color-interpolation-filters="sRGB">
<feFlood flood-opacity="0" result="BackgroundImageFix"/>
<feBlend mode="normal" in="SourceGraphic" in2="BackgroundImageFix" result="shape"/>
<feColorMatrix in="SourceAlpha" type="matrix" values="0 0 0 0 0 0 0 0 0 0 0 0 0 0 0 0 0 0 127 0" result="hardAlpha"/>
<feOffset dx="0.917261" dy="0.917261"/>
<feGaussianBlur stdDeviation="0.45863"/>
<feComposite in2="hardAlpha" operator="arithmetic" k2="-1" k3="1"/>
<feColorMatrix type="matrix" values="0 0 0 0 0.879808 0 0 0 0 0.756672 0 0 0 0 0.510401 0 0 0 0.5 0"/>
<feBlend mode="multiply" in2="shape" result="effect1_innerShadow_2846_6328"/>
</filter>
<filter id="filter2_di_2846_6328" x="7.85618" y="5.32653" width="36.2193" height="36.2212" filterUnits="userSpaceOnUse" color-interpolation-filters="sRGB">
<feFlood flood-opacity="0" result="BackgroundImageFix"/>
<feColorMatrix in="SourceAlpha" type="matrix" values="0 0 0 0 0 0 0 0 0 0 0 0 0 0 0 0 0 0 127 0" result="hardAlpha"/>
<feOffset dy="0.45863"/>
<feGaussianBlur stdDeviation="0.45863"/>
<feComposite in2="hardAlpha" operator="out"/>
<feColorMatrix type="matrix" values="0 0 0 0 0.748397 0 0 0 0 0.592848 0 0 0 0 0 0 0 0 0.5 0"/>
<feBlend mode="multiply" in2="BackgroundImageFix" result="effect1_dropShadow_2846_6328"/>
<feBlend mode="normal" in="SourceGraphic" in2="effect1_dropShadow_2846_6328" result="shape"/>
<feColorMatrix in="SourceAlpha" type="matrix" values="0 0 0 0 0 0 0 0 0 0 0 0 0 0 0 0 0 0 127 0" result="hardAlpha"/>
<feOffset dx="0.917261" dy="0.917261"/>
<feGaussianBlur stdDeviation="0.45863"/>
<feComposite in2="hardAlpha" operator="arithmetic" k2="-1" k3="1"/>
<feColorMatrix type="matrix" values="0 0 0 0 1 0 0 0 0 1 0 0 0 0 1 0 0 0 0.15 0"/>
<feBlend mode="normal" in2="shape" result="effect2_innerShadow_2846_6328"/>
</filter>
<filter id="filter3_i_2846_6328" x="16.4141" y="12.9922" width="19.3309" height="18.7399" filterUnits="userSpaceOnUse" color-interpolation-filters="sRGB">
<feFlood flood-opacity="0" result="BackgroundImageFix"/>
<feBlend mode="normal" in="SourceGraphic" in2="BackgroundImageFix" result="shape"/>
<feColorMatrix in="SourceAlpha" type="matrix" values="0 0 0 0 0 0 0 0 0 0 0 0 0 0 0 0 0 0 127 0" result="hardAlpha"/>
<feOffset dx="0.229315" dy="0.45863"/>
<feGaussianBlur stdDeviation="0.229315"/>
<feComposite in2="hardAlpha" operator="arithmetic" k2="-1" k3="1"/>
<feColorMatrix type="matrix" values="0 0 0 0 0.908654 0 0 0 0 0.719796 0 0 0 0 0 0 0 0 0.5 0"/>
<feBlend mode="multiply" in2="shape" result="effect1_innerShadow_2846_6328"/>
</filter>
<linearGradient id="paint0_linear_2846_6328" x1="14.1064" y1="50.5011" x2="10.4026" y2="37.4945" gradientUnits="userSpaceOnUse">
<stop stop-color="white" stop-opacity="0"/>
<stop offset="1" stop-color="white"/>
</linearGradient>
<linearGradient id="paint1_linear_2846_6328" x1="37.2627" y1="50.5011" x2="40.9666" y2="37.4945" gradientUnits="userSpaceOnUse">
<stop stop-color="white" stop-opacity="0"/>
<stop offset="1" stop-color="white"/>
</linearGradient>
<linearGradient id="paint2_linear_2846_6328" x1="41.7963" y1="39.789" x2="12.646" y2="5.31939" gradientUnits="userSpaceOnUse">
<stop stop-color="#FFF583" stop-opacity="0"/>
<stop offset="1" stop-color="#FFF583"/>
</linearGradient>
<linearGradient id="paint3_linear_2846_6328" x1="39.5619" y1="37.2674" x2="12.8015" y2="7.67226" gradientUnits="userSpaceOnUse">
<stop stop-color="#E39E20" stop-opacity="0"/>
<stop offset="1" stop-color="#E39E20"/>
</linearGradient>
<linearGradient id="paint4_linear_2846_6328" x1="25.9663" y1="4.64062" x2="25.9663" y2="41.3154" gradientUnits="userSpaceOnUse">
<stop stop-color="#FF6600" stop-opacity="0"/>
<stop offset="1" stop-color="#E15A00"/>
</linearGradient>
<linearGradient id="paint5_linear_2846_6328" x1="25.9643" y1="33.8856" x2="25.9643" y2="12.0664" gradientUnits="userSpaceOnUse">
<stop stop-color="white" stop-opacity="0"/>
<stop offset="1" stop-color="white"/>
</linearGradient>
</defs>
</svg>
