<svg width="24" height="24" viewBox="0 0 24 24" fill="none" xmlns="http://www.w3.org/2000/svg">
<path d="M3.42857 0C1.5375 0 0 1.5375 0 3.42857V20.5714C0 22.4625 1.5375 24 3.42857 24H20.5714C22.4625 24 24 22.4625 24 20.5714V3.42857C24 1.5375 22.4625 0 20.5714 0H3.42857ZM17.4536 5.76964L18.225 6.54107C19.0607 7.37679 19.0607 8.73214 18.225 9.57321L17.0786 10.7196L13.275 6.91607L14.4214 5.76964C15.2571 4.93393 16.6125 4.93393 17.4536 5.76964ZM6.42321 13.7679L12.0589 8.13214L15.8625 11.9357L10.2268 17.5661C10.0071 17.7857 9.73393 17.9411 9.42857 18.0161L6.20893 18.8196C5.91429 18.8946 5.60893 18.8089 5.39464 18.5946C5.18036 18.3804 5.09464 18.075 5.16964 17.7804L5.97321 14.5607C6.04821 14.2607 6.20357 13.9821 6.42321 13.7625V13.7679Z" fill="white" fill-opacity="0.4"/>
<path d="M3.42871 0.5H20.5713C22.1862 0.5 23.5 1.81378 23.5 3.42871V20.5713C23.5 22.1862 22.1862 23.5 20.5713 23.5H3.42871C1.81378 23.5 0.5 22.1862 0.5 20.5713V3.42871C0.5 1.81378 1.81378 0.5 3.42871 0.5ZM6.92285 12.5605V12.5557L6.06934 13.4092C5.81998 13.6586 5.63604 13.9649 5.5293 14.2959L5.48828 14.4395L4.68457 17.6592C4.56653 18.126 4.70396 18.6112 5.04102 18.9482C5.37791 19.2851 5.86245 19.4214 6.3291 19.3037L6.33008 19.3047L9.54688 18.501L9.54785 18.502C9.94255 18.405 10.2965 18.2034 10.5801 17.9199L16.2158 12.2891L16.5693 11.9355L12.0586 7.4248L6.92285 12.5605ZM17.6045 5.23438C16.564 4.3903 15.0355 4.44916 14.0684 5.41602L12.5684 6.91602L12.9219 7.26953L16.7246 11.0732L17.0781 11.4268L18.5781 9.92676L18.5801 9.92578C19.6088 8.89032 19.6097 7.21906 18.5781 6.1875L17.8057 5.41504L17.6045 5.23438Z" stroke="white" stroke-opacity="0.6"/>
</svg>
