<svg width="22" height="22" viewBox="0 0 22 22" fill="none" xmlns="http://www.w3.org/2000/svg">
<g clip-path="url(#clip0_3959_19834)">
<g filter="url(#filter0_f_3959_19834)">
<path d="M13.4423 4.7816C8.24783 3.86401 6.10894 5.08726 4.88672 9.71863V10.6347C5.9347 14.5458 6.4145 15.2181 11.3034 15.218C17.4145 15.218 16.9052 11.5517 17.1089 9.71855C17.1089 9.31115 16.1869 5.26643 13.4423 4.7816Z" fill="#FFC30F"/>
</g>
<path d="M13.4423 4.7816C8.24783 3.86401 6.10894 5.08726 4.88672 9.71863V10.6347C5.9347 14.5458 6.4145 15.2181 11.3034 15.218C17.4145 15.218 16.9052 11.5517 17.1089 9.71855C17.1089 9.31115 16.1869 5.26643 13.4423 4.7816Z" fill="#FFC30F"/>
<path d="M5.75986 13.6647C5.18668 12.7261 4.88448 11.6471 4.88673 10.5473C4.88673 7.20603 7.62298 4.49805 10.9978 4.49805C14.3727 4.49805 17.109 7.20603 17.109 10.5473C17.1112 11.6471 16.809 12.7261 16.2358 13.6647" stroke="black" stroke-width="0.916667" stroke-linecap="round"/>
<path d="M13.2915 17.485L13.1922 17.9793C13.0853 18.5193 13.031 18.789 12.9096 19.0029C12.7224 19.3325 12.4194 19.5808 12.0594 19.6995C11.8264 19.7767 11.5498 19.7767 10.9998 19.7767C10.4498 19.7767 10.1733 19.7767 9.94033 19.7003C9.58019 19.5814 9.27714 19.3328 9.09013 19.0029C8.96867 18.789 8.91443 18.5193 8.80749 17.9793L8.70818 17.485M7.47297 16.0321C7.40269 15.8213 7.36756 15.7151 7.37138 15.6295C7.3757 15.5411 7.40556 15.4558 7.45734 15.3839C7.50913 15.3121 7.58062 15.2568 7.66318 15.2247C7.74263 15.1934 7.85415 15.1934 8.07568 15.1934H13.924C14.1463 15.1934 14.2571 15.1934 14.3365 15.2239C14.4192 15.256 14.4908 15.3115 14.5426 15.3835C14.5944 15.4555 14.6241 15.5409 14.6283 15.6295C14.6321 15.7151 14.597 15.8205 14.5267 16.0321C14.3969 16.4225 14.3319 16.618 14.2319 16.7761C14.0226 17.1066 13.6945 17.3442 13.3152 17.44C13.1334 17.485 12.9287 17.485 12.5185 17.485H9.48124C9.07103 17.485 8.86554 17.485 8.6845 17.4392C8.30535 17.3436 7.97728 17.1063 7.76783 16.7761C7.66776 16.618 7.60283 16.4225 7.47297 16.0321Z" stroke="black" stroke-width="0.916667"/>
<path d="M10.9961 15.1925V11.373" stroke="black" stroke-width="0.916667" stroke-linecap="round" stroke-linejoin="round"/>
<g filter="url(#filter1_f_3959_19834)">
<path d="M6.76837 9.6229C6.27196 7.51031 8.71225 5.97139 9.99557 5.98613C11.2789 6.00086 11.3277 7.26632 10.8419 7.37619C9.06743 7.40297 8.38752 8.50672 8.07552 9.83711C7.66069 10.2627 6.98181 10.5313 6.76837 9.6229Z" fill="white"/>
</g>
<path opacity="0.6" d="M10.999 2.44531C15.3865 2.44531 18.9432 6.00218 18.9434 10.3896C18.9434 11.1787 18.8265 11.9407 18.6123 12.6602H18.0195C18.2507 11.9449 18.376 11.1818 18.376 10.3896C18.3758 6.31558 15.0731 3.0127 10.999 3.0127C6.92497 3.01275 3.62222 6.31562 3.62207 10.3896C3.62207 11.1819 3.74833 11.9449 3.97949 12.6602H3.38574C3.17152 11.9407 3.05469 11.1787 3.05469 10.3896C3.05484 6.00222 6.61157 2.44537 10.999 2.44531Z" fill="#FFC30F"/>
</g>
<defs>
<filter id="filter0_f_3959_19834" x="0.0589409" y="-0.329731" width="21.8782" height="20.3763" filterUnits="userSpaceOnUse" color-interpolation-filters="sRGB">
<feFlood flood-opacity="0" result="BackgroundImageFix"/>
<feBlend mode="normal" in="SourceGraphic" in2="BackgroundImageFix" result="shape"/>
<feGaussianBlur stdDeviation="2.41389" result="effect1_foregroundBlur_3959_19834"/>
</filter>
<filter id="filter1_f_3959_19834" x="6.5809" y="5.86411" width="4.66632" height="4.48859" filterUnits="userSpaceOnUse" color-interpolation-filters="sRGB">
<feFlood flood-opacity="0" result="BackgroundImageFix"/>
<feBlend mode="normal" in="SourceGraphic" in2="BackgroundImageFix" result="shape"/>
<feGaussianBlur stdDeviation="0.0611111" result="effect1_foregroundBlur_3959_19834"/>
</filter>
<clipPath id="clip0_3959_19834">
<rect width="22" height="22" fill="white"/>
</clipPath>
</defs>
</svg>
