<svg width="22" height="22" viewBox="0 0 22 22" fill="none" xmlns="http://www.w3.org/2000/svg">
<path d="M14.3628 11.9245C12.1628 13.1742 7.33507 12.4452 5.19618 11.9245L4.89062 11.9241C5.9386 14.7806 9.60506 15.346 11.3073 15.2716C15.4628 15.2716 16.9091 12.5938 17.1128 11.255C17.1128 10.9574 16.5628 10.6747 14.3628 11.9245Z" fill="#FFC30F"/>
<path d="M5.76376 13.444C5.19058 12.5054 4.88839 11.4264 4.89064 10.3266C4.89064 6.98533 7.62689 4.27734 11.0017 4.27734C14.3766 4.27734 17.1129 6.98533 17.1129 10.3266C17.1151 11.4264 16.8129 12.5054 16.2397 13.444" stroke="black" stroke-width="0.916667" stroke-linecap="round"/>
<path d="M13.2954 17.2643L13.1961 17.7586C13.0892 18.2986 13.0349 18.5683 12.9135 18.7822C12.7263 19.1118 12.4233 19.3601 12.0633 19.4788C11.8303 19.556 11.5538 19.556 11.0038 19.556C10.4538 19.556 10.1772 19.556 9.94424 19.4796C9.58409 19.3607 9.28104 19.1121 9.09403 18.7822C8.97257 18.5683 8.91834 18.2986 8.81139 17.7586L8.71209 17.2643M7.47688 15.8114C7.4066 15.6006 7.37146 15.4944 7.37528 15.4088C7.3796 15.3204 7.40946 15.2351 7.46125 15.1632C7.51304 15.0914 7.58453 15.0361 7.66709 15.004C7.74653 14.9727 7.85806 14.9727 8.07959 14.9727H13.9279C14.1502 14.9727 14.261 14.9727 14.3404 15.0032C14.4231 15.0353 14.4947 15.0908 14.5465 15.1628C14.5983 15.2348 14.628 15.3202 14.6322 15.4088C14.636 15.4944 14.6009 15.5998 14.5306 15.8114C14.4008 16.2018 14.3358 16.3973 14.2358 16.5554C14.0265 16.8859 13.6984 17.1235 13.3191 17.2193C13.1373 17.2643 12.9326 17.2643 12.5224 17.2643H9.48514C9.07493 17.2643 8.86945 17.2643 8.68841 17.2185C8.30926 17.1229 7.98119 16.8856 7.77174 16.5554C7.67167 16.3973 7.60674 16.2018 7.47688 15.8114Z" stroke="black" stroke-width="0.916667"/>
<path d="M11 14.9718V11.1523" stroke="black" stroke-width="0.916667" stroke-linecap="round" stroke-linejoin="round"/>
</svg>
