<svg width="76" height="68" viewBox="0 0 76 68" fill="none" xmlns="http://www.w3.org/2000/svg">
<g filter="url(#filter0_d_3959_19448)">
<mask id="path-1-outside-1_3959_19448" maskUnits="userSpaceOnUse" x="5" y="11" width="66" height="46" fill="black">
<rect fill="white" x="5" y="11" width="66" height="46"/>
<path fill-rule="evenodd" clip-rule="evenodd" d="M36.6758 14.2746C37.5808 13.9085 38.593 13.9085 39.498 14.2746L65.9229 25.381C67.8812 26.2038 67.8927 28.3124 65.9414 29.1466L58.4619 32.339C59.0003 36.1463 58.9389 40.0243 58.2646 43.8293C58.0874 44.852 57.692 45.8244 57.1055 46.6808C56.5188 47.5374 55.755 48.2582 54.8652 48.7931C50.5858 51.3545 44.4244 53.9563 36.958 53.7296C31.1994 53.5363 25.5944 51.8219 20.7129 48.7609C19.8873 48.2418 19.1758 47.5601 18.6211 46.758C18.0664 45.9558 17.6797 45.0496 17.4854 44.0939C16.6743 40.1997 16.5855 36.2028 17.21 32.3L11.7812 29.9797V42.2306C12.2095 42.5137 12.4922 42.9991 12.4922 43.5509C12.4922 43.7691 12.4481 43.9771 12.3682 44.1662C12.5938 44.2945 12.8044 44.4511 12.9912 44.6379C13.5395 45.1862 13.8476 45.9298 13.8477 46.7052L13.8369 51.5041H12.3818L11.7656 51.505V51.5041H11.1631L10.5469 51.505V51.5041H9.90918L9.29297 51.505V51.5041H8V46.7052C8.00065 45.93 8.30924 45.187 8.85742 44.6388C9.038 44.4582 9.24091 44.3059 9.45801 44.1798C9.37444 43.9871 9.32812 43.7744 9.32812 43.5509C9.32816 43.0145 9.59559 42.5411 10.0039 42.255V29.2209L9.83887 29.1505C7.87824 28.3142 7.89598 26.1993 9.87012 25.381L36.6758 14.2746Z"/>
</mask>
<path fill-rule="evenodd" clip-rule="evenodd" d="M36.6758 14.2746C37.5808 13.9085 38.593 13.9085 39.498 14.2746L65.9229 25.381C67.8812 26.2038 67.8927 28.3124 65.9414 29.1466L58.4619 32.339C59.0003 36.1463 58.9389 40.0243 58.2646 43.8293C58.0874 44.852 57.692 45.8244 57.1055 46.6808C56.5188 47.5374 55.755 48.2582 54.8652 48.7931C50.5858 51.3545 44.4244 53.9563 36.958 53.7296C31.1994 53.5363 25.5944 51.8219 20.7129 48.7609C19.8873 48.2418 19.1758 47.5601 18.6211 46.758C18.0664 45.9558 17.6797 45.0496 17.4854 44.0939C16.6743 40.1997 16.5855 36.2028 17.21 32.3L11.7812 29.9797V42.2306C12.2095 42.5137 12.4922 42.9991 12.4922 43.5509C12.4922 43.7691 12.4481 43.9771 12.3682 44.1662C12.5938 44.2945 12.8044 44.4511 12.9912 44.6379C13.5395 45.1862 13.8476 45.9298 13.8477 46.7052L13.8369 51.5041H12.3818L11.7656 51.505V51.5041H11.1631L10.5469 51.505V51.5041H9.90918L9.29297 51.505V51.5041H8V46.7052C8.00065 45.93 8.30924 45.187 8.85742 44.6388C9.038 44.4582 9.24091 44.3059 9.45801 44.1798C9.37444 43.9871 9.32812 43.7744 9.32812 43.5509C9.32816 43.0145 9.59559 42.5411 10.0039 42.255V29.2209L9.83887 29.1505C7.87824 28.3142 7.89598 26.1993 9.87012 25.381L36.6758 14.2746Z" fill="white"/>
<path d="M36.6758 14.2746L35.5508 11.4935C35.543 11.4966 35.5352 11.4998 35.5275 11.503L36.6758 14.2746ZM39.498 14.2746L40.6605 11.5089C40.648 11.5037 40.6355 11.4985 40.623 11.4935L39.498 14.2746ZM65.9229 25.381L64.7604 28.1467L64.7608 28.1468L65.9229 25.381ZM65.9414 29.1466L67.1191 31.9058L67.1207 31.9051L65.9414 29.1466ZM58.4619 32.339L57.2842 29.5798C56.0366 30.1124 55.3015 31.4159 55.4915 32.7591L58.4619 32.339ZM58.2646 43.8293L55.3106 43.3058L55.3087 43.3168L58.2646 43.8293ZM57.1055 46.6808L59.5806 48.3761L59.5806 48.376L57.1055 46.6808ZM54.8652 48.7931L56.4059 51.3673L56.411 51.3643L54.8652 48.7931ZM36.958 53.7296L36.8574 56.728L36.867 56.7283L36.958 53.7296ZM20.7129 48.7609L19.1159 51.3005L19.1191 51.3025L20.7129 48.7609ZM18.6211 46.758L16.1536 48.4643L16.1537 48.4644L18.6211 46.758ZM17.4854 44.0939L20.4252 43.496L20.4223 43.4822L17.4854 44.0939ZM17.21 32.3L20.1723 32.7739C20.3897 31.4149 19.6546 30.0823 18.389 29.5414L17.21 32.3ZM11.7812 29.9797L12.9603 27.2211C12.0335 26.8249 10.9697 26.9207 10.1286 27.4759C9.28738 28.0312 8.78125 28.9717 8.78125 29.9797H11.7812ZM11.7812 42.2306H8.78125C8.78125 43.2379 9.28674 44.1779 10.127 44.7333L11.7812 42.2306ZM12.4922 43.5509H15.4922V43.5507L12.4922 43.5509ZM12.3682 44.1662L9.60464 42.9987C9.01277 44.3998 9.56301 46.0221 10.8851 46.774L12.3682 44.1662ZM12.9912 44.6379L15.1125 42.5165L15.1124 42.5164L12.9912 44.6379ZM13.8477 46.7052L16.8477 46.712V46.7051L13.8477 46.7052ZM13.8369 51.5041V54.5041C15.4911 54.5041 16.8332 53.165 16.8369 51.5108L13.8369 51.5041ZM12.3818 51.5041V48.5041L12.3771 48.5041L12.3818 51.5041ZM11.7656 51.505H8.76562C8.76562 52.3015 9.08235 53.0653 9.64599 53.628C10.2096 54.1908 10.9739 54.5063 11.7704 54.505L11.7656 51.505ZM11.7656 51.5041H14.7656C14.7656 49.8472 13.4225 48.5041 11.7656 48.5041V51.5041ZM11.1631 51.5041V48.5041L11.1583 48.5041L11.1631 51.5041ZM10.5469 51.505H7.54688C7.54688 52.3015 7.8636 53.0653 8.42724 53.628C8.99087 54.1908 9.75516 54.5063 10.5516 54.505L10.5469 51.505ZM10.5469 51.5041H13.5469C13.5469 49.8472 12.2037 48.5041 10.5469 48.5041V51.5041ZM9.90918 51.5041V48.5041L9.90443 48.5041L9.90918 51.5041ZM9.29297 51.505H6.29297C6.29297 52.3015 6.60969 53.0653 7.17333 53.628C7.73697 54.1908 8.50125 54.5063 9.29772 54.505L9.29297 51.505ZM9.29297 51.5041H12.293C12.293 49.8472 10.9498 48.5041 9.29297 48.5041V51.5041ZM8 51.5041H5C5 53.1609 6.34315 54.5041 8 54.5041V51.5041ZM8 46.7052L5 46.7027V46.7052H8ZM8.85742 44.6388L6.7361 42.5175H6.7361L8.85742 44.6388ZM9.45801 44.1798L10.9647 46.774C12.2802 46.01 12.8156 44.3822 12.2104 42.9865L9.45801 44.1798ZM9.32812 43.5509L6.32812 43.5507V43.5509H9.32812ZM10.0039 42.255L11.7254 44.712C12.5267 44.1505 13.0039 43.2335 13.0039 42.255H10.0039ZM10.0039 29.2209H13.0039C13.0039 28.0184 12.286 26.9322 11.1797 26.4609L10.0039 29.2209ZM9.83887 29.1505L8.66173 31.91L8.66303 31.9105L9.83887 29.1505ZM9.87012 25.381L8.72179 22.6095L8.72136 22.6097L9.87012 25.381ZM36.6758 14.2746L37.8008 17.0556C37.9842 16.9815 38.1896 16.9814 38.3731 17.0557L39.498 14.2746L40.623 11.4935C38.9964 10.8355 37.1774 10.8355 35.5508 11.4935L36.6758 14.2746ZM39.498 14.2746L38.3356 17.0402L64.7604 28.1467L65.9229 25.381L67.0853 22.6154L40.6605 11.5089L39.498 14.2746ZM65.9229 25.381L64.7608 28.1468C64.8308 28.1762 64.746 28.158 64.6304 28.0047C64.5107 27.8458 64.3999 27.5915 64.3983 27.2749C64.3967 26.958 64.5051 26.7002 64.626 26.537C64.7426 26.3795 64.8301 26.3591 64.7621 26.3881L65.9414 29.1466L67.1207 31.9051C68.9462 31.1247 70.4095 29.4444 70.3982 27.2441C70.3869 25.0476 68.9112 23.3825 67.0849 22.6152L65.9229 25.381ZM65.9414 29.1466L64.7637 26.3875L57.2842 29.5798L58.4619 32.339L59.6396 35.0982L67.1191 31.9058L65.9414 29.1466ZM58.4619 32.339L55.4915 32.7591C55.9859 36.2554 55.9292 39.815 55.3107 43.3058L58.2646 43.8293L61.2186 44.3527C61.9485 40.2336 62.0147 36.0371 61.4324 31.9189L58.4619 32.339ZM58.2646 43.8293L55.3087 43.3168C55.205 43.9153 54.9737 44.4843 54.6303 44.9856L57.1055 46.6808L59.5806 48.376C60.4103 47.1646 60.9697 45.7887 61.2206 44.3417L58.2646 43.8293ZM57.1055 46.6808L54.6304 44.9856C54.2862 45.488 53.839 45.9097 53.3195 46.222L54.8652 48.7931L56.411 51.3643C57.6711 50.6067 58.7514 49.5867 59.5806 48.3761L57.1055 46.6808ZM54.8652 48.7931L53.3246 46.219C49.3473 48.5994 43.755 50.9346 37.049 50.731L36.958 53.7296L36.867 56.7283C45.0938 56.978 51.8243 54.1095 56.4059 51.3673L54.8652 48.7931ZM36.958 53.7296L37.0587 50.7313C31.8294 50.5558 26.7395 48.9989 22.3066 46.2193L20.7129 48.7609L19.1191 51.3025C24.4493 54.6448 30.5694 56.5169 36.8574 56.728L36.958 53.7296ZM20.7129 48.7609L22.3099 46.2213C21.8286 45.9187 21.413 45.5207 21.0885 45.0515L18.6211 46.758L16.1537 48.4644C16.9387 49.5994 17.946 50.5649 19.1159 51.3005L20.7129 48.7609ZM18.6211 46.758L21.0885 45.0516C20.7641 44.5824 20.5385 44.0532 20.4252 43.4961L17.4854 44.0939L14.5455 44.6918C14.8209 46.0461 15.3687 47.3292 16.1536 48.4643L18.6211 46.758ZM17.4854 44.0939L20.4223 43.4822C19.6859 39.9464 19.6053 36.3175 20.1723 32.7739L17.21 32.3L14.2476 31.826C13.5657 36.0881 13.6627 40.4529 14.5484 44.7056L17.4854 44.0939ZM17.21 32.3L18.389 29.5414L12.9603 27.2211L11.7812 29.9797L10.6022 32.7382L16.0309 35.0586L17.21 32.3ZM11.7812 29.9797H8.78125V42.2306H11.7812H14.7812V29.9797H11.7812ZM11.7812 42.2306L10.127 44.7333C9.75181 44.4853 9.49222 44.0497 9.49219 43.5511L12.4922 43.5509L15.4922 43.5507C15.4921 41.9485 14.6673 40.5421 13.4355 39.7279L11.7812 42.2306ZM12.4922 43.5509H9.49219C9.49219 43.3614 9.53111 43.1728 9.60464 42.9987L12.3682 44.1662L15.1317 45.3336C15.365 44.7813 15.4922 44.1769 15.4922 43.5509H12.4922ZM12.3682 44.1662L10.8851 46.774C10.8965 46.7804 10.8883 46.7776 10.8701 46.7593L12.9912 44.6379L15.1124 42.5164C14.7206 42.1246 14.2911 41.8086 13.8512 41.5584L12.3682 44.1662ZM12.9912 44.6379L10.8699 46.7592C10.8557 46.745 10.8477 46.7257 10.8477 46.7054L13.8477 46.7052L16.8477 46.7051C16.8476 45.1339 16.2233 43.6273 15.1125 42.5165L12.9912 44.6379ZM13.8477 46.7052L10.8477 46.6985L10.8369 51.4973L13.8369 51.5041L16.8369 51.5108L16.8476 46.712L13.8477 46.7052ZM13.8369 51.5041V48.5041H12.3818V51.5041V54.5041H13.8369V51.5041ZM12.3818 51.5041L12.3771 48.5041L11.7609 48.505L11.7656 51.505L11.7704 54.505L12.3866 54.5041L12.3818 51.5041ZM11.7656 51.505H14.7656V51.5041H11.7656H8.76562V51.505H11.7656ZM11.7656 51.5041V48.5041H11.1631V51.5041V54.5041H11.7656V51.5041ZM11.1631 51.5041L11.1583 48.5041L10.5421 48.505L10.5469 51.505L10.5516 54.505L11.1678 54.5041L11.1631 51.5041ZM10.5469 51.505H13.5469V51.5041H10.5469H7.54688V51.505H10.5469ZM10.5469 51.5041V48.5041H9.90918V51.5041V54.5041H10.5469V51.5041ZM9.90918 51.5041L9.90443 48.5041L9.28821 48.505L9.29297 51.505L9.29772 54.505L9.91393 54.5041L9.90918 51.5041ZM9.29297 51.505H12.293V51.5041H9.29297H6.29297V51.505H9.29297ZM9.29297 51.5041V48.5041H8V51.5041V54.5041H9.29297V51.5041ZM8 51.5041H11V46.7052H8H5V51.5041H8ZM8 46.7052L11 46.7077C11 46.7285 10.9917 46.7472 10.9787 46.7602L8.85742 44.6388L6.7361 42.5175C5.62681 43.6268 5.00131 45.1315 5 46.7027L8 46.7052ZM8.85742 44.6388L10.9787 46.7602C10.9607 46.7782 10.9528 46.781 10.9647 46.774L9.45801 44.1798L7.9513 41.5857C7.52901 41.8309 7.11535 42.1383 6.7361 42.5175L8.85742 44.6388ZM9.45801 44.1798L12.2104 42.9865C12.2872 43.1635 12.3281 43.3564 12.3281 43.5509H9.32812H6.32812C6.32812 44.1923 6.46168 44.8107 6.70559 45.3732L9.45801 44.1798ZM9.32812 43.5509L12.3281 43.5511C12.3281 44.0375 12.0814 44.4626 11.7254 44.712L10.0039 42.255L8.28245 39.7981C7.10982 40.6197 6.32823 41.9916 6.32812 43.5507L9.32812 43.5509ZM10.0039 42.255H13.0039V29.2209H10.0039H7.00391V42.255H10.0039ZM10.0039 29.2209L11.1797 26.4609L11.0147 26.3906L9.83887 29.1505L8.66303 31.9105L8.82806 31.9808L10.0039 29.2209ZM9.83887 29.1505L11.016 26.3911C10.9456 26.3611 11.0333 26.3809 11.1506 26.5393C11.2723 26.7038 11.3815 26.9642 11.3789 27.284C11.3762 27.6033 11.2631 27.8581 11.1432 28.0155C11.0275 28.1673 10.9446 28.1832 11.0189 28.1524L9.87012 25.381L8.72136 22.6097C6.88966 23.3689 5.39742 25.0291 5.37906 27.234C5.36066 29.4445 6.83224 31.1295 8.66173 31.91L9.83887 29.1505ZM9.87012 25.381L11.0184 28.1525L37.8241 17.0461L36.6758 14.2746L35.5275 11.503L8.72179 22.6095L9.87012 25.381Z" fill="white" mask="url(#path-1-outside-1_3959_19448)"/>
</g>
<path d="M12.0896 27.5293H10.3125V45.377H12.0896V27.5293Z" fill="url(#paint0_linear_3959_19448)"/>
<path d="M18.5533 27.9863C16.9327 33.2481 16.6714 38.8347 17.794 44.2247C17.9884 45.1805 18.3747 46.0869 18.9295 46.8891C19.4843 47.6913 20.196 48.3726 21.0217 48.8918C25.9033 51.9528 31.5083 53.6671 37.2669 53.8603C44.7333 54.087 50.8941 51.4849 55.1736 48.9235C56.0634 48.3886 56.8276 47.6684 57.4143 46.8118C58.0009 45.9553 58.3964 44.9825 58.5736 43.9595C59.515 38.6471 59.268 33.192 57.8505 27.9863C56.1959 29.4483 48.768 35.693 37.5639 35.4482C27.1689 35.2215 20.3372 29.5549 18.5647 27.9863" fill="url(#paint1_linear_3959_19448)"/>
<path d="M20.0516 28.9769C18.5554 33.8363 18.3144 38.9955 19.3512 43.9731C19.5313 44.8551 19.8883 45.6915 20.4006 46.4317C20.9129 47.1719 21.5699 47.8006 22.3319 48.2798C26.8397 51.106 32.0152 52.6888 37.3327 52.8675C44.2256 53.0806 49.915 50.6734 53.8635 48.3093C54.6836 47.8139 55.3877 47.1481 55.9281 46.357C56.4686 45.5659 56.8328 44.6679 56.996 43.7238C57.8603 38.8175 57.6281 33.7806 56.316 28.9746C54.7906 30.3346 47.9294 36.0919 37.5866 35.8675C27.985 35.659 21.6859 30.4275 20.0403 28.9746" fill="url(#paint2_linear_3959_19448)"/>
<path d="M10.179 25.5121L36.9846 14.4054C37.8897 14.0393 38.9016 14.0393 39.8066 14.4054L66.2314 25.5121C68.1898 26.3349 68.2012 28.4429 66.2496 29.277L39.6185 40.6466C38.6986 41.0251 37.6665 41.0251 36.7466 40.6466L10.1473 29.2816C8.18663 28.4452 8.20476 26.3304 10.179 25.5121Z" fill="url(#paint3_linear_3959_19448)"/>
<path d="M38.1808 38.439C38.1419 38.4398 38.1032 38.432 38.0675 38.4163L11.4659 27.0535C11.4285 27.0476 11.3946 27.0281 11.3707 26.9987C11.3467 26.9694 11.3344 26.9323 11.3361 26.8944C11.3378 26.8566 11.3533 26.8207 11.3798 26.7936C11.4062 26.7665 11.4417 26.7501 11.4795 26.7475L38.2738 15.6408C38.3095 15.6252 38.3481 15.6172 38.3871 15.6172C38.4261 15.6172 38.4647 15.6252 38.5004 15.6408L64.9252 26.7475C64.9583 26.7559 64.9876 26.7748 65.0089 26.8014C65.0302 26.828 65.0422 26.8608 65.0431 26.8948C65.0427 26.9287 65.0311 26.9614 65.0103 26.9881C64.9894 27.0147 64.9603 27.0337 64.9275 27.0422L38.2942 38.4163C38.2584 38.4316 38.2198 38.4394 38.1808 38.439Z" fill="url(#paint4_linear_3959_19448)"/>
<path d="M14.1453 51.6346H8.30859V46.8361C8.30919 46.0608 8.61745 45.3174 9.16568 44.7692C9.7139 44.221 10.4573 43.9127 11.2326 43.9121C12.0081 43.9121 12.7518 44.2202 13.3002 44.7685C13.8485 45.3169 14.1566 46.0606 14.1566 46.8361L14.1453 51.6346Z" fill="url(#paint5_linear_3959_19448)"/>
<path d="M10.2181 45.8555H9.60156V51.6355H10.2181V45.8555Z" fill="url(#paint6_linear_3959_19448)"/>
<path d="M11.4681 45.8555H10.8516V51.6355H11.4681V45.8555Z" fill="url(#paint7_linear_3959_19448)"/>
<path d="M12.6868 45.8555H12.0703V51.6355H12.6868V45.8555Z" fill="url(#paint8_linear_3959_19448)"/>
<path d="M11.2189 45.2639C12.0926 45.2639 12.801 44.5555 12.801 43.6817C12.801 42.808 12.0926 42.0996 11.2189 42.0996C10.3451 42.0996 9.63672 42.808 9.63672 43.6817C9.63672 44.5555 10.3451 45.2639 11.2189 45.2639Z" fill="url(#paint9_linear_3959_19448)"/>
<path d="M11.222 44.5513C11.0498 44.5513 10.8815 44.5003 10.7384 44.4047C10.5953 44.309 10.4837 44.1731 10.4178 44.014C10.3519 43.855 10.3347 43.68 10.3683 43.5111C10.4019 43.3423 10.4848 43.1872 10.6065 43.0655C10.7282 42.9438 10.8833 42.8609 11.0522 42.8273C11.221 42.7937 11.396 42.8109 11.5551 42.8768C11.7141 42.9427 11.85 43.0542 11.9457 43.1974C12.0413 43.3405 12.0924 43.5088 12.0924 43.6809C12.0924 43.7953 12.0698 43.9084 12.0261 44.014C11.9824 44.1196 11.9183 44.2156 11.8374 44.2964C11.7566 44.3772 11.6607 44.4413 11.5551 44.4851C11.4494 44.5288 11.3363 44.5513 11.222 44.5513Z" fill="url(#paint10_linear_3959_19448)"/>
<defs>
<filter id="filter0_d_3959_19448" x="0" y="8" width="75.3984" height="55.7441" filterUnits="userSpaceOnUse" color-interpolation-filters="sRGB">
<feFlood flood-opacity="0" result="BackgroundImageFix"/>
<feColorMatrix in="SourceAlpha" type="matrix" values="0 0 0 0 0 0 0 0 0 0 0 0 0 0 0 0 0 0 127 0" result="hardAlpha"/>
<feOffset dy="2"/>
<feGaussianBlur stdDeviation="2.5"/>
<feComposite in2="hardAlpha" operator="out"/>
<feColorMatrix type="matrix" values="0 0 0 0 0 0 0 0 0 0 0 0 0 0 0 0 0 0 0.2 0"/>
<feBlend mode="normal" in2="BackgroundImageFix" result="effect1_dropShadow_3959_19448"/>
<feBlend mode="normal" in="SourceGraphic" in2="effect1_dropShadow_3959_19448" result="shape"/>
</filter>
<linearGradient id="paint0_linear_3959_19448" x1="11.201" y1="42.7273" x2="11.201" y2="29.5988" gradientUnits="userSpaceOnUse">
<stop stop-color="#FFDA45"/>
<stop offset="1" stop-color="#FFA733"/>
</linearGradient>
<linearGradient id="paint1_linear_3959_19448" x1="38.1169" y1="35.8426" x2="38.1169" y2="64.6338" gradientUnits="userSpaceOnUse">
<stop stop-color="#3A3A3A"/>
<stop offset="1" stop-color="#7A7A7A"/>
</linearGradient>
<linearGradient id="paint2_linear_3959_19448" x1="48.5436" y1="50.6779" x2="32.1239" y2="29.7679" gradientUnits="userSpaceOnUse">
<stop offset="0.01" stop-color="#3A3A3A" stop-opacity="0"/>
<stop offset="1" stop-color="#E2E2E2" stop-opacity="0.1"/>
</linearGradient>
<linearGradient id="paint3_linear_3959_19448" x1="38.1973" y1="42.9178" x2="38.1973" y2="15.6408" gradientUnits="userSpaceOnUse">
<stop stop-color="#3A3A3A"/>
<stop offset="1" stop-color="#7A7A7A"/>
</linearGradient>
<linearGradient id="paint4_linear_3959_19448" x1="39.8242" y1="38.2055" x2="36.2451" y2="13.3719" gradientUnits="userSpaceOnUse">
<stop offset="0.01" stop-color="#4A4A4A" stop-opacity="0"/>
<stop offset="1" stop-color="#E2E2E2" stop-opacity="0.2"/>
</linearGradient>
<linearGradient id="paint5_linear_3959_19448" x1="11.2213" y1="50.4877" x2="11.2213" y2="44.8074" gradientUnits="userSpaceOnUse">
<stop stop-color="#FFDA45"/>
<stop offset="1" stop-color="#FFA733"/>
</linearGradient>
<linearGradient id="paint6_linear_3959_19448" x1="9.69223" y1="48.7455" x2="10.1456" y2="48.7455" gradientUnits="userSpaceOnUse">
<stop stop-color="#FFA733" stop-opacity="0.4"/>
<stop offset="1" stop-color="#FFDA45" stop-opacity="0"/>
</linearGradient>
<linearGradient id="paint7_linear_3959_19448" x1="10.9422" y1="48.7455" x2="11.3956" y2="48.7455" gradientUnits="userSpaceOnUse">
<stop stop-color="#FFA733" stop-opacity="0.4"/>
<stop offset="1" stop-color="#FFDA45" stop-opacity="0"/>
</linearGradient>
<linearGradient id="paint8_linear_3959_19448" x1="12.1632" y1="48.7455" x2="12.6166" y2="48.7455" gradientUnits="userSpaceOnUse">
<stop stop-color="#FFA733" stop-opacity="0.4"/>
<stop offset="1" stop-color="#FFDA45" stop-opacity="0"/>
</linearGradient>
<linearGradient id="paint9_linear_3959_19448" x1="10.1082" y1="43.6817" x2="12.4338" y2="43.6817" gradientUnits="userSpaceOnUse">
<stop stop-color="#FF7044"/>
<stop offset="1" stop-color="#F63E25"/>
</linearGradient>
<linearGradient id="paint10_linear_3959_19448" x1="10.61" y1="43.6809" x2="11.8906" y2="43.6809" gradientUnits="userSpaceOnUse">
<stop stop-color="#F63E25"/>
<stop offset="1" stop-color="#FF7044"/>
</linearGradient>
</defs>
</svg>
