<svg width="68" height="68" viewBox="0 0 68 68" fill="none" xmlns="http://www.w3.org/2000/svg">
<path d="M52.6821 22.0574L45.6328 15.484L47.1469 13.8588C47.3116 13.682 47.5095 13.5394 47.7294 13.4392C47.9492 13.3389 48.1866 13.283 48.4281 13.2746C48.6695 13.2661 48.9103 13.3054 49.1366 13.3901C49.3629 13.4748 49.5702 13.6033 49.7468 13.7682L54.1056 17.83C54.4625 18.1626 54.6727 18.6233 54.6901 19.1107C54.7075 19.5982 54.5307 20.0727 54.1985 20.4299L52.6821 22.0574Z" fill="url(#paint0_linear_3959_19402)"/>
<path d="M46.3906 15.4606L47.5421 14.223C47.6589 14.0977 47.7992 13.9968 47.9551 13.9258C48.1109 13.8548 48.2792 13.8153 48.4503 13.8094C48.6215 13.8035 48.7921 13.8314 48.9525 13.8914C49.1128 13.9515 49.2598 14.0426 49.3849 14.1595L53.7437 18.2214C53.9964 18.4573 54.1452 18.7837 54.1575 19.1292C54.1698 19.4746 54.0447 19.8109 53.8094 20.0642L52.6557 21.3063L46.3906 15.4606Z" fill="url(#paint1_linear_3959_19402)"/>
<path d="M23.3382 53.5413L20.5252 52.8159L16.3274 48.9059L16.3047 46.9543L40.3178 21.1914L47.3671 27.7602L23.3382 53.5413Z" fill="url(#paint2_linear_3959_19402)"/>
<path opacity="0.3" d="M45.2718 25.8172L42.3984 23.1387L17.422 49.932L20.2953 52.6105L45.2718 25.8172Z" fill="#FFED6C"/>
<path d="M23.0158 52.975L22.5625 52.5625C22.2346 52.341 21.8494 52.2197 21.4538 52.2132C21.0582 52.2068 20.6692 52.3155 20.3343 52.5262C20.5204 52.1773 20.6011 51.7817 20.5665 51.3877C20.5319 50.9938 20.3835 50.6183 20.1394 50.3072L19.9445 50.1168L19.6974 49.8901C19.3695 49.6686 18.9843 49.5473 18.5887 49.5408C18.1931 49.5344 17.8042 49.6432 17.4693 49.8538C17.6562 49.5048 17.7375 49.1089 17.7033 48.7145C17.669 48.3201 17.5208 47.9441 17.2766 47.6325L16.8233 47.22C16.6581 47.1064 16.4771 47.0178 16.2861 46.957L15.0757 50.8308L14.6518 52.1908L13.3145 56.4725C13.2828 56.5747 13.2807 56.6838 13.3083 56.7872C13.3359 56.8907 13.3921 56.9842 13.4704 57.0571C13.5488 57.13 13.6461 57.1793 13.7512 57.1994C13.8564 57.2195 13.965 57.2095 14.0647 57.1706L18.2581 55.5341L19.5569 55.0264L23.3445 53.5417C23.2657 53.3365 23.1548 53.1453 23.0158 52.975Z" fill="url(#paint3_linear_3959_19402)"/>
<path opacity="0.15" d="M20.35 52.5246C20.5361 52.1756 20.6167 51.7801 20.5821 51.3861C20.5475 50.9922 20.3991 50.6167 20.155 50.3056L19.9488 50.1152L19.7017 49.8885C19.3851 49.673 19.014 49.5516 18.6313 49.5383C18.2486 49.5251 17.87 49.6206 17.5393 49.8137L15.021 53.8937L13.3301 56.4709C13.2985 56.5731 13.2963 56.6822 13.3239 56.7856C13.3515 56.889 13.4077 56.9826 13.4861 57.0555C13.5644 57.1284 13.6617 57.1777 13.7669 57.1978C13.872 57.2179 13.9806 57.2079 14.0804 57.169L16.5125 55.3058L20.4293 52.4793L20.35 52.5246Z" fill="url(#paint4_linear_3959_19402)"/>
<path d="M13.3301 56.4645C13.2985 56.5667 13.2963 56.6758 13.3239 56.7792C13.3515 56.8826 13.4077 56.9761 13.4861 57.0491C13.5644 57.122 13.6617 57.1713 13.7669 57.1914C13.872 57.2115 13.9806 57.2015 14.0804 57.1626L15.4132 56.6413L13.7585 55.0977L13.3301 56.4645Z" fill="url(#paint5_linear_3959_19402)"/>
<path d="M45.2749 25.8132L41.2891 22.0977L16.3126 48.891L20.2984 52.6066L45.2749 25.8132Z" fill="url(#paint6_linear_3959_19402)"/>
<path d="M53.5794 21.0937L46.5312 14.5234L40.3165 21.1903L47.3647 27.7605L53.5794 21.0937Z" fill="url(#paint7_linear_3959_19402)"/>
<path d="M50.7419 23.317L44.1016 17.127L41.8388 19.5543L48.4792 25.7443L50.7419 23.317Z" fill="url(#paint8_linear_3959_19402)"/>
<path d="M50.8669 23.1842L44.2266 16.9941L41.9638 19.4215L48.6042 25.6115L50.8669 23.1842Z" fill="url(#paint9_linear_3959_19402)"/>
<path d="M49.4479 26.6493L41.2773 19.0327C41.2104 18.9704 41.1057 18.9741 41.0434 19.041L39.7436 20.4353C39.6813 20.5022 39.685 20.6069 39.7518 20.6692L47.9225 28.2858C47.9893 28.3481 48.094 28.3444 48.1563 28.2776L49.4561 26.8832C49.5185 26.8163 49.5148 26.7116 49.4479 26.6493Z" fill="#F9F5FC"/>
<path d="M53.0964 22.7333L44.9257 15.1167C44.8589 15.0544 44.7542 15.0581 44.6919 15.1249L43.392 16.5193C43.3297 16.5862 43.3334 16.6909 43.4002 16.7532L51.5709 24.3698C51.6377 24.4321 51.7424 24.4284 51.8047 24.3616L53.1046 22.9672C53.1669 22.9003 53.1632 22.7956 53.0964 22.7333Z" fill="#F9F5FC"/>
<defs>
<linearGradient id="paint0_linear_3959_19402" x1="48.2413" y1="15.1464" x2="55.2912" y2="21.7182" gradientUnits="userSpaceOnUse">
<stop stop-color="#FF7044"/>
<stop offset="1" stop-color="#F41700"/>
</linearGradient>
<linearGradient id="paint1_linear_3959_19402" x1="49.7217" y1="13.3921" x2="50.4648" y2="18.6151" gradientUnits="userSpaceOnUse">
<stop stop-color="#FFFF33" stop-opacity="0.4"/>
<stop offset="1" stop-color="#F8C341" stop-opacity="0"/>
</linearGradient>
<linearGradient id="paint2_linear_3959_19402" x1="28.7037" y1="32.8512" x2="35.8024" y2="45.2477" gradientUnits="userSpaceOnUse">
<stop stop-color="#FFDA45"/>
<stop offset="1" stop-color="#C27E23"/>
</linearGradient>
<linearGradient id="paint3_linear_3959_19402" x1="16.5968" y1="47.2323" x2="18.5734" y2="56.3012" gradientUnits="userSpaceOnUse">
<stop stop-color="#FFDAAA"/>
<stop offset="0.99" stop-color="#FDC08D"/>
</linearGradient>
<linearGradient id="paint4_linear_3959_19402" x1="16.8095" y1="53.6721" x2="19.4022" y2="56.6251" gradientUnits="userSpaceOnUse">
<stop stop-color="white" stop-opacity="0.6"/>
<stop offset="1" stop-color="#F8C341" stop-opacity="0"/>
</linearGradient>
<linearGradient id="paint5_linear_3959_19402" x1="13.8931" y1="54.5557" x2="14.5561" y2="57.5908" gradientUnits="userSpaceOnUse">
<stop stop-color="#7A7A7A"/>
<stop offset="1" stop-color="#3A3A3A"/>
</linearGradient>
<linearGradient id="paint6_linear_3959_19402" x1="26.9969" y1="29.335" x2="32.1846" y2="40.2879" gradientUnits="userSpaceOnUse">
<stop stop-color="#FFFF33" stop-opacity="0.6"/>
<stop offset="1" stop-color="#F8C341" stop-opacity="0"/>
</linearGradient>
<linearGradient id="paint7_linear_3959_19402" x1="46.958" y1="21.1528" x2="54.0078" y2="27.7246" gradientUnits="userSpaceOnUse">
<stop stop-color="#F7F2FC"/>
<stop offset="0.99" stop-color="#F0DDFC"/>
</linearGradient>
<linearGradient id="paint8_linear_3959_19402" x1="46.6111" y1="21.0932" x2="44.3439" y2="23.5287" gradientUnits="userSpaceOnUse">
<stop stop-color="#F7F2FC" stop-opacity="0"/>
<stop offset="0.99" stop-color="#F0DDFC"/>
</linearGradient>
<linearGradient id="paint9_linear_3959_19402" x1="46.0947" y1="21.6484" x2="48.3653" y2="19.216" gradientUnits="userSpaceOnUse">
<stop stop-color="#F7F2FC" stop-opacity="0"/>
<stop offset="0.99" stop-color="#F0DDFC"/>
</linearGradient>
</defs>
</svg>
