<svg width="89" height="68" viewBox="0 0 89 68" fill="none" xmlns="http://www.w3.org/2000/svg">
<g filter="url(#filter0_d_3959_19473)">
<mask id="path-1-outside-1_3959_19473" maskUnits="userSpaceOnUse" x="5" y="11" width="66" height="46" fill="black">
<rect fill="white" x="5" y="11" width="66" height="46"/>
<path fill-rule="evenodd" clip-rule="evenodd" d="M36.6758 14.2746C37.5808 13.9085 38.593 13.9085 39.498 14.2746L65.9229 25.381C67.8812 26.2038 67.8927 28.3124 65.9414 29.1466L58.4619 32.339C59.0003 36.1463 58.9389 40.0243 58.2646 43.8293C58.0874 44.852 57.692 45.8244 57.1055 46.6808C56.5188 47.5374 55.755 48.2582 54.8652 48.7931C50.5858 51.3545 44.4244 53.9563 36.958 53.7296C31.1994 53.5363 25.5944 51.8219 20.7129 48.7609C19.8873 48.2418 19.1758 47.5601 18.6211 46.758C18.0664 45.9558 17.6797 45.0496 17.4854 44.0939C16.6743 40.1997 16.5855 36.2028 17.21 32.3L11.7812 29.9797V42.2306C12.2095 42.5137 12.4922 42.9991 12.4922 43.5509C12.4922 43.7691 12.4481 43.9771 12.3682 44.1662C12.5938 44.2945 12.8044 44.4511 12.9912 44.6379C13.5395 45.1862 13.8476 45.9298 13.8477 46.7052L13.8369 51.5041H12.3818L11.7656 51.505V51.5041H11.1631L10.5469 51.505V51.5041H9.90918L9.29297 51.505V51.5041H8V46.7052C8.00065 45.93 8.30924 45.187 8.85742 44.6388C9.038 44.4582 9.24091 44.3059 9.45801 44.1798C9.37444 43.9871 9.32812 43.7744 9.32812 43.5509C9.32816 43.0145 9.59559 42.5411 10.0039 42.255V29.2209L9.83887 29.1505C7.87824 28.3142 7.89598 26.1993 9.87012 25.381L36.6758 14.2746Z"/>
</mask>
<path fill-rule="evenodd" clip-rule="evenodd" d="M36.6758 14.2746C37.5808 13.9085 38.593 13.9085 39.498 14.2746L65.9229 25.381C67.8812 26.2038 67.8927 28.3124 65.9414 29.1466L58.4619 32.339C59.0003 36.1463 58.9389 40.0243 58.2646 43.8293C58.0874 44.852 57.692 45.8244 57.1055 46.6808C56.5188 47.5374 55.755 48.2582 54.8652 48.7931C50.5858 51.3545 44.4244 53.9563 36.958 53.7296C31.1994 53.5363 25.5944 51.8219 20.7129 48.7609C19.8873 48.2418 19.1758 47.5601 18.6211 46.758C18.0664 45.9558 17.6797 45.0496 17.4854 44.0939C16.6743 40.1997 16.5855 36.2028 17.21 32.3L11.7812 29.9797V42.2306C12.2095 42.5137 12.4922 42.9991 12.4922 43.5509C12.4922 43.7691 12.4481 43.9771 12.3682 44.1662C12.5938 44.2945 12.8044 44.4511 12.9912 44.6379C13.5395 45.1862 13.8476 45.9298 13.8477 46.7052L13.8369 51.5041H12.3818L11.7656 51.505V51.5041H11.1631L10.5469 51.505V51.5041H9.90918L9.29297 51.505V51.5041H8V46.7052C8.00065 45.93 8.30924 45.187 8.85742 44.6388C9.038 44.4582 9.24091 44.3059 9.45801 44.1798C9.37444 43.9871 9.32812 43.7744 9.32812 43.5509C9.32816 43.0145 9.59559 42.5411 10.0039 42.255V29.2209L9.83887 29.1505C7.87824 28.3142 7.89598 26.1993 9.87012 25.381L36.6758 14.2746Z" fill="white"/>
<path d="M36.6758 14.2746L35.5508 11.4935C35.543 11.4966 35.5352 11.4998 35.5275 11.503L36.6758 14.2746ZM39.498 14.2746L40.6605 11.5089C40.648 11.5037 40.6355 11.4985 40.623 11.4935L39.498 14.2746ZM65.9229 25.381L64.7604 28.1467L64.7608 28.1468L65.9229 25.381ZM65.9414 29.1466L67.1191 31.9058L67.1207 31.9051L65.9414 29.1466ZM58.4619 32.339L57.2842 29.5798C56.0366 30.1124 55.3015 31.4159 55.4915 32.7591L58.4619 32.339ZM58.2646 43.8293L55.3106 43.3058L55.3087 43.3168L58.2646 43.8293ZM57.1055 46.6808L59.5806 48.3761L59.5806 48.376L57.1055 46.6808ZM54.8652 48.7931L56.4059 51.3673L56.411 51.3643L54.8652 48.7931ZM36.958 53.7296L36.8574 56.728L36.867 56.7283L36.958 53.7296ZM20.7129 48.7609L19.1159 51.3005L19.1191 51.3025L20.7129 48.7609ZM18.6211 46.758L16.1536 48.4643L16.1537 48.4644L18.6211 46.758ZM17.4854 44.0939L20.4252 43.496L20.4223 43.4822L17.4854 44.0939ZM17.21 32.3L20.1723 32.7739C20.3897 31.4149 19.6546 30.0823 18.389 29.5414L17.21 32.3ZM11.7812 29.9797L12.9603 27.2211C12.0335 26.8249 10.9697 26.9207 10.1286 27.4759C9.28738 28.0312 8.78125 28.9717 8.78125 29.9797H11.7812ZM11.7812 42.2306H8.78125C8.78125 43.2379 9.28674 44.1779 10.127 44.7333L11.7812 42.2306ZM12.4922 43.5509H15.4922V43.5507L12.4922 43.5509ZM12.3682 44.1662L9.60464 42.9987C9.01277 44.3998 9.56301 46.0221 10.8851 46.774L12.3682 44.1662ZM12.9912 44.6379L15.1125 42.5165L15.1124 42.5164L12.9912 44.6379ZM13.8477 46.7052L16.8477 46.712V46.7051L13.8477 46.7052ZM13.8369 51.5041V54.5041C15.4911 54.5041 16.8332 53.165 16.8369 51.5108L13.8369 51.5041ZM12.3818 51.5041V48.5041L12.3771 48.5041L12.3818 51.5041ZM11.7656 51.505H8.76562C8.76562 52.3015 9.08235 53.0653 9.64599 53.628C10.2096 54.1908 10.9739 54.5063 11.7704 54.505L11.7656 51.505ZM11.7656 51.5041H14.7656C14.7656 49.8472 13.4225 48.5041 11.7656 48.5041V51.5041ZM11.1631 51.5041V48.5041L11.1583 48.5041L11.1631 51.5041ZM10.5469 51.505H7.54688C7.54688 52.3015 7.8636 53.0653 8.42724 53.628C8.99087 54.1908 9.75516 54.5063 10.5516 54.505L10.5469 51.505ZM10.5469 51.5041H13.5469C13.5469 49.8472 12.2037 48.5041 10.5469 48.5041V51.5041ZM9.90918 51.5041V48.5041L9.90443 48.5041L9.90918 51.5041ZM9.29297 51.505H6.29297C6.29297 52.3015 6.60969 53.0653 7.17333 53.628C7.73697 54.1908 8.50125 54.5063 9.29772 54.505L9.29297 51.505ZM9.29297 51.5041H12.293C12.293 49.8472 10.9498 48.5041 9.29297 48.5041V51.5041ZM8 51.5041H5C5 53.1609 6.34315 54.5041 8 54.5041V51.5041ZM8 46.7052L5 46.7027V46.7052H8ZM8.85742 44.6388L6.7361 42.5175H6.7361L8.85742 44.6388ZM9.45801 44.1798L10.9647 46.774C12.2802 46.01 12.8156 44.3822 12.2104 42.9865L9.45801 44.1798ZM9.32812 43.5509L6.32812 43.5507V43.5509H9.32812ZM10.0039 42.255L11.7254 44.712C12.5267 44.1505 13.0039 43.2335 13.0039 42.255H10.0039ZM10.0039 29.2209H13.0039C13.0039 28.0184 12.286 26.9322 11.1797 26.4609L10.0039 29.2209ZM9.83887 29.1505L8.66173 31.91L8.66303 31.9105L9.83887 29.1505ZM9.87012 25.381L8.72179 22.6095L8.72136 22.6097L9.87012 25.381ZM36.6758 14.2746L37.8008 17.0556C37.9842 16.9815 38.1896 16.9814 38.3731 17.0557L39.498 14.2746L40.623 11.4935C38.9964 10.8355 37.1774 10.8355 35.5508 11.4935L36.6758 14.2746ZM39.498 14.2746L38.3356 17.0402L64.7604 28.1467L65.9229 25.381L67.0853 22.6154L40.6605 11.5089L39.498 14.2746ZM65.9229 25.381L64.7608 28.1468C64.8308 28.1762 64.746 28.158 64.6304 28.0047C64.5107 27.8458 64.3999 27.5915 64.3983 27.2749C64.3967 26.958 64.5051 26.7002 64.626 26.537C64.7426 26.3795 64.8301 26.3591 64.7621 26.3881L65.9414 29.1466L67.1207 31.9051C68.9462 31.1247 70.4095 29.4444 70.3982 27.2441C70.3869 25.0476 68.9112 23.3825 67.0849 22.6152L65.9229 25.381ZM65.9414 29.1466L64.7637 26.3875L57.2842 29.5798L58.4619 32.339L59.6396 35.0982L67.1191 31.9058L65.9414 29.1466ZM58.4619 32.339L55.4915 32.7591C55.9859 36.2554 55.9292 39.815 55.3107 43.3058L58.2646 43.8293L61.2186 44.3527C61.9485 40.2336 62.0147 36.0371 61.4324 31.9189L58.4619 32.339ZM58.2646 43.8293L55.3087 43.3168C55.205 43.9153 54.9737 44.4843 54.6303 44.9856L57.1055 46.6808L59.5806 48.376C60.4103 47.1646 60.9697 45.7887 61.2206 44.3417L58.2646 43.8293ZM57.1055 46.6808L54.6304 44.9856C54.2862 45.488 53.839 45.9097 53.3195 46.222L54.8652 48.7931L56.411 51.3643C57.6711 50.6067 58.7514 49.5867 59.5806 48.3761L57.1055 46.6808ZM54.8652 48.7931L53.3246 46.219C49.3473 48.5994 43.755 50.9346 37.049 50.731L36.958 53.7296L36.867 56.7283C45.0938 56.978 51.8243 54.1095 56.4059 51.3673L54.8652 48.7931ZM36.958 53.7296L37.0587 50.7313C31.8294 50.5558 26.7395 48.9989 22.3066 46.2193L20.7129 48.7609L19.1191 51.3025C24.4493 54.6448 30.5694 56.5169 36.8574 56.728L36.958 53.7296ZM20.7129 48.7609L22.3099 46.2213C21.8286 45.9187 21.413 45.5207 21.0885 45.0515L18.6211 46.758L16.1537 48.4644C16.9387 49.5994 17.946 50.5649 19.1159 51.3005L20.7129 48.7609ZM18.6211 46.758L21.0885 45.0516C20.7641 44.5824 20.5385 44.0532 20.4252 43.4961L17.4854 44.0939L14.5455 44.6918C14.8209 46.0461 15.3687 47.3292 16.1536 48.4643L18.6211 46.758ZM17.4854 44.0939L20.4223 43.4822C19.6859 39.9464 19.6053 36.3175 20.1723 32.7739L17.21 32.3L14.2476 31.826C13.5657 36.0881 13.6627 40.4529 14.5484 44.7056L17.4854 44.0939ZM17.21 32.3L18.389 29.5414L12.9603 27.2211L11.7812 29.9797L10.6022 32.7382L16.0309 35.0586L17.21 32.3ZM11.7812 29.9797H8.78125V42.2306H11.7812H14.7812V29.9797H11.7812ZM11.7812 42.2306L10.127 44.7333C9.75181 44.4853 9.49222 44.0497 9.49219 43.5511L12.4922 43.5509L15.4922 43.5507C15.4921 41.9485 14.6673 40.5421 13.4355 39.7279L11.7812 42.2306ZM12.4922 43.5509H9.49219C9.49219 43.3614 9.53111 43.1728 9.60464 42.9987L12.3682 44.1662L15.1317 45.3336C15.365 44.7813 15.4922 44.1769 15.4922 43.5509H12.4922ZM12.3682 44.1662L10.8851 46.774C10.8965 46.7804 10.8883 46.7776 10.8701 46.7593L12.9912 44.6379L15.1124 42.5164C14.7206 42.1246 14.2911 41.8086 13.8512 41.5584L12.3682 44.1662ZM12.9912 44.6379L10.8699 46.7592C10.8557 46.745 10.8477 46.7257 10.8477 46.7054L13.8477 46.7052L16.8477 46.7051C16.8476 45.1339 16.2233 43.6273 15.1125 42.5165L12.9912 44.6379ZM13.8477 46.7052L10.8477 46.6985L10.8369 51.4973L13.8369 51.5041L16.8369 51.5108L16.8476 46.712L13.8477 46.7052ZM13.8369 51.5041V48.5041H12.3818V51.5041V54.5041H13.8369V51.5041ZM12.3818 51.5041L12.3771 48.5041L11.7609 48.505L11.7656 51.505L11.7704 54.505L12.3866 54.5041L12.3818 51.5041ZM11.7656 51.505H14.7656V51.5041H11.7656H8.76562V51.505H11.7656ZM11.7656 51.5041V48.5041H11.1631V51.5041V54.5041H11.7656V51.5041ZM11.1631 51.5041L11.1583 48.5041L10.5421 48.505L10.5469 51.505L10.5516 54.505L11.1678 54.5041L11.1631 51.5041ZM10.5469 51.505H13.5469V51.5041H10.5469H7.54688V51.505H10.5469ZM10.5469 51.5041V48.5041H9.90918V51.5041V54.5041H10.5469V51.5041ZM9.90918 51.5041L9.90443 48.5041L9.28821 48.505L9.29297 51.505L9.29772 54.505L9.91393 54.5041L9.90918 51.5041ZM9.29297 51.505H12.293V51.5041H9.29297H6.29297V51.505H9.29297ZM9.29297 51.5041V48.5041H8V51.5041V54.5041H9.29297V51.5041ZM8 51.5041H11V46.7052H8H5V51.5041H8ZM8 46.7052L11 46.7077C11 46.7285 10.9917 46.7472 10.9787 46.7602L8.85742 44.6388L6.7361 42.5175C5.62681 43.6268 5.00131 45.1315 5 46.7027L8 46.7052ZM8.85742 44.6388L10.9787 46.7602C10.9607 46.7782 10.9528 46.781 10.9647 46.774L9.45801 44.1798L7.9513 41.5857C7.52901 41.8309 7.11535 42.1383 6.7361 42.5175L8.85742 44.6388ZM9.45801 44.1798L12.2104 42.9865C12.2872 43.1635 12.3281 43.3564 12.3281 43.5509H9.32812H6.32812C6.32812 44.1923 6.46168 44.8107 6.70559 45.3732L9.45801 44.1798ZM9.32812 43.5509L12.3281 43.5511C12.3281 44.0375 12.0814 44.4626 11.7254 44.712L10.0039 42.255L8.28245 39.7981C7.10982 40.6197 6.32823 41.9916 6.32812 43.5507L9.32812 43.5509ZM10.0039 42.255H13.0039V29.2209H10.0039H7.00391V42.255H10.0039ZM10.0039 29.2209L11.1797 26.4609L11.0147 26.3906L9.83887 29.1505L8.66303 31.9105L8.82806 31.9808L10.0039 29.2209ZM9.83887 29.1505L11.016 26.3911C10.9456 26.3611 11.0333 26.3809 11.1506 26.5393C11.2723 26.7038 11.3815 26.9642 11.3789 27.284C11.3762 27.6033 11.2631 27.8581 11.1432 28.0155C11.0275 28.1673 10.9446 28.1832 11.0189 28.1524L9.87012 25.381L8.72136 22.6097C6.88966 23.3689 5.39742 25.0291 5.37906 27.234C5.36066 29.4445 6.83224 31.1295 8.66173 31.91L9.83887 29.1505ZM9.87012 25.381L11.0184 28.1525L37.8241 17.0461L36.6758 14.2746L35.5275 11.503L8.72179 22.6095L9.87012 25.381Z" fill="white" mask="url(#path-1-outside-1_3959_19473)"/>
<mask id="path-3-outside-2_3959_19473" maskUnits="userSpaceOnUse" x="58.0958" y="28.9973" width="26.4192" height="20.9105" fill="black">
<rect fill="white" x="58.0958" y="28.9973" width="26.4192" height="20.9105"/>
<path d="M64.2689 43.9281C64.0095 44.2313 63.6532 44.365 63.2 44.3292C62.8783 44.3037 62.5934 44.1856 62.3452 43.9747C61.9355 43.5745 61.7439 43.2063 61.7705 42.87C61.7878 42.6507 61.8934 42.431 62.0874 42.2109L65.064 38.8931L62.7632 35.3348C62.5008 34.9315 62.3818 34.5764 62.406 34.2693C62.4338 33.9184 62.6577 33.5978 63.0779 33.3073C63.3415 33.1369 63.6341 33.0644 63.9558 33.0898C64.1897 33.1083 64.4117 33.1847 64.6218 33.319C64.8319 33.4533 65.0081 33.6437 65.1504 33.8904L66.9093 36.7659L69.12 34.2041C69.5564 33.7089 69.9793 33.4775 70.3887 33.5099C70.6957 33.5341 70.9856 33.6821 71.2584 33.9538C71.612 34.3201 71.7766 34.6568 71.7524 34.9638C71.7246 35.3147 71.5574 35.662 71.2507 36.0056L68.4196 39.1583L70.8381 42.9025C70.9951 43.1503 71.0643 43.3912 71.0458 43.6251C71.0169 43.9906 70.7687 44.3388 70.3012 44.6697C70.068 44.8278 69.776 44.893 69.4251 44.8653C68.9864 44.8306 68.6494 44.6274 68.4139 44.2557L66.5523 41.2838L64.2689 43.9281ZM77.4019 37.8379C77.4793 36.8582 77.1378 36.3384 76.3775 36.2783C76.0851 36.2552 75.8521 36.3177 75.6786 36.4658C75.5197 36.6151 75.3234 36.8644 75.0898 37.2138C74.9702 37.425 74.7887 37.5798 74.5456 37.6783C74.3035 37.7622 74.0582 37.7943 73.8097 37.7747C73.4734 37.7481 73.1958 37.6305 72.9769 37.4219C72.6883 37.1637 72.5579 36.8592 72.5856 36.5083C72.6111 36.1866 72.7873 35.818 73.1144 35.4025C73.5081 34.8893 74.0156 34.5174 74.637 34.287C75.2742 34.0431 75.9364 33.9483 76.6236 34.0026C77.8225 34.0974 78.7111 34.3956 79.2894 34.8974C80.0339 35.53 80.3553 36.4897 80.2536 37.7763C80.1762 38.7559 79.7242 39.728 78.8976 40.6926C78.1184 41.6167 77.0964 42.4481 75.8316 43.1868L76.7106 43.2342L78.4686 43.329C79.6821 43.4249 80.2623 43.8091 80.2092 44.4817C80.1549 45.1689 79.6423 45.5109 78.6716 45.5077C78.2599 45.5046 77.6446 45.4707 76.8258 45.406L73.558 45.1477C72.7685 45.0853 72.2558 44.9639 72.0199 44.7834C71.8941 44.6999 71.8072 44.5901 71.7591 44.4539C71.711 44.3177 71.6956 44.1399 71.713 43.9206C71.7534 43.4088 72.0164 42.9662 72.502 42.5926L73.1831 42.0727L73.8371 41.6168C74.8668 40.8742 75.6036 40.2998 76.0477 39.8936C76.9019 39.1372 77.3533 38.4519 77.4019 37.8379Z"/>
</mask>
<path d="M64.2689 43.9281C64.0095 44.2313 63.6532 44.365 63.2 44.3292C62.8783 44.3037 62.5934 44.1856 62.3452 43.9747C61.9355 43.5745 61.7439 43.2063 61.7705 42.87C61.7878 42.6507 61.8934 42.431 62.0874 42.2109L65.064 38.8931L62.7632 35.3348C62.5008 34.9315 62.3818 34.5764 62.406 34.2693C62.4338 33.9184 62.6577 33.5978 63.0779 33.3073C63.3415 33.1369 63.6341 33.0644 63.9558 33.0898C64.1897 33.1083 64.4117 33.1847 64.6218 33.319C64.8319 33.4533 65.0081 33.6437 65.1504 33.8904L66.9093 36.7659L69.12 34.2041C69.5564 33.7089 69.9793 33.4775 70.3887 33.5099C70.6957 33.5341 70.9856 33.6821 71.2584 33.9538C71.612 34.3201 71.7766 34.6568 71.7524 34.9638C71.7246 35.3147 71.5574 35.662 71.2507 36.0056L68.4196 39.1583L70.8381 42.9025C70.9951 43.1503 71.0643 43.3912 71.0458 43.6251C71.0169 43.9906 70.7687 44.3388 70.3012 44.6697C70.068 44.8278 69.776 44.893 69.4251 44.8653C68.9864 44.8306 68.6494 44.6274 68.4139 44.2557L66.5523 41.2838L64.2689 43.9281ZM77.4019 37.8379C77.4793 36.8582 77.1378 36.3384 76.3775 36.2783C76.0851 36.2552 75.8521 36.3177 75.6786 36.4658C75.5197 36.6151 75.3234 36.8644 75.0898 37.2138C74.9702 37.425 74.7887 37.5798 74.5456 37.6783C74.3035 37.7622 74.0582 37.7943 73.8097 37.7747C73.4734 37.7481 73.1958 37.6305 72.9769 37.4219C72.6883 37.1637 72.5579 36.8592 72.5856 36.5083C72.6111 36.1866 72.7873 35.818 73.1144 35.4025C73.5081 34.8893 74.0156 34.5174 74.637 34.287C75.2742 34.0431 75.9364 33.9483 76.6236 34.0026C77.8225 34.0974 78.7111 34.3956 79.2894 34.8974C80.0339 35.53 80.3553 36.4897 80.2536 37.7763C80.1762 38.7559 79.7242 39.728 78.8976 40.6926C78.1184 41.6167 77.0964 42.4481 75.8316 43.1868L76.7106 43.2342L78.4686 43.329C79.6821 43.4249 80.2623 43.8091 80.2092 44.4817C80.1549 45.1689 79.6423 45.5109 78.6716 45.5077C78.2599 45.5046 77.6446 45.4707 76.8258 45.406L73.558 45.1477C72.7685 45.0853 72.2558 44.9639 72.0199 44.7834C71.8941 44.6999 71.8072 44.5901 71.7591 44.4539C71.711 44.3177 71.6956 44.1399 71.713 43.9206C71.7534 43.4088 72.0164 42.9662 72.502 42.5926L73.1831 42.0727L73.8371 41.6168C74.8668 40.8742 75.6036 40.2998 76.0477 39.8936C76.9019 39.1372 77.3533 38.4519 77.4019 37.8379Z" fill="url(#paint0_linear_3959_19473)"/>
<path d="M64.2689 43.9281C64.0095 44.2313 63.6532 44.365 63.2 44.3292C62.8783 44.3037 62.5934 44.1856 62.3452 43.9747C61.9355 43.5745 61.7439 43.2063 61.7705 42.87C61.7878 42.6507 61.8934 42.431 62.0874 42.2109L65.064 38.8931L62.7632 35.3348C62.5008 34.9315 62.3818 34.5764 62.406 34.2693C62.4338 33.9184 62.6577 33.5978 63.0779 33.3073C63.3415 33.1369 63.6341 33.0644 63.9558 33.0898C64.1897 33.1083 64.4117 33.1847 64.6218 33.319C64.8319 33.4533 65.0081 33.6437 65.1504 33.8904L66.9093 36.7659L69.12 34.2041C69.5564 33.7089 69.9793 33.4775 70.3887 33.5099C70.6957 33.5341 70.9856 33.6821 71.2584 33.9538C71.612 34.3201 71.7766 34.6568 71.7524 34.9638C71.7246 35.3147 71.5574 35.662 71.2507 36.0056L68.4196 39.1583L70.8381 42.9025C70.9951 43.1503 71.0643 43.3912 71.0458 43.6251C71.0169 43.9906 70.7687 44.3388 70.3012 44.6697C70.068 44.8278 69.776 44.893 69.4251 44.8653C68.9864 44.8306 68.6494 44.6274 68.4139 44.2557L66.5523 41.2838L64.2689 43.9281ZM77.4019 37.8379C77.4793 36.8582 77.1378 36.3384 76.3775 36.2783C76.0851 36.2552 75.8521 36.3177 75.6786 36.4658C75.5197 36.6151 75.3234 36.8644 75.0898 37.2138C74.9702 37.425 74.7887 37.5798 74.5456 37.6783C74.3035 37.7622 74.0582 37.7943 73.8097 37.7747C73.4734 37.7481 73.1958 37.6305 72.9769 37.4219C72.6883 37.1637 72.5579 36.8592 72.5856 36.5083C72.6111 36.1866 72.7873 35.818 73.1144 35.4025C73.5081 34.8893 74.0156 34.5174 74.637 34.287C75.2742 34.0431 75.9364 33.9483 76.6236 34.0026C77.8225 34.0974 78.7111 34.3956 79.2894 34.8974C80.0339 35.53 80.3553 36.4897 80.2536 37.7763C80.1762 38.7559 79.7242 39.728 78.8976 40.6926C78.1184 41.6167 77.0964 42.4481 75.8316 43.1868L76.7106 43.2342L78.4686 43.329C79.6821 43.4249 80.2623 43.8091 80.2092 44.4817C80.1549 45.1689 79.6423 45.5109 78.6716 45.5077C78.2599 45.5046 77.6446 45.4707 76.8258 45.406L73.558 45.1477C72.7685 45.0853 72.2558 44.9639 72.0199 44.7834C71.8941 44.6999 71.8072 44.5901 71.7591 44.4539C71.711 44.3177 71.6956 44.1399 71.713 43.9206C71.7534 43.4088 72.0164 42.9662 72.502 42.5926L73.1831 42.0727L73.8371 41.6168C74.8668 40.8742 75.6036 40.2998 76.0477 39.8936C76.9019 39.1372 77.3533 38.4519 77.4019 37.8379Z" fill="url(#paint1_linear_3959_19473)"/>
<path d="M64.2689 43.9281C64.0095 44.2313 63.6532 44.365 63.2 44.3292C62.8783 44.3037 62.5934 44.1856 62.3452 43.9747C61.9355 43.5745 61.7439 43.2063 61.7705 42.87C61.7878 42.6507 61.8934 42.431 62.0874 42.2109L65.064 38.8931L62.7632 35.3348C62.5008 34.9315 62.3818 34.5764 62.406 34.2693C62.4338 33.9184 62.6577 33.5978 63.0779 33.3073C63.3415 33.1369 63.6341 33.0644 63.9558 33.0898C64.1897 33.1083 64.4117 33.1847 64.6218 33.319C64.8319 33.4533 65.0081 33.6437 65.1504 33.8904L66.9093 36.7659L69.12 34.2041C69.5564 33.7089 69.9793 33.4775 70.3887 33.5099C70.6957 33.5341 70.9856 33.6821 71.2584 33.9538C71.612 34.3201 71.7766 34.6568 71.7524 34.9638C71.7246 35.3147 71.5574 35.662 71.2507 36.0056L68.4196 39.1583L70.8381 42.9025C70.9951 43.1503 71.0643 43.3912 71.0458 43.6251C71.0169 43.9906 70.7687 44.3388 70.3012 44.6697C70.068 44.8278 69.776 44.893 69.4251 44.8653C68.9864 44.8306 68.6494 44.6274 68.4139 44.2557L66.5523 41.2838L64.2689 43.9281ZM77.4019 37.8379C77.4793 36.8582 77.1378 36.3384 76.3775 36.2783C76.0851 36.2552 75.8521 36.3177 75.6786 36.4658C75.5197 36.6151 75.3234 36.8644 75.0898 37.2138C74.9702 37.425 74.7887 37.5798 74.5456 37.6783C74.3035 37.7622 74.0582 37.7943 73.8097 37.7747C73.4734 37.7481 73.1958 37.6305 72.9769 37.4219C72.6883 37.1637 72.5579 36.8592 72.5856 36.5083C72.6111 36.1866 72.7873 35.818 73.1144 35.4025C73.5081 34.8893 74.0156 34.5174 74.637 34.287C75.2742 34.0431 75.9364 33.9483 76.6236 34.0026C77.8225 34.0974 78.7111 34.3956 79.2894 34.8974C80.0339 35.53 80.3553 36.4897 80.2536 37.7763C80.1762 38.7559 79.7242 39.728 78.8976 40.6926C78.1184 41.6167 77.0964 42.4481 75.8316 43.1868L76.7106 43.2342L78.4686 43.329C79.6821 43.4249 80.2623 43.8091 80.2092 44.4817C80.1549 45.1689 79.6423 45.5109 78.6716 45.5077C78.2599 45.5046 77.6446 45.4707 76.8258 45.406L73.558 45.1477C72.7685 45.0853 72.2558 44.9639 72.0199 44.7834C71.8941 44.6999 71.8072 44.5901 71.7591 44.4539C71.711 44.3177 71.6956 44.1399 71.713 43.9206C71.7534 43.4088 72.0164 42.9662 72.502 42.5926L73.1831 42.0727L73.8371 41.6168C74.8668 40.8742 75.6036 40.2998 76.0477 39.8936C76.9019 39.1372 77.3533 38.4519 77.4019 37.8379Z" fill="url(#paint2_linear_3959_19473)"/>
<path d="M64.2689 43.9281C64.0095 44.2313 63.6532 44.365 63.2 44.3292C62.8783 44.3037 62.5934 44.1856 62.3452 43.9747C61.9355 43.5745 61.7439 43.2063 61.7705 42.87C61.7878 42.6507 61.8934 42.431 62.0874 42.2109L65.064 38.8931L62.7632 35.3348C62.5008 34.9315 62.3818 34.5764 62.406 34.2693C62.4338 33.9184 62.6577 33.5978 63.0779 33.3073C63.3415 33.1369 63.6341 33.0644 63.9558 33.0898C64.1897 33.1083 64.4117 33.1847 64.6218 33.319C64.8319 33.4533 65.0081 33.6437 65.1504 33.8904L66.9093 36.7659L69.12 34.2041C69.5564 33.7089 69.9793 33.4775 70.3887 33.5099C70.6957 33.5341 70.9856 33.6821 71.2584 33.9538C71.612 34.3201 71.7766 34.6568 71.7524 34.9638C71.7246 35.3147 71.5574 35.662 71.2507 36.0056L68.4196 39.1583L70.8381 42.9025C70.9951 43.1503 71.0643 43.3912 71.0458 43.6251C71.0169 43.9906 70.7687 44.3388 70.3012 44.6697C70.068 44.8278 69.776 44.893 69.4251 44.8653C68.9864 44.8306 68.6494 44.6274 68.4139 44.2557L66.5523 41.2838L64.2689 43.9281ZM77.4019 37.8379C77.4793 36.8582 77.1378 36.3384 76.3775 36.2783C76.0851 36.2552 75.8521 36.3177 75.6786 36.4658C75.5197 36.6151 75.3234 36.8644 75.0898 37.2138C74.9702 37.425 74.7887 37.5798 74.5456 37.6783C74.3035 37.7622 74.0582 37.7943 73.8097 37.7747C73.4734 37.7481 73.1958 37.6305 72.9769 37.4219C72.6883 37.1637 72.5579 36.8592 72.5856 36.5083C72.6111 36.1866 72.7873 35.818 73.1144 35.4025C73.5081 34.8893 74.0156 34.5174 74.637 34.287C75.2742 34.0431 75.9364 33.9483 76.6236 34.0026C77.8225 34.0974 78.7111 34.3956 79.2894 34.8974C80.0339 35.53 80.3553 36.4897 80.2536 37.7763C80.1762 38.7559 79.7242 39.728 78.8976 40.6926C78.1184 41.6167 77.0964 42.4481 75.8316 43.1868L76.7106 43.2342L78.4686 43.329C79.6821 43.4249 80.2623 43.8091 80.2092 44.4817C80.1549 45.1689 79.6423 45.5109 78.6716 45.5077C78.2599 45.5046 77.6446 45.4707 76.8258 45.406L73.558 45.1477C72.7685 45.0853 72.2558 44.9639 72.0199 44.7834C71.8941 44.6999 71.8072 44.5901 71.7591 44.4539C71.711 44.3177 71.6956 44.1399 71.713 43.9206C71.7534 43.4088 72.0164 42.9662 72.502 42.5926L73.1831 42.0727L73.8371 41.6168C74.8668 40.8742 75.6036 40.2998 76.0477 39.8936C76.9019 39.1372 77.3533 38.4519 77.4019 37.8379Z" fill="url(#paint3_linear_3959_19473)"/>
<path d="M64.2689 43.9281L61.9982 41.9674L61.9892 41.978L64.2689 43.9281ZM62.3452 43.9747L60.2491 46.1209L60.3234 46.1935L60.4026 46.2608L62.3452 43.9747ZM62.0874 42.2109L59.8544 40.2075L59.8455 40.2174L59.8366 40.2274L62.0874 42.2109ZM65.064 38.8931L67.297 40.8965L68.8283 39.1897L67.5833 37.2642L65.064 38.8931ZM62.7632 35.3348L65.2824 33.7058L65.2778 33.6987L62.7632 35.3348ZM63.0779 33.3073L61.449 30.7881L61.4101 30.8132L61.372 30.8395L63.0779 33.3073ZM64.6218 33.319L63.0059 35.8466L63.0059 35.8466L64.6218 33.319ZM65.1504 33.8904L62.5521 35.3899L62.5712 35.4231L62.5912 35.4558L65.1504 33.8904ZM66.9093 36.7659L64.3502 38.3313L66.4951 41.8379L69.1806 38.7259L66.9093 36.7659ZM69.12 34.2041L66.8693 32.2206L66.859 32.2323L66.8488 32.2441L69.12 34.2041ZM71.2584 33.9538L73.417 31.8704L73.3964 31.8491L73.3754 31.8281L71.2584 33.9538ZM71.2507 36.0056L73.4828 38.01L73.4888 38.0033L71.2507 36.0056ZM68.4196 39.1583L66.1875 37.1539L64.6554 38.86L65.8996 40.7861L68.4196 39.1583ZM70.8381 42.9025L73.3724 41.2972L73.3653 41.2859L73.3581 41.2747L70.8381 42.9025ZM70.3012 44.6697L71.9849 47.1526L72.0097 47.1358L72.0342 47.1185L70.3012 44.6697ZM68.4139 44.2557L65.8716 45.8483L65.8756 45.8547L65.8796 45.861L68.4139 44.2557ZM66.5523 41.2838L69.0947 39.6912L66.9375 36.2475L64.2817 39.3231L66.5523 41.2838ZM64.2689 43.9281L61.9892 41.978C62.1725 41.7637 62.4336 41.5669 62.7533 41.4469C63.0591 41.3322 63.3089 41.3284 63.4363 41.3385L63.2 44.3292L62.9636 47.3198C64.2203 47.4191 65.5715 47.0204 66.5485 45.8783L64.2689 43.9281ZM63.2 44.3292L63.4363 41.3385C63.5748 41.3494 63.7326 41.3833 63.8942 41.4503C64.0555 41.5172 64.1876 41.6034 64.2878 41.6886L62.3452 43.9747L60.4026 46.2608C61.1265 46.876 62.007 47.2442 62.9636 47.3198L63.2 44.3292ZM62.3452 43.9747L64.4414 41.8285C64.3842 41.7727 64.4606 41.8312 64.5556 42.0138C64.6595 42.2134 64.8014 42.5974 64.7611 43.1064L61.7705 42.87L58.7798 42.6337C58.6466 44.3189 59.6314 45.5177 60.2491 46.1209L62.3452 43.9747ZM61.7705 42.87L64.7611 43.1064C64.7127 43.7198 64.4313 44.0887 64.3381 44.1944L62.0874 42.2109L59.8366 40.2274C59.3556 40.7733 58.8629 41.5816 58.7798 42.6337L61.7705 42.87ZM62.0874 42.2109L64.3204 44.2143L67.297 40.8965L65.064 38.8931L62.831 36.8897L59.8544 40.2075L62.0874 42.2109ZM65.064 38.8931L67.5833 37.2642L65.2824 33.7059L62.7632 35.3348L60.244 36.9637L62.5448 40.5221L65.064 38.8931ZM62.7632 35.3348L65.2778 33.6987C65.2479 33.6528 65.2814 33.6926 65.3216 33.8125C65.3633 33.9369 65.4225 34.1798 65.3967 34.5057L62.406 34.2693L59.4154 34.033C59.3169 35.2787 59.8156 36.3054 60.2486 36.9709L62.7632 35.3348ZM62.406 34.2693L65.3967 34.5057C65.364 34.9201 65.2132 35.2559 65.0544 35.4834C64.9803 35.5894 64.9113 35.6627 64.8644 35.7071C64.8178 35.7514 64.7872 35.7727 64.7838 35.7751L63.0779 33.3073L61.372 30.8395C60.5564 31.4033 59.5417 32.4337 59.4154 34.033L62.406 34.2693ZM63.0779 33.3073L64.7069 35.8265C64.5716 35.914 64.4055 35.9902 64.2166 36.037C64.0286 36.0836 63.8574 36.0914 63.7194 36.0804L63.9558 33.0898L64.1921 30.0991C63.2336 30.0233 62.2822 30.2493 61.449 30.7881L63.0779 33.3073ZM63.9558 33.0898L63.7194 36.0804C63.4318 36.0577 63.184 35.9604 63.0059 35.8466L64.6218 33.319L66.2377 30.7913C65.6395 30.4089 64.9476 30.1588 64.1921 30.0991L63.9558 33.0898ZM64.6218 33.319L63.0059 35.8466C62.7565 35.6872 62.6157 35.5001 62.5521 35.3899L65.1504 33.8904L67.7488 32.3908C67.4005 31.7874 66.9072 31.2194 66.2377 30.7913L64.6218 33.319ZM65.1504 33.8904L62.5912 35.4558L64.3502 38.3313L66.9093 36.7659L69.4685 35.2005L67.7096 32.3249L65.1504 33.8904ZM66.9093 36.7659L69.1806 38.7259L71.3913 36.1641L69.12 34.2041L66.8488 32.2441L64.6381 34.8059L66.9093 36.7659ZM69.12 34.2041L71.3708 36.1876C71.4376 36.1117 71.3888 36.1901 71.2046 36.2909C70.9948 36.4057 70.6247 36.5379 70.1523 36.5006L70.3887 33.5099L70.625 30.5192C68.8185 30.3764 67.5483 31.4501 66.8693 32.2206L69.12 34.2041ZM70.3887 33.5099L70.1523 36.5006C69.586 36.4558 69.243 36.1806 69.1414 36.0794L71.2584 33.9538L73.3754 31.8281C72.7283 31.1836 71.8054 30.6125 70.625 30.5192L70.3887 33.5099ZM71.2584 33.9538L69.0998 36.0372C69.1314 36.0699 69.0469 35.9928 68.9521 35.799C68.8496 35.5895 68.7232 35.2143 68.7617 34.7275L71.7524 34.9638L74.743 35.2002C74.8684 33.6135 73.9904 32.4645 73.417 31.8704L71.2584 33.9538ZM71.7524 34.9638L68.7617 34.7275C68.7797 34.4995 68.8412 34.3147 68.9032 34.1859C68.933 34.124 68.961 34.0788 68.9807 34.0501C68.9906 34.0357 68.9986 34.0251 69.0041 34.0182C69.0095 34.0114 69.0126 34.0079 69.0127 34.0078L71.2507 36.0056L73.4888 38.0033C74.0973 37.3216 74.6497 36.3812 74.743 35.2002L71.7524 34.9638ZM71.2507 36.0056L69.0186 34.0011L66.1875 37.1539L68.4196 39.1583L70.6517 41.1627L73.4828 38.01L71.2507 36.0056ZM68.4196 39.1583L65.8996 40.7861L68.3181 44.5303L70.8381 42.9025L73.3581 41.2747L70.9395 37.5305L68.4196 39.1583ZM70.8381 42.9025L68.3037 44.5078C68.2015 44.3464 68.0109 43.9488 68.0551 43.3887L71.0458 43.6251L74.0365 43.8614C74.1177 42.8335 73.7886 41.9542 73.3724 41.2972L70.8381 42.9025ZM71.0458 43.6251L68.0551 43.3887C68.0902 42.9449 68.2568 42.6131 68.3951 42.419C68.52 42.2439 68.6146 42.188 68.5682 42.2209L70.3012 44.6697L72.0342 47.1185C72.8197 46.5626 73.9058 45.5154 74.0365 43.8614L71.0458 43.6251ZM70.3012 44.6697L68.6175 42.1867C69.0769 41.8752 69.5065 41.8623 69.6614 41.8746L69.4251 44.8653L69.1887 47.8559C70.0454 47.9236 71.0591 47.7804 71.9849 47.1526L70.3012 44.6697ZM69.4251 44.8653L69.6614 41.8746C69.851 41.8896 70.1168 41.9516 70.3922 42.1176C70.6675 42.2836 70.8465 42.4897 70.9483 42.6504L68.4139 44.2557L65.8796 45.861C66.6203 47.0304 67.8088 47.7469 69.1887 47.8559L69.4251 44.8653ZM68.4139 44.2557L70.9563 42.6631L69.0947 39.6912L66.5523 41.2838L64.0099 42.8764L65.8716 45.8483L68.4139 44.2557ZM66.5523 41.2838L64.2817 39.3231L61.9983 41.9674L64.2689 43.9281L66.5395 45.8888L68.8229 43.2445L66.5523 41.2838ZM75.6786 36.4658L73.731 34.184L73.6767 34.2303L73.6247 34.2792L75.6786 36.4658ZM75.0898 37.2138L72.5959 35.5463L72.5343 35.6384L72.4797 35.7349L75.0898 37.2138ZM74.5456 37.6783L75.5277 40.513L75.6004 40.4878L75.6716 40.459L74.5456 37.6783ZM72.9769 37.4219L75.0462 35.2499L75.0123 35.2176L74.9774 35.1863L72.9769 37.4219ZM73.1144 35.4025L75.4717 37.2581L75.4834 37.2433L75.4948 37.2283L73.1144 35.4025ZM74.637 34.287L75.68 37.0998L75.6948 37.0944L75.7094 37.0888L74.637 34.287ZM79.2894 34.8974L77.3232 37.1633L77.3349 37.1735L77.3468 37.1835L79.2894 34.8974ZM78.8976 40.6926L76.6196 38.7405L76.6118 38.7496L76.6041 38.7587L78.8976 40.6926ZM75.8316 43.1868L74.3187 40.5962L65.6761 45.6435L75.67 46.1824L75.8316 43.1868ZM76.7106 43.2342L76.8721 40.2385V40.2385L76.7106 43.2342ZM78.4686 43.329L78.7049 40.3383L78.6675 40.3353L78.6301 40.3333L78.4686 43.329ZM78.6716 45.5077L78.6489 48.5077L78.6618 48.5077L78.6716 45.5077ZM72.0199 44.7834L73.8431 42.401L73.763 42.3397L73.6789 42.2839L72.0199 44.7834ZM71.7591 44.4539L68.9302 45.4525L68.9302 45.4525L71.7591 44.4539ZM72.502 42.5926L70.6816 40.2081L70.6728 40.2148L72.502 42.5926ZM73.1831 42.0727L71.4675 39.6117L71.4142 39.6488L71.3627 39.6881L73.1831 42.0727ZM73.8371 41.6168L75.5527 44.0777L75.5724 44.0641L75.5918 44.0501L73.8371 41.6168ZM76.0477 39.8936L74.0589 37.6475L74.0406 37.6637L74.0226 37.6802L76.0477 39.8936ZM77.4019 37.8379L80.3925 38.0742C80.4553 37.2803 80.4059 36.1238 79.7114 35.0663C78.9164 33.856 77.6861 33.3724 76.6139 33.2876L76.3775 36.2783L76.1412 39.269C76.0144 39.259 75.7657 39.2189 75.4719 39.0643C75.1606 38.9004 74.89 38.6551 74.6963 38.3602C74.3432 37.8225 74.4259 37.4158 74.4112 37.6015L77.4019 37.8379ZM76.3775 36.2783L76.6139 33.2876C75.7654 33.2206 74.6693 33.3831 73.731 34.184L75.6786 36.4658L77.6262 38.7477C77.0349 39.2523 76.4049 39.2898 76.1412 39.269L76.3775 36.2783ZM75.6786 36.4658L73.6247 34.2792C73.2106 34.6681 72.8623 35.1479 72.5959 35.5463L75.0898 37.2138L77.5837 38.8812C77.6703 38.7517 77.7318 38.6683 77.7695 38.6203C77.7876 38.5973 77.7951 38.5891 77.7922 38.5924C77.79 38.5948 77.77 38.6173 77.7325 38.6525L75.6786 36.4658ZM75.0898 37.2138L72.4797 35.7349C72.5891 35.5418 72.7364 35.3601 72.9164 35.2065C73.0942 35.0547 73.2719 34.9575 73.4195 34.8977L74.5456 37.6783L75.6716 40.459C76.4881 40.1283 77.219 39.5416 77.7 38.6927L75.0898 37.2138ZM74.5456 37.6783L73.5634 34.8437C73.7015 34.7958 73.8706 34.7701 74.046 34.784L73.8097 37.7747L73.5733 40.7653C74.2459 40.8185 74.9056 40.7286 75.5277 40.513L74.5456 37.6783ZM73.8097 37.7747L74.046 34.784C74.1615 34.7931 74.3281 34.8231 74.5192 34.9041C74.7143 34.9867 74.8947 35.1055 75.0462 35.2499L72.9769 37.4219L70.9075 39.594C71.6833 40.3331 72.6345 40.6911 73.5733 40.7653L73.8097 37.7747ZM72.9769 37.4219L74.9774 35.1863C75.1048 35.3003 75.2865 35.5062 75.4204 35.819C75.5584 36.1411 75.5983 36.4669 75.5763 36.7446L72.5856 36.5083L69.595 36.2719C69.4854 37.6587 70.0704 38.8469 70.9764 39.6576L72.9769 37.4219ZM72.5856 36.5083L75.5763 36.7446C75.5534 37.0341 75.4736 37.2216 75.4434 37.2848C75.413 37.3482 75.4072 37.34 75.4717 37.2581L73.1144 35.4025L70.7571 33.5469C70.2755 34.1587 69.6882 35.0921 69.595 36.2719L72.5856 36.5083ZM73.1144 35.4025L75.4948 37.2283C75.5357 37.175 75.5747 37.1389 75.68 37.0998L74.637 34.287L73.594 31.4741C72.4565 31.8959 71.4804 32.6035 70.734 33.5767L73.1144 35.4025ZM74.637 34.287L75.7094 37.0888C75.9254 37.0061 76.1402 36.9738 76.3872 36.9933L76.6236 34.0026L76.8599 31.0119C75.7326 30.9229 74.623 31.0801 73.5646 31.4852L74.637 34.287ZM76.6236 34.0026L76.3872 36.9933C76.8073 37.0265 77.0775 37.0887 77.2346 37.1414C77.3882 37.193 77.3886 37.22 77.3232 37.1633L79.2894 34.8974L81.2556 32.6316C79.9869 31.5307 78.3583 31.1304 76.8599 31.0119L76.6236 34.0026ZM79.2894 34.8974L77.3468 37.1835C77.326 37.1659 77.2993 37.1377 77.2754 37.102C77.2519 37.0669 77.2438 37.0435 77.2441 37.0443C77.2467 37.052 77.2904 37.1924 77.2629 37.54L80.2536 37.7763L83.2442 38.0127C83.3951 36.1035 82.9354 34.0588 81.232 32.6113L79.2894 34.8974ZM80.2536 37.7763L77.2629 37.54C77.2484 37.7236 77.154 38.1169 76.6196 38.7405L78.8976 40.6926L81.1756 42.6447C82.2943 41.3392 83.1039 39.7883 83.2442 38.0127L80.2536 37.7763ZM78.8976 40.6926L76.6041 38.7587C76.0868 39.3722 75.3483 39.9949 74.3187 40.5962L75.8316 43.1868L77.3445 45.7773C78.8444 44.9014 80.15 43.8612 81.1911 42.6264L78.8976 40.6926ZM75.8316 43.1868L75.67 46.1824L76.549 46.2298L76.7106 43.2342L76.8721 40.2385L75.9931 40.1911L75.8316 43.1868ZM76.7106 43.2342L76.549 46.2298L78.307 46.3246L78.4686 43.329L78.6301 40.3333L76.8721 40.2385L76.7106 43.2342ZM78.4686 43.329L78.2322 46.3196C78.3157 46.3262 78.3783 46.3341 78.4223 46.3411C78.4667 46.3482 78.4859 46.3534 78.4843 46.3529C78.483 46.3526 78.4519 46.3443 78.3987 46.3218C78.3455 46.2994 78.2605 46.2586 78.1574 46.1903C77.9426 46.048 77.6535 45.787 77.4456 45.3702C77.2353 44.9484 77.1951 44.5413 77.2185 44.2453L80.2092 44.4817L83.1998 44.718C83.2498 44.0857 83.157 43.3784 82.8149 42.6924C82.4753 42.0114 81.9753 41.5222 81.4703 41.1878C80.5468 40.5762 79.49 40.4003 78.7049 40.3383L78.4686 43.329ZM80.2092 44.4817L77.2185 44.2453C77.2327 44.0652 77.2874 43.7888 77.4547 43.4851C77.6274 43.1714 77.8668 42.9263 78.1188 42.7582C78.5683 42.4582 78.8865 42.5084 78.6813 42.5077L78.6716 45.5077L78.6618 48.5077C79.4274 48.5102 80.4872 48.391 81.4492 47.749C82.5678 47.0026 83.1101 45.8541 83.1998 44.718L80.2092 44.4817ZM78.6716 45.5077L78.6942 42.5078C78.3934 42.5055 77.865 42.4788 77.0622 42.4153L76.8258 45.406L76.5895 48.3967C77.4242 48.4626 78.1263 48.5037 78.6489 48.5076L78.6716 45.5077ZM76.8258 45.406L77.0622 42.4153L73.7944 42.1571L73.558 45.1477L73.3217 48.1384L76.5895 48.3967L76.8258 45.406ZM73.558 45.1477L73.7944 42.1571C73.6463 42.1454 73.5284 42.1322 73.4371 42.1193C73.3445 42.1062 73.2923 42.0953 73.2728 42.0906C73.2498 42.0852 73.2898 42.0928 73.3709 42.1255C73.4135 42.1427 73.4765 42.1704 73.5534 42.2122C73.6298 42.2537 73.7304 42.3147 73.8431 42.401L72.0199 44.7834L70.1968 47.1659C70.8162 47.6399 71.4924 47.835 71.8899 47.9291C72.3502 48.0381 72.8417 48.1005 73.3217 48.1384L73.558 45.1477ZM72.0199 44.7834L73.6789 42.2839C74.0693 42.543 74.409 42.9483 74.588 43.4552L71.7591 44.4539L68.9302 45.4525C69.2053 46.2319 69.719 46.8569 70.3609 47.283L72.0199 44.7834ZM71.7591 44.4539L74.588 43.4552C74.6653 43.6743 74.6911 43.8529 74.7003 43.9599C74.7097 44.0683 74.7051 44.1382 74.7036 44.1569L71.713 43.9206L68.7223 43.6842C68.6875 44.1243 68.6888 44.7686 68.9302 45.4525L71.7591 44.4539ZM71.713 43.9206L74.7036 44.1569C74.6876 44.3604 74.622 44.565 74.5196 44.7372C74.4239 44.8983 74.3337 44.9685 74.3313 44.9704L72.502 42.5926L70.6728 40.2148C69.6565 40.9967 68.8425 42.1632 68.7223 43.6842L71.713 43.9206ZM72.502 42.5926L74.3225 44.9771L75.0036 44.4572L73.1831 42.0727L71.3627 39.6881L70.6816 40.2081L72.502 42.5926ZM73.1831 42.0727L74.8988 44.5336L75.5527 44.0777L73.8371 41.6168L72.1214 39.1558L71.4675 39.6117L73.1831 42.0727ZM73.8371 41.6168L75.5918 44.0501C76.6363 43.2969 77.4925 42.6378 78.0728 42.1069L76.0477 39.8936L74.0226 37.6802C73.7148 37.9618 73.0973 38.4516 72.0824 39.1834L73.8371 41.6168ZM76.0477 39.8936L78.0365 42.1396C79.028 41.2616 80.2482 39.9008 80.3925 38.0742L77.4019 37.8379L74.4112 37.6015C74.4379 37.2638 74.5579 37.107 74.5216 37.162C74.507 37.1842 74.4677 37.2392 74.3892 37.3258C74.3113 37.4118 74.2037 37.5193 74.0589 37.6475L76.0477 39.8936Z" fill="white" mask="url(#path-3-outside-2_3959_19473)"/>
</g>
<path d="M12.0896 27.5293H10.3125V45.377H12.0896V27.5293Z" fill="url(#paint4_linear_3959_19473)"/>
<path d="M18.5533 27.9863C16.9327 33.2481 16.6714 38.8347 17.794 44.2247C17.9884 45.1805 18.3747 46.0869 18.9295 46.8891C19.4843 47.6913 20.196 48.3726 21.0217 48.8918C25.9033 51.9528 31.5083 53.6671 37.2669 53.8603C44.7333 54.087 50.8941 51.4849 55.1736 48.9235C56.0634 48.3886 56.8276 47.6684 57.4143 46.8118C58.0009 45.9553 58.3964 44.9825 58.5736 43.9595C59.515 38.6471 59.268 33.192 57.8505 27.9863C56.1959 29.4483 48.768 35.693 37.5639 35.4482C27.1689 35.2215 20.3372 29.5549 18.5647 27.9863" fill="url(#paint5_linear_3959_19473)"/>
<path d="M20.0516 28.9769C18.5554 33.8363 18.3144 38.9955 19.3512 43.9731C19.5313 44.8551 19.8883 45.6915 20.4006 46.4317C20.9129 47.1719 21.5699 47.8006 22.3319 48.2798C26.8397 51.106 32.0152 52.6888 37.3327 52.8675C44.2256 53.0806 49.915 50.6734 53.8635 48.3093C54.6836 47.8139 55.3877 47.1481 55.9281 46.357C56.4686 45.5659 56.8328 44.6679 56.996 43.7238C57.8603 38.8175 57.6281 33.7806 56.316 28.9746C54.7906 30.3346 47.9294 36.0919 37.5866 35.8675C27.985 35.659 21.6859 30.4275 20.0403 28.9746" fill="url(#paint6_linear_3959_19473)"/>
<path d="M10.179 25.5121L36.9846 14.4054C37.8897 14.0393 38.9016 14.0393 39.8066 14.4054L66.2314 25.5121C68.1898 26.3349 68.2012 28.4429 66.2496 29.277L39.6185 40.6466C38.6986 41.0251 37.6665 41.0251 36.7466 40.6466L10.1473 29.2816C8.18663 28.4452 8.20476 26.3304 10.179 25.5121Z" fill="url(#paint7_linear_3959_19473)"/>
<path d="M38.1808 38.439C38.1419 38.4398 38.1032 38.432 38.0675 38.4163L11.4659 27.0535C11.4285 27.0476 11.3946 27.0281 11.3707 26.9987C11.3467 26.9694 11.3344 26.9323 11.3361 26.8944C11.3378 26.8566 11.3533 26.8207 11.3798 26.7936C11.4062 26.7665 11.4417 26.7501 11.4795 26.7475L38.2738 15.6408C38.3095 15.6252 38.3481 15.6172 38.3871 15.6172C38.4261 15.6172 38.4647 15.6252 38.5004 15.6408L64.9252 26.7475C64.9583 26.7559 64.9876 26.7748 65.0089 26.8014C65.0302 26.828 65.0422 26.8608 65.0431 26.8948C65.0427 26.9287 65.0311 26.9614 65.0103 26.9881C64.9894 27.0147 64.9603 27.0337 64.9275 27.0422L38.2942 38.4163C38.2584 38.4316 38.2198 38.4394 38.1808 38.439Z" fill="url(#paint8_linear_3959_19473)"/>
<path d="M14.1453 51.6346H8.30859V46.8361C8.30919 46.0608 8.61745 45.3174 9.16568 44.7692C9.7139 44.221 10.4573 43.9127 11.2326 43.9121C12.0081 43.9121 12.7518 44.2202 13.3002 44.7685C13.8485 45.3169 14.1566 46.0606 14.1566 46.8361L14.1453 51.6346Z" fill="url(#paint9_linear_3959_19473)"/>
<path d="M10.2181 45.8555H9.60156V51.6355H10.2181V45.8555Z" fill="url(#paint10_linear_3959_19473)"/>
<path d="M11.4681 45.8555H10.8516V51.6355H11.4681V45.8555Z" fill="url(#paint11_linear_3959_19473)"/>
<path d="M12.6868 45.8555H12.0703V51.6355H12.6868V45.8555Z" fill="url(#paint12_linear_3959_19473)"/>
<path d="M11.2189 45.2639C12.0926 45.2639 12.801 44.5555 12.801 43.6817C12.801 42.808 12.0926 42.0996 11.2189 42.0996C10.3451 42.0996 9.63672 42.808 9.63672 43.6817C9.63672 44.5555 10.3451 45.2639 11.2189 45.2639Z" fill="url(#paint13_linear_3959_19473)"/>
<path d="M11.222 44.5513C11.0498 44.5513 10.8815 44.5003 10.7384 44.4047C10.5953 44.309 10.4837 44.1731 10.4178 44.014C10.3519 43.855 10.3347 43.68 10.3683 43.5111C10.4019 43.3423 10.4848 43.1872 10.6065 43.0655C10.7282 42.9438 10.8833 42.8609 11.0522 42.8273C11.221 42.7937 11.396 42.8109 11.5551 42.8768C11.7141 42.9427 11.85 43.0542 11.9457 43.1974C12.0413 43.3405 12.0924 43.5088 12.0924 43.6809C12.0924 43.7953 12.0698 43.9084 12.0261 44.014C11.9824 44.1196 11.9183 44.2156 11.8374 44.2964C11.7566 44.3772 11.6607 44.4413 11.5551 44.4851C11.4494 44.5288 11.3363 44.5513 11.222 44.5513Z" fill="url(#paint14_linear_3959_19473)"/>
<defs>
<filter id="filter0_d_3959_19473" x="0" y="8" width="88.2695" height="55.7441" filterUnits="userSpaceOnUse" color-interpolation-filters="sRGB">
<feFlood flood-opacity="0" result="BackgroundImageFix"/>
<feColorMatrix in="SourceAlpha" type="matrix" values="0 0 0 0 0 0 0 0 0 0 0 0 0 0 0 0 0 0 127 0" result="hardAlpha"/>
<feOffset dy="2"/>
<feGaussianBlur stdDeviation="2.5"/>
<feComposite in2="hardAlpha" operator="out"/>
<feColorMatrix type="matrix" values="0 0 0 0 0 0 0 0 0 0 0 0 0 0 0 0 0 0 0.2 0"/>
<feBlend mode="normal" in2="BackgroundImageFix" result="effect1_dropShadow_3959_19473"/>
<feBlend mode="normal" in="SourceGraphic" in2="effect1_dropShadow_3959_19473" result="shape"/>
</filter>
<linearGradient id="paint0_linear_3959_19473" x1="71.3915" y1="44.7095" x2="72.6664" y2="28.5769" gradientUnits="userSpaceOnUse">
<stop stop-color="#FFDA45"/>
<stop offset="1" stop-color="#FFA733"/>
</linearGradient>
<linearGradient id="paint1_linear_3959_19473" x1="81.9642" y1="37.7867" x2="62.0388" y2="36.212" gradientUnits="userSpaceOnUse">
<stop stop-color="#92F37F"/>
<stop offset="1" stop-color="#3DB264"/>
</linearGradient>
<linearGradient id="paint2_linear_3959_19473" x1="62.035" y1="36.2175" x2="81.9605" y2="37.7922" gradientUnits="userSpaceOnUse">
<stop stop-color="#1BC0E9"/>
<stop offset="1" stop-color="#1782BD"/>
</linearGradient>
<linearGradient id="paint3_linear_3959_19473" x1="68.2702" y1="30.3763" x2="84.4568" y2="45.9696" gradientUnits="userSpaceOnUse">
<stop stop-color="#FF7044"/>
<stop offset="1" stop-color="#F41700"/>
</linearGradient>
<linearGradient id="paint4_linear_3959_19473" x1="11.201" y1="42.7273" x2="11.201" y2="29.5988" gradientUnits="userSpaceOnUse">
<stop stop-color="#FFDA45"/>
<stop offset="1" stop-color="#FFA733"/>
</linearGradient>
<linearGradient id="paint5_linear_3959_19473" x1="38.1169" y1="35.8426" x2="38.1169" y2="64.6338" gradientUnits="userSpaceOnUse">
<stop stop-color="#3A3A3A"/>
<stop offset="1" stop-color="#7A7A7A"/>
</linearGradient>
<linearGradient id="paint6_linear_3959_19473" x1="48.5436" y1="50.6779" x2="32.1239" y2="29.7679" gradientUnits="userSpaceOnUse">
<stop offset="0.01" stop-color="#3A3A3A" stop-opacity="0"/>
<stop offset="1" stop-color="#E2E2E2" stop-opacity="0.1"/>
</linearGradient>
<linearGradient id="paint7_linear_3959_19473" x1="38.1973" y1="42.9178" x2="38.1973" y2="15.6408" gradientUnits="userSpaceOnUse">
<stop stop-color="#3A3A3A"/>
<stop offset="1" stop-color="#7A7A7A"/>
</linearGradient>
<linearGradient id="paint8_linear_3959_19473" x1="39.8242" y1="38.2055" x2="36.2451" y2="13.3719" gradientUnits="userSpaceOnUse">
<stop offset="0.01" stop-color="#4A4A4A" stop-opacity="0"/>
<stop offset="1" stop-color="#E2E2E2" stop-opacity="0.2"/>
</linearGradient>
<linearGradient id="paint9_linear_3959_19473" x1="11.2213" y1="50.4877" x2="11.2213" y2="44.8074" gradientUnits="userSpaceOnUse">
<stop stop-color="#FFDA45"/>
<stop offset="1" stop-color="#FFA733"/>
</linearGradient>
<linearGradient id="paint10_linear_3959_19473" x1="9.69223" y1="48.7455" x2="10.1456" y2="48.7455" gradientUnits="userSpaceOnUse">
<stop stop-color="#FFA733" stop-opacity="0.4"/>
<stop offset="1" stop-color="#FFDA45" stop-opacity="0"/>
</linearGradient>
<linearGradient id="paint11_linear_3959_19473" x1="10.9422" y1="48.7455" x2="11.3956" y2="48.7455" gradientUnits="userSpaceOnUse">
<stop stop-color="#FFA733" stop-opacity="0.4"/>
<stop offset="1" stop-color="#FFDA45" stop-opacity="0"/>
</linearGradient>
<linearGradient id="paint12_linear_3959_19473" x1="12.1632" y1="48.7455" x2="12.6166" y2="48.7455" gradientUnits="userSpaceOnUse">
<stop stop-color="#FFA733" stop-opacity="0.4"/>
<stop offset="1" stop-color="#FFDA45" stop-opacity="0"/>
</linearGradient>
<linearGradient id="paint13_linear_3959_19473" x1="10.1082" y1="43.6817" x2="12.4338" y2="43.6817" gradientUnits="userSpaceOnUse">
<stop stop-color="#FF7044"/>
<stop offset="1" stop-color="#F63E25"/>
</linearGradient>
<linearGradient id="paint14_linear_3959_19473" x1="10.61" y1="43.6809" x2="11.8906" y2="43.6809" gradientUnits="userSpaceOnUse">
<stop stop-color="#F63E25"/>
<stop offset="1" stop-color="#FF7044"/>
</linearGradient>
</defs>
</svg>
