<svg width="74" height="74" viewBox="0 0 74 74" fill="none" xmlns="http://www.w3.org/2000/svg">
<g filter="url(#filter0_i_3958_21532)">
<path d="M36.4983 36.2236C33.9259 34.7831 30.1965 34.5688 26.8014 34.7899C22.8475 35.0501 18.8569 35.9328 16.3707 36.6691C16.1425 36.7367 15.9491 36.8456 15.8134 36.9828C15.6777 37.12 15.6055 37.2798 15.6055 37.443V56.1505C15.6055 56.2927 15.6604 56.4327 15.7651 56.5576C15.8698 56.6825 16.0209 56.7883 16.2046 56.8653C16.3883 56.9423 16.5988 56.988 16.8167 56.9983C17.0346 57.0086 17.253 56.9832 17.4519 56.9243C19.7553 56.244 23.4664 55.426 27.0626 55.1896C30.7423 54.9481 33.8267 55.3375 35.4798 56.6811C35.6022 56.7804 35.7572 56.8605 35.9335 56.9156C36.1098 56.9707 36.3028 56.9993 36.4983 56.9993C36.6939 56.9993 36.8869 56.9707 37.0632 56.9156C37.2395 56.8605 37.3945 56.7804 37.5169 56.6811C39.17 55.3375 42.2543 54.9481 45.9315 55.1896C49.5302 55.426 53.2439 56.244 55.5448 56.9243C55.7437 56.9832 55.9621 57.0086 56.18 56.9983C56.3979 56.988 56.6083 56.9423 56.792 56.8653C56.9758 56.7883 57.1269 56.6825 57.2316 56.5576C57.3362 56.4327 57.3911 56.2927 57.3912 56.1505V37.443C57.3911 37.2798 57.3189 37.12 57.1832 36.9828C57.0476 36.8456 56.8541 36.7367 56.626 36.6691C54.1397 35.9328 50.1492 35.0501 46.1952 34.7899C42.8001 34.5671 39.0708 34.7831 36.4983 36.2236Z" fill="#A77DFF"/>
<path d="M36.4983 36.2236C33.9259 34.7831 30.1965 34.5688 26.8014 34.7899C22.8475 35.0501 18.8569 35.9328 16.3707 36.6691C16.1425 36.7367 15.9491 36.8456 15.8134 36.9828C15.6777 37.12 15.6055 37.2798 15.6055 37.443V56.1505C15.6055 56.2927 15.6604 56.4327 15.7651 56.5576C15.8698 56.6825 16.0209 56.7883 16.2046 56.8653C16.3883 56.9423 16.5988 56.988 16.8167 56.9983C17.0346 57.0086 17.253 56.9832 17.4519 56.9243C19.7553 56.244 23.4664 55.426 27.0626 55.1896C30.7423 54.9481 33.8267 55.3375 35.4798 56.6811C35.6022 56.7804 35.7572 56.8605 35.9335 56.9156C36.1098 56.9707 36.3028 56.9993 36.4983 56.9993C36.6939 56.9993 36.8869 56.9707 37.0632 56.9156C37.2395 56.8605 37.3945 56.7804 37.5169 56.6811C39.17 55.3375 42.2543 54.9481 45.9315 55.1896C49.5302 55.426 53.2439 56.244 55.5448 56.9243C55.7437 56.9832 55.9621 57.0086 56.18 56.9983C56.3979 56.988 56.6083 56.9423 56.792 56.8653C56.9758 56.7883 57.1269 56.6825 57.2316 56.5576C57.3362 56.4327 57.3911 56.2927 57.3912 56.1505V37.443C57.3911 37.2798 57.3189 37.12 57.1832 36.9828C57.0476 36.8456 56.8541 36.7367 56.626 36.6691C54.1397 35.9328 50.1492 35.0501 46.1952 34.7899C42.8001 34.5671 39.0708 34.7831 36.4983 36.2236Z" fill="url(#paint0_linear_3958_21532)" fill-opacity="0.5"/>
<path d="M36.4983 36.2236C33.9259 34.7831 30.1965 34.5688 26.8014 34.7899C22.8475 35.0501 18.8569 35.9328 16.3707 36.6691C16.1425 36.7367 15.9491 36.8456 15.8134 36.9828C15.6777 37.12 15.6055 37.2798 15.6055 37.443V56.1505C15.6055 56.2927 15.6604 56.4327 15.7651 56.5576C15.8698 56.6825 16.0209 56.7883 16.2046 56.8653C16.3883 56.9423 16.5988 56.988 16.8167 56.9983C17.0346 57.0086 17.253 56.9832 17.4519 56.9243C19.7553 56.244 23.4664 55.426 27.0626 55.1896C30.7423 54.9481 33.8267 55.3375 35.4798 56.6811C35.6022 56.7804 35.7572 56.8605 35.9335 56.9156C36.1098 56.9707 36.3028 56.9993 36.4983 56.9993C36.6939 56.9993 36.8869 56.9707 37.0632 56.9156C37.2395 56.8605 37.3945 56.7804 37.5169 56.6811C39.17 55.3375 42.2543 54.9481 45.9315 55.1896C49.5302 55.426 53.2439 56.244 55.5448 56.9243C55.7437 56.9832 55.9621 57.0086 56.18 56.9983C56.3979 56.988 56.6083 56.9423 56.792 56.8653C56.9758 56.7883 57.1269 56.6825 57.2316 56.5576C57.3362 56.4327 57.3911 56.2927 57.3912 56.1505V37.443C57.3911 37.2798 57.3189 37.12 57.1832 36.9828C57.0476 36.8456 56.8541 36.7367 56.626 36.6691C54.1397 35.9328 50.1492 35.0501 46.1952 34.7899C42.8001 34.5671 39.0708 34.7831 36.4983 36.2236Z" fill="url(#paint1_linear_3958_21532)" fill-opacity="0.8"/>
</g>
<g filter="url(#filter1_i_3958_21532)">
<path d="M36.5006 32.5716C34.1568 31.0711 30.7589 30.8479 27.6656 31.0782C24.0631 31.3492 20.4273 32.2687 18.162 33.0357C17.9542 33.1061 17.7779 33.2195 17.6543 33.3625C17.5307 33.5054 17.4649 33.6718 17.4648 33.8418V53.3288C17.4649 53.477 17.5149 53.6228 17.6103 53.7529C17.7056 53.883 17.8433 53.9932 18.0107 54.0734C18.1781 54.1536 18.3699 54.2012 18.5684 54.212C18.7669 54.2227 18.9659 54.1962 19.1471 54.1348C21.2458 53.4262 24.627 52.5741 27.9036 52.3278C31.2562 52.0763 34.0664 52.482 35.5726 53.8815C35.684 53.9849 35.8253 54.0684 35.9859 54.1258C36.1465 54.1832 36.3224 54.213 36.5006 54.213C36.6787 54.213 36.8546 54.1832 37.0152 54.1258C37.1758 54.0684 37.3171 53.9849 37.4286 53.8815C38.9348 52.482 41.7449 52.0763 45.0952 52.3278C48.3741 52.5741 51.7577 53.4262 53.854 54.1348C54.0352 54.1962 54.2342 54.2227 54.4327 54.212C54.6313 54.2012 54.823 54.1536 54.9904 54.0734C55.1578 53.9932 55.2955 53.883 55.3908 53.7529C55.4862 53.6228 55.5362 53.477 55.5363 53.3288V33.8418C55.5362 33.6718 55.4704 33.5054 55.3468 33.3625C55.2232 33.2195 55.0469 33.1061 54.8391 33.0357C52.5738 32.2687 48.938 31.3492 45.3355 31.0782C42.2422 30.8461 38.8443 31.0711 36.5006 32.5716Z" fill="url(#paint2_linear_3958_21532)"/>
</g>
<path d="M44.5625 27.3728C44.5625 22.6615 40.4839 18.9291 35.6018 19.4798C31.894 19.9081 28.9277 22.845 28.5569 26.5162C28.2479 29.3308 29.4221 31.8394 31.3996 33.4303C32.2648 34.1645 32.8209 35.2047 32.8209 36.3672V36.5508H40.2367V36.4896C40.2367 35.3882 40.731 34.2869 41.5962 33.5527C43.3883 32.0842 44.5625 29.8815 44.5625 27.3728Z" fill="url(#paint3_linear_3958_21532)"/>
<path d="M35.5459 18.9834C40.7233 18.3994 45.0625 22.3623 45.0625 27.373C45.0624 30.0403 43.8135 32.3771 41.9189 33.9326L41.9199 33.9336C41.1685 34.5713 40.7364 35.5325 40.7363 36.4893V37.0508H32.3213V36.3672C32.3213 35.3757 31.8493 34.4725 31.0859 33.8203L30.8916 33.6582C28.9058 31.9598 27.7414 29.3608 28.0596 26.4619C28.4565 22.5512 31.6128 19.4376 35.5449 18.9834H35.5459Z" stroke="#F5F5F5" stroke-opacity="0.6"/>
<path d="M40.0452 29.4099L38.4327 28.0875C38.2715 27.9552 38.0027 27.9552 37.8415 28.0875L36.4977 29.1454L35.2078 28.0875C35.0465 27.9552 34.7778 27.9552 34.6165 28.0875L33.0041 29.4099C32.8966 29.5421 32.7891 29.6743 32.7891 29.8727C32.7891 30.0711 32.7891 30.2694 32.8966 30.4017L34.939 33.5093V36.5508H36.014V33.2448C36.014 33.1126 35.9602 32.9803 35.9065 32.8481L34.1328 30.1372L34.939 29.476L36.229 30.5339C36.3902 30.6661 36.659 30.6661 36.8202 30.5339L38.1102 29.476L38.9164 30.1372L37.1427 32.8481C37.089 32.9803 37.0352 33.1126 37.0352 33.2448V36.5508H38.1102V33.5093L40.1527 30.4017C40.2602 30.2694 40.3139 30.0711 40.2602 29.8727C40.2064 29.6743 40.1527 29.476 40.0452 29.4099Z" fill="white"/>
<mask id="path-7-outside-1_3958_21532" maskUnits="userSpaceOnUse" x="30.3633" y="36.2969" width="13" height="9" fill="black">
<rect fill="white" x="30.3633" y="36.2969" width="13" height="9"/>
<path d="M40.6396 37.2969C41.2799 37.297 41.7988 37.8167 41.7988 38.457C41.7987 39.0972 41.2798 39.6161 40.6396 39.6162H40.6377V40.8066C40.6377 42.2238 39.4206 43.3828 37.9326 43.3828H35.2266C33.7387 43.3826 32.5215 42.2237 32.5215 40.8066V39.6152C31.8818 39.6145 31.3634 39.0968 31.3633 38.457C31.3633 37.8168 31.8823 37.2971 32.5225 37.2969H40.6396Z"/>
</mask>
<path d="M40.6396 37.2969C41.2799 37.297 41.7988 37.8167 41.7988 38.457C41.7987 39.0972 41.2798 39.6161 40.6396 39.6162H40.6377V40.8066C40.6377 42.2238 39.4206 43.3828 37.9326 43.3828H35.2266C33.7387 43.3826 32.5215 42.2237 32.5215 40.8066V39.6152C31.8818 39.6145 31.3634 39.0968 31.3633 38.457C31.3633 37.8168 31.8823 37.2971 32.5225 37.2969H40.6396Z" fill="url(#paint4_linear_3958_21532)"/>
<path d="M40.6396 37.2969L40.6398 36.2969H40.6396V37.2969ZM41.7988 38.457L42.7988 38.4572V38.457H41.7988ZM40.6396 39.6162V40.6162H40.6398L40.6396 39.6162ZM40.6377 39.6162V38.6162H39.6377V39.6162H40.6377ZM40.6377 40.8066L41.6377 40.8066V40.8066H40.6377ZM37.9326 43.3828V44.3828H37.9327L37.9326 43.3828ZM35.2266 43.3828L35.2264 44.3828H35.2266V43.3828ZM32.5215 40.8066H31.5215V40.8066L32.5215 40.8066ZM32.5215 39.6152H33.5215V38.6164L32.5227 38.6152L32.5215 39.6152ZM31.3633 38.457H30.3633V38.4572L31.3633 38.457ZM32.5225 37.2969V36.2969L32.5221 36.2969L32.5225 37.2969ZM40.6396 37.2969L40.6395 38.2969C40.7267 38.2969 40.7988 38.3681 40.7988 38.457H41.7988H42.7988C42.7988 37.2653 41.8331 36.2971 40.6398 36.2969L40.6396 37.2969ZM41.7988 38.457L40.7988 38.4568C40.7988 38.5449 40.7275 38.6162 40.6395 38.6162L40.6396 39.6162L40.6398 40.6162C41.8322 40.616 42.7986 39.6495 42.7988 38.4572L41.7988 38.457ZM40.6396 39.6162V38.6162H40.6377V39.6162V40.6162H40.6396V39.6162ZM40.6377 39.6162H39.6377V40.8066H40.6377H41.6377V39.6162H40.6377ZM40.6377 40.8066L39.6377 40.8066C39.6377 41.626 38.9149 42.3828 37.9326 42.3828L37.9326 43.3828L37.9327 44.3828C39.9263 44.3827 41.6377 42.8215 41.6377 40.8066L40.6377 40.8066ZM37.9326 43.3828V42.3828H35.2266V43.3828V44.3828H37.9326V43.3828ZM35.2266 43.3828L35.2267 42.3828C34.2443 42.3827 33.5215 41.6258 33.5215 40.8066L32.5215 40.8066L31.5215 40.8066C31.5215 42.8215 33.2331 44.3825 35.2264 44.3828L35.2266 43.3828ZM32.5215 40.8066H33.5215V39.6152H32.5215H31.5215V40.8066H32.5215ZM32.5215 39.6152L32.5227 38.6152C32.4334 38.6151 32.3633 38.5435 32.3633 38.4568L31.3633 38.457L30.3633 38.4572C30.3635 39.6501 31.3303 40.6138 32.5203 40.6152L32.5215 39.6152ZM31.3633 38.457H32.3633C32.3633 38.3683 32.4354 38.2969 32.5228 38.2969L32.5225 37.2969L32.5221 36.2969C31.3292 36.2973 30.3633 37.2653 30.3633 38.457H31.3633ZM32.5225 37.2969V38.2969H40.6396V37.2969V36.2969H32.5225V37.2969Z" fill="white" fill-opacity="0.6" mask="url(#path-7-outside-1_3958_21532)"/>
<path fill-rule="evenodd" clip-rule="evenodd" d="M25.6797 23.4365C26.256 23.4365 26.7236 23.9041 26.7236 24.4805C26.7235 25.0567 26.2559 25.5234 25.6797 25.5234H23.1289C22.5527 25.5233 22.0861 25.0566 22.0859 24.4805C22.0859 23.9042 22.5526 23.4366 23.1289 23.4365H25.6797ZM48.873 23.4365C49.4493 23.4366 49.916 23.9042 49.916 24.4805C49.9158 25.0566 49.4492 25.5233 48.873 25.5234H46.3223C45.746 25.5234 45.2785 25.0567 45.2783 24.4805C45.2783 23.9041 45.7459 23.4365 46.3223 23.4365H48.873ZM26.4727 16.168C26.8802 15.7605 27.5417 15.7605 27.9492 16.168L29.7529 17.9727C30.1601 18.3802 30.1603 19.0408 29.7529 19.4482C29.3454 19.8558 28.6839 19.8558 28.2764 19.4482L26.4727 17.6445C26.0652 17.237 26.0651 16.5755 26.4727 16.168ZM43.9355 16.168C44.3431 15.7605 45.0046 15.7605 45.4121 16.168C45.8196 16.5755 45.8196 17.237 45.4121 17.6445L43.6084 19.4482C43.2009 19.8558 42.5394 19.8558 42.1318 19.4482C41.7245 19.0409 41.7248 18.3802 42.1318 17.9727L43.9355 16.168ZM37.0449 13.002C37.621 13.0022 38.0877 13.4689 38.0879 14.0449V16.5967C38.0876 17.1727 37.6209 17.6394 37.0449 17.6396C36.4687 17.6396 36.0012 17.1728 36.001 16.5967V14.0449C36.0012 13.4688 36.4687 13.002 37.0449 13.002Z" fill="url(#paint5_linear_3958_21532)"/>
<defs>
<filter id="filter0_i_3958_21532" x="15.6055" y="34.7148" width="41.7852" height="22.2852" filterUnits="userSpaceOnUse" color-interpolation-filters="sRGB">
<feFlood flood-opacity="0" result="BackgroundImageFix"/>
<feBlend mode="normal" in="SourceGraphic" in2="BackgroundImageFix" result="shape"/>
<feColorMatrix in="SourceAlpha" type="matrix" values="0 0 0 0 0 0 0 0 0 0 0 0 0 0 0 0 0 0 127 0" result="hardAlpha"/>
<feOffset dy="-0.928571"/>
<feComposite in2="hardAlpha" operator="arithmetic" k2="-1" k3="1"/>
<feColorMatrix type="matrix" values="0 0 0 0 0 0 0 0 0 0 0 0 0 0 0 0 0 0 0.25 0"/>
<feBlend mode="normal" in2="shape" result="effect1_innerShadow_3958_21532"/>
</filter>
<filter id="filter1_i_3958_21532" x="17.4648" y="31" width="38.0723" height="23.2148" filterUnits="userSpaceOnUse" color-interpolation-filters="sRGB">
<feFlood flood-opacity="0" result="BackgroundImageFix"/>
<feBlend mode="normal" in="SourceGraphic" in2="BackgroundImageFix" result="shape"/>
<feColorMatrix in="SourceAlpha" type="matrix" values="0 0 0 0 0 0 0 0 0 0 0 0 0 0 0 0 0 0 127 0" result="hardAlpha"/>
<feOffset dy="-0.928571"/>
<feComposite in2="hardAlpha" operator="arithmetic" k2="-1" k3="1"/>
<feColorMatrix type="matrix" values="0 0 0 0 0 0 0 0 0 0 0 0 0 0 0 0 0 0 0.1 0"/>
<feBlend mode="normal" in2="shape" result="effect1_innerShadow_3958_21532"/>
</filter>
<linearGradient id="paint0_linear_3958_21532" x1="35.392" y1="53.2618" x2="39.5666" y2="31.5858" gradientUnits="userSpaceOnUse">
<stop stop-color="#00FFB5" stop-opacity="0"/>
<stop offset="1" stop-color="#00FFB5"/>
</linearGradient>
<linearGradient id="paint1_linear_3958_21532" x1="52.7483" y1="49.135" x2="35.2781" y2="70.8565" gradientUnits="userSpaceOnUse">
<stop offset="0.443503" stop-color="#1808C4" stop-opacity="0"/>
<stop offset="1" stop-color="#5643FF"/>
</linearGradient>
<linearGradient id="paint2_linear_3958_21532" x1="17.4648" y1="40.4748" x2="55.5363" y2="40.4748" gradientUnits="userSpaceOnUse">
<stop stop-color="#F9F5F9"/>
<stop offset="0.338444" stop-color="#E1E0E9"/>
<stop offset="0.497502" stop-color="#E0DFE8"/>
<stop offset="0.501876" stop-color="#F7F2F2"/>
<stop offset="0.85014" stop-color="#FBFBFB"/>
<stop offset="1" stop-color="#EFECEF"/>
</linearGradient>
<linearGradient id="paint3_linear_3958_21532" x1="36.5352" y1="19.4258" x2="36.5352" y2="36.5508" gradientUnits="userSpaceOnUse">
<stop offset="0.595188" stop-color="#FEC644"/>
<stop offset="1" stop-color="#FBA026"/>
</linearGradient>
<linearGradient id="paint4_linear_3958_21532" x1="36.5811" y1="37.2969" x2="36.5811" y2="43.3828" gradientUnits="userSpaceOnUse">
<stop stop-color="#1F99E3"/>
<stop offset="0.376704" stop-color="#1F99E3"/>
<stop offset="0.399522" stop-color="#82A1FF"/>
<stop offset="1" stop-color="#395DFF"/>
</linearGradient>
<linearGradient id="paint5_linear_3958_21532" x1="36.001" y1="13.002" x2="36.001" y2="25.5234" gradientUnits="userSpaceOnUse">
<stop stop-color="#FEC744"/>
<stop offset="1" stop-color="#FA9F26"/>
</linearGradient>
</defs>
</svg>
