<svg width="16" height="16" viewBox="0 0 16 16" fill="none" xmlns="http://www.w3.org/2000/svg">
<mask id="path-1-outside-1_1334_29797" maskUnits="userSpaceOnUse" x="0" y="0" width="16" height="16" fill="black">
<rect fill="white" width="16" height="16"/>
<path d="M8 1C8.9665 1 9.75 4.13401 9.75 8C9.75 11.866 8.9665 15 8 15C7.0335 15 6.25 11.866 6.25 8C6.25 4.13401 7.0335 1 8 1ZM4.5 3.625C5.4665 3.625 6.25 5.58375 6.25 8C6.25 10.4162 5.4665 12.375 4.5 12.375C3.5335 12.375 2.75 10.4162 2.75 8C2.75 5.58375 3.5335 3.625 4.5 3.625ZM11.5 3.625C12.4665 3.625 13.25 5.58375 13.25 8C13.25 10.4162 12.4665 12.375 11.5 12.375C10.5335 12.375 9.75 10.4162 9.75 8C9.75 5.58375 10.5335 3.625 11.5 3.625ZM1.875 5.375C2.35825 5.375 2.75 6.55025 2.75 8C2.75 9.44975 2.35825 10.625 1.875 10.625C1.39175 10.625 1 9.44975 1 8C1 6.55025 1.39175 5.375 1.875 5.375ZM14.125 5.375C14.6082 5.375 15 6.55025 15 8C15 9.44975 14.6082 10.625 14.125 10.625C13.6418 10.625 13.25 9.44975 13.25 8C13.25 6.55025 13.6418 5.375 14.125 5.375Z"/>
</mask>
<path d="M8 1C8.9665 1 9.75 4.13401 9.75 8C9.75 11.866 8.9665 15 8 15C7.0335 15 6.25 11.866 6.25 8C6.25 4.13401 7.0335 1 8 1ZM4.5 3.625C5.4665 3.625 6.25 5.58375 6.25 8C6.25 10.4162 5.4665 12.375 4.5 12.375C3.5335 12.375 2.75 10.4162 2.75 8C2.75 5.58375 3.5335 3.625 4.5 3.625ZM11.5 3.625C12.4665 3.625 13.25 5.58375 13.25 8C13.25 10.4162 12.4665 12.375 11.5 12.375C10.5335 12.375 9.75 10.4162 9.75 8C9.75 5.58375 10.5335 3.625 11.5 3.625ZM1.875 5.375C2.35825 5.375 2.75 6.55025 2.75 8C2.75 9.44975 2.35825 10.625 1.875 10.625C1.39175 10.625 1 9.44975 1 8C1 6.55025 1.39175 5.375 1.875 5.375ZM14.125 5.375C14.6082 5.375 15 6.55025 15 8C15 9.44975 14.6082 10.625 14.125 10.625C13.6418 10.625 13.25 9.44975 13.25 8C13.25 6.55025 13.6418 5.375 14.125 5.375Z" fill="#FFDF60"/>
<path d="M8 1V2C7.6698 2 7.64155 1.75648 7.82031 2.05892C7.95951 2.29443 8.11954 2.70177 8.26729 3.29279C8.55896 4.45944 8.75 6.12414 8.75 8H9.75H10.75C10.75 6.00987 10.5493 4.17457 10.2076 2.80772C10.0386 2.13198 9.82158 1.5142 9.54205 1.04127C9.30208 0.635273 8.81345 0 8 0V1ZM9.75 8H8.75C8.75 9.87586 8.55896 11.5406 8.26729 12.7072C8.11954 13.2982 7.95951 13.7056 7.82031 13.9411C7.64155 14.2435 7.6698 14 8 14V15V16C8.81345 16 9.30208 15.3647 9.54205 14.9587C9.82158 14.4858 10.0386 13.868 10.2076 13.1923C10.5493 11.8254 10.75 9.99013 10.75 8H9.75ZM8 15V14C8.3302 14 8.35845 14.2435 8.17969 13.9411C8.04049 13.7056 7.88046 13.2982 7.73271 12.7072C7.44104 11.5406 7.25 9.87586 7.25 8H6.25H5.25C5.25 9.99013 5.45071 11.8254 5.79242 13.1923C5.96135 13.868 6.17842 14.4858 6.45795 14.9587C6.69792 15.3647 7.18655 16 8 16V15ZM6.25 8H7.25C7.25 6.12414 7.44104 4.45944 7.73271 3.29279C7.88046 2.70177 8.04049 2.29443 8.17969 2.05892C8.35845 1.75648 8.3302 2 8 2V1V0C7.18655 0 6.69792 0.635273 6.45795 1.04127C6.17842 1.5142 5.96135 2.13198 5.79242 2.80772C5.45071 4.17457 5.25 6.00987 5.25 8H6.25ZM4.5 3.625V4.625C4.37806 4.625 4.36306 4.5591 4.45462 4.65592C4.54818 4.75485 4.67851 4.95166 4.80896 5.2778C5.06765 5.92452 5.25 6.88653 5.25 8H6.25H7.25C7.25 6.69723 7.0406 5.47174 6.66591 4.53502C6.47968 4.06943 6.23291 3.62555 5.90773 3.2817C5.58056 2.93574 5.10519 2.625 4.5 2.625V3.625ZM6.25 8H5.25C5.25 9.11347 5.06765 10.0755 4.80896 10.7222C4.67851 11.0483 4.54818 11.2452 4.45462 11.3441C4.36306 11.4409 4.37806 11.375 4.5 11.375V12.375V13.375C5.10519 13.375 5.58056 13.0643 5.90773 12.7183C6.23291 12.3745 6.47968 11.9306 6.66591 11.465C7.0406 10.5283 7.25 9.30277 7.25 8H6.25ZM4.5 12.375V11.375C4.62194 11.375 4.63694 11.4409 4.54538 11.3441C4.45182 11.2452 4.32149 11.0483 4.19104 10.7222C3.93235 10.0755 3.75 9.11347 3.75 8H2.75H1.75C1.75 9.30277 1.9594 10.5283 2.33409 11.465C2.52032 11.9306 2.76709 12.3745 3.09227 12.7183C3.41944 13.0643 3.89481 13.375 4.5 13.375V12.375ZM2.75 8H3.75C3.75 6.88653 3.93235 5.92452 4.19104 5.2778C4.32149 4.95166 4.45182 4.75485 4.54538 4.65592C4.63694 4.5591 4.62194 4.625 4.5 4.625V3.625V2.625C3.89481 2.625 3.41944 2.93574 3.09227 3.2817C2.76709 3.62555 2.52032 4.06943 2.33409 4.53502C1.9594 5.47174 1.75 6.69723 1.75 8H2.75ZM11.5 3.625V4.625C11.3781 4.625 11.3631 4.5591 11.4546 4.65592C11.5482 4.75485 11.6785 4.95166 11.809 5.2778C12.0676 5.92452 12.25 6.88653 12.25 8H13.25H14.25C14.25 6.69723 14.0406 5.47174 13.6659 4.53502C13.4797 4.06943 13.2329 3.62555 12.9077 3.2817C12.5806 2.93574 12.1052 2.625 11.5 2.625V3.625ZM13.25 8H12.25C12.25 9.11347 12.0676 10.0755 11.809 10.7222C11.6785 11.0483 11.5482 11.2452 11.4546 11.3441C11.3631 11.4409 11.3781 11.375 11.5 11.375V12.375V13.375C12.1052 13.375 12.5806 13.0643 12.9077 12.7183C13.2329 12.3745 13.4797 11.9306 13.6659 11.465C14.0406 10.5283 14.25 9.30277 14.25 8H13.25ZM11.5 12.375V11.375C11.6219 11.375 11.6369 11.4409 11.5454 11.3441C11.4518 11.2452 11.3215 11.0483 11.191 10.7222C10.9324 10.0755 10.75 9.11347 10.75 8H9.75H8.75C8.75 9.30277 8.9594 10.5283 9.33409 11.465C9.52032 11.9306 9.76709 12.3745 10.0923 12.7183C10.4194 13.0643 10.8948 13.375 11.5 13.375V12.375ZM9.75 8H10.75C10.75 6.88653 10.9324 5.92452 11.191 5.2778C11.3215 4.95166 11.4518 4.75485 11.5454 4.65592C11.6369 4.5591 11.6219 4.625 11.5 4.625V3.625V2.625C10.8948 2.625 10.4194 2.93574 10.0923 3.2817C9.76709 3.62555 9.52032 4.06943 9.33409 4.53502C8.9594 5.47174 8.75 6.69723 8.75 8H9.75ZM1.875 5.375V6.375C1.72341 6.375 1.60359 6.32686 1.52817 6.28056C1.49236 6.25858 1.46767 6.23787 1.45297 6.22416C1.43826 6.21043 1.43105 6.20137 1.43018 6.20026C1.42957 6.19948 1.44388 6.21803 1.46744 6.26578C1.49034 6.3122 1.51712 6.37634 1.54504 6.46007C1.66107 6.80818 1.75 7.3527 1.75 8H2.75H3.75C3.75 7.19755 3.64305 6.42957 3.4424 5.82762C3.34382 5.53187 3.20439 5.22039 3.001 4.96231C2.8065 4.71551 2.43354 4.375 1.875 4.375V5.375ZM2.75 8H1.75C1.75 8.6473 1.66107 9.19182 1.54504 9.53993C1.51712 9.62366 1.49034 9.6878 1.46744 9.73422C1.44388 9.78197 1.42957 9.80052 1.43018 9.79974C1.43105 9.79863 1.43826 9.78957 1.45297 9.77584C1.46767 9.76213 1.49236 9.74142 1.52817 9.71944C1.60359 9.67314 1.72341 9.625 1.875 9.625V10.625V11.625C2.43354 11.625 2.8065 11.2845 3.001 11.0377C3.20439 10.7796 3.34382 10.4681 3.4424 10.1724C3.64305 9.57043 3.75 8.80245 3.75 8H2.75ZM1.875 10.625V9.625C2.02659 9.625 2.14641 9.67314 2.22183 9.71944C2.25764 9.74142 2.28233 9.76213 2.29703 9.77584C2.31174 9.78957 2.31895 9.79863 2.31982 9.79974C2.32043 9.80052 2.30612 9.78197 2.28256 9.73422C2.25966 9.6878 2.23288 9.62366 2.20496 9.53993C2.08893 9.19182 2 8.6473 2 8H1H0C0 8.80245 0.106947 9.57043 0.307598 10.1724C0.406182 10.4681 0.54561 10.7796 0.748999 11.0377C0.943503 11.2845 1.31646 11.625 1.875 11.625V10.625ZM1 8H2C2 7.3527 2.08893 6.80818 2.20496 6.46007C2.23288 6.37634 2.25966 6.3122 2.28256 6.26578C2.30612 6.21803 2.32043 6.19948 2.31982 6.20026C2.31895 6.20137 2.31174 6.21043 2.29703 6.22416C2.28233 6.23787 2.25764 6.25858 2.22183 6.28056C2.14641 6.32686 2.02659 6.375 1.875 6.375V5.375V4.375C1.31646 4.375 0.943503 4.71551 0.748999 4.96231C0.54561 5.22039 0.406182 5.53187 0.307598 5.82762C0.106947 6.42957 0 7.19755 0 8H1ZM14.125 5.375V6.375C13.9734 6.375 13.8536 6.32686 13.7782 6.28056C13.7424 6.25858 13.7177 6.23787 13.703 6.22416C13.6883 6.21043 13.6811 6.20137 13.6802 6.20026C13.6796 6.19948 13.6939 6.21803 13.7174 6.26578C13.7403 6.3122 13.7671 6.37634 13.795 6.46007C13.9111 6.80818 14 7.3527 14 8H15H16C16 7.19755 15.8931 6.42957 15.6924 5.82762C15.5938 5.53187 15.4544 5.22039 15.251 4.96231C15.0565 4.71551 14.6835 4.375 14.125 4.375V5.375ZM15 8H14C14 8.6473 13.9111 9.19182 13.795 9.53993C13.7671 9.62366 13.7403 9.6878 13.7174 9.73422C13.6939 9.78197 13.6796 9.80052 13.6802 9.79974C13.6811 9.79863 13.6883 9.78957 13.703 9.77584C13.7177 9.76213 13.7424 9.74142 13.7782 9.71944C13.8536 9.67314 13.9734 9.625 14.125 9.625V10.625V11.625C14.6835 11.625 15.0565 11.2845 15.251 11.0377C15.4544 10.7796 15.5938 10.4681 15.6924 10.1724C15.8931 9.57043 16 8.80245 16 8H15ZM14.125 10.625V9.625C14.2766 9.625 14.3964 9.67314 14.4718 9.71944C14.5076 9.74142 14.5323 9.76213 14.547 9.77584C14.5617 9.78957 14.5689 9.79863 14.5698 9.79974C14.5704 9.80052 14.5561 9.78197 14.5326 9.73422C14.5097 9.6878 14.4829 9.62366 14.455 9.53993C14.3389 9.19182 14.25 8.6473 14.25 8H13.25H12.25C12.25 8.80245 12.3569 9.57043 12.5576 10.1724C12.6562 10.4681 12.7956 10.7796 12.999 11.0377C13.1935 11.2845 13.5665 11.625 14.125 11.625V10.625ZM13.25 8H14.25C14.25 7.3527 14.3389 6.80818 14.455 6.46007C14.4829 6.37634 14.5097 6.3122 14.5326 6.26578C14.5561 6.21803 14.5704 6.19948 14.5698 6.20026C14.5689 6.20137 14.5617 6.21043 14.547 6.22416C14.5323 6.23787 14.5076 6.25858 14.4718 6.28056C14.3964 6.32686 14.2766 6.375 14.125 6.375V5.375V4.375C13.5665 4.375 13.1935 4.71551 12.999 4.96231C12.7956 5.22039 12.6562 5.53187 12.5576 5.82762C12.3569 6.42957 12.25 7.19755 12.25 8H13.25Z" fill="black" fill-opacity="0.4" mask="url(#path-1-outside-1_1334_29797)"/>
</svg>
