<svg width="60" height="60" viewBox="0 0 60 60" fill="none" xmlns="http://www.w3.org/2000/svg">
<path d="M42.3501 40.0916C42.3501 38.6715 41.8048 37.3096 40.8341 36.3054C39.8634 35.3013 38.5469 34.7371 37.1741 34.7371V33.3985H15.1993C14.5176 33.3953 13.8421 33.5315 13.2114 33.7991C12.5807 34.0668 12.0074 34.4607 11.5242 34.9582C11.0411 35.4558 10.6578 36.0471 10.3962 36.6983C10.1346 37.3495 9.99999 38.0478 10 38.753C10 43.2802 12.1558 46.6937 15.5254 48.9185C18.8432 51.1058 23.3153 52.1392 28.1161 52.1392C32.9168 52.1392 37.3889 51.1058 40.7067 48.9185C44.0763 46.6964 46.2321 43.2775 46.2321 38.753C46.2321 37.4733 45.7973 36.298 45.0727 35.377C44.2497 35.8353 43.562 36.5156 43.0826 37.3457C42.6033 38.1758 42.3501 39.1247 42.3501 40.0916Z" fill="url(#paint0_linear_1805_10738)"/>
<path d="M42.3501 40.0916C42.3501 38.6715 41.8048 37.3096 40.8341 36.3054C39.8634 35.3013 38.5469 34.7371 37.1741 34.7371V33.3985H15.1993C14.5176 33.3953 13.8421 33.5315 13.2114 33.7991C12.5807 34.0668 12.0074 34.4607 11.5242 34.9582C11.0411 35.4558 10.6578 36.0471 10.3962 36.6983C10.1346 37.3495 9.99999 38.0478 10 38.753C10 43.2802 12.1558 46.6937 15.5254 48.9185C18.8432 51.1058 23.3153 52.1392 28.1161 52.1392C32.9168 52.1392 37.3889 51.1058 40.7067 48.9185C44.0763 46.6964 46.2321 43.2775 46.2321 38.753C46.2321 37.4733 45.7973 36.298 45.0727 35.377C44.2497 35.8353 43.562 36.5156 43.0826 37.3457C42.6033 38.1758 42.3501 39.1247 42.3501 40.0916Z" fill="url(#paint1_linear_1805_10738)"/>
<path d="M42.3501 40.0916C42.3501 38.6715 41.8048 37.3096 40.8341 36.3054C39.8634 35.3013 38.5469 34.7371 37.1741 34.7371V33.3985H15.1993C14.5176 33.3953 13.8421 33.5315 13.2114 33.7991C12.5807 34.0668 12.0074 34.4607 11.5242 34.9582C11.0411 35.4558 10.6578 36.0471 10.3962 36.6983C10.1346 37.3495 9.99999 38.0478 10 38.753C10 43.2802 12.1558 46.6937 15.5254 48.9185C18.8432 51.1058 23.3153 52.1392 28.1161 52.1392C32.9168 52.1392 37.3889 51.1058 40.7067 48.9185C44.0763 46.6964 46.2321 43.2775 46.2321 38.753C46.2321 37.4733 45.7973 36.298 45.0727 35.377C44.2497 35.8353 43.562 36.5156 43.0826 37.3457C42.6033 38.1758 42.3501 39.1247 42.3501 40.0916Z" fill="url(#paint2_radial_1805_10738)" fill-opacity="0.5"/>
<path d="M28.1167 9.3125C25.3712 9.3125 22.7381 10.4408 20.7967 12.4491C18.8553 14.4574 17.7646 17.1813 17.7646 20.0215C17.7646 22.8617 18.8553 25.5856 20.7967 27.5939C22.7381 29.6022 25.3712 30.7305 28.1167 30.7305C30.8622 30.7305 33.4953 29.6022 35.4367 27.5939C37.3781 25.5856 38.4687 22.8617 38.4687 20.0215C38.4687 17.1813 37.3781 14.4574 35.4367 12.4491C33.4953 10.4408 30.8622 9.3125 28.1167 9.3125Z" fill="url(#paint3_linear_1805_10738)"/>
<path d="M42.3532 36.0884L40.7253 34.7685C39.5019 33.7739 37.9615 33.2918 36.4103 33.4182C34.859 33.5447 33.4106 34.2703 32.3528 35.4509C31.2951 36.6315 30.7055 38.1806 30.7012 39.7902C30.6969 41.3999 31.2783 42.9523 32.3298 44.1389L41.3956 54.3928C41.5169 54.5299 41.6644 54.6395 41.8288 54.7144C41.9932 54.7894 42.1709 54.8281 42.3506 54.8281C42.5303 54.8281 42.708 54.7894 42.8724 54.7144C43.0368 54.6395 43.1843 54.5299 43.3056 54.3928L52.374 44.1389C53.4255 42.9523 54.0069 41.3999 54.0026 39.7902C53.9983 38.1806 53.4087 36.6315 52.351 35.4509C51.2932 34.2703 49.8448 33.5447 48.2935 33.4182C46.7423 33.2918 45.2019 33.7739 43.9785 34.7685L42.3532 36.0884Z" fill="url(#paint4_linear_1805_10738)"/>
<defs>
<linearGradient id="paint0_linear_1805_10738" x1="18.6155" y1="35.891" x2="24.8412" y2="55.1057" gradientUnits="userSpaceOnUse">
<stop offset="0.125" stop-color="#9C6CFE"/>
<stop offset="1" stop-color="#7A41DC"/>
</linearGradient>
<linearGradient id="paint1_linear_1805_10738" x1="28.1161" y1="31.1683" x2="36.8464" y2="62.7004" gradientUnits="userSpaceOnUse">
<stop stop-color="#885EDB" stop-opacity="0"/>
<stop offset="1" stop-color="#E362F8"/>
</linearGradient>
<radialGradient id="paint2_radial_1805_10738" cx="0" cy="0" r="1" gradientTransform="matrix(14.535 11.502 -6.67913 9.03256 43.6441 45.4461)" gradientUnits="userSpaceOnUse">
<stop offset="0.436" stop-color="#30116E"/>
<stop offset="0.556" stop-color="#30116E" stop-opacity="0.812"/>
<stop offset="1" stop-color="#30116E" stop-opacity="0"/>
</radialGradient>
<linearGradient id="paint3_linear_1805_10738" x1="22.687" y1="12.1584" x2="33.7598" y2="29.2522" gradientUnits="userSpaceOnUse">
<stop offset="0.125" stop-color="#9C6CFE"/>
<stop offset="1" stop-color="#7A41DC"/>
</linearGradient>
<linearGradient id="paint4_linear_1805_10738" x1="33.2952" y1="34.7417" x2="47.4336" y2="57.3145" gradientUnits="userSpaceOnUse">
<stop stop-color="#FC92CB"/>
<stop offset="1" stop-color="#D7257D"/>
</linearGradient>
</defs>
</svg>
