<svg width="14" height="14" viewBox="0 0 14 14" fill="none" xmlns="http://www.w3.org/2000/svg">
<circle cx="7" cy="7" r="7" fill="#D0CBBF"/>
<path d="M6.49828 12.143C6.46161 12.143 6.39928 12.1283 6.31128 12.099C6.23061 12.0697 6.14261 12.0293 6.04728 11.978C5.95928 11.9193 5.87861 11.8607 5.80528 11.802C5.73928 11.736 5.69895 11.6737 5.68428 11.615C5.66961 11.5783 5.66228 11.5233 5.66228 11.45C5.66228 11.3693 5.66228 11.2667 5.66228 11.142C5.66961 10.966 5.67695 10.7423 5.68428 10.471C5.69895 10.1997 5.71361 9.90267 5.72828 9.58C5.75028 9.25 5.76861 8.92 5.78328 8.59C5.80528 8.26 5.82361 7.94467 5.83828 7.644C5.86028 7.336 5.87495 7.07567 5.88228 6.863C5.89695 6.643 5.90428 6.48533 5.90428 6.39C5.90428 6.33867 5.91528 6.302 5.93728 6.28C5.96661 6.25067 6.01428 6.236 6.08028 6.236C6.22695 6.236 6.37728 6.25433 6.53128 6.291C6.68528 6.32767 6.81361 6.38633 6.91628 6.467C7.02628 6.54033 7.08128 6.63567 7.08128 6.753C7.08128 6.83367 7.07028 6.995 7.04828 7.237C7.03361 7.479 7.01528 7.76133 6.99328 8.084C6.97128 8.40667 6.94561 8.733 6.91628 9.063C6.88695 9.393 6.86495 9.69367 6.85028 9.965C6.83561 10.229 6.82828 10.427 6.82828 10.559C6.82828 10.8157 6.83928 10.9807 6.86128 11.054C6.88328 11.12 6.92361 11.153 6.98228 11.153C7.02628 11.153 7.09595 11.109 7.19128 11.021C7.28661 10.933 7.38928 10.8303 7.49928 10.713C7.60928 10.5957 7.71195 10.4783 7.80728 10.361C7.90995 10.2437 7.98328 10.1557 8.02728 10.097C8.05661 10.0677 8.07495 10.0493 8.08228 10.042C8.08961 10.0273 8.10428 10.02 8.12628 10.02C8.15561 10.02 8.19228 10.053 8.23628 10.119C8.28028 10.185 8.30595 10.262 8.31328 10.35C8.32061 10.3793 8.31695 10.4087 8.30228 10.438C8.29495 10.4673 8.28028 10.4967 8.25828 10.526C8.18495 10.636 8.07128 10.7827 7.91728 10.966C7.77061 11.142 7.60928 11.3217 7.43328 11.505C7.25728 11.681 7.08495 11.8313 6.91628 11.956C6.75495 12.0807 6.61561 12.143 6.49828 12.143ZM6.56428 4.938C6.43961 4.938 6.32961 4.916 6.23428 4.872C6.14628 4.82067 6.07661 4.75467 6.02528 4.674C5.97395 4.586 5.94828 4.49067 5.94828 4.388C5.94828 4.234 5.98495 4.10567 6.05828 4.003C6.13161 3.90033 6.23061 3.82333 6.35528 3.772C6.47995 3.71333 6.60461 3.684 6.72928 3.684C6.83195 3.684 6.92728 3.706 7.01528 3.75C7.10328 3.78667 7.17295 3.849 7.22428 3.937C7.28295 4.025 7.31228 4.14233 7.31228 4.289C7.31228 4.399 7.27561 4.50533 7.20228 4.608C7.12895 4.70333 7.03361 4.784 6.91628 4.85C6.79895 4.90867 6.68161 4.938 6.56428 4.938Z" fill="black"/>
</svg>
