<svg width="74" height="74" viewBox="0 0 74 74" fill="none" xmlns="http://www.w3.org/2000/svg">
<path d="M54.0705 51.5085C56.4364 51.4666 58.6856 50.7658 60.3379 49.5557C61.9902 48.3456 62.9146 46.7222 62.9139 45.032V38.5555C62.9139 37.8684 62.5318 37.2094 61.8515 36.7236C61.1712 36.2378 60.2486 35.9648 59.2866 35.9648H48.4047C47.4426 35.9648 46.52 36.2378 45.8398 36.7236C45.1595 37.2094 44.7773 37.8684 44.7773 38.5555V45.032C44.777 45.8962 45.0188 46.7517 45.4885 47.5481C45.9582 48.3445 46.6464 49.0657 47.5124 49.6693C48.3784 50.2728 49.4048 50.7465 50.5311 51.0624C51.6574 51.3782 52.8609 51.5299 54.0705 51.5085Z" fill="url(#paint0_radial_3958_21629)" fill-opacity="0.5"/>
<path d="M54.0705 51.5085C56.4364 51.4666 58.6856 50.7658 60.3379 49.5557C61.9902 48.3456 62.9146 46.7222 62.9139 45.032V38.5555C62.9139 37.8684 62.5318 37.2094 61.8515 36.7236C61.1712 36.2378 60.2486 35.9648 59.2866 35.9648H48.4047C47.4426 35.9648 46.52 36.2378 45.8398 36.7236C45.1595 37.2094 44.7773 37.8684 44.7773 38.5555V45.032C44.777 45.8962 45.0188 46.7517 45.4885 47.5481C45.9582 48.3445 46.6464 49.0657 47.5124 49.6693C48.3784 50.2728 49.4048 50.7465 50.5311 51.0624C51.6574 51.3782 52.8609 51.5299 54.0705 51.5085Z" fill="#A87DFF"/>
<path d="M54.0705 51.5085C56.4364 51.4666 58.6856 50.7658 60.3379 49.5557C61.9902 48.3456 62.9146 46.7222 62.9139 45.032V38.5555C62.9139 37.8684 62.5318 37.2094 61.8515 36.7236C61.1712 36.2378 60.2486 35.9648 59.2866 35.9648H48.4047C47.4426 35.9648 46.52 36.2378 45.8398 36.7236C45.1595 37.2094 44.7773 37.8684 44.7773 38.5555V45.032C44.777 45.8962 45.0188 46.7517 45.4885 47.5481C45.9582 48.3445 46.6464 49.0657 47.5124 49.6693C48.3784 50.2728 49.4048 50.7465 50.5311 51.0624C51.6574 51.3782 52.8609 51.5299 54.0705 51.5085Z" fill="url(#paint1_linear_3958_21629)" fill-opacity="0.1" style="mix-blend-mode:plus-darker"/>
<path d="M54.0705 51.5085C56.4364 51.4666 58.6856 50.7658 60.3379 49.5557C61.9902 48.3456 62.9146 46.7222 62.9139 45.032V38.5555C62.9139 37.8684 62.5318 37.2094 61.8515 36.7236C61.1712 36.2378 60.2486 35.9648 59.2866 35.9648H48.4047C47.4426 35.9648 46.52 36.2378 45.8398 36.7236C45.1595 37.2094 44.7773 37.8684 44.7773 38.5555V45.032C44.777 45.8962 45.0188 46.7517 45.4885 47.5481C45.9582 48.3445 46.6464 49.0657 47.5124 49.6693C48.3784 50.2728 49.4048 50.7465 50.5311 51.0624C51.6574 51.3782 52.8609 51.5299 54.0705 51.5085Z" fill="url(#paint2_linear_3958_21629)" fill-opacity="0.3"/>
<path d="M20.3811 51.5085C22.7469 51.4666 24.9961 50.7658 26.6484 49.5557C28.3007 48.3456 29.2252 46.7222 29.2245 45.032V38.5555C29.2245 37.8684 28.8423 37.2094 28.162 36.7236C27.4818 36.2378 26.5592 35.9648 25.5972 35.9648H14.7152C13.7532 35.9648 12.8306 36.2378 12.1503 36.7236C11.4701 37.2094 11.0879 37.8684 11.0879 38.5555V45.032C11.0875 45.8962 11.3293 46.7517 11.799 47.5481C12.2688 48.3445 12.9569 49.0657 13.8229 49.6693C14.689 50.2728 15.7154 50.7465 16.8417 51.0624C17.968 51.3782 19.1714 51.5299 20.3811 51.5085Z" fill="url(#paint3_radial_3958_21629)" fill-opacity="0.5"/>
<path d="M20.3811 51.5085C22.7469 51.4666 24.9961 50.7658 26.6484 49.5557C28.3007 48.3456 29.2252 46.7222 29.2245 45.032V38.5555C29.2245 37.8684 28.8423 37.2094 28.162 36.7236C27.4818 36.2378 26.5592 35.9648 25.5972 35.9648H14.7152C13.7532 35.9648 12.8306 36.2378 12.1503 36.7236C11.4701 37.2094 11.0879 37.8684 11.0879 38.5555V45.032C11.0875 45.8962 11.3293 46.7517 11.799 47.5481C12.2688 48.3445 12.9569 49.0657 13.8229 49.6693C14.689 50.2728 15.7154 50.7465 16.8417 51.0624C17.968 51.3782 19.1714 51.5299 20.3811 51.5085Z" fill="#A87DFF"/>
<path d="M20.3811 51.5085C22.7469 51.4666 24.9961 50.7658 26.6484 49.5557C28.3007 48.3456 29.2252 46.7222 29.2245 45.032V38.5555C29.2245 37.8684 28.8423 37.2094 28.162 36.7236C27.4818 36.2378 26.5592 35.9648 25.5972 35.9648H14.7152C13.7532 35.9648 12.8306 36.2378 12.1503 36.7236C11.4701 37.2094 11.0879 37.8684 11.0879 38.5555V45.032C11.0875 45.8962 11.3293 46.7517 11.799 47.5481C12.2688 48.3445 12.9569 49.0657 13.8229 49.6693C14.689 50.2728 15.7154 50.7465 16.8417 51.0624C17.968 51.3782 19.1714 51.5299 20.3811 51.5085Z" fill="url(#paint4_linear_3958_21629)" fill-opacity="0.1" style="mix-blend-mode:plus-darker"/>
<path d="M20.3811 51.5085C22.7469 51.4666 24.9961 50.7658 26.6484 49.5557C28.3007 48.3456 29.2252 46.7222 29.2245 45.032V38.5555C29.2245 37.8684 28.8423 37.2094 28.162 36.7236C27.4818 36.2378 26.5592 35.9648 25.5972 35.9648H14.7152C13.7532 35.9648 12.8306 36.2378 12.1503 36.7236C11.4701 37.2094 11.0879 37.8684 11.0879 38.5555V45.032C11.0875 45.8962 11.3293 46.7517 11.799 47.5481C12.2688 48.3445 12.9569 49.0657 13.8229 49.6693C14.689 50.2728 15.7154 50.7465 16.8417 51.0624C17.968 51.3782 19.1714 51.5299 20.3811 51.5085Z" fill="url(#paint5_linear_3958_21629)" fill-opacity="0.3"/>
<path d="M26.6348 38.7225C26.6411 37.9894 27.0079 37.288 27.6551 36.7714C28.3023 36.2547 29.1773 35.9648 30.0894 35.9648H43.9077C44.8239 35.9648 45.7026 36.2574 46.3505 36.7782C46.9983 37.2991 47.3623 38.0054 47.3623 38.742V47.0733C47.3632 47.9474 47.193 48.8161 46.8579 49.6477C46.093 51.5325 44.5172 53.1364 42.4136 54.1713C40.31 55.2062 37.8164 55.6044 35.3805 55.2943C32.9446 54.9842 30.726 53.9862 29.123 52.4794C27.5201 50.9727 26.6379 49.0559 26.6348 47.0733V38.7225Z" fill="#F6AC00"/>
<path d="M26.6348 38.7225C26.6411 37.9894 27.0079 37.288 27.6551 36.7714C28.3023 36.2547 29.1773 35.9648 30.0894 35.9648H43.9077C44.8239 35.9648 45.7026 36.2574 46.3505 36.7782C46.9983 37.2991 47.3623 38.0054 47.3623 38.742V47.0733C47.3632 47.9474 47.193 48.8161 46.8579 49.6477C46.093 51.5325 44.5172 53.1364 42.4136 54.1713C40.31 55.2062 37.8164 55.6044 35.3805 55.2943C32.9446 54.9842 30.726 53.9862 29.123 52.4794C27.5201 50.9727 26.6379 49.0559 26.6348 47.0733V38.7225Z" fill="url(#paint6_linear_3958_21629)" fill-opacity="0.1" style="mix-blend-mode:plus-darker"/>
<path d="M26.6348 38.7225C26.6411 37.9894 27.0079 37.288 27.6551 36.7714C28.3023 36.2547 29.1773 35.9648 30.0894 35.9648H43.9077C44.8239 35.9648 45.7026 36.2574 46.3505 36.7782C46.9983 37.2991 47.3623 38.0054 47.3623 38.742V47.0733C47.3632 47.9474 47.193 48.8161 46.8579 49.6477C46.093 51.5325 44.5172 53.1364 42.4136 54.1713C40.31 55.2062 37.8164 55.6044 35.3805 55.2943C32.9446 54.9842 30.726 53.9862 29.123 52.4794C27.5201 50.9727 26.6379 49.0559 26.6348 47.0733V38.7225Z" fill="url(#paint7_linear_3958_21629)" fill-opacity="0.3"/>
<path d="M53.3989 22.4688C51.9494 22.4688 50.5593 23.0446 49.5343 24.0695C48.5094 25.0944 47.9336 26.4845 47.9336 27.934C47.9336 29.3835 48.5094 30.7736 49.5343 31.7985C50.5593 32.8235 51.9494 33.3993 53.3989 33.3993C54.8483 33.3993 56.2384 32.8235 57.2634 31.7985C58.2883 30.7736 58.8641 29.3835 58.8641 27.934C58.8641 26.4845 58.2883 25.0944 57.2634 24.0695C56.2384 23.0446 54.8483 22.4688 53.3989 22.4688Z" fill="url(#paint8_linear_3958_21629)"/>
<path d="M53.3989 22.4688C51.9494 22.4688 50.5593 23.0446 49.5343 24.0695C48.5094 25.0944 47.9336 26.4845 47.9336 27.934C47.9336 29.3835 48.5094 30.7736 49.5343 31.7985C50.5593 32.8235 51.9494 33.3993 53.3989 33.3993C54.8483 33.3993 56.2384 32.8235 57.2634 31.7985C58.2883 30.7736 58.8641 29.3835 58.8641 27.934C58.8641 26.4845 58.2883 25.0944 57.2634 24.0695C56.2384 23.0446 54.8483 22.4688 53.3989 22.4688Z" fill="#A87DFF"/>
<path d="M53.3989 22.4688C51.9494 22.4688 50.5593 23.0446 49.5343 24.0695C48.5094 25.0944 47.9336 26.4845 47.9336 27.934C47.9336 29.3835 48.5094 30.7736 49.5343 31.7985C50.5593 32.8235 51.9494 33.3993 53.3989 33.3993C54.8483 33.3993 56.2384 32.8235 57.2634 31.7985C58.2883 30.7736 58.8641 29.3835 58.8641 27.934C58.8641 26.4845 58.2883 25.0944 57.2634 24.0695C56.2384 23.0446 54.8483 22.4688 53.3989 22.4688Z" fill="url(#paint9_linear_3958_21629)" fill-opacity="0.1" style="mix-blend-mode:plus-darker"/>
<path d="M53.3989 22.4688C51.9494 22.4688 50.5593 23.0446 49.5343 24.0695C48.5094 25.0944 47.9336 26.4845 47.9336 27.934C47.9336 29.3835 48.5094 30.7736 49.5343 31.7985C50.5593 32.8235 51.9494 33.3993 53.3989 33.3993C54.8483 33.3993 56.2384 32.8235 57.2634 31.7985C58.2883 30.7736 58.8641 29.3835 58.8641 27.934C58.8641 26.4845 58.2883 25.0944 57.2634 24.0695C56.2384 23.0446 54.8483 22.4688 53.3989 22.4688Z" fill="url(#paint10_linear_3958_21629)" fill-opacity="0.3"/>
<path d="M20.6039 22.4688C19.1545 22.4688 17.7643 23.0446 16.7394 24.0695C15.7145 25.0944 15.1387 26.4845 15.1387 27.934C15.1387 29.3835 15.7145 30.7736 16.7394 31.7985C17.7643 32.8235 19.1545 33.3993 20.6039 33.3993C22.0534 33.3993 23.4435 32.8235 24.4685 31.7985C25.4934 30.7736 26.0692 29.3835 26.0692 27.934C26.0692 26.4845 25.4934 25.0944 24.4685 24.0695C23.4435 23.0446 22.0534 22.4688 20.6039 22.4688Z" fill="url(#paint11_linear_3958_21629)"/>
<path d="M20.6039 22.4688C19.1545 22.4688 17.7643 23.0446 16.7394 24.0695C15.7145 25.0944 15.1387 26.4845 15.1387 27.934C15.1387 29.3835 15.7145 30.7736 16.7394 31.7985C17.7643 32.8235 19.1545 33.3993 20.6039 33.3993C22.0534 33.3993 23.4435 32.8235 24.4685 31.7985C25.4934 30.7736 26.0692 29.3835 26.0692 27.934C26.0692 26.4845 25.4934 25.0944 24.4685 24.0695C23.4435 23.0446 22.0534 22.4688 20.6039 22.4688Z" fill="#A87DFF"/>
<path d="M20.6039 22.4688C19.1545 22.4688 17.7643 23.0446 16.7394 24.0695C15.7145 25.0944 15.1387 26.4845 15.1387 27.934C15.1387 29.3835 15.7145 30.7736 16.7394 31.7985C17.7643 32.8235 19.1545 33.3993 20.6039 33.3993C22.0534 33.3993 23.4435 32.8235 24.4685 31.7985C25.4934 30.7736 26.0692 29.3835 26.0692 27.934C26.0692 26.4845 25.4934 25.0944 24.4685 24.0695C23.4435 23.0446 22.0534 22.4688 20.6039 22.4688Z" fill="url(#paint12_linear_3958_21629)" fill-opacity="0.1" style="mix-blend-mode:plus-darker"/>
<path d="M20.6039 22.4688C19.1545 22.4688 17.7643 23.0446 16.7394 24.0695C15.7145 25.0944 15.1387 26.4845 15.1387 27.934C15.1387 29.3835 15.7145 30.7736 16.7394 31.7985C17.7643 32.8235 19.1545 33.3993 20.6039 33.3993C22.0534 33.3993 23.4435 32.8235 24.4685 31.7985C25.4934 30.7736 26.0692 29.3835 26.0692 27.934C26.0692 26.4845 25.4934 25.0944 24.4685 24.0695C23.4435 23.0446 22.0534 22.4688 20.6039 22.4688Z" fill="url(#paint13_linear_3958_21629)" fill-opacity="0.3"/>
<path d="M37.0024 18.8301C36.0464 18.8301 35.0998 19.0184 34.2166 19.3842C33.3333 19.7501 32.5308 20.2863 31.8548 20.9623C31.1789 21.6382 30.6426 22.4408 30.2768 23.324C29.911 24.2072 29.7227 25.1538 29.7227 26.1098C29.7227 27.0658 29.911 28.0124 30.2768 28.8956C30.6426 29.7789 31.1789 30.5814 31.8548 31.2574C32.5308 31.9333 33.3333 32.4696 34.2166 32.8354C35.0998 33.2012 36.0464 33.3895 37.0024 33.3895C38.9331 33.3895 40.7847 32.6226 42.1499 31.2574C43.5151 29.8921 44.2821 28.0405 44.2821 26.1098C44.2821 24.1791 43.5151 22.3275 42.1499 20.9623C40.7847 19.597 38.9331 18.8301 37.0024 18.8301Z" fill="#F0A800"/>
<path d="M37.0024 18.8301C36.0464 18.8301 35.0998 19.0184 34.2166 19.3842C33.3333 19.7501 32.5308 20.2863 31.8548 20.9623C31.1789 21.6382 30.6426 22.4408 30.2768 23.324C29.911 24.2072 29.7227 25.1538 29.7227 26.1098C29.7227 27.0658 29.911 28.0124 30.2768 28.8956C30.6426 29.7789 31.1789 30.5814 31.8548 31.2574C32.5308 31.9333 33.3333 32.4696 34.2166 32.8354C35.0998 33.2012 36.0464 33.3895 37.0024 33.3895C38.9331 33.3895 40.7847 32.6226 42.1499 31.2574C43.5151 29.8921 44.2821 28.0405 44.2821 26.1098C44.2821 24.1791 43.5151 22.3275 42.1499 20.9623C40.7847 19.597 38.9331 18.8301 37.0024 18.8301Z" fill="url(#paint14_linear_3958_21629)" fill-opacity="0.3"/>
<path d="M37.0024 18.8301C36.0464 18.8301 35.0998 19.0184 34.2166 19.3842C33.3333 19.7501 32.5308 20.2863 31.8548 20.9623C31.1789 21.6382 30.6426 22.4408 30.2768 23.324C29.911 24.2072 29.7227 25.1538 29.7227 26.1098C29.7227 27.0658 29.911 28.0124 30.2768 28.8956C30.6426 29.7789 31.1789 30.5814 31.8548 31.2574C32.5308 31.9333 33.3333 32.4696 34.2166 32.8354C35.0998 33.2012 36.0464 33.3895 37.0024 33.3895C38.9331 33.3895 40.7847 32.6226 42.1499 31.2574C43.5151 29.8921 44.2821 28.0405 44.2821 26.1098C44.2821 24.1791 43.5151 22.3275 42.1499 20.9623C40.7847 19.597 38.9331 18.8301 37.0024 18.8301Z" fill="url(#paint15_linear_3958_21629)" fill-opacity="0.1" style="mix-blend-mode:plus-darker"/>
<path d="M37.0024 18.8301C36.0464 18.8301 35.0998 19.0184 34.2166 19.3842C33.3333 19.7501 32.5308 20.2863 31.8548 20.9623C31.1789 21.6382 30.6426 22.4408 30.2768 23.324C29.911 24.2072 29.7227 25.1538 29.7227 26.1098C29.7227 27.0658 29.911 28.0124 30.2768 28.8956C30.6426 29.7789 31.1789 30.5814 31.8548 31.2574C32.5308 31.9333 33.3333 32.4696 34.2166 32.8354C35.0998 33.2012 36.0464 33.3895 37.0024 33.3895C38.9331 33.3895 40.7847 32.6226 42.1499 31.2574C43.5151 29.8921 44.2821 28.0405 44.2821 26.1098C44.2821 24.1791 43.5151 22.3275 42.1499 20.9623C40.7847 19.597 38.9331 18.8301 37.0024 18.8301Z" fill="url(#paint16_linear_3958_21629)" fill-opacity="0.3"/>
<defs>
<radialGradient id="paint0_radial_3958_21629" cx="0" cy="0" r="1" gradientUnits="userSpaceOnUse" gradientTransform="translate(41.9263 43.374) scale(14.595 21.2212)">
<stop offset="0.433" stop-color="#3B148A"/>
<stop offset="1" stop-color="#3B148A" stop-opacity="0"/>
</radialGradient>
<linearGradient id="paint1_linear_3958_21629" x1="57.1133" y1="39.6811" x2="53.462" y2="52.3922" gradientUnits="userSpaceOnUse">
<stop stop-opacity="0"/>
<stop offset="0.859195"/>
</linearGradient>
<linearGradient id="paint2_linear_3958_21629" x1="58.5632" y1="42.0282" x2="60.8156" y2="35.4406" gradientUnits="userSpaceOnUse">
<stop stop-color="white" stop-opacity="0"/>
<stop offset="1" stop-color="white"/>
</linearGradient>
<radialGradient id="paint3_radial_3958_21629" cx="0" cy="0" r="1" gradientUnits="userSpaceOnUse" gradientTransform="translate(35.1007 43.374) rotate(180) scale(16.1519 23.4848)">
<stop offset="0.433" stop-color="#3B148A"/>
<stop offset="1" stop-color="#3B148A" stop-opacity="0"/>
</radialGradient>
<linearGradient id="paint4_linear_3958_21629" x1="23.4238" y1="39.6811" x2="19.7726" y2="52.3922" gradientUnits="userSpaceOnUse">
<stop stop-opacity="0"/>
<stop offset="0.859195"/>
</linearGradient>
<linearGradient id="paint5_linear_3958_21629" x1="24.8738" y1="42.0282" x2="27.1262" y2="35.4406" gradientUnits="userSpaceOnUse">
<stop stop-color="white" stop-opacity="0"/>
<stop offset="1" stop-color="white"/>
</linearGradient>
<linearGradient id="paint6_linear_3958_21629" x1="40.733" y1="40.6101" x2="35.8146" y2="56.2648" gradientUnits="userSpaceOnUse">
<stop stop-opacity="0"/>
<stop offset="0.859195"/>
</linearGradient>
<linearGradient id="paint7_linear_3958_21629" x1="42.39" y1="43.544" x2="45.4075" y2="35.4753" gradientUnits="userSpaceOnUse">
<stop stop-color="white" stop-opacity="0"/>
<stop offset="1" stop-color="white"/>
</linearGradient>
<linearGradient id="paint8_linear_3958_21629" x1="50.5314" y1="23.9225" x2="56.1023" y2="32.8163" gradientUnits="userSpaceOnUse">
<stop offset="0.125" stop-color="#7A41DC"/>
<stop offset="1" stop-color="#5B2AB5"/>
</linearGradient>
<linearGradient id="paint9_linear_3958_21629" x1="55.3682" y1="25.0817" x2="52.4533" y2="33.7798" gradientUnits="userSpaceOnUse">
<stop stop-opacity="0"/>
<stop offset="0.859195"/>
</linearGradient>
<linearGradient id="paint10_linear_3958_21629" x1="56.242" y1="26.732" x2="58.0224" y2="22.2688" gradientUnits="userSpaceOnUse">
<stop stop-color="white" stop-opacity="0"/>
<stop offset="1" stop-color="white"/>
</linearGradient>
<linearGradient id="paint11_linear_3958_21629" x1="17.7365" y1="23.9225" x2="23.3074" y2="32.8163" gradientUnits="userSpaceOnUse">
<stop offset="0.125" stop-color="#9C6CFE"/>
<stop offset="1" stop-color="#7A41DC"/>
</linearGradient>
<linearGradient id="paint12_linear_3958_21629" x1="22.5733" y1="25.0817" x2="19.6583" y2="33.7798" gradientUnits="userSpaceOnUse">
<stop stop-opacity="0"/>
<stop offset="0.859195"/>
</linearGradient>
<linearGradient id="paint13_linear_3958_21629" x1="23.4471" y1="26.732" x2="25.2275" y2="22.2688" gradientUnits="userSpaceOnUse">
<stop stop-color="white" stop-opacity="0"/>
<stop offset="1" stop-color="white"/>
</linearGradient>
<linearGradient id="paint14_linear_3958_21629" x1="40.7895" y1="24.5087" x2="43.161" y2="18.5638" gradientUnits="userSpaceOnUse">
<stop stop-color="white" stop-opacity="0"/>
<stop offset="1" stop-color="white"/>
</linearGradient>
<linearGradient id="paint15_linear_3958_21629" x1="39.6255" y1="22.3106" x2="35.7429" y2="33.8964" gradientUnits="userSpaceOnUse">
<stop stop-opacity="0"/>
<stop offset="0.859195"/>
</linearGradient>
<linearGradient id="paint16_linear_3958_21629" x1="40.7895" y1="24.5087" x2="43.161" y2="18.5638" gradientUnits="userSpaceOnUse">
<stop stop-color="white" stop-opacity="0"/>
<stop offset="1" stop-color="white"/>
</linearGradient>
</defs>
</svg>
