<svg width="16" height="16" viewBox="0 0 16 16" fill="none" xmlns="http://www.w3.org/2000/svg">
<path d="M11.1681 6.18235C11.1681 3.42879 8.93592 1.19658 6.18235 1.19658C3.42879 1.19658 1.19658 3.42879 1.19658 6.18235C1.19658 8.93592 3.42879 11.1681 6.18235 11.1681C8.93592 11.1681 11.1681 8.93592 11.1681 6.18235ZM12.3647 6.18235C12.3647 7.67411 11.836 9.04217 10.9562 10.1102L15.3803 14.5343C15.614 14.7679 15.614 15.1467 15.3803 15.3803C15.1467 15.614 14.7679 15.614 14.5343 15.3803L10.1102 10.9562C9.04217 11.836 7.67411 12.3647 6.18235 12.3647C2.76793 12.3647 0 9.59677 0 6.18235C0 2.76793 2.76793 0 6.18235 0C9.59677 0 12.3647 2.76793 12.3647 6.18235Z" fill="#184133"/>
</svg>
