<svg width="16" height="13" viewBox="0 0 16 13" fill="none" xmlns="http://www.w3.org/2000/svg">
<path fill-rule="evenodd" clip-rule="evenodd" d="M1.6 0C1.17565 0 0.768687 0.145679 0.468629 0.404988C0.168571 0.664298 0 1.016 0 1.38272V11.0617C0 11.4284 0.168571 11.7801 0.468629 12.0395C0.768687 12.2988 1.17565 12.4444 1.6 12.4444H14.4C14.8243 12.4444 15.2313 12.2988 15.5314 12.0395C15.8314 11.7801 16 11.4284 16 11.0617V1.38272C16 1.016 15.8314 0.664298 15.5314 0.404988C15.2313 0.145679 14.8243 0 14.4 0H1.6ZM5.3 3.89235C5.31775 3.76017 5.37101 3.63341 5.45551 3.52218C5.54002 3.41095 5.65344 3.31832 5.78672 3.2517C5.92 3.18508 6.06946 3.14629 6.22317 3.13845C6.37687 3.1306 6.53057 3.15391 6.672 3.20652C7.0752 3.35585 7.9264 3.69185 9.0048 4.22973C9.76268 4.60405 10.4946 5.01635 11.1968 5.46449C11.3203 5.54389 11.4205 5.64712 11.4896 5.76596C11.5587 5.8848 11.5947 6.01595 11.5947 6.14894C11.5947 6.28193 11.5587 6.41308 11.4896 6.53192C11.4205 6.65076 11.3203 6.75399 11.1968 6.83338C10.4946 7.28106 9.76264 7.69289 9.0048 8.06677C8.25097 8.44729 7.47204 8.7894 6.672 9.09136C6.53058 9.14411 6.37685 9.16754 6.22308 9.15977C6.06931 9.15199 5.91978 9.11323 5.78645 9.04658C5.65312 8.97993 5.53968 8.88725 5.45522 8.77593C5.37075 8.66462 5.31759 8.53777 5.3 8.40553C5.20401 7.65622 5.157 6.90283 5.1592 6.14894C5.1592 5.07664 5.2488 4.26914 5.3 3.89235Z" fill="#3C3C3C"/>
</svg>
