<svg width="24" height="32" viewBox="0 0 24 32" fill="none" xmlns="http://www.w3.org/2000/svg">
<path fill-rule="evenodd" clip-rule="evenodd" d="M21.9979 10.3804C21.9955 10.5758 21.9159 10.7623 21.7766 10.8993C21.6372 11.0362 21.4493 11.1125 21.2539 11.1114H16.2919C16.0963 11.1128 15.9081 11.0366 15.7685 10.8997C15.6289 10.7627 15.5492 10.576 15.5469 10.3804C15.5469 9.97644 15.8809 9.64844 16.2919 9.64844H21.2539C21.6639 9.64844 21.9979 9.97644 21.9979 10.3804ZM21.9979 14.7694C21.9955 14.9648 21.9159 15.1513 21.7766 15.2883C21.6372 15.4252 21.4493 15.5015 21.2539 15.5004H17.2839C17.0885 15.5015 16.9006 15.4252 16.7612 15.2883C16.6218 15.1513 16.5422 14.9648 16.5399 14.7694C16.5399 14.3654 16.8729 14.0374 17.2839 14.0374H21.2539C21.6639 14.0374 21.9979 14.3654 21.9979 14.7694Z" fill="black"/>
<path d="M12.5871 10.238L12.9511 10.595C14.4691 12.087 15.2291 12.834 15.2281 13.642C15.2281 13.907 15.1731 14.168 15.0671 14.411C14.7421 15.154 13.7441 15.544 11.7491 16.325L11.6041 16.381C11.0391 16.602 10.7561 16.713 10.5281 16.891C10.3562 17.0259 10.2076 17.188 10.0881 17.371C9.9311 17.611 9.8481 17.9 9.6811 18.475C9.4231 19.368 9.2951 19.815 9.0201 20.012C8.81486 20.16 8.56114 20.2247 8.3101 20.193C7.9721 20.153 7.6381 19.824 6.9701 19.168L5.9441 18.158L3.2711 20.786C3.13027 20.9234 2.94133 21.0003 2.7446 21.0003C2.54787 21.0003 2.35893 20.9234 2.2181 20.786C2.14907 20.7186 2.09421 20.6382 2.05675 20.5493C2.0193 20.4604 2 20.3649 2 20.2685C2 20.1721 2.0193 20.0766 2.05675 19.9877C2.09421 19.8988 2.14907 19.8184 2.2181 19.751L4.8811 17.114L3.8641 16.114C3.1971 15.459 2.8631 15.131 2.8211 14.798C2.78956 14.5506 2.85555 14.3006 3.0051 14.101C3.2071 13.831 3.6611 13.704 4.5691 13.451C5.1551 13.288 5.4481 13.206 5.6931 13.052C5.87977 12.9347 6.04243 12.7903 6.1811 12.619C6.3621 12.395 6.4751 12.117 6.7001 11.561L6.7571 11.419C7.5511 9.459 7.9481 8.478 8.7051 8.159C8.9521 8.054 9.2181 8 9.4861 8C10.3101 8 11.0691 8.745 12.5871 10.238Z" fill="black"/>
<path fill-rule="evenodd" clip-rule="evenodd" d="M21.9981 19.1539C21.9958 19.3493 21.9162 19.5358 21.7768 19.6727C21.6374 19.8097 21.4495 19.8859 21.2541 19.8849H12.3221C12.1267 19.8859 11.9388 19.8097 11.7994 19.6727C11.6601 19.5358 11.5805 19.3493 11.5781 19.1539C11.5781 18.7499 11.9111 18.4219 12.3221 18.4219H21.2541C21.6641 18.4219 21.9981 18.7499 21.9981 19.1539Z" fill="black"/>
</svg>
