<svg width="74" height="74" viewBox="0 0 74 74" fill="none" xmlns="http://www.w3.org/2000/svg">
<rect x="42.7148" y="48.4434" width="3.86127" height="3.86127" transform="rotate(-45 42.7148 48.4434)" fill="#185FB3"/>
<path d="M44.6783 52.9242C44.1253 52.314 44.1482 51.3771 44.7306 50.7948L47.7996 47.7258C48.3819 47.1435 49.3187 47.1205 49.929 47.6736L54.8584 52.1416C56.571 53.6938 56.6365 56.363 55.0021 57.9974C53.3678 59.6317 50.6985 59.5662 49.1463 57.8537L44.6783 52.9242Z" fill="url(#paint0_radial_3958_21584)"/>
<path fill-rule="evenodd" clip-rule="evenodd" d="M40.0469 38.7637C40.3967 38.7621 40.7437 38.8308 41.0674 38.9649C41.3908 39.0989 41.6848 39.2959 41.9326 39.5449C42.1805 39.7942 42.3775 40.0908 42.5117 40.417C42.6459 40.7433 42.7148 41.093 42.7148 41.4463C42.7148 43.7146 41.609 45.4254 39.8799 46.5401C38.1911 47.627 35.9194 48.1441 33.4785 48.1524V48.1533C33.4685 48.1533 33.4582 48.1524 33.4482 48.1524C33.4385 48.1524 33.4287 48.1533 33.4189 48.1533V48.1524C30.9778 48.1441 28.7056 47.6272 27.0166 46.5401C25.2875 45.4254 24.1816 43.7145 24.1816 41.4463C24.1817 41.0931 24.2506 40.7432 24.3848 40.417C24.519 40.0907 24.716 39.7942 24.9639 39.5449C25.2116 39.2959 25.5057 39.099 25.8291 38.9649C26.1527 38.8308 26.4998 38.7621 26.8496 38.7637H40.0469Z" fill="url(#paint1_linear_3958_21584)"/>
<path d="M33.4429 26.4062C32.0092 26.4062 30.6342 26.9758 29.6204 27.9896C28.6066 29.0033 28.0371 30.3783 28.0371 31.812C28.0371 33.2457 28.6066 34.6207 29.6204 35.6345C30.6342 36.6483 32.0092 37.2178 33.4429 37.2178C34.8766 37.2178 36.2516 36.6483 37.2653 35.6345C38.2791 34.6207 38.8487 33.2457 38.8487 31.812C38.8487 30.3783 38.2791 29.0033 37.2653 27.9896C36.2516 26.9758 34.8766 26.4062 33.4429 26.4062Z" fill="url(#paint2_linear_3958_21584)"/>
<circle cx="33.4451" cy="36.4451" r="14.0936" stroke="url(#paint3_linear_3958_21584)" stroke-width="2.70289"/>
<defs>
<radialGradient id="paint0_radial_3958_21584" cx="0" cy="0" r="1" gradientUnits="userSpaceOnUse" gradientTransform="translate(54.7027 57.2689) rotate(-135) scale(11.9926 8.24494)">
<stop stop-color="#F96F0A"/>
<stop offset="0.520024" stop-color="#FDAA2C"/>
</radialGradient>
<linearGradient id="paint1_linear_3958_21584" x1="36.5371" y1="48.0304" x2="29.0086" y2="38.9227" gradientUnits="userSpaceOnUse">
<stop stop-color="#7D38F0"/>
<stop offset="1" stop-color="#935CFC"/>
</linearGradient>
<linearGradient id="paint2_linear_3958_21584" x1="30.6076" y1="27.8428" x2="36.1174" y2="36.6421" gradientUnits="userSpaceOnUse">
<stop offset="0.125" stop-color="#9C6CFE"/>
<stop offset="1" stop-color="#7A41DC"/>
</linearGradient>
<linearGradient id="paint3_linear_3958_21584" x1="25.3441" y1="25.1045" x2="41.0865" y2="50.2452" gradientUnits="userSpaceOnUse">
<stop offset="0.125" stop-color="#9C6CFE"/>
<stop offset="1" stop-color="#7A41DC"/>
</linearGradient>
</defs>
</svg>
