<svg width="21" height="12" viewBox="0 0 21 12" fill="none" xmlns="http://www.w3.org/2000/svg">
<path d="M18.5161 2.4706L16.2898 0.408153C15.9992 0.155313 15.6185 0.0102366 15.22 0.00052145C14.8215 -0.0091937 14.433 0.11713 14.1285 0.355463L6.81592 7.12991C6.55329 7.37527 6.38977 7.69686 6.35279 8.0407L6.00341 11.1795C5.99247 11.2898 6.00791 11.4009 6.04864 11.505C6.08937 11.6091 6.15438 11.7036 6.23904 11.7817C6.31496 11.8515 6.405 11.9067 6.504 11.9441C6.60299 11.9816 6.70899 12.0006 6.81592 12H6.88905L10.2772 11.714C10.6484 11.6797 10.9955 11.5282 11.2603 11.2849L18.5729 4.51046C18.8568 4.23268 19.0101 3.862 18.9995 3.47964C18.9888 3.09728 18.815 2.73443 18.5161 2.4706ZM10.131 10.2085L7.69343 10.4193L7.91281 8.16113L12.5035 3.96098L14.6973 5.99331L10.131 10.2085ZM15.7535 4.98467L13.576 2.96739L15.1604 1.46196L17.3785 3.51687L15.7535 4.98467Z" fill="black"/>
</svg>
