<svg width="20" height="21" viewBox="0 0 20 21" fill="none" xmlns="http://www.w3.org/2000/svg">
<path d="M4.49602 6.44917C4.49622 5.50965 4.74149 4.58613 5.20804 3.76824C5.67459 2.95035 6.34656 2.26586 7.15876 1.7812C7.97096 1.29653 8.89579 1.02815 9.84351 1.0021C10.7912 0.976044 11.7297 1.1932 12.5677 1.63251C13.4058 2.07181 14.115 2.71833 14.6266 3.50933C15.1382 4.30033 15.4347 5.20895 15.4875 6.14701C15.5403 7.08508 15.3474 8.02073 14.9277 8.86316C14.508 9.7056 13.8756 10.4262 13.092 10.9551C14.7795 11.5684 16.2432 12.6682 17.2947 14.1128C18.3461 15.5574 18.9373 17.2808 18.992 19.0612C18.9897 19.2531 18.9126 19.4368 18.7769 19.5737C18.6411 19.7107 18.4572 19.7903 18.2636 19.7961C18.07 19.8019 17.8816 19.7332 17.7378 19.6046C17.594 19.476 17.506 19.2972 17.492 19.1058C17.4325 17.1748 16.6166 15.3427 15.2172 13.9977C13.8178 12.6528 11.945 11.9006 9.99552 11.9006C8.04607 11.9006 6.17322 12.6528 4.77385 13.9977C3.37448 15.3427 2.55857 17.1748 2.49902 19.1058C2.48901 19.2998 2.4027 19.4823 2.25858 19.614C2.11446 19.7458 1.924 19.8164 1.72799 19.8107C1.53199 19.805 1.34603 19.7235 1.20996 19.5835C1.07389 19.4436 0.99853 19.2565 1.00002 19.0622C1.05457 17.2816 1.64563 15.558 2.69711 14.1132C3.74859 12.6684 5.21236 11.5685 6.90002 10.9551C6.1591 10.455 5.55275 9.78308 5.13376 8.99775C4.71477 8.21242 4.49583 7.3375 4.49602 6.44917ZM9.99602 2.48531C8.93516 2.48531 7.91774 2.90293 7.16759 3.6463C6.41745 4.38966 5.99602 5.39789 5.99602 6.44917C5.99602 7.50044 6.41745 8.50867 7.16759 9.25203C7.91774 9.9954 8.93516 10.413 9.99602 10.413C11.0569 10.413 12.0743 9.9954 12.8244 9.25203C13.5746 8.50867 13.996 7.50044 13.996 6.44917C13.996 5.39789 13.5746 4.38966 12.8244 3.6463C12.0743 2.90293 11.0569 2.48531 9.99602 2.48531Z" fill="white"/>
<path d="M9.83008 0.501953C10.863 0.473614 11.886 0.710461 12.7998 1.18945C13.7138 1.66855 14.4883 2.37462 15.0469 3.23828C15.6053 4.10184 15.9287 5.09439 15.9863 6.11914C16.0439 7.14403 15.8333 8.16595 15.375 9.08594C15.0483 9.74166 14.6014 10.3268 14.0635 10.8193C15.5062 11.4976 16.759 12.5266 17.6992 13.8184C18.8096 15.344 19.4343 17.1648 19.4922 19.0459V19.0674C19.4882 19.3897 19.3584 19.6972 19.1318 19.9258C18.9054 20.1542 18.5994 20.2864 18.2783 20.2959C17.9573 20.3054 17.644 20.1919 17.4043 19.9775C17.1644 19.7629 17.0166 19.4631 16.9932 19.1416L16.9922 19.1318V19.1211C16.9367 17.3216 16.1765 15.6133 14.8711 14.3584C13.5653 13.1034 11.816 12.4004 9.99512 12.4004C8.17435 12.4005 6.4258 13.1035 5.12012 14.3584C3.81462 15.6133 3.05454 17.3216 2.99902 19.1211L2.99805 19.1318C2.98114 19.4577 2.8362 19.7635 2.5957 19.9834C2.35541 20.2029 2.03883 20.3199 1.71387 20.3105C1.38874 20.3011 1.07871 20.166 0.851562 19.9326C0.624315 19.6989 0.497568 19.385 0.5 19.0586V19.0469C0.557637 17.1656 1.18263 15.3451 2.29297 13.8193C3.233 12.5277 4.48531 11.4987 5.92773 10.8203C5.43065 10.3652 5.01095 9.83047 4.69238 9.2334C4.23484 8.3758 3.99592 7.4198 3.99609 6.44922C3.99631 5.4227 4.26401 4.41363 4.77344 3.52051C5.28289 2.62739 6.01648 1.88019 6.90234 1.35156C7.78819 0.822946 8.79705 0.530351 9.83008 0.501953ZM9.99609 2.98535C9.06649 2.98535 8.17554 3.35101 7.51953 4.00098C6.86365 4.65093 6.49609 5.53202 6.49609 6.44922C6.49611 7.3663 6.86379 8.24656 7.51953 8.89648C8.17557 9.54659 9.06638 9.91309 9.99609 9.91309C10.9258 9.91307 11.8166 9.54657 12.4727 8.89648C13.1284 8.24657 13.4961 7.36627 13.4961 6.44922C13.4961 5.53202 13.1285 4.65093 12.4727 4.00098C11.8167 3.35098 10.9257 2.98537 9.99609 2.98535Z" stroke="black" stroke-opacity="0.3"/>
</svg>
