<svg width="60" height="60" viewBox="0 0 60 60" fill="none" xmlns="http://www.w3.org/2000/svg">
<g clip-path="url(#clip0_1805_37053)">
<path fill-rule="evenodd" clip-rule="evenodd" d="M35.7187 32.0486C37.1737 32.1686 38.6227 32.8166 39.9847 34.0196C41.3677 32.8496 42.8287 32.2226 44.2837 32.1236C45.1419 32.0691 46.0018 32.1998 46.8051 32.5067C47.6084 32.8137 48.3364 33.2897 48.9397 33.9026C51.1957 36.1466 51.9217 40.2746 48.9907 43.1006L48.9607 43.1306L40.9716 50.3906C40.6955 50.6419 40.3355 50.7811 39.9622 50.7811C39.5888 50.7811 39.2288 50.6419 38.9527 50.3906L30.9667 43.1306L30.9156 43.0826C28.0056 40.1876 28.7647 36.0386 31.0417 33.7946C31.6478 33.1816 32.3802 32.7079 33.1878 32.4064C33.9955 32.1049 34.8591 31.9828 35.7187 32.0486Z" fill="url(#paint0_linear_1805_37053)"/>
<path fill-rule="evenodd" clip-rule="evenodd" d="M35.6103 12.0002C36.0001 12.0048 36.382 12.1107 36.7186 12.3074C37.0552 12.5041 37.3349 12.7849 37.5303 13.1222L43.6053 23.6222C43.7532 23.8781 43.8493 24.1606 43.888 24.4536C43.9268 24.7466 43.9075 25.0444 43.8311 25.3299C43.7548 25.6155 43.623 25.8832 43.4432 26.1178C43.2634 26.3524 43.0392 26.5492 42.7833 26.6972C42.5274 26.8451 42.2449 26.9412 41.9519 26.98C41.6588 27.0187 41.3611 26.9994 41.0755 26.923C40.79 26.8467 40.5223 26.7149 40.2877 26.5351C40.0531 26.3553 39.8562 26.1311 39.7083 25.8752L35.5263 18.6452L23.8293 37.7402C23.6316 38.0628 23.3557 38.3304 23.0272 38.5181C22.6987 38.7059 22.3282 38.8078 21.9499 38.8143C21.5716 38.8209 21.1977 38.732 20.8629 38.5558C20.528 38.3796 20.2431 38.1217 20.0343 37.8062L14.6253 29.6252H11.2803C10.6835 29.6252 10.1112 29.3881 9.68928 28.9662C9.26733 28.5442 9.03027 27.9719 9.03027 27.3752C9.03027 26.7784 9.26733 26.2061 9.68928 25.7842C10.1112 25.3622 10.6835 25.1252 11.2803 25.1252H15.8343C16.2062 25.1249 16.5725 25.2168 16.9002 25.3927C17.2279 25.5686 17.507 25.823 17.7123 26.1332L21.8373 32.3732L33.6633 13.0742C33.867 12.7418 34.1535 12.4681 34.4948 12.2799C34.8361 12.0916 35.2205 11.9952 35.6103 12.0002Z" fill="#FF7852"/>
</g>
<defs>
<linearGradient id="paint0_linear_1805_37053" x1="31.4577" y1="33.2066" x2="43.423" y2="53.7284" gradientUnits="userSpaceOnUse">
<stop stop-color="#FF7A41"/>
<stop offset="1" stop-color="#FF001A"/>
</linearGradient>
<clipPath id="clip0_1805_37053">
<rect width="42" height="42" fill="white" transform="translate(9 9)"/>
</clipPath>
</defs>
</svg>
