<svg width="13" height="13" viewBox="0 0 13 13" fill="none" xmlns="http://www.w3.org/2000/svg">
<path d="M5.83337 0.535014C4.4682 0.687869 3.19846 1.28117 2.23397 2.21688C1.26949 3.15259 0.667978 4.37471 0.528842 5.68128C0.387169 7.04992 0.770661 8.42114 1.60797 9.53983L0.811814 12.3856C0.80652 12.4009 0.805782 12.4174 0.809684 12.4331C0.813585 12.4487 0.821971 12.4631 0.833907 12.4745C0.845843 12.4859 0.86086 12.4939 0.877284 12.4976C0.893708 12.5014 0.910892 12.5007 0.926921 12.4956L4.4329 11.5791C5.76766 12.0869 7.25655 12.0804 8.58635 11.5608C9.72898 11.1382 10.7127 10.3979 11.4104 9.43557C12.1081 8.47322 12.4876 7.33307 12.5 6.16245C12.4891 5.36199 12.3029 4.57257 11.9535 3.84496C11.6042 3.11735 11.0993 2.46765 10.4714 1.93763C9.84352 1.40761 9.10649 1.00901 8.30771 0.767446C7.50893 0.525882 6.66609 0.446708 5.83337 0.535014V0.535014Z" stroke="white" stroke-opacity="0.9" stroke-linecap="round" stroke-linejoin="round"/>
<path d="M3.82324 6.53125H9.17573" stroke="white" stroke-opacity="0.9" stroke-linecap="round" stroke-linejoin="round"/>
<path d="M3.82324 4.8125H9.17573" stroke="white" stroke-opacity="0.9" stroke-linecap="round" stroke-linejoin="round"/>
<path d="M3.82324 8.22656H6.26927" stroke="white" stroke-opacity="0.9" stroke-linecap="round" stroke-linejoin="round"/>
</svg>
