<svg width="18" height="15" viewBox="0 0 18 15" fill="none" xmlns="http://www.w3.org/2000/svg">
<path d="M13.0498 0.75C15.4781 0.75 17.25 2.45154 17.25 4.49609C17.2499 5.76576 16.6263 6.99358 15.333 8.43066C14.0345 9.87356 12.1614 11.4201 9.82812 13.3418L9.82715 13.3428L9 14.0264L8.17285 13.3428L8.17188 13.3418L6.50977 11.9668C4.93777 10.6535 3.64086 9.51282 2.66699 8.43066C1.37373 6.99358 0.750059 5.76576 0.75 4.49609C0.75 2.45154 2.52194 0.75 4.9502 0.75C6.3149 0.750055 7.61922 1.33128 8.45508 2.21582L9 2.79199L9.54492 2.21582C10.3808 1.33128 11.6851 0.750056 13.0498 0.75Z" stroke="black" stroke-opacity="0.8" stroke-width="1.5"/>
</svg>
