<svg width="21" height="20" viewBox="0 0 21 20" fill="none" xmlns="http://www.w3.org/2000/svg">
<path d="M18.78 14C18.69 14 16.67 13.64 16.67 7.75C16.67 3.59 14.25 1 10.25 1C6.25 1 3.83 3.59 3.83 7.75C3.83 13.75 1.74 14 1.75 14C1.55109 14 1.36032 14.079 1.21967 14.2197C1.07902 14.3603 1 14.5511 1 14.75C1 14.9489 1.07902 15.1397 1.21967 15.2803C1.36032 15.421 1.55109 15.5 1.75 15.5H6.58C6.74694 16.3507 7.20423 17.117 7.87366 17.6678C8.54309 18.2186 9.38308 18.5198 10.25 18.5198C11.1169 18.5198 11.9569 18.2186 12.6263 17.6678C13.2958 17.117 13.7531 16.3507 13.92 15.5H18.76C18.9589 15.5 19.1497 15.421 19.2903 15.2803C19.431 15.1397 19.51 14.9489 19.51 14.75C19.51 14.5511 19.431 14.3603 19.2903 14.2197C19.1497 14.079 18.9589 14 18.76 14H18.78ZM10.25 17C9.7863 16.9991 9.3343 16.8544 8.95636 16.5857C8.57843 16.317 8.29319 15.9377 8.14 15.5H12.36C12.2068 15.9377 11.9216 16.317 11.5436 16.5857C11.1657 16.8544 10.7137 16.9991 10.25 17ZM4.01 14C4.73 12.91 5.33 11 5.33 7.75C5.33 4.5 7.13 2.5 10.25 2.5C13.37 2.5 15.17 4.41 15.17 7.75C15.17 11.09 15.77 12.91 16.49 14H4.01Z" fill="white"/>
<path d="M10.25 0.5C12.3612 0.5 14.1072 1.18688 15.3232 2.47168C16.5359 3.75306 17.1699 5.57454 17.1699 7.75C17.1699 10.648 17.6688 12.1037 18.1152 12.8184C18.5613 13.5322 18.9439 13.5 18.7803 13.5C19.1044 13.5053 19.4139 13.6366 19.6436 13.8662C19.878 14.1006 20.0098 14.4185 20.0098 14.75C20.0098 15.0815 19.878 15.3994 19.6436 15.6338C19.4091 15.8681 19.0912 16 18.7598 16H14.3096C14.0686 16.8017 13.5955 17.5178 12.9443 18.0537C12.1854 18.6782 11.2328 19.0195 10.25 19.0195C9.26718 19.0195 8.31459 18.6782 7.55566 18.0537C6.90448 17.5178 6.4314 16.8017 6.19043 16H1.75C1.41848 16 1.10063 15.8682 0.866211 15.6338C0.631791 15.3994 0.5 15.0815 0.5 14.75C0.5 14.4185 0.631791 14.1006 0.866211 13.8662C1.08353 13.6489 1.37258 13.5206 1.67773 13.5029H1.67969C1.70249 13.4954 1.74889 13.4768 1.8125 13.4385C1.93755 13.3631 2.14371 13.2006 2.36523 12.8555C2.81367 12.1565 3.33008 10.7029 3.33008 7.75C3.33008 5.57454 3.96412 3.75306 5.17676 2.47168C6.39277 1.18688 8.13877 0.5 10.25 0.5ZM9.03418 16C9.09972 16.0645 9.17048 16.124 9.24609 16.1777C9.53941 16.3863 9.89013 16.4981 10.25 16.499C10.6099 16.4981 10.9606 16.3863 11.2539 16.1777C11.3295 16.124 11.4003 16.0645 11.4658 16H9.03418ZM1.75 14C1.74741 14 1.8849 13.9812 2.0918 13.8516C2.08028 13.7562 2.05047 13.6572 1.99121 13.5615C1.89449 13.5209 1.77062 13.5004 1.75 13.5V14ZM10.25 3C8.80046 3 7.7138 3.46125 6.98633 4.24609C6.25416 5.03611 5.83008 6.21446 5.83008 7.75C5.83008 10.4259 5.43008 12.2601 4.85547 13.5H15.6406C15.0684 12.2808 14.6699 10.4941 14.6699 7.75C14.6699 6.16643 14.2441 4.99114 13.5156 4.21484C12.7913 3.44305 11.7061 3 10.25 3Z" stroke="black" stroke-opacity="0.3"/>
</svg>
