<svg width="13" height="11" viewBox="0 0 13 11" fill="none" xmlns="http://www.w3.org/2000/svg">
<path d="M4.67306 7.06288L9.72276 8.70494C9.8076 8.73266 9.89818 8.74279 9.98788 8.7346C10.0776 8.7264 10.1641 8.70009 10.2412 8.65758C10.3183 8.61507 10.3839 8.55743 10.4334 8.48889C10.4828 8.42035 10.5147 8.34263 10.5269 8.26142L11.5571 1.18214C11.6198 0.751124 11.1286 0.429611 10.6952 0.617118L0.905457 4.86529C0.421443 5.0753 0.457744 5.71032 0.963758 5.87383L2.3058 6.30785L3.03732 6.54136M6.61242 7.6929L5.51789 9.35597C5.16038 9.75999 4.44041 9.53148 4.44041 9.01446V7.6829C4.44043 7.43162 4.5445 7.18956 4.73192 7.00487L6.86103 4.90479" stroke="black" stroke-width="1.12642" stroke-linecap="round" stroke-linejoin="round"/>
</svg>
