<svg width="74" height="74" viewBox="0 0 74 74" fill="none" xmlns="http://www.w3.org/2000/svg">
<path d="M61.1447 27.0596V52.3317C60.8225 52.2612 60.4802 52.231 60.1379 52.231H51.0762V27.0596C51.0762 26.5058 51.5293 26.0527 52.083 26.0527H60.1379C60.6916 26.0527 61.1447 26.5058 61.1447 27.0596Z" fill="black"/>
<path d="M61.1447 27.0596V52.3317C60.8225 52.2612 60.4802 52.231 60.1379 52.231H51.0762V27.0596C51.0762 26.5058 51.5293 26.0527 52.083 26.0527H60.1379C60.6916 26.0527 61.1447 26.5058 61.1447 27.0596Z" fill="#FF2B00"/>
<path d="M61.1447 27.0596V52.3317C60.8225 52.2612 60.4802 52.231 60.1379 52.231H51.0762V27.0596C51.0762 26.5058 51.5293 26.0527 52.083 26.0527H60.1379C60.6916 26.0527 61.1447 26.5058 61.1447 27.0596Z" fill="url(#paint0_linear_3958_21818)" fill-opacity="0.1" style="mix-blend-mode:plus-darker"/>
<path d="M61.1447 27.0596V52.3317C60.8225 52.2612 60.4802 52.231 60.1379 52.231H51.0762V27.0596C51.0762 26.5058 51.5293 26.0527 52.083 26.0527H60.1379C60.6916 26.0527 61.1447 26.5058 61.1447 27.0596Z" fill="url(#paint1_linear_3958_21818)" fill-opacity="0.3"/>
<path d="M61.1447 27.0596V52.3317C60.8225 52.2612 60.4802 52.231 60.1379 52.231H51.0762V27.0596C51.0762 26.5058 51.5293 26.0527 52.083 26.0527H60.1379C60.6916 26.0527 61.1447 26.5058 61.1447 27.0596Z" fill="url(#paint2_linear_3958_21818)"/>
<path d="M61.1447 27.0596V52.3317C60.8225 52.2612 60.4802 52.231 60.1379 52.231H51.0762V27.0596C51.0762 26.5058 51.5293 26.0527 52.083 26.0527H60.1379C60.6916 26.0527 61.1447 26.5058 61.1447 27.0596Z" fill="url(#paint3_linear_3958_21818)"/>
<path d="M61.1447 27.0596V52.3317C60.8225 52.2612 60.4802 52.231 60.1379 52.231H51.0762V27.0596C51.0762 26.5058 51.5293 26.0527 52.083 26.0527H60.1379C60.6916 26.0527 61.1447 26.5058 61.1447 27.0596Z" fill="url(#paint4_linear_3958_21818)"/>
<path d="M61.1447 27.0596V52.3317C60.8225 52.2612 60.4802 52.231 60.1379 52.231H51.0762V27.0596C51.0762 26.5058 51.5293 26.0527 52.083 26.0527H60.1379C60.6916 26.0527 61.1447 26.5058 61.1447 27.0596Z" fill="#F6AC00"/>
<path d="M61.1447 27.0596V52.3317C60.8225 52.2612 60.4802 52.231 60.1379 52.231H51.0762V27.0596C51.0762 26.5058 51.5293 26.0527 52.083 26.0527H60.1379C60.6916 26.0527 61.1447 26.5058 61.1447 27.0596Z" fill="url(#paint5_linear_3958_21818)" fill-opacity="0.3"/>
<path d="M39.9971 32.0957C39.4433 32.0957 38.9902 32.5488 38.9902 33.1026V52.2328H49.0588V33.1026C49.0588 32.5488 48.6057 32.0957 48.0519 32.0957H39.9971Z" fill="black"/>
<path d="M39.9971 32.0957C39.4433 32.0957 38.9902 32.5488 38.9902 33.1026V52.2328H49.0588V33.1026C49.0588 32.5488 48.6057 32.0957 48.0519 32.0957H39.9971Z" fill="#FF2B00"/>
<path d="M39.9971 32.0957C39.4433 32.0957 38.9902 32.5488 38.9902 33.1026V52.2328H49.0588V33.1026C49.0588 32.5488 48.6057 32.0957 48.0519 32.0957H39.9971Z" fill="url(#paint6_linear_3958_21818)" fill-opacity="0.1" style="mix-blend-mode:plus-darker"/>
<path d="M39.9971 32.0957C39.4433 32.0957 38.9902 32.5488 38.9902 33.1026V52.2328H49.0588V33.1026C49.0588 32.5488 48.6057 32.0957 48.0519 32.0957H39.9971Z" fill="url(#paint7_linear_3958_21818)" fill-opacity="0.3"/>
<path d="M39.9971 32.0957C39.4433 32.0957 38.9902 32.5488 38.9902 33.1026V52.2328H49.0588V33.1026C49.0588 32.5488 48.6057 32.0957 48.0519 32.0957H39.9971Z" fill="url(#paint8_linear_3958_21818)"/>
<path d="M39.9971 32.0957C39.4433 32.0957 38.9902 32.5488 38.9902 33.1026V52.2328H49.0588V33.1026C49.0588 32.5488 48.6057 32.0957 48.0519 32.0957H39.9971Z" fill="url(#paint9_linear_3958_21818)"/>
<path d="M39.9971 32.0957C39.4433 32.0957 38.9902 32.5488 38.9902 33.1026V52.2328H49.0588V33.1026C49.0588 32.5488 48.6057 32.0957 48.0519 32.0957H39.9971Z" fill="url(#paint10_linear_3958_21818)"/>
<path d="M39.9971 32.0957C39.4433 32.0957 38.9902 32.5488 38.9902 33.1026V52.2328H49.0588V33.1026C49.0588 32.5488 48.6057 32.0957 48.0519 32.0957H39.9971Z" fill="#F6AC00"/>
<path d="M39.9971 32.0957C39.4433 32.0957 38.9902 32.5488 38.9902 33.1026V52.2328H49.0588V33.1026C49.0588 32.5488 48.6057 32.0957 48.0519 32.0957H39.9971Z" fill="url(#paint11_linear_3958_21818)" fill-opacity="0.3"/>
<path d="M27.917 36.123C27.3633 36.123 26.9102 36.5761 26.9102 37.1299V52.2327H36.9787V37.1299C36.9787 36.5761 36.5256 36.123 35.9719 36.123H27.917Z" fill="black"/>
<path d="M27.917 36.123C27.3633 36.123 26.9102 36.5761 26.9102 37.1299V52.2327H36.9787V37.1299C36.9787 36.5761 36.5256 36.123 35.9719 36.123H27.917Z" fill="#FF2B00"/>
<path d="M27.917 36.123C27.3633 36.123 26.9102 36.5761 26.9102 37.1299V52.2327H36.9787V37.1299C36.9787 36.5761 36.5256 36.123 35.9719 36.123H27.917Z" fill="url(#paint12_linear_3958_21818)" fill-opacity="0.1" style="mix-blend-mode:plus-darker"/>
<path d="M27.917 36.123C27.3633 36.123 26.9102 36.5761 26.9102 37.1299V52.2327H36.9787V37.1299C36.9787 36.5761 36.5256 36.123 35.9719 36.123H27.917Z" fill="url(#paint13_linear_3958_21818)" fill-opacity="0.3"/>
<path d="M27.917 36.123C27.3633 36.123 26.9102 36.5761 26.9102 37.1299V52.2327H36.9787V37.1299C36.9787 36.5761 36.5256 36.123 35.9719 36.123H27.917Z" fill="url(#paint14_linear_3958_21818)"/>
<path d="M27.917 36.123C27.3633 36.123 26.9102 36.5761 26.9102 37.1299V52.2327H36.9787V37.1299C36.9787 36.5761 36.5256 36.123 35.9719 36.123H27.917Z" fill="url(#paint15_linear_3958_21818)"/>
<path d="M27.917 36.123C27.3633 36.123 26.9102 36.5761 26.9102 37.1299V52.2327H36.9787V37.1299C36.9787 36.5761 36.5256 36.123 35.9719 36.123H27.917Z" fill="url(#paint16_linear_3958_21818)"/>
<path d="M27.917 36.123C27.3633 36.123 26.9102 36.5761 26.9102 37.1299V52.2327H36.9787V37.1299C36.9787 36.5761 36.5256 36.123 35.9719 36.123H27.917Z" fill="#F6AC00"/>
<path d="M27.917 36.123C27.3633 36.123 26.9102 36.5761 26.9102 37.1299V52.2327H36.9787V37.1299C36.9787 36.5761 36.5256 36.123 35.9719 36.123H27.917Z" fill="url(#paint17_linear_3958_21818)" fill-opacity="0.3"/>
<path d="M41.6563 28.9127L34.9581 31.1457L34.3125 29.2381L41.0107 27.0051C41.0417 25.3661 42.3793 24.0411 44.0255 24.0411C44.8393 24.0411 45.5758 24.368 46.1195 24.8929L53.1239 21.3827C53.1093 21.2626 53.0873 21.1446 53.0873 21.0206C53.0873 19.3549 54.4422 18 56.1078 18C57.7735 18 59.1284 19.3549 59.1284 21.0206C59.1284 22.6862 57.7735 24.0411 56.1078 24.0411C55.2941 24.0411 54.5576 23.7143 54.0139 23.1893L47.0095 26.6996C47.0241 26.8197 47.0461 26.9377 47.0461 27.0617C47.0461 28.7273 45.6912 30.0823 44.0255 30.0823C43.0605 30.0823 42.2097 29.6193 41.6563 28.9127Z" fill="#9360F5"/>
<path d="M41.6563 28.9127L34.9581 31.1457L34.3125 29.2381L41.0107 27.0051C41.0417 25.3661 42.3793 24.0411 44.0255 24.0411C44.8393 24.0411 45.5758 24.368 46.1195 24.8929L53.1239 21.3827C53.1093 21.2626 53.0873 21.1446 53.0873 21.0206C53.0873 19.3549 54.4422 18 56.1078 18C57.7735 18 59.1284 19.3549 59.1284 21.0206C59.1284 22.6862 57.7735 24.0411 56.1078 24.0411C55.2941 24.0411 54.5576 23.7143 54.0139 23.1893L47.0095 26.6996C47.0241 26.8197 47.0461 26.9377 47.0461 27.0617C47.0461 28.7273 45.6912 30.0823 44.0255 30.0823C43.0605 30.0823 42.2097 29.6193 41.6563 28.9127Z" fill="url(#paint18_linear_3958_21818)"/>
<path d="M41.6563 28.9127L34.9581 31.1457L34.3125 29.2381L41.0107 27.0051C41.0417 25.3661 42.3793 24.0411 44.0255 24.0411C44.8393 24.0411 45.5758 24.368 46.1195 24.8929L53.1239 21.3827C53.1093 21.2626 53.0873 21.1446 53.0873 21.0206C53.0873 19.3549 54.4422 18 56.1078 18C57.7735 18 59.1284 19.3549 59.1284 21.0206C59.1284 22.6862 57.7735 24.0411 56.1078 24.0411C55.2941 24.0411 54.5576 23.7143 54.0139 23.1893L47.0095 26.6996C47.0241 26.8197 47.0461 26.9377 47.0461 27.0617C47.0461 28.7273 45.6912 30.0823 44.0255 30.0823C43.0605 30.0823 42.2097 29.6193 41.6563 28.9127Z" fill="#F6AC00"/>
<path d="M41.6563 28.9127L34.9581 31.1457L34.3125 29.2381L41.0107 27.0051C41.0417 25.3661 42.3793 24.0411 44.0255 24.0411C44.8393 24.0411 45.5758 24.368 46.1195 24.8929L53.1239 21.3827C53.1093 21.2626 53.0873 21.1446 53.0873 21.0206C53.0873 19.3549 54.4422 18 56.1078 18C57.7735 18 59.1284 19.3549 59.1284 21.0206C59.1284 22.6862 57.7735 24.0411 56.1078 24.0411C55.2941 24.0411 54.5576 23.7143 54.0139 23.1893L47.0095 26.6996C47.0241 26.8197 47.0461 26.9377 47.0461 27.0617C47.0461 28.7273 45.6912 30.0823 44.0255 30.0823C43.0605 30.0823 42.2097 29.6193 41.6563 28.9127Z" fill="url(#paint19_linear_3958_21818)" fill-opacity="0.3"/>
<path d="M21.2744 27.9434C23.1062 27.9434 24.8629 28.6715 26.1582 29.9668C27.4535 31.2621 28.1816 33.0188 28.1816 34.8506C28.1816 36.6824 27.4535 38.4391 26.1582 39.7344C24.8629 41.0297 23.1062 41.7578 21.2744 41.7578C20.3674 41.7578 19.4688 41.5785 18.6309 41.2314C17.7931 40.8843 17.0319 40.3756 16.3906 39.7344C15.7494 39.0931 15.2406 38.3319 14.8936 37.4941C14.5465 36.6562 14.3672 35.7576 14.3672 34.8506C14.3672 33.9436 14.5465 33.045 14.8936 32.207C15.2407 31.3692 15.7494 30.608 16.3906 29.9668C17.0319 29.3256 17.7931 28.8168 18.6309 28.4697C19.4688 28.1226 20.3674 27.9434 21.2744 27.9434Z" fill="url(#paint20_linear_3958_21818)" stroke="#EBEBEB" stroke-width="1.3"/>
<circle cx="31.9405" cy="31.0889" r="3.02057" fill="#F9F9FA"/>
<circle cx="31.9405" cy="31.0889" r="3.02057" stroke="black" stroke-width="1.5"/>
<circle cx="31.9405" cy="31.0889" r="3.02057" stroke="#FF2B00" stroke-width="1.5"/>
<circle cx="31.9405" cy="31.0889" r="3.02057" stroke="url(#paint21_linear_3958_21818)" stroke-width="1.5"/>
<circle cx="31.9405" cy="31.0889" r="3.02057" stroke="url(#paint22_linear_3958_21818)" stroke-width="1.5"/>
<circle cx="31.9405" cy="31.0889" r="3.02057" stroke="url(#paint23_linear_3958_21818)" stroke-width="1.5"/>
<circle cx="31.9405" cy="31.0889" r="3.02057" stroke="url(#paint24_linear_3958_21818)" stroke-opacity="0.1" style="mix-blend-mode:plus-darker" stroke-width="1.5"/>
<circle cx="31.9405" cy="31.0889" r="3.02057" stroke="url(#paint25_linear_3958_21818)" stroke-opacity="0.3" stroke-width="1.5"/>
<circle cx="31.9405" cy="31.0889" r="3.02057" stroke="#F6AC00" stroke-width="1.5"/>
<circle cx="31.9405" cy="31.0889" r="3.02057" stroke="url(#paint26_linear_3958_21818)" stroke-opacity="0.3" stroke-width="1.5"/>
<circle cx="44.0245" cy="27.0596" r="3.02057" fill="#F9F9FA"/>
<circle cx="44.0245" cy="27.0596" r="3.02057" stroke="black" stroke-width="1.5"/>
<circle cx="44.0245" cy="27.0596" r="3.02057" stroke="#FF2B00" stroke-width="1.5"/>
<circle cx="44.0245" cy="27.0596" r="3.02057" stroke="url(#paint27_linear_3958_21818)" stroke-width="1.5"/>
<circle cx="44.0245" cy="27.0596" r="3.02057" stroke="url(#paint28_linear_3958_21818)" stroke-width="1.5"/>
<circle cx="44.0245" cy="27.0596" r="3.02057" stroke="url(#paint29_linear_3958_21818)" stroke-width="1.5"/>
<circle cx="44.0245" cy="27.0596" r="3.02057" stroke="url(#paint30_linear_3958_21818)" stroke-opacity="0.1" style="mix-blend-mode:plus-darker" stroke-width="1.5"/>
<circle cx="44.0245" cy="27.0596" r="3.02057" stroke="url(#paint31_linear_3958_21818)" stroke-opacity="0.3" stroke-width="1.5"/>
<circle cx="44.0245" cy="27.0596" r="3.02057" stroke="#F6AC00" stroke-width="1.5"/>
<circle cx="44.0245" cy="27.0596" r="3.02057" stroke="url(#paint32_linear_3958_21818)" stroke-opacity="0.3" stroke-width="1.5"/>
<circle cx="56.1104" cy="21.0206" r="3.02057" fill="#F9F9FA"/>
<circle cx="56.1104" cy="21.0206" r="3.02057" stroke="black" stroke-width="1.5"/>
<circle cx="56.1104" cy="21.0206" r="3.02057" stroke="#FF2B00" stroke-width="1.5"/>
<circle cx="56.1104" cy="21.0206" r="3.02057" stroke="url(#paint33_linear_3958_21818)" stroke-width="1.5"/>
<circle cx="56.1104" cy="21.0206" r="3.02057" stroke="url(#paint34_linear_3958_21818)" stroke-width="1.5"/>
<circle cx="56.1104" cy="21.0206" r="3.02057" stroke="url(#paint35_linear_3958_21818)" stroke-width="1.5"/>
<circle cx="56.1104" cy="21.0206" r="3.02057" stroke="url(#paint36_linear_3958_21818)" stroke-opacity="0.1" style="mix-blend-mode:plus-darker" stroke-width="1.5"/>
<circle cx="56.1104" cy="21.0206" r="3.02057" stroke="url(#paint37_linear_3958_21818)" stroke-opacity="0.3" stroke-width="1.5"/>
<circle cx="56.1104" cy="21.0206" r="3.02057" stroke="#F6AC00" stroke-width="1.5"/>
<circle cx="56.1104" cy="21.0206" r="3.02057" stroke="url(#paint38_linear_3958_21818)" stroke-opacity="0.3" stroke-width="1.5"/>
<mask id="path-10-outside-1_3958_21818" maskUnits="userSpaceOnUse" x="8.91406" y="40.3281" width="24" height="15" fill="black">
<rect fill="white" x="8.91406" y="40.3281" width="24" height="15"/>
<path d="M28.3203 42.3281C28.7041 42.3261 29.0844 42.4119 29.4395 42.5801C29.7945 42.7482 30.1177 42.9951 30.3896 43.3076C30.6616 43.6201 30.8772 43.9923 31.0244 44.4014C31.1716 44.8103 31.247 45.2486 31.2471 45.6914C31.2471 48.5352 30.0336 50.6796 28.1367 52.0771C26.2836 53.4404 23.7908 54.0885 21.1123 54.0986V54.1006C21.1016 54.1006 21.0908 54.0996 21.0801 54.0996C21.0697 54.0996 21.0592 54.1006 21.0488 54.1006V54.0986C18.3704 54.0885 15.8775 53.4403 14.0244 52.0771C12.1276 50.6796 10.9141 48.5351 10.9141 45.6914C10.9141 45.2487 10.9896 44.8102 11.1367 44.4014C11.284 43.9923 11.5005 43.6201 11.7725 43.3076C12.0443 42.9953 12.3669 42.7482 12.7217 42.5801C13.0767 42.412 13.4571 42.3262 13.8408 42.3281H28.3203Z"/>
</mask>
<path d="M28.3203 42.3281C28.7041 42.3261 29.0844 42.4119 29.4395 42.5801C29.7945 42.7482 30.1177 42.9951 30.3896 43.3076C30.6616 43.6201 30.8772 43.9923 31.0244 44.4014C31.1716 44.8103 31.247 45.2486 31.2471 45.6914C31.2471 48.5352 30.0336 50.6796 28.1367 52.0771C26.2836 53.4404 23.7908 54.0885 21.1123 54.0986V54.1006C21.1016 54.1006 21.0908 54.0996 21.0801 54.0996C21.0697 54.0996 21.0592 54.1006 21.0488 54.1006V54.0986C18.3704 54.0885 15.8775 53.4403 14.0244 52.0771C12.1276 50.6796 10.9141 48.5351 10.9141 45.6914C10.9141 45.2487 10.9896 44.8102 11.1367 44.4014C11.284 43.9923 11.5005 43.6201 11.7725 43.3076C12.0443 42.9953 12.3669 42.7482 12.7217 42.5801C13.0767 42.412 13.4571 42.3262 13.8408 42.3281H28.3203Z" fill="url(#paint39_linear_3958_21818)"/>
<path d="M28.3203 42.3281C28.7041 42.3261 29.0844 42.4119 29.4395 42.5801C29.7945 42.7482 30.1177 42.9951 30.3896 43.3076C30.6616 43.6201 30.8772 43.9923 31.0244 44.4014C31.1716 44.8103 31.247 45.2486 31.2471 45.6914C31.2471 48.5352 30.0336 50.6796 28.1367 52.0771C26.2836 53.4404 23.7908 54.0885 21.1123 54.0986V54.1006C21.1016 54.1006 21.0908 54.0996 21.0801 54.0996C21.0697 54.0996 21.0592 54.1006 21.0488 54.1006V54.0986C18.3704 54.0885 15.8775 53.4403 14.0244 52.0771C12.1276 50.6796 10.9141 48.5351 10.9141 45.6914C10.9141 45.2487 10.9896 44.8102 11.1367 44.4014C11.284 43.9923 11.5005 43.6201 11.7725 43.3076C12.0443 42.9953 12.3669 42.7482 12.7217 42.5801C13.0767 42.412 13.4571 42.3262 13.8408 42.3281H28.3203Z" fill="url(#paint40_linear_3958_21818)"/>
<path d="M28.3203 42.3281V43.5281L28.3265 43.5281L28.3203 42.3281ZM29.4395 42.5801L29.9531 41.4956L29.9531 41.4955L29.4395 42.5801ZM30.3896 43.3076L31.2949 42.5199L31.2949 42.5199L30.3896 43.3076ZM31.0244 44.4014L32.1535 43.995L32.1535 43.9949L31.0244 44.4014ZM31.2471 45.6914H32.4471V45.6913L31.2471 45.6914ZM28.1367 52.0771L28.8478 53.0438L28.8485 53.0433L28.1367 52.0771ZM21.1123 54.0986L21.1078 52.8986L19.9123 52.9031V54.0986H21.1123ZM21.1123 54.1006L21.1123 55.3006L22.3123 55.3006V54.1006H21.1123ZM21.0801 54.0996L21.0824 52.8996L21.0779 52.8996L21.0801 54.0996ZM21.0488 54.1006H19.8488V55.3006L21.0488 55.3006L21.0488 54.1006ZM21.0488 54.0986H22.2488V52.9032L21.0534 52.8986L21.0488 54.0986ZM14.0244 52.0771L13.3126 53.0432L13.3133 53.0438L14.0244 52.0771ZM10.9141 45.6914L9.71406 45.6913V45.6914H10.9141ZM11.1367 44.4014L10.0076 43.9949L10.0076 43.9951L11.1367 44.4014ZM11.7725 43.3076L10.8673 42.5197L10.8672 42.5199L11.7725 43.3076ZM12.7217 42.5801L12.2081 41.4955L12.2079 41.4956L12.7217 42.5801ZM13.8408 42.3281L13.8347 43.5281H13.8408V42.3281ZM28.3203 42.3281L28.3265 43.5281C28.5257 43.5271 28.7288 43.5713 28.9258 43.6646L29.4395 42.5801L29.9531 41.4955C29.4401 41.2526 28.8825 41.1252 28.3141 41.1281L28.3203 42.3281ZM29.4395 42.5801L28.9258 43.6646C29.1244 43.7586 29.3161 43.9019 29.4844 44.0954L30.3896 43.3076L31.2949 42.5199C30.9193 42.0883 30.4645 41.7378 29.9531 41.4956L29.4395 42.5801ZM30.3896 43.3076L29.4844 44.0954C29.6533 44.2895 29.7955 44.5305 29.8953 44.8078L31.0244 44.4014L32.1535 43.9949C31.9588 43.4541 31.6699 42.9508 31.2949 42.5199L30.3896 43.3076ZM31.0244 44.4014L29.8953 44.8077C29.9945 45.0833 30.0471 45.384 30.0471 45.6915L31.2471 45.6914L32.4471 45.6913C32.447 45.1132 32.3486 44.5372 32.1535 43.995L31.0244 44.4014ZM31.2471 45.6914H30.0471C30.0471 48.1517 29.0166 49.9384 27.4249 51.111L28.1367 52.0771L28.8485 53.0433C31.0506 51.4208 32.4471 48.9188 32.4471 45.6914H31.2471ZM28.1367 52.0771L27.4256 51.1105C25.8347 52.2808 23.614 52.8892 21.1078 52.8986L21.1123 54.0986L21.1168 55.2986C23.9677 55.2879 26.7324 54.5999 28.8478 53.0438L28.1367 52.0771ZM21.1123 54.0986H19.9123V54.1006H21.1123H22.3123V54.0986H21.1123ZM21.1123 54.1006L21.1123 52.9006C21.1271 52.9006 21.1385 52.9009 21.1444 52.9011C21.1496 52.9013 21.1536 52.9015 21.1501 52.9013C21.1488 52.9013 21.1396 52.9008 21.1295 52.9005C21.1185 52.9001 21.1021 52.8996 21.0824 52.8996L21.0801 54.0996L21.0778 55.2996C21.0634 55.2996 21.0523 55.2992 21.0468 55.2991C21.0421 55.2989 21.0383 55.2987 21.0423 55.2989C21.0441 55.299 21.0535 55.2994 21.0641 55.2998C21.0754 55.3001 21.0922 55.3006 21.1123 55.3006L21.1123 54.1006ZM21.0801 54.0996L21.0779 52.8996C21.0576 52.8996 21.0408 52.9001 21.0297 52.9005C21.024 52.9007 21.0192 52.9009 21.0158 52.9011C21.0127 52.9012 21.0097 52.9014 21.0088 52.9014C21.0053 52.9016 21.0096 52.9013 21.0152 52.9012C21.0215 52.9009 21.0334 52.9006 21.0488 52.9006L21.0488 54.1006L21.0488 55.3006C21.0694 55.3006 21.0866 55.3001 21.0981 55.2997C21.1089 55.2993 21.1184 55.2989 21.1201 55.2988C21.1241 55.2986 21.12 55.2988 21.1149 55.299C21.1089 55.2992 21.0973 55.2996 21.0823 55.2996L21.0801 54.0996ZM21.0488 54.1006H22.2488V54.0986H21.0488H19.8488V54.1006H21.0488ZM21.0488 54.0986L21.0534 52.8986C18.5473 52.8891 16.3263 52.2808 14.7355 51.1105L14.0244 52.0771L13.3133 53.0438C15.4287 54.5999 18.1935 55.2878 21.0443 55.2986L21.0488 54.0986ZM14.0244 52.0771L14.7362 51.1111C13.1446 49.9384 12.1141 48.1516 12.1141 45.6914H10.9141H9.71406C9.71406 48.9187 11.1106 51.4208 13.3126 53.0432L14.0244 52.0771ZM10.9141 45.6914L12.1141 45.6915C12.1141 45.3841 12.1667 45.0833 12.2658 44.8077L11.1367 44.4014L10.0076 43.9951C9.81254 44.5371 9.7141 45.1133 9.71406 45.6913L10.9141 45.6914ZM11.1367 44.4014L12.2658 44.8078C12.365 44.5321 12.5078 44.2907 12.6777 44.0954L11.7725 43.3076L10.8672 42.5199C10.4932 42.9496 10.2029 43.4525 10.0076 43.9949L11.1367 44.4014ZM11.7725 43.3076L12.6776 44.0955C12.8467 43.9012 13.0381 43.758 13.2354 43.6645L12.7217 42.5801L12.2079 41.4956C11.6957 41.7383 11.2419 42.0895 10.8673 42.5197L11.7725 43.3076ZM12.7217 42.5801L13.2353 43.6646C13.4322 43.5713 13.6355 43.5271 13.8347 43.5281L13.8408 42.3281L13.8469 41.1281C13.2788 41.1252 12.7211 41.2526 12.2081 41.4955L12.7217 42.5801ZM13.8408 42.3281V43.5281H28.3203V42.3281V41.1281H13.8408V42.3281Z" fill="#EBEBEB" mask="url(#path-10-outside-1_3958_21818)"/>
<defs>
<linearGradient id="paint0_linear_3958_21818" x1="57.9245" y1="32.3348" x2="46.3978" y2="45.5131" gradientUnits="userSpaceOnUse">
<stop stop-opacity="0"/>
<stop offset="0.859195"/>
</linearGradient>
<linearGradient id="paint1_linear_3958_21818" x1="58.7294" y1="36.3024" x2="64.9433" y2="30.3341" gradientUnits="userSpaceOnUse">
<stop stop-color="white" stop-opacity="0"/>
<stop offset="1" stop-color="white"/>
</linearGradient>
<linearGradient id="paint2_linear_3958_21818" x1="52.197" y1="27.7" x2="68.6663" y2="36.9651" gradientUnits="userSpaceOnUse">
<stop stop-color="#FC92CB"/>
<stop offset="1" stop-color="#D7257D"/>
</linearGradient>
<linearGradient id="paint3_linear_3958_21818" x1="53.47" y1="29.5445" x2="66.7252" y2="37.6552" gradientUnits="userSpaceOnUse">
<stop offset="0.125" stop-color="#9C6CFE"/>
<stop offset="1" stop-color="#7A41DC"/>
</linearGradient>
<linearGradient id="paint4_linear_3958_21818" x1="52.197" y1="27.7" x2="68.6663" y2="36.9651" gradientUnits="userSpaceOnUse">
<stop stop-color="#FF7A41"/>
<stop offset="1" stop-color="#FF001A"/>
</linearGradient>
<linearGradient id="paint5_linear_3958_21818" x1="55.8362" y1="35.0683" x2="51.8865" y2="32.429" gradientUnits="userSpaceOnUse">
<stop stop-color="white" stop-opacity="0"/>
<stop offset="1" stop-color="white"/>
</linearGradient>
<linearGradient id="paint6_linear_3958_21818" x1="45.8385" y1="36.9095" x2="37.5952" y2="49.2085" gradientUnits="userSpaceOnUse">
<stop stop-opacity="0"/>
<stop offset="0.859195"/>
</linearGradient>
<linearGradient id="paint7_linear_3958_21818" x1="46.6435" y1="39.9498" x2="51.2899" y2="34.1259" gradientUnits="userSpaceOnUse">
<stop stop-color="white" stop-opacity="0"/>
<stop offset="1" stop-color="white"/>
</linearGradient>
<linearGradient id="paint8_linear_3958_21818" x1="40.1111" y1="33.358" x2="54.1994" y2="43.7009" gradientUnits="userSpaceOnUse">
<stop stop-color="#FC92CB"/>
<stop offset="1" stop-color="#D7257D"/>
</linearGradient>
<linearGradient id="paint9_linear_3958_21818" x1="41.384" y1="34.7714" x2="52.5088" y2="43.6546" gradientUnits="userSpaceOnUse">
<stop offset="0.125" stop-color="#9C6CFE"/>
<stop offset="1" stop-color="#7A41DC"/>
</linearGradient>
<linearGradient id="paint10_linear_3958_21818" x1="40.1111" y1="33.358" x2="54.1994" y2="43.7009" gradientUnits="userSpaceOnUse">
<stop stop-color="#FF7A41"/>
<stop offset="1" stop-color="#FF001A"/>
</linearGradient>
<linearGradient id="paint11_linear_3958_21818" x1="43.7502" y1="39.0042" x2="40.5049" y2="36.1741" gradientUnits="userSpaceOnUse">
<stop stop-color="white" stop-opacity="0"/>
<stop offset="1" stop-color="white"/>
</linearGradient>
<linearGradient id="paint12_linear_3958_21818" x1="33.7585" y1="39.9741" x2="27.8201" y2="51.0492" gradientUnits="userSpaceOnUse">
<stop stop-opacity="0"/>
<stop offset="0.859195"/>
</linearGradient>
<linearGradient id="paint13_linear_3958_21818" x1="34.5634" y1="42.4064" x2="38.0213" y2="36.9886" gradientUnits="userSpaceOnUse">
<stop stop-color="white" stop-opacity="0"/>
<stop offset="1" stop-color="white"/>
</linearGradient>
<linearGradient id="paint14_linear_3958_21818" x1="28.031" y1="37.1329" x2="39.8007" y2="47.9338" gradientUnits="userSpaceOnUse">
<stop stop-color="#FC92CB"/>
<stop offset="1" stop-color="#D7257D"/>
</linearGradient>
<linearGradient id="paint15_linear_3958_21818" x1="29.304" y1="38.2636" x2="38.43" y2="47.3726" gradientUnits="userSpaceOnUse">
<stop offset="0.125" stop-color="#9C6CFE"/>
<stop offset="1" stop-color="#7A41DC"/>
</linearGradient>
<linearGradient id="paint16_linear_3958_21818" x1="28.031" y1="37.1329" x2="39.8007" y2="47.9338" gradientUnits="userSpaceOnUse">
<stop stop-color="#FF7A41"/>
<stop offset="1" stop-color="#FF001A"/>
</linearGradient>
<linearGradient id="paint17_linear_3958_21818" x1="31.6702" y1="41.6499" x2="29.0592" y2="38.8038" gradientUnits="userSpaceOnUse">
<stop stop-color="white" stop-opacity="0"/>
<stop offset="1" stop-color="white"/>
</linearGradient>
<linearGradient id="paint18_linear_3958_21818" x1="37.0751" y1="18.824" x2="43.2296" y2="35.883" gradientUnits="userSpaceOnUse">
<stop stop-color="#FF7A41"/>
<stop offset="1" stop-color="#FF001A"/>
</linearGradient>
<linearGradient id="paint19_linear_3958_21818" x1="46.0444" y1="22.51" x2="44.8551" y2="18.5942" gradientUnits="userSpaceOnUse">
<stop stop-color="white" stop-opacity="0"/>
<stop offset="1" stop-color="white"/>
</linearGradient>
<linearGradient id="paint20_linear_3958_21818" x1="16.4106" y1="29.3782" x2="24.9492" y2="41.9153" gradientUnits="userSpaceOnUse">
<stop stop-color="#FF7A41"/>
<stop offset="1" stop-color="#FF001A"/>
</linearGradient>
<linearGradient id="paint21_linear_3958_21818" x1="29.5924" y1="28.447" x2="33.7145" y2="34.4995" gradientUnits="userSpaceOnUse">
<stop stop-color="#FC92CB"/>
<stop offset="1" stop-color="#D7257D"/>
</linearGradient>
<linearGradient id="paint22_linear_3958_21818" x1="30.3562" y1="28.8711" x2="33.4349" y2="33.7878" gradientUnits="userSpaceOnUse">
<stop offset="0.125" stop-color="#9C6CFE"/>
<stop offset="1" stop-color="#7A41DC"/>
</linearGradient>
<linearGradient id="paint23_linear_3958_21818" x1="29.5924" y1="28.447" x2="33.7145" y2="34.4995" gradientUnits="userSpaceOnUse">
<stop stop-color="#FF7A41"/>
<stop offset="1" stop-color="#FF001A"/>
</linearGradient>
<linearGradient id="paint24_linear_3958_21818" x1="33.0289" y1="29.5125" x2="31.4179" y2="34.3198" gradientUnits="userSpaceOnUse">
<stop stop-opacity="0"/>
<stop offset="0.859195"/>
</linearGradient>
<linearGradient id="paint25_linear_3958_21818" x1="33.5119" y1="30.4246" x2="34.4959" y2="27.9579" gradientUnits="userSpaceOnUse">
<stop stop-color="white" stop-opacity="0"/>
<stop offset="1" stop-color="white"/>
</linearGradient>
<linearGradient id="paint26_linear_3958_21818" x1="31.7759" y1="30.1409" x2="30.9278" y2="28.6617" gradientUnits="userSpaceOnUse">
<stop stop-color="white" stop-opacity="0"/>
<stop offset="1" stop-color="white"/>
</linearGradient>
<linearGradient id="paint27_linear_3958_21818" x1="41.6764" y1="24.4177" x2="45.7985" y2="30.4702" gradientUnits="userSpaceOnUse">
<stop stop-color="#FC92CB"/>
<stop offset="1" stop-color="#D7257D"/>
</linearGradient>
<linearGradient id="paint28_linear_3958_21818" x1="42.4402" y1="24.8418" x2="45.5189" y2="29.7585" gradientUnits="userSpaceOnUse">
<stop offset="0.125" stop-color="#9C6CFE"/>
<stop offset="1" stop-color="#7A41DC"/>
</linearGradient>
<linearGradient id="paint29_linear_3958_21818" x1="41.6764" y1="24.4177" x2="45.7985" y2="30.4702" gradientUnits="userSpaceOnUse">
<stop stop-color="#FF7A41"/>
<stop offset="1" stop-color="#FF001A"/>
</linearGradient>
<linearGradient id="paint30_linear_3958_21818" x1="45.1129" y1="25.4832" x2="43.5019" y2="30.2905" gradientUnits="userSpaceOnUse">
<stop stop-opacity="0"/>
<stop offset="0.859195"/>
</linearGradient>
<linearGradient id="paint31_linear_3958_21818" x1="45.5959" y1="26.3953" x2="46.5799" y2="23.9286" gradientUnits="userSpaceOnUse">
<stop stop-color="white" stop-opacity="0"/>
<stop offset="1" stop-color="white"/>
</linearGradient>
<linearGradient id="paint32_linear_3958_21818" x1="43.8599" y1="26.1116" x2="43.0118" y2="24.6324" gradientUnits="userSpaceOnUse">
<stop stop-color="white" stop-opacity="0"/>
<stop offset="1" stop-color="white"/>
</linearGradient>
<linearGradient id="paint33_linear_3958_21818" x1="53.7624" y1="18.3787" x2="57.8844" y2="24.4311" gradientUnits="userSpaceOnUse">
<stop stop-color="#FC92CB"/>
<stop offset="1" stop-color="#D7257D"/>
</linearGradient>
<linearGradient id="paint34_linear_3958_21818" x1="54.5261" y1="18.8027" x2="57.6048" y2="23.7194" gradientUnits="userSpaceOnUse">
<stop offset="0.125" stop-color="#9C6CFE"/>
<stop offset="1" stop-color="#7A41DC"/>
</linearGradient>
<linearGradient id="paint35_linear_3958_21818" x1="53.7624" y1="18.3787" x2="57.8844" y2="24.4311" gradientUnits="userSpaceOnUse">
<stop stop-color="#FF7A41"/>
<stop offset="1" stop-color="#FF001A"/>
</linearGradient>
<linearGradient id="paint36_linear_3958_21818" x1="57.1988" y1="19.4441" x2="55.5878" y2="24.2515" gradientUnits="userSpaceOnUse">
<stop stop-opacity="0"/>
<stop offset="0.859195"/>
</linearGradient>
<linearGradient id="paint37_linear_3958_21818" x1="57.6818" y1="20.3562" x2="58.6658" y2="17.8895" gradientUnits="userSpaceOnUse">
<stop stop-color="white" stop-opacity="0"/>
<stop offset="1" stop-color="white"/>
</linearGradient>
<linearGradient id="paint38_linear_3958_21818" x1="55.9458" y1="20.0726" x2="55.0977" y2="18.5933" gradientUnits="userSpaceOnUse">
<stop stop-color="white" stop-opacity="0"/>
<stop offset="1" stop-color="white"/>
</linearGradient>
<linearGradient id="paint39_linear_3958_21818" x1="15.6993" y1="54.0129" x2="32.0318" y2="45.2303" gradientUnits="userSpaceOnUse">
<stop stop-color="#7D38F0"/>
<stop offset="1" stop-color="#935CFC"/>
</linearGradient>
<linearGradient id="paint40_linear_3958_21818" x1="13.1776" y1="43.0661" x2="19.0696" y2="58.0081" gradientUnits="userSpaceOnUse">
<stop stop-color="#FF7A41"/>
<stop offset="1" stop-color="#FF001A"/>
</linearGradient>
</defs>
</svg>
