<svg width="60" height="60" viewBox="0 0 60 60" fill="none" xmlns="http://www.w3.org/2000/svg">
<path fill-rule="evenodd" clip-rule="evenodd" d="M20.8276 13.6196C23.8046 13.8576 26.9964 15.0951 30.1361 16.9955C30.3755 17.1404 30.5735 17.3447 30.7109 17.5885C30.8483 17.8323 30.9205 18.1074 30.9205 18.3873C30.9205 18.6671 30.8483 18.9423 30.7109 19.1861C30.5735 19.4299 30.3755 19.6341 30.1361 19.7791C27.5784 21.328 24.9408 23.4329 22.3989 25.9748C20.1359 28.2396 18.2179 30.5779 16.7312 32.8697C18.2179 35.1615 20.135 37.4998 22.3989 39.7646C24.6628 42.0294 27.002 43.9456 29.2938 45.4322C31.5856 43.9456 33.9238 42.0276 36.1877 39.7646C38.7306 37.2227 40.8364 34.5851 42.3844 32.0274C42.5293 31.788 42.7336 31.59 42.9774 31.4526C43.2212 31.3152 43.4963 31.243 43.7762 31.243C44.0561 31.243 44.3312 31.3152 44.575 31.4526C44.8188 31.59 45.0231 31.788 45.168 32.0274C47.0684 35.1671 48.3059 38.3588 48.5429 41.3349C48.7847 44.3565 47.9907 47.1922 45.803 49.3789C43.6154 51.5666 40.7797 52.3615 37.759 52.1198C35.0488 51.9032 32.1592 50.8581 29.2938 49.2376C26.4274 50.8581 23.5387 51.9032 20.8276 52.1198C17.8079 52.3615 14.9722 51.5666 12.7845 49.3789C10.5969 47.1913 9.80195 44.3556 10.0437 41.3349C10.2603 38.6247 11.3053 35.7361 12.9258 32.8697C11.3053 30.0043 10.2603 27.1147 10.0437 24.4045C9.80195 21.3829 10.5969 18.5472 12.7845 16.3605C14.9722 14.1728 17.8079 13.3788 20.8276 13.6196ZM14.9452 29.7133C16.403 27.666 18.1407 25.6317 20.0978 23.6737C22.0558 21.7166 24.0901 19.979 26.1364 18.5211C24.1273 17.5561 22.2436 16.9964 20.5692 16.8634C18.3099 16.6831 16.4746 17.2725 15.0856 18.6615C13.6957 20.0515 13.1071 21.8849 13.2875 24.1451C13.4205 25.8195 13.9802 27.7041 14.9452 29.7133ZM14.9452 36.0252C13.9802 38.0353 13.4205 39.9189 13.2875 41.5934C13.1071 43.8526 13.6957 45.687 15.0856 47.0769C16.4756 48.4669 18.309 49.0554 20.5692 48.875C22.2427 48.7411 24.1273 48.1824 26.1364 47.2173C24.0901 45.7595 22.0549 44.0218 20.0978 42.0647C18.1407 40.1077 16.403 38.0715 14.9452 36.0252ZM32.4502 47.2182C34.4603 48.1833 36.3439 48.743 38.0184 48.876C40.2776 49.0563 42.112 48.4669 43.5019 47.0779C44.8919 45.6879 45.4804 43.8545 45.3 41.5943C45.1662 39.9208 44.6074 38.0362 43.6423 36.0271C42.1845 38.0734 40.4468 40.1086 38.4888 42.0657C36.5317 44.0228 34.4975 45.7604 32.4502 47.2182Z" fill="#A87DFF"/>
<path d="M25.0181 28.5982C26.1514 27.4648 27.6885 26.8281 29.2913 26.8281C30.8941 26.8281 32.4312 27.4648 33.5645 28.5982C34.6979 29.7315 35.3346 31.2686 35.3346 32.8714C35.3346 34.4742 34.6979 36.0113 33.5645 37.1446C32.4312 38.2779 30.8941 38.9146 29.2913 38.9146C27.6885 38.9146 26.1514 38.2779 25.0181 37.1446C23.8847 36.0113 23.248 34.4742 23.248 32.8714C23.248 31.2686 23.8847 29.7315 25.0181 28.5982Z" fill="#2D26FF"/>
<path d="M25.0181 28.5982C26.1514 27.4648 27.6885 26.8281 29.2913 26.8281C30.8941 26.8281 32.4312 27.4648 33.5645 28.5982C34.6979 29.7315 35.3346 31.2686 35.3346 32.8714C35.3346 34.4742 34.6979 36.0113 33.5645 37.1446C32.4312 38.2779 30.8941 38.9146 29.2913 38.9146C27.6885 38.9146 26.1514 38.2779 25.0181 37.1446C23.8847 36.0113 23.248 34.4742 23.248 32.8714C23.248 31.2686 23.8847 29.7315 25.0181 28.5982Z" fill="url(#paint0_linear_1805_37041)" fill-opacity="0.5"/>
<path d="M14.0693 14.3125C14.7072 14.3125 15.3194 14.5656 15.7705 15.0166C16.2216 15.4677 16.4746 16.0799 16.4746 16.7178C16.4746 17.3557 16.2216 17.9678 15.7705 18.4189C15.3194 18.87 14.7073 19.123 14.0693 19.123C13.4314 19.123 12.8192 18.87 12.3682 18.4189C11.9171 17.9679 11.6641 17.3557 11.6641 16.7178C11.6641 16.0799 11.9171 15.4677 12.3682 15.0166C12.8192 14.5655 13.4314 14.3125 14.0693 14.3125Z" fill="#F9F9FA" stroke="#2D26FF"/>
<path d="M14.0693 46.8516C14.7072 46.8516 15.3194 47.1046 15.7705 47.5557C16.2216 48.0067 16.4746 48.6189 16.4746 49.2568C16.4746 49.8948 16.2216 50.5069 15.7705 50.958C15.3194 51.4091 14.7073 51.6621 14.0693 51.6621C13.4314 51.6621 12.8192 51.4091 12.3682 50.958C11.9171 50.5069 11.6641 49.8947 11.6641 49.2568C11.6641 48.6189 11.9171 48.0067 12.3682 47.5557C12.8192 47.1046 13.4314 46.8516 14.0693 46.8516Z" fill="#F9F9FA" stroke="#2D26FF"/>
<path d="M45.4463 45.6875C46.0842 45.6875 46.6964 45.9406 47.1475 46.3916C47.5985 46.8427 47.8515 47.4549 47.8516 48.0928C47.8516 48.7307 47.5986 49.3428 47.1475 49.7939C46.6964 50.245 46.0842 50.498 45.4463 50.498C44.8084 50.498 44.1962 50.245 43.7451 49.7939C43.2941 49.3429 43.041 48.7307 43.041 48.0928C43.0411 47.4549 43.294 46.8427 43.7451 46.3916C44.1962 45.9405 44.8084 45.6875 45.4463 45.6875Z" fill="#F9F9FA" stroke="#2D26FF"/>
<path d="M43.5372 10.1252C43.8185 10.4054 43.9766 10.7855 43.9766 11.1819V13.3295C48.1243 13.5029 51.4766 16.77 51.4766 21.0021C51.4766 22.0704 51.4046 23.3171 51.3257 24.3726C51.1731 26.4177 49.6431 28.1324 47.5337 28.3844C46.2146 28.5423 44.4617 28.6875 42.4766 28.6875C40.4906 28.6875 38.7377 28.5423 37.4194 28.3844C35.3091 28.1324 33.7791 26.4177 33.6266 24.3726C33.5477 23.3171 33.4766 22.0695 33.4766 21.0021C33.4766 16.77 36.828 13.5029 40.9766 13.3295V11.1819C40.9766 10.7855 41.1346 10.4054 41.4159 10.1252C41.6972 9.84494 42.0787 9.6875 42.4766 9.6875C42.8744 9.6875 43.2559 9.84494 43.5372 10.1252Z" fill="#315BFF"/>
<path d="M43.5372 10.1252C43.8185 10.4054 43.9766 10.7855 43.9766 11.1819V13.3295C48.1243 13.5029 51.4766 16.77 51.4766 21.0021C51.4766 22.0704 51.4046 23.3171 51.3257 24.3726C51.1731 26.4177 49.6431 28.1324 47.5337 28.3844C46.2146 28.5423 44.4617 28.6875 42.4766 28.6875C40.4906 28.6875 38.7377 28.5423 37.4194 28.3844C35.3091 28.1324 33.7791 26.4177 33.6266 24.3726C33.5477 23.3171 33.4766 22.0695 33.4766 21.0021C33.4766 16.77 36.828 13.5029 40.9766 13.3295V11.1819C40.9766 10.7855 41.1346 10.4054 41.4159 10.1252C41.6972 9.84494 42.0787 9.6875 42.4766 9.6875C42.8744 9.6875 43.2559 9.84494 43.5372 10.1252Z" fill="url(#paint1_linear_1805_37041)" fill-opacity="0.5"/>
<path d="M43.5372 10.1252C43.8185 10.4054 43.9766 10.7855 43.9766 11.1819V13.3295C48.1243 13.5029 51.4766 16.77 51.4766 21.0021C51.4766 22.0704 51.4046 23.3171 51.3257 24.3726C51.1731 26.4177 49.6431 28.1324 47.5337 28.3844C46.2146 28.5423 44.4617 28.6875 42.4766 28.6875C40.4906 28.6875 38.7377 28.5423 37.4194 28.3844C35.3091 28.1324 33.7791 26.4177 33.6266 24.3726C33.5477 23.3171 33.4766 22.0695 33.4766 21.0021C33.4766 16.77 36.828 13.5029 40.9766 13.3295V11.1819C40.9766 10.7855 41.1346 10.4054 41.4159 10.1252C41.6972 9.84494 42.0787 9.6875 42.4766 9.6875C42.8744 9.6875 43.2559 9.84494 43.5372 10.1252Z" fill="url(#paint2_linear_1805_37041)" fill-opacity="0.8" style="mix-blend-mode:screen"/>
<path d="M47.3624 19.6478C47.4378 19.8365 47.4766 20.0388 47.4766 20.2431V21.1319C47.4766 21.3362 47.4378 21.5385 47.3624 21.7272C47.287 21.916 47.1765 22.0874 47.0372 22.2319C46.8979 22.3763 46.7326 22.4909 46.5506 22.5691C46.3686 22.6473 46.1735 22.6875 45.9766 22.6875C45.7796 22.6875 45.5845 22.6473 45.4025 22.5691C45.2205 22.4909 45.0552 22.3763 44.9159 22.2319C44.7766 22.0874 44.6661 21.916 44.5907 21.7272C44.5154 21.5385 44.4766 21.3362 44.4766 21.1319V20.2431C44.4766 20.0388 44.5154 19.8365 44.5907 19.6478C44.6661 19.459 44.7766 19.2876 44.9159 19.1431C45.0552 18.9987 45.2205 18.8841 45.4025 18.8059C45.5845 18.7277 45.7796 18.6875 45.9766 18.6875C46.1735 18.6875 46.3686 18.7277 46.5506 18.8059C46.7326 18.8841 46.8979 18.9987 47.0372 19.1431C47.1765 19.2876 47.287 19.459 47.3624 19.6478Z" fill="#F9F9FA"/>
<path d="M40.3624 19.6478C40.4378 19.8365 40.4766 20.0388 40.4766 20.2431V21.1319C40.4766 21.3362 40.4378 21.5385 40.3624 21.7272C40.287 21.916 40.1765 22.0874 40.0372 22.2319C39.8979 22.3763 39.7326 22.4909 39.5506 22.5691C39.3686 22.6473 39.1735 22.6875 38.9766 22.6875C38.7796 22.6875 38.5845 22.6473 38.4025 22.5691C38.2205 22.4909 38.0552 22.3763 37.9159 22.2319C37.7766 22.0874 37.6661 21.916 37.5907 21.7272C37.5154 21.5385 37.4766 21.3362 37.4766 21.1319V20.2431C37.4766 20.0388 37.5154 19.8365 37.5907 19.6478C37.6661 19.459 37.7766 19.2876 37.9159 19.1431C38.0552 18.9987 38.2205 18.8841 38.4025 18.8059C38.5845 18.7277 38.7796 18.6875 38.9766 18.6875C39.1735 18.6875 39.3686 18.7277 39.5506 18.8059C39.7326 18.8841 39.8979 18.9987 40.0372 19.1431C40.1765 19.2876 40.287 19.459 40.3624 19.6478Z" fill="#F9F9FA"/>
<defs>
<linearGradient id="paint0_linear_1805_37041" x1="28.9713" y1="36.887" x2="32.866" y2="26.1015" gradientUnits="userSpaceOnUse">
<stop stop-color="white" stop-opacity="0"/>
<stop offset="1" stop-color="white"/>
</linearGradient>
<linearGradient id="paint1_linear_1805_37041" x1="42" y1="25.5" x2="48.3786" y2="8.76567" gradientUnits="userSpaceOnUse">
<stop stop-color="#00FFB5" stop-opacity="0"/>
<stop offset="1" stop-color="#00FFB5"/>
</linearGradient>
<linearGradient id="paint2_linear_1805_37041" x1="45.7196" y1="14.2295" x2="37.4595" y2="28.6905" gradientUnits="userSpaceOnUse">
<stop stop-color="#1500FF" stop-opacity="0"/>
<stop offset="1" stop-color="#1500FF"/>
</linearGradient>
</defs>
</svg>
