<svg width="74" height="74" viewBox="0 0 74 74" fill="none" xmlns="http://www.w3.org/2000/svg">
<path fill-rule="evenodd" clip-rule="evenodd" d="M49.7686 39.0684C50.4426 39.0649 51.1107 39.2155 51.7344 39.5108C52.358 39.8062 52.9246 40.2411 53.4023 40.7901C53.8801 41.3391 54.2599 41.9915 54.5186 42.71C54.7771 43.4284 54.9101 44.1987 54.9102 44.9766C54.9102 49.9719 52.7782 53.7385 49.4463 56.1934C46.1916 58.5876 41.8135 59.7271 37.1094 59.7452V59.7471C37.0902 59.7471 37.071 59.7462 37.0518 59.7462C37.033 59.7462 37.0139 59.7471 36.9951 59.7471V59.7452C32.2913 59.7269 27.9137 58.5875 24.6592 56.1934C21.3272 53.7385 19.1953 49.972 19.1953 44.9766C19.1953 44.1987 19.3284 43.4284 19.5869 42.71C19.8455 41.9916 20.2246 41.339 20.7021 40.7901C21.1799 40.2411 21.7474 39.8062 22.3711 39.5108C22.9947 39.2155 23.6628 39.0649 24.3369 39.0684H49.7686Z" fill="url(#paint0_radial_3958_124540)"/>
<path d="M37.1158 15.252C34.4008 15.252 31.797 16.3677 29.8772 18.3537C27.9574 20.3396 26.8789 23.0332 26.8789 25.8418C26.8789 28.6504 27.9574 31.344 29.8772 33.33C31.797 35.316 34.4008 36.4317 37.1158 36.4317C39.8308 36.4317 42.4346 35.316 44.3544 33.33C46.2741 31.344 47.3527 28.6504 47.3527 25.8418C47.3527 23.0332 46.2741 20.3396 44.3544 18.3537C42.4346 16.3677 39.8308 15.252 37.1158 15.252Z" fill="url(#paint1_radial_3958_124540)"/>
<path fill-rule="evenodd" clip-rule="evenodd" d="M24.6582 39.0684C23.0742 41.9192 23.7551 44.9875 26.1201 46.587C28.6851 48.3213 35.9578 47.3963 36.0098 47.3897L39.9658 53.8174L28.5654 58.295C27.1431 57.7524 25.8285 57.0546 24.6592 56.1944C21.3273 53.7394 19.1954 49.973 19.1953 44.9776C19.1953 44.1995 19.3283 43.4285 19.5869 42.71C19.8455 41.9917 20.2246 41.339 20.7021 40.7901C21.1799 40.2411 21.7475 39.8061 22.3711 39.5108C22.9947 39.2155 23.6629 39.0649 24.3369 39.0684H24.6582Z" fill="#1AC1D5"/>
<path d="M39.7027 42.0447C37.4881 41.2932 36.3193 45.3528 36.0117 47.3881L39.7027 53.7867C39.7027 53.7867 39.7027 54.2564 44.3164 51.4383C48.9301 48.6203 48.3149 44.3933 46.6232 42.9843C45.1469 41.8571 42.0095 43.7671 40.6254 44.863C41.3636 42.9845 40.3178 42.2014 39.7027 42.0447Z" fill="url(#paint2_linear_3958_124540)"/>
<path d="M48.6079 20.4977C48.6087 20.6746 48.6648 20.8469 48.7684 20.9903C48.8721 21.1337 49.0181 21.2411 49.1858 21.2973L50.6742 21.7881C51.1414 21.9444 51.5658 22.2075 51.9135 22.5566C52.2612 22.9057 52.5227 23.3311 52.6771 23.799L53.1917 25.2794C53.2508 25.4446 53.3584 25.588 53.5004 25.691C53.6081 25.7686 53.7325 25.8195 53.8637 25.8396C53.9948 25.8597 54.1288 25.8484 54.2547 25.8067C54.3807 25.765 54.4949 25.694 54.5881 25.5996C54.6813 25.5052 54.7508 25.39 54.7908 25.2635L55.2896 23.7752C55.4504 23.3059 55.722 22.8823 56.0812 22.5402C56.4286 22.1836 56.8541 21.9126 57.3242 21.7485L58.8125 21.2498C58.981 21.1967 59.1283 21.0914 59.2329 20.949C59.3355 20.8044 59.3906 20.6315 59.3906 20.4542C59.3906 20.2769 59.3355 20.104 59.2329 19.9594C59.1277 19.8128 58.9776 19.7044 58.8054 19.6506L57.3249 19.1519C56.8485 18.9916 56.417 18.7203 56.0662 18.3602C55.7099 18.0095 55.4384 17.5812 55.2745 17.1094L54.7837 15.6448C54.7373 15.4775 54.6371 15.33 54.4987 15.2252C54.3594 15.1134 54.1864 15.0521 54.0079 15.051C53.831 15.0468 53.657 15.0965 53.5091 15.1935C53.3587 15.2879 53.2444 15.4301 53.1845 15.5973L52.6858 17.1094C52.5219 17.5812 52.2504 18.0095 51.8941 18.3602C51.5456 18.7192 51.1169 18.9905 50.6433 19.1519L49.1629 19.6744C48.9962 19.7265 48.8515 19.8323 48.7512 19.9752C48.6483 20.1288 48.5968 20.3117 48.6079 20.4977ZM56.4217 25.984C56.422 26.1454 56.4718 26.3028 56.5642 26.4352C56.6598 26.5639 56.7923 26.6605 56.9442 26.7123L58.0129 27.0685C58.3123 27.1741 58.5833 27.3475 58.8046 27.5752C59.0301 27.7982 59.2032 28.0687 59.3112 28.3669L59.6833 29.4277C59.7351 29.5795 59.8317 29.712 59.9604 29.8077C60.0937 29.9014 60.2527 29.9517 60.4156 29.9517C60.5785 29.9517 60.7375 29.9014 60.8708 29.8077C60.9995 29.712 61.0962 29.5795 61.1479 29.4277L61.4962 28.3669C61.6045 28.0686 61.7779 27.7982 62.0037 27.5752C62.2267 27.3497 62.4972 27.1766 62.7954 27.0685L63.8641 26.7202C64.017 26.6663 64.1496 26.5669 64.2441 26.4352C64.3393 26.3038 64.3918 26.1462 64.3945 25.984C64.3917 25.8207 64.3384 25.6623 64.242 25.5305C64.1457 25.3987 64.0109 25.2999 63.8562 25.2477L62.7954 24.8994C62.4982 24.7892 62.2284 24.6161 62.0043 24.3921C61.7803 24.168 61.6072 23.8982 61.497 23.601L61.1408 22.556C61.0933 22.4062 61.0024 22.274 60.8795 22.176C60.7511 22.0782 60.5958 22.022 60.4345 22.0149C60.2732 22.0078 60.1135 22.0502 59.977 22.1365C59.8417 22.2299 59.7372 22.3621 59.6762 22.5165L59.3199 23.601C59.2098 23.8982 59.0367 24.168 58.8126 24.3921C58.5886 24.6161 58.3187 24.7892 58.0216 24.8994L56.9608 25.2715C56.8093 25.3197 56.6783 25.4173 56.5887 25.5485C56.4881 25.6721 56.429 25.8248 56.4217 25.984Z" fill="url(#paint3_linear_3958_124540)"/>
<defs>
<radialGradient id="paint0_radial_3958_124540" cx="0" cy="0" r="1" gradientTransform="matrix(-34.2348 30.1721 -30.173 -34.2337 62.4194 30.3377)" gradientUnits="userSpaceOnUse">
<stop stop-color="#2BDABE"/>
<stop offset="0.274676" stop-color="#16BBDA"/>
<stop offset="0.63155" stop-color="#119FC5"/>
<stop offset="1" stop-color="#0078D4"/>
</radialGradient>
<radialGradient id="paint1_radial_3958_124540" cx="0" cy="0" r="1" gradientTransform="matrix(15.6667 20.8889 -20.7758 14.7992 30.6075 16.0317)" gradientUnits="userSpaceOnUse">
<stop stop-color="#2BDABE"/>
<stop offset="0.386053" stop-color="#16BBDA"/>
<stop offset="0.613501" stop-color="#119FC5"/>
<stop offset="0.897079" stop-color="#0078D4"/>
</radialGradient>
<linearGradient id="paint2_linear_3958_124540" x1="46.7554" y1="44.843" x2="40.3726" y2="47.7443" gradientUnits="userSpaceOnUse">
<stop stop-color="#C0FAFD" stop-opacity="0.3"/>
<stop offset="1" stop-color="#9FD8EF"/>
</linearGradient>
<linearGradient id="paint3_linear_3958_124540" x1="56.5009" y1="15.0508" x2="56.5009" y2="29.9517" gradientUnits="userSpaceOnUse">
<stop stop-color="#CDDEE7"/>
<stop offset="1" stop-color="#9CDBFF"/>
</linearGradient>
</defs>
</svg>
