<svg width="16" height="16" viewBox="0 0 16 16" fill="none" xmlns="http://www.w3.org/2000/svg">
<path opacity="0.6" d="M12.3077 12.3078C11.7949 12.8207 11.2172 13.2036 10.5748 13.4566C9.93231 13.7096 9.27931 13.836 8.61579 13.836C7.95227 13.836 7.29928 13.7096 6.65682 13.4566C6.01436 13.2036 5.43644 12.8207 4.92308 12.3078L5.74359 11.4873C6.54359 12.2873 7.50099 12.6873 8.61579 12.6873C9.7306 12.6873 10.6877 12.2873 11.4872 11.4873C12.2866 10.6873 12.6868 9.73006 12.6876 8.61553C12.6884 7.501 12.2883 6.54374 11.4872 5.74374C10.6861 4.94374 9.72896 4.54374 8.61579 4.54374C7.50263 4.54374 6.54523 4.94374 5.74359 5.74374L5.68205 5.80528L6.95385 5.80528L6.97436 6.97451H3.69231V3.69246L4.86154 3.71297L4.86154 4.98477L4.92308 4.92323C5.4359 4.41041 6.01381 4.0275 6.65682 3.77451C7.29983 3.52152 7.95282 3.39502 8.61579 3.39502C9.27877 3.39502 9.93176 3.52152 10.5748 3.77451C11.2178 4.0275 11.7954 4.41041 12.3077 4.92323C12.82 5.43605 13.203 6.01383 13.4568 6.65656C13.7106 7.2993 13.8371 7.95229 13.8363 8.61553C13.8355 9.27878 13.709 9.93177 13.4568 10.5745C13.2046 11.2172 12.8216 11.795 12.3077 12.3078Z" fill="black"/>
<line opacity="0.6" x1="8.47855" y1="6.90629" x2="8.47855" y2="9.10013" stroke="black" stroke-width="0.707107" stroke-linecap="round"/>
<line opacity="0.6" x1="10.5467" y1="9.90225" x2="8.85835" y2="9.0581" stroke="black" stroke-width="0.707107" stroke-linecap="round"/>
</svg>
