<svg width="13" height="13" viewBox="0 0 13 13" fill="none" xmlns="http://www.w3.org/2000/svg">
<path fill-rule="evenodd" clip-rule="evenodd" d="M7.7896 0.3523C7.84615 0.46215 7.86045 0.6032 7.8884 0.8853C7.9417 1.4183 7.96835 1.6848 8.08015 1.8317C8.14981 1.92291 8.24237 1.99405 8.34843 2.03789C8.45449 2.08173 8.57027 2.09671 8.684 2.0813C8.866 2.05725 9.074 1.8876 9.4887 1.5483C9.70775 1.36825 9.8176 1.27855 9.93525 1.24085C10.0851 1.19297 10.2472 1.20105 10.3915 1.2636C10.5053 1.313 10.6061 1.4131 10.8056 1.6133L11.3867 2.1944C11.5869 2.3946 11.687 2.4947 11.7364 2.60845C11.7989 2.75279 11.807 2.91491 11.7591 3.06475C11.7214 3.1824 11.6318 3.29225 11.4523 3.5113C11.1124 3.92665 10.9427 4.134 10.918 4.31665C10.9028 4.43033 10.918 4.54602 10.9619 4.65196C11.0059 4.7579 11.0771 4.85033 11.1683 4.91985C11.3145 5.03165 11.5817 5.0583 12.1153 5.1116C12.3968 5.13955 12.5378 5.15385 12.6483 5.2104C12.7877 5.28268 12.8963 5.40297 12.9538 5.54905C13 5.6641 13 5.8058 13 6.0892V6.9108C13 7.1942 13 7.3359 12.9545 7.4503C12.8967 7.59684 12.7877 7.71741 12.6477 7.7896C12.5378 7.84615 12.3968 7.86045 12.1147 7.8884C11.5817 7.9417 11.3152 7.96835 11.1683 8.08015C11.0771 8.14981 11.0059 8.24237 10.9621 8.34843C10.9183 8.45449 10.9033 8.57027 10.9187 8.684C10.9434 8.866 11.113 9.074 11.4523 9.4887C11.6318 9.70775 11.7214 9.81695 11.7591 9.93525C11.807 10.0851 11.7989 10.2472 11.7364 10.3915C11.687 10.5053 11.5869 10.6054 11.3867 10.8056L10.8056 11.386C10.6054 11.5869 10.5053 11.687 10.3915 11.7358C10.2472 11.7983 10.0851 11.8064 9.93525 11.7585C9.8176 11.7208 9.70775 11.6311 9.4887 11.4517C9.07335 11.1124 8.866 10.9427 8.684 10.9187C8.57027 10.9033 8.45449 10.9183 8.34843 10.9621C8.24237 11.0059 8.14981 11.0771 8.08015 11.1683C7.96835 11.3145 7.9417 11.581 7.8884 12.1147C7.86045 12.3968 7.84615 12.5378 7.7896 12.6477C7.71757 12.7876 7.59725 12.8966 7.45095 12.9545C7.3359 13 7.1942 13 6.9108 13H6.0892C5.8058 13 5.6641 13 5.5497 12.9545C5.40316 12.8967 5.28259 12.7877 5.2104 12.6477C5.15385 12.5378 5.13955 12.3968 5.1116 12.1147C5.0583 11.5817 5.03165 11.3152 4.91985 11.1683C4.85025 11.0772 4.75779 11.0061 4.65186 10.9623C4.54592 10.9184 4.43027 10.9034 4.31665 10.9187C4.134 10.9427 3.92665 11.1124 3.5113 11.4517C3.29225 11.6317 3.1824 11.7214 3.06475 11.7591C2.91491 11.807 2.75279 11.7989 2.60845 11.7364C2.4947 11.687 2.39395 11.5869 2.1944 11.3867L1.6133 10.8056C1.4131 10.6054 1.313 10.5053 1.2636 10.3915C1.20105 10.2472 1.19297 10.0851 1.24085 9.93525C1.27855 9.8176 1.36825 9.70775 1.54765 9.4887C1.8876 9.07335 2.05725 8.866 2.0813 8.68335C2.09659 8.56973 2.08155 8.45408 2.03772 8.34814C1.99388 8.24221 1.9228 8.14975 1.8317 8.08015C1.68545 7.96835 1.4183 7.9417 0.88465 7.8884C0.6032 7.86045 0.46215 7.84615 0.35165 7.7896C0.212256 7.71732 0.103737 7.59703 0.0461501 7.45095C6.33299e-08 7.3359 0 7.1942 0 6.9108V6.0892C0 5.8058 -4.47035e-08 5.6641 0.0455 5.5497C0.103277 5.40316 0.2123 5.28259 0.3523 5.2104C0.46215 5.15385 0.6032 5.13955 0.8853 5.1116C1.4183 5.0583 1.68545 5.03165 1.8317 4.91985C1.92292 4.85033 1.99412 4.7579 2.03808 4.65196C2.08203 4.54602 2.09717 4.43033 2.08195 4.31665C2.05725 4.134 1.88695 3.92665 1.54765 3.51065C1.36825 3.2916 1.27855 3.1824 1.24085 3.0641C1.19297 2.91426 1.20105 2.75214 1.2636 2.6078C1.313 2.4947 1.4131 2.39395 1.6133 2.19375L2.1944 1.6133C2.3946 1.4131 2.4947 1.31235 2.60845 1.2636C2.75279 1.20105 2.91491 1.19297 3.06475 1.24085C3.1824 1.27855 3.29225 1.36825 3.5113 1.54765C3.92665 1.88695 4.134 2.0566 4.316 2.0813C4.42989 2.09676 4.54584 2.08174 4.65203 2.03778C4.75822 1.99381 4.85086 1.92248 4.9205 1.83105C5.031 1.6848 5.0583 1.4183 5.1116 0.88465C5.13955 0.6032 5.15385 0.46215 5.2104 0.35165C5.28255 0.212011 5.40286 0.103248 5.54905 0.0455C5.6641 -4.47035e-08 5.8058 0 6.0892 0H6.9108C7.1942 0 7.3359 -4.47035e-08 7.4503 0.0455C7.59684 0.103277 7.71741 0.2123 7.7896 0.3523ZM6.5 9.1C7.18956 9.1 7.85088 8.82607 8.33848 8.33848C8.82607 7.85088 9.1 7.18956 9.1 6.5C9.1 5.81044 8.82607 5.14912 8.33848 4.66152C7.85088 4.17393 7.18956 3.9 6.5 3.9C5.81044 3.9 5.14912 4.17393 4.66152 4.66152C4.17393 5.14912 3.9 5.81044 3.9 6.5C3.9 7.18956 4.17393 7.85088 4.66152 8.33848C5.14912 8.82607 5.81044 9.1 6.5 9.1Z" fill="#E79946"/>
</svg>
