<svg width="21" height="20" viewBox="0 0 21 20" fill="none" xmlns="http://www.w3.org/2000/svg">
<g filter="url(#filter0_f_3513_49356)">
<path d="M12.7865 4.88418C7.82375 4.00752 5.78026 5.17622 4.61255 9.60103V10.4762C5.61379 14.2129 6.07219 14.8552 10.743 14.8551C16.5816 14.8551 16.095 11.3523 16.2897 9.60095C16.2897 9.21172 15.4087 5.34739 12.7865 4.88418Z" fill="#FFC30F"/>
</g>
<path d="M12.7865 4.88418C7.82375 4.00752 5.78026 5.17622 4.61255 9.60103V10.4762C5.61379 14.2129 6.07219 14.8552 10.743 14.8551C16.5816 14.8551 16.095 11.3523 16.2897 9.60095C16.2897 9.21172 15.4087 5.34739 12.7865 4.88418Z" fill="#FFC30F"/>
<path d="M5.44626 13.3711C4.89864 12.4743 4.60992 11.4435 4.61207 10.3927C4.61207 7.20049 7.22629 4.61328 10.4506 4.61328C13.675 4.61328 16.2892 7.20049 16.2892 10.3927C16.2913 11.4435 16.0026 12.4743 15.455 13.3711" stroke="black" stroke-width="0.875783" stroke-linecap="round"/>
<path d="M12.6405 17.0195L12.5456 17.4917C12.4434 18.0077 12.3916 18.2653 12.2756 18.4697C12.0968 18.7846 11.8073 19.0219 11.4633 19.1353C11.2407 19.209 10.9765 19.209 10.451 19.209C9.92557 19.209 9.66138 19.209 9.43878 19.136C9.0947 19.0224 8.80517 18.7849 8.62649 18.4697C8.51045 18.2653 8.45864 18.0077 8.35646 17.4917L8.26158 17.0195M7.08147 15.6314C7.01432 15.43 6.98075 15.3285 6.9844 15.2468C6.98853 15.1623 7.01706 15.0808 7.06653 15.0121C7.11601 14.9435 7.18432 14.8906 7.26319 14.86C7.33909 14.8301 7.44565 14.8301 7.65729 14.8301H13.2448C13.4572 14.8301 13.563 14.8301 13.6389 14.8593C13.7179 14.89 13.7863 14.9429 13.8357 15.0117C13.8852 15.0805 13.9137 15.1622 13.9177 15.2468C13.9213 15.3285 13.8878 15.4293 13.8206 15.6314C13.6966 16.0044 13.6345 16.1912 13.5389 16.3423C13.3389 16.658 13.0255 16.885 12.6631 16.9765C12.4894 17.0195 12.2938 17.0195 11.9019 17.0195H9.00016C8.60825 17.0195 8.41193 17.0195 8.23896 16.9757C7.87672 16.8844 7.56328 16.6577 7.36318 16.3423C7.26757 16.1912 7.20553 16.0044 7.08147 15.6314Z" stroke="black" stroke-width="0.875783"/>
<path d="M10.4507 14.8307V11.1816" stroke="black" stroke-width="0.875783" stroke-linecap="round" stroke-linejoin="round"/>
<g filter="url(#filter1_f_3513_49356)">
<path d="M6.40988 9.50898C5.93561 7.49061 8.26706 6.02033 9.49314 6.0344C10.7192 6.04848 10.7659 7.2575 10.3017 7.36247C8.6064 7.38806 7.95681 8.44258 7.65873 9.71364C7.2624 10.1202 6.6138 10.3768 6.40988 9.50898Z" fill="white"/>
</g>
<path opacity="0.6" d="M10.4509 2.65234C14.6427 2.65234 18.0416 6.05041 18.0417 10.2422C18.0417 10.9959 17.9299 11.7238 17.7253 12.4111H17.158C17.3787 11.7278 17.4988 10.999 17.4988 10.2422C17.4986 6.34983 14.3433 3.19434 10.4509 3.19434C6.55866 3.19449 3.40323 6.34992 3.40308 10.2422C3.40308 10.999 3.52406 11.7278 3.74487 12.4111H3.17651C2.97194 11.7239 2.86108 10.9959 2.86108 10.2422C2.86123 6.0505 6.25924 2.65249 10.4509 2.65234Z" fill="#FFC30F"/>
<defs>
<filter id="filter0_f_3513_49356" x="8.91685e-05" y="0.00082159" width="20.9019" height="19.4671" filterUnits="userSpaceOnUse" color-interpolation-filters="sRGB">
<feFlood flood-opacity="0" result="BackgroundImageFix"/>
<feBlend mode="normal" in="SourceGraphic" in2="BackgroundImageFix" result="shape"/>
<feGaussianBlur stdDeviation="2.30623" result="effect1_foregroundBlur_3513_49356"/>
</filter>
<filter id="filter1_f_3513_49356" x="6.2304" y="5.91839" width="4.45962" height="4.28823" filterUnits="userSpaceOnUse" color-interpolation-filters="sRGB">
<feFlood flood-opacity="0" result="BackgroundImageFix"/>
<feBlend mode="normal" in="SourceGraphic" in2="BackgroundImageFix" result="shape"/>
<feGaussianBlur stdDeviation="0.0583856" result="effect1_foregroundBlur_3513_49356"/>
</filter>
</defs>
</svg>
