<svg width="19" height="19" viewBox="0 0 19 19" fill="none" xmlns="http://www.w3.org/2000/svg">
<path d="M13.6411 7.5513C13.6411 4.18802 10.9146 1.46154 7.5513 1.46154C4.18802 1.46154 1.46154 4.18802 1.46154 7.5513C1.46154 10.9146 4.18802 13.6411 7.5513 13.6411C10.9146 13.6411 13.6411 10.9146 13.6411 7.5513ZM15.1026 7.5513C15.1026 9.37338 14.4568 11.0444 13.3823 12.3489L18.786 17.7526C19.0713 18.038 19.0713 18.5006 18.786 18.786C18.5006 19.0713 18.038 19.0713 17.7526 18.786L12.3489 13.3823C11.0444 14.4568 9.37338 15.1026 7.5513 15.1026C3.38083 15.1026 0 11.7218 0 7.5513C0 3.38083 3.38083 0 7.5513 0C11.7218 0 15.1026 3.38083 15.1026 7.5513Z" fill="white"/>
</svg>
