<svg width="60" height="60" viewBox="0 0 60 60" fill="none" xmlns="http://www.w3.org/2000/svg">
<path d="M34.2195 10.6094C44.0403 10.6094 52.0016 19.541 52.0016 29.9963C52.0016 40.4517 44.0403 49.3833 34.2195 49.3833H26.5985C16.7777 49.3833 8.81641 40.7035 8.81641 29.9963C8.81641 19.2892 16.7777 10.6094 26.5985 10.6094L34.2195 10.6094Z" fill="#FFB200"/>
<path d="M34.2195 10.6094C44.0403 10.6094 52.0016 19.541 52.0016 29.9963C52.0016 40.4517 44.0403 49.3833 34.2195 49.3833H26.5985C16.7777 49.3833 8.81641 40.7035 8.81641 29.9963C8.81641 19.2892 16.7777 10.6094 26.5985 10.6094L34.2195 10.6094Z" fill="url(#paint0_linear_1805_3336)" fill-opacity="0.1"/>
<ellipse cx="27.5556" cy="30.0033" rx="19.5556" ry="20.2299" fill="#FFB300"/>
<ellipse cx="27.5556" cy="30.0033" rx="19.5556" ry="20.2299" fill="url(#paint1_linear_1805_3336)" fill-opacity="0.3"/>
<path d="M27.5557 11.7734C37.1878 11.7735 45.1111 19.8706 45.1113 30.0029C45.1113 40.1354 37.1879 48.2333 27.5557 48.2334C17.9234 48.2334 10 40.1355 10 30.0029C10.0002 19.8706 17.9235 11.7734 27.5557 11.7734Z" stroke="white" stroke-opacity="0.5" stroke-width="4"/>
<g clip-path="url(#clip0_1805_3336)">
<path d="M21.2932 24.7521C21.1239 24.2543 20.5735 23.9876 20.0686 24.1505C19.5636 24.3135 19.2885 24.8558 19.4548 25.3507L20.9666 29.7928H20.374C19.8388 29.7928 19.4064 30.2165 19.4064 30.7411C19.4064 31.2656 19.8388 31.6893 20.374 31.6893H21.6107L23.3251 36.73C23.4612 37.1301 23.8513 37.3938 24.2806 37.379C24.71 37.3642 25.0789 37.0708 25.1817 36.6619L26.4517 31.6893H27.8426L29.1125 36.6619C29.2153 37.0708 29.5842 37.3642 30.0136 37.379C30.443 37.3938 30.833 37.1301 30.9691 36.73L32.6836 31.6893H33.9203C34.4555 31.6893 34.8879 31.2656 34.8879 30.7411C34.8879 30.2165 34.4555 29.7928 33.9203 29.7928H33.3276L34.8395 25.3507C35.0088 24.8529 34.7336 24.3165 34.2287 24.1505C33.7237 23.9846 33.1734 24.2543 33.0041 24.7491L31.2866 29.7928H29.3514L28.0845 24.8203C27.9786 24.3995 27.5916 24.1031 27.1471 24.1031C26.7026 24.1031 26.3156 24.3995 26.2098 24.8203L24.9398 29.7928H23.0046L21.2932 24.7521ZM23.6517 31.6893H24.456L24.1113 33.0406L23.6517 31.6893ZM26.9355 29.7928L27.1471 28.9601L27.3588 29.7928H26.9355ZM29.8382 31.6893H30.6425L30.1829 33.0406L29.8382 31.6893Z" fill="url(#paint2_linear_1805_3336)"/>
</g>
<defs>
<linearGradient id="paint0_linear_1805_3336" x1="24.1402" y1="26.0666" x2="40.81" y2="54.0646" gradientUnits="userSpaceOnUse">
<stop stop-opacity="0"/>
<stop offset="1"/>
</linearGradient>
<linearGradient id="paint1_linear_1805_3336" x1="21.8781" y1="25.9027" x2="40.3375" y2="52.8116" gradientUnits="userSpaceOnUse">
<stop stop-color="white" stop-opacity="0"/>
<stop offset="1" stop-color="white"/>
</linearGradient>
<linearGradient id="paint2_linear_1805_3336" x1="27.1479" y1="24.1016" x2="27.1479" y2="37.3796" gradientUnits="userSpaceOnUse">
<stop stop-color="white"/>
<stop offset="1" stop-color="white" stop-opacity="0.8"/>
</linearGradient>
<clipPath id="clip0_1805_3336">
<rect width="15.4815" height="15.1724" fill="white" transform="translate(19.4062 24.1016)"/>
</clipPath>
</defs>
</svg>
