<svg width="67" height="64" viewBox="0 0 67 64" fill="none" xmlns="http://www.w3.org/2000/svg">
<g style="mix-blend-mode:hard-light">
<path d="M11.4043 34.2518C12.6299 32.7145 14.4949 31.7052 16.4572 31.5166C17.5191 32.5994 17.8833 34.5133 17.2722 37.5885C14.9648 37.3875 12.7631 36.1345 11.405 34.2518L11.4043 34.2518Z" fill="#AA6144"/>
<path d="M15.9262 31.4559C15.9661 31.1047 16.3095 30.8793 16.6292 30.7314C17.6382 30.2656 18.7727 30.0732 19.8829 30.1795C22.1824 31.3375 23.1546 34.0187 22.5204 38.5448C20.703 39.6543 18.1951 39.5038 16.5069 38.1843C16.1886 37.9356 15.8853 37.628 15.7896 37.2357C15.6672 36.7343 15.9088 36.2296 16.0776 35.7441C16.4929 34.5515 16.4829 33.2124 16.0489 32.0209C15.9824 31.8376 15.905 31.6486 15.9262 31.4559Z" fill="#AA6144"/>
<path d="M16.406 31.8891C16.7032 32.7363 16.8164 33.6238 16.7332 34.5157C16.6928 34.9479 16.5989 35.3693 16.4648 35.7811C16.3119 36.2508 16.0746 36.697 16.168 37.2044C16.2546 37.671 15.52 37.7344 15.4345 37.2707C15.2751 36.4103 15.8228 35.5926 15.9585 34.7611C16.1015 33.883 16.0121 32.9889 15.717 32.1481C15.5597 31.6998 16.2479 31.4408 16.4052 31.8891L16.406 31.8891Z" fill="black"/>
<path d="M49.7223 21.9292C49.6872 20.0744 50.0351 18.2501 50.7587 16.5458C50.9436 16.1103 51.613 16.4229 51.4274 16.8592C50.7561 18.4389 50.4223 20.142 50.4549 21.8631C50.4642 22.3336 49.7306 22.4042 49.7216 21.9293L49.7223 21.9292Z" fill="black"/>
<path d="M50.6433 32.4094C49.2142 34.3633 49.4132 37.0216 48.6319 39.3042C47.7982 41.7401 45.7561 43.7403 43.2774 44.5489C40.9998 45.2914 38.5269 45.0539 36.1312 45.2181C34.0152 45.3637 31.9323 45.8285 29.816 45.9631C27.2343 46.1278 24.6478 45.8008 22.0806 45.4743C19.9478 45.2033 17.8158 44.9321 15.6831 44.6603C15.369 44.6206 14.9787 44.511 14.9356 44.2023C14.8924 43.8937 15.2372 43.6867 15.5276 43.566C19.2165 42.0358 22.9055 40.5063 26.5944 38.9761L37.3411 32.1105C38.9644 31.9879 40.2353 30.6571 40.9817 29.2355C41.7281 27.8131 42.1246 26.2242 42.9552 24.8482C44.015 23.0924 45.8192 21.7476 47.8652 21.3977C49.9113 21.0477 52.1601 21.7702 53.4749 23.3585C54.7905 24.9468 55.0252 27.3713 53.8923 29.082C53.0366 30.3746 51.56 31.1586 50.6441 32.4101L50.6433 32.4094Z" fill="#EECEB5"/>
<path d="M19.3795 29.9009C19.5173 28.8803 22.554 26.4911 26.0966 27.1882C28.6699 29.9085 29.4091 35.5049 26.7245 41.0726C24.3161 42.4835 20.3783 40.4846 20.4716 39.1041C20.5093 38.5467 22.2164 35.1234 19.8198 31.1342C19.5898 30.7518 19.3193 30.3413 19.3794 29.9002L19.3795 29.9009Z" fill="#AA6144"/>
<path d="M19.8922 32.0218C19.6326 31.4871 19.2421 31.0005 19.0706 30.4283C18.935 29.9749 19.6226 29.7137 19.7591 30.1692C19.9295 30.7371 20.3221 31.2309 20.5807 31.7627C20.8244 32.2626 21.0215 32.7859 21.1665 33.322C21.4088 34.221 21.505 35.1398 21.4606 36.0676C21.4274 36.7657 21.3111 37.455 21.1319 38.1285C21.0406 38.4706 20.8769 38.8289 20.8438 39.1835C20.7997 39.6546 20.0734 39.5225 20.1175 39.0522C20.1489 38.7177 20.3021 38.3804 20.3894 38.0579C20.5607 37.4251 20.6803 36.7784 20.7244 36.1238C20.7836 35.2353 20.6903 34.3229 20.446 33.4641C20.3048 32.9676 20.1183 32.4848 19.8929 32.021L19.8922 32.0218Z" fill="black"/>
<path d="M41.4829 32.2982C42.4718 42.493 28.8729 44.7015 26.3516 40.7456C25.7057 39.7316 26.3106 38.4142 26.6687 37.2736C27.7178 33.9278 27.1479 30.1038 25.1658 27.1893C30.0515 21.3862 40.8134 25.3849 41.4837 32.2981L41.4829 32.2982Z" fill="#AA6144"/>
<path d="M25.4793 26.969C26.7985 28.9322 27.5308 31.2645 27.5669 33.6235C27.585 34.8004 27.4442 35.9799 27.1165 37.1095C26.8215 38.1252 26.0526 39.508 26.6632 40.541C26.9038 40.9479 26.3072 41.3779 26.0656 40.9689C25.4453 39.919 25.7962 38.7768 26.1555 37.7057C26.5387 36.5607 26.797 35.3943 26.8315 34.1801C26.8995 31.7872 26.2224 29.3906 24.8825 27.3967C24.6171 27.0017 25.2146 26.5739 25.48 26.9689L25.4793 26.969Z" fill="black"/>
<path d="M46.3708 23.0855C45.6639 21.1321 45.3951 19.0681 45.5622 17.0039C45.6003 16.5326 46.3267 16.6654 46.2885 17.1352C46.1319 19.0637 46.3992 21.0035 47.0593 22.8264C47.221 23.2737 46.5324 23.5329 46.3708 23.0855Z" fill="black"/>
<path d="M47.4941 26.6044C47.0168 25.9068 47.372 24.9349 48.0408 24.6494C49.0998 24.1964 50.1305 25.0275 49.9757 26.1152C49.8199 27.2067 48.1824 27.6103 47.4941 26.6044Z" fill="black"/>
<path d="M48.691 25.6901C48.5532 25.489 48.6562 25.2092 48.8485 25.1262C49.1537 24.9953 49.4512 25.2353 49.4063 25.549C49.3613 25.8634 48.8891 25.9798 48.691 25.6901Z" fill="white"/>
<path d="M51.8 25.7973C51.3701 25.1687 51.6904 24.2937 52.293 24.0356C53.247 23.6276 54.1757 24.3762 54.0357 25.3561C53.8952 26.339 52.4201 26.703 51.8 25.7973Z" fill="black"/>
<path d="M52.8713 24.9709C52.7473 24.7899 52.8396 24.5377 53.0135 24.463C53.2889 24.3451 53.5561 24.5613 53.5162 24.8435C53.4757 25.1272 53.0504 25.2319 52.872 24.9708L52.8713 24.9709Z" fill="white"/>
<path d="M52.8012 28.2039C53.1179 28.5506 52.6453 29.1121 52.3252 28.7613C51.9647 28.3663 51.3963 28.3787 51.1506 28.8834C50.9441 29.3076 50.2798 28.9863 50.4876 28.5605C50.9202 27.6714 52.1117 27.4484 52.8011 28.2032L52.8012 28.2039Z" fill="black"/>
<path d="M34.2586 40.7345C32.4488 40.0543 30.5476 39.6666 28.6201 39.565C28.1496 39.5402 28.2782 38.8166 28.7466 38.8415C30.74 38.9461 32.696 39.3658 34.5672 40.0693C35.0108 40.2361 34.7016 40.9014 34.2586 40.7345Z" fill="black"/>
<path d="M28.5841 36.0281C28.1171 35.9523 28.2421 35.2289 28.7107 35.3053C31.9975 35.8383 35.3705 35.6971 38.5898 34.8739C39.0435 34.7576 39.3099 35.4449 38.8525 35.5615C35.5013 36.418 32.0081 36.5834 28.5841 36.0281Z" fill="black"/>
<path d="M30.0553 32.2145C29.5888 32.1991 29.5122 31.4671 29.9846 31.4828C32.6762 31.5724 35.3391 31.0742 37.8057 30.0114C38.2401 29.8245 38.5008 30.5132 38.0685 30.6992C35.5487 31.7846 32.8047 32.3063 30.0553 32.2145Z" fill="black"/>
<path d="M28.1867 29.1159C27.7157 29.1311 27.6421 28.3994 28.116 28.384C30.0823 28.3202 31.9841 27.8177 33.7235 26.9098C34.1417 26.6919 34.3996 27.3826 33.9863 27.5978C32.1957 28.5325 30.2105 29.0499 28.1867 29.1159Z" fill="black"/>
<path d="M21.8891 30.9033C21.4214 30.8923 21.3454 30.16 21.8183 30.1712C22.6722 30.1909 23.5096 30.0164 24.2634 29.6124C24.6748 29.3921 25.109 29.9888 24.6942 30.2108C23.8237 30.6771 22.8828 30.9259 21.8891 30.9033Z" fill="black"/>
<path d="M24.2564 39.3124L22.512 39.2326C22.041 39.2109 22.1704 38.4879 22.6384 38.5092C23.2199 38.5358 23.8014 38.5624 24.3828 38.589C24.8538 38.6108 24.7244 39.3337 24.2564 39.3124Z" fill="black"/>
<path d="M22.4092 34.8711C21.9385 34.8213 22.0657 34.0979 22.5357 34.1478C23.3629 34.2349 24.1623 34.0727 24.9019 33.7046C25.3246 33.4944 25.5832 34.1844 25.1648 34.3928C24.3062 34.8203 23.364 34.9718 22.4092 34.8711Z" fill="black"/>
<path d="M17.4255 33.0416C16.9572 32.9723 17.0829 32.2482 17.5519 32.3181C17.9138 32.3719 18.2644 32.3403 18.6097 32.2227C19.0565 32.0709 19.3203 32.7592 18.8727 32.9111C18.4023 33.071 17.9191 33.1145 17.4255 33.0416Z" fill="black"/>
<path d="M18.9163 37.0933C18.4336 37.0052 17.9517 36.9172 17.4689 36.8284C17.0035 36.7433 17.1276 36.0191 17.5953 36.1048C18.078 36.1928 18.56 36.2809 19.0427 36.3696C19.5081 36.4547 19.384 37.1789 18.9163 37.0933Z" fill="black"/>
</g>
<path d="M43.8415 19.9279C42.4989 20.9745 40.1193 23.6526 42.1754 24.0762C44.1915 24.4915 44.0734 21.6468 43.8415 19.9279Z" fill="#B2E9F1"/>
<path d="M45.1384 23.7169C43.7958 24.7635 41.4162 27.4417 43.4723 27.8652C45.4884 28.2805 45.3703 25.4359 45.1384 23.7169Z" fill="#B2E9F1"/>
</svg>
