<svg preserveAspectRatio="none" width="100%" height="100%" overflow="visible" style="display: block;" viewBox="0 0 504 408" fill="none" xmlns="http://www.w3.org/2000/svg">
<g id="Leading Through Communication 1">
<path id="Vector" d="M474.617 216.757C476.844 190.915 471.311 150.197 404.573 140.55C337.835 130.902 264.124 133.464 219.992 101.088C175.86 68.7116 24.3528 36.6023 16.4671 174.984C8.58144 313.365 101.298 323.263 237.202 302.957C373.107 282.651 463.018 351.367 474.617 216.757Z" fill="url(#paint0_linear_4228_9581)" fill-opacity="0.05"/>
<path id="Vector_2" d="M336.019 200.002C336.06 200.648 335.674 200.838 335.649 203.251C335.626 205.52 336.011 211.905 336.015 211.986C336.608 222.677 336.452 222.242 337.196 222.775C337.378 222.905 337.646 222.837 337.798 222.697C338.413 222.13 338.268 221.83 337.958 217.47C337.647 213.122 337.103 204.309 336.604 201.91C336.489 201.355 336.077 200.498 336.045 200.001C336.045 199.984 336.018 199.984 336.019 200.001V200.002Z" fill="var(--fill-0, #010101)"/>
<path id="Vector_3" d="M337.095 221.719C335.75 221.835 333.916 223.921 334.063 226.106C334.34 230.22 339.852 231.595 342.399 228.166C344.238 225.691 343.311 222.201 340.176 221.308C337.533 220.556 336.547 222.01 337.399 222.655C337.882 223.019 338.58 222.69 339.411 222.858C340.809 223.141 341.574 224.109 341.638 225.139C341.793 227.64 339.011 229.389 336.738 227.821C335.644 227.066 335.358 225.666 335.969 224.486C336.524 223.415 337.132 223.304 337.546 222.817C337.871 222.436 337.695 221.667 337.092 221.719H337.095Z" fill="var(--fill-0, #010101)"/>
<g id="Group">
<path id="Vector_4" d="M236.637 34.3089C238.719 92.7913 240.802 151.274 242.884 209.757C301.081 208.369 359.276 206.979 417.473 205.59C414.818 147.66 412.163 89.7309 409.508 31.8008C351.885 32.6373 294.261 33.4738 236.638 34.3089H236.637Z" fill="url(#paint1_linear_4228_9581)"/>
<g id="Group 1171287203">
<path id="Vector_5" d="M264 143.831C280.657 127.389 297.315 110.946 313.972 94.5038C318.29 102.988 322.609 111.473 326.927 119.958C340.001 105.157 353.074 90.3565 366.147 75.5574C362.337 72.8533 358.527 70.1491 354.718 67.445C366.74 66.4761 378.546 62.8869 389.073 57C389.418 71.0876 389.762 85.1752 390.106 99.2628C387.594 97.6996 385.082 96.1364 382.57 94.5732C366.132 116.564 347.434 136.864 326.865 155.049C323.053 147.282 319.24 139.516 315.428 131.749C304.198 145.003 292.752 158.074 281.094 170.955C275.396 161.914 269.699 152.873 264.001 143.832L264 143.831Z" fill="var(--fill-0, #E69B31)"/>
<path id="Vector_6" d="M346.756 101.156C349.59 99.2343 357.111 88.2399 366.894 76.3214C367.366 75.7458 367.267 75.0792 366.677 74.6396C363.605 72.3505 360.357 70.284 357.179 68.1438C356.99 68.8437 356.8 69.5436 356.611 70.2435C363.675 69.5653 369.728 67.8937 375.563 65.35C377.459 64.5243 379.848 63.6885 381.328 62.2106C381.952 61.5874 381.314 60.565 380.488 60.766C377.772 61.4254 370.825 66.6963 356.612 67.9905C355.493 68.0918 355.086 69.4395 356.044 70.0902C359.209 72.2449 362.334 74.4906 365.598 76.4905C365.469 76.0018 365.342 75.513 365.213 75.0257C356.329 87.634 347.714 97.8678 346.633 101.064C346.61 101.132 346.696 101.201 346.757 101.159L346.756 101.156Z" fill="var(--fill-0, #010101)"/>
<path id="Vector_7" d="M389.042 80.4779C388.666 81.9978 388.365 86.0583 388.388 86.7076C388.42 87.5984 388.755 88.6063 388.856 88.7928C389.034 89.1197 389.455 89.056 389.646 88.7928C390.402 87.7546 390.454 86.0583 390.505 84.7757C390.629 81.6449 390.856 80.047 389.877 79.9313C389.513 79.8879 389.134 80.102 389.04 80.4779H389.042Z" fill="var(--fill-0, #010101)"/>
</g>
<path id="Vector_8" d="M236.137 34.3104C237.242 75.1461 238.267 101.764 242.094 209.759C242.109 210.176 242.442 210.557 242.882 210.546C265.589 210.008 404.689 206.595 417.47 206.454C417.926 206.448 418.349 206.062 418.333 205.591C417.609 183.677 411.71 55.7028 410.604 31.8023C410.577 31.2147 410.123 30.6937 409.505 30.7033C386.946 31.0406 249.274 33.1461 236.636 33.3297C235.373 33.3474 235.369 35.3114 236.636 35.2938C259.195 34.966 396.867 33.0808 409.505 32.9026C409.139 32.5367 408.772 32.1695 408.406 31.8036C409.435 54.4596 415.86 192.847 416.608 205.593C416.895 205.306 417.183 205.017 417.47 204.73C413.259 204.885 255.663 208.665 242.882 208.973C243.144 209.235 243.407 209.498 243.669 209.76C239.22 85.4262 238.929 75.0088 237.132 34.3117C237.104 33.6752 236.12 33.6684 236.138 34.3117L236.137 34.3104Z" fill="var(--fill-0, #010101)"/>
</g>
<g id="Group_2">
<g id="Vector_9">
<path d="M229.361 35.8194C229.369 36.1322 229.378 36.4437 229.387 36.7565C229.464 39.5938 231.808 41.8408 234.645 41.8C293.859 40.9594 353.073 40.1202 412.287 39.2796C415.097 39.2402 417.365 36.9701 417.4 34.16C417.441 30.9732 414.944 28.7752 412.165 28.801C352.941 29.3641 293.719 29.9258 234.495 30.489C231.594 30.5162 229.279 32.9182 229.359 35.8194H229.361Z" fill="var(--fill-0, white)"/>
<path d="M229.361 35.8194C229.369 36.1322 229.378 36.4437 229.387 36.7565C229.464 39.5938 231.808 41.8408 234.645 41.8C293.859 40.9594 353.073 40.1202 412.287 39.2796C415.097 39.2402 417.365 36.9701 417.4 34.16C417.441 30.9732 414.944 28.7752 412.165 28.801C352.941 29.3641 293.719 29.9258 234.495 30.489C231.594 30.5162 229.279 32.9182 229.359 35.8194H229.361Z" fill="url(#paint2_linear_4228_9581)"/>
</g>
<path id="Vector_10" d="M228.915 35.8175C228.939 38.0127 229.438 39.9782 231.318 41.3247C233.528 42.9079 236.575 42.4019 239.127 42.3911C245.918 42.3611 408.484 40.0448 411.879 39.9754C414.094 39.9305 416.116 39.0437 417.278 37.0742C419.621 33.1026 416.643 28.2047 412.165 28.0809C409.272 28.0007 239.486 29.6709 239.385 29.6723C235.181 29.7131 233.218 29.4275 231.322 30.6679C229.57 31.8145 228.592 33.7391 228.594 35.8175C228.594 36.8022 230.125 36.8036 230.124 35.8175C230.121 33.4562 231.835 31.4677 234.217 31.265C234.3 31.2582 402.686 29.6709 408.498 29.5771C411.067 29.5363 414.155 28.9677 415.88 31.3711C417.157 33.1516 416.94 35.7222 415.397 37.2687C413.661 39.0056 411.539 38.5976 407.399 38.6547C238.554 41.0159 247.96 40.8663 238.313 41.0976C235.711 41.1601 232.678 41.9545 230.74 39.294C229.972 38.2385 229.863 37.0783 229.807 35.8161C229.783 35.2448 228.908 35.238 228.915 35.8161V35.8175Z" fill="var(--fill-0, #010101)"/>
</g>
<path id="Vector_11" d="M301.393 158.499C300.341 153.943 302.704 152.932 302.709 146.369C302.709 145.15 302.63 143.661 303.508 143.121C304.233 142.676 305.476 142.964 306.206 143.662C308.105 145.477 306.201 149.73 306.984 150.009C307.558 150.213 308.98 148.068 309.554 146.792C310.164 145.436 310.296 145.052 310.725 143.236C311.073 141.759 311.757 140.381 312.683 140.164C313.419 139.991 314.466 140.575 316.834 143.961C322.147 151.559 324.443 154.235 317.665 161.298C316.38 162.638 314.247 164.802 310.929 165.395C307.63 165.984 305.056 165 303.214 162.779C302.115 161.049 301.631 159.532 301.393 158.499Z" fill="var(--fill-0, #FFFDFB)"/>
<path id="Vector_12" d="M302.714 160.946C302.835 159.752 301.787 159.283 302.146 155.605C302.332 153.694 302.525 152.947 303.7 145.933C303.823 145.204 303.982 142.995 305.116 144.329C306.257 145.672 306.335 148.223 306.203 149.875C306.136 150.718 307.182 150.94 307.717 150.502C311.305 147.562 312.794 142.976 312.318 140.657C312.158 139.878 311.022 139.956 310.818 140.657C310.483 141.808 310.588 145.838 306.463 149.248C306.967 149.457 307.472 149.665 307.977 149.875C308.08 148.495 307.973 147.09 307.509 145.781C307.165 144.809 306.747 143.687 305.966 142.977C305.243 142.319 304.077 142.107 303.269 142.735C302.392 143.418 302.415 144.747 302.267 145.745C301.096 153.626 300.417 156.398 300.995 158.665C301.64 161.192 302.667 161.392 302.713 160.948L302.714 160.946Z" fill="var(--fill-0, #010101)"/>
<path id="Vector_13" d="M303.238 162.883C304.21 166.226 308.867 168.183 314.826 164.217C317.723 162.289 320.111 159.507 321.553 156.406C321.931 155.594 322.731 154.295 322.23 153.427C322.1 153.2 321.825 153.155 321.602 153.263C320.61 153.737 321.02 154.974 318.888 158.125C315.112 163.71 307.588 167.41 303.642 162.646C303.485 162.455 303.173 162.661 303.237 162.882L303.238 162.883Z" fill="var(--fill-0, #010101)"/>
<path id="Vector_14" d="M315.868 156.698C318.493 154.825 319.982 151.412 320.413 148.295C320.532 147.439 319.343 147.266 319.235 148.136C318.812 151.56 317.354 153.65 315.413 156.243C315.216 156.506 315.604 156.884 315.866 156.696L315.868 156.698Z" fill="var(--fill-0, #010101)"/>
<path id="Vector_15" d="M313.641 153.43C314.84 153.131 316.373 150.612 316.904 149.495C317.41 148.43 318.596 145.197 318.31 144.324C318.136 143.793 317.475 143.729 317.168 144.174C316.815 144.686 317.033 146.835 314.488 150.989C314.091 151.637 313.429 152.328 313.298 153.086C313.263 153.294 313.42 153.484 313.642 153.43H313.641Z" fill="var(--fill-0, #010101)"/>
<path id="Vector_16" d="M311.855 150.503C312.634 149.701 312.274 150.352 313.443 148.804C314.292 147.68 315.813 144.594 316.342 142.295C316.434 141.894 316.221 141.512 315.715 141.471C314.813 141.399 315.105 142.925 313.57 146.207C313.379 146.615 312.199 148.887 312.056 149.198C311.887 149.565 311.791 149.944 311.593 150.301C311.504 150.463 311.72 150.64 311.853 150.503H311.855Z" fill="var(--fill-0, #010101)"/>
<g id="Group_3">
<path id="Vector_17" d="M248.794 180.044C247.082 192.216 244.892 210.187 243.335 233.31H182.184C180.31 217.346 178.598 202.575 175.865 178.981C173.609 159.515 170.459 138.582 189.172 134.315C198.406 132.211 200.988 138.865 211.322 139.721C224.237 140.791 229.986 131.21 240.44 135.844C255.316 142.438 251.218 162.82 248.794 180.042V180.044Z" fill="var(--fill-0, #F2EAEA)"/>
<path id="Vector_18" d="M245.084 139.372C252.66 147.904 250.471 162.591 248.783 174.632C245.866 195.452 244.011 211.687 242.526 233.312C242.795 233.043 243.065 232.773 243.333 232.505C227.434 232.488 186.666 232.5 182.182 232.501L182.994 233.313C175.082 166.027 173.04 155.081 176.895 145.299C179.664 138.274 187.364 134.407 193.259 134.715C197.697 134.946 201.097 137.926 206.037 139.489C222.601 144.728 230.013 129.711 242.613 137.912C243.396 138.422 244.142 138.991 244.821 139.636C245.544 140.322 246.64 139.229 245.915 138.541C242.42 135.222 237.514 133.286 232.691 133.946C227.981 134.591 223.775 137.132 219.193 138.282C208.095 141.069 201.538 135.221 196.539 133.714C190.119 131.779 181.741 135.064 177.603 140.721C171.797 148.659 173.305 162.818 174.35 172.646C175.122 179.908 181.209 231.95 181.368 233.313C181.42 233.75 181.699 234.125 182.18 234.125C198.079 234.129 238.847 234.125 243.331 234.121C245.222 234.118 243.175 231.013 247.994 191.924C250.594 170.827 256.448 147.844 245.649 138.805C245.254 138.474 244.733 138.981 245.08 139.373L245.084 139.372Z" fill="var(--fill-0, #010101)"/>
</g>
<g id="Group_4">
<path id="Vector_19" d="M208.887 88.7393C208.887 88.7393 207.004 89.3473 205.346 90.7986C202.395 93.3828 201.145 100.33 202.713 108.642C199.265 107.542 195.541 108.334 197.248 111.671C198.558 114.231 202.301 114.273 202.549 114.272C202.596 117.735 203.204 125.624 206.178 127.909C207.633 129.027 208.218 129.201 208.442 129.383C209.351 130.122 208.954 132.086 208.872 132.497C207.584 138.975 206.556 144.142 208.369 147.009C210.817 150.88 217.786 150.695 219.931 146.074C221.426 142.854 218.404 139.643 218.419 129.711C222.473 127.037 222.777 124.25 222.993 119.457C223.071 117.744 223.121 115.436 223.023 112.683C226.948 112.664 228.923 109.788 228.472 108.506C228.056 107.324 225.66 106.79 222.4 107.324C223.39 96.9328 218.743 85.7347 208.887 88.7379V88.7393Z" fill="var(--fill-0, #FFFDFB)"/>
<path id="Vector_20" d="M208.799 88.4179C200.222 90.6118 200.882 102.079 202.103 108.809C202.363 108.549 202.623 108.29 202.883 108.03C193.314 105.13 194.591 114.946 202.549 114.972C202.315 114.738 202.082 114.504 201.848 114.27C201.911 117.736 202.532 124.159 204.337 126.922C205.059 128.028 206.112 128.81 207.334 129.547C207.713 129.776 208.063 129.871 208.228 130.308C209.162 132.782 202.944 146.057 210.358 149.665C214.259 151.564 220.113 149.845 221.016 145.163C221.631 141.977 219.192 138.625 219.198 129.708C219.07 129.932 218.941 130.155 218.813 130.38C221.03 128.896 222.841 126.747 223.345 124.08C224.042 120.38 223.951 116.427 223.829 112.682C223.561 112.95 223.292 113.219 223.024 113.487C225.536 113.465 228.347 112.312 229.197 109.746C230.475 105.886 224.223 106.226 222.185 106.538C222.529 106.8 222.873 107.061 223.217 107.324C224.218 96.2401 219.157 84.9346 208.676 87.9636C207.684 88.2506 208.106 89.7998 209.103 89.5128C218.497 86.8075 222.465 97.4561 221.587 107.324C221.536 107.906 222.146 108.182 222.62 108.11C223.887 107.916 225.268 107.793 226.527 108.107C226.838 108.185 227.364 108.306 227.573 108.581C228.096 109.269 226.738 111.838 223.026 111.876C221.413 111.893 222.851 114.186 222.001 122.378C221.628 125.974 220.225 127.303 218.115 128.978C217.606 129.382 217.64 129.758 217.65 130.377C217.756 137.226 219.359 141.302 219.578 143.471C220.2 149.615 210.008 151.091 208.408 145.264C206.83 139.523 211.367 130.982 208.942 128.884C207.262 127.43 205.864 127.635 204.795 124.609C203.642 121.342 203.317 117.71 203.254 114.269C203.247 113.889 202.938 113.568 202.552 113.567C196.61 113.548 195.19 107.057 202.548 109.25C203.043 109.398 203.412 108.925 203.327 108.471C202.545 104.275 202.234 99.7411 203.379 95.5777C204.229 92.4902 205.502 90.4853 208.979 89.0558C209.362 88.898 209.229 88.3077 208.802 88.4165L208.799 88.4179Z" fill="var(--fill-0, #010101)"/>
</g>
<g id="Group_5">
<path id="Vector_21" d="M176.795 231.671C171.131 264.883 166.916 299.232 164.381 334.623C179.54 341.986 195.535 341.965 210.09 335.785C211.015 318.923 211.94 302.061 212.865 285.198C214.493 302.208 216.122 319.218 217.75 336.228C232.409 341.968 248.888 341.01 263.893 331.895C258.507 298.107 251.908 263.705 243.946 228.859C221.562 229.797 199.178 230.732 176.794 231.669L176.795 231.671Z" fill="var(--fill-0, black)"/>
<path id="Vector_22" d="M176.04 231.467C171.094 258.836 166.237 296.548 163.503 334.628C163.483 334.912 163.68 335.26 163.937 335.385C178.398 342.37 194.735 343.221 210.532 336.547C211.239 336.248 210.888 336.467 213.844 285.204H211.883C213.463 302.217 215.076 319.227 216.721 336.234C216.768 336.732 217.014 337.046 217.476 337.226C232.183 342.935 249.167 341.979 264.387 332.749C264.794 332.503 264.909 332.083 264.839 331.639C259.912 300.949 252.404 260.917 245 228.574C244.896 228.124 244.406 227.751 243.944 227.77C226.511 228.51 181.744 230.48 176.792 230.688C175.524 230.741 175.518 232.717 176.792 232.664C194.224 231.935 238.993 230.165 243.944 229.96C243.592 229.692 243.239 229.424 242.889 229.156C251.078 265.112 256.97 294.487 262.945 332.162C263.096 331.792 263.246 331.422 263.397 331.052C249.884 339.211 233.731 341.375 218.022 335.242C218.274 335.573 218.526 335.903 218.777 336.234C217.164 319.221 215.521 302.211 213.844 285.204C213.721 283.963 211.949 283.924 211.883 285.204C211.005 302.067 210.136 318.929 209.211 335.791C209.355 335.538 209.501 335.286 209.645 335.033C195.679 340.935 179.774 341.094 164.82 333.871C164.964 334.124 165.11 334.376 165.254 334.629C168.093 295.098 172.153 265.577 177.544 231.883C177.701 230.905 176.218 230.471 176.039 231.468L176.04 231.467Z" fill="var(--fill-0, #010101)"/>
</g>
<g id="Group_6">
<path id="Vector_23" d="M195.9 134.341C191.446 131.987 184.284 129.183 177.497 131.629C169.566 134.485 167.64 142.511 161.022 159.521C148.842 190.824 138.007 208.209 142.924 222.513C146.772 233.707 158.54 233.335 169.199 228.656C165.263 243.469 163.193 244.936 163.708 248.704C164.236 252.569 166.328 253.5 165.857 256.493C165.238 260.43 161.237 261.284 161.559 263.478C161.958 266.197 168.459 267.328 174.123 268.316C177.935 268.981 176.171 268.378 190.647 268.819C196.456 268.996 198.546 267.861 199.986 262.46C205.127 243.176 201.134 224.726 201.134 224.726C199.853 215.777 199.212 211.302 198.218 206.708C195.273 193.108 193.01 171.138 195.9 134.341Z" fill="var(--fill-0, #6C6B6A)"/>
<path id="Vector 2982" d="M175.023 179.023L155.023 175.523L159.023 165.523L167.523 163.023L195.523 165.523V179.023H175.023Z" fill="var(--fill-0, #CFCBC4)" stroke="var(--stroke-0, #010101)"/>
<path id="Vector 2981" d="M159.023 165.523C159.023 165.523 161.518 158.491 163.523 154.024C166.529 147.33 166.598 141.962 171.523 136.524C173.756 134.059 175.413 132.698 178.523 131.523C181.811 130.28 184.069 130.874 187.523 131.523C191.48 132.266 196.523 135.523 196.523 135.523L195.023 169.023H176.523L159.023 165.523Z" fill="var(--fill-0, #17398F)" stroke="var(--stroke-0, #010101)"/>
<path id="Vector_24" d="M196.19 133.85C186.784 128.372 175.988 127.835 169.893 136.684C165.898 142.485 164.336 149.513 156.411 168.734C146.836 191.963 136.734 210.269 142.611 224.121C147.081 234.653 159.083 234.042 169.643 229.42C169.212 229.09 168.782 228.758 168.351 228.427C163.306 247.309 160.805 245.566 164.533 253.673C167.207 259.487 158.437 260.761 161.162 264.811C162.778 267.213 168.699 268.245 171.57 268.771C177.09 269.781 175.822 269.52 181.434 269.542C195.668 269.598 198.794 271.844 201.445 260.35C204.059 249.021 204.063 235.893 202.096 225.261C200.955 219.092 200.389 212.836 199.077 206.693C194.32 184.429 195.068 156.924 196.825 134.346C196.918 133.16 195.07 133.165 194.977 134.346C190.102 196.46 199.513 204.675 201.519 234.561C202.152 243.974 201.577 253.738 198.946 262.832C198.284 265.123 197.217 267.077 194.75 267.68C191.977 268.357 190.667 267.673 179.063 267.756C174.927 267.786 171.102 267.092 166.955 265.941C165.61 265.569 163.532 265.098 162.665 263.869C161.546 262.279 165.148 261.335 166.407 257.897C167.877 253.884 164.968 252.135 164.557 248.4C164.186 245.021 166.607 241.804 170.05 228.895C170.264 228.09 169.431 227.607 168.757 227.902C149.154 236.494 137.946 226.059 144.48 203.479C148.396 189.946 154.257 179.807 163.601 155.183C167.274 145.506 170.02 136.727 175.614 133.441C181.728 129.849 189.195 131.829 195.614 134.842C196.272 135.151 196.842 134.229 196.193 133.85H196.19Z" fill="var(--fill-0, #010101)"/>
</g>
<g id="Group_7">
<path id="Vector_25" d="M227.059 136.69C231.799 134.13 241.932 129.536 250.093 133.645C257.843 137.547 257.842 143.96 275.182 192.441C282.656 179.806 290.132 167.17 297.606 154.534C309.633 163.976 317.249 172.759 317.696 177.291C318.004 180.401 316.89 182.126 316.89 182.126C315.579 184.158 313.734 183.898 312.256 185.752C310.617 187.807 311.403 189.985 311.047 192.602C310.403 197.346 306.463 200.223 303.77 202.58C289.711 214.887 289.884 230.32 276.394 233.298C274.903 233.627 272.553 234.118 269.746 233.398C257.789 230.334 255.007 209.787 254.837 208.416C251.755 228.942 254.867 237.737 258.665 241.86C260.131 243.451 264.479 247.364 263.902 251.933C263.541 254.8 261.385 256.779 262.341 259.388C263.126 261.525 265.135 261.726 265.11 263.014C265.071 265.208 259.579 267.018 255.774 267.646C251.049 268.424 246.395 267.794 244.258 266.942C233.435 262.628 234.961 231.763 235.293 222.317C236.013 201.829 234.945 173.08 227.055 136.689L227.059 136.69Z" fill="var(--fill-0, #6C6B6A)"/>
<path id="Vector 2982_2" d="M249.523 180.023L269.523 176.523L265.523 166.523L257.023 164.023L229.023 166.523V180.023H249.523Z" fill="var(--fill-0, #CFCBC4)" stroke="var(--stroke-0, #010101)"/>
<path id="Vector 2981_2" d="M266.023 166.523C266.023 166.523 264.029 159.491 262.023 155.024C259.018 148.33 258.949 142.962 254.023 137.524C251.791 135.059 250.134 133.698 247.023 132.523C243.736 131.28 241.478 131.874 238.023 132.523C234.067 133.266 227.023 136.523 227.023 136.523L231.523 170.023H249.023L266.023 166.523Z" fill="var(--fill-0, #17398F)" stroke="var(--stroke-0, #010101)"/>
<path id="Vector_26" d="M227.234 136.997C237.179 131.965 249.181 129.833 255.045 139.312C258.927 145.588 258.705 148.666 274.492 192.634C274.694 193.196 275.468 193.36 275.795 192.804C283.253 180.157 290.818 167.577 298.299 154.943C297.877 154.997 297.456 155.052 297.034 155.106C302.227 159.196 315.947 170.721 316.801 177.294C317.045 179.169 316.756 181.547 315.086 182.704C313.688 183.672 310.788 184.389 310.327 188.244C310.03 190.731 310.865 192.954 308.669 196.362C305.652 201.043 300.342 202.176 292.539 215.063C288.099 222.397 284.258 232.363 273.252 232.782C262.613 233.187 257.184 218.835 255.877 208.42C255.747 207.384 254.022 206.865 253.833 208.144C252.189 219.255 250.675 235.019 258.504 243.165C260.89 245.649 263.709 248.871 262.753 252.594C261.948 255.731 259.017 258.483 263.636 262.482C263.999 262.796 264.197 262.878 263.991 263.316C263.712 263.909 262.852 264.314 262.311 264.601C256.997 267.422 248.067 267.622 244.36 265.919C234.258 261.279 236.042 230.752 236.331 219.928C237.08 191.879 233.927 164.093 227.948 136.446C227.696 135.283 225.913 135.776 226.165 136.937C239.871 200.308 231.442 228.791 235.328 251.995C237.781 266.636 242.722 268.774 250.619 268.981C254.867 269.092 259.523 268.33 263.317 266.322C264.525 265.682 266 264.668 266.099 263.165C266.209 261.512 264.595 260.983 263.735 259.874C261.431 256.901 266.436 253.99 264.483 248.323C261.545 239.797 250.864 241.976 255.839 208.695C255.158 208.602 254.476 208.51 253.795 208.419C254.969 217.881 259.286 230.677 268.281 233.987C272.988 235.72 278.858 234.376 282.853 231.484C290.372 226.041 292.517 215.481 301.358 206.14C305.06 202.23 310.663 199.138 311.809 193.452C312.398 190.533 311.197 187.019 314.275 185.224C316.199 184.102 317.469 183.634 318.221 181.305C319.551 177.181 317.586 173.54 315.164 170.33C310.633 164.327 304.082 158.615 298.17 153.965C297.769 153.649 297.193 153.64 296.905 154.128C289.435 166.768 282.052 179.456 274.562 192.082C274.996 192.139 275.431 192.195 275.865 192.252C271.405 179.729 267.037 167.173 262.754 154.589C259.162 144.037 256.65 133.458 246.121 131.584C239.402 130.388 232.623 133.111 226.878 136.388C226.483 136.614 226.831 137.196 227.231 136.993L227.234 136.997Z" fill="var(--fill-0, #010101)"/>
</g>
<g id="Group_8">
<g id="Vector_27">
<path d="M236.895 153.247C237.764 153.219 238.434 154.01 238.262 154.863L225.839 216.415C225.717 217.023 225.195 217.469 224.575 217.496C216.657 217.844 208.738 218.191 200.819 218.538C192.901 218.885 184.982 219.233 177.064 219.58C176.187 219.618 175.508 218.822 175.683 217.962L175.864 217.062L188.313 155.849C188.439 155.235 188.968 154.788 189.594 154.768C205.361 154.262 221.128 153.754 236.895 153.247Z" fill="url(#paint3_linear_4228_9581)"/>
<path d="M236.895 153.247C237.764 153.219 238.434 154.01 238.262 154.863L225.839 216.415C225.717 217.023 225.195 217.469 224.575 217.496C216.657 217.844 208.738 218.191 200.819 218.538C192.901 218.885 184.982 219.233 177.064 219.58C176.187 219.618 175.508 218.822 175.683 217.962L175.864 217.062L188.313 155.849C188.439 155.235 188.968 154.788 189.594 154.768C205.361 154.262 221.128 153.754 236.895 153.247Z" fill="url(#paint4_linear_4228_9581)" fill-opacity="0.2"/>
<path d="M236.895 153.247C237.764 153.219 238.434 154.01 238.262 154.863L225.839 216.415C225.717 217.023 225.195 217.469 224.575 217.496C216.657 217.844 208.738 218.191 200.819 218.538C192.901 218.885 184.982 219.233 177.064 219.58C176.187 219.618 175.508 218.822 175.683 217.962L175.864 217.062L188.313 155.849C188.439 155.235 188.968 154.788 189.594 154.768C205.361 154.262 221.128 153.754 236.895 153.247Z" stroke="var(--stroke-0, black)" stroke-width="1.5"/>
</g>
<g id="Group_9">
<path id="Vector_28" d="M203.603 186.812C204.689 189.026 207.36 190.114 209.685 189.386C213.756 188.113 214.485 182.454 210.973 180.193C206.597 177.379 201.509 182.537 203.603 186.81V186.812Z" fill="var(--fill-0, white)"/>
<path id="Vector_29" d="M206.264 179.787C205.601 179.834 205.605 179.796 204.924 180.303C203.743 181.182 202.813 182.768 202.705 184.514C202.398 189.522 209.151 192.236 212.478 188.146C215.042 184.994 213.725 180.107 209.79 179.024C208.702 178.725 206.109 178.659 205.94 179.775C205.915 179.934 205.959 180.062 206.094 180.155C206.548 180.466 206.95 180.22 207.44 180.117C209.006 179.785 210.657 180.355 211.663 181.601C214.28 184.84 211.412 189.859 207.242 189.007C204.147 188.374 202.534 185.123 204.285 182.184C204.916 181.124 205.703 180.586 205.872 180.429C206.035 180.277 206.164 180.085 206.319 179.921C206.363 179.875 206.334 179.783 206.265 179.789L206.264 179.787Z" fill="var(--fill-0, #010101)"/>
</g>
</g>
<path id="Vector_30" d="M180.82 184.439C181.65 179.838 184.221 179.84 186.814 173.812C187.296 172.693 187.81 171.292 188.829 171.142C189.671 171.018 190.699 171.775 191.095 172.704C192.124 175.119 188.697 178.278 189.306 178.842C189.754 179.256 191.904 177.845 192.936 176.9C194.033 175.895 194.305 175.594 195.415 174.094C196.318 172.874 197.49 171.877 198.427 172.043C199.173 172.175 199.904 173.123 200.745 177.17C202.63 186.248 203.686 189.612 194.672 193.43C192.962 194.153 190.148 195.301 186.865 194.538C183.602 193.779 181.623 191.86 180.807 189.092C180.479 187.07 180.633 185.485 180.82 184.439Z" fill="var(--fill-0, white)"/>
<path id="Vector_31" d="M181.06 187.227C181.377 186.656 181.096 186.195 181.58 184.628C182.329 182.197 183.141 181.203 187.928 173.759C188.245 173.266 189.065 171.425 189.697 172.528C190.422 173.791 189.378 177.024 188.693 178.31C188.338 178.976 188.926 179.832 189.695 179.613C194.137 178.347 197.417 174.723 197.877 172.45C198.016 171.765 197.111 171.038 196.577 171.694C195.702 172.767 194.14 176.478 189.223 177.904C189.556 178.338 189.89 178.772 190.224 179.208C191.709 176.382 191.765 173.428 191.173 172.056C190.791 171.169 189.87 170.452 188.855 170.662C187.696 170.902 187.142 172.264 186.588 173.16C182.483 179.814 180.957 181.875 180.47 184.028C179.848 186.771 180.836 187.631 181.059 187.228L181.06 187.227Z" fill="var(--fill-0, #010101)"/>
<path id="Vector_32" d="M180.786 189.224C179.996 195.895 191.57 197.858 199.975 190.635C200.709 190.006 201.983 189.104 201.974 188.047C201.971 187.721 201.684 187.56 201.393 187.605C200.242 187.779 200.16 189.026 196.997 191.022C191.242 194.652 183.016 195.023 181.263 189.16C181.18 188.882 180.818 188.964 180.786 189.224Z" fill="var(--fill-0, #010101)"/>
<path id="Vector_33" d="M194.877 188.487C197.878 187.838 200.786 185.124 202.37 182.495C202.769 181.833 201.724 181.224 201.335 181.89C199.566 184.93 197.452 186.248 194.622 187.88C194.287 188.073 194.517 188.564 194.877 188.487Z" fill="var(--fill-0, #010101)"/>
<path id="Vector_34" d="M194.017 184.603C195.294 184.809 197.674 183.114 198.648 182.264C199.46 181.555 201.988 178.918 201.96 178.003C201.945 177.503 201.447 177.259 201.02 177.463C200.539 177.693 200.57 178.126 199.457 179.453C196.685 182.755 194.603 183.068 193.857 184.214C193.772 184.346 193.849 184.576 194.015 184.603H194.017Z" fill="var(--fill-0, #010101)"/>
<path id="Vector_35" d="M193.571 181.225C194.466 180.852 194.176 181.17 195.721 180.286C197.358 179.349 200.857 175.997 201.056 175.156C201.18 174.632 200.641 174.232 200.17 174.475C199.516 174.814 199.613 175.457 196.911 177.899C196.59 178.19 194.562 179.849 194.251 180.132C193.956 180.4 193.726 180.699 193.408 180.947C193.28 181.046 193.419 181.287 193.57 181.225H193.571Z" fill="var(--fill-0, #010101)"/>
<g id="Group_10">
<path id="Vector_36" d="M168.144 228.734C169.597 227.858 171.625 226.397 173.382 224.067C176.485 219.954 175.795 217.044 178.755 215.069C181.552 213.201 183.685 214.79 185.336 212.785C187.223 210.492 185.387 207.257 187.216 205.935C188.831 204.768 191.227 206.591 192.051 205.667C193.063 204.533 190.438 200.686 188.828 198.28C179.841 184.854 180.271 183.181 177.68 182.566C173.098 181.478 168.439 185.923 161.804 192.253C156.803 197.025 153.355 201.694 151.119 205.13L168.144 228.735V228.734Z" fill="var(--fill-0, #6C6B6A)"/>
<path id="Vector_37" d="M168.253 229.128C172.268 227.444 174.992 223.933 176.589 219.975C177.271 218.286 177.864 216.607 179.534 215.651C181.186 214.703 183.136 215.223 184.792 214.384C186.612 213.463 187.16 211.428 187.205 209.543C187.224 208.777 187.062 207.779 187.421 207.07C187.876 206.175 189.02 206.446 189.806 206.612C191.09 206.882 192.784 207.09 193.137 205.419C193.688 202.794 189.162 197.44 184.66 190.163C181.43 184.943 180.519 182.68 178.569 181.911C176.222 180.985 173.606 181.77 171.508 182.949C166.88 185.548 154.538 197.04 150.624 204.839C150.35 205.385 151.085 206.066 151.526 205.534C154.798 201.586 159.941 194.052 169.524 186.464C171.694 184.746 174.639 182.668 177.572 183.459C179.545 183.991 179.239 185.497 188.484 199.384C188.975 200.121 191.299 203.447 191.368 204.867C191.382 205.133 191.343 205.041 191.364 205.031C190.899 205.247 189.715 204.729 189.207 204.671C187.61 204.487 186.083 205.154 185.595 206.78C185.091 208.452 185.823 210.417 184.817 211.949C183.734 213.595 181.858 212.663 179.456 213.674C175.214 215.457 175.607 219.558 172.646 223.639C171.305 225.488 169.597 226.987 167.857 228.449C167.556 228.702 167.879 229.288 168.254 229.13L168.253 229.128Z" fill="var(--fill-0, #010101)"/>
</g>
<path id="Vector_38" d="M176.58 144.601C176.101 145.732 176.409 147.284 176.441 148.488C177.085 172.087 173.155 178.009 173.871 181.797C173.941 182.172 174.409 182.13 174.593 181.891C178.083 177.359 179.14 147.632 177.086 144.601C176.977 144.44 176.673 144.38 176.58 144.601Z" fill="var(--fill-0, #010101)"/>
<path id="Vector_39" d="M248.64 153.103C248.243 157.851 252.328 202.595 252.465 203.646C252.579 204.525 252.669 205.538 253.206 206.266C253.364 206.478 253.725 206.546 253.868 206.266C254.537 204.949 254.371 204.884 252.733 185.855C250.289 157.449 250.286 156.35 249.418 152.998C249.301 152.545 248.677 152.676 248.642 153.103H248.64Z" fill="var(--fill-0, #010101)"/>
<path id="Vector_40" d="M271.549 209.576C272.027 207.903 271.621 205.823 272.631 201.443C274.35 193.984 277.569 191.74 276.056 190.822C275.083 190.233 274.165 191.992 273.821 192.621C270.124 199.396 269.603 207.216 270.554 209.576C270.735 210.025 271.398 210.105 271.551 209.576H271.549Z" fill="var(--fill-0, #010101)"/>
<g id="Group_11">
<path id="Vector_41" d="M208.867 132.503C208.115 132.18 206.797 133.623 205.577 134.958C201.776 139.117 201.817 141.991 202.42 146.911C202.78 149.854 203.557 152.795 204.098 152.753C204.675 152.709 204.279 149.35 205.774 148.748C207.191 148.178 208.591 150.861 214.171 150.873C205.087 142.284 210.781 133.322 208.865 132.503H208.867Z" fill="var(--fill-0, #F2EAEA)"/>
<path id="Vector_42" d="M209.038 132.211C208.075 131.553 207.005 132.54 206.319 133.162C202.637 136.494 200.87 139.809 201.365 144.938C201.524 146.581 202.116 152.337 203.449 153.352C205.342 154.794 205.345 150.598 205.776 149.875C206.57 148.545 207.82 151.623 214.176 151.716C214.903 151.727 215.306 150.776 214.776 150.269C205.618 141.509 212.277 133.374 209.301 131.76C208.334 131.235 207.471 132.71 208.439 133.235C209.473 133.796 204.433 142.75 213.576 151.468C213.776 150.985 213.976 150.503 214.176 150.021C209.937 149.965 208.771 148.572 207.005 147.978C205.059 147.322 204.08 149.093 203.787 150.734C203.723 151.094 203.687 151.46 203.617 151.819C203.608 151.872 203.503 152.186 203.528 152.22C203.432 152.084 209.168 151.568 204.031 152.15C204.926 152.048 204.458 152.211 204.408 151.883C204.327 151.368 204.016 150.798 203.885 150.278C203.102 147.193 202.427 142.623 203.532 139.583C204.263 137.569 205.649 135.945 207.182 134.272C207.53 133.892 208.31 132.88 208.872 132.831C209.202 132.803 209.319 132.404 209.039 132.214L209.038 132.211Z" fill="var(--fill-0, #010101)"/>
</g>
<g id="Group_12">
<path id="Vector_43" d="M219.215 132.503C219.967 132.18 221.285 133.623 222.505 134.958C226.305 139.117 226.264 141.991 225.662 146.911C225.301 149.854 224.525 152.795 223.983 152.753C223.407 152.709 223.803 149.35 222.308 148.748C220.89 148.178 219.491 150.861 213.91 150.873C222.995 142.284 217.301 133.322 219.216 132.503H219.215Z" fill="var(--fill-0, #F2EAEA)"/>
<path id="Vector_44" d="M219.214 132.829C219.834 132.882 221.567 135.035 222.088 135.644C225.057 139.117 225.493 141.526 224.874 146.524C224.304 151.119 223.58 151.942 223.598 152.027C223.594 152.008 224.436 152.34 224.55 152.205C224.584 152.165 224.421 151.524 224.402 151.397C224.172 149.909 223.718 147.744 221.775 147.828C219.86 147.911 219.028 149.954 213.908 150.021C214.108 150.504 214.308 150.987 214.508 151.468C219.496 146.713 220.535 142.1 219.935 136.492C219.893 136.094 219.407 133.365 219.645 133.235C220.612 132.71 219.75 131.235 218.783 131.76C215.799 133.378 222.496 141.482 213.308 150.269C212.779 150.775 213.18 151.727 213.908 151.716C219.263 151.638 221.192 149.361 221.907 149.501C223.237 149.763 222.149 153.757 224.093 153.572C225.747 153.415 226.366 147.988 226.563 146.339C227.285 140.295 226.038 137.335 222.405 133.771C221.653 133.034 220.237 131.399 219.047 132.213C218.768 132.403 218.882 132.802 219.214 132.83V132.829Z" fill="var(--fill-0, #010101)"/>
</g>
<g id="Group_13">
<path id="Vector_45" d="M201.047 108.285C202.199 108.745 202.352 109.33 202.86 109.36C204.38 109.45 205.83 104.401 205.983 103.853C206.715 101.248 207.531 97.3117 207.528 92.1676C209.797 94.0786 212.919 94.4213 215.408 92.6055C216.801 96.8587 219.864 96.4466 220.759 97.9428C221.38 98.9806 220.696 99.5505 220.749 102.169C220.788 104.121 221.235 107.072 222.4 107.321C222.55 107.352 222.595 107.316 223.244 107.144C224.966 106.689 225.423 106.744 225.851 106.561C226.645 106.219 227.397 105.194 227.415 102.473C227.49 90.9448 227.626 90.4252 227.082 89.2256C226.677 88.3306 225.746 87.5947 224.775 87.7416C226.458 83.6544 222.822 79.3169 218.503 80.2595C216.863 80.6172 215.401 81.7175 213.723 81.7692C212.349 81.8114 211.069 81.1422 209.771 80.6879C199.79 77.1991 190.667 86.9922 194.402 92.0152C195.042 92.8776 196.068 93.5726 196.168 94.6417C196.319 96.2535 194.229 97.5701 194.676 99.1247C194.985 100.201 196.304 100.583 197.055 101.415C197.486 101.893 197.606 102.841 197.999 104.584C198.477 106.701 198.323 107.32 198.92 107.763C199.499 108.193 199.895 107.826 201.05 108.287L201.047 108.285Z" fill="var(--fill-0, black)"/>
<path id="Vector_46" d="M200.867 108.596C202.035 109.182 203.727 112.507 206.235 104.816C207.56 100.753 208.088 96.4291 208.112 92.1705C207.781 92.3079 207.447 92.4453 207.115 92.584C209.575 94.6433 213.035 95.0187 215.713 93.1308C215.416 93.0097 215.12 92.89 214.823 92.769C216.589 97.9906 220.393 96.7175 220.39 98.9713C220.39 99.4963 220.24 100.031 220.184 100.552C219.989 102.358 220.158 105.689 221.203 107.176C222.001 108.31 222.937 107.875 224.081 107.61C224.946 107.41 225.928 107.407 226.653 106.837C228.543 105.35 228.088 101.327 228.142 97.4955C228.175 95.1628 228.441 92.6955 228.161 90.3765C227.946 88.6001 226.759 86.821 224.774 86.9693C225.023 87.2957 225.271 87.6208 225.52 87.9472C227.25 83.2071 222.884 78.3147 217.976 79.6095C216.679 79.9523 215.514 80.7466 214.18 80.9602C212.699 81.1968 211.329 80.4188 209.974 79.9523C202.623 77.4183 194.02 81.9694 192.925 88.241C192.207 92.3568 195.092 93.1838 195.381 94.5657C195.709 96.1326 192.818 97.6832 194.235 99.9601C194.826 100.911 196.143 101.201 196.652 102.169C197.551 103.884 197.294 107.116 198.221 108.118C198.912 108.865 199.972 108.679 200.857 108.99C201.743 109.302 202.12 107.901 201.244 107.588C200.81 107.433 199.624 107.461 199.3 107.138C198.615 106.455 199.15 102.044 196.993 100.371C196.342 99.8649 195.218 99.4065 195.403 98.419C195.652 97.0888 197.634 95.7858 196.691 93.7075C196.237 92.7064 195.254 92.0971 194.748 91.1354C192.57 86.9897 199.142 79.5388 207.559 80.9125C209.753 81.2703 211.788 82.7202 214.058 82.5107C216.617 82.2754 218.577 80.2583 221.26 81.1587C223.942 82.0592 225.025 84.9957 224.032 87.5365C223.852 87.9948 224.312 88.5389 224.777 88.5144C226.734 88.4124 226.741 90.9668 226.745 92.3188C226.775 102.391 227.097 105.129 225.69 105.907C225.059 106.256 224.115 106.252 223.422 106.425C222.888 106.56 222.636 106.822 222.277 106.445C221.509 105.64 221.288 102.271 221.438 100.688C221.514 99.8853 221.791 99.0229 221.564 98.2218C220.865 95.7572 217.484 96.7787 215.996 92.4453C215.88 92.1079 215.445 91.8427 215.106 92.0835C212.893 93.6585 210.025 93.479 207.946 91.7557C207.571 91.4442 206.949 91.6292 206.949 92.1691C206.941 101.267 204.296 108.503 203.031 108.851C202.568 108.979 202.601 108.509 201.148 107.941C200.773 107.795 200.513 108.413 200.874 108.594L200.867 108.596Z" fill="var(--fill-0, #010101)"/>
</g>
<g id="Group_14">
<path id="Vector_47" d="M61.9746 331.037C186.351 330.595 310.727 330.153 435.103 329.711C435.457 334.64 435.81 339.569 436.164 344.498C311.788 344.805 187.412 345.111 63.0355 345.417C62.6819 340.623 62.3282 335.83 61.9746 331.037Z" fill="url(#paint5_linear_4228_9581)"/>
<path id="Vector_48" d="M61.9761 331.448C85.0171 331.935 412.84 330.598 435.105 330.509C434.839 330.244 434.574 329.979 434.309 329.714C434.664 334.643 435.023 339.572 435.375 344.501C435.639 344.237 435.903 343.973 436.166 343.711C387.562 343.803 90.2047 344.488 63.037 344.553C63.3254 344.841 63.6151 345.131 63.9035 345.419C63.5498 340.626 63.1962 335.833 62.8425 331.04C62.7609 329.934 61.0254 329.924 61.1084 331.04C61.462 335.833 61.817 340.626 62.1706 345.419C62.2046 345.886 62.5392 346.287 63.037 346.286C463.042 345.283 437.043 345.693 436.957 344.501C436.602 339.572 436.253 334.643 435.9 329.714C435.87 329.285 435.56 328.917 435.105 328.918C374.054 329.112 85.4958 329.968 61.9761 330.632C61.4511 330.647 61.4497 331.437 61.9761 331.448Z" fill="var(--fill-0, #010101)"/>
</g>
<g id="Group_15">
<path id="Vector_49" d="M115.103 215.757C119.093 214.024 123.458 216.307 124.01 216.595C129.293 219.359 130.294 226.793 131.678 240C133.132 253.868 131.208 256.408 129.864 257.573C127.373 259.733 123.889 259.766 121.613 259.528C120.764 270.797 124.524 275.349 123.151 278.079C121.186 281.988 112.141 283.305 108.739 279.706C105.029 275.78 110.304 269.095 108.669 244.925C104.706 244.01 102.789 240.972 103.319 239.319C103.792 237.842 106.471 236.692 109.63 237.305C109.504 236.158 108.031 221.812 112.799 217.308C113.882 216.286 115.105 215.754 115.105 215.754L115.103 215.757Z" fill="var(--fill-0, #FFFDFB)"/>
<path id="Vector_50" d="M115.253 216.299C118.731 215.018 123.425 216.2 125.871 219.057C128.228 221.81 128.94 225.854 129.52 229.309C130.413 234.639 132.652 250.542 130.415 255.463C129.033 258.504 125.033 259.046 121.613 258.708C121.148 258.662 120.819 259.125 120.79 259.531C120.416 264.692 121.14 269.662 122.364 274.662C122.699 276.029 122.927 277.255 121.949 278.413C119.136 281.738 109.232 282.489 108.281 276.914C107.538 272.557 110.816 264.981 109.478 244.93C109.455 244.579 109.244 244.238 108.884 244.149C106.996 243.681 104.455 242.418 104.073 240.257C103.644 237.833 108.017 237.84 109.417 238.08C109.871 238.159 110.491 237.874 110.429 237.309C110.076 234.113 110.002 230.853 110.223 227.645C110.51 223.502 111.237 218.338 115.495 216.431C116.408 216.023 115.618 214.682 114.711 215.087C110.206 217.103 109.138 222.277 108.719 226.712C108.389 230.22 108.45 233.805 108.829 237.308C109.167 237.051 109.504 236.794 109.841 236.537C107.401 236.111 102.363 236.456 102.428 239.981C102.485 243.039 105.853 245.062 108.452 245.709C108.254 245.45 108.055 245.189 107.858 244.929C109.179 265.064 105.782 273.033 106.744 277.56C108.416 285.433 124.263 283.368 124.328 276.598C124.354 274.003 121.733 269.221 122.436 259.531C122.161 259.806 121.887 260.081 121.613 260.354C125.045 260.694 129.408 260.138 131.458 256.992C134.6 252.167 132.197 235.999 131.341 230.283C130.736 226.238 130.015 221.681 127.375 218.396C124.539 214.867 118.935 213.44 114.822 215.275C114.247 215.532 114.657 216.521 115.255 216.3L115.253 216.299Z" fill="var(--fill-0, #010101)"/>
</g>
<g id="Group_16">
<path id="Vector_51" d="M67.5639 351.506C61.6976 342.311 62.9666 331.494 65.7223 309.888C68.0277 291.809 71.2227 271.744 89.4011 270.244C100.099 269.359 102.905 277.405 112.43 278.184C122.428 279.003 124.239 270.539 136.782 270.773C144.332 270.913 149.887 274.226 151.605 275.272C161.82 281.493 165.229 292.425 168.414 302.271C184.387 351.687 187.83 352.734 184.825 358.387C175.584 375.768 139.664 372.215 117.592 370.034C96.0971 367.908 76.8129 366.001 67.5639 351.504V351.506Z" fill="var(--fill-0, #5C5C5C)"/>
<path id="Vector 2978" d="M66.9254 308.47L141.023 309.523L152.023 335.023L147.523 307.023L167.717 298.087C167.717 298.087 163.15 284.507 156.667 278.668C149.917 272.589 144.605 270.81 135.523 271.025C126.922 271.228 121.128 278.678 112.523 278.668C105.169 278.66 105.07 273.353 97.5234 272.026C87.1528 270.201 82.0338 271.287 74.5234 278.668C65.4743 287.561 66.9254 308.47 66.9254 308.47Z" fill="var(--fill-0, #17398F)"/>
<path id="Vector 2982_3" d="M148.213 306.523V316.023L151.523 334.023L131.023 323.625L130.023 314.895L148.213 306.523Z" fill="var(--fill-0, #D9D9D9)" stroke="var(--stroke-0, black)"/>
<path id="Vector_52" d="M67.8587 351.334C61.7611 340.833 64.3182 326.165 65.9762 313.332C68.4408 294.241 71.089 271.288 90.6589 270.932C101.404 270.736 105.332 281.466 117.208 278.598C122.378 277.349 125.823 273.112 132.21 271.894C139.052 270.588 146.301 272.691 152.034 276.462C163.653 284.105 166.204 298.638 173.293 319.522C178.277 334.203 184.243 349.286 184.928 353.773C185.11 354.966 184.913 356.017 184.976 355.608C184.391 359.476 180.018 363.55 176.332 365.612C161.826 373.722 134.869 370.936 118.5 369.316C99.625 367.448 77.8585 366 68.2572 351.105C67.6995 350.238 66.3081 351.043 66.8698 351.915C75.2388 364.901 91.494 367.847 105.725 369.589C113.141 370.496 120.593 371.205 128.038 371.825C144.707 373.211 173.087 374.771 183.588 361.689C189.996 353.708 186.298 354.663 169.973 304.548C167.539 297.074 165.339 289.249 160.696 282.78C153.684 273.01 141.788 268.644 132.071 270.37C121.989 272.161 118.428 281.424 106.754 275.867C101.578 273.403 97.4827 268.697 89.1341 269.521C73.37 271.077 68.5823 285.826 66.1626 301.459C64.8772 309.759 63.8503 318.156 63.1593 326.525C62.38 335.954 62.0835 344.134 67.2684 351.681C67.5159 352.042 68.0885 351.722 67.8627 351.333L67.8587 351.334Z" fill="var(--fill-0, #010101)"/>
</g>
<g id="Group_17">
<path id="Vector_53" d="M58.3311 365.428C54.3935 354.917 56.7003 348.962 56.8485 324.88C56.9288 311.904 56.1195 304.974 71.3029 301.542C87.4696 297.887 104.191 297.332 120.523 299.907C139.639 302.921 143.656 310.225 147.983 326.019C158.469 364.294 159.216 365.031 158.12 367.994C157.198 370.487 154.657 371.614 152.357 372.426C125.567 381.894 74.6828 378.283 74.6828 378.283C65.9575 377.814 61.3194 373.406 58.3297 365.427L58.3311 365.428Z" fill="var(--fill-0, black)"/>
<path id="Vector_54" d="M58.7978 365.299C55.1186 354.902 57.526 350.528 57.6933 320.833C57.7178 316.432 57.5886 311.947 60.1294 308.38C63.406 303.778 69.9904 302.549 75.971 301.451C86.7502 299.472 97.6192 298.921 108.215 299.57C121.203 300.366 135.161 302.131 141.489 311.919C145.125 317.543 145.721 321.553 153.875 351.298C157.21 363.466 157.848 364.96 157.38 367.052C156.608 370.502 152.141 371.591 148.603 372.621C129.23 378.263 98.7304 378.544 78.6954 377.539C68.1896 377.011 63.7038 375.76 59.0684 364.998C58.6862 364.112 57.2064 364.743 57.507 365.657C59.4629 371.606 63.3488 376.666 69.5702 378.486C76.0078 380.37 125.918 382.01 150.895 373.937C157.557 371.784 160.821 369.533 158.876 362.027C156.969 354.667 154.862 347.355 152.853 340.022C148.079 322.59 146.302 310.598 136.574 304.237C126.254 297.487 99.3615 295.113 75.5154 299.792C69.8721 300.899 63.1911 301.964 59.3201 306.69C54.8057 312.202 56.4882 318.419 55.732 338.501C55.3416 348.844 54.244 356.292 57.8661 365.56C58.0891 366.13 59.0113 365.899 58.8005 365.303L58.7978 365.299Z" fill="var(--fill-0, #010101)"/>
</g>
<g id="Vector_55">
<path d="M260.448 274.361C259.402 274.442 258.703 275.47 259.021 276.471C276.163 330.463 274.057 330.404 276.467 330.42C307.692 330.635 338.904 329.744 370.066 327.754C372.108 327.623 372.071 324.582 370.027 324.497C360.555 324.103 351.083 323.71 341.61 323.317C340.896 323.287 340.284 322.795 340.102 322.104L326.584 270.665C326.384 269.904 325.668 269.394 324.885 269.454C303.405 271.089 281.926 272.725 260.448 274.36V274.361Z" fill="var(--fill-0, #FECE2E)"/>
<path d="M260.448 274.361C259.402 274.442 258.703 275.47 259.021 276.471C276.163 330.463 274.057 330.404 276.467 330.42C307.692 330.635 338.904 329.744 370.066 327.754C372.108 327.623 372.071 324.582 370.027 324.497C360.555 324.103 351.083 323.71 341.61 323.317C340.896 323.287 340.284 322.795 340.102 322.104L326.584 270.665C326.384 269.904 325.668 269.394 324.885 269.454C303.405 271.089 281.926 272.725 260.448 274.36V274.361Z" fill="url(#paint6_linear_4228_9581)"/>
<path d="M260.448 274.361C259.402 274.442 258.703 275.47 259.021 276.471C276.163 330.463 274.057 330.404 276.467 330.42C307.692 330.635 338.904 329.744 370.066 327.754C372.108 327.623 372.071 324.582 370.027 324.497C360.555 324.103 351.083 323.71 341.61 323.317C340.896 323.287 340.284 322.795 340.102 322.104L326.584 270.665C326.384 269.904 325.668 269.394 324.885 269.454C303.405 271.089 281.926 272.725 260.448 274.36V274.361Z" fill="url(#paint7_linear_4228_9581)" fill-opacity="0.2"/>
</g>
<g id="Group_18">
<g id="Vector_56">
<path d="M264.765 280.036C269.266 295.176 273.767 310.316 278.267 325.456C278.537 326.36 279.399 326.955 280.339 326.882L336.025 322.666C337.292 322.569 338.151 321.334 337.798 320.113C333.412 304.897 329.027 289.681 324.64 274.465C324.376 273.55 323.506 272.947 322.556 273.022C303.88 274.503 285.203 275.986 266.526 277.467C265.256 277.567 264.401 278.813 264.764 280.035L264.765 280.036Z" fill="var(--fill-0, white)"/>
<path d="M264.765 280.036C269.266 295.176 273.767 310.316 278.267 325.456C278.537 326.36 279.399 326.955 280.339 326.882L336.025 322.666C337.292 322.569 338.151 321.334 337.798 320.113C333.412 304.897 329.027 289.681 324.64 274.465C324.376 273.55 323.506 272.947 322.556 273.022C303.88 274.503 285.203 275.986 266.526 277.467C265.256 277.567 264.401 278.813 264.764 280.035L264.765 280.036Z" fill="url(#paint8_linear_4228_9581)"/>
</g>
<path id="Vector_57" d="M264.518 280.101C267.499 290.902 270.154 299.567 276.497 320.901C277.914 325.669 277.949 326.344 278.965 326.946C279.897 327.499 279.092 327.42 307.473 325.286C316.45 324.611 335.489 323.196 336.026 323.13C337.483 322.95 338.534 321.741 338.31 320.245C338.298 320.163 331.183 295.079 326.674 279.375C325.133 274.009 325.13 273.539 324.22 272.898C323.059 272.081 324.143 272.225 283.175 275.526C281.914 275.628 267.706 276.735 266.455 276.916C264.836 277.15 263.884 278.588 264.259 280.172C264.416 280.833 265.418 280.552 265.274 279.892C264.817 277.797 266.84 278.019 271.807 277.646C323.366 273.788 322.565 273.246 323.484 273.852C324.026 274.208 324.124 274.816 324.292 275.398C337.157 319.842 336.539 316.868 337.24 319.84C337.495 320.924 337.302 321.98 336.021 322.191C335.516 322.274 287.94 325.82 283.063 326.243C280.754 326.443 279.503 326.772 278.841 325.749C278.499 325.219 268.785 291.792 265.014 279.961C264.914 279.646 264.427 279.776 264.516 280.099L264.518 280.101Z" fill="var(--fill-0, #010101)"/>
</g>
<g id="Group_19">
<path id="Vector_58" d="M380.439 218.527C376.45 216.794 372.085 219.076 371.533 219.364C366.25 222.128 365.249 229.563 363.865 242.77C362.411 256.638 364.335 259.177 365.679 260.343C368.17 262.503 371.654 262.536 373.93 262.298C374.778 273.566 371.019 278.119 372.391 280.849C374.357 284.758 383.402 286.074 386.804 282.475C390.514 278.55 385.239 271.865 386.874 247.695C390.836 246.78 392.754 243.741 392.224 242.088C391.75 240.611 389.072 239.462 385.913 240.074C386.039 238.927 387.512 224.582 382.744 220.077C381.661 219.056 380.438 218.524 380.438 218.524L380.439 218.527Z" fill="var(--fill-0, #FFFDFB)"/>
<path id="Vector_59" d="M380.721 218.044C376.984 216.376 371.997 217.41 369.023 220.229C366.145 222.956 365.209 227.211 364.541 230.958C363.483 236.901 361.06 253.794 363.779 259.228C365.573 262.811 370.349 263.477 373.927 263.123C373.653 262.848 373.378 262.573 373.105 262.3C373.713 270.657 372.008 274.169 371.33 278.206C370.061 285.749 385.214 288.124 388.325 281.703C389.762 278.735 388.548 275.145 387.877 267.798C387.266 261.115 387.245 254.391 387.683 247.698C387.484 247.957 387.285 248.218 387.088 248.478C389.694 247.828 393.046 245.81 393.112 242.749C393.19 239.225 388.131 238.881 385.7 239.305C386.037 239.562 386.374 239.82 386.711 240.077C387.091 236.574 387.152 232.988 386.822 229.481C386.403 225.046 385.335 219.872 380.83 217.856C379.924 217.45 379.131 218.79 380.045 219.2C384.304 221.105 385.03 226.271 385.317 230.414C385.539 233.621 385.464 236.882 385.112 240.078C385.049 240.642 385.67 240.928 386.124 240.849C387.53 240.606 391.898 240.603 391.468 243.025C391.084 245.185 388.545 246.449 386.657 246.918C386.294 247.008 386.086 247.348 386.063 247.699C384.352 273.344 390.415 279.745 385.083 282.781C381.089 285.055 372.152 283.272 372.928 278.559C373.593 274.518 375.358 270.695 374.75 262.301C374.72 261.892 374.395 261.432 373.927 261.479C371.565 261.713 369.032 261.594 366.972 260.287C364.156 258.5 364.16 254.749 364.17 251.141C364.185 245.406 364.908 239.602 365.733 233.931C366.281 230.154 366.889 225.969 369.02 222.703C371.294 219.22 376.441 217.653 380.289 219.07C380.879 219.288 381.304 218.305 380.721 218.045V218.044Z" fill="var(--fill-0, #010101)"/>
</g>
<g id="Group_20">
<g id="Vector_60">
<path d="M405.242 267.83C408.172 267.767 411.038 268.19 412.757 268.733C416.614 269.953 419.649 273.363 422.029 278.026C424.403 282.68 426.083 288.501 427.272 294.398C429.648 306.19 430.037 318.175 430.144 321.477C430.558 334.261 430.898 344.854 429.717 353.383C428.538 361.897 425.852 368.271 420.275 372.684L420.273 372.685C419.177 373.552 418.112 374.233 416.586 374.755C415.049 375.28 413.021 375.652 409.993 375.862C403.93 376.284 393.969 376.057 376.138 375.225C355.353 374.254 342.909 373.352 335.346 371.965C331.565 371.271 329.046 370.464 327.328 369.491C325.632 368.531 324.709 367.407 324.119 366.04C323.197 363.901 323.273 361.582 323.873 359.161C324.475 356.734 325.589 354.259 326.689 351.818C327.778 349.402 328.863 347.004 329.339 344.809C329.819 342.599 329.704 340.497 328.284 338.747C327.249 337.469 325.9 336.854 324.401 336.531C322.923 336.214 321.24 336.171 319.531 336.073C316.079 335.877 312.317 335.456 308.818 332.336C305.512 329.388 303.396 324.879 303.426 320.536C303.468 314.601 307.544 310.229 310.036 307.646C322.262 294.973 331.404 285.499 338.958 279.182C346.52 272.858 352.401 269.779 358.101 269.753C364.581 269.723 368.886 271.852 373.003 273.545C377.006 275.191 380.823 276.411 386.098 274.601L386.614 274.416C388.007 273.895 389.337 273.226 390.67 272.523C392.011 271.817 393.348 271.08 394.794 270.398C397.67 269.043 400.936 267.923 405.242 267.83Z" fill="var(--fill-0, #878484)"/>
<path d="M405.242 267.83C408.172 267.767 411.038 268.19 412.757 268.733C416.614 269.953 419.649 273.363 422.029 278.026C424.403 282.68 426.083 288.501 427.272 294.398C429.648 306.19 430.037 318.175 430.144 321.477C430.558 334.261 430.898 344.854 429.717 353.383C428.538 361.897 425.852 368.271 420.275 372.684L420.273 372.685C419.177 373.552 418.112 374.233 416.586 374.755C415.049 375.28 413.021 375.652 409.993 375.862C403.93 376.284 393.969 376.057 376.138 375.225C355.353 374.254 342.909 373.352 335.346 371.965C331.565 371.271 329.046 370.464 327.328 369.491C325.632 368.531 324.709 367.407 324.119 366.04C323.197 363.901 323.273 361.582 323.873 359.161C324.475 356.734 325.589 354.259 326.689 351.818C327.778 349.402 328.863 347.004 329.339 344.809C329.819 342.599 329.704 340.497 328.284 338.747C327.249 337.469 325.9 336.854 324.401 336.531C322.923 336.214 321.24 336.171 319.531 336.073C316.079 335.877 312.317 335.456 308.818 332.336C305.512 329.388 303.396 324.879 303.426 320.536C303.468 314.601 307.544 310.229 310.036 307.646C322.262 294.973 331.404 285.499 338.958 279.182C346.52 272.858 352.401 269.779 358.101 269.753C364.581 269.723 368.886 271.852 373.003 273.545C377.006 275.191 380.823 276.411 386.098 274.601L386.614 274.416C388.007 273.895 389.337 273.226 390.67 272.523C392.011 271.817 393.348 271.08 394.794 270.398C397.67 269.043 400.936 267.923 405.242 267.83Z" fill="var(--fill-1, #6C6B6A)"/>
<path d="M405.242 267.83C408.172 267.767 411.038 268.19 412.757 268.733C416.614 269.953 419.649 273.363 422.029 278.026C424.403 282.68 426.083 288.501 427.272 294.398C429.648 306.19 430.037 318.175 430.144 321.477C430.558 334.261 430.898 344.854 429.717 353.383C428.538 361.897 425.852 368.271 420.275 372.684L420.273 372.685C419.177 373.552 418.112 374.233 416.586 374.755C415.049 375.28 413.021 375.652 409.993 375.862C403.93 376.284 393.969 376.057 376.138 375.225C355.353 374.254 342.909 373.352 335.346 371.965C331.565 371.271 329.046 370.464 327.328 369.491C325.632 368.531 324.709 367.407 324.119 366.04C323.197 363.901 323.273 361.582 323.873 359.161C324.475 356.734 325.589 354.259 326.689 351.818C327.778 349.402 328.863 347.004 329.339 344.809C329.819 342.599 329.704 340.497 328.284 338.747C327.249 337.469 325.9 336.854 324.401 336.531C322.923 336.214 321.24 336.171 319.531 336.073C316.079 335.877 312.317 335.456 308.818 332.336C305.512 329.388 303.396 324.879 303.426 320.536C303.468 314.601 307.544 310.229 310.036 307.646C322.262 294.973 331.404 285.499 338.958 279.182C346.52 272.858 352.401 269.779 358.101 269.753C364.581 269.723 368.886 271.852 373.003 273.545C377.006 275.191 380.823 276.411 386.098 274.601L386.614 274.416C388.007 273.895 389.337 273.226 390.67 272.523C392.011 271.817 393.348 271.08 394.794 270.398C397.67 269.043 400.936 267.923 405.242 267.83Z" stroke="var(--stroke-0, #2B2B2B)"/>
</g>
<path id="Vector 2624" d="M325.72 336.927C325.629 337.058 325.48 337.138 325.32 337.141C322.369 337.199 319.141 336.926 314.586 335.652C308.006 333.811 305.072 328.127 303.942 325.948L303.939 325.944C303.832 325.737 303.882 325.482 304.061 325.331C305.974 323.721 312.005 321.523 318.67 326.204C321.514 328.201 322.976 329.815 323.888 331.443C324.78 333.035 325.142 334.657 325.782 336.476L325.808 336.591C325.82 336.709 325.789 336.828 325.72 336.927Z" fill="var(--fill-0, #D2D2D2)" stroke="var(--stroke-0, #292827)" stroke-linecap="round" stroke-linejoin="round"/>
<path id="Vector_61" d="M406.113 267.076C410.262 267.021 414.17 267.968 416.959 270.179C420.065 272.639 422.497 276.557 424.396 281.354C426.293 286.146 427.642 291.773 428.606 297.604C430.533 309.265 430.912 321.673 431.099 329.709C431.306 338.629 431.56 347.713 429.848 356.438C428.643 362.576 426.661 366.659 424.029 369.693C427.464 365.276 429.293 359.725 430.181 352.882C431.321 344.097 430.922 333.113 430.348 319.558C430.06 312.761 429.331 302.709 427.349 293.283C426.358 288.57 425.051 283.999 423.323 280.064C421.596 276.135 419.433 272.803 416.711 270.608C413.846 268.297 410.27 267.704 406.794 267.592C400.881 267.4 396.82 269.066 393.251 270.89C389.666 272.722 386.686 274.638 382.774 275.141C379.304 275.587 376.227 274.573 372.941 273.26C369.677 271.955 366.199 270.349 362.064 269.774C358.968 269.344 356.074 269.441 352.979 270.367C349.891 271.291 346.63 273.032 342.789 275.853C335.121 281.484 325.047 291.486 309.311 308.104C306.301 311.283 303.51 315.164 303.248 319.84C302.96 324.993 305.593 330.299 309.724 333.335C314.23 336.646 319.094 336.092 322.757 336.487C325.799 336.816 328.587 338.141 329.246 341.164C329.631 342.922 329.26 344.885 328.504 347.018C327.747 349.154 326.642 351.37 325.612 353.661C324.592 355.929 323.654 358.257 323.3 360.532C322.944 362.821 323.174 365.084 324.515 367.189C325.296 368.414 326.617 369.359 328.186 370.102C329.761 370.847 331.634 371.411 333.576 371.849C337.46 372.723 341.706 373.108 344.568 373.395C357.763 374.717 387.855 376.121 400.548 376.238C403.791 376.268 407.525 376.385 411.027 376.028C414.271 375.698 417.391 374.953 419.785 373.301C419.82 373.412 419.871 373.512 419.929 373.588C419.983 373.659 420.052 373.727 420.134 373.783C416.979 376.021 414.018 376.435 409.511 376.714C398.521 377.393 367.122 375.677 356.083 374.941C352.426 374.698 346.337 374.35 340.452 373.58C337.511 373.195 334.631 372.706 332.141 372.074C329.639 371.44 327.575 370.673 326.232 369.754H326.231C323.485 367.874 322.341 364.655 322.692 361.294C323.081 357.557 324.813 354.003 326.363 350.648C327.13 348.987 327.855 347.369 328.314 345.833C328.773 344.297 328.981 342.797 328.679 341.379C328.474 340.417 328.094 339.654 327.555 339.056C327.017 338.46 326.343 338.053 325.585 337.767C324.097 337.203 322.196 337.074 320.203 336.919C316.157 336.603 311.474 336.167 307.587 332.262C304.25 328.909 302.216 323.985 302.708 319.27V319.269C303.08 315.703 304.669 312.727 307.513 309.276C310.371 305.808 314.439 301.926 319.731 296.514C333.397 282.536 341.947 274.618 349.431 271.151C353.149 269.429 356.597 268.811 360.282 269.104C363.981 269.397 367.941 270.61 372.682 272.588C377.729 274.694 380.899 275.122 383.942 274.429C385.447 274.086 386.898 273.473 388.502 272.694C389.305 272.305 390.154 271.87 391.069 271.404C391.985 270.937 392.974 270.437 394.062 269.912C397.639 268.187 401.968 267.131 406.113 267.076Z" fill="var(--fill-0, #878484)" stroke="var(--stroke-0, #2B2B2B)"/>
</g>
<g id="Group_21">
<path id="Vector_62" d="M441.241 365.428C445.178 354.917 442.872 348.962 442.723 324.88C442.643 311.904 443.452 304.974 428.269 301.542C412.102 297.887 395.381 297.332 379.049 299.907C359.932 302.921 355.916 310.225 351.589 326.019C341.102 364.294 340.356 365.031 341.452 367.994C342.374 370.487 344.915 371.614 347.215 372.426C374.004 381.894 424.889 378.283 424.889 378.283C433.614 377.814 438.252 373.406 441.242 365.427L441.241 365.428Z" fill="var(--fill-0, black)"/>
<path id="Vector_63" d="M441.705 365.555C444.536 358.31 444.424 352.903 444.128 345.519C443.1 319.856 444.014 316.805 442.882 312.013C441.703 307.018 437.836 303.721 433.138 302.024C428.187 300.234 418.161 298.666 412.929 298.089C400.286 296.696 382.351 297.178 370.873 300.676C365.128 302.427 359.91 305.552 356.533 310.627C352.882 316.114 351.43 322.807 349.714 329.073C349.691 329.156 340.754 361.774 340.604 362.378C339.879 365.316 339.795 368.522 342.162 370.75C346.556 374.887 363.762 377.503 369.913 378.24C386.079 380.177 405.411 380.258 421.281 379.467C427.601 379.151 433.289 378.761 437.874 373.448C439.85 371.158 441.125 368.507 442.063 365.652C442.36 364.749 440.888 364.097 440.502 364.993C437.856 371.139 434.873 375.464 428.255 376.895C423.942 377.828 376.886 380.253 350.741 372.55C347.208 371.51 342.759 370.41 342.151 366.828C341.79 364.702 341.952 364.946 348.64 340.548C353.599 322.456 355.264 311.431 364.401 305.711C373.374 300.097 391.904 299.168 402.344 299.342C409.537 299.461 416.717 300.173 423.791 301.484C429.259 302.496 436.066 303.554 439.499 308.464C442.916 313.351 441.325 317.735 442.298 339.481C442.909 353.108 443.396 357.88 440.771 365.297C440.56 365.891 441.482 366.125 441.705 365.554V365.555Z" fill="var(--fill-0, #010101)"/>
</g>
<g id="Group_22">
<path id="Vector_64" d="M369.504 221.854C370.649 222.246 363.835 233.084 376.645 240.152C379.021 237.41 382.337 238.113 383.262 239.887C384.131 241.552 382.877 244.482 379.821 246.769C376.154 254.366 383.49 260.787 387.409 259.475C389.521 258.767 389.63 256.26 391.742 252.169C394.633 246.569 396.994 246.301 399.284 242.542C402.878 236.644 403.663 226.481 398.234 219.834C392.372 212.658 380.191 211.463 371.396 215.622C362.7 216.21 359.496 225.422 364.513 232.034C367.925 223.815 369.148 221.73 369.504 221.853V221.854Z" fill="var(--fill-0, black)"/>
<path id="Vector_65" d="M369.336 222.148C369.163 222.033 369.229 222.257 369.18 222.506C369.123 222.801 369.041 223.092 368.969 223.385C367.118 230.949 368.822 236.399 376.356 240.655C376.571 240.776 376.88 240.753 377.054 240.565C380.484 236.848 386.08 239.939 380.672 245.211C380.238 245.634 379.59 245.974 379.256 246.469C378.393 247.745 378.174 249.859 378.206 251.333C378.329 257.061 383.903 261.06 387.351 260.184C390.749 259.321 390.458 254.071 394.578 248.924C395.798 247.401 397.332 246.175 398.57 244.67C404.304 237.698 404.321 225.856 398.392 219.028C392.449 212.183 381.021 211.02 372.611 214.406C371.929 214.681 371.488 214.967 370.959 215.031C361.808 216.139 358.966 225.583 363.968 232.358C364.309 232.82 364.907 232.725 365.122 232.207C365.91 230.309 368.445 224.114 369.656 222.473C369.687 222.284 369.691 222.542 369.339 222.457C370.117 222.644 370.449 221.444 369.669 221.259C368.705 221.029 368.083 222.605 367.753 223.239C366.298 226.029 365.111 228.97 363.905 231.872C364.29 231.822 364.675 231.771 365.06 231.721C360.532 225.58 362.938 217.399 370.828 216.324C372.259 216.13 373.555 215.361 374.944 214.934C382.041 212.751 391.32 213.709 396.754 219.163C400.161 222.584 401.602 227.453 401.487 232.2C401.244 242.239 395.918 245.143 393.567 248.103C389.088 253.738 389.707 258.501 386.762 258.965C383.408 259.493 377.7 254.603 380.125 247.74C380.579 246.453 382.69 245.83 383.812 242.81C385.507 238.251 379.877 235.74 376.24 239.751C376.473 239.722 376.705 239.692 376.938 239.662C364.331 232.685 371.285 222.529 369.675 221.572C369.301 221.35 368.982 221.912 369.337 222.15L369.336 222.148Z" fill="var(--fill-0, #010101)"/>
</g>
<g id="Group_23">
<path id="Vector_66" d="M406.452 217.673C410.589 218.852 413.919 222.186 415.116 225.734C416.781 230.673 415.238 238.93 420.808 241.791C423.55 243.199 426.911 242.317 429.902 243.065C436.353 244.677 438.506 252.85 433.687 257.431C438.721 257.067 444.906 257.295 447.287 261.746C449.134 265.199 448.288 270.546 441.406 275.136C432.7 280.944 421.994 281.575 415.631 279.327C409.317 277.096 405.894 272.051 404.26 265.826C400.083 249.904 410.49 235.065 406.241 227.754C403.816 223.58 397.445 223.165 395.626 223.104C392.43 218.206 401.135 216.159 406.454 217.674L406.452 217.673Z" fill="var(--fill-0, black)"/>
<path id="Vector_67" d="M395.277 220.606C396.312 217.597 403.034 217.264 406.3 218.211C410.716 219.492 414.084 223.184 414.999 227.665C415.907 232.105 415.263 237.199 418.548 240.817C422.166 244.8 427.252 242.26 431.215 244.214C436.11 246.628 437.083 253.16 433.221 256.966C432.839 257.342 433.107 258.119 433.682 258.078C437.043 257.847 440.874 257.716 443.934 259.362C447.944 261.519 448.193 266.409 445.849 269.956C442.48 275.058 432.657 280.265 422.053 279.756C411.304 279.241 405.824 272.645 404.234 262.261C402.584 251.488 407.162 242.747 407.904 233.634C408.531 225.912 403.363 222.686 395.621 222.41C395.82 222.524 396.017 222.637 396.216 222.751C395.828 222.119 395.46 221.459 395.571 220.688C395.684 219.906 394.518 219.54 394.354 220.352C394.154 221.338 394.332 222.26 394.835 223.135C395.54 224.36 396.329 223.295 400.517 224.546C414.266 228.655 399.93 244.811 402.938 263.011C403.717 267.731 405.453 272.505 408.914 275.927C415.628 282.565 427.234 282.292 435.735 278.909C450.684 272.96 450.88 262.756 445.655 258.883C442.319 256.412 437.624 256.494 433.682 256.774C433.836 257.145 433.99 257.516 434.144 257.886C439.558 252.526 436.626 243.374 429.057 242.257C426.373 241.861 423.317 242.515 420.86 241.109C415.871 238.251 417.215 230.953 415.911 226.274C413.979 219.351 406.201 214.896 398.668 217.218C397.041 217.72 395.1 218.63 394.649 220.433C394.547 220.843 395.141 220.999 395.276 220.606H395.277Z" fill="var(--fill-0, #010101)"/>
</g>
<g id="Group_24">
<path id="Vector_68" d="M117.817 244.173C112.548 243.062 111.504 236.949 113.141 235.481C114.616 234.161 117.159 236.956 119.67 235.702C120.456 235.31 121.41 234.434 123.288 226.79C123.889 224.343 124.32 222.278 124.611 220.79C126.82 222.703 129.496 223.039 130.865 221.922C132.389 220.68 131.971 217.931 131.813 217.249C131.439 215.638 130.562 214.196 129.697 212.787C126.671 207.854 125.89 206.163 124.1 205.515C121.08 204.418 118.296 207.615 115.973 208.746C113.174 210.109 109.893 209.739 106.782 209.841C103.672 209.943 100.152 210.856 98.7426 213.631C97.1431 216.781 99.5873 219.29 97.713 222.623C96.1583 225.386 93.7849 224.637 91.9664 226.834C87.3541 232.407 95.7326 245.843 99.643 252.112C104.916 260.568 108.411 263.159 114.289 255.112C117.379 250.884 117.781 246.352 117.819 244.171L117.817 244.173Z" fill="var(--fill-0, black)"/>
<path id="Vector_69" d="M117.958 243.656C112.531 242.366 111.884 235.294 114.585 235.78C115.726 235.986 116.752 236.568 117.928 236.643C121.15 236.848 122.003 233.653 122.773 231.153C123.8 227.817 124.574 224.393 125.257 220.97C124.883 221.069 124.51 221.167 124.136 221.266C128.287 224.732 132.987 223.621 132.67 218.388C132.524 215.977 131.225 213.919 130 211.908C126.475 206.128 124.756 201.803 117.95 206.613C115.208 208.552 114.011 209.075 109.397 209.119C105.063 209.16 98.5965 209.523 97.6389 214.946C97.1969 217.45 98.5257 219.946 97.201 222.327C96.0027 224.482 93.364 224.497 91.7658 226.201C87.0719 231.208 93.1328 242.342 96.5862 248.203C98.7175 251.819 100.842 255.844 103.945 258.726C110.501 264.817 118.26 253.311 118.453 244.173C118.471 243.351 117.195 243.352 117.177 244.173C117.088 248.443 115.704 252.325 113.111 255.724C107.41 263.196 103.988 258.103 99.0399 250.072C95.9265 245.017 90.2329 235.379 91.2966 229.673C92.2269 224.688 96.6841 226.499 98.5312 222.288C99.4139 220.276 98.7991 218.335 98.7869 216.249C98.7719 213.765 100.45 212.019 102.696 211.223C107.218 209.621 112.29 211.537 116.652 209.225C118.872 208.05 121.787 204.715 124.505 206.551C125.476 207.206 125.823 207.765 129.447 213.754C130.583 215.63 131.737 217.86 131.152 220.125C130.382 223.101 126.684 221.638 125.084 220.316C124.73 220.023 124.068 220.071 123.963 220.612C123.482 223.097 121.504 232.89 119.834 234.8C118.607 236.203 116.187 234.752 114.592 234.544C110.184 233.97 110.936 243.306 117.674 244.688C118.344 244.825 118.634 243.816 117.958 243.656Z" fill="var(--fill-0, #010101)"/>
</g>
<path id="Vector_70" d="M115.621 239.678C115.778 239.696 116.006 239.767 116.339 239.854C116.75 239.961 116.76 240.036 116.648 239.95C116.786 240.058 116.866 240.024 117.278 240.317C117.349 240.368 117.151 240.211 117.264 240.308C117.643 240.636 117.591 240.647 117.698 240.749C117.58 240.637 117.648 240.683 117.681 240.728C117.817 240.916 117.938 241.144 118.211 241.342C118.774 241.747 119.997 240.916 118.551 239.614C117.74 238.885 116.606 238.427 115.499 238.775C115.035 238.921 115.032 239.614 115.621 239.68V239.678Z" fill="var(--fill-0, #010101)"/>
<path id="Vector_71" d="M199.662 111.19C199.946 111.369 200.284 111.235 201.12 111.345C201.01 111.33 201.187 111.327 201.906 111.561C202.255 111.675 202.622 112.066 202.996 112.151C203.522 112.272 203.967 111.723 203.696 111.24C203.122 110.213 199.985 109.904 199.557 110.787C199.487 110.934 199.519 111.099 199.664 111.19H199.662Z" fill="var(--fill-0, #010101)"/>
<path id="Vector_72" d="M210.603 130.564C212.119 132.333 215.358 131.885 215.49 130.998C215.52 130.8 215.471 130.604 215.286 130.496C214.909 130.277 214.434 130.586 214.052 130.672C212.974 130.914 211.853 130.62 210.974 130.083C210.664 129.894 210.385 130.31 210.603 130.563V130.564Z" fill="var(--fill-0, #010101)"/>
<path id="Vector_73" d="M225.094 109C224.917 108.925 225.026 108.831 224.537 108.773C224.008 108.709 223.502 108.709 222.912 108.787C220.405 109.116 220.39 110.151 221.047 110.374C221.492 110.526 222.527 109.648 224.469 109.717C224.939 109.733 224.858 109.634 225.009 109.62C225.379 109.59 225.42 109.137 225.094 109Z" fill="var(--fill-0, #010101)"/>
<path id="Vector_74" d="M212.18 107.55C212.086 109.082 212.851 109.726 212.504 113.253C212.18 116.55 211.115 117.362 211.458 118.623C211.82 119.953 213.347 120.04 213.361 119.276C213.366 118.988 213.127 118.899 212.894 118.811C211.266 118.193 214.08 116.182 213.427 110.425C213.316 109.442 213.218 108.251 212.608 107.435C212.474 107.254 212.195 107.311 212.181 107.55H212.18Z" fill="var(--fill-0, #010101)"/>
<path id="Vector_75" d="M212.283 122.451C212.592 122.904 214.993 123.027 216.653 121.32C216.417 121.257 216.179 121.194 215.942 121.132C216.13 121.866 215.979 122.665 215.531 123.28C214.662 124.474 213.529 124.203 213.124 124.345C212.607 124.524 212.611 125.528 214.298 125.116C217.74 124.272 217.11 119.598 216.052 120.72C214.536 122.329 212.614 121.88 212.388 122.053C212.27 122.144 212.185 122.308 212.283 122.453V122.451Z" fill="var(--fill-0, #010101)"/>
<path id="Vector_76" d="M214.82 109.408C215.217 109.359 215.513 109.106 215.87 108.943C216.198 108.792 216.544 108.704 216.894 108.621C217.901 108.384 218.434 108.546 218.994 108.625C219.697 108.724 219.88 107.879 219.265 107.644C217.615 107.012 214.839 108.003 214.519 109.011C214.463 109.186 214.62 109.431 214.821 109.407L214.82 109.408Z" fill="var(--fill-0, #010101)"/>
<path id="Vector_77" d="M211.181 108.884C211.336 108.236 209.22 106.973 207.107 107.333C205.393 107.625 205.406 108.416 205.936 108.609C206.471 108.805 206.759 108.048 208.71 108.286C209.126 108.337 209.549 108.458 209.927 108.64C210.18 108.761 211.046 109.443 211.181 108.884Z" fill="var(--fill-0, #010101)"/>
<path id="Vector_78" d="M209.285 110.025C209.576 109.929 209.843 109.663 209.938 109.372C210.101 109.063 210.034 108.828 210 108.568C209.942 108.358 209.836 108.177 209.684 108.024L209.433 107.831C209.105 107.64 208.663 107.595 208.334 107.768C208.043 107.863 207.777 108.13 207.681 108.421C207.518 108.73 207.585 108.965 207.619 109.225C207.677 109.434 207.783 109.615 207.936 109.769C208.019 109.833 208.102 109.898 208.186 109.962C208.506 110.147 208.949 110.2 209.285 110.025Z" fill="var(--fill-0, #010101)"/>
<path id="Vector_79" d="M217.456 110.146C217.751 110.05 218.021 109.779 218.117 109.485C218.281 109.171 218.215 108.934 218.179 108.671C218.119 108.458 218.012 108.275 217.857 108.118C217.773 108.053 217.688 107.988 217.604 107.922C217.271 107.729 216.823 107.684 216.49 107.86C216.195 107.956 215.924 108.227 215.829 108.521C215.664 108.835 215.731 109.072 215.766 109.336C215.826 109.548 215.934 109.731 216.089 109.888C216.173 109.953 216.257 110.018 216.342 110.084C216.667 110.271 217.116 110.326 217.456 110.146Z" fill="var(--fill-0, #010101)"/>
<path id="Vector_80" d="M379.613 241.302C379.579 241.302 379.547 241.302 379.514 241.3C379.639 241.372 379.766 241.444 379.891 241.516C379.683 241.195 379.37 241.108 379.146 241.188C377.77 241.679 376.812 242.469 376.096 243.456C375.873 243.763 375.674 244.242 375.764 244.567C375.805 244.714 375.893 244.782 375.951 244.899C376.029 245.061 376.231 244.991 376.333 244.967H376.129C376.995 245.133 376.972 244.221 378.423 243.049C378.223 243.211 378.574 242.905 379.097 242.62C379.399 242.457 379.662 242.354 379.487 242.426C379.886 242.26 379.978 242.006 379.951 241.736C379.909 241.84 379.865 241.942 379.823 242.045L379.818 242.05C380.128 241.832 380.039 241.3 379.615 241.302H379.613Z" fill="var(--fill-0, #010101)"/>
<path id="Vector_81" d="M352.005 305.057C351.627 305.79 351.814 305.292 349.176 309.259C347.766 311.381 344.563 316.561 340.587 321.525C333.212 330.73 329.986 332.075 327.365 335.997C327.164 336.298 327.546 336.587 327.823 336.455C333.574 333.695 344.013 320.091 347.641 314.218C351.672 307.69 351.28 306.838 352.154 305.146C352.204 305.048 352.056 304.961 352.005 305.059V305.057Z" fill="var(--fill-0, #010101)"/>
<path id="Vector_82" d="M231.957 138.28C231.847 138.192 231.672 138.028 231.678 138.157C231.678 138.184 231.832 138.367 231.848 138.388C231.91 138.467 232.036 138.343 231.957 138.28Z" fill="var(--fill-0, #010101)"/>
<path id="Vector_83" d="M231.738 138.038C231.86 137.902 231.934 137.805 232.044 137.656C231.794 137.588 231.542 137.52 231.292 137.452C231.422 138.729 231.987 140.003 232.385 141.219C232.812 142.522 233.235 143.827 233.683 145.123C236.036 151.937 235.988 152.042 236.471 152.44C236.653 152.591 236.969 152.559 237.03 152.292C237.176 151.668 236.985 151.303 236.12 148.712C235.863 147.941 232.679 138.272 232.044 137.247C231.769 136.804 231.058 137.224 231.347 137.656C231.554 137.963 231.662 138.123 231.738 138.038Z" fill="var(--fill-0, #010101)"/>
<path id="Vector_84" d="M190.451 134.592C189.617 135.542 188.374 146.306 189.613 149.701C189.688 149.908 190.047 149.965 190.093 149.701C190.462 147.593 189.73 143.308 190.904 136.365C190.995 135.829 191.169 135.263 190.993 134.737C190.921 134.52 190.621 134.399 190.449 134.594L190.451 134.592Z" fill="var(--fill-0, #010101)"/>
<path id="Vector_85" d="M147.672 295.243C146.814 296.664 146.973 298.403 146.977 300.004C146.997 307.74 147.805 316.464 149.549 325.577C150.602 331.078 151.022 332.756 152.434 335.452C152.627 335.822 153.23 335.65 153.219 335.24C153.171 333.572 153.045 332.031 152.668 330.399C147.725 309.038 149.463 297.943 147.871 295.243C147.827 295.168 147.717 295.17 147.672 295.243Z" fill="var(--fill-0, #010101)"/>
<path id="Vector_86" d="M220.984 258.208C217.332 265.268 210.942 279.304 210.288 281.54C210.096 282.196 210.128 282.869 209.96 283.528C209.871 283.88 210.343 284.069 210.537 283.771C212.051 281.443 211.466 283.291 213.766 277.974C216.916 270.695 218.784 266.553 221.719 258.519C221.875 258.092 221.193 257.807 220.984 258.208Z" fill="var(--fill-0, white)"/>
<path id="Vector_87" d="M244.882 276.631C242.839 278.41 242.977 281.046 244.231 283.282C245.048 284.74 246.215 285.965 247.132 287.357C249.58 291.07 248.352 294.303 248.289 298.224C248.216 302.873 249.904 308.964 251.411 315.565C253.613 325.213 253.858 326.675 254.788 328.797C254.859 328.957 255.113 328.871 255.109 328.709C254.919 321.531 248.862 306.161 249.708 295.097C250 291.274 249.879 289.128 247.605 286.178C246.523 284.773 245.18 283.463 244.514 281.791C243.888 280.223 243.521 277.926 244.941 276.689C244.98 276.655 244.923 276.597 244.884 276.632L244.882 276.631Z" fill="var(--fill-0, white)"/>
<path id="Vector_88" d="M183.58 277.016C177.486 281.006 183.499 290.23 182.422 295.914C181.865 298.849 179.225 300.697 178.779 303.426C178.394 305.781 179.497 307.948 181.521 313.208C182.792 316.51 182.789 316.743 183.983 318.529C184.09 318.689 184.308 318.583 184.28 318.404C183.735 314.836 181.291 310.429 180.108 306.52C178.696 301.859 182.215 300.425 183.213 296.852C184.947 290.646 178.428 282.788 183.997 277.556C184.278 277.292 183.91 276.798 183.579 277.014L183.58 277.016Z" fill="var(--fill-0, white)"/>
<path id="Vector_89" d="M61.9356 345.704C63.969 350.212 65.2761 353.142 69.3905 359.097C71.0744 361.534 76.2647 368.686 78.815 370.499C79.0802 370.688 79.3999 370.325 79.2462 370.067C78.0139 367.989 76.1559 366.263 74.6325 364.389C70.0951 358.804 65.204 351.33 62.0348 345.646C61.9981 345.581 61.9056 345.638 61.9356 345.704Z" fill="var(--fill-0, white)"/>
<path id="Vector_90" d="M79.6286 360.752C80.442 361.694 81.7749 363.387 82.8521 363.974C83.0807 364.1 83.3296 363.849 83.2058 363.621C82.6114 362.522 80.7208 361.02 79.9945 360.388C79.7428 360.169 79.411 360.501 79.63 360.752H79.6286Z" fill="var(--fill-0, white)"/>
<path id="Vector_91" d="M429.707 369.049C429.358 369.221 429.135 369.455 428.824 369.684C428.522 369.907 428.58 370.487 429.035 370.462C430.799 370.366 436.894 366.797 440.027 361.691C441.271 359.666 441.43 358.818 441.717 357.185C441.74 357.053 441.564 356.96 441.49 357.089C441.102 357.755 440.648 358.371 440.245 359.025C439.433 360.346 438.364 362.374 436.211 364.596C432.411 368.52 429.761 368.895 428.74 369.751C428.972 369.886 429.205 370.022 429.437 370.156C429.481 370.004 429.84 368.985 429.708 369.051L429.707 369.049Z" fill="var(--fill-0, white)"/>
<path id="Vector_92" d="M430.219 362.302C431.107 360.359 431.224 360.435 432.073 357.486C432.153 357.207 431.771 357.064 431.619 357.294C429.921 359.862 430.019 359.982 429.213 361.713C428.84 362.512 429.948 362.898 430.22 362.302H430.219Z" fill="var(--fill-0, white)"/>
<path id="Vector_93" d="M374.128 219.817C372.755 221.394 373.356 226.179 374.062 228.309C374.886 230.799 377.017 234.395 379.285 235.426C379.532 235.539 379.754 235.264 379.574 235.05C378.656 233.958 377.55 233.081 376.718 231.903C372.321 225.68 374.683 219.18 374.128 219.817Z" fill="var(--fill-0, white)"/>
<path id="Vector_94" d="M378.43 225.757C377.694 228.103 379.862 231.568 381.304 232.039C381.556 232.122 381.761 231.82 381.638 231.604C381.148 230.733 380.553 230.6 379.674 228.905C378.941 227.492 378.583 225.267 378.43 225.757Z" fill="var(--fill-0, white)"/>
<path id="Vector_95" d="M118.095 229.045C119.67 225.359 119.408 221.181 117.555 217.642C117.363 217.833 117.173 218.024 116.981 218.216C120.512 220.467 125.542 218.146 125.339 213.488C125.286 212.273 124.891 210.725 123.767 210.093C123.582 209.989 123.281 210.166 123.374 210.395C123.778 211.4 124.38 212.231 124.459 213.357C124.746 217.44 120.456 219.41 117.404 217.489C117.034 217.257 116.641 217.708 116.83 218.063C118.597 221.389 118.762 225.267 117.519 228.8C117.402 229.133 117.954 229.374 118.095 229.044V229.045Z" fill="var(--fill-0, white)"/>
<path id="Vector_96" d="M200.776 102.059C204.182 100.93 205.339 94.4841 200.595 91.972C200.47 92.2685 200.345 92.5663 200.22 92.8628C205.614 93.6205 208.258 87.9513 206.682 85.9764C206.368 85.5833 206.199 87.5909 206.067 88.1431C205.425 90.8145 202.948 92.2712 200.48 91.923C199.982 91.8523 199.566 92.5364 200.104 92.8139C201.705 93.6395 202.815 95.2622 202.86 97.0861C202.918 99.4691 201.342 100.632 200.467 101.526C200.254 101.745 200.467 102.162 200.778 102.059H200.776Z" fill="var(--fill-0, white)"/>
<path id="Vector_97" d="M220.934 91.301C220.798 91.4914 220.706 91.3241 220.598 91.743C220.47 92.2449 220.586 93.0406 220.73 93.552C221.444 96.0846 225.312 98.1085 226.449 96.8137C226.575 96.6709 226.545 96.4859 226.394 96.3784C225.47 95.7201 223.397 96.5117 221.715 93.2175C221.271 92.3497 221.32 91.8927 221.206 91.6057C221.154 91.4765 221.02 91.4316 220.969 91.3064C220.963 91.2915 220.945 91.2874 220.934 91.3024V91.301Z" fill="var(--fill-0, white)"/>
<path id="Vector_98" d="M275.52 223.883C276.39 224.193 277.263 225.023 278.798 224.847C283.073 224.359 285.03 220.413 284.763 219.443C284.68 219.241 284.669 219.218 284.728 219.373C284.724 219.184 284.683 218.344 284.516 218.089C284.263 217.702 284.012 218.486 283.798 218.861C283.777 218.897 283.565 219.173 283.724 219.02C283.025 219.687 282.52 222.791 278.617 223.52C276.937 223.833 276.283 224.087 275.535 223.82C275.497 223.807 275.479 223.868 275.518 223.882L275.52 223.883Z" fill="var(--fill-0, #010101)"/>
<path id="Vector_99" d="M281.17 217.279C281.666 216.99 281.49 217.128 282.622 216.007C283.81 214.832 283.328 214.115 282.709 214.109C282.114 214.105 281.426 214.927 281.188 215.178C280.703 215.695 279.722 216.598 280.346 217.172C280.569 217.376 280.9 217.435 281.169 217.279H281.17Z" fill="var(--fill-0, #010101)"/>
<path id="Vector_100" d="M145.052 214.316C145.218 215.113 145.106 214.845 145.041 215.181C144.842 216.193 146.832 220.275 150.822 222.037C153.957 223.42 154.551 222.345 154.268 221.918C153.928 221.405 153.422 221.331 152.862 221.199C151.465 220.87 150.136 220.244 148.799 219.153C146.8 217.524 146.341 216.127 145.955 215.497C145.533 214.809 145.309 215.009 145.114 214.3C145.103 214.261 145.045 214.277 145.053 214.316H145.052Z" fill="var(--fill-0, #010101)"/>
<path id="Vector_101" d="M153.839 218.647C155.21 219.42 153.748 218.817 156.709 220.233C157.288 220.511 157.332 220.569 157.786 220.588C158.043 220.599 158.153 220.271 157.989 220.099C157.326 219.404 154.349 218.56 153.938 218.414C153.801 218.365 153.715 218.577 153.84 218.646L153.839 218.647Z" fill="var(--fill-0, #010101)"/>
<path id="Vector_102" d="M252.819 259.563C253.062 259.872 252.872 259.785 252.955 260.068C253.171 260.806 253.616 260.937 253.985 260.638C254.511 260.211 257.192 256.546 257.429 256.047C257.514 255.868 257.577 255.687 257.55 255.484C257.55 255.426 257.535 255.37 257.505 255.32C257.483 255.268 257.438 255.154 257.442 255.162C257.284 254.769 256.633 254.903 256.327 255.196C255.998 255.51 253.426 259.238 253.12 260.133C253.374 260.03 253.627 259.926 253.881 259.823C253.585 259.671 253.42 259.603 253.177 259.614C253.026 259.62 252.984 259.6 252.858 259.513C252.826 259.491 252.799 259.537 252.82 259.563H252.819Z" fill="var(--fill-0, #010101)"/>
<path id="Vector_103" d="M252.036 256.848C252.984 255.807 252.886 255.994 253.049 255.399C253.148 255.038 252.804 254.689 252.441 254.791C251.855 254.956 252.071 254.821 250.998 255.812C250.715 256.073 250.714 256.588 250.998 256.848C251.339 257.162 251.806 257.1 252.034 256.848H252.036Z" fill="var(--fill-0, #010101)"/>
<path id="Vector_104" d="M406.968 281.333C407.295 282.018 407.568 282.73 407.902 283.412C408.296 284.22 409.887 286.398 410.21 289.873C410.257 290.386 410.351 291.738 411.2 291.526C412.692 291.152 411.097 286.397 410.408 284.993C409.241 282.615 408.531 282.067 407.012 281.289C406.982 281.274 406.955 281.304 406.968 281.333Z" fill="var(--fill-0, #010101)"/>
<path id="Vector_105" d="M406.412 287.526C406.412 287.671 406.412 287.817 406.412 287.962C406.425 287.928 406.439 287.896 406.454 287.862C406.303 288.034 406.325 288.015 406.291 288.447C406.234 289.169 406.221 288.879 406.298 289.418C406.466 290.608 407.175 290.388 407.216 289.901C407.288 289.051 407.077 288.696 406.84 288.085C406.79 287.954 406.738 287.912 406.625 287.84C406.647 287.869 406.669 287.897 406.691 287.924C406.65 287.784 406.609 287.644 406.568 287.505C406.544 287.42 406.412 287.436 406.412 287.527V287.526Z" fill="var(--fill-0, #010101)"/>
<path id="Vector_106" d="M168.851 102.208C168.84 102.891 169.751 103.133 170.27 103.373C174.607 105.38 181.121 107.981 185.564 109.739C190.241 111.589 190.764 111.95 191.825 111.815C192.33 111.751 192.567 111.241 192.231 110.836C191.589 110.062 190.529 109.761 189.619 109.405C176.098 104.113 168.865 101.244 168.85 102.208H168.851Z" fill="var(--fill-0, #010101)"/>
<path id="Vector_107" d="M176.926 116.332C187.025 117.275 187.892 117.467 189.234 117.135C189.721 117.016 189.622 116.404 189.234 116.244C188.011 115.738 187.273 115.8 176.926 115.185C176.141 115.139 176.249 116.333 176.926 116.333V116.332Z" fill="var(--fill-0, #010101)"/>
<path id="Vector_108" d="M184.038 95.1883C185.128 96.9918 188.39 101.325 188.595 101.506C188.863 101.743 189.168 101.985 189.475 102.169C189.713 102.31 190.02 102.075 189.943 101.808C189.625 100.698 189.525 100.734 186.128 96.4587C185.65 95.8575 185.122 95.3148 184.589 94.7626C184.313 94.4769 183.832 94.8442 184.038 95.1869V95.1883Z" fill="var(--fill-0, #010101)"/>
<path id="Vector_109" d="M332.304 240.313C335.549 242.275 335.682 242.573 350.479 249.131C351.275 249.484 352.09 250.038 352.966 249.705C353.235 249.603 353.507 249.297 353.378 248.98C353.003 248.064 353.628 248.319 338.117 241.989C336.231 241.219 334.332 240.697 332.379 240.141C332.274 240.111 332.213 240.259 332.305 240.316L332.304 240.313Z" fill="var(--fill-0, #010101)"/>
<path id="Vector_110" d="M347.77 239.698C353.533 245.139 353.62 245.349 354.426 245.52C354.734 245.585 355.055 245.321 354.955 244.991C354.692 244.127 354.509 244.119 348.604 238.865C348.041 238.363 347.214 239.173 347.77 239.698Z" fill="var(--fill-0, #010101)"/>
<path id="Vector_111" d="M425.579 226.177C426.362 226.718 427.413 225.638 432.716 221.076C440.506 214.375 441.456 213.77 441.073 212.826C440.379 211.122 438.17 213.654 428.676 222.058C427.135 223.423 424.55 225.464 425.579 226.178V226.177Z" fill="var(--fill-0, #010101)"/>
<path id="Vector_112" d="M429.917 230.531C437.656 229.206 438.214 229.23 439.031 228.573C439.291 228.365 439.115 227.969 438.849 227.881C437.936 227.579 437.616 227.753 429.578 229.301C428.769 229.457 429.117 230.668 429.917 230.531Z" fill="var(--fill-0, #010101)"/>
<path id="Vector_113" d="M434.441 236.454C434.858 237.124 435.439 237.067 439.745 237.068C440.904 237.068 440.969 237.033 441.645 236.73C442.006 236.568 442.015 235.926 441.645 235.767C440.723 235.37 440.959 235.434 437.923 235.48C436.814 235.498 436.635 235.404 435.123 235.687C434.752 235.756 434.575 235.891 434.426 236.247C434.472 236.201 434.517 236.156 434.563 236.11L434.438 236.146C434.288 236.191 434.284 236.41 434.438 236.454H434.441Z" fill="var(--fill-0, #010101)"/>
<path id="Vector_114" d="M70.848 249.906C71.792 250.926 73.4636 251.44 74.7 252.011C76.1567 252.684 77.6256 253.317 79.1028 253.943C86.5088 257.08 85.9198 257.041 87.7275 256.964C88.1478 256.946 88.3491 256.458 88.0662 256.147C86.91 254.885 86.8951 255.042 84.3081 253.993C72.6597 249.269 72.3102 249.148 71.1432 249.193C70.7773 249.207 70.5991 249.636 70.848 249.906Z" fill="var(--fill-0, #010101)"/>
<path id="Vector_115" d="M77.6688 261.447C85.9821 261.632 86.0378 261.721 86.8526 261.326C87.0947 261.209 87.0892 260.812 86.8526 260.694C86.0188 260.276 85.8624 260.38 77.6688 260.46C77.0323 260.467 77.0323 261.434 77.6688 261.449V261.447Z" fill="var(--fill-0, #010101)"/>
<path id="Vector_116" d="M81.782 246.982C81.9058 247.611 86.0584 250.518 86.7411 251.01C87.3546 251.454 87.953 251.858 88.6943 252.051C88.9691 252.123 89.2751 251.797 89.0901 251.535C88.1911 250.268 84.044 247.859 82.6988 247.081C82.405 246.911 82.2159 246.768 81.8705 246.825C81.7984 246.838 81.7698 246.921 81.782 246.982Z" fill="var(--fill-0, #010101)"/>
<path id="Vector_117" d="M141.879 249.861C142.563 249.806 142.955 249.478 143.464 249.023C144.058 248.491 144.657 247.967 145.217 247.399C153.136 239.366 154.556 238.203 154.501 237.136C154.492 236.943 154.349 236.791 154.15 236.786C153.423 236.768 152.973 237.308 152.456 237.751C151.95 238.185 144.235 246.168 142.654 248.035C142.188 248.588 141.804 249.016 141.768 249.748C141.765 249.805 141.821 249.863 141.879 249.859V249.861Z" fill="var(--fill-0, #010101)"/>
<path id="Vector_118" d="M147.151 253.841C147.827 253.596 147.958 253.47 151.095 251.67C153.154 250.49 154.247 250.012 154.661 249.086C154.783 248.811 154.638 248.536 154.33 248.511C153.548 248.445 152.84 248.867 152.198 249.259C146.913 252.488 147.055 252.353 146.546 252.802C146.091 253.203 146.571 254.051 147.151 253.841Z" fill="var(--fill-0, #010101)"/>
<path id="Vector_119" d="M147.54 260.573C150.568 260.716 155.059 259.316 156.339 256.665C156.495 256.343 156.173 255.978 155.837 256.163C153.851 257.26 151.844 259.432 147.54 259.264C146.698 259.232 146.702 260.532 147.54 260.572V260.573Z" fill="var(--fill-0, #010101)"/>
<path id="Vector_120" d="M283.348 290.662C284.375 292.494 287.331 295.473 289.782 296.663C296.273 299.816 301.21 294.845 300.028 290.878C298.849 286.923 293.845 286.938 294.289 288.506C295.572 293.027 300.713 298.042 305.791 296.062C307.773 295.289 309.422 293.197 309.014 290.983C308.625 288.872 306.362 287.308 304.274 287.996C303.825 288.144 303.586 288.758 303.981 289.11C310.536 294.964 320.631 294.955 325.048 291.205C325.282 291.006 325.032 290.614 324.753 290.699C321.361 291.73 318.174 292.728 314.573 292.369C311.015 292.014 307.588 290.556 304.922 288.169C304.824 288.54 304.726 288.912 304.628 289.283C306.391 288.705 308.038 290.482 307.668 292.214C307.257 294.137 305.259 295.163 303.428 295.093C299.646 294.949 296.579 291.591 295.606 288.144C295.447 288.425 295.288 288.705 295.129 288.985C297.064 288.499 298.966 290.374 298.862 292.294C298.677 295.741 294.049 298.244 288.93 294.821C287.003 293.533 285.75 291.599 283.974 290.181C283.637 289.911 283.112 290.243 283.348 290.663V290.662Z" fill="var(--fill-0, #010101)"/>
<path id="Vector_121" d="M406.53 168.377C408.045 176.823 406.722 187.961 402.085 197.083C401.493 198.246 400.542 199.425 400.253 200.702C400.172 201.06 400.572 201.264 400.839 201.043C401.879 200.184 402.456 198.637 403.042 197.444C407.923 187.51 408.567 178.065 406.652 168.343C406.636 168.262 406.515 168.296 406.53 168.377Z" fill="var(--fill-0, #010101)"/>
<path id="Vector_122" d="M397.792 190.004C397.459 190.868 397.338 192.75 397.293 193.593C397.252 194.373 397.176 195.341 397.946 195.186C398.425 195.09 398.399 194.212 398.402 193.593C398.404 192.76 398.396 190.919 398.1 190.004C398.049 189.846 397.848 189.86 397.792 190.004Z" fill="var(--fill-0, #010101)"/>
<path id="Vector_123" d="M238.334 34.6663C248.876 35.6415 239.782 35.1315 264.04 36.2985C266.935 36.4372 269.847 36.6848 272.744 36.6848C273.473 36.6848 273.447 35.6347 272.744 35.5694C271.797 35.4824 250.953 34.518 242.787 34.3113C241.293 34.2732 239.824 34.412 238.334 34.412C238.157 34.412 238.184 34.6677 238.334 34.6677V34.6663Z" fill="var(--fill-0, #010101)"/>
<path id="Vector_124" d="M287.537 35.5956C287.617 35.6078 287.729 35.6106 287.807 35.6364C287.821 35.6323 287.836 35.6283 287.851 35.6242C287.943 35.7928 288.223 35.8296 288.393 35.8826C288.327 35.8445 288.264 35.8064 288.198 35.7697C288.446 36.0322 288.959 36.1002 289.304 36.1138C290.426 36.1587 291.733 36.224 292.533 35.7888C292.782 35.6527 292.782 35.2637 292.533 35.1277C291.876 34.77 291.11 34.7727 290.379 34.785C289.647 34.7972 288.598 34.7224 288.198 35.1468C288.264 35.1087 288.327 35.0706 288.393 35.0339C288.249 35.0788 288.058 35.106 287.937 35.1998C287.913 35.2148 287.892 35.2338 287.879 35.2583C287.865 35.2964 287.842 35.3032 287.808 35.2801C287.729 35.31 287.622 35.3073 287.539 35.3209C287.401 35.3413 287.401 35.5766 287.539 35.597L287.537 35.5956Z" fill="var(--fill-0, #010101)"/>
<path id="Vector 2979" d="M169.393 306.794L149.523 315.523L148.523 306.794L166.713 298.422L169.393 306.794Z" fill="var(--fill-0, #D9D9D9)" stroke="var(--stroke-0, black)"/>
<path id="Vector 2980" d="M115.523 283.023C102.723 285.023 97.8568 276.523 97.0234 272.023C97.0234 272.023 106.023 278.023 112.523 278.023C119.023 278.023 123.023 275.523 126.523 273.523C124.923 279.923 118.523 282.523 115.523 283.023Z" fill="var(--fill-0, #D9D9D9)" stroke="var(--stroke-0, #010101)"/>
<path id="Vector 2981_3" d="M386.523 279.023C373.723 281.023 368.857 276.023 368.023 271.523C368.023 271.523 377.023 276.023 383.523 275.023C390.023 274.023 392.523 271.523 396.023 269.523C394.423 275.923 389.523 278.523 386.523 279.023Z" fill="var(--fill-0, #7A7876)" stroke="var(--stroke-0, #010101)"/>
</g>
<defs>
<linearGradient id="paint0_linear_4228_9581" x1="246" y1="73" x2="246" y2="311" gradientUnits="userSpaceOnUse">
<stop/>
<stop offset="0.74998" stop-opacity="0.5"/>
</linearGradient>
<linearGradient id="paint1_linear_4228_9581" x1="337.523" y1="51.5234" x2="379.023" y2="212.523" gradientUnits="userSpaceOnUse">
<stop stop-color="white"/>
<stop offset="1" stop-color="#E1E1E1"/>
</linearGradient>
<linearGradient id="paint2_linear_4228_9581" x1="312.775" y1="36.7469" x2="312.925" y2="28.6079" gradientUnits="userSpaceOnUse">
<stop stop-color="#2A5338"/>
<stop offset="1" stop-color="#306843"/>
</linearGradient>
<linearGradient id="paint3_linear_4228_9581" x1="197.5" y1="226.5" x2="220.234" y2="156.823" gradientUnits="userSpaceOnUse">
<stop stop-color="#499163"/>
<stop offset="1" stop-color="#39A560"/>
</linearGradient>
<linearGradient id="paint4_linear_4228_9581" x1="221.478" y1="152.496" x2="231.819" y2="216.813" gradientUnits="userSpaceOnUse">
<stop offset="0.503921" stop-color="white" stop-opacity="0"/>
<stop offset="1" stop-color="white"/>
</linearGradient>
<linearGradient id="paint5_linear_4228_9581" x1="249.069" y1="329.711" x2="249.069" y2="345.417" gradientUnits="userSpaceOnUse">
<stop offset="0.47063" stop-color="white"/>
<stop offset="1" stop-color="#CDCDCD"/>
</linearGradient>
<linearGradient id="paint6_linear_4228_9581" x1="308.909" y1="306.737" x2="314.318" y2="269.313" gradientUnits="userSpaceOnUse">
<stop stop-color="#2A5338"/>
<stop offset="1" stop-color="#306843"/>
</linearGradient>
<linearGradient id="paint7_linear_4228_9581" x1="340.738" y1="269.449" x2="350.13" y2="328.969" gradientUnits="userSpaceOnUse">
<stop stop-color="white"/>
<stop offset="0.708465" stop-color="white" stop-opacity="0"/>
</linearGradient>
<linearGradient id="paint8_linear_4228_9581" x1="316" y1="307.5" x2="286.235" y2="277.761" gradientUnits="userSpaceOnUse">
<stop offset="0.359618" stop-color="white"/>
<stop offset="1" stop-color="#C7C7C7"/>
</linearGradient>
</defs>
</svg>
