<svg width="150" height="79" viewBox="0 0 150 79" fill="none" xmlns="http://www.w3.org/2000/svg">
<g filter="url(#filter0_d_3044_14097)">
<path d="M41.3941 63.6328C41.3941 63.6328 42.8206 64.515 44.1379 67.4937C45.4553 70.4724 44.7959 74.7737 44.7959 74.7737H39.8569C39.8569 74.7737 38.7593 71.574 37.0038 69.2032C35.2484 66.8309 33.8203 65.9487 33.8203 65.9487L41.3941 63.6328Z" fill="#0D4D8A"/>
<path d="M41.3164 64.2002C41.4516 64.3135 41.6529 64.4994 41.8965 64.7764C42.3831 65.3298 43.0419 66.252 43.6807 67.6963C44.2971 69.0902 44.4611 70.8272 44.4609 72.251C44.4608 72.9563 44.421 73.5717 44.3809 74.0098C44.372 74.1069 44.361 74.1949 44.3525 74.2734H40.2061C40.182 74.2092 40.1549 74.1366 40.124 74.0566C39.9911 73.7128 39.7962 73.2297 39.5449 72.6719C39.0444 71.5607 38.3133 70.1316 37.4053 68.9053C36.5068 67.6911 35.6881 66.8529 35.0879 66.3145C35.0195 66.2531 34.9512 66.1982 34.8887 66.1445L41.2969 64.1846C41.3031 64.1897 41.3098 64.1947 41.3164 64.2002Z" stroke="black" stroke-width="1.00001"/>
</g>
<g filter="url(#filter1_d_3044_14097)">
<path d="M136.457 35.7891C136.457 35.7891 135.031 36.6712 133.714 39.65C132.396 42.6287 133.056 46.9299 133.056 46.9299H137.995C137.995 46.9299 139.092 43.7303 140.848 41.3595C142.603 38.9872 144.031 38.105 144.031 38.105L136.457 35.7891Z" fill="#0D4D8A"/>
<path d="M136.535 36.3564C136.4 36.4697 136.199 36.6556 135.955 36.9326C135.468 37.4861 134.81 38.4083 134.171 39.8525C133.554 41.2465 133.39 42.9835 133.391 44.4072C133.391 45.1125 133.431 45.7279 133.471 46.166C133.48 46.2631 133.491 46.3512 133.499 46.4297H137.646C137.67 46.3655 137.697 46.2928 137.728 46.2129C137.86 45.8691 138.055 45.3859 138.307 44.8281C138.807 43.7169 139.538 42.2878 140.446 41.0615C141.345 39.8474 142.163 39.0092 142.764 38.4707C142.832 38.4093 142.9 38.3545 142.963 38.3008L136.555 36.3408C136.548 36.346 136.542 36.3509 136.535 36.3564Z" stroke="black" stroke-width="1.00001"/>
</g>
<g filter="url(#filter2_d_3044_14097)">
<path d="M104 62.0469L105.835 72.5027C105.835 72.5027 103.677 73.1488 103.461 72.5027C103.245 71.8566 99.4688 64.3113 99.4688 64.3113L104 62.0469Z" fill="#FBAD36"/>
<path d="M105.263 72.1328C105.085 72.1741 104.872 72.2195 104.658 72.25C104.389 72.2883 104.152 72.3008 103.987 72.2793C103.948 72.2742 103.921 72.2667 103.902 72.2617C103.854 72.1403 103.776 71.9608 103.682 71.7559C103.556 71.4842 103.389 71.1334 103.196 70.7334C102.811 69.933 102.318 68.9273 101.832 67.9434C101.346 66.9591 100.867 65.9951 100.51 65.2773C100.363 64.9832 100.238 64.7302 100.14 64.5342L103.623 62.793L105.263 72.1328Z" stroke="black" stroke-width="1.00001"/>
</g>
<g filter="url(#filter3_d_3044_14097)">
<path d="M27.5017 31.0156C27.5017 31.0156 24.0492 33.76 27.5017 38.26C30.9541 42.7601 32.625 44.0777 32.625 44.0777L27.0555 46.9311C27.0555 46.9311 21.3752 41.6624 21.486 38.3692C21.5967 35.076 22.3768 32.5515 22.3768 32.5515L27.5017 31.0156Z" fill="#FBAD36"/>
<path d="M26.1123 31.9531C25.9736 32.1986 25.8416 32.4767 25.7344 32.7871C25.2434 34.2078 25.2851 36.193 27.1045 38.5645C28.84 40.8265 30.1329 42.2947 30.9961 43.2012C31.3017 43.5221 31.555 43.7713 31.7539 43.9619L27.1436 46.3232C26.9924 46.1763 26.7805 45.9672 26.5283 45.708C26.0044 45.1697 25.3083 44.419 24.6172 43.5693C23.9246 42.7178 23.2454 41.7774 22.749 40.8584C22.2466 39.9281 21.9621 39.076 21.9854 38.3857C22.0396 36.7731 22.258 35.3464 22.4629 34.3232C22.5652 33.8122 22.6646 33.4031 22.7373 33.123C22.754 33.0588 22.7695 33.0014 22.7832 32.9512L26.1123 31.9531Z" stroke="black" stroke-width="1.00001"/>
</g>
<g filter="url(#filter4_d_3044_14097)">
<path d="M48.7108 0.127561C48.7108 0.127561 46.4143 8.03964 47.1787 11.4455C47.9448 14.8513 50.1325 18.0386 50.1325 18.0386C50.1325 18.0386 43.2414 19.5776 42.9136 19.4668C42.5857 19.3575 36.3504 12.8737 37.5546 8.25816C38.7572 3.64265 42.5857 -0.421875 42.5857 -0.421875L48.7108 0.127561Z" fill="#008B86"/>
<path d="M48.0703 0.572266C48.0169 0.770254 47.9515 1.01304 47.8799 1.29297C47.675 2.09394 47.4095 3.19905 47.168 4.41211C46.9267 5.6238 46.7076 6.9512 46.5977 8.19629C46.4886 9.43163 46.4822 10.6266 46.6904 11.5547L46.6914 11.5557C47.088 13.3185 47.8474 15.0105 48.5 16.252C48.8141 16.8495 49.107 17.3468 49.3262 17.7041C49.2099 17.7297 49.0815 17.7588 48.9434 17.7891C48.293 17.9314 47.4229 18.1197 46.543 18.3047C45.6623 18.4899 44.7751 18.6712 44.0889 18.7988C43.745 18.8628 43.4565 18.9124 43.2471 18.9424C43.1794 18.9521 43.1227 18.9569 43.0771 18.9619C43.0288 18.9186 42.9656 18.8611 42.8906 18.7871C42.701 18.6001 42.4432 18.3288 42.1436 17.9883C41.5442 17.3071 40.7874 16.3606 40.0781 15.2783C39.3675 14.194 38.7146 12.9871 38.3125 11.7832C37.9093 10.5759 37.7706 9.41038 38.0381 8.38477V8.38379C38.6182 6.15769 39.8395 4.04371 40.9316 2.47266C41.4755 1.6904 41.9822 1.04973 42.3525 0.605469C42.5355 0.385915 42.6845 0.214024 42.7881 0.0976562L48.0703 0.572266Z" stroke="black" stroke-width="1.00001"/>
</g>
<g filter="url(#filter5_d_3044_14097)">
<path d="M6.76394 12.1637C6.32802 12.1637 0.545396 11.5156 0.545396 11.5156L0 28.1396C0 28.1396 6.32594 30.1902 6.21851 29.7588C6.11108 29.3274 6.76394 12.1637 6.76394 12.1637Z" fill="#928D39"/>
<path d="M1.40039 12.1143C1.94958 12.175 2.68684 12.2558 3.4375 12.3369C4.18794 12.418 4.95336 12.4986 5.55859 12.5596C5.81402 12.5853 6.04936 12.6072 6.24512 12.625C6.2422 12.7026 6.23987 12.7894 6.23633 12.8838C6.21868 13.354 6.19382 14.0262 6.16406 14.834C6.10453 16.45 6.02608 18.6093 5.95117 20.7822C5.87627 22.9548 5.80494 25.142 5.75879 26.8135C5.73573 27.6487 5.71856 28.3573 5.71094 28.8711C5.70878 29.0169 5.70864 29.1483 5.70801 29.2627C5.61871 29.2453 5.51668 29.226 5.40332 29.2002C4.84093 29.0722 4.07228 28.8597 3.29004 28.6309C2.51042 28.4028 1.72637 28.1615 1.13672 27.9766C0.888987 27.8989 0.675578 27.8306 0.511719 27.7783L1.02637 12.0723C1.13751 12.0846 1.26306 12.0991 1.40039 12.1143Z" stroke="black" stroke-width="1.00001"/>
</g>
<g filter="url(#filter6_d_3044_14097)">
<path d="M142.577 4.32356C142.577 4.32356 144.084 9.54553 143.583 11.7934C143.08 14.0412 141.645 16.1449 141.645 16.1449C141.645 16.1449 146.166 17.1606 146.382 17.0875C146.597 17.0154 150.688 12.736 149.899 9.68976C149.11 6.64352 146.598 3.96094 146.598 3.96094L142.577 4.32356Z" fill="#008B86"/>
<path d="M143.216 4.76758C143.239 4.8542 143.264 4.94939 143.29 5.05176C143.425 5.58232 143.6 6.31412 143.759 7.11816C143.918 7.92115 144.063 8.80386 144.136 9.63379C144.199 10.3517 144.211 11.0615 144.117 11.6553L144.07 11.9023C143.806 13.0861 143.3 14.218 142.868 15.0439C142.714 15.3398 142.565 15.5981 142.44 15.8096C142.448 15.8111 142.455 15.8129 142.462 15.8145C142.888 15.9084 143.459 16.0323 144.036 16.1543C144.614 16.2765 145.194 16.3957 145.643 16.4795C145.868 16.5216 146.054 16.554 146.188 16.5732C146.197 16.5746 146.205 16.575 146.214 16.5762C146.232 16.559 146.253 16.5403 146.274 16.5186C146.395 16.3985 146.562 16.2223 146.757 16C147.146 15.5553 147.637 14.9368 148.098 14.2305C148.559 13.522 148.98 12.7391 149.238 11.9629C149.497 11.1833 149.579 10.4495 149.415 9.81543C149.042 8.37363 148.252 6.99718 147.541 5.96777C147.187 5.45625 146.858 5.03725 146.617 4.74707C146.529 4.64032 146.452 4.55121 146.392 4.48145L143.216 4.76758Z" stroke="black" stroke-width="1.00001"/>
</g>
<g filter="url(#filter7_d_3044_14097)">
<path d="M118.373 29.5963C118.373 29.5963 120.228 32.3167 117.374 38.9001C114.521 45.4835 117.374 50.7799 117.374 50.7799C117.374 50.7799 113.38 51.0665 112.523 50.7799C111.668 50.4932 108.243 42.4784 110.669 39.1867C113.094 35.8951 114.093 30.8854 113.522 29.5963C112.952 28.3073 118.373 29.5963 118.373 29.5963Z" fill="#C62E2D"/>
<path d="M114.109 29.5479C114.466 29.4975 115.033 29.5292 115.672 29.6094C116.297 29.6878 116.943 29.8058 117.437 29.9053C117.682 29.9549 117.889 29.9991 118.033 30.0312C118.035 30.0317 118.037 30.0318 118.039 30.0322C118.07 30.0983 118.109 30.1848 118.148 30.2939C118.262 30.609 118.395 31.1095 118.445 31.8145C118.546 33.2233 118.317 35.4694 116.916 38.7012C115.444 42.0984 115.442 45.1691 115.812 47.3906C115.996 48.5005 116.273 49.3992 116.505 50.0234C116.545 50.1326 116.586 50.233 116.623 50.3252C116.248 50.3464 115.762 50.3712 115.254 50.3877C114.705 50.4055 114.137 50.4144 113.656 50.4014C113.189 50.3887 112.868 50.3532 112.717 50.3135C112.711 50.3083 112.705 50.3019 112.697 50.2939C112.652 50.2459 112.589 50.1682 112.513 50.0547C112.36 49.829 112.178 49.5031 111.982 49.0947C111.593 48.2799 111.17 47.1771 110.848 45.9805C110.525 44.782 110.308 43.5092 110.314 42.3496C110.321 41.1825 110.554 40.186 111.071 39.4834C112.331 37.7737 113.209 35.636 113.702 33.7686C113.949 32.8328 114.103 31.9512 114.157 31.2119C114.203 30.5825 114.181 29.9935 114.041 29.5596C114.061 29.5557 114.084 29.5515 114.109 29.5479Z" stroke="black" stroke-width="1.00001"/>
</g>
<g filter="url(#filter8_d_3044_14097)">
<path d="M66.8405 -4C66.7932 -3.56906 78.4844 4.31064 77.9677 11.1829C77.451 18.0552 68.0992 23.0564 68.0992 23.0564L66.6191 17.5109C66.6191 17.5109 74.9791 17.2898 73.7337 10.5044C72.4883 3.71715 63.6607 1.69668 63.6607 1.69668L66.8405 -4Z" fill="#C62E2D"/>
<path d="M64.4092 1.38281C64.6332 1.44953 64.9095 1.53657 65.2246 1.64648C66.092 1.94908 67.264 2.42531 68.4785 3.12109C70.8953 4.5057 73.5641 6.80926 74.2256 10.4141C74.5564 12.2165 74.2543 13.6324 73.5713 14.7266C72.8952 15.8095 71.8769 16.5278 70.8555 17.0049C69.8331 17.4824 68.7782 17.7321 67.9873 17.8633C67.7098 17.9093 67.4624 17.9391 67.2578 17.9609L68.4141 22.2979C68.6483 22.158 68.9489 21.975 69.2959 21.749C70.1666 21.182 71.3311 20.3561 72.5098 19.3213C74.8895 17.232 77.2257 14.377 77.4688 11.1455C77.587 9.57253 77.0075 7.89711 76.0107 6.22852C75.017 4.56503 73.6364 2.95427 72.2246 1.52734C70.8149 0.102558 69.388 -1.12586 68.3105 -2.0293C67.7767 -2.47696 67.3169 -2.85448 67 -3.12695C66.9832 -3.14143 66.9675 -3.15678 66.9512 -3.1709L64.4092 1.38281Z" stroke="black" stroke-width="1.00001"/>
</g>
<g filter="url(#filter9_d_3044_14097)">
<path d="M99.3671 6.6567C99.3671 6.6567 101.97 10.7501 99.2657 15.1059C96.5614 19.4616 92.1032 21.7217 92.1032 21.7217L89.3735 16.7895C89.3735 16.7895 93.7411 17.5717 94.3476 12.485C94.9541 7.39838 95.4678 5.35284 95.4678 5.35284L99.3671 6.6567Z" fill="#FBAD36"/>
<path d="M99.0353 7.08076C99.0954 7.19061 99.1799 7.35575 99.2747 7.56798C99.4647 7.99346 99.6926 8.6056 99.8402 9.34549C100.134 10.821 100.111 12.7968 98.8412 14.8417C97.5315 16.9512 95.7901 18.563 94.3669 19.6501C93.6568 20.1924 93.0296 20.601 92.5819 20.8733C92.4771 20.937 92.3805 20.9902 92.2967 21.0389L90.2403 17.3227C90.6777 17.3029 91.2333 17.23 91.8097 17.0126C92.4667 16.7649 93.151 16.3352 93.7107 15.6089C94.27 14.8833 94.6833 13.8888 94.8436 12.5443C95.1458 10.0098 95.4248 8.2362 95.6272 7.09928C95.7113 6.62681 95.7834 6.26434 95.8374 6.00292L99.0294 7.071C99.0312 7.07427 99.0334 7.07738 99.0353 7.08076Z" stroke="black" stroke-width="1.00001"/>
</g>
<defs>
<filter id="filter0_d_3044_14097" x="33.8203" y="63.6328" width="11.1406" height="15.1407" filterUnits="userSpaceOnUse" color-interpolation-filters="sRGB">
<feFlood flood-opacity="0" result="BackgroundImageFix"/>
<feColorMatrix in="SourceAlpha" type="matrix" values="0 0 0 0 0 0 0 0 0 0 0 0 0 0 0 0 0 0 127 0" result="hardAlpha"/>
<feOffset dy="4.00005"/>
<feComposite in2="hardAlpha" operator="out"/>
<feColorMatrix type="matrix" values="0 0 0 0 0 0 0 0 0 0 0 0 0 0 0 0 0 0 0.25 0"/>
<feBlend mode="normal" in2="BackgroundImageFix" result="effect1_dropShadow_3044_14097"/>
<feBlend mode="normal" in="SourceGraphic" in2="effect1_dropShadow_3044_14097" result="shape"/>
</filter>
<filter id="filter1_d_3044_14097" x="132.891" y="35.7891" width="11.1406" height="15.1407" filterUnits="userSpaceOnUse" color-interpolation-filters="sRGB">
<feFlood flood-opacity="0" result="BackgroundImageFix"/>
<feColorMatrix in="SourceAlpha" type="matrix" values="0 0 0 0 0 0 0 0 0 0 0 0 0 0 0 0 0 0 127 0" result="hardAlpha"/>
<feOffset dy="4.00005"/>
<feComposite in2="hardAlpha" operator="out"/>
<feColorMatrix type="matrix" values="0 0 0 0 0 0 0 0 0 0 0 0 0 0 0 0 0 0 0.25 0"/>
<feBlend mode="normal" in2="BackgroundImageFix" result="effect1_dropShadow_3044_14097"/>
<feBlend mode="normal" in="SourceGraphic" in2="effect1_dropShadow_3044_14097" result="shape"/>
</filter>
<filter id="filter2_d_3044_14097" x="99.4688" y="62.0469" width="6.36523" height="16.2422" filterUnits="userSpaceOnUse" color-interpolation-filters="sRGB">
<feFlood flood-opacity="0" result="BackgroundImageFix"/>
<feColorMatrix in="SourceAlpha" type="matrix" values="0 0 0 0 0 0 0 0 0 0 0 0 0 0 0 0 0 0 127 0" result="hardAlpha"/>
<feOffset dy="5.50006"/>
<feComposite in2="hardAlpha" operator="out"/>
<feColorMatrix type="matrix" values="0 0 0 0 0 0 0 0 0 0 0 0 0 0 0 0 0 0 0.25 0"/>
<feBlend mode="normal" in2="BackgroundImageFix" result="effect1_dropShadow_3044_14097"/>
<feBlend mode="normal" in="SourceGraphic" in2="effect1_dropShadow_3044_14097" result="shape"/>
</filter>
<filter id="filter3_d_3044_14097" x="21.4844" y="31.0156" width="11.1406" height="21.4141" filterUnits="userSpaceOnUse" color-interpolation-filters="sRGB">
<feFlood flood-opacity="0" result="BackgroundImageFix"/>
<feColorMatrix in="SourceAlpha" type="matrix" values="0 0 0 0 0 0 0 0 0 0 0 0 0 0 0 0 0 0 127 0" result="hardAlpha"/>
<feOffset dy="5.50006"/>
<feComposite in2="hardAlpha" operator="out"/>
<feColorMatrix type="matrix" values="0 0 0 0 0 0 0 0 0 0 0 0 0 0 0 0 0 0 0.25 0"/>
<feBlend mode="normal" in2="BackgroundImageFix" result="effect1_dropShadow_3044_14097"/>
<feBlend mode="normal" in="SourceGraphic" in2="effect1_dropShadow_3044_14097" result="shape"/>
</filter>
<filter id="filter4_d_3044_14097" x="37.4004" y="-0.421875" width="12.7324" height="24.3946" filterUnits="userSpaceOnUse" color-interpolation-filters="sRGB">
<feFlood flood-opacity="0" result="BackgroundImageFix"/>
<feColorMatrix in="SourceAlpha" type="matrix" values="0 0 0 0 0 0 0 0 0 0 0 0 0 0 0 0 0 0 127 0" result="hardAlpha"/>
<feOffset dy="4.50005"/>
<feComposite in2="hardAlpha" operator="out"/>
<feColorMatrix type="matrix" values="0 0 0 0 0 0 0 0 0 0 0 0 0 0 0 0 0 0 0.25 0"/>
<feBlend mode="normal" in2="BackgroundImageFix" result="effect1_dropShadow_3044_14097"/>
<feBlend mode="normal" in="SourceGraphic" in2="effect1_dropShadow_3044_14097" result="shape"/>
</filter>
<filter id="filter5_d_3044_14097" x="0" y="11.5156" width="6.76367" height="23.8047" filterUnits="userSpaceOnUse" color-interpolation-filters="sRGB">
<feFlood flood-opacity="0" result="BackgroundImageFix"/>
<feColorMatrix in="SourceAlpha" type="matrix" values="0 0 0 0 0 0 0 0 0 0 0 0 0 0 0 0 0 0 127 0" result="hardAlpha"/>
<feOffset dy="5.50006"/>
<feComposite in2="hardAlpha" operator="out"/>
<feColorMatrix type="matrix" values="0 0 0 0 0 0 0 0 0 0 0 0 0 0 0 0 0 0 0.25 0"/>
<feBlend mode="normal" in2="BackgroundImageFix" result="effect1_dropShadow_3044_14097"/>
<feBlend mode="normal" in="SourceGraphic" in2="effect1_dropShadow_3044_14097" result="shape"/>
</filter>
<filter id="filter6_d_3044_14097" x="141.645" y="3.96094" width="8.35547" height="17.629" filterUnits="userSpaceOnUse" color-interpolation-filters="sRGB">
<feFlood flood-opacity="0" result="BackgroundImageFix"/>
<feColorMatrix in="SourceAlpha" type="matrix" values="0 0 0 0 0 0 0 0 0 0 0 0 0 0 0 0 0 0 127 0" result="hardAlpha"/>
<feOffset dy="4.50005"/>
<feComposite in2="hardAlpha" operator="out"/>
<feColorMatrix type="matrix" values="0 0 0 0 0 0 0 0 0 0 0 0 0 0 0 0 0 0 0.25 0"/>
<feBlend mode="normal" in2="BackgroundImageFix" result="effect1_dropShadow_3044_14097"/>
<feBlend mode="normal" in="SourceGraphic" in2="effect1_dropShadow_3044_14097" result="shape"/>
</filter>
<filter id="filter7_d_3044_14097" x="109.814" y="29.0234" width="9.15039" height="27.3829" filterUnits="userSpaceOnUse" color-interpolation-filters="sRGB">
<feFlood flood-opacity="0" result="BackgroundImageFix"/>
<feColorMatrix in="SourceAlpha" type="matrix" values="0 0 0 0 0 0 0 0 0 0 0 0 0 0 0 0 0 0 127 0" result="hardAlpha"/>
<feOffset dy="5.50006"/>
<feComposite in2="hardAlpha" operator="out"/>
<feColorMatrix type="matrix" values="0 0 0 0 0 0 0 0 0 0 0 0 0 0 0 0 0 0 0.25 0"/>
<feBlend mode="normal" in2="BackgroundImageFix" result="effect1_dropShadow_3044_14097"/>
<feBlend mode="normal" in="SourceGraphic" in2="effect1_dropShadow_3044_14097" result="shape"/>
</filter>
<filter id="filter8_d_3044_14097" x="63.6602" y="-4" width="14.3242" height="32.5547" filterUnits="userSpaceOnUse" color-interpolation-filters="sRGB">
<feFlood flood-opacity="0" result="BackgroundImageFix"/>
<feColorMatrix in="SourceAlpha" type="matrix" values="0 0 0 0 0 0 0 0 0 0 0 0 0 0 0 0 0 0 127 0" result="hardAlpha"/>
<feOffset dy="5.50006"/>
<feComposite in2="hardAlpha" operator="out"/>
<feColorMatrix type="matrix" values="0 0 0 0 0 0 0 0 0 0 0 0 0 0 0 0 0 0 0.25 0"/>
<feBlend mode="normal" in2="BackgroundImageFix" result="effect1_dropShadow_3044_14097"/>
<feBlend mode="normal" in="SourceGraphic" in2="effect1_dropShadow_3044_14097" result="shape"/>
</filter>
<filter id="filter9_d_3044_14097" x="89.373" y="5.35156" width="11.1211" height="21.8712" filterUnits="userSpaceOnUse" color-interpolation-filters="sRGB">
<feFlood flood-opacity="0" result="BackgroundImageFix"/>
<feColorMatrix in="SourceAlpha" type="matrix" values="0 0 0 0 0 0 0 0 0 0 0 0 0 0 0 0 0 0 127 0" result="hardAlpha"/>
<feOffset dy="5.50006"/>
<feComposite in2="hardAlpha" operator="out"/>
<feColorMatrix type="matrix" values="0 0 0 0 0 0 0 0 0 0 0 0 0 0 0 0 0 0 0.25 0"/>
<feBlend mode="normal" in2="BackgroundImageFix" result="effect1_dropShadow_3044_14097"/>
<feBlend mode="normal" in="SourceGraphic" in2="effect1_dropShadow_3044_14097" result="shape"/>
</filter>
</defs>
</svg>
