<svg width="377" height="336" viewBox="0 0 377 336" fill="none" xmlns="http://www.w3.org/2000/svg">
<g style="mix-blend-mode:overlay">
<circle cx="188" cy="168" r="168" fill="url(#paint0_radial_2000_114120)"/>
</g>
<g filter="url(#filter0_d_2000_114120)">
<path fill="#0D4D8A" d="M104.005 196.23C104.355 196.523 104.87 196.999 105.491 197.705C106.732 199.116 108.401 201.456 110.017 205.108C111.588 208.661 112 213.068 112 216.659C112 218.441 111.898 219.995 111.797 221.103C111.765 221.448 111.733 221.749 111.704 222H100.871C100.798 221.802 100.71 221.563 100.604 221.29C100.272 220.429 99.7816 219.22 99.1523 217.823C97.8978 215.038 96.0711 211.466 93.8047 208.405C91.5566 205.367 89.5103 203.272 88.0137 201.93C87.7083 201.656 87.4245 201.415 87.168 201.202L103.847 196.103C103.895 196.141 103.948 196.183 104.005 196.23Z" stroke="black" stroke-width="2"/>
</g>
<g filter="url(#filter1_d_2000_114120)">
<path fill="#0D4D8A" d="M342.995 126.23C342.645 126.523 342.13 126.999 341.509 127.705C340.268 129.116 338.599 131.456 336.983 135.108C335.412 138.661 335 143.068 335 146.659C335 148.441 335.102 149.995 335.203 151.103C335.235 151.448 335.267 151.749 335.296 152H346.129C346.202 151.802 346.29 151.563 346.396 151.29C346.728 150.429 347.218 149.22 347.848 147.823C349.102 145.038 350.929 141.466 353.195 138.405C355.443 135.367 357.49 133.272 358.986 131.93C359.292 131.656 359.576 131.415 359.832 131.202L343.153 126.103C343.105 126.141 343.052 126.183 342.995 126.23Z" stroke="black" stroke-width="2"/>
</g>
<g filter="url(#filter2_d_2000_114120)">
<path fill="#FBAD36" d="M264.855 216.547C264.363 216.666 263.725 216.805 263.079 216.897C262.396 216.995 261.774 217.03 261.324 216.972C261.1 216.943 260.994 216.9 260.95 216.878C260.845 216.592 260.628 216.1 260.354 215.508C260.04 214.827 259.622 213.947 259.138 212.942C258.17 210.932 256.931 208.406 255.71 205.934C254.489 203.46 253.285 201.037 252.387 199.233C251.959 198.375 251.6 197.656 251.342 197.139L260.636 192.494L264.855 216.547Z" stroke="black" stroke-width="2"/>
</g>
<g filter="url(#filter3_d_2000_114120)">
<path fill="#FBAD36" d="M66.1895 114.923C65.727 115.652 65.274 116.526 64.9248 117.536C63.7213 121.018 63.8052 125.917 68.3301 131.815C72.6871 137.494 75.9295 141.177 78.0918 143.448C78.9982 144.4 79.7159 145.103 80.2461 145.603L68.1777 151.786C68.1483 151.758 68.1177 151.728 68.0859 151.697C67.7021 151.325 67.1517 150.782 66.4922 150.104C65.172 148.748 63.4178 146.857 61.6748 144.714C59.9286 142.567 58.2113 140.19 56.9531 137.86C55.6826 135.508 54.9433 133.318 55.0039 131.515C55.1408 127.444 55.691 123.845 56.208 121.264C56.4664 119.974 56.7164 118.94 56.9004 118.232C56.9587 118.008 57.0124 117.817 57.0557 117.66L66.1895 114.923Z" stroke="black" stroke-width="2"/>
</g>
<g filter="url(#filter4_d_2000_114120)">
<path fill="#008B86" d="M121.142 36.2695C120.994 36.8115 120.803 37.5253 120.586 38.374C120.072 40.384 119.406 43.1553 118.8 46.1982C118.194 49.2387 117.646 52.5657 117.371 55.6826C117.115 58.5866 117.088 61.38 117.51 63.6074L117.601 64.0449C118.59 68.445 120.49 72.6754 122.125 75.7861C122.945 77.3462 123.704 78.6356 124.26 79.5361C124.301 79.6029 124.342 79.667 124.381 79.7295C124.003 79.8128 123.561 79.9116 123.067 80.0195C121.432 80.3775 119.244 80.8511 117.031 81.3164C114.817 81.782 112.584 82.2383 110.856 82.5596C109.991 82.7205 109.262 82.8457 108.73 82.9219C108.499 82.955 108.316 82.9751 108.181 82.9873C108.045 82.8699 107.856 82.6939 107.619 82.46C107.137 81.985 106.486 81.298 105.729 80.4385C104.217 78.7193 102.305 76.3319 100.515 73.5996C98.7213 70.8632 97.0678 67.8089 96.0479 64.7549C95.0256 61.6941 94.6657 58.711 95.3555 56.0674C96.8242 50.4307 99.9112 45.0888 102.664 41.1289C104.036 39.1554 105.316 37.5391 106.25 36.418C106.717 35.8578 107.097 35.4215 107.359 35.127C107.387 35.0965 107.413 35.0675 107.438 35.04L121.142 36.2695Z" stroke="black" stroke-width="2"/>
</g>
<g filter="url(#filter5_d_2000_114120)">
<path fill="#928D39" d="M3.54883 65.248C4.92895 65.4008 6.78071 65.6049 8.66699 65.8086C10.5527 66.0123 12.475 66.2161 13.9951 66.3691C14.7531 66.4455 15.4345 66.5112 15.9639 66.5576C15.9544 66.8095 15.9434 67.1075 15.9307 67.4473C15.8863 68.6291 15.8229 70.319 15.748 72.3496C15.5984 76.411 15.4021 81.8381 15.2139 87.2988C15.0256 92.759 14.8454 98.2551 14.7295 102.455C14.6715 104.555 14.6295 106.334 14.6104 107.624C14.6028 108.13 14.5996 108.565 14.5996 108.915C14.3049 108.864 13.944 108.792 13.5234 108.696C12.102 108.373 10.1633 107.837 8.19629 107.262C6.23438 106.688 4.26216 106.079 2.7793 105.614C2.05846 105.388 1.45416 105.195 1.02344 105.058L2.33398 65.1123C2.67469 65.1502 3.08512 65.1967 3.54883 65.248Z" stroke="black" stroke-width="2"/>
</g>
<g filter="url(#filter6_d_2000_114120)">
<path fill="#008B86" d="M359.622 46.7998C359.699 47.0895 359.79 47.4261 359.886 47.8037C360.224 49.1343 360.662 50.9696 361.062 52.9854C361.46 54.9987 361.823 57.2077 362.005 59.2812C362.185 61.3354 362.197 63.3385 361.848 64.9033C361.189 67.8478 359.928 70.6693 358.849 72.7354C358.385 73.6229 357.949 74.3778 357.603 74.9531C357.728 74.9809 357.861 75.0105 357.999 75.041C359.071 75.2771 360.506 75.5896 361.957 75.8965C363.409 76.2036 364.871 76.5036 366.001 76.7148C366.567 76.8208 367.04 76.9029 367.382 76.9521C367.455 76.9627 367.521 76.9676 367.577 76.9746C367.644 76.9125 367.725 76.8355 367.818 76.7432C368.128 76.4364 368.549 75.9889 369.041 75.4268C370.025 74.3017 371.27 72.7387 372.435 70.9512C373.602 69.1597 374.672 67.1713 375.329 65.1924C375.989 63.2065 376.208 61.3076 375.778 59.6484C374.829 55.983 372.827 52.4949 371.031 49.8965C370.138 48.6037 369.304 47.5454 368.696 46.8115C368.429 46.489 368.206 46.2293 368.04 46.041L359.622 46.7998Z" stroke="black" stroke-width="2"/>
</g>
<g filter="url(#filter7_d_2000_114120)">
<path fill="#C62E2D" d="M286.759 109.063C287.692 108.932 289.147 109.015 290.754 109.217C292.333 109.415 293.964 109.714 295.207 109.965C295.827 110.09 296.347 110.202 296.712 110.283C296.761 110.294 296.808 110.305 296.852 110.314C296.942 110.497 297.061 110.759 297.187 111.106C297.48 111.92 297.819 113.201 297.947 114.997C298.203 118.586 297.617 124.272 294.083 132.425C290.406 140.909 290.403 148.575 291.324 154.12C291.785 156.891 292.476 159.134 293.055 160.69C293.207 161.1 293.353 161.461 293.483 161.773C293.437 161.776 293.389 161.78 293.341 161.783C292.371 161.839 291.057 161.906 289.679 161.95C288.298 161.995 286.864 162.017 285.648 161.984C284.435 161.951 283.576 161.862 283.176 161.745C283.156 161.729 283.116 161.696 283.059 161.636C282.931 161.501 282.765 161.293 282.568 161.001C282.176 160.42 281.711 159.588 281.217 158.555C280.23 156.492 279.163 153.706 278.35 150.684C277.535 147.658 276.984 144.435 277 141.49C277.016 138.531 277.604 135.964 278.951 134.137C282.094 129.872 284.292 124.531 285.524 119.859C286.142 117.52 286.524 115.321 286.658 113.482C286.783 111.768 286.704 110.218 286.286 109.167C286.387 109.134 286.538 109.095 286.759 109.063Z" stroke="black" stroke-width="2"/>
</g>
<g filter="url(#filter8_d_2000_114120)">
<path fill="#C62E2D" d="M161.499 38.6836C162.105 38.8589 162.905 39.1049 163.845 39.4326C166.015 40.1895 168.945 41.3817 171.981 43.1211C178.028 46.5851 184.658 52.3219 186.301 61.2734C187.122 65.7487 186.37 69.2401 184.691 71.9287C183.027 74.5955 180.512 76.3734 177.973 77.5596C175.432 78.7463 172.807 79.3689 170.833 79.6963C169.999 79.8347 169.274 79.9197 168.714 79.9736L171.787 91.4883C172.412 91.1202 173.276 90.5963 174.303 89.9277C176.498 88.4978 179.436 86.4155 182.41 83.8047C188.403 78.5435 194.342 71.3105 194.961 63.084C195.264 59.0562 193.779 54.791 191.261 50.5752C188.748 46.3695 185.262 42.3056 181.706 38.7119C178.155 35.1225 174.562 32.0291 171.852 29.7568C170.506 28.6288 169.356 27.6836 168.561 27C168.432 26.8897 168.312 26.7823 168.198 26.6816L161.499 38.6836Z" stroke="black" stroke-width="2"/>
</g>
<g filter="url(#filter9_d_2000_114120)">
<path  fill="#FBAD36" d="M249.135 52.7355C249.289 53.0171 249.506 53.4374 249.748 53.9781C250.231 55.0611 250.81 56.6177 251.186 58.5C251.935 62.2558 251.874 67.2919 248.641 72.4997C245.327 77.8364 240.925 81.9078 237.333 84.6515C235.54 86.0207 233.958 87.0532 232.826 87.7416C232.461 87.9634 232.142 88.1478 231.88 88.2976L226.382 78.3657C227.514 78.349 229.054 78.1844 230.659 77.5794C232.273 76.971 233.951 75.9164 235.324 74.1343C236.697 72.3535 237.723 69.9005 238.122 66.5589C238.882 60.1841 239.583 55.7216 240.093 52.8589C240.337 51.4893 240.537 50.486 240.678 49.8147L249.071 52.6202C249.09 52.6556 249.113 52.6939 249.135 52.7355Z" stroke="black" stroke-width="2"/>
</g>
<defs>
<filter id="filter0_d_2000_114120" x="85" y="195" width="28" height="36" filterUnits="userSpaceOnUse" color-interpolation-filters="sRGB">
<feFlood flood-opacity="0" result="BackgroundImageFix"/>
<feColorMatrix in="SourceAlpha" type="matrix" values="0 0 0 0 0 0 0 0 0 0 0 0 0 0 0 0 0 0 127 0" result="hardAlpha"/>
<feOffset dy="8"/>
<feComposite in2="hardAlpha" operator="out"/>
<feColorMatrix type="matrix" values="0 0 0 0 0 0 0 0 0 0 0 0 0 0 0 0 0 0 0.25 0"/>
<feBlend mode="normal" in2="BackgroundImageFix" result="effect1_dropShadow_2000_114120"/>
<feBlend mode="normal" in="SourceGraphic" in2="effect1_dropShadow_2000_114120" result="shape"/>
</filter>
<filter id="filter1_d_2000_114120" x="334" y="125" width="28" height="36" filterUnits="userSpaceOnUse" color-interpolation-filters="sRGB">
<feFlood flood-opacity="0" result="BackgroundImageFix"/>
<feColorMatrix in="SourceAlpha" type="matrix" values="0 0 0 0 0 0 0 0 0 0 0 0 0 0 0 0 0 0 127 0" result="hardAlpha"/>
<feOffset dy="8"/>
<feComposite in2="hardAlpha" operator="out"/>
<feColorMatrix type="matrix" values="0 0 0 0 0 0 0 0 0 0 0 0 0 0 0 0 0 0 0.25 0"/>
<feBlend mode="normal" in2="BackgroundImageFix" result="effect1_dropShadow_2000_114120"/>
<feBlend mode="normal" in="SourceGraphic" in2="effect1_dropShadow_2000_114120" result="shape"/>
</filter>
<filter id="filter2_d_2000_114120" x="250" y="191" width="16" height="38" filterUnits="userSpaceOnUse" color-interpolation-filters="sRGB">
<feFlood flood-opacity="0" result="BackgroundImageFix"/>
<feColorMatrix in="SourceAlpha" type="matrix" values="0 0 0 0 0 0 0 0 0 0 0 0 0 0 0 0 0 0 127 0" result="hardAlpha"/>
<feOffset dy="11"/>
<feComposite in2="hardAlpha" operator="out"/>
<feColorMatrix type="matrix" values="0 0 0 0 0 0 0 0 0 0 0 0 0 0 0 0 0 0 0.25 0"/>
<feBlend mode="normal" in2="BackgroundImageFix" result="effect1_dropShadow_2000_114120"/>
<feBlend mode="normal" in="SourceGraphic" in2="effect1_dropShadow_2000_114120" result="shape"/>
</filter>
<filter id="filter3_d_2000_114120" x="54" y="113" width="28" height="51" filterUnits="userSpaceOnUse" color-interpolation-filters="sRGB">
<feFlood flood-opacity="0" result="BackgroundImageFix"/>
<feColorMatrix in="SourceAlpha" type="matrix" values="0 0 0 0 0 0 0 0 0 0 0 0 0 0 0 0 0 0 127 0" result="hardAlpha"/>
<feOffset dy="11"/>
<feComposite in2="hardAlpha" operator="out"/>
<feColorMatrix type="matrix" values="0 0 0 0 0 0 0 0 0 0 0 0 0 0 0 0 0 0 0.25 0"/>
<feBlend mode="normal" in2="BackgroundImageFix" result="effect1_dropShadow_2000_114120"/>
<feBlend mode="normal" in="SourceGraphic" in2="effect1_dropShadow_2000_114120" result="shape"/>
</filter>
<filter id="filter4_d_2000_114120" x="94" y="34" width="32" height="59" filterUnits="userSpaceOnUse" color-interpolation-filters="sRGB">
<feFlood flood-opacity="0" result="BackgroundImageFix"/>
<feColorMatrix in="SourceAlpha" type="matrix" values="0 0 0 0 0 0 0 0 0 0 0 0 0 0 0 0 0 0 127 0" result="hardAlpha"/>
<feOffset dy="9"/>
<feComposite in2="hardAlpha" operator="out"/>
<feColorMatrix type="matrix" values="0 0 0 0 0 0 0 0 0 0 0 0 0 0 0 0 0 0 0.25 0"/>
<feBlend mode="normal" in2="BackgroundImageFix" result="effect1_dropShadow_2000_114120"/>
<feBlend mode="normal" in="SourceGraphic" in2="effect1_dropShadow_2000_114120" result="shape"/>
</filter>
<filter id="filter5_d_2000_114120" x="0" y="64" width="17" height="57" filterUnits="userSpaceOnUse" color-interpolation-filters="sRGB">
<feFlood flood-opacity="0" result="BackgroundImageFix"/>
<feColorMatrix in="SourceAlpha" type="matrix" values="0 0 0 0 0 0 0 0 0 0 0 0 0 0 0 0 0 0 127 0" result="hardAlpha"/>
<feOffset dy="11"/>
<feComposite in2="hardAlpha" operator="out"/>
<feColorMatrix type="matrix" values="0 0 0 0 0 0 0 0 0 0 0 0 0 0 0 0 0 0 0.25 0"/>
<feBlend mode="normal" in2="BackgroundImageFix" result="effect1_dropShadow_2000_114120"/>
<feBlend mode="normal" in="SourceGraphic" in2="effect1_dropShadow_2000_114120" result="shape"/>
</filter>
<filter id="filter6_d_2000_114120" x="356" y="45" width="21" height="42" filterUnits="userSpaceOnUse" color-interpolation-filters="sRGB">
<feFlood flood-opacity="0" result="BackgroundImageFix"/>
<feColorMatrix in="SourceAlpha" type="matrix" values="0 0 0 0 0 0 0 0 0 0 0 0 0 0 0 0 0 0 127 0" result="hardAlpha"/>
<feOffset dy="9"/>
<feComposite in2="hardAlpha" operator="out"/>
<feColorMatrix type="matrix" values="0 0 0 0 0 0 0 0 0 0 0 0 0 0 0 0 0 0 0.25 0"/>
<feBlend mode="normal" in2="BackgroundImageFix" result="effect1_dropShadow_2000_114120"/>
<feBlend mode="normal" in="SourceGraphic" in2="effect1_dropShadow_2000_114120" result="shape"/>
</filter>
<filter id="filter7_d_2000_114120" x="276" y="108" width="23" height="66" filterUnits="userSpaceOnUse" color-interpolation-filters="sRGB">
<feFlood flood-opacity="0" result="BackgroundImageFix"/>
<feColorMatrix in="SourceAlpha" type="matrix" values="0 0 0 0 0 0 0 0 0 0 0 0 0 0 0 0 0 0 127 0" result="hardAlpha"/>
<feOffset dy="11"/>
<feComposite in2="hardAlpha" operator="out"/>
<feColorMatrix type="matrix" values="0 0 0 0 0 0 0 0 0 0 0 0 0 0 0 0 0 0 0.25 0"/>
<feBlend mode="normal" in2="BackgroundImageFix" result="effect1_dropShadow_2000_114120"/>
<feBlend mode="normal" in="SourceGraphic" in2="effect1_dropShadow_2000_114120" result="shape"/>
</filter>
<filter id="filter8_d_2000_114120" x="160" y="25" width="36" height="79" filterUnits="userSpaceOnUse" color-interpolation-filters="sRGB">
<feFlood flood-opacity="0" result="BackgroundImageFix"/>
<feColorMatrix in="SourceAlpha" type="matrix" values="0 0 0 0 0 0 0 0 0 0 0 0 0 0 0 0 0 0 127 0" result="hardAlpha"/>
<feOffset dy="11"/>
<feComposite in2="hardAlpha" operator="out"/>
<feColorMatrix type="matrix" values="0 0 0 0 0 0 0 0 0 0 0 0 0 0 0 0 0 0 0.25 0"/>
<feBlend mode="normal" in2="BackgroundImageFix" result="effect1_dropShadow_2000_114120"/>
<feBlend mode="normal" in="SourceGraphic" in2="effect1_dropShadow_2000_114120" result="shape"/>
</filter>
<filter id="filter9_d_2000_114120" x="224.627" y="48.5156" width="27.9512" height="52.1406" filterUnits="userSpaceOnUse" color-interpolation-filters="sRGB">
<feFlood flood-opacity="0" result="BackgroundImageFix"/>
<feColorMatrix in="SourceAlpha" type="matrix" values="0 0 0 0 0 0 0 0 0 0 0 0 0 0 0 0 0 0 127 0" result="hardAlpha"/>
<feOffset dy="11"/>
<feComposite in2="hardAlpha" operator="out"/>
<feColorMatrix type="matrix" values="0 0 0 0 0 0 0 0 0 0 0 0 0 0 0 0 0 0 0.25 0"/>
<feBlend mode="normal" in2="BackgroundImageFix" result="effect1_dropShadow_2000_114120"/>
<feBlend mode="normal" in="SourceGraphic" in2="effect1_dropShadow_2000_114120" result="shape"/>
</filter>
<radialGradient id="paint0_radial_2000_114120" cx="0" cy="0" r="1" gradientUnits="userSpaceOnUse" gradientTransform="translate(188 168) rotate(90) scale(149.492)">
<stop stop-color="#ffffff" stop-opacity="1"/>
<stop offset="1" stop-color="#ffffff" stop-opacity="0"/>
</radialGradient>
</defs>
</svg>
