<svg width="253" height="260" viewBox="0 0 253 260" fill="none" xmlns="http://www.w3.org/2000/svg">
<g filter="url(#filter0_d_1754_44161)">
<mask id="path-1-inside-1_1754_44161" fill="white">
<path d="M211.176 5.77148C212.256 3.36497 215.694 3.42386 216.69 5.86621L221.819 18.4333C222.434 19.9383 223.897 20.9219 225.523 20.9219H237C239.209 20.9219 241 22.7127 241 24.9219V243.922C241 246.131 239.209 247.922 237 247.922H8C5.791 247.922 4.00022 246.131 4 243.922V24.9219C4 22.7127 5.79086 20.9219 8 20.9219H201.785C203.361 20.9219 204.789 19.9973 205.434 18.5601L211.176 5.77148Z"/>
</mask>
<path d="M211.176 5.77148C212.256 3.36497 215.694 3.42386 216.69 5.86621L221.819 18.4333C222.434 19.9383 223.897 20.9219 225.523 20.9219H237C239.209 20.9219 241 22.7127 241 24.9219V243.922C241 246.131 239.209 247.922 237 247.922H8C5.791 247.922 4.00022 246.131 4 243.922V24.9219C4 22.7127 5.79086 20.9219 8 20.9219H201.785C203.361 20.9219 204.789 19.9973 205.434 18.5601L211.176 5.77148Z" fill="white"/>
<path d="M211.176 5.77148L210.264 5.36189L210.264 5.36192L211.176 5.77148ZM216.69 5.86621L217.616 5.48835L217.616 5.48831L216.69 5.86621ZM237 20.9219V19.9219V20.9219ZM241 243.922L242 243.922V243.922H241ZM8 247.922L8 248.922H8V247.922ZM4 243.922H3V243.922L4 243.922ZM205.434 18.5601L204.522 18.1506L205.434 18.5601ZM221.819 18.4333L222.745 18.0555L221.819 18.4333ZM211.176 5.77148L212.088 6.18107C212.808 4.57648 215.1 4.61613 215.765 6.24411L216.69 5.86621L217.616 5.48831C216.287 2.2316 211.704 2.15346 210.264 5.36189L211.176 5.77148ZM216.69 5.86621L215.765 6.24407L220.893 18.8112L221.819 18.4333L222.745 18.0555L217.616 5.48835L216.69 5.86621ZM225.523 20.9219V21.9219H237V20.9219V19.9219H225.523V20.9219ZM237 20.9219V21.9219C238.657 21.9219 240 23.265 240 24.9219H241H242C242 22.1605 239.761 19.9219 237 19.9219V20.9219ZM241 24.9219H240V243.922H241H242V24.9219H241ZM241 243.922L240 243.922C240 245.579 238.657 246.922 237 246.922V247.922V248.922C239.761 248.922 242 246.683 242 243.922L241 243.922ZM237 247.922V246.922H8V247.922V248.922H237V247.922ZM8 247.922L8 246.922C6.34338 246.922 5.00016 245.579 5 243.922L4 243.922L3 243.922C3.00027 246.683 5.23861 248.922 8 248.922L8 247.922ZM4 243.922H5V24.9219H4H3V243.922H4ZM4 24.9219H5C5 23.265 6.34315 21.9219 8 21.9219V20.9219V19.9219C5.23858 19.9219 3 22.1605 3 24.9219H4ZM8 20.9219V21.9219H201.785V20.9219V19.9219H8V20.9219ZM205.434 18.5601L206.347 18.9697L212.088 6.18105L211.176 5.77148L210.264 5.36192L204.522 18.1506L205.434 18.5601ZM201.785 20.9219V21.9219C203.754 21.9219 205.54 20.7661 206.347 18.9697L205.434 18.5601L204.522 18.1506C204.038 19.2284 202.967 19.9219 201.785 19.9219V20.9219ZM221.819 18.4333L220.893 18.8112C221.661 20.6924 223.491 21.9219 225.523 21.9219V20.9219V19.9219C224.304 19.9219 223.206 19.1842 222.745 18.0555L221.819 18.4333Z" fill="#188F6B" mask="url(#path-1-inside-1_1754_44161)"/>
</g>
<defs>
<filter id="filter0_d_1754_44161" x="0" y="0" width="253" height="259.922" filterUnits="userSpaceOnUse" color-interpolation-filters="sRGB">
<feFlood flood-opacity="0" result="BackgroundImageFix"/>
<feColorMatrix in="SourceAlpha" type="matrix" values="0 0 0 0 0 0 0 0 0 0 0 0 0 0 0 0 0 0 127 0" result="hardAlpha"/>
<feOffset dx="4" dy="4"/>
<feGaussianBlur stdDeviation="4"/>
<feComposite in2="hardAlpha" operator="out"/>
<feColorMatrix type="matrix" values="0 0 0 0 0 0 0 0 0 0 0 0 0 0 0 0 0 0 0.25 0"/>
<feBlend mode="normal" in2="BackgroundImageFix" result="effect1_dropShadow_1754_44161"/>
<feBlend mode="normal" in="SourceGraphic" in2="effect1_dropShadow_1754_44161" result="shape"/>
</filter>
</defs>
</svg>
