<svg width="1862" height="664" viewBox="0 0 1862 664" fill="none" xmlns="http://www.w3.org/2000/svg">
<g filter="url(#filter0_i_0_729)">
<path d="M703.993 381.536L723.919 10.5389C724.226 4.81364 719.667 0.00266044 713.933 0.00263375L156.183 3.71752e-05C151.512 1.54325e-05 147.464 3.23277 146.43 7.78739L62.2553 378.787C60.8358 385.044 65.5917 391 72.0074 391H206.029H694.007C699.322 391 703.708 386.843 703.993 381.536Z" fill="url(#paint0_linear_0_729)"/>
</g>
<g filter="url(#filter1_ii_0_729)">
<path d="M715.463 185.541L723.546 9.54123C723.791 4.20239 728.191 0 733.535 0H1722.28C1727.05 0 1731.15 3.36972 1732.09 8.04852L1767.1 184.049C1768.34 190.234 1763.6 196 1757.3 196H1534.35H725.452C719.749 196 715.201 191.238 715.463 185.541Z" fill="url(#paint1_linear_0_729)"/>
</g>
<g filter="url(#filter2_di_0_729)">
<path d="M1139.73 645.293L1122.14 397.293C1121.77 392.058 1117.42 388 1112.17 388H70.206C65.5347 388 61.4858 391.234 60.4533 395.79L4.25149 643.79C2.83375 650.046 7.58954 656 14.0042 656H86.649H1129.75C1135.55 656 1140.14 651.08 1139.73 645.293Z" fill="url(#paint2_linear_0_729)"/>
</g>
<g filter="url(#filter3_di_0_729)">
<path d="M1139.6 646.401L1121.9 207.399C1121.67 201.723 1126.21 196.996 1131.9 196.996H1761.43C1766.22 196.996 1770.33 200.382 1771.25 205.076L1857.15 644.078C1858.36 650.254 1853.63 655.998 1847.34 655.998H1627.13H1149.59C1144.22 655.998 1139.81 651.763 1139.6 646.401Z" fill="url(#paint3_linear_0_729)"/>
</g>
<path d="M171.548 556.347H175.166V581.349H171.548V556.347ZM174.248 565.932H178.649V568.875H174.248V565.932ZM164.987 558.939H168.524C168.524 561.441 168.164 563.808 167.444 566.04C166.742 568.272 165.572 570.324 163.934 572.196C162.314 574.05 160.118 575.67 157.346 577.056L155.321 574.329C157.517 573.195 159.326 571.917 160.748 570.495C162.188 569.073 163.25 567.462 163.934 565.662C164.636 563.844 164.987 561.819 164.987 559.587V558.939ZM156.698 558.939H166.85V561.828H156.698V558.939ZM196.764 556.374H200.382V581.376H196.764V556.374ZM185.748 562.881H188.61V564.177C188.61 565.491 188.457 566.796 188.151 568.092C187.863 569.37 187.422 570.576 186.828 571.71C186.252 572.844 185.523 573.852 184.641 574.734C183.777 575.598 182.778 576.282 181.644 576.786L179.727 574.005C180.753 573.555 181.635 572.97 182.373 572.25C183.129 571.512 183.759 570.702 184.263 569.82C184.767 568.938 185.136 568.011 185.37 567.039C185.622 566.067 185.748 565.113 185.748 564.177V562.881ZM186.558 562.881H189.339V564.177C189.339 565.059 189.465 565.968 189.717 566.904C189.969 567.84 190.347 568.74 190.851 569.604C191.355 570.45 191.985 571.224 192.741 571.926C193.515 572.61 194.415 573.177 195.441 573.627L193.551 576.354C192.399 575.886 191.382 575.229 190.5 574.383C189.636 573.537 188.907 572.565 188.313 571.467C187.719 570.369 187.278 569.199 186.99 567.957C186.702 566.715 186.558 565.455 186.558 564.177V562.881ZM180.564 560.451H194.442V563.286H180.564V560.451ZM185.748 556.968H189.366V561.936H185.748V556.968ZM214.798 571.953C216.598 571.953 218.164 572.142 219.496 572.52C220.828 572.898 221.854 573.438 222.574 574.14C223.312 574.842 223.681 575.688 223.681 576.678C223.681 577.65 223.312 578.487 222.574 579.189C221.854 579.909 220.828 580.458 219.496 580.836C218.164 581.214 216.598 581.403 214.798 581.403C213.016 581.403 211.459 581.214 210.127 580.836C208.795 580.458 207.76 579.909 207.022 579.189C206.302 578.487 205.942 577.65 205.942 576.678C205.942 575.688 206.302 574.842 207.022 574.14C207.76 573.438 208.795 572.898 210.127 572.52C211.459 572.142 213.016 571.953 214.798 571.953ZM214.798 574.653C213.682 574.653 212.728 574.725 211.936 574.869C211.144 575.013 210.541 575.238 210.127 575.544C209.731 575.85 209.533 576.228 209.533 576.678C209.533 577.128 209.731 577.506 210.127 577.812C210.541 578.1 211.144 578.325 211.936 578.487C212.728 578.631 213.682 578.703 214.798 578.703C215.932 578.703 216.895 578.631 217.687 578.487C218.479 578.325 219.082 578.1 219.496 577.812C219.91 577.506 220.117 577.128 220.117 576.678C220.117 576.228 219.91 575.85 219.496 575.544C219.082 575.238 218.479 575.013 217.687 574.869C216.895 574.725 215.932 574.653 214.798 574.653ZM206.212 557.508H222.061V560.316H206.212V557.508ZM203.701 567.552H226.192V570.387H203.701V567.552ZM212.017 563.178H215.608V568.254H212.017V563.178ZM219.955 557.508H223.546V559.56C223.546 560.55 223.519 561.585 223.465 562.665C223.411 563.745 223.204 564.933 222.844 566.229L219.28 565.878C219.622 564.6 219.82 563.466 219.874 562.476C219.928 561.486 219.955 560.514 219.955 559.56V557.508ZM232.778 572.196H236.423V581.376H232.778V572.196ZM241.418 572.196H245.063V581.376H241.418V572.196ZM227.675 570.306H250.301V573.195H227.675V570.306ZM238.934 557.238C240.716 557.238 242.282 557.463 243.632 557.913C245 558.363 246.062 559.011 246.818 559.857C247.574 560.703 247.952 561.693 247.952 562.827C247.952 563.961 247.574 564.951 246.818 565.797C246.062 566.625 245 567.273 243.632 567.741C242.282 568.191 240.716 568.416 238.934 568.416C237.152 568.416 235.577 568.191 234.209 567.741C232.859 567.273 231.797 566.625 231.023 565.797C230.267 564.951 229.889 563.961 229.889 562.827C229.889 561.693 230.267 560.703 231.023 559.857C231.797 559.011 232.859 558.363 234.209 557.913C235.577 557.463 237.152 557.238 238.934 557.238ZM238.934 560.073C237.836 560.073 236.882 560.181 236.072 560.397C235.28 560.613 234.668 560.928 234.236 561.342C233.804 561.738 233.588 562.233 233.588 562.827C233.588 563.421 233.804 563.925 234.236 564.339C234.668 564.735 235.28 565.041 236.072 565.257C236.882 565.455 237.836 565.554 238.934 565.554C240.032 565.554 240.977 565.455 241.769 565.257C242.561 565.041 243.173 564.735 243.605 564.339C244.055 563.925 244.28 563.421 244.28 562.827C244.28 562.233 244.055 561.738 243.605 561.342C243.173 560.928 242.561 560.613 241.769 560.397C240.977 560.181 240.032 560.073 238.934 560.073Z" fill="#87A7D6"/>
<path d="M200.548 150.347H204.166V175.349H200.548V150.347ZM203.248 159.932H207.649V162.875H203.248V159.932ZM193.987 152.939H197.524C197.524 155.441 197.164 157.808 196.444 160.04C195.742 162.272 194.572 164.324 192.934 166.196C191.314 168.05 189.118 169.67 186.346 171.056L184.321 168.329C186.517 167.195 188.326 165.917 189.748 164.495C191.188 163.073 192.25 161.462 192.934 159.662C193.636 157.844 193.987 155.819 193.987 153.587V152.939ZM185.698 152.939H195.85V155.828H185.698V152.939ZM217.448 152.696H220.634V153.29C220.634 154.064 220.499 154.802 220.229 155.504C219.959 156.188 219.554 156.836 219.014 157.448C218.492 158.042 217.835 158.573 217.043 159.041C216.251 159.509 215.333 159.905 214.289 160.229C213.263 160.535 212.111 160.751 210.833 160.877L209.564 158.069C210.644 157.961 211.607 157.799 212.453 157.583C213.317 157.349 214.064 157.07 214.694 156.746C215.324 156.422 215.837 156.071 216.233 155.693C216.647 155.315 216.953 154.919 217.151 154.505C217.349 154.091 217.448 153.686 217.448 153.29V152.696ZM219.203 152.696H222.362V153.29C222.362 153.704 222.461 154.118 222.659 154.532C222.875 154.928 223.181 155.324 223.577 155.72C223.973 156.098 224.477 156.449 225.089 156.773C225.719 157.079 226.457 157.349 227.303 157.583C228.167 157.799 229.148 157.961 230.246 158.069L229.004 160.877C227.708 160.751 226.538 160.535 225.494 160.229C224.468 159.905 223.559 159.509 222.767 159.041C221.993 158.573 221.336 158.042 220.796 157.448C220.274 156.854 219.878 156.206 219.608 155.504C219.338 154.802 219.203 154.064 219.203 153.29V152.696ZM210.671 151.319H229.193V154.127H210.671V151.319ZM208.592 162.551H231.245V165.413H208.592V162.551ZM218.069 159.338H221.66V163.82H218.069V159.338ZM211.103 167.195H228.491V175.403H224.9V170.03H211.103V167.195ZM238.263 152.318H241.152V155.936C241.152 157.484 241.017 158.996 240.747 160.472C240.477 161.93 240.054 163.289 239.478 164.549C238.92 165.809 238.209 166.934 237.345 167.924C236.481 168.896 235.464 169.67 234.294 170.246L232.134 167.357C233.196 166.871 234.105 166.223 234.861 165.413C235.635 164.603 236.274 163.685 236.778 162.659C237.282 161.633 237.651 160.553 237.885 159.419C238.137 158.267 238.263 157.106 238.263 155.936V152.318ZM238.965 152.318H241.854V155.936C241.854 157.07 241.962 158.186 242.178 159.284C242.412 160.382 242.763 161.426 243.231 162.416C243.717 163.388 244.32 164.261 245.04 165.035C245.76 165.809 246.624 166.448 247.632 166.952L245.445 169.814C244.329 169.238 243.357 168.482 242.529 167.546C241.719 166.592 241.053 165.503 240.531 164.279C240.009 163.037 239.613 161.714 239.343 160.31C239.091 158.888 238.965 157.43 238.965 155.936V152.318ZM248.604 150.401H252.222V175.403H248.604V150.401ZM251.439 160.013H255.84V162.983H251.439V160.013ZM256.675 169.544H279.328V172.46H256.675V169.544ZM266.071 163.982H269.662V170.327H266.071V163.982ZM265.963 151.778H269.095V153.587C269.095 154.649 268.942 155.675 268.636 156.665C268.348 157.655 267.907 158.591 267.313 159.473C266.737 160.355 266.026 161.156 265.18 161.876C264.334 162.578 263.362 163.181 262.264 163.685C261.184 164.189 259.987 164.558 258.673 164.792L257.188 161.795C258.34 161.615 259.375 161.327 260.293 160.931C261.211 160.535 262.021 160.067 262.723 159.527C263.443 158.969 264.037 158.366 264.505 157.718C264.991 157.052 265.351 156.368 265.585 155.666C265.837 154.964 265.963 154.271 265.963 153.587V151.778ZM266.638 151.778H269.797V153.587C269.797 154.289 269.914 154.991 270.148 155.693C270.4 156.395 270.76 157.07 271.228 157.718C271.714 158.366 272.308 158.969 273.01 159.527C273.712 160.067 274.522 160.535 275.44 160.931C276.376 161.327 277.411 161.615 278.545 161.795L277.06 164.792C275.746 164.54 274.549 164.171 273.469 163.685C272.389 163.181 271.426 162.578 270.58 161.876C269.734 161.174 269.014 160.391 268.42 159.527C267.844 158.645 267.403 157.709 267.097 156.719C266.791 155.711 266.638 154.667 266.638 153.587V151.778ZM298.685 150.374H302.087V175.376H298.685V150.374ZM295.499 159.797H299.657V162.686H295.499V159.797ZM288.047 153.452H291.503C291.503 155.216 291.35 156.89 291.044 158.474C290.756 160.058 290.27 161.561 289.586 162.983C288.902 164.387 287.975 165.701 286.805 166.925C285.653 168.131 284.204 169.247 282.458 170.273L280.379 167.762C282.269 166.646 283.772 165.422 284.888 164.09C286.022 162.74 286.832 161.255 287.318 159.635C287.804 157.997 288.047 156.179 288.047 154.181V153.452ZM281.621 153.452H289.1V156.314H281.621V153.452ZM293.123 151.022H296.498V174.296H293.123V151.022Z" fill="#7ED29B"/>
<path d="M1615.91 500.602H1619.5V504.652H1615.91V500.602ZM1626.84 485.401H1630.44V510.403H1626.84V485.401ZM1610.13 506.245L1609.7 503.329C1611.21 503.329 1612.86 503.32 1614.64 503.302C1616.42 503.284 1618.25 503.221 1620.12 503.113C1622.01 503.005 1623.83 502.834 1625.58 502.6L1625.82 505.192C1624 505.516 1622.16 505.759 1620.31 505.921C1618.47 506.065 1616.69 506.155 1614.96 506.191C1613.24 506.227 1611.63 506.245 1610.13 506.245ZM1610.19 488.155H1625.25V490.963H1610.19V488.155ZM1617.72 491.935C1618.94 491.935 1620.02 492.133 1620.96 492.529C1621.89 492.925 1622.62 493.474 1623.15 494.176C1623.69 494.878 1623.96 495.697 1623.96 496.633C1623.96 497.551 1623.69 498.37 1623.15 499.09C1622.62 499.792 1621.89 500.341 1620.96 500.737C1620.02 501.133 1618.94 501.331 1617.72 501.331C1616.49 501.331 1615.41 501.133 1614.48 500.737C1613.54 500.341 1612.8 499.792 1612.26 499.09C1611.74 498.37 1611.48 497.551 1611.48 496.633C1611.48 495.697 1611.74 494.878 1612.26 494.176C1612.8 493.474 1613.54 492.925 1614.48 492.529C1615.41 492.133 1616.49 491.935 1617.72 491.935ZM1617.72 494.635C1616.89 494.635 1616.22 494.815 1615.69 495.175C1615.17 495.517 1614.91 496.003 1614.91 496.633C1614.91 497.281 1615.17 497.776 1615.69 498.118C1616.22 498.46 1616.89 498.631 1617.72 498.631C1618.55 498.631 1619.22 498.46 1619.74 498.118C1620.27 497.776 1620.53 497.281 1620.53 496.633C1620.53 496.003 1620.27 495.517 1619.74 495.175C1619.22 494.815 1618.55 494.635 1617.72 494.635ZM1615.91 485.482H1619.53V489.775H1615.91V485.482ZM1639.24 487.318H1642.12V490.936C1642.12 492.484 1641.99 493.996 1641.72 495.472C1641.45 496.93 1641.03 498.289 1640.45 499.549C1639.89 500.809 1639.18 501.934 1638.32 502.924C1637.45 503.896 1636.44 504.67 1635.27 505.246L1633.11 502.357C1634.17 501.871 1635.08 501.223 1635.83 500.413C1636.61 499.603 1637.25 498.685 1637.75 497.659C1638.25 496.633 1638.62 495.553 1638.86 494.419C1639.11 493.267 1639.24 492.106 1639.24 490.936V487.318ZM1639.94 487.318H1642.83V490.936C1642.83 492.07 1642.93 493.186 1643.15 494.284C1643.38 495.382 1643.74 496.426 1644.2 497.416C1644.69 498.388 1645.29 499.261 1646.01 500.035C1646.73 500.809 1647.6 501.448 1648.6 501.952L1646.42 504.814C1645.3 504.238 1644.33 503.482 1643.5 502.546C1642.69 501.592 1642.03 500.503 1641.5 499.279C1640.98 498.037 1640.59 496.714 1640.32 495.31C1640.06 493.888 1639.94 492.43 1639.94 490.936V487.318ZM1649.58 485.401H1653.19V510.403H1649.58V485.401ZM1652.41 495.013H1656.81V497.983H1652.41V495.013ZM1662.13 486.886H1664.94V489.775C1664.94 491.197 1664.74 492.583 1664.34 493.933C1663.95 495.265 1663.33 496.462 1662.48 497.524C1661.63 498.586 1660.53 499.405 1659.16 499.981L1657.3 497.227C1658.45 496.705 1659.38 496.048 1660.08 495.256C1660.8 494.446 1661.32 493.564 1661.64 492.61C1661.97 491.656 1662.13 490.711 1662.13 489.775V486.886ZM1662.8 486.886H1665.61V489.775C1665.61 490.675 1665.77 491.557 1666.07 492.421C1666.38 493.267 1666.87 494.041 1667.56 494.743C1668.26 495.445 1669.15 496.021 1670.23 496.471L1668.34 499.198C1667.04 498.676 1665.98 497.938 1665.15 496.984C1664.34 496.012 1663.75 494.914 1663.37 493.69C1662.99 492.448 1662.8 491.143 1662.8 489.775V486.886ZM1675.52 485.401H1678.95V500.683H1675.52V485.401ZM1672.52 491.476H1676.49V494.365H1672.52V491.476ZM1670.26 485.86H1673.6V499.9H1670.26V485.86ZM1670.47 501.034C1672.22 501.034 1673.73 501.223 1675.01 501.601C1676.3 501.961 1677.3 502.492 1678.01 503.194C1678.71 503.896 1679.06 504.733 1679.06 505.705C1679.06 506.695 1678.71 507.541 1678.01 508.243C1677.3 508.945 1676.3 509.476 1675.01 509.836C1673.73 510.214 1672.22 510.403 1670.47 510.403C1668.73 510.403 1667.21 510.214 1665.91 509.836C1664.61 509.476 1663.61 508.945 1662.91 508.243C1662.21 507.541 1661.86 506.695 1661.86 505.705C1661.86 504.733 1662.21 503.896 1662.91 503.194C1663.61 502.492 1664.61 501.961 1665.91 501.601C1667.21 501.223 1668.73 501.034 1670.47 501.034ZM1670.47 503.734C1668.85 503.734 1667.6 503.896 1666.72 504.22C1665.86 504.544 1665.42 505.039 1665.42 505.705C1665.42 506.371 1665.86 506.875 1666.72 507.217C1667.6 507.541 1668.85 507.703 1670.47 507.703C1671.53 507.703 1672.43 507.631 1673.17 507.487C1673.93 507.325 1674.5 507.1 1674.87 506.812C1675.27 506.524 1675.47 506.155 1675.47 505.705C1675.47 505.039 1675.04 504.544 1674.17 504.22C1673.31 503.896 1672.07 503.734 1670.47 503.734ZM1697.9 485.374H1701.49V500.089H1697.9V485.374ZM1700.25 491.26H1704.65V494.23H1700.25V491.26ZM1684.67 500.98H1701.49V506.65H1688.26V508.648H1684.73V504.436H1697.96V503.356H1684.67V500.98ZM1684.73 507.838H1702.36V510.241H1684.73V507.838ZM1687.32 495.391H1690.91V498.955H1687.32V495.391ZM1681.73 499.873L1681.38 497.416C1682.85 497.416 1684.47 497.407 1686.21 497.389C1687.96 497.353 1689.74 497.29 1691.56 497.2C1693.38 497.11 1695.13 496.957 1696.82 496.741L1697.07 498.901C1695.32 499.207 1693.54 499.432 1691.72 499.576C1689.92 499.702 1688.16 499.783 1686.45 499.819C1684.76 499.855 1683.19 499.873 1681.73 499.873ZM1682 486.94H1696.2V489.316H1682V486.94ZM1689.1 489.775C1690.95 489.775 1692.43 490.063 1693.53 490.639C1694.64 491.215 1695.2 492.025 1695.2 493.069C1695.2 494.095 1694.64 494.905 1693.53 495.499C1692.43 496.075 1690.95 496.363 1689.1 496.363C1687.25 496.363 1685.77 496.075 1684.67 495.499C1683.57 494.905 1683.03 494.095 1683.03 493.069C1683.03 492.043 1683.57 491.242 1684.67 490.666C1685.77 490.072 1687.25 489.775 1689.1 489.775ZM1689.1 491.989C1688.25 491.989 1687.6 492.079 1687.13 492.259C1686.66 492.439 1686.43 492.709 1686.43 493.069C1686.43 493.429 1686.66 493.699 1687.13 493.879C1687.6 494.059 1688.25 494.149 1689.1 494.149C1689.96 494.149 1690.63 494.059 1691.1 493.879C1691.57 493.699 1691.8 493.429 1691.8 493.069C1691.8 492.709 1691.57 492.439 1691.1 492.259C1690.63 492.079 1689.96 491.989 1689.1 491.989ZM1687.32 485.185H1690.91V488.263H1687.32V485.185Z" fill="#B49A65"/>
<path opacity="0.45" d="M1572.66 150.401H1576.25V169.085H1572.66V150.401ZM1575.25 158.015H1579.57V160.985H1575.25V158.015ZM1556.59 153.02H1571.28V155.828H1556.59V153.02ZM1563.94 156.719C1565.14 156.719 1566.2 156.926 1567.12 157.34C1568.06 157.736 1568.79 158.303 1569.31 159.041C1569.83 159.761 1570.09 160.589 1570.09 161.525C1570.09 162.479 1569.83 163.325 1569.31 164.063C1568.79 164.783 1568.06 165.35 1567.12 165.764C1566.2 166.16 1565.14 166.358 1563.94 166.358C1562.75 166.358 1561.69 166.16 1560.75 165.764C1559.81 165.35 1559.08 164.783 1558.56 164.063C1558.04 163.325 1557.78 162.479 1557.78 161.525C1557.78 160.589 1558.04 159.761 1558.56 159.041C1559.08 158.303 1559.81 157.736 1560.75 157.34C1561.69 156.926 1562.75 156.719 1563.94 156.719ZM1563.94 159.446C1563.14 159.446 1562.5 159.626 1561.99 159.986C1561.49 160.346 1561.24 160.868 1561.24 161.552C1561.24 162.218 1561.49 162.731 1561.99 163.091C1562.5 163.451 1563.14 163.631 1563.94 163.631C1564.75 163.631 1565.39 163.451 1565.88 163.091C1566.38 162.731 1566.64 162.218 1566.64 161.552C1566.64 160.868 1566.38 160.346 1565.88 159.986C1565.39 159.626 1564.75 159.446 1563.94 159.446ZM1562.15 150.374H1565.72V154.37H1562.15V150.374ZM1560.13 172.082H1577.14V174.971H1560.13V172.082ZM1560.13 167.681H1563.75V173.324H1560.13V167.681ZM1598.49 150.401H1601.92V165.305H1598.49V150.401ZM1595.52 156.449H1599.49V159.338H1595.52V156.449ZM1593.23 150.833H1596.58V165.224H1593.23V150.833ZM1584.72 166.439H1601.92V175.403H1598.33V169.301H1584.72V166.439ZM1581.48 152.561H1591.37V163.874H1581.48V152.561ZM1588.04 155.315H1584.83V161.12H1588.04V155.315ZM1620.6 150.347H1624.22V175.349H1620.6V150.347ZM1623.3 159.932H1627.71V162.875H1623.3V159.932ZM1614.04 152.939H1617.58C1617.58 155.441 1617.22 157.808 1616.5 160.04C1615.8 162.272 1614.63 164.324 1612.99 166.196C1611.37 168.05 1609.17 169.67 1606.4 171.056L1604.38 168.329C1606.57 167.195 1608.38 165.917 1609.8 164.495C1611.24 163.073 1612.31 161.462 1612.99 159.662C1613.69 157.844 1614.04 155.819 1614.04 153.587V152.939ZM1605.75 152.939H1615.91V155.828H1605.75V152.939ZM1637.5 152.696H1640.69V153.29C1640.69 154.064 1640.56 154.802 1640.29 155.504C1640.02 156.188 1639.61 156.836 1639.07 157.448C1638.55 158.042 1637.89 158.573 1637.1 159.041C1636.31 159.509 1635.39 159.905 1634.35 160.229C1633.32 160.535 1632.17 160.751 1630.89 160.877L1629.62 158.069C1630.7 157.961 1631.66 157.799 1632.51 157.583C1633.37 157.349 1634.12 157.07 1634.75 156.746C1635.38 156.422 1635.89 156.071 1636.29 155.693C1636.7 155.315 1637.01 154.919 1637.21 154.505C1637.41 154.091 1637.5 153.686 1637.5 153.29V152.696ZM1639.26 152.696H1642.42V153.29C1642.42 153.704 1642.52 154.118 1642.72 154.532C1642.93 154.928 1643.24 155.324 1643.63 155.72C1644.03 156.098 1644.53 156.449 1645.15 156.773C1645.78 157.079 1646.51 157.349 1647.36 157.583C1648.22 157.799 1649.2 157.961 1650.3 158.069L1649.06 160.877C1647.76 160.751 1646.59 160.535 1645.55 160.229C1644.52 159.905 1643.62 159.509 1642.82 159.041C1642.05 158.573 1641.39 158.042 1640.85 157.448C1640.33 156.854 1639.93 156.206 1639.66 155.504C1639.39 154.802 1639.26 154.064 1639.26 153.29V152.696ZM1630.73 151.319H1649.25V154.127H1630.73V151.319ZM1628.65 162.551H1651.3V165.413H1628.65V162.551ZM1638.13 159.338H1641.72V163.82H1638.13V159.338ZM1631.16 167.195H1648.55V175.403H1644.96V170.03H1631.16V167.195ZM1660.75 152.048C1662.04 152.048 1663.21 152.309 1664.26 152.831C1665.3 153.353 1666.12 154.082 1666.72 155.018C1667.31 155.936 1667.61 156.998 1667.61 158.204C1667.61 159.392 1667.31 160.454 1666.72 161.39C1666.12 162.326 1665.3 163.055 1664.26 163.577C1663.21 164.099 1662.04 164.36 1660.75 164.36C1659.43 164.36 1658.26 164.099 1657.21 163.577C1656.17 163.055 1655.34 162.326 1654.73 161.39C1654.13 160.454 1653.84 159.392 1653.84 158.204C1653.84 156.998 1654.13 155.936 1654.73 155.018C1655.34 154.082 1656.17 153.353 1657.21 152.831C1658.26 152.309 1659.43 152.048 1660.75 152.048ZM1660.75 155.126C1660.1 155.126 1659.52 155.252 1658.99 155.504C1658.49 155.738 1658.08 156.089 1657.78 156.557C1657.49 157.007 1657.35 157.556 1657.35 158.204C1657.35 158.852 1657.49 159.41 1657.78 159.878C1658.08 160.346 1658.49 160.706 1658.99 160.958C1659.52 161.192 1660.1 161.309 1660.75 161.309C1661.38 161.309 1661.95 161.192 1662.45 160.958C1662.95 160.706 1663.35 160.346 1663.64 159.878C1663.94 159.41 1664.1 158.852 1664.1 158.204C1664.1 157.556 1663.94 157.007 1663.64 156.557C1663.35 156.089 1662.95 155.738 1662.45 155.504C1661.95 155.252 1661.38 155.126 1660.75 155.126ZM1669.96 150.347H1673.55V175.43H1669.96V150.347ZM1653.22 170.381L1652.81 167.465C1654.27 167.465 1655.88 167.456 1657.64 167.438C1659.43 167.402 1661.25 167.33 1663.12 167.222C1665.01 167.096 1666.84 166.907 1668.61 166.655L1668.85 169.247C1667.05 169.607 1665.22 169.868 1663.37 170.03C1661.51 170.174 1659.72 170.273 1657.99 170.327C1656.27 170.363 1654.67 170.381 1653.22 170.381ZM1689.73 173H1682.77V153.364H1689.79C1691.76 153.364 1693.46 153.757 1694.89 154.543C1696.31 155.323 1697.41 156.445 1698.18 157.908C1698.95 159.372 1699.34 161.124 1699.34 163.163C1699.34 165.208 1698.95 166.966 1698.18 168.436C1697.41 169.906 1696.31 171.034 1694.87 171.821C1693.44 172.607 1691.72 173 1689.73 173ZM1686.92 169.443H1689.56C1690.79 169.443 1691.82 169.225 1692.65 168.791C1693.5 168.35 1694.13 167.669 1694.55 166.749C1694.98 165.822 1695.2 164.626 1695.2 163.163C1695.2 161.712 1694.98 160.526 1694.55 159.605C1694.13 158.685 1693.5 158.007 1692.66 157.573C1691.83 157.138 1690.79 156.921 1689.57 156.921H1686.92V169.443ZM1704.57 153.364L1708.53 160.056H1708.69L1712.67 153.364H1717.35L1711.36 163.182L1717.49 173H1712.71L1708.69 166.298H1708.53L1704.51 173H1699.75L1705.9 163.182L1699.87 153.364H1704.57Z" fill="#FFCCCA"/>
<g filter="url(#filter4_dii_0_729)">
<path d="M60.4844 525.5L88.4844 393L703.484 391L689.484 640H270.984L291.984 525.5H60.4844Z" fill="white"/>
<path d="M60.4844 525.5L88.4844 393L703.484 391L689.484 640H270.984L291.984 525.5H60.4844Z" fill="#5485D3" fill-opacity="0.1"/>
</g>
<g filter="url(#filter5_dii_0_729)">
<mask id="mask0_0_729" style="mask-type:alpha" maskUnits="userSpaceOnUse" x="714" y="15" width="406" height="182">
<path d="M714.984 197L723.984 16L1111.98 15.9995L1119.98 197H714.984Z" fill="#D9D9D9"/>
</mask>
<g mask="url(#mask0_0_729)">
<rect x="672.484" width="491" height="271" fill="white" fill-opacity="0.5"/>
</g>
</g>
<g filter="url(#filter6_dii_0_729)">
<mask id="mask1_0_729" style="mask-type:alpha" maskUnits="userSpaceOnUse" x="1111" y="16" width="422" height="182">
<path d="M1120.48 197L1111.98 16.0005H1510.98L1532.98 194.991L1120.48 197Z" fill="#D9D9D9"/>
</mask>
<g mask="url(#mask1_0_729)">
<rect x="1069.48" width="491" height="271" fill="white" fill-opacity="0.5"/>
</g>
</g>
<g filter="url(#filter7_dii_0_729)">
<mask id="mask2_0_729" style="mask-type:alpha" maskUnits="userSpaceOnUse" x="1119" y="194" width="442" height="194">
<path d="M1127.98 387.5L1119.98 197.5L1533.48 194L1560.48 387.5H1127.98Z" fill="#C7C7C7" fill-opacity="0.3"/>
<path d="M1127.98 387.5L1119.98 197.5L1533.48 194L1560.48 387.5H1127.98Z" fill="url(#paint4_linear_0_729)" fill-opacity="0.9"/>
</mask>
<g mask="url(#mask2_0_729)">
<rect x="1077.48" y="178" width="491" height="271" fill="white" fill-opacity="0.5"/>
</g>
</g>
<g filter="url(#filter8_dii_0_729)">
<mask id="mask3_0_729" style="mask-type:alpha" maskUnits="userSpaceOnUse" x="705" y="197" width="423" height="191">
<path d="M705.484 387.5L715.484 197.5L1119.98 197.876L1127.98 387.5H705.484Z" fill="#C7C7C7" fill-opacity="0.3"/>
<path d="M705.484 387.5L715.484 197.5L1119.98 197.876L1127.98 387.5H705.484Z" fill="url(#paint5_linear_0_729)" fill-opacity="0.9"/>
</mask>
<g mask="url(#mask3_0_729)">
<rect x="672.984" y="178" width="491" height="271" fill="white" fill-opacity="0.5"/>
</g>
</g>
<g filter="url(#filter9_dii_0_729)">
<mask id="mask4_0_729" style="mask-type:alpha" maskUnits="userSpaceOnUse" x="691" y="389" width="448" height="251">
<path d="M691.484 640L704.984 391L1127.98 389.5L1138.48 640H691.484Z" fill="#D9D9D9"/>
</mask>
<g mask="url(#mask4_0_729)">
<rect x="648.484" y="374" width="491" height="271" fill="white" fill-opacity="0.5"/>
</g>
</g>
<g filter="url(#filter10_dii_0_729)">
<mask id="mask5_0_729" style="mask-type:alpha" maskUnits="userSpaceOnUse" x="1127" y="389" width="473" height="251">
<path d="M1137.98 640L1127.98 389.5H1559.48L1599.48 640H1137.98Z" fill="#D9D9D9"/>
</mask>
<g mask="url(#mask5_0_729)">
<rect x="1085.48" y="374" width="546" height="271" fill="white" fill-opacity="0.5"/>
</g>
</g>
<g filter="url(#filter11_dii_0_729)">
<mask id="mask6_0_729" style="mask-type:alpha" maskUnits="userSpaceOnUse" x="1533" y="194" width="267" height="261">
<path d="M1568.98 455L1533.48 194.5H1751.98L1799.98 449.5L1568.98 455Z" fill="#D9D9D9"/>
</mask>
<g mask="url(#mask6_0_729)">
<rect x="1490.48" y="181" width="491" height="271" fill="white" fill-opacity="0.5"/>
</g>
</g>
<g filter="url(#filter12_dii_0_729)">
<path d="M358.984 17.5L335.484 192.5H426.484L401.484 389H701.984L722.984 17.5H358.984Z" fill="#D9D9D9"/>
</g>
<g filter="url(#filter13_dii_0_729)">
<mask id="mask7_0_729" style="mask-type:alpha" maskUnits="userSpaceOnUse" x="88" y="193" width="338" height="197">
<path d="M88.4844 390L123.984 193H425.984L402.484 389L88.4844 390Z" fill="#C7C7C7" fill-opacity="0.3"/>
</mask>
<g mask="url(#mask7_0_729)">
<rect x="45.4844" y="177" width="491" height="271" fill="white" fill-opacity="0.5"/>
</g>
</g>
<defs>
<filter id="filter0_i_0_729" x="62.0033" y="3.05176e-05" width="661.93" height="391" filterUnits="userSpaceOnUse" color-interpolation-filters="sRGB">
<feFlood flood-opacity="0" result="BackgroundImageFix"/>
<feBlend mode="normal" in="SourceGraphic" in2="BackgroundImageFix" result="shape"/>
<feColorMatrix in="SourceAlpha" type="matrix" values="0 0 0 0 0 0 0 0 0 0 0 0 0 0 0 0 0 0 127 0" result="hardAlpha"/>
<feOffset dy="-4"/>
<feComposite in2="hardAlpha" operator="arithmetic" k2="-1" k3="1"/>
<feColorMatrix type="matrix" values="0 0 0 0 0 0 0 0 0 0 0 0 0 0 0 0 0 0 0.25 0"/>
<feBlend mode="normal" in2="shape" result="effect1_innerShadow_0_729"/>
</filter>
<filter id="filter1_ii_0_729" x="715.452" y="0" width="1051.85" height="196" filterUnits="userSpaceOnUse" color-interpolation-filters="sRGB">
<feFlood flood-opacity="0" result="BackgroundImageFix"/>
<feBlend mode="normal" in="SourceGraphic" in2="BackgroundImageFix" result="shape"/>
<feColorMatrix in="SourceAlpha" type="matrix" values="0 0 0 0 0 0 0 0 0 0 0 0 0 0 0 0 0 0 127 0" result="hardAlpha"/>
<feOffset dy="3"/>
<feComposite in2="hardAlpha" operator="arithmetic" k2="-1" k3="1"/>
<feColorMatrix type="matrix" values="0 0 0 0 0.646635 0 0 0 0 0.327793 0 0 0 0 0.170985 0 0 0 1 0"/>
<feBlend mode="normal" in2="shape" result="effect1_innerShadow_0_729"/>
<feColorMatrix in="SourceAlpha" type="matrix" values="0 0 0 0 0 0 0 0 0 0 0 0 0 0 0 0 0 0 127 0" result="hardAlpha"/>
<feOffset dy="-4"/>
<feComposite in2="hardAlpha" operator="arithmetic" k2="-1" k3="1"/>
<feColorMatrix type="matrix" values="0 0 0 0 0 0 0 0 0 0 0 0 0 0 0 0 0 0 0.25 0"/>
<feBlend mode="normal" in2="effect1_innerShadow_0_729" result="effect2_innerShadow_0_729"/>
</filter>
<filter id="filter2_di_0_729" x="1.90735e-06" y="388" width="1143.75" height="276" filterUnits="userSpaceOnUse" color-interpolation-filters="sRGB">
<feFlood flood-opacity="0" result="BackgroundImageFix"/>
<feColorMatrix in="SourceAlpha" type="matrix" values="0 0 0 0 0 0 0 0 0 0 0 0 0 0 0 0 0 0 127 0" result="hardAlpha"/>
<feOffset dy="4"/>
<feGaussianBlur stdDeviation="2"/>
<feComposite in2="hardAlpha" operator="out"/>
<feColorMatrix type="matrix" values="0 0 0 0 0 0 0 0 0 0 0 0 0 0 0 0 0 0 0.25 0"/>
<feBlend mode="normal" in2="BackgroundImageFix" result="effect1_dropShadow_0_729"/>
<feBlend mode="normal" in="SourceGraphic" in2="effect1_dropShadow_0_729" result="shape"/>
<feColorMatrix in="SourceAlpha" type="matrix" values="0 0 0 0 0 0 0 0 0 0 0 0 0 0 0 0 0 0 127 0" result="hardAlpha"/>
<feOffset dy="-4"/>
<feComposite in2="hardAlpha" operator="arithmetic" k2="-1" k3="1"/>
<feColorMatrix type="matrix" values="0 0 0 0 0 0 0 0 0 0 0 0 0 0 0 0 0 0 0.25 0"/>
<feBlend mode="normal" in2="shape" result="effect2_innerShadow_0_729"/>
</filter>
<filter id="filter3_di_0_729" x="1117.9" y="196.996" width="743.446" height="467.002" filterUnits="userSpaceOnUse" color-interpolation-filters="sRGB">
<feFlood flood-opacity="0" result="BackgroundImageFix"/>
<feColorMatrix in="SourceAlpha" type="matrix" values="0 0 0 0 0 0 0 0 0 0 0 0 0 0 0 0 0 0 127 0" result="hardAlpha"/>
<feOffset dy="4"/>
<feGaussianBlur stdDeviation="2"/>
<feComposite in2="hardAlpha" operator="out"/>
<feColorMatrix type="matrix" values="0 0 0 0 0 0 0 0 0 0 0 0 0 0 0 0 0 0 0.25 0"/>
<feBlend mode="normal" in2="BackgroundImageFix" result="effect1_dropShadow_0_729"/>
<feBlend mode="normal" in="SourceGraphic" in2="effect1_dropShadow_0_729" result="shape"/>
<feColorMatrix in="SourceAlpha" type="matrix" values="0 0 0 0 0 0 0 0 0 0 0 0 0 0 0 0 0 0 127 0" result="hardAlpha"/>
<feOffset dy="-4"/>
<feComposite in2="hardAlpha" operator="arithmetic" k2="-1" k3="1"/>
<feColorMatrix type="matrix" values="0 0 0 0 0 0 0 0 0 0 0 0 0 0 0 0 0 0 0.25 0"/>
<feBlend mode="normal" in2="shape" result="effect2_innerShadow_0_729"/>
</filter>
<filter id="filter4_dii_0_729" x="55.8844" y="386.4" width="656.2" height="262.2" filterUnits="userSpaceOnUse" color-interpolation-filters="sRGB">
<feFlood flood-opacity="0" result="BackgroundImageFix"/>
<feColorMatrix in="SourceAlpha" type="matrix" values="0 0 0 0 0 0 0 0 0 0 0 0 0 0 0 0 0 0 127 0" result="hardAlpha"/>
<feOffset dx="2" dy="2"/>
<feGaussianBlur stdDeviation="3.3"/>
<feComposite in2="hardAlpha" operator="out"/>
<feColorMatrix type="matrix" values="0 0 0 0 0 0 0 0 0 0 0 0 0 0 0 0 0 0 0.6 0"/>
<feBlend mode="normal" in2="BackgroundImageFix" result="effect1_dropShadow_0_729"/>
<feBlend mode="normal" in="SourceGraphic" in2="effect1_dropShadow_0_729" result="shape"/>
<feColorMatrix in="SourceAlpha" type="matrix" values="0 0 0 0 0 0 0 0 0 0 0 0 0 0 0 0 0 0 127 0" result="hardAlpha"/>
<feOffset dx="-5" dy="-5"/>
<feGaussianBlur stdDeviation="0.5"/>
<feComposite in2="hardAlpha" operator="arithmetic" k2="-1" k3="1"/>
<feColorMatrix type="matrix" values="0 0 0 0 0 0 0 0 0 0 0 0 0 0 0 0 0 0 0.2 0"/>
<feBlend mode="normal" in2="shape" result="effect2_innerShadow_0_729"/>
<feColorMatrix in="SourceAlpha" type="matrix" values="0 0 0 0 0 0 0 0 0 0 0 0 0 0 0 0 0 0 127 0" result="hardAlpha"/>
<feOffset dx="2" dy="2"/>
<feGaussianBlur stdDeviation="1"/>
<feComposite in2="hardAlpha" operator="arithmetic" k2="-1" k3="1"/>
<feColorMatrix type="matrix" values="0 0 0 0 1 0 0 0 0 1 0 0 0 0 1 0 0 0 0.6 0"/>
<feBlend mode="normal" in2="effect2_innerShadow_0_729" result="effect3_innerShadow_0_729"/>
</filter>
<filter id="filter5_dii_0_729" x="710.384" y="11.3995" width="418.2" height="194.2" filterUnits="userSpaceOnUse" color-interpolation-filters="sRGB">
<feFlood flood-opacity="0" result="BackgroundImageFix"/>
<feColorMatrix in="SourceAlpha" type="matrix" values="0 0 0 0 0 0 0 0 0 0 0 0 0 0 0 0 0 0 127 0" result="hardAlpha"/>
<feOffset dx="2" dy="2"/>
<feGaussianBlur stdDeviation="3.3"/>
<feComposite in2="hardAlpha" operator="out"/>
<feColorMatrix type="matrix" values="0 0 0 0 0 0 0 0 0 0 0 0 0 0 0 0 0 0 0.6 0"/>
<feBlend mode="normal" in2="BackgroundImageFix" result="effect1_dropShadow_0_729"/>
<feBlend mode="normal" in="SourceGraphic" in2="effect1_dropShadow_0_729" result="shape"/>
<feColorMatrix in="SourceAlpha" type="matrix" values="0 0 0 0 0 0 0 0 0 0 0 0 0 0 0 0 0 0 127 0" result="hardAlpha"/>
<feOffset dx="-5" dy="-5"/>
<feGaussianBlur stdDeviation="0.5"/>
<feComposite in2="hardAlpha" operator="arithmetic" k2="-1" k3="1"/>
<feColorMatrix type="matrix" values="0 0 0 0 0 0 0 0 0 0 0 0 0 0 0 0 0 0 0.2 0"/>
<feBlend mode="normal" in2="shape" result="effect2_innerShadow_0_729"/>
<feColorMatrix in="SourceAlpha" type="matrix" values="0 0 0 0 0 0 0 0 0 0 0 0 0 0 0 0 0 0 127 0" result="hardAlpha"/>
<feOffset dx="2" dy="2"/>
<feGaussianBlur stdDeviation="1"/>
<feComposite in2="hardAlpha" operator="arithmetic" k2="-1" k3="1"/>
<feColorMatrix type="matrix" values="0 0 0 0 1 0 0 0 0 1 0 0 0 0 1 0 0 0 0.6 0"/>
<feBlend mode="normal" in2="effect2_innerShadow_0_729" result="effect3_innerShadow_0_729"/>
</filter>
<filter id="filter6_dii_0_729" x="1107.38" y="11.4005" width="434.2" height="194.2" filterUnits="userSpaceOnUse" color-interpolation-filters="sRGB">
<feFlood flood-opacity="0" result="BackgroundImageFix"/>
<feColorMatrix in="SourceAlpha" type="matrix" values="0 0 0 0 0 0 0 0 0 0 0 0 0 0 0 0 0 0 127 0" result="hardAlpha"/>
<feOffset dx="2" dy="2"/>
<feGaussianBlur stdDeviation="3.3"/>
<feComposite in2="hardAlpha" operator="out"/>
<feColorMatrix type="matrix" values="0 0 0 0 0 0 0 0 0 0 0 0 0 0 0 0 0 0 0.6 0"/>
<feBlend mode="normal" in2="BackgroundImageFix" result="effect1_dropShadow_0_729"/>
<feBlend mode="normal" in="SourceGraphic" in2="effect1_dropShadow_0_729" result="shape"/>
<feColorMatrix in="SourceAlpha" type="matrix" values="0 0 0 0 0 0 0 0 0 0 0 0 0 0 0 0 0 0 127 0" result="hardAlpha"/>
<feOffset dx="-5" dy="-5"/>
<feGaussianBlur stdDeviation="0.5"/>
<feComposite in2="hardAlpha" operator="arithmetic" k2="-1" k3="1"/>
<feColorMatrix type="matrix" values="0 0 0 0 0 0 0 0 0 0 0 0 0 0 0 0 0 0 0.2 0"/>
<feBlend mode="normal" in2="shape" result="effect2_innerShadow_0_729"/>
<feColorMatrix in="SourceAlpha" type="matrix" values="0 0 0 0 0 0 0 0 0 0 0 0 0 0 0 0 0 0 127 0" result="hardAlpha"/>
<feOffset dx="2" dy="2"/>
<feGaussianBlur stdDeviation="1"/>
<feComposite in2="hardAlpha" operator="arithmetic" k2="-1" k3="1"/>
<feColorMatrix type="matrix" values="0 0 0 0 1 0 0 0 0 1 0 0 0 0 1 0 0 0 0.6 0"/>
<feBlend mode="normal" in2="effect2_innerShadow_0_729" result="effect3_innerShadow_0_729"/>
</filter>
<filter id="filter7_dii_0_729" x="1115.38" y="189.4" width="453.7" height="206.7" filterUnits="userSpaceOnUse" color-interpolation-filters="sRGB">
<feFlood flood-opacity="0" result="BackgroundImageFix"/>
<feColorMatrix in="SourceAlpha" type="matrix" values="0 0 0 0 0 0 0 0 0 0 0 0 0 0 0 0 0 0 127 0" result="hardAlpha"/>
<feOffset dx="2" dy="2"/>
<feGaussianBlur stdDeviation="3.3"/>
<feComposite in2="hardAlpha" operator="out"/>
<feColorMatrix type="matrix" values="0 0 0 0 0 0 0 0 0 0 0 0 0 0 0 0 0 0 0.6 0"/>
<feBlend mode="normal" in2="BackgroundImageFix" result="effect1_dropShadow_0_729"/>
<feBlend mode="normal" in="SourceGraphic" in2="effect1_dropShadow_0_729" result="shape"/>
<feColorMatrix in="SourceAlpha" type="matrix" values="0 0 0 0 0 0 0 0 0 0 0 0 0 0 0 0 0 0 127 0" result="hardAlpha"/>
<feOffset dx="-5" dy="-5"/>
<feGaussianBlur stdDeviation="0.5"/>
<feComposite in2="hardAlpha" operator="arithmetic" k2="-1" k3="1"/>
<feColorMatrix type="matrix" values="0 0 0 0 0 0 0 0 0 0 0 0 0 0 0 0 0 0 0.2 0"/>
<feBlend mode="normal" in2="shape" result="effect2_innerShadow_0_729"/>
<feColorMatrix in="SourceAlpha" type="matrix" values="0 0 0 0 0 0 0 0 0 0 0 0 0 0 0 0 0 0 127 0" result="hardAlpha"/>
<feOffset dx="2" dy="2"/>
<feGaussianBlur stdDeviation="1"/>
<feComposite in2="hardAlpha" operator="arithmetic" k2="-1" k3="1"/>
<feColorMatrix type="matrix" values="0 0 0 0 1 0 0 0 0 1 0 0 0 0 1 0 0 0 0.6 0"/>
<feBlend mode="normal" in2="effect2_innerShadow_0_729" result="effect3_innerShadow_0_729"/>
</filter>
<filter id="filter8_dii_0_729" x="700.884" y="192.9" width="435.7" height="203.2" filterUnits="userSpaceOnUse" color-interpolation-filters="sRGB">
<feFlood flood-opacity="0" result="BackgroundImageFix"/>
<feColorMatrix in="SourceAlpha" type="matrix" values="0 0 0 0 0 0 0 0 0 0 0 0 0 0 0 0 0 0 127 0" result="hardAlpha"/>
<feOffset dx="2" dy="2"/>
<feGaussianBlur stdDeviation="3.3"/>
<feComposite in2="hardAlpha" operator="out"/>
<feColorMatrix type="matrix" values="0 0 0 0 0 0 0 0 0 0 0 0 0 0 0 0 0 0 0.6 0"/>
<feBlend mode="normal" in2="BackgroundImageFix" result="effect1_dropShadow_0_729"/>
<feBlend mode="normal" in="SourceGraphic" in2="effect1_dropShadow_0_729" result="shape"/>
<feColorMatrix in="SourceAlpha" type="matrix" values="0 0 0 0 0 0 0 0 0 0 0 0 0 0 0 0 0 0 127 0" result="hardAlpha"/>
<feOffset dx="-5" dy="-5"/>
<feGaussianBlur stdDeviation="0.5"/>
<feComposite in2="hardAlpha" operator="arithmetic" k2="-1" k3="1"/>
<feColorMatrix type="matrix" values="0 0 0 0 0 0 0 0 0 0 0 0 0 0 0 0 0 0 0.2 0"/>
<feBlend mode="normal" in2="shape" result="effect2_innerShadow_0_729"/>
<feColorMatrix in="SourceAlpha" type="matrix" values="0 0 0 0 0 0 0 0 0 0 0 0 0 0 0 0 0 0 127 0" result="hardAlpha"/>
<feOffset dx="2" dy="2"/>
<feGaussianBlur stdDeviation="1"/>
<feComposite in2="hardAlpha" operator="arithmetic" k2="-1" k3="1"/>
<feColorMatrix type="matrix" values="0 0 0 0 1 0 0 0 0 1 0 0 0 0 1 0 0 0 0.6 0"/>
<feBlend mode="normal" in2="effect2_innerShadow_0_729" result="effect3_innerShadow_0_729"/>
</filter>
<filter id="filter9_dii_0_729" x="686.884" y="384.9" width="460.2" height="263.7" filterUnits="userSpaceOnUse" color-interpolation-filters="sRGB">
<feFlood flood-opacity="0" result="BackgroundImageFix"/>
<feColorMatrix in="SourceAlpha" type="matrix" values="0 0 0 0 0 0 0 0 0 0 0 0 0 0 0 0 0 0 127 0" result="hardAlpha"/>
<feOffset dx="2" dy="2"/>
<feGaussianBlur stdDeviation="3.3"/>
<feComposite in2="hardAlpha" operator="out"/>
<feColorMatrix type="matrix" values="0 0 0 0 0 0 0 0 0 0 0 0 0 0 0 0 0 0 0.6 0"/>
<feBlend mode="normal" in2="BackgroundImageFix" result="effect1_dropShadow_0_729"/>
<feBlend mode="normal" in="SourceGraphic" in2="effect1_dropShadow_0_729" result="shape"/>
<feColorMatrix in="SourceAlpha" type="matrix" values="0 0 0 0 0 0 0 0 0 0 0 0 0 0 0 0 0 0 127 0" result="hardAlpha"/>
<feOffset dx="-5" dy="-5"/>
<feGaussianBlur stdDeviation="0.5"/>
<feComposite in2="hardAlpha" operator="arithmetic" k2="-1" k3="1"/>
<feColorMatrix type="matrix" values="0 0 0 0 0 0 0 0 0 0 0 0 0 0 0 0 0 0 0.2 0"/>
<feBlend mode="normal" in2="shape" result="effect2_innerShadow_0_729"/>
<feColorMatrix in="SourceAlpha" type="matrix" values="0 0 0 0 0 0 0 0 0 0 0 0 0 0 0 0 0 0 127 0" result="hardAlpha"/>
<feOffset dx="2" dy="2"/>
<feGaussianBlur stdDeviation="1"/>
<feComposite in2="hardAlpha" operator="arithmetic" k2="-1" k3="1"/>
<feColorMatrix type="matrix" values="0 0 0 0 1 0 0 0 0 1 0 0 0 0 1 0 0 0 0.6 0"/>
<feBlend mode="normal" in2="effect2_innerShadow_0_729" result="effect3_innerShadow_0_729"/>
</filter>
<filter id="filter10_dii_0_729" x="1123.38" y="384.9" width="484.7" height="263.7" filterUnits="userSpaceOnUse" color-interpolation-filters="sRGB">
<feFlood flood-opacity="0" result="BackgroundImageFix"/>
<feColorMatrix in="SourceAlpha" type="matrix" values="0 0 0 0 0 0 0 0 0 0 0 0 0 0 0 0 0 0 127 0" result="hardAlpha"/>
<feOffset dx="2" dy="2"/>
<feGaussianBlur stdDeviation="3.3"/>
<feComposite in2="hardAlpha" operator="out"/>
<feColorMatrix type="matrix" values="0 0 0 0 0 0 0 0 0 0 0 0 0 0 0 0 0 0 0.6 0"/>
<feBlend mode="normal" in2="BackgroundImageFix" result="effect1_dropShadow_0_729"/>
<feBlend mode="normal" in="SourceGraphic" in2="effect1_dropShadow_0_729" result="shape"/>
<feColorMatrix in="SourceAlpha" type="matrix" values="0 0 0 0 0 0 0 0 0 0 0 0 0 0 0 0 0 0 127 0" result="hardAlpha"/>
<feOffset dx="-5" dy="-5"/>
<feGaussianBlur stdDeviation="0.5"/>
<feComposite in2="hardAlpha" operator="arithmetic" k2="-1" k3="1"/>
<feColorMatrix type="matrix" values="0 0 0 0 0 0 0 0 0 0 0 0 0 0 0 0 0 0 0.2 0"/>
<feBlend mode="normal" in2="shape" result="effect2_innerShadow_0_729"/>
<feColorMatrix in="SourceAlpha" type="matrix" values="0 0 0 0 0 0 0 0 0 0 0 0 0 0 0 0 0 0 127 0" result="hardAlpha"/>
<feOffset dx="2" dy="2"/>
<feGaussianBlur stdDeviation="1"/>
<feComposite in2="hardAlpha" operator="arithmetic" k2="-1" k3="1"/>
<feColorMatrix type="matrix" values="0 0 0 0 1 0 0 0 0 1 0 0 0 0 1 0 0 0 0.6 0"/>
<feBlend mode="normal" in2="effect2_innerShadow_0_729" result="effect3_innerShadow_0_729"/>
</filter>
<filter id="filter11_dii_0_729" x="1528.88" y="189.9" width="279.7" height="270.7" filterUnits="userSpaceOnUse" color-interpolation-filters="sRGB">
<feFlood flood-opacity="0" result="BackgroundImageFix"/>
<feColorMatrix in="SourceAlpha" type="matrix" values="0 0 0 0 0 0 0 0 0 0 0 0 0 0 0 0 0 0 127 0" result="hardAlpha"/>
<feOffset dx="2" dy="2"/>
<feGaussianBlur stdDeviation="3.3"/>
<feComposite in2="hardAlpha" operator="out"/>
<feColorMatrix type="matrix" values="0 0 0 0 0 0 0 0 0 0 0 0 0 0 0 0 0 0 0.6 0"/>
<feBlend mode="normal" in2="BackgroundImageFix" result="effect1_dropShadow_0_729"/>
<feBlend mode="normal" in="SourceGraphic" in2="effect1_dropShadow_0_729" result="shape"/>
<feColorMatrix in="SourceAlpha" type="matrix" values="0 0 0 0 0 0 0 0 0 0 0 0 0 0 0 0 0 0 127 0" result="hardAlpha"/>
<feOffset dx="-5" dy="-5"/>
<feGaussianBlur stdDeviation="0.5"/>
<feComposite in2="hardAlpha" operator="arithmetic" k2="-1" k3="1"/>
<feColorMatrix type="matrix" values="0 0 0 0 0 0 0 0 0 0 0 0 0 0 0 0 0 0 0.2 0"/>
<feBlend mode="normal" in2="shape" result="effect2_innerShadow_0_729"/>
<feColorMatrix in="SourceAlpha" type="matrix" values="0 0 0 0 0 0 0 0 0 0 0 0 0 0 0 0 0 0 127 0" result="hardAlpha"/>
<feOffset dx="2" dy="2"/>
<feGaussianBlur stdDeviation="1"/>
<feComposite in2="hardAlpha" operator="arithmetic" k2="-1" k3="1"/>
<feColorMatrix type="matrix" values="0 0 0 0 1 0 0 0 0 1 0 0 0 0 1 0 0 0 0.6 0"/>
<feBlend mode="normal" in2="effect2_innerShadow_0_729" result="effect3_innerShadow_0_729"/>
</filter>
<filter id="filter12_dii_0_729" x="330.884" y="12.9" width="400.7" height="384.7" filterUnits="userSpaceOnUse" color-interpolation-filters="sRGB">
<feFlood flood-opacity="0" result="BackgroundImageFix"/>
<feColorMatrix in="SourceAlpha" type="matrix" values="0 0 0 0 0 0 0 0 0 0 0 0 0 0 0 0 0 0 127 0" result="hardAlpha"/>
<feOffset dx="2" dy="2"/>
<feGaussianBlur stdDeviation="3.3"/>
<feComposite in2="hardAlpha" operator="out"/>
<feColorMatrix type="matrix" values="0 0 0 0 0 0 0 0 0 0 0 0 0 0 0 0 0 0 0.6 0"/>
<feBlend mode="normal" in2="BackgroundImageFix" result="effect1_dropShadow_0_729"/>
<feBlend mode="normal" in="SourceGraphic" in2="effect1_dropShadow_0_729" result="shape"/>
<feColorMatrix in="SourceAlpha" type="matrix" values="0 0 0 0 0 0 0 0 0 0 0 0 0 0 0 0 0 0 127 0" result="hardAlpha"/>
<feOffset dx="-5" dy="-5"/>
<feGaussianBlur stdDeviation="0.5"/>
<feComposite in2="hardAlpha" operator="arithmetic" k2="-1" k3="1"/>
<feColorMatrix type="matrix" values="0 0 0 0 0 0 0 0 0 0 0 0 0 0 0 0 0 0 0.2 0"/>
<feBlend mode="normal" in2="shape" result="effect2_innerShadow_0_729"/>
<feColorMatrix in="SourceAlpha" type="matrix" values="0 0 0 0 0 0 0 0 0 0 0 0 0 0 0 0 0 0 127 0" result="hardAlpha"/>
<feOffset dx="2" dy="2"/>
<feGaussianBlur stdDeviation="1"/>
<feComposite in2="hardAlpha" operator="arithmetic" k2="-1" k3="1"/>
<feColorMatrix type="matrix" values="0 0 0 0 1 0 0 0 0 1 0 0 0 0 1 0 0 0 0.6 0"/>
<feBlend mode="normal" in2="effect2_innerShadow_0_729" result="effect3_innerShadow_0_729"/>
</filter>
<filter id="filter13_dii_0_729" x="83.8844" y="188.4" width="350.7" height="210.2" filterUnits="userSpaceOnUse" color-interpolation-filters="sRGB">
<feFlood flood-opacity="0" result="BackgroundImageFix"/>
<feColorMatrix in="SourceAlpha" type="matrix" values="0 0 0 0 0 0 0 0 0 0 0 0 0 0 0 0 0 0 127 0" result="hardAlpha"/>
<feOffset dx="2" dy="2"/>
<feGaussianBlur stdDeviation="3.3"/>
<feComposite in2="hardAlpha" operator="out"/>
<feColorMatrix type="matrix" values="0 0 0 0 0 0 0 0 0 0 0 0 0 0 0 0 0 0 0.6 0"/>
<feBlend mode="normal" in2="BackgroundImageFix" result="effect1_dropShadow_0_729"/>
<feBlend mode="normal" in="SourceGraphic" in2="effect1_dropShadow_0_729" result="shape"/>
<feColorMatrix in="SourceAlpha" type="matrix" values="0 0 0 0 0 0 0 0 0 0 0 0 0 0 0 0 0 0 127 0" result="hardAlpha"/>
<feOffset dx="-5" dy="-5"/>
<feGaussianBlur stdDeviation="0.5"/>
<feComposite in2="hardAlpha" operator="arithmetic" k2="-1" k3="1"/>
<feColorMatrix type="matrix" values="0 0 0 0 0 0 0 0 0 0 0 0 0 0 0 0 0 0 0.2 0"/>
<feBlend mode="normal" in2="shape" result="effect2_innerShadow_0_729"/>
<feColorMatrix in="SourceAlpha" type="matrix" values="0 0 0 0 0 0 0 0 0 0 0 0 0 0 0 0 0 0 127 0" result="hardAlpha"/>
<feOffset dx="2" dy="2"/>
<feGaussianBlur stdDeviation="1"/>
<feComposite in2="hardAlpha" operator="arithmetic" k2="-1" k3="1"/>
<feColorMatrix type="matrix" values="0 0 0 0 1 0 0 0 0 1 0 0 0 0 1 0 0 0 0.6 0"/>
<feBlend mode="normal" in2="effect2_innerShadow_0_729" result="effect3_innerShadow_0_729"/>
</filter>
<linearGradient id="paint0_linear_0_729" x1="354.484" y1="239" x2="391.984" y2="-8.56219e-08" gradientUnits="userSpaceOnUse">
<stop stop-color="#2A5338"/>
<stop offset="1" stop-color="#306843"/>
</linearGradient>
<linearGradient id="paint1_linear_0_729" x1="1242.23" y1="196" x2="1242.23" y2="0" gradientUnits="userSpaceOnUse">
<stop stop-color="#662A0D"/>
<stop offset="1" stop-color="#8E2F00"/>
</linearGradient>
<linearGradient id="paint2_linear_0_729" x1="582.484" y1="522" x2="570.984" y2="656" gradientUnits="userSpaceOnUse">
<stop stop-color="#1D375D"/>
<stop offset="1" stop-color="#385888"/>
</linearGradient>
<linearGradient id="paint3_linear_0_729" x1="1490.48" y1="196.996" x2="1612.48" y2="655.996" gradientUnits="userSpaceOnUse">
<stop stop-color="#5B4822"/>
<stop offset="1" stop-color="#795711"/>
</linearGradient>
<linearGradient id="paint4_linear_0_729" x1="1333.87" y1="257.178" x2="1333.87" y2="270.21" gradientUnits="userSpaceOnUse">
<stop stop-color="white"/>
<stop offset="0.778846" stop-color="white"/>
<stop offset="1" stop-color="white" stop-opacity="0"/>
</linearGradient>
<linearGradient id="paint5_linear_0_729" x1="929.37" y1="257.178" x2="929.37" y2="270.21" gradientUnits="userSpaceOnUse">
<stop stop-color="white"/>
<stop offset="0.778846" stop-color="white"/>
<stop offset="1" stop-color="white" stop-opacity="0"/>
</linearGradient>
</defs>
</svg>
