<svg width="38" height="38" viewBox="0 0 38 38" fill="none" xmlns="http://www.w3.org/2000/svg">
<path opacity="0.85" d="M26.103 5.6875L26.103 25.1619" stroke="url(#paint0_linear_3238_51363)" stroke-width="1.29829" stroke-linecap="round"/>
<path d="M27.06 5.39449L26.103 5.62274V11.5995L27.2495 11.3265C28.2442 11.0896 29.295 11.1996 30.212 11.6367L30.2682 11.6635C31.3305 12.1696 32.5453 12.3048 33.7013 12.0455L35.3226 11.6818C35.4155 11.661 35.4971 11.6086 35.5522 11.5344C35.6073 11.4601 35.6319 11.3693 35.6215 11.2789C35.4261 9.57429 35.4252 7.8545 35.6189 6.1497C35.6255 6.09059 35.6172 6.03083 35.5946 5.97541C35.5721 5.91999 35.5359 5.87054 35.4891 5.83118C35.4424 5.79182 35.3864 5.76371 35.3259 5.7492C35.2654 5.73469 35.2022 5.73421 35.1415 5.74778L33.5222 6.111C32.5441 6.33028 31.5163 6.2158 30.6176 5.78748L30.5613 5.76068C29.4775 5.24425 28.2355 5.11436 27.06 5.39449Z" fill="url(#paint1_linear_3238_51363)"/>
<path d="M18.3131 23.1319C18.3131 23.876 17.7428 24.4807 17.0409 24.4807H17.0423C16.677 24.4807 16.1314 24.7347 16.1314 25.1V28.5896C16.1314 29.5635 15.342 30.3529 14.3681 30.3529H11.8731C10.8992 30.3529 10.1098 29.5635 10.1098 28.5896V25.1C10.1098 24.7347 9.56419 24.4807 9.19892 24.4807C8.49708 24.4807 7.92676 23.876 7.92676 23.1319V18.6305C7.92676 17.2318 8.69504 16.1281 10.2108 15.3502C10.9378 14.977 11.7419 14.7734 12.5591 14.7734H13.6794C14.4966 14.7734 15.3006 14.977 16.0276 15.3502C17.5448 16.1281 18.3131 17.2318 18.3131 18.6305V23.1319Z" fill="url(#paint2_linear_3238_51363)"/>
<circle cx="13.5539" cy="10.8762" r="3.46211" fill="url(#paint3_linear_3238_51363)"/>
<circle cx="13.5539" cy="10.8762" r="3.46211" fill="url(#paint4_linear_3238_51363)"/>
<path d="M26.1036 23.1319C26.1036 23.876 25.5333 24.4807 24.8314 24.4807H24.8328C24.4676 24.4807 23.922 24.7347 23.922 25.1V28.5896C23.922 29.5635 23.1325 30.3529 22.1587 30.3529H19.6636C18.6898 30.3529 17.9003 29.5635 17.9003 28.5896V25.1C17.9003 24.7347 17.3547 24.4807 16.9894 24.4807C16.2876 24.4807 15.7173 23.876 15.7173 23.1319V18.6305C15.7173 17.2318 16.4856 16.1281 18.0014 15.3502C18.7283 14.977 19.5324 14.7734 20.3496 14.7734H21.4699C22.2871 14.7734 23.0912 14.977 23.8181 15.3502C25.3353 16.1281 26.1036 17.2318 26.1036 18.6305V23.1319Z" fill="#D9D9D9"/>
<path d="M26.1036 23.1319C26.1036 23.876 25.5333 24.4807 24.8314 24.4807H24.8328C24.4676 24.4807 23.922 24.7347 23.922 25.1V28.5896C23.922 29.5635 23.1325 30.3529 22.1587 30.3529H19.6636C18.6898 30.3529 17.9003 29.5635 17.9003 28.5896V25.1C17.9003 24.7347 17.3547 24.4807 16.9894 24.4807C16.2876 24.4807 15.7173 23.876 15.7173 23.1319V18.6305C15.7173 17.2318 16.4856 16.1281 18.0014 15.3502C18.7283 14.977 19.5324 14.7734 20.3496 14.7734H21.4699C22.2871 14.7734 23.0912 14.977 23.8181 15.3502C25.3353 16.1281 26.1036 17.2318 26.1036 18.6305V23.1319Z" fill="url(#paint5_linear_3238_51363)"/>
<path d="M26.1036 23.1319C26.1036 23.876 25.5333 24.4807 24.8314 24.4807H24.8328C24.4676 24.4807 23.922 24.7347 23.922 25.1V28.5896C23.922 29.5635 23.1325 30.3529 22.1587 30.3529H19.6636C18.6898 30.3529 17.9003 29.5635 17.9003 28.5896V25.1C17.9003 24.7347 17.3547 24.4807 16.9894 24.4807C16.2876 24.4807 15.7173 23.876 15.7173 23.1319V18.6305C15.7173 17.2318 16.4856 16.1281 18.0014 15.3502C18.7283 14.977 19.5324 14.7734 20.3496 14.7734H21.4699C22.2871 14.7734 23.0912 14.977 23.8181 15.3502C25.3353 16.1281 26.1036 17.2318 26.1036 18.6305V23.1319Z" fill="url(#paint6_linear_3238_51363)"/>
<path d="M26.1036 23.1319C26.1036 23.876 25.5333 24.4807 24.8314 24.4807H24.8328C24.4676 24.4807 23.922 24.7347 23.922 25.1V28.5896C23.922 29.5635 23.1325 30.3529 22.1587 30.3529H19.6636C18.6898 30.3529 17.9003 29.5635 17.9003 28.5896V25.1C17.9003 24.7347 17.3547 24.4807 16.9894 24.4807C16.2876 24.4807 15.7173 23.876 15.7173 23.1319V18.6305C15.7173 17.2318 16.4856 16.1281 18.0014 15.3502C18.7283 14.977 19.5324 14.7734 20.3496 14.7734H21.4699C22.2871 14.7734 23.0912 14.977 23.8181 15.3502C25.3353 16.1281 26.1036 17.2318 26.1036 18.6305V23.1319Z" fill="url(#paint7_linear_3238_51363)"/>
<g filter="url(#filter0_i_3238_51363)">
<path d="M4.42013 23.7887C4.06067 23.7079 3.69542 23.8233 3.44032 24.0945L3.44611 24.1003C3.20261 24.3657 3.10984 24.7177 3.20261 25.0639L4.23461 30.8513L4.252 30.9206C4.38534 31.3591 4.78539 31.6534 5.24341 31.6534H31.3623C31.7681 31.6534 32.1392 31.411 32.3073 31.0417L35.5482 21.3711C35.7048 21.0249 35.6178 20.5748 35.3105 20.269C35.0033 19.9689 34.551 19.8824 34.1568 20.0613C32.087 20.9902 26.9966 23.0444 20.5321 24.083L19.3667 24.2503C19.2856 24.2619 19.2102 24.2734 19.129 24.285L18.0159 22.3635C17.7781 21.9596 17.3433 21.7057 16.8737 21.7057H7.75384C7.17406 21.7057 6.66966 22.075 6.49573 22.6232L6.02611 24.1061L5.95851 24.0937C5.44719 23.9997 4.931 23.9048 4.42013 23.7887Z" fill="url(#paint8_linear_3238_51363)"/>
<path d="M4.42013 23.7887C4.06067 23.7079 3.69542 23.8233 3.44032 24.0945L3.44611 24.1003C3.20261 24.3657 3.10984 24.7177 3.20261 25.0639L4.23461 30.8513L4.252 30.9206C4.38534 31.3591 4.78539 31.6534 5.24341 31.6534H31.3623C31.7681 31.6534 32.1392 31.411 32.3073 31.0417L35.5482 21.3711C35.7048 21.0249 35.6178 20.5748 35.3105 20.269C35.0033 19.9689 34.551 19.8824 34.1568 20.0613C32.087 20.9902 26.9966 23.0444 20.5321 24.083L19.3667 24.2503C19.2856 24.2619 19.2102 24.2734 19.129 24.285L18.0159 22.3635C17.7781 21.9596 17.3433 21.7057 16.8737 21.7057H7.75384C7.17406 21.7057 6.66966 22.075 6.49573 22.6232L6.02611 24.1061L5.95851 24.0937C5.44719 23.9997 4.931 23.9048 4.42013 23.7887Z" fill="url(#paint9_linear_3238_51363)"/>
</g>
<g filter="url(#filter1_d_3238_51363)">
<circle cx="23.2915" cy="27.5381" r="1.51467" fill="url(#paint10_linear_3238_51363)"/>
</g>
<g filter="url(#filter2_d_3238_51363)">
<circle cx="28.4839" cy="27.5381" r="1.51467" fill="url(#paint11_linear_3238_51363)"/>
</g>
<circle cx="20.9099" cy="10.8762" r="3.46211" fill="url(#paint12_linear_3238_51363)"/>
<path d="M8.06332 30.998C7.27737 31.2223 6.19705 31.5135 5.85118 31.4399C5.46134 31.3656 4.63839 31.1738 4.46528 31.0007C4.2489 30.7843 4.31765 30.5426 3.41775 30.5553C2.85868 30.5553 2.31171 30.556 1.64807 30.998C0.586244 32.7669 12.7826 32.9491 19.1241 32.9481C22.6635 32.9481 30.1847 32.3831 33.5029 31.8675C35.09 31.6209 34.5423 30.6409 33.9454 30.519C31.9544 30.1126 30.6272 30.519 29.5211 30.961C28.6025 31.328 27.2855 31.7129 26.2029 31.2165C25.318 30.8107 23.3855 30.305 21.9998 30.9955C21.115 31.4364 19.5304 31.5012 18.018 30.9965C16.6907 30.5536 15.1422 30.5536 13.8149 31.2165C12.8256 31.7106 11.824 31.4391 10.9391 30.9959C10.3138 30.6827 9.61182 30.556 8.06332 30.998Z" fill="#9DE3CF"/>
<defs>
<filter id="filter0_i_3238_51363" x="3.16748" y="19.9688" width="32.457" height="11.6875" filterUnits="userSpaceOnUse" color-interpolation-filters="sRGB">
<feFlood flood-opacity="0" result="BackgroundImageFix"/>
<feBlend mode="normal" in="SourceGraphic" in2="BackgroundImageFix" result="shape"/>
<feColorMatrix in="SourceAlpha" type="matrix" values="0 0 0 0 0 0 0 0 0 0 0 0 0 0 0 0 0 0 127 0" result="hardAlpha"/>
<feOffset dy="0.432763"/>
<feComposite in2="hardAlpha" operator="arithmetic" k2="-1" k3="1"/>
<feColorMatrix type="matrix" values="0 0 0 0 0.998397 0 0 0 0 0.998397 0 0 0 0 0.998397 0 0 0 0.6 0"/>
<feBlend mode="normal" in2="shape" result="effect1_innerShadow_3238_51363"/>
</filter>
<filter id="filter1_d_3238_51363" x="21.3441" y="25.5907" width="3.89482" height="3.89678" filterUnits="userSpaceOnUse" color-interpolation-filters="sRGB">
<feFlood flood-opacity="0" result="BackgroundImageFix"/>
<feColorMatrix in="SourceAlpha" type="matrix" values="0 0 0 0 0 0 0 0 0 0 0 0 0 0 0 0 0 0 127 0" result="hardAlpha"/>
<feOffset/>
<feGaussianBlur stdDeviation="0.216382"/>
<feComposite in2="hardAlpha" operator="out"/>
<feColorMatrix type="matrix" values="0 0 0 0 0 0 0 0 0 0 0 0 0 0 0 0 0 0 0.6 0"/>
<feBlend mode="normal" in2="BackgroundImageFix" result="effect1_dropShadow_3238_51363"/>
<feBlend mode="normal" in="SourceGraphic" in2="effect1_dropShadow_3238_51363" result="shape"/>
</filter>
<filter id="filter2_d_3238_51363" x="26.5365" y="25.5907" width="3.89482" height="3.89678" filterUnits="userSpaceOnUse" color-interpolation-filters="sRGB">
<feFlood flood-opacity="0" result="BackgroundImageFix"/>
<feColorMatrix in="SourceAlpha" type="matrix" values="0 0 0 0 0 0 0 0 0 0 0 0 0 0 0 0 0 0 127 0" result="hardAlpha"/>
<feOffset/>
<feGaussianBlur stdDeviation="0.216382"/>
<feComposite in2="hardAlpha" operator="out"/>
<feColorMatrix type="matrix" values="0 0 0 0 0 0 0 0 0 0 0 0 0 0 0 0 0 0 0.6 0"/>
<feBlend mode="normal" in2="BackgroundImageFix" result="effect1_dropShadow_3238_51363"/>
<feBlend mode="normal" in="SourceGraphic" in2="effect1_dropShadow_3238_51363" result="shape"/>
</filter>
<linearGradient id="paint0_linear_3238_51363" x1="29.103" y1="15.4247" x2="23.603" y2="15.4247" gradientUnits="userSpaceOnUse">
<stop stop-color="#FF8A00"/>
<stop offset="1" stop-color="#995300"/>
</linearGradient>
<linearGradient id="paint1_linear_3238_51363" x1="30.8634" y1="5.25" x2="30.8634" y2="12.1742" gradientUnits="userSpaceOnUse">
<stop stop-color="#F2914A"/>
<stop offset="1" stop-color="#C34909"/>
</linearGradient>
<linearGradient id="paint2_linear_3238_51363" x1="13.1199" y1="14.7734" x2="13.1199" y2="30.3529" gradientUnits="userSpaceOnUse">
<stop stop-color="#A28562"/>
<stop offset="0.414752" stop-color="#7B6448"/>
</linearGradient>
<linearGradient id="paint3_linear_3238_51363" x1="16.3975" y1="7.22631" x2="16.3975" y2="16.1148" gradientUnits="userSpaceOnUse">
<stop stop-color="#A28562"/>
<stop offset="0.495385" stop-color="#52422C"/>
<stop offset="1" stop-color="#52422C"/>
</linearGradient>
<linearGradient id="paint4_linear_3238_51363" x1="13.5539" y1="7.41406" x2="13.5539" y2="14.3383" gradientUnits="userSpaceOnUse">
<stop stop-color="#A28562"/>
<stop offset="0.414752" stop-color="#7B6448"/>
</linearGradient>
<linearGradient id="paint5_linear_3238_51363" x1="21.8235" y1="11.9408" x2="19.8821" y2="36.5824" gradientUnits="userSpaceOnUse">
<stop stop-color="#0F3025"/>
<stop offset="0.380048" stop-color="#194335"/>
<stop offset="0.87506" stop-color="#0B221B"/>
<stop offset="1" stop-color="#0D231C"/>
</linearGradient>
<linearGradient id="paint6_linear_3238_51363" x1="20.9104" y1="14.7734" x2="20.9104" y2="30.3529" gradientUnits="userSpaceOnUse">
<stop stop-color="#5FB599"/>
<stop offset="1" stop-color="#478C75"/>
</linearGradient>
<linearGradient id="paint7_linear_3238_51363" x1="20.9104" y1="14.7734" x2="20.9104" y2="30.3529" gradientUnits="userSpaceOnUse">
<stop stop-color="#5FB599"/>
<stop offset="1" stop-color="#124D3C"/>
</linearGradient>
<linearGradient id="paint8_linear_3238_51363" x1="10.1224" y1="22.0932" x2="11.8803" y2="35.7286" gradientUnits="userSpaceOnUse">
<stop stop-color="#54E3FF"/>
<stop offset="0.55" stop-color="#2B7BFF"/>
<stop offset="1" stop-color="#1E4BFF"/>
</linearGradient>
<linearGradient id="paint9_linear_3238_51363" x1="19.3959" y1="19.9688" x2="19.3959" y2="31.6534" gradientUnits="userSpaceOnUse">
<stop stop-color="#5FB599"/>
<stop offset="1" stop-color="#196A53"/>
</linearGradient>
<linearGradient id="paint10_linear_3238_51363" x1="23.2915" y1="26.0234" x2="23.2915" y2="29.0528" gradientUnits="userSpaceOnUse">
<stop stop-color="white"/>
<stop offset="1" stop-color="#E2E2E2"/>
</linearGradient>
<linearGradient id="paint11_linear_3238_51363" x1="28.4839" y1="26.0234" x2="28.4839" y2="29.0528" gradientUnits="userSpaceOnUse">
<stop stop-color="white"/>
<stop offset="1" stop-color="#E2E2E2"/>
</linearGradient>
<linearGradient id="paint12_linear_3238_51363" x1="20.9099" y1="7.41406" x2="20.9099" y2="14.3383" gradientUnits="userSpaceOnUse">
<stop stop-color="#5FB599"/>
<stop offset="1" stop-color="#124D3C"/>
</linearGradient>
</defs>
</svg>
