<svg width="38" height="38" viewBox="0 0 38 38" fill="none" xmlns="http://www.w3.org/2000/svg">
<g filter="url(#filter0_i_3238_51353)">
<path d="M18.7211 7.62459C16.6188 5.97652 13.5711 5.73135 10.7966 5.9843C7.56529 6.282 4.30413 7.29186 2.27231 8.13438C2.08588 8.21168 1.92779 8.33626 1.8169 8.49324C1.70602 8.65023 1.64703 8.83298 1.64697 9.0197V30.4232C1.64702 30.5859 1.69187 30.7461 1.77741 30.889C1.86295 31.0319 1.98645 31.1529 2.1366 31.241C2.28674 31.3291 2.45873 31.3814 2.63681 31.3932C2.81489 31.405 2.99337 31.3759 3.1559 31.3085C5.03832 30.5302 8.07111 29.5943 11.01 29.3238C14.0172 29.0475 16.5377 29.4931 17.8887 31.0302C17.9887 31.1439 18.1154 31.2356 18.2595 31.2986C18.4035 31.3616 18.5613 31.3943 18.7211 31.3943C18.8809 31.3943 19.0386 31.3616 19.1827 31.2986C19.3268 31.2356 19.4535 31.1439 19.5534 31.0302C20.9044 29.4931 23.425 29.0475 26.43 29.3238C29.3711 29.5943 32.406 30.5302 34.2863 31.3085C34.4488 31.3759 34.6273 31.405 34.8054 31.3932C34.9834 31.3814 35.1554 31.3291 35.3056 31.241C35.4557 31.1529 35.5792 31.0319 35.6648 30.889C35.7503 30.7461 35.7952 30.5859 35.7952 30.4232V9.0197C35.7951 8.83298 35.7362 8.65023 35.6253 8.49324C35.5144 8.33626 35.3563 8.21168 35.1699 8.13438C33.138 7.29186 29.8769 6.282 26.6456 5.9843C23.8711 5.72941 20.8233 5.97652 18.7211 7.62459Z" fill="url(#paint0_linear_3238_51353)"/>
</g>
<g filter="url(#filter1_d_3238_51353)">
<path d="M18.7211 4.8672C16.8431 3.24856 14.1205 3.00777 11.6419 3.25621C8.75529 3.54859 5.84199 4.54041 4.0269 5.36789C3.86035 5.44381 3.71912 5.56616 3.62007 5.72034C3.52101 5.87452 3.46831 6.05402 3.46826 6.2374V27.2587C3.46831 27.4185 3.50837 27.5758 3.58479 27.7162C3.6612 27.8565 3.77153 27.9754 3.90566 28.0619C4.03979 28.1484 4.19343 28.1998 4.35252 28.2114C4.5116 28.223 4.67104 28.1944 4.81623 28.1282C6.49786 27.3638 9.20716 26.4446 11.8326 26.1789C14.519 25.9076 16.7707 26.3452 17.9776 27.8549C18.0669 27.9665 18.1801 28.0566 18.3088 28.1185C18.4375 28.1803 18.5784 28.2125 18.7211 28.2125C18.8639 28.2125 19.0048 28.1803 19.1335 28.1185C19.2622 28.0566 19.3754 27.9665 19.4647 27.8549C20.6716 26.3452 22.9233 25.9076 25.6078 26.1789C28.2351 26.4446 30.9463 27.3638 32.626 28.1282C32.7712 28.1944 32.9307 28.223 33.0898 28.2114C33.2488 28.1998 33.4025 28.1484 33.5366 28.0619C33.6707 27.9754 33.7811 27.8565 33.8575 27.7162C33.9339 27.5758 33.974 27.4185 33.974 27.2587V6.2374C33.974 6.05402 33.9213 5.87452 33.8222 5.72034C33.7231 5.56616 33.5819 5.44381 33.4154 5.36789C31.6003 4.54041 28.687 3.54859 25.8004 3.25621C23.3218 3.00586 20.5991 3.24856 18.7211 4.8672Z" fill="black"/>
<path d="M18.7211 4.8672C16.8431 3.24856 14.1205 3.00777 11.6419 3.25621C8.75529 3.54859 5.84199 4.54041 4.0269 5.36789C3.86035 5.44381 3.71912 5.56616 3.62007 5.72034C3.52101 5.87452 3.46831 6.05402 3.46826 6.2374V27.2587C3.46831 27.4185 3.50837 27.5758 3.58479 27.7162C3.6612 27.8565 3.77153 27.9754 3.90566 28.0619C4.03979 28.1484 4.19343 28.1998 4.35252 28.2114C4.5116 28.223 4.67104 28.1944 4.81623 28.1282C6.49786 27.3638 9.20716 26.4446 11.8326 26.1789C14.519 25.9076 16.7707 26.3452 17.9776 27.8549C18.0669 27.9665 18.1801 28.0566 18.3088 28.1185C18.4375 28.1803 18.5784 28.2125 18.7211 28.2125C18.8639 28.2125 19.0048 28.1803 19.1335 28.1185C19.2622 28.0566 19.3754 27.9665 19.4647 27.8549C20.6716 26.3452 22.9233 25.9076 25.6078 26.1789C28.2351 26.4446 30.9463 27.3638 32.626 28.1282C32.7712 28.1944 32.9307 28.223 33.0898 28.2114C33.2488 28.1998 33.4025 28.1484 33.5366 28.0619C33.6707 27.9754 33.7811 27.8565 33.8575 27.7162C33.9339 27.5758 33.974 27.4185 33.974 27.2587V6.2374C33.974 6.05402 33.9213 5.87452 33.8222 5.72034C33.7231 5.56616 33.5819 5.44381 33.4154 5.36789C31.6003 4.54041 28.687 3.54859 25.8004 3.25621C23.3218 3.00586 20.5991 3.24856 18.7211 4.8672Z" fill="url(#paint1_linear_3238_51353)"/>
</g>
<g filter="url(#filter2_d_3238_51353)">
<path d="M18.7202 8.63477C22.6178 8.63481 25.7778 11.7948 25.7778 15.6924C25.7778 19.59 22.6178 22.75 18.7202 22.75C14.8226 22.75 11.6626 19.59 11.6626 15.6924C11.6626 11.7947 14.8226 8.63477 18.7202 8.63477Z" fill="url(#paint2_linear_3238_51353)" stroke="white" stroke-width="0.910619"/>
<path d="M16.6714 13.0618C16.6714 12.7113 17.0507 12.4923 17.3542 12.6674L21.9068 15.2939C22.2105 15.4691 22.2105 15.9074 21.9068 16.0826L17.3542 18.7091C17.0507 18.8843 16.6714 18.6652 16.6714 18.3148V13.0618Z" fill="white"/>
</g>
<g filter="url(#filter3_f_3238_51353)">
<ellipse cx="18.9648" cy="33.5" rx="10.3906" ry="1.03906" fill="url(#paint3_radial_3238_51353)"/>
</g>
<defs>
<filter id="filter0_i_3238_51353" x="1.64697" y="5.89844" width="34.1484" height="25.5" filterUnits="userSpaceOnUse" color-interpolation-filters="sRGB">
<feFlood flood-opacity="0" result="BackgroundImageFix"/>
<feBlend mode="normal" in="SourceGraphic" in2="BackgroundImageFix" result="shape"/>
<feColorMatrix in="SourceAlpha" type="matrix" values="0 0 0 0 0 0 0 0 0 0 0 0 0 0 0 0 0 0 127 0" result="hardAlpha"/>
<feOffset dy="-0.910619"/>
<feComposite in2="hardAlpha" operator="arithmetic" k2="-1" k3="1"/>
<feColorMatrix type="matrix" values="0 0 0 0 0 0 0 0 0 0 0 0 0 0 0 0 0 0 0.1 0"/>
<feBlend mode="normal" in2="shape" result="effect1_innerShadow_3238_51353"/>
</filter>
<filter id="filter1_d_3238_51353" x="2.10233" y="2.26126" width="33.2377" height="27.7709" filterUnits="userSpaceOnUse" color-interpolation-filters="sRGB">
<feFlood flood-opacity="0" result="BackgroundImageFix"/>
<feColorMatrix in="SourceAlpha" type="matrix" values="0 0 0 0 0 0 0 0 0 0 0 0 0 0 0 0 0 0 127 0" result="hardAlpha"/>
<feOffset dy="0.45531"/>
<feGaussianBlur stdDeviation="0.682965"/>
<feComposite in2="hardAlpha" operator="out"/>
<feColorMatrix type="matrix" values="0 0 0 0 0 0 0 0 0 0 0 0 0 0 0 0 0 0 0.2 0"/>
<feBlend mode="normal" in2="BackgroundImageFix" result="effect1_dropShadow_3238_51353"/>
<feBlend mode="normal" in="SourceGraphic" in2="effect1_dropShadow_3238_51353" result="shape"/>
</filter>
<filter id="filter2_d_3238_51353" x="9.84159" y="7.26907" width="17.7572" height="17.7553" filterUnits="userSpaceOnUse" color-interpolation-filters="sRGB">
<feFlood flood-opacity="0" result="BackgroundImageFix"/>
<feColorMatrix in="SourceAlpha" type="matrix" values="0 0 0 0 0 0 0 0 0 0 0 0 0 0 0 0 0 0 127 0" result="hardAlpha"/>
<feOffset dy="0.45531"/>
<feGaussianBlur stdDeviation="0.682965"/>
<feComposite in2="hardAlpha" operator="out"/>
<feColorMatrix type="matrix" values="0 0 0 0 0 0 0 0 0 0 0 0 0 0 0 0 0 0 0.2 0"/>
<feBlend mode="normal" in2="BackgroundImageFix" result="effect1_dropShadow_3238_51353"/>
<feBlend mode="normal" in="SourceGraphic" in2="effect1_dropShadow_3238_51353" result="shape"/>
</filter>
<filter id="filter3_f_3238_51353" x="7.1888" y="31.0755" width="23.5521" height="4.84896" filterUnits="userSpaceOnUse" color-interpolation-filters="sRGB">
<feFlood flood-opacity="0" result="BackgroundImageFix"/>
<feBlend mode="normal" in="SourceGraphic" in2="BackgroundImageFix" result="shape"/>
<feGaussianBlur stdDeviation="0.692708" result="effect1_foregroundBlur_3238_51353"/>
</filter>
<linearGradient id="paint0_linear_3238_51353" x1="19.6317" y1="5.89844" x2="13.6309" y2="31.2255" gradientUnits="userSpaceOnUse">
<stop stop-color="#FFC24A"/>
<stop offset="0.55" stop-color="#FF8A00"/>
<stop offset="1" stop-color="#FF5A2A"/>
</linearGradient>
<linearGradient id="paint1_linear_3238_51353" x1="3.46826" y1="3.17188" x2="33.974" y2="3.17188" gradientUnits="userSpaceOnUse">
<stop stop-color="#FFF6F0"/>
<stop offset="0.498315" stop-color="#F3CBA9"/>
<stop offset="0.501004" stop-color="#F1E6DC"/>
<stop offset="1" stop-color="#FFE6D7"/>
</linearGradient>
<linearGradient id="paint2_linear_3238_51353" x1="18.7201" y1="8.17969" x2="18.7201" y2="23.2049" gradientUnits="userSpaceOnUse">
<stop stop-color="#F4BC04"/>
<stop offset="1" stop-color="#F47000"/>
</linearGradient>
<radialGradient id="paint3_radial_3238_51353" cx="0" cy="0" r="1" gradientUnits="userSpaceOnUse" gradientTransform="translate(18.9648 33.5) scale(12.3888 0.586961)">
<stop stop-color="#8D8D8D"/>
<stop offset="1" stop-color="#8D8D8D" stop-opacity="0"/>
</radialGradient>
</defs>
</svg>
