<svg width="38" height="38" viewBox="0 0 38 38" fill="none" xmlns="http://www.w3.org/2000/svg">
<g filter="url(#filter0_f_3238_51377)">
<ellipse cx="18.6037" cy="33.6432" rx="10.2917" ry="1.97917" fill="url(#paint0_radial_3238_51377)"/>
</g>
<path d="M34.3606 20.7884L31.2624 11.5016C31.1721 11.2315 30.8822 11.0844 30.6094 11.1754C30.5739 11.1872 30.547 11.2106 30.5161 11.2289C30.4387 11.1827 30.3532 11.1489 30.2564 11.1489C30.1596 11.1489 30.0741 11.1827 29.9967 11.2289C29.9658 11.2106 29.9389 11.1872 29.9034 11.1754C29.6306 11.0844 29.3406 11.2315 29.2504 11.5016L26.1522 20.7884C26.0619 21.0587 26.2081 21.3509 26.4784 21.4411C26.5329 21.4592 26.5879 21.4678 26.6418 21.4678C26.8581 21.4678 27.0593 21.331 27.1315 21.1149L29.74 13.2958V20.9516C29.74 21.2365 29.971 21.4676 30.2564 21.4676C30.5418 21.4676 30.7728 21.2365 30.7728 20.9516V13.2958L33.3813 21.1149C33.4534 21.331 33.6546 21.4678 33.871 21.4678C33.9249 21.4678 33.9799 21.4592 34.0343 21.4411C34.3046 21.3509 34.4509 21.0587 34.3606 20.7884Z" fill="#F4A002"/>
<path d="M8.54366 11.5016C8.4534 11.2315 8.16168 11.0844 7.89038 11.1754C7.85486 11.1872 7.82795 11.2107 7.79697 11.229C7.71956 11.1827 7.63415 11.1489 7.5374 11.1489C7.44064 11.1489 7.35523 11.1827 7.27783 11.229C7.24685 11.2107 7.21993 11.1872 7.18441 11.1754C6.91236 11.0844 6.62115 11.2315 6.53113 11.5016L3.43293 20.7884C3.34266 21.0587 3.4889 21.3509 3.75944 21.4411C3.81365 21.4592 3.86886 21.4678 3.92282 21.4678C4.13915 21.4678 4.3406 21.331 4.41271 21.1149L7.02103 13.2965V20.9516C7.02103 21.2365 7.25223 21.4676 7.5374 21.4676C7.82256 21.4676 8.05376 21.2365 8.05376 20.9516V13.2965L10.6621 21.1149C10.7342 21.331 10.9356 21.4678 11.152 21.4678C11.2059 21.4678 11.2611 21.4592 11.3154 21.4411C11.5859 21.3509 11.7321 21.0587 11.6419 20.7884L8.54366 11.5016Z" fill="#F4A002"/>
<path d="M35.2074 9.27819C35.0824 8.83128 34.7677 8.4655 34.3446 8.27479C33.9266 8.0866 33.4506 8.09215 33.0386 8.29116C31.5233 9.02349 29.3443 8.94993 26.3767 8.06771C22.7652 6.99302 20.3366 8.04529 20.2358 8.09114C20.0497 8.17402 19.9297 8.35868 19.9297 8.56223V10.626C19.9297 10.7935 20.0114 10.9504 20.1485 11.0472C20.2852 11.1439 20.4612 11.1673 20.619 11.1122C20.6462 11.1021 23.3819 10.1576 26.056 11.1119C27.6545 11.682 29.2248 11.9662 30.6504 11.9662C32.1622 11.9659 33.5111 11.646 34.5544 11.0076C35.1267 10.658 35.395 9.94678 35.2074 9.27819Z" fill="url(#paint1_radial_3238_51377)"/>
<path d="M17.5584 8.09047C17.457 8.04512 15.029 6.9936 11.4172 8.06704C8.45008 8.94901 6.27065 9.02333 4.75482 8.29049C4.3436 8.09172 3.86732 8.08568 3.44928 8.27412C3.0262 8.46482 2.71179 8.83061 2.58648 9.27751C2.39915 9.94611 2.66767 10.6573 3.23925 11.0069C4.28308 11.6453 5.63124 11.9655 7.14378 11.9655C8.56884 11.9653 10.1399 11.6811 11.7381 11.1112C14.413 10.1567 17.1477 11.1017 17.1749 11.1115C17.3335 11.1667 17.509 11.1432 17.6456 11.0465C17.7825 10.9498 17.8642 10.7928 17.8642 10.6253V8.56156C17.8642 8.358 17.7445 8.17335 17.5584 8.09047Z" fill="url(#paint2_radial_3238_51377)"/>
<path d="M18.8974 2.375C17.9009 2.375 17.0901 3.18518 17.0901 4.18076L16.2534 28.6876C16.2534 28.9725 16.4846 29.2035 16.7698 29.2035H21.0249C21.3103 29.2035 21.5413 28.9725 21.5413 28.6876L20.7046 4.18076C20.7046 3.18518 19.8938 2.375 18.8974 2.375Z" fill="url(#paint3_linear_3238_51377)"/>
<path d="M18.603 7.15039C20.009 7.15039 21.1489 8.29031 21.1489 9.69629C21.1489 11.1023 20.009 12.2422 18.603 12.2422C17.197 12.2422 16.0571 11.1023 16.0571 9.69629C16.0571 8.29031 17.197 7.15039 18.603 7.15039Z" fill="url(#paint4_radial_3238_51377)" stroke="#EF970A" stroke-width="0.636438"/>
<path d="M21.994 27.1406H15.7976C15.5124 27.1406 15.2812 27.3716 15.2812 27.6566V30.2362C15.2812 30.5212 15.5124 30.7522 15.7976 30.7522H21.994C22.2792 30.7522 22.5104 30.5212 22.5104 30.2362V27.6566C22.5104 27.3716 22.2792 27.1406 21.994 27.1406Z" fill="#F26000"/>
<path d="M21.994 27.1406H15.7976C15.5124 27.1406 15.2812 27.3716 15.2812 27.6566V30.2362C15.2812 30.5212 15.5124 30.7522 15.7976 30.7522H21.994C22.2792 30.7522 22.5104 30.5212 22.5104 30.2362V27.6566C22.5104 27.3716 22.2792 27.1406 21.994 27.1406Z" fill="url(#paint5_linear_3238_51377)" fill-opacity="0.2"/>
<path d="M24.5771 29.7188H13.2171C12.9319 29.7188 12.7007 29.9497 12.7007 30.2347V32.8143C12.7007 33.0993 12.9319 33.3303 13.2171 33.3303H24.5771C24.8623 33.3303 25.0935 33.0993 25.0935 32.8143V30.2347C25.0935 29.9497 24.8623 29.7188 24.5771 29.7188Z" fill="#F19F02"/>
<path d="M24.5771 29.7188H13.2171C12.9319 29.7188 12.7007 29.9497 12.7007 30.2347V32.8143C12.7007 33.0993 12.9319 33.3303 13.2171 33.3303H24.5771C24.8623 33.3303 25.0935 33.0993 25.0935 32.8143V30.2347C25.0935 29.9497 24.8623 29.7188 24.5771 29.7188Z" fill="url(#paint6_linear_3238_51377)" fill-opacity="0.2"/>
<path d="M26.1265 33.3287H11.6682C11.3831 33.3287 11.1519 33.0977 11.1519 32.8128C11.1519 32.5279 11.3831 32.2969 11.6682 32.2969H26.1265C26.4119 32.2969 26.6429 32.5279 26.6429 32.8128C26.6429 33.0977 26.4119 33.3287 26.1265 33.3287Z" fill="#FFAF5F"/>
<path d="M26.1265 33.3287H11.6682C11.3831 33.3287 11.1519 33.0977 11.1519 32.8128C11.1519 32.5279 11.3831 32.2969 11.6682 32.2969H26.1265C26.4119 32.2969 26.6429 32.5279 26.6429 32.8128C26.6429 33.0977 26.4119 33.3287 26.1265 33.3287Z" fill="url(#paint7_linear_3238_51377)" fill-opacity="0.2"/>
<path d="M35.3364 20.6695C35.2405 20.5247 35.0787 20.4375 34.9052 20.4375H25.6106C25.4371 20.4375 25.2752 20.5247 25.1794 20.6695C25.0841 20.8141 25.0675 20.9973 25.1361 21.1567L26.6852 24.7683C26.7664 24.958 26.9529 25.0809 27.1597 25.0809H33.3561C33.5629 25.0809 33.7494 24.958 33.8306 24.7683L35.3797 21.1567C35.4483 20.9973 35.4317 20.8141 35.3364 20.6695Z" fill="url(#paint8_linear_3238_51377)"/>
<path d="M12.1846 20.4375H2.88995C2.71649 20.4375 2.55436 20.5247 2.45881 20.6695C2.36325 20.8141 2.34686 20.9973 2.41544 21.1567L3.96454 24.7683C4.04573 24.958 4.23256 25.0809 4.43906 25.0809H10.6355C10.842 25.0809 11.0288 24.958 11.11 24.7683L12.6591 21.1567C12.7277 20.9973 12.7113 20.8141 12.6157 20.6695C12.5202 20.5247 12.358 20.4375 12.1846 20.4375Z" fill="#F28C01"/>
<defs>
<filter id="filter0_f_3238_51377" x="7.52035" y="30.8724" width="22.1668" height="5.54427" filterUnits="userSpaceOnUse" color-interpolation-filters="sRGB">
<feFlood flood-opacity="0" result="BackgroundImageFix"/>
<feBlend mode="normal" in="SourceGraphic" in2="BackgroundImageFix" result="shape"/>
<feGaussianBlur stdDeviation="0.395833" result="effect1_foregroundBlur_3238_51377"/>
</filter>
<radialGradient id="paint0_radial_3238_51377" cx="0" cy="0" r="1" gradientUnits="userSpaceOnUse" gradientTransform="translate(18.6037 33.6432) scale(12.2708 1.11802)">
<stop stop-color="#8D8D8D"/>
<stop offset="1" stop-color="#8D8D8D" stop-opacity="0"/>
</radialGradient>
<radialGradient id="paint1_radial_3238_51377" cx="0" cy="0" r="1" gradientUnits="userSpaceOnUse" gradientTransform="translate(27.5122 7.46412) rotate(94.7636) scale(3.83186 13.4169)">
<stop stop-color="#FFCD7D"/>
<stop offset="0.782383" stop-color="#F4B404"/>
<stop offset="1" stop-color="#C08100"/>
</radialGradient>
<radialGradient id="paint2_radial_3238_51377" cx="0" cy="0" r="1" gradientTransform="matrix(0.417591 5.09342 -17.8366 1.46287 9.37402 6.18876)" gradientUnits="userSpaceOnUse">
<stop stop-color="#FFCD7D"/>
<stop offset="0.782383" stop-color="#F4B404"/>
<stop offset="1" stop-color="#C08100"/>
</radialGradient>
<linearGradient id="paint3_linear_3238_51377" x1="18.8974" y1="2.375" x2="18.8974" y2="29.2035" gradientUnits="userSpaceOnUse">
<stop stop-color="#F28B0A"/>
<stop offset="0.315159" stop-color="#F9BF2F"/>
<stop offset="1" stop-color="#F18601"/>
</linearGradient>
<radialGradient id="paint4_radial_3238_51377" cx="0" cy="0" r="1" gradientUnits="userSpaceOnUse" gradientTransform="translate(17.9666 8.10519) rotate(72.8973) scale(4.32825)">
<stop stop-color="#FFE66A"/>
<stop offset="1" stop-color="#F3B205"/>
</radialGradient>
<linearGradient id="paint5_linear_3238_51377" x1="22.7383" y1="29.4253" x2="18.8958" y2="29.4253" gradientUnits="userSpaceOnUse">
<stop/>
<stop offset="1" stop-opacity="0"/>
</linearGradient>
<linearGradient id="paint6_linear_3238_51377" x1="25.4841" y1="32.0035" x2="18.8971" y2="32.0035" gradientUnits="userSpaceOnUse">
<stop/>
<stop offset="1" stop-opacity="0"/>
</linearGradient>
<linearGradient id="paint7_linear_3238_51377" x1="27.1312" y1="32.9497" x2="18.8974" y2="32.9497" gradientUnits="userSpaceOnUse">
<stop/>
<stop offset="1" stop-opacity="0"/>
</linearGradient>
<linearGradient id="paint8_linear_3238_51377" x1="30.2579" y1="20.4375" x2="30.2579" y2="25.0809" gradientUnits="userSpaceOnUse">
<stop stop-color="#F3A801"/>
<stop offset="1" stop-color="#F28301"/>
</linearGradient>
</defs>
</svg>
