<svg width="96" height="26" viewBox="0 0 96 26" fill="none" xmlns="http://www.w3.org/2000/svg">
<mask id="path-1-outside-1_1283_35927" maskUnits="userSpaceOnUse" x="27.7051" y="-0.796875" width="68" height="26" fill="black">
<rect fill="white" x="27.7051" y="-0.796875" width="68" height="26"/>
<path fill-rule="evenodd" clip-rule="evenodd" d="M31.7687 7.52695V2.27582H28.7051V17.747H38.3852V2.27582H35.3192V7.52695H31.7687ZM35.3192 10.2404V15.0312H31.7687V10.2404H35.3192Z"/>
<path d="M45.6129 24.0206H48.6789V0.203125H45.6129V8.65351H43.5182V0.688912H40.4522V22.8686H43.5182V11.4456H45.6129V24.0206Z"/>
<path fill-rule="evenodd" clip-rule="evenodd" d="M60.4791 15.6974V13.6224H51.2074V11.0107H72.9691V13.6224H63.6973V15.6974H69.9285V24.0206H54.2456V15.6974H60.4791ZM66.7379 21.4343V18.2837H57.4408V21.4343H66.7379Z"/>
<path fill-rule="evenodd" clip-rule="evenodd" d="M62.0894 9.75463C60.9474 9.75463 59.9001 9.6621 58.9473 9.47241C57.9945 9.28504 57.1709 9.00744 56.4834 8.63963C55.7936 8.27182 55.2584 7.82073 54.8731 7.28174C54.4902 6.74506 54.2987 6.11585 54.2987 5.39874V4.78341C54.2987 4.06629 54.4902 3.4394 54.8731 2.9004C55.2561 2.36372 55.7936 1.91032 56.4834 1.54251C57.1732 1.1747 57.9945 0.897108 58.9473 0.709733C59.9001 0.522358 60.9474 0.427514 62.0894 0.427514C63.2313 0.427514 64.2764 0.522358 65.2315 0.709733C66.1843 0.897108 67.0079 1.1747 67.6953 1.54251C68.3851 1.91032 68.9203 2.36141 69.3056 2.9004C69.6886 3.4394 69.8801 4.06629 69.8801 4.78341V5.39874C69.8801 6.11585 69.6886 6.74275 69.3056 7.28174C68.9227 7.81842 68.3851 8.27182 67.6953 8.63963C67.0056 9.00744 66.1843 9.28504 65.2315 9.47241C64.2787 9.65979 63.2313 9.75463 62.0894 9.75463ZM62.0894 3.01838C61.4411 3.01838 60.839 3.06464 60.2761 3.15949C59.7132 3.25433 59.2287 3.38156 58.8204 3.54349C58.4121 3.70542 58.0891 3.90205 57.8491 4.13338C57.6092 4.3647 57.4916 4.61685 57.4916 4.88982V5.29927C57.4916 5.57223 57.6092 5.82438 57.8491 6.05571C58.0868 6.28703 58.4121 6.48366 58.8204 6.64559C59.2287 6.80752 59.7155 6.93706 60.2761 7.02959C60.839 7.12444 61.4411 7.1707 62.0894 7.1707C62.7376 7.1707 63.3398 7.12444 63.9027 7.02959C64.4656 6.93475 64.95 6.80752 65.3584 6.64559C65.7667 6.48366 66.0897 6.28703 66.3296 6.05571C66.5672 5.82438 66.6872 5.57455 66.6872 5.29927V4.88982C66.6872 4.61685 66.5672 4.3647 66.3296 4.13338C66.092 3.90205 65.7667 3.70773 65.3584 3.54349C64.95 3.38156 64.4633 3.25433 63.9027 3.15949C63.3398 3.06696 62.7353 3.01838 62.0894 3.01838Z"/>
<path d="M86.864 2.0468H75.7513V18.1587H79.9662C80.7505 18.1587 81.5418 18.1564 82.3424 18.1472C83.1429 18.1379 83.9296 18.1171 84.7047 18.0824C85.4798 18.0477 86.225 18.0014 86.9402 17.9413C87.6553 17.8812 88.3128 17.8002 88.908 17.6984L88.5758 14.9826C87.367 15.1515 86.0635 15.2672 84.6678 15.3273C83.2721 15.3874 81.9594 15.4175 80.7344 15.4175H78.9719V11.3716H86.0474V8.63038H78.9719V4.78803H86.864V2.0468Z"/>
<path d="M91.2588 8.52628H87.3508V11.293H91.2588V24.0206H94.5024V0.203125H91.2588V8.52628Z"/>
</mask>
<path fill-rule="evenodd" clip-rule="evenodd" d="M31.7687 7.52695V2.27582H28.7051V17.747H38.3852V2.27582H35.3192V7.52695H31.7687ZM35.3192 10.2404V15.0312H31.7687V10.2404H35.3192Z" fill="white"/>
<path d="M45.6129 24.0206H48.6789V0.203125H45.6129V8.65351H43.5182V0.688912H40.4522V22.8686H43.5182V11.4456H45.6129V24.0206Z" fill="white"/>
<path fill-rule="evenodd" clip-rule="evenodd" d="M60.4791 15.6974V13.6224H51.2074V11.0107H72.9691V13.6224H63.6973V15.6974H69.9285V24.0206H54.2456V15.6974H60.4791ZM66.7379 21.4343V18.2837H57.4408V21.4343H66.7379Z" fill="white"/>
<path fill-rule="evenodd" clip-rule="evenodd" d="M62.0894 9.75463C60.9474 9.75463 59.9001 9.6621 58.9473 9.47241C57.9945 9.28504 57.1709 9.00744 56.4834 8.63963C55.7936 8.27182 55.2584 7.82073 54.8731 7.28174C54.4902 6.74506 54.2987 6.11585 54.2987 5.39874V4.78341C54.2987 4.06629 54.4902 3.4394 54.8731 2.9004C55.2561 2.36372 55.7936 1.91032 56.4834 1.54251C57.1732 1.1747 57.9945 0.897108 58.9473 0.709733C59.9001 0.522358 60.9474 0.427514 62.0894 0.427514C63.2313 0.427514 64.2764 0.522358 65.2315 0.709733C66.1843 0.897108 67.0079 1.1747 67.6953 1.54251C68.3851 1.91032 68.9203 2.36141 69.3056 2.9004C69.6886 3.4394 69.8801 4.06629 69.8801 4.78341V5.39874C69.8801 6.11585 69.6886 6.74275 69.3056 7.28174C68.9227 7.81842 68.3851 8.27182 67.6953 8.63963C67.0056 9.00744 66.1843 9.28504 65.2315 9.47241C64.2787 9.65979 63.2313 9.75463 62.0894 9.75463ZM62.0894 3.01838C61.4411 3.01838 60.839 3.06464 60.2761 3.15949C59.7132 3.25433 59.2287 3.38156 58.8204 3.54349C58.4121 3.70542 58.0891 3.90205 57.8491 4.13338C57.6092 4.3647 57.4916 4.61685 57.4916 4.88982V5.29927C57.4916 5.57223 57.6092 5.82438 57.8491 6.05571C58.0868 6.28703 58.4121 6.48366 58.8204 6.64559C59.2287 6.80752 59.7155 6.93706 60.2761 7.02959C60.839 7.12444 61.4411 7.1707 62.0894 7.1707C62.7376 7.1707 63.3398 7.12444 63.9027 7.02959C64.4656 6.93475 64.95 6.80752 65.3584 6.64559C65.7667 6.48366 66.0897 6.28703 66.3296 6.05571C66.5672 5.82438 66.6872 5.57455 66.6872 5.29927V4.88982C66.6872 4.61685 66.5672 4.3647 66.3296 4.13338C66.092 3.90205 65.7667 3.70773 65.3584 3.54349C64.95 3.38156 64.4633 3.25433 63.9027 3.15949C63.3398 3.06696 62.7353 3.01838 62.0894 3.01838Z" fill="white"/>
<path d="M86.864 2.0468H75.7513V18.1587H79.9662C80.7505 18.1587 81.5418 18.1564 82.3424 18.1472C83.1429 18.1379 83.9296 18.1171 84.7047 18.0824C85.4798 18.0477 86.225 18.0014 86.9402 17.9413C87.6553 17.8812 88.3128 17.8002 88.908 17.6984L88.5758 14.9826C87.367 15.1515 86.0635 15.2672 84.6678 15.3273C83.2721 15.3874 81.9594 15.4175 80.7344 15.4175H78.9719V11.3716H86.0474V8.63038H78.9719V4.78803H86.864V2.0468Z" fill="white"/>
<path d="M91.2588 8.52628H87.3508V11.293H91.2588V24.0206H94.5024V0.203125H91.2588V8.52628Z" fill="white"/>
<path fill-rule="evenodd" clip-rule="evenodd" d="M31.7687 7.52695V2.27582H28.7051V17.747H38.3852V2.27582H35.3192V7.52695H31.7687ZM35.3192 10.2404V15.0312H31.7687V10.2404H35.3192Z" stroke="black" stroke-opacity="0.8" stroke-width="1.6" mask="url(#path-1-outside-1_1283_35927)"/>
<path d="M45.6129 24.0206H48.6789V0.203125H45.6129V8.65351H43.5182V0.688912H40.4522V22.8686H43.5182V11.4456H45.6129V24.0206Z" stroke="black" stroke-opacity="0.8" stroke-width="1.6" mask="url(#path-1-outside-1_1283_35927)"/>
<path fill-rule="evenodd" clip-rule="evenodd" d="M60.4791 15.6974V13.6224H51.2074V11.0107H72.9691V13.6224H63.6973V15.6974H69.9285V24.0206H54.2456V15.6974H60.4791ZM66.7379 21.4343V18.2837H57.4408V21.4343H66.7379Z" stroke="black" stroke-opacity="0.8" stroke-width="1.6" mask="url(#path-1-outside-1_1283_35927)"/>
<path fill-rule="evenodd" clip-rule="evenodd" d="M62.0894 9.75463C60.9474 9.75463 59.9001 9.6621 58.9473 9.47241C57.9945 9.28504 57.1709 9.00744 56.4834 8.63963C55.7936 8.27182 55.2584 7.82073 54.8731 7.28174C54.4902 6.74506 54.2987 6.11585 54.2987 5.39874V4.78341C54.2987 4.06629 54.4902 3.4394 54.8731 2.9004C55.2561 2.36372 55.7936 1.91032 56.4834 1.54251C57.1732 1.1747 57.9945 0.897108 58.9473 0.709733C59.9001 0.522358 60.9474 0.427514 62.0894 0.427514C63.2313 0.427514 64.2764 0.522358 65.2315 0.709733C66.1843 0.897108 67.0079 1.1747 67.6953 1.54251C68.3851 1.91032 68.9203 2.36141 69.3056 2.9004C69.6886 3.4394 69.8801 4.06629 69.8801 4.78341V5.39874C69.8801 6.11585 69.6886 6.74275 69.3056 7.28174C68.9227 7.81842 68.3851 8.27182 67.6953 8.63963C67.0056 9.00744 66.1843 9.28504 65.2315 9.47241C64.2787 9.65979 63.2313 9.75463 62.0894 9.75463ZM62.0894 3.01838C61.4411 3.01838 60.839 3.06464 60.2761 3.15949C59.7132 3.25433 59.2287 3.38156 58.8204 3.54349C58.4121 3.70542 58.0891 3.90205 57.8491 4.13338C57.6092 4.3647 57.4916 4.61685 57.4916 4.88982V5.29927C57.4916 5.57223 57.6092 5.82438 57.8491 6.05571C58.0868 6.28703 58.4121 6.48366 58.8204 6.64559C59.2287 6.80752 59.7155 6.93706 60.2761 7.02959C60.839 7.12444 61.4411 7.1707 62.0894 7.1707C62.7376 7.1707 63.3398 7.12444 63.9027 7.02959C64.4656 6.93475 64.95 6.80752 65.3584 6.64559C65.7667 6.48366 66.0897 6.28703 66.3296 6.05571C66.5672 5.82438 66.6872 5.57455 66.6872 5.29927V4.88982C66.6872 4.61685 66.5672 4.3647 66.3296 4.13338C66.092 3.90205 65.7667 3.70773 65.3584 3.54349C64.95 3.38156 64.4633 3.25433 63.9027 3.15949C63.3398 3.06696 62.7353 3.01838 62.0894 3.01838Z" stroke="black" stroke-opacity="0.8" stroke-width="1.6" mask="url(#path-1-outside-1_1283_35927)"/>
<path d="M86.864 2.0468H75.7513V18.1587H79.9662C80.7505 18.1587 81.5418 18.1564 82.3424 18.1472C83.1429 18.1379 83.9296 18.1171 84.7047 18.0824C85.4798 18.0477 86.225 18.0014 86.9402 17.9413C87.6553 17.8812 88.3128 17.8002 88.908 17.6984L88.5758 14.9826C87.367 15.1515 86.0635 15.2672 84.6678 15.3273C83.2721 15.3874 81.9594 15.4175 80.7344 15.4175H78.9719V11.3716H86.0474V8.63038H78.9719V4.78803H86.864V2.0468Z" stroke="black" stroke-opacity="0.8" stroke-width="1.6" mask="url(#path-1-outside-1_1283_35927)"/>
<path d="M91.2588 8.52628H87.3508V11.293H91.2588V24.0206H94.5024V0.203125H91.2588V8.52628Z" stroke="black" stroke-opacity="0.8" stroke-width="1.6" mask="url(#path-1-outside-1_1283_35927)"/>
<path d="M6.64912 4.96304C5.82215 5.42674 5.21725 6.17709 4.92864 7.05559L3.18693 5.20272C3.00207 5.00616 2.67434 5.13816 2.67434 5.4094V19.2469C2.67434 19.9792 2.11047 20.6028 1.38583 20.6289C0.625174 20.6561 0 20.0416 0 19.2792V4.28134C0 3.23133 0.623981 2.30128 1.58953 1.91226C2.55532 1.52323 3.6418 1.76363 4.35761 2.52506L6.64912 4.96304ZM19.2893 1.06892C18.5291 0.602334 17.6036 0.571019 16.8141 0.984856L7.2898 5.9774C6.44971 6.41797 5.92782 7.28539 5.92782 8.24146V22.1821C5.92782 23.2492 6.5611 24.2284 7.5474 24.6114C7.84604 24.7275 8.15517 24.7839 8.46048 24.7839C9.15148 24.7839 9.82365 24.495 10.3141 23.9559L15.6957 18.0382C16.5904 17.0544 16.5777 15.525 15.6673 14.5564L10.2673 8.81211L9.79073 9.0619V12.2281L12.8677 15.5012C13.298 15.9589 13.3037 16.6748 12.8811 17.1397L9.11833 21.2776C8.93514 21.4789 8.6024 21.3481 8.6024 21.0745V9.06166C8.6024 8.61362 8.84951 8.20267 9.24332 7.99624L16.093 4.40564C16.8842 3.99084 17.8293 4.57064 17.8293 5.47106V19.2435C17.8293 19.9775 18.3943 20.6041 19.1206 20.6286C19.8801 20.6542 20.5036 20.0401 20.5036 19.279V3.24892C20.5036 2.35042 20.0497 1.53551 19.2893 1.06892Z" fill="white"/>
<path d="M16.6279 0.630859C17.5421 0.151681 18.6179 0.187575 19.498 0.727539C20.3781 1.26751 20.9033 2.21266 20.9033 3.24902V19.2793C20.9031 20.2618 20.0973 21.0615 19.1074 21.0283C18.1486 20.9959 17.4297 20.1754 17.4297 19.2432V5.4707C17.4294 4.8646 16.7972 4.48771 16.2783 4.75977L9.42871 8.35059C9.16821 8.48728 9.002 8.76085 9.00195 9.06152V20.8105L12.585 16.8701C12.8671 16.5596 12.8632 16.0808 12.5762 15.7754L9.49902 12.502L9.39062 12.3867V8.82031L9.60547 8.70801L10.082 8.45801L10.3506 8.31641L10.5586 8.53809L15.959 14.2822C17.0124 15.403 17.0264 17.1694 15.9912 18.3076L10.6104 24.2246V24.2256C10.0442 24.8479 9.26439 25.1835 8.46094 25.1836C8.10621 25.1836 7.74734 25.1185 7.40234 24.9844C6.25269 24.5378 5.52734 23.4032 5.52734 22.1816V8.24121C5.52743 7.13796 6.1315 6.13332 7.10449 5.62305L16.6279 0.630859ZM1.44043 1.54102C2.55974 1.09033 3.82129 1.37008 4.64941 2.25098L6.94043 4.68945L7.29102 5.06152L6.84473 5.31152C6.10659 5.72542 5.56649 6.39566 5.30859 7.18066L5.09863 7.82031L4.63672 7.3291L3.07422 5.66602V19.2471C3.07414 20.1783 2.35598 20.9939 1.40039 21.0283C0.408721 21.0638 -0.400336 20.2635 -0.400391 19.2793V4.28125C-0.400355 3.06998 0.321785 1.99172 1.44043 1.54102Z" stroke="black" stroke-opacity="0.8" stroke-width="0.8"/>
</svg>
