<svg width="422" height="284" viewBox="0 0 422 284" fill="none" xmlns="http://www.w3.org/2000/svg">
<mask id="mask0_1337_29591" style="mask-type:alpha" maskUnits="userSpaceOnUse" x="-116" y="0" width="603" height="285">
<rect x="-115.47" width="601.946" height="284.008" fill="url(#paint0_linear_1337_29591)" fill-opacity="0.4"/>
</mask>
<g mask="url(#mask0_1337_29591)">
<g opacity="0.5">
<g filter="url(#filter0_d_1337_29591)">
<path d="M232.493 121.243C240.749 116.476 250.727 118.299 254.778 125.316L252.111 120.696C248.06 113.68 251.469 104.127 259.726 99.36C267.983 94.5929 277.96 96.4164 282.011 103.433C277.96 96.4164 281.37 86.864 289.626 82.0969C297.883 77.3299 307.861 79.1533 311.912 86.1698L337.25 130.058L334.501 130.753C348.33 127.747 362.856 128.215 370.255 146.421C374.818 157.646 373.386 176.952 371.873 196.304C370.859 209.28 361.135 221.647 360.176 223.077L437.152 327.579L371.873 365.268L294.897 260.765C293.179 260.882 277.302 264.107 263.811 260.234C252.062 256.861 242.987 242.998 242.987 242.998L180.703 135.12L207.937 113.237L224.872 142.57C220.829 135.555 224.239 126.008 232.493 121.243Z" fill="#1B1810"/>
<path d="M254.778 125.316C250.727 118.299 240.749 116.476 232.493 121.243C224.239 126.008 220.829 135.555 224.872 142.57M254.778 125.316L270.519 152.58M254.778 125.316L252.111 120.696C248.06 113.68 251.469 104.127 259.726 99.36C267.983 94.5929 277.96 96.4164 282.011 103.433M224.872 142.57L250.216 186.467C254.267 193.483 264.244 195.307 272.501 190.54C277.144 187.859 280.254 183.666 281.367 179.261M224.872 142.57L207.937 113.237L180.703 135.12L242.987 242.998C242.987 242.998 252.062 256.861 263.811 260.234C277.302 264.107 293.179 260.882 294.897 260.765L371.873 365.268L437.152 327.579L360.176 223.077C361.135 221.647 370.859 209.28 371.873 196.304C373.386 176.952 374.818 157.646 370.255 146.421C362.856 128.215 348.33 127.747 334.501 130.753M270.519 152.58L270.522 152.069M270.519 152.58C273.354 149.619 276.941 147.502 279.628 146.387C290.476 143.204 315.289 135.962 327.762 132.456M270.519 152.58C266.67 156.599 264.209 162.176 267.269 168.922C273.911 183.566 291.529 179.554 313.224 173.188L324.071 170.005L336.842 179.571M282.011 103.433L302.682 139.236M282.011 103.433C277.96 96.4164 281.37 86.864 289.626 82.0969C297.883 77.3299 307.861 79.1533 311.912 86.1698L337.25 130.058L334.501 130.753M334.501 130.753C332.224 131.247 329.966 131.836 327.762 132.456M334.501 130.753L327.762 132.456" stroke="white" stroke-width="7.56977" stroke-linecap="round"/>
</g>
<path d="M228.001 139.5L202.998 183.008L228.001 224.508L254.501 184.508L228.001 139.5Z" fill="url(#paint1_linear_1337_29591)" fill-opacity="0.8"/>
</g>
<g filter="url(#filter1_d_1337_29591)">
<path d="M175.818 125.633C167.561 120.866 157.583 122.69 153.532 129.706L156.2 125.086C160.251 118.07 156.841 108.518 148.584 103.751C140.327 98.9834 130.35 100.807 126.299 107.823C130.35 100.807 126.941 91.2545 118.684 86.4874C110.427 81.7204 100.449 83.5438 96.3985 90.5603L71.0598 134.448L73.8088 135.143C59.9799 132.138 45.4539 132.605 38.0547 150.811C33.4925 162.036 34.9247 181.342 36.4368 200.695C37.4507 213.671 47.175 226.038 48.1343 227.467L-32.6699 347.198L32.609 384.886L113.413 265.156C115.131 265.272 131.008 268.497 144.499 264.624C156.248 261.252 165.323 247.388 165.323 247.388L229.339 131.654C233.39 124.638 229.98 115.085 221.723 110.318C213.466 105.551 203.489 107.375 199.438 114.391L183.438 146.961C187.481 139.945 184.071 130.399 175.818 125.633Z" fill="#1B1810"/>
<path d="M175.818 125.633C167.561 120.866 157.583 122.69 153.532 129.706L156.2 125.086C160.251 118.07 156.841 108.518 148.584 103.751C140.327 98.9834 130.35 100.807 126.299 107.823C130.35 100.807 126.941 91.2545 118.684 86.4874C110.427 81.7204 100.449 83.5438 96.3985 90.5603L71.0598 134.448L73.8088 135.143C59.9799 132.138 45.4539 132.605 38.0547 150.811C33.4925 162.036 34.9247 181.342 36.4368 200.695C37.4507 213.671 47.175 226.038 48.1343 227.467L-32.6699 347.198L32.609 384.886L113.413 265.156C115.131 265.272 131.008 268.497 144.499 264.624C156.248 261.252 165.323 247.388 165.323 247.388L229.339 131.654C233.39 124.638 229.98 115.085 221.723 110.318C213.466 105.551 203.489 107.375 199.438 114.391L183.438 146.961C187.481 139.945 184.071 130.399 175.818 125.633Z" fill="white" fill-opacity="0.2"/>
<path d="M153.532 129.706C157.583 122.69 167.561 120.866 175.818 125.633C184.071 130.399 187.481 139.945 183.438 146.961M153.532 129.706L137.791 156.97M153.532 129.706L156.2 125.086C160.251 118.07 156.841 108.518 148.584 103.751C140.327 98.9834 130.35 100.807 126.299 107.823M183.438 146.961L199.438 114.391C203.489 107.375 213.466 105.551 221.723 110.318C229.98 115.085 233.39 124.638 229.339 131.654L165.323 247.388C165.323 247.388 156.248 261.252 144.499 264.624C131.008 268.497 115.131 265.272 113.413 265.156L32.609 384.886L-32.6699 347.198L48.1343 227.467C47.175 226.038 37.4507 213.671 36.4368 200.695C34.9247 181.342 33.4925 162.036 38.0547 150.811C45.4539 132.605 59.9799 132.138 73.8088 135.143M183.438 146.961L158.094 190.857C154.043 197.874 144.066 199.697 135.809 194.93C131.167 192.25 128.056 188.056 126.943 183.652M137.791 156.97C134.956 154.009 131.369 151.893 128.682 150.777C117.835 147.594 93.0214 140.352 80.5481 136.846M137.791 156.97C141.64 160.99 144.101 166.567 141.042 173.312C134.399 187.956 116.781 183.944 95.0866 177.579L84.2392 174.396L71.4678 183.961M126.299 107.823L105.628 143.627M126.299 107.823C130.35 100.807 126.941 91.2545 118.684 86.4874C110.427 81.7204 100.449 83.5438 96.3985 90.5603L71.0598 134.448L73.8088 135.143M73.8088 135.143C76.0858 135.638 78.3439 136.227 80.5481 136.846M73.8088 135.143L80.5481 136.846" stroke="white" stroke-width="7.56977" stroke-linecap="round"/>
</g>
<line opacity="0.85" x1="203.451" y1="55.9885" x2="203.451" y2="83.8536" stroke="white" stroke-width="7.96145" stroke-linecap="round"/>
<line opacity="0.85" x1="3.98073" y1="-3.98073" x2="34.8423" y2="-3.98073" transform="matrix(0.569007 0.822333 -0.900912 0.434002 159 60.1953)" stroke="white" stroke-width="7.96145" stroke-linecap="round"/>
<line opacity="0.85" x1="3.98073" y1="-3.98073" x2="34.8423" y2="-3.98073" transform="matrix(-0.569007 0.822333 -0.900912 -0.434002 242.514 56.1094)" stroke="white" stroke-width="7.96145" stroke-linecap="round"/>
<g filter="url(#filter2_d_1337_29591)">
<rect x="167.035" y="117.336" width="35.8167" height="46.1025" rx="17.9084" transform="rotate(-30 167.035 117.336)" fill="#1B1810"/>
<rect x="167.035" y="117.336" width="35.8167" height="46.1025" rx="17.9084" transform="rotate(-30 167.035 117.336)" stroke="#CCCCCC" stroke-width="7.56977" stroke-linecap="round"/>
</g>
</g>
<defs>
<filter id="filter0_d_1337_29591" x="129.803" y="61.6719" width="358.906" height="386.562" filterUnits="userSpaceOnUse" color-interpolation-filters="sRGB">
<feFlood flood-opacity="0" result="BackgroundImageFix"/>
<feColorMatrix in="SourceAlpha" type="matrix" values="0 0 0 0 0 0 0 0 0 0 0 0 0 0 0 0 0 0 127 0" result="hardAlpha"/>
<feOffset dy="32"/>
<feGaussianBlur stdDeviation="23"/>
<feComposite in2="hardAlpha" operator="out"/>
<feColorMatrix type="matrix" values="0 0 0 0 0 0 0 0 0 0 0 0 0 0 0 0 0 0 0.1 0"/>
<feBlend mode="normal" in2="BackgroundImageFix" result="effect1_dropShadow_1337_29591"/>
<feBlend mode="normal" in="SourceGraphic" in2="effect1_dropShadow_1337_29591" result="shape"/>
</filter>
<filter id="filter1_d_1337_29591" x="-84.0781" y="66.0625" width="364.93" height="401.867" filterUnits="userSpaceOnUse" color-interpolation-filters="sRGB">
<feFlood flood-opacity="0" result="BackgroundImageFix"/>
<feColorMatrix in="SourceAlpha" type="matrix" values="0 0 0 0 0 0 0 0 0 0 0 0 0 0 0 0 0 0 127 0" result="hardAlpha"/>
<feOffset dy="32"/>
<feGaussianBlur stdDeviation="23"/>
<feComposite in2="hardAlpha" operator="out"/>
<feColorMatrix type="matrix" values="0 0 0 0 0 0 0 0 0 0 0 0 0 0 0 0 0 0 0.1 0"/>
<feBlend mode="normal" in2="BackgroundImageFix" result="effect1_dropShadow_1337_29591"/>
<feBlend mode="normal" in="SourceGraphic" in2="effect1_dropShadow_1337_29591" result="shape"/>
</filter>
<filter id="filter2_d_1337_29591" x="123.802" y="88.1953" width="140.536" height="144.297" filterUnits="userSpaceOnUse" color-interpolation-filters="sRGB">
<feFlood flood-opacity="0" result="BackgroundImageFix"/>
<feColorMatrix in="SourceAlpha" type="matrix" values="0 0 0 0 0 0 0 0 0 0 0 0 0 0 0 0 0 0 127 0" result="hardAlpha"/>
<feOffset dy="32"/>
<feGaussianBlur stdDeviation="23"/>
<feComposite in2="hardAlpha" operator="out"/>
<feColorMatrix type="matrix" values="0 0 0 0 0 0 0 0 0 0 0 0 0 0 0 0 0 0 0.1 0"/>
<feBlend mode="normal" in2="BackgroundImageFix" result="effect1_dropShadow_1337_29591"/>
<feBlend mode="normal" in="SourceGraphic" in2="effect1_dropShadow_1337_29591" result="shape"/>
</filter>
<linearGradient id="paint0_linear_1337_29591" x1="185.503" y1="47.7486" x2="185.503" y2="284.008" gradientUnits="userSpaceOnUse">
<stop offset="0.65" stop-color="#D9D9D9" stop-opacity="0.8"/>
<stop offset="0.95" stop-color="#737373" stop-opacity="0.5"/>
</linearGradient>
<linearGradient id="paint1_linear_1337_29591" x1="219.501" y1="181.008" x2="230.501" y2="189.008" gradientUnits="userSpaceOnUse">
<stop stop-color="#1B1810"/>
<stop offset="1" stop-color="#1B1810" stop-opacity="0"/>
</linearGradient>
</defs>
</svg>
