<svg width="602" height="284" viewBox="0 0 602 284" fill="none" xmlns="http://www.w3.org/2000/svg">
<mask id="mask0_1337_29529" style="mask-type:alpha" maskUnits="userSpaceOnUse" x="0" y="0" width="602" height="285">
<rect width="601.946" height="284.008" fill="url(#paint0_linear_1337_29529)" fill-opacity="0.5"/>
</mask>
<g mask="url(#mask0_1337_29529)">
<g filter="url(#filter0_d_1337_29529)">
<path d="M349.13 110.298C357.278 105.593 367.125 107.393 371.122 114.317L368.49 109.758C364.492 102.834 367.857 93.4067 376.006 88.7022C384.154 83.9977 394.001 85.7973 397.998 92.7216C394.001 85.7973 397.365 76.3702 405.514 71.6657C413.662 66.9612 423.509 68.7608 427.506 75.6851L452.512 118.997L449.8 119.683C463.447 116.717 477.782 117.178 485.084 135.145C489.587 146.223 488.173 165.276 486.681 184.374C485.68 197.18 476.084 209.384 475.137 210.795L551.103 313.925L486.681 351.119L410.715 247.989C409.02 248.104 393.351 251.287 380.037 247.464C368.443 244.136 359.486 230.455 359.486 230.455L288.416 107.358C284.419 100.434 287.783 91.0066 295.932 86.3021C304.08 81.5976 313.927 83.3971 317.924 90.3215L341.61 131.345C337.619 124.422 340.985 115 349.13 110.298Z" fill="url(#paint1_linear_1337_29529)"/>
<path d="M371.122 114.317C367.125 107.393 357.278 105.593 349.13 110.298C340.985 115 337.619 124.422 341.61 131.345M371.122 114.317L386.657 141.223M371.122 114.317L368.49 109.758C364.492 102.834 367.857 93.4067 376.006 88.7022C384.154 83.9977 394.001 85.7973 397.998 92.7216M341.61 131.345L317.924 90.3215C313.927 83.3971 304.08 81.5976 295.932 86.3021C287.783 91.0066 284.419 100.434 288.416 107.358L359.486 230.455C359.486 230.455 368.443 244.136 380.037 247.464C393.351 251.287 409.02 248.104 410.715 247.989L486.681 351.119L551.103 313.925L475.137 210.795C476.084 209.384 485.68 197.18 486.681 184.374C488.173 165.276 489.587 146.223 485.084 135.145C477.782 117.178 463.447 116.717 449.8 119.683M341.61 131.345L366.621 174.666C370.618 181.59 380.465 183.389 388.613 178.685C393.195 176.04 396.264 171.902 397.363 167.555M386.657 141.223L386.916 141.672M386.657 141.223C389.455 138.301 392.995 136.213 395.647 135.112C406.352 131.97 430.839 124.823 443.149 121.364M386.657 141.223C382.859 145.19 380.43 150.694 383.449 157.351C390.005 171.803 407.391 167.844 428.801 161.561L439.506 158.42L452.11 167.86M397.998 92.7216L418.398 128.055M397.998 92.7216C394.001 85.7973 397.365 76.3702 405.514 71.6657C413.662 66.9612 423.509 68.7608 427.506 75.6851L452.512 118.997L449.8 119.683M449.8 119.683C447.552 120.171 445.324 120.752 443.149 121.364M449.8 119.683L443.149 121.364" stroke="#98530C" stroke-width="8.14482" stroke-linecap="round"/>
</g>
<g filter="url(#filter1_d_1337_29529)">
<path d="M260.154 110.142C252.006 105.437 242.159 107.237 238.162 114.161L240.794 109.602C244.792 102.678 241.427 93.2505 233.279 88.546C225.13 83.8415 215.284 85.641 211.286 92.5654C215.284 85.641 211.919 76.214 203.77 71.5095C195.622 66.805 185.776 68.6045 181.778 75.5289L156.772 118.841L159.485 119.526C145.837 116.56 131.502 117.022 124.2 134.989C119.697 146.067 121.111 165.119 122.603 184.218C123.604 197.024 133.2 209.228 134.147 210.639L54.4035 328.798L118.826 365.992L198.569 247.833C200.264 247.947 215.933 251.13 229.247 247.308C240.841 243.98 249.798 230.299 249.798 230.299L320.868 107.202C324.866 100.277 321.501 90.8503 313.352 86.1458C305.204 81.4413 295.358 83.2409 291.36 90.1652L267.675 131.189C271.665 124.266 268.299 114.844 260.154 110.142Z" fill="url(#paint2_linear_1337_29529)" shape-rendering="crispEdges"/>
<path d="M238.162 114.161C242.159 107.237 252.006 105.437 260.154 110.142C268.299 114.844 271.665 124.266 267.675 131.189M238.162 114.161L222.627 141.067M238.162 114.161L240.794 109.602C244.792 102.678 241.427 93.2505 233.279 88.546C225.13 83.8415 215.284 85.641 211.286 92.5654M267.675 131.189L291.36 90.1652C295.358 83.2409 305.204 81.4413 313.352 86.1458C321.501 90.8503 324.866 100.277 320.868 107.202L249.798 230.299C249.798 230.299 240.841 243.98 229.247 247.308C215.933 251.13 200.264 247.947 198.569 247.833L118.826 365.992L54.4035 328.798L134.147 210.639C133.2 209.228 123.604 197.024 122.603 184.218C121.111 165.119 119.697 146.067 124.2 134.989C131.502 117.022 145.837 116.56 159.485 119.526M267.675 131.189L242.664 174.509C238.666 181.434 228.819 183.233 220.671 178.529C216.089 175.884 213.02 171.745 211.922 167.398M222.627 141.067L222.368 141.516M222.627 141.067C219.83 138.145 216.289 136.057 213.637 134.955C202.932 131.814 178.445 124.667 166.135 121.207M222.627 141.067C226.425 145.034 228.854 150.538 225.835 157.195C219.279 171.646 201.893 167.687 180.483 161.405L169.778 158.264L157.174 167.704M211.286 92.5654L190.886 127.899M211.286 92.5654C215.284 85.641 211.919 76.214 203.77 71.5095C195.622 66.805 185.776 68.6045 181.778 75.5289L156.772 118.841L159.485 119.526M159.485 119.526C161.732 120.015 163.96 120.596 166.135 121.207M159.485 119.526L166.135 121.207" stroke="#FF9F3C" stroke-width="8.14482" stroke-linecap="round" shape-rendering="crispEdges"/>
</g>
</g>
<defs>
<filter id="filter0_d_1337_29529" x="233.142" y="49.9208" width="373.434" height="390.473" filterUnits="userSpaceOnUse" color-interpolation-filters="sRGB">
<feFlood flood-opacity="0" result="BackgroundImageFix"/>
<feColorMatrix in="SourceAlpha" type="matrix" values="0 0 0 0 0 0 0 0 0 0 0 0 0 0 0 0 0 0 127 0" result="hardAlpha"/>
<feOffset dy="34.4309"/>
<feGaussianBlur stdDeviation="24.7472"/>
<feComposite in2="hardAlpha" operator="out"/>
<feColorMatrix type="matrix" values="0 0 0 0 0 0 0 0 0 0 0 0 0 0 0 0 0 0 0.1 0"/>
<feBlend mode="normal" in2="BackgroundImageFix" result="effect1_dropShadow_1337_29529"/>
<feBlend mode="normal" in="SourceGraphic" in2="effect1_dropShadow_1337_29529" result="shape"/>
</filter>
<filter id="filter1_d_1337_29529" x="-0.910004" y="49.7646" width="377.052" height="405.575" filterUnits="userSpaceOnUse" color-interpolation-filters="sRGB">
<feFlood flood-opacity="0" result="BackgroundImageFix"/>
<feColorMatrix in="SourceAlpha" type="matrix" values="0 0 0 0 0 0 0 0 0 0 0 0 0 0 0 0 0 0 127 0" result="hardAlpha"/>
<feOffset dy="34.4309"/>
<feGaussianBlur stdDeviation="24.7472"/>
<feComposite in2="hardAlpha" operator="out"/>
<feColorMatrix type="matrix" values="0 0 0 0 0 0 0 0 0 0 0 0 0 0 0 0 0 0 0.1 0"/>
<feBlend mode="normal" in2="BackgroundImageFix" result="effect1_dropShadow_1337_29529"/>
<feBlend mode="normal" in="SourceGraphic" in2="effect1_dropShadow_1337_29529" result="shape"/>
</filter>
<linearGradient id="paint0_linear_1337_29529" x1="300.973" y1="47.7486" x2="300.973" y2="284.008" gradientUnits="userSpaceOnUse">
<stop offset="0.65" stop-color="#D9D9D9" stop-opacity="0.3"/>
<stop offset="0.95" stop-color="#737373" stop-opacity="0.5"/>
</linearGradient>
<linearGradient id="paint1_linear_1337_29529" x1="473.335" y1="270.853" x2="349.071" y2="55.6218" gradientUnits="userSpaceOnUse">
<stop stop-color="white" stop-opacity="0.8"/>
<stop offset="1" stop-color="white"/>
</linearGradient>
<linearGradient id="paint2_linear_1337_29529" x1="209.67" y1="129.266" x2="135.949" y2="270.697" gradientUnits="userSpaceOnUse">
<stop stop-color="white"/>
<stop offset="1" stop-color="white" stop-opacity="0.8"/>
</linearGradient>
</defs>
</svg>
